<svg xmlns="http://www.w3.org/2000/svg" width="1260" height="350" viewBox="0 0 1260 350"><defs><style>.cls-1{fill:#e2e6ac;}.cls-2{fill:#f7facf;}.cls-3{fill:#fff;}.cls-4{fill:#68694e;}.cls-5{fill:#3b3b2b;}.cls-6{fill:#ff4a78;opacity:0.25;}</style></defs><g id="Sad_Poop" data-name="Sad Poop"><path class="cls-1" d="M131.09,29.25c58.85-18.37,96.7-16.67,121-11a379.75,379.75,0,0,0,41,8,358.69,358.69,0,0,0,62,3v264a182.11,182.11,0,0,1-22-1c-19.72-2.09-28.95-6.33-40-8s-27.41-1.26-49,9Z"/><path class="cls-2" d="M244.09,293.25c-4.89,9.47-13.43,22.6-28,33-6.22,4.44-21.81,14.29-86,15-78.09.86-98.38-13.24-108-22a80,80,0,0,1-10-11c-4.71-34.13-8.35-71.6-10-112a1167.41,1167.41,0,0,1,2-131,247.76,247.76,0,0,0,110,31,249.07,249.07,0,0,0,130-31Z"/><path class="cls-3" d="M244.09,65.25c-.45,16.51-63.23,29.2-108,31C75.6,98.68,4.56,83,4.09,65.25c-.43-16.27,58.72-33.75,108-36C175.75,26.34,244.57,47.84,244.09,65.25Z"/><ellipse class="cls-4" cx="127.09" cy="65.25" rx="40" ry="16"/><path class="cls-5" d="M89.09,65.25c0,3.34,3.22,5.82,6,8,4.27,3.34,8.61,4.29,12,5,6.7,1.39,13.85,1.09,14,0,.23-1.67-16.45-2.4-18-9-1.46-6.22,11.61-13.1,10-16-1.08-2-7.69-.11-11,1C100.84,54.67,89,58.75,89.09,65.25Z"/><path class="cls-2" d="M45.09,64.25c.16,7.07,10.79,12,15,14,21.72,10.14,56,9.24,66,10,.89.07,2.83.24,3,1s-1.45,1.68-2,2c-5.27,3.06-105.46-.93-106-25-.52-23.5,94.68-32.17,97-31,1,.5,1,1,1,1,0,.49-.74.87-1,1-2.72,1.37-38.63,2.7-58,12C57.29,50.59,44.91,56.54,45.09,64.25Z"/><path class="cls-6" d="M807.09,23.61c-2.79,0-7,.07-12,0a432,432,0,0,1-90-11c-24.24-5.08-61.72-6.42-119,11-36.54-.14-64.86,5.1-84,10,0,0-46,11.75-46,26v4h0a1092.23,1092.23,0,0,0-2,134c1.76,37.83,5.38,72.95,10,105a68.6,68.6,0,0,0,10,11c18.74,16.51,42.08,18.27,57,19,79.17,3.85,128.94,6.27,156-28a73.59,73.59,0,0,0,10-17c15.63-8.42,28.34-10.05,37-10,16.6.08,25.84,6.34,52,9a197.9,197.9,0,0,0,21,1Z"/><path class="cls-6" d="M1259.09,29.61c-2.79,0-6.95.07-12,0a432,432,0,0,1-90-11c-24.24-5.08-61.72-6.42-119,11-36.54-.14-64.86,5.1-84,10,0,0-46,11.75-46,26v4h0a1092.23,1092.23,0,0,0-2,134c1.76,37.83,5.38,72.95,10,105a68.6,68.6,0,0,0,10,11c18.74,16.51,42.08,18.27,57,19,79.17,3.85,128.94,6.27,156-28a73.59,73.59,0,0,0,10-17c15.63-8.42,28.34-10.05,37-10,16.6.08,25.84,6.34,52,9a197.9,197.9,0,0,0,21,1Z"/></g></svg>