<svg xmlns="http://www.w3.org/2000/svg" width="140" height="140" viewBox="0 0 140 140"><defs><style>.cls-1{fill:#ff7aab;}</style></defs><g id="Sad_Poop" data-name="Sad Poop"><rect class="cls-1" x="7.67" y="7.36" width="123" height="123" rx="12"/><path d="M39.48,99.42A10.67,10.67,0,0,1,44,90.66C75.6,68.34,81.6,62.94,81.6,55.38c0-5.52-5.16-8.4-11.4-8.4a28.07,28.07,0,0,0-15.6,4.68,8.11,8.11,0,0,1-4.8,1.44A9.15,9.15,0,0,1,45,36.18a44.92,44.92,0,0,1,25.2-7.44c18.84,0,32.4,10.56,32.4,26.64,0,12.24-8.76,22.68-30.24,36.59H95.28a9,9,0,0,1,0,18H50A10.57,10.57,0,0,1,39.48,99.42Z"/></g></svg>