<svg xmlns="http://www.w3.org/2000/svg" width="1260" height="350" viewBox="0 0 1260 350"><defs><style>.cls-1{fill:#e2e6ac;}.cls-2{fill:#f7facf;}.cls-3{fill:#fff;}.cls-4{fill:#68694e;}.cls-5{fill:#3b3b2b;}</style></defs><g id="Sad_Poop" data-name="Sad Poop"><path class="cls-1" d="M131.09,29.25c58.85-18.37,96.7-16.67,121-11a379.75,379.75,0,0,0,41,8,358.69,358.69,0,0,0,62,3v264a182.11,182.11,0,0,1-22-1c-19.72-2.09-28.95-6.33-40-8s-27.41-1.26-49,9Z"/><path class="cls-2" d="M244.09,293.25c-4.89,9.47-13.43,22.6-28,33-6.22,4.44-21.81,14.29-86,15-78.09.86-98.38-13.24-108-22a80,80,0,0,1-10-11c-4.71-34.13-8.35-71.6-10-112a1167.41,1167.41,0,0,1,2-131,247.76,247.76,0,0,0,110,31,249.07,249.07,0,0,0,130-31Z"/><path class="cls-3" d="M244.09,65.25c-.45,16.51-63.23,29.2-108,31C75.6,98.68,4.56,83,4.09,65.25c-.43-16.27,58.72-33.75,108-36C175.75,26.34,244.57,47.84,244.09,65.25Z"/><ellipse class="cls-4" cx="127.09" cy="65.25" rx="40" ry="16"/><path class="cls-5" d="M89.09,65.25c0,3.34,3.22,5.82,6,8,4.27,3.34,8.61,4.29,12,5,6.7,1.39,13.85,1.09,14,0,.23-1.67-16.45-2.4-18-9-1.46-6.22,11.61-13.1,10-16-1.08-2-7.69-.11-11,1C100.84,54.67,89,58.75,89.09,65.25Z"/><path class="cls-2" d="M45.09,64.25c.16,7.07,10.79,12,15,14,21.72,10.14,56,9.24,66,10,.89.07,2.83.24,3,1s-1.45,1.68-2,2c-5.27,3.06-105.46-.93-106-25-.52-23.5,94.68-32.17,97-31,1,.5,1,1,1,1,0,.49-.74.87-1,1-2.72,1.37-38.63,2.7-58,12C57.29,50.59,44.91,56.54,45.09,64.25Z"/><path class="cls-1" d="M582.55,23.77c58.85-18.37,96.7-16.67,121-11a379.75,379.75,0,0,0,41,8,358.73,358.73,0,0,0,62,3v264a182.18,182.18,0,0,1-22-1c-19.72-2.09-28.94-6.33-40-8s-27.41-1.26-49,9Q639.06,155.77,582.55,23.77Z"/><path class="cls-2" d="M695.55,287.77c-4.89,9.47-13.43,22.6-28,33-6.22,4.44-21.81,14.29-86,15-78.09.86-98.38-13.24-108-22a80,80,0,0,1-10-11c-4.71-34.13-8.35-71.6-10-112a1167.41,1167.41,0,0,1,2-131,247.76,247.76,0,0,0,110,31,249.07,249.07,0,0,0,130-31Z"/><path class="cls-3" d="M695.55,59.77c-.45,16.51-63.23,29.2-108,31-60.48,2.43-131.53-13.29-132-31-.43-16.27,58.73-33.75,108-36C627.21,20.86,696,42.36,695.55,59.77Z"/><ellipse class="cls-4" cx="578.55" cy="59.77" rx="40" ry="16"/><path class="cls-5" d="M540.55,59.77c.05,3.34,3.22,5.82,6,8,4.27,3.34,8.61,4.29,12,5,6.7,1.39,13.85,1.09,14,0,.24-1.67-16.45-2.4-18-9-1.45-6.22,11.62-13.1,10-16-1.08-2-7.68-.11-11,1C552.3,49.19,540.47,53.27,540.55,59.77Z"/><path class="cls-2" d="M496.55,58.77c.17,7.07,10.79,12,15,14,21.72,10.14,56.05,9.24,66,10,.89.07,2.84.24,3,1s-1.45,1.68-2,2c-5.27,3.06-105.46-.93-106-25-.52-23.5,94.68-32.17,97-31,1,.5,1,1,1,1,0,.49-.73.87-1,1-2.71,1.37-38.63,2.7-58,12C508.75,45.11,496.38,51.06,496.55,58.77Z"/><path class="cls-1" d="M1034.77,29.08c58.85-18.36,96.7-16.67,121-11a377.17,377.17,0,0,0,41,8,358.73,358.73,0,0,0,62,3v264a182.11,182.11,0,0,1-22-1c-19.72-2.09-28.94-6.33-40-8s-27.41-1.26-49,9Z"/><path class="cls-2" d="M1147.77,293.08c-4.89,9.47-13.43,22.6-28,33-6.22,4.44-21.81,14.29-86,15-78.09.87-98.38-13.23-108-22a79.45,79.45,0,0,1-10-11c-4.71-34.12-8.35-71.59-10-112a1167.45,1167.45,0,0,1,2-131,247.76,247.76,0,0,0,110,31,249,249,0,0,0,130-31Z"/><path class="cls-3" d="M1147.77,65.08c-.45,16.51-63.23,29.21-108,31-60.48,2.43-131.53-13.29-132-31-.43-16.27,58.72-33.74,108-36C1079.43,26.17,1148.25,47.68,1147.77,65.08Z"/><ellipse class="cls-4" cx="1030.77" cy="65.08" rx="40" ry="16"/><path class="cls-5" d="M992.77,65.08c0,3.34,3.22,5.82,6,8,4.27,3.35,8.61,4.3,12,5,6.7,1.4,13.85,1.09,14,0,.24-1.67-16.45-2.4-18-9-1.45-6.22,11.62-13.1,10-16-1.08-1.94-7.68-.1-11,1C1004.52,54.5,992.69,58.59,992.77,65.08Z"/><path class="cls-2" d="M948.77,64.08c.16,7.07,10.79,12,15,14,21.72,10.15,56,9.25,66,10,.89.07,2.83.25,3,1s-1.45,1.68-2,2c-5.27,3.07-105.46-.92-106-25-.52-23.5,94.68-32.16,97-31,1,.5,1,1,1,1,0,.5-.73.87-1,1-2.72,1.37-38.63,2.7-58,12C961,50.43,948.59,56.37,948.77,64.08Z"/></g></svg>