<svg xmlns="http://www.w3.org/2000/svg" width="149" height="140" viewBox="0 0 149 140"><defs><style>.cls-1{fill:#ff7aab;}</style></defs><g id="Sad_Poop" data-name="Sad Poop"><rect class="cls-1" x="12.17" y="7.36" width="123" height="123" rx="12"/><path d="M47.1,104.33a9.13,9.13,0,0,1-4.2-7.56,8.86,8.86,0,0,1,8.88-8.87,7.56,7.56,0,0,1,4.32,1.19,33.79,33.79,0,0,0,16.68,4.8c8.76,0,13.32-3.6,13.32-8.27S82.86,78.3,71.82,78.3h-3a8.7,8.7,0,1,1,0-17.4h3c8.28,0,13-2.4,13-6.84,0-5-5.64-7.68-13.32-7.68A30.11,30.11,0,0,0,56.34,50.7a8.53,8.53,0,0,1-4.2,1.2,8.35,8.35,0,0,1-8.4-8.4,8.58,8.58,0,0,1,3.6-7c6.72-4.8,15.24-7.8,26.28-7.8,20.4,0,31.8,8.76,31.8,22,0,9.36-8,16.44-17.52,18,8.4.84,18.72,7.44,18.72,19,0,14-13.2,23.75-33.12,23.75C62.7,111.41,53.82,108.65,47.1,104.33Z"/></g></svg>