<svg xmlns="http://www.w3.org/2000/svg" xmlns:xlink="http://www.w3.org/1999/xlink" width="1920" height="1080" viewBox="0 0 1920 1080"><defs><style>.cls-1{fill:none;}.cls-2{clip-path:url(#clip-path);}.cls-3{clip-path:url(#clip-path-3);}.cls-4{clip-path:url(#clip-path-4);}.cls-5{fill:#e3f2fd;}.cls-6{fill:#a9d6e5;}.cls-7{fill:#bbdefb;}.cls-8{clip-path:url(#clip-path-5);}.cls-9{fill:#ababab;}.cls-10{fill:#c4c4c4;}.cls-11{fill:#e0e0e0;}.cls-12{fill:#f2f2f2;}.cls-13{fill:url(#linear-gradient);}.cls-14{fill:#6e6e6e;}.cls-15{fill:#348dc4;}.cls-16{fill:#115e8f;}.cls-17{fill:#fff;}.cls-18{fill:#e2e6ac;}.cls-19{fill:#f7facf;}.cls-20{fill:#68694e;}.cls-21{fill:#3b3b2b;}.cls-22{fill:#ff4a78;opacity:0.25;}.cls-23{fill:#f4ad29;}.cls-24{fill:#7f4700;}.cls-25{fill:url(#linear-gradient-2);}.cls-26{fill:#ff5f99;}.cls-27{fill:url(#linear-gradient-3);}.cls-28{fill:url(#linear-gradient-4);}.cls-29{fill:url(#linear-gradient-5);}.cls-30{fill:#c77814;}.cls-31{fill:#c7852e;}.cls-32{fill:#5c4200;}.cls-33{fill:url(#linear-gradient-6);}.cls-34{fill:url(#linear-gradient-7);}.cls-35{fill:url(#linear-gradient-8);}.cls-36{fill:url(#linear-gradient-9);}.cls-37{fill:#eaff10;}.cls-38{fill:#eaffa5;}.cls-39{fill:#422e00;}.cls-40{fill:#ffb5c8;}.cls-41{fill:#ff7aab;}.cls-42{fill:#7a6068;}.cls-43{fill:#ffd9e2;}</style><clipPath id="clip-path"><rect class="cls-1" x="3.5" y="-1" width="1916.5" height="1080"/></clipPath><clipPath id="clip-path-3"><rect class="cls-1" x="5" y="-1.53" width="1916.5" height="1080"/></clipPath><clipPath id="clip-path-4"><rect class="cls-1" x="-276.88" y="-190.14" width="2835.55" height="792"/></clipPath><clipPath id="clip-path-5"><polygon class="cls-1" points="4064.96 1237.47 -2100.04 1237.47 -435.52 602.19 2400.44 602.19 4064.96 1237.47"/></clipPath><linearGradient id="linear-gradient" x1="838.41" y1="714.11" x2="1311.47" y2="1055.76" gradientUnits="userSpaceOnUse"><stop offset="0" stop-color="#c4c4c4"/><stop offset="0.4" stop-color="#bbb"/><stop offset="0.46" stop-color="#b2b2b2"/><stop offset="0.54" stop-color="#ababab"/><stop offset="1" stop-color="#8c8c8c"/></linearGradient><linearGradient id="linear-gradient-2" x1="921.77" y1="242.38" x2="902.95" y2="228.65" gradientTransform="translate(-22.32 431.47) rotate(-30)" gradientUnits="userSpaceOnUse"><stop offset="0.02" stop-color="#ff5f99"/><stop offset="0.23" stop-color="#ff649c"/><stop offset="0.49" stop-color="#ff73a6"/><stop offset="0.58" stop-color="#ff7aab"/><stop offset="1" stop-color="#ff87b3"/></linearGradient><linearGradient id="linear-gradient-3" x1="795.58" y1="265.1" x2="766.17" y2="243.66" xlink:href="#linear-gradient-2"/><linearGradient id="linear-gradient-4" x1="797.79" y1="45.38" x2="790.06" y2="39.75" xlink:href="#linear-gradient-2"/><linearGradient id="linear-gradient-5" x1="866.62" y1="-17.88" x2="870.92" y2="-23.59" gradientTransform="translate(16.95 475.81) rotate(-30.57)" gradientUnits="userSpaceOnUse"><stop offset="0.15" stop-color="#ff5f99"/><stop offset="0.32" stop-color="#ff669e"/><stop offset="0.55" stop-color="#ff7aab"/><stop offset="1" stop-color="#ff87b3"/></linearGradient><linearGradient id="linear-gradient-6" x1="1160.28" y1="820.13" x2="1162.34" y2="814.94" gradientUnits="userSpaceOnUse"><stop offset="0.44" stop-color="#ff7aab"/><stop offset="1" stop-color="#ff87b3"/></linearGradient><linearGradient id="linear-gradient-7" x1="1266.73" y1="667.12" x2="1268.12" y2="659.55" gradientUnits="userSpaceOnUse"><stop offset="0" stop-color="#ff5f99"/><stop offset="0.44" stop-color="#ff7aab"/><stop offset="1" stop-color="#ff87b3"/></linearGradient><linearGradient id="linear-gradient-8" x1="1295.72" y1="718.64" x2="1302.06" y2="723.82" xlink:href="#linear-gradient-7"/><linearGradient id="linear-gradient-9" x1="1256.99" y1="829.25" x2="1254.5" y2="825.48" xlink:href="#linear-gradient-6"/></defs><g id="Layer_10" data-name="Layer 10"><g class="cls-2"><g class="cls-2"><g class="cls-3"><g class="cls-4"><rect class="cls-1" x="1363.7" y="-190.14" width="820.29" height="813.23"/><rect class="cls-5" x="1363.7" y="-190.14" width="820.29" height="813.23"/><path class="cls-6" d="M1948.33,589.92h-61.27a41.45,41.45,0,0,1-41.62-41.27V487.91a41.45,41.45,0,0,1,41.62-41.27h61.27A41.45,41.45,0,0,1,1990,487.91v60.74A41.45,41.45,0,0,1,1948.33,589.92Z"/><path class="cls-7" d="M1787.75,589.92h-61.27a41.45,41.45,0,0,1-41.62-41.27V487.91a41.45,41.45,0,0,1,41.62-41.27h61.27a41.45,41.45,0,0,1,41.63,41.27v60.74A41.45,41.45,0,0,1,1787.75,589.92Z"/><path class="cls-6" d="M1627.17,589.92h-61.26a41.45,41.45,0,0,1-41.63-41.27V487.91a41.45,41.45,0,0,1,41.63-41.27h61.26a41.45,41.45,0,0,1,41.63,41.27v60.74A41.45,41.45,0,0,1,1627.17,589.92Z"/><path class="cls-7" d="M1466.6,589.92h-61.27a41.45,41.45,0,0,1-41.63-41.27V487.91a41.45,41.45,0,0,1,41.63-41.27h61.27a41.45,41.45,0,0,1,41.62,41.27v60.74A41.45,41.45,0,0,1,1466.6,589.92Z"/><path class="cls-7" d="M1948.33,430.72h-61.27a41.44,41.44,0,0,1-41.62-41.26V328.72a41.44,41.44,0,0,1,41.62-41.27h61.27A41.45,41.45,0,0,1,1990,328.72v60.74A41.45,41.45,0,0,1,1948.33,430.72Z"/><path class="cls-6" d="M1787.75,430.72h-61.27a41.44,41.44,0,0,1-41.62-41.26V328.72a41.45,41.45,0,0,1,41.62-41.27h61.27a41.45,41.45,0,0,1,41.63,41.27v60.74A41.45,41.45,0,0,1,1787.75,430.72Z"/><path class="cls-7" d="M1627.17,430.72h-61.26a41.45,41.45,0,0,1-41.63-41.26V328.72a41.45,41.45,0,0,1,41.63-41.27h61.26a41.45,41.45,0,0,1,41.63,41.27v60.74A41.45,41.45,0,0,1,1627.17,430.72Z"/><path class="cls-6" d="M1466.6,430.72h-61.27a41.45,41.45,0,0,1-41.63-41.26V328.72a41.45,41.45,0,0,1,41.63-41.27h61.27a41.44,41.44,0,0,1,41.62,41.27v60.74A41.44,41.44,0,0,1,1466.6,430.72Z"/><path class="cls-6" d="M1948.33,271.53h-61.27a41.45,41.45,0,0,1-41.62-41.27V169.52a41.45,41.45,0,0,1,41.62-41.27h61.27A41.45,41.45,0,0,1,1990,169.52v60.74A41.45,41.45,0,0,1,1948.33,271.53Z"/><path class="cls-7" d="M1787.75,271.53h-61.27a41.45,41.45,0,0,1-41.62-41.27V169.52a41.45,41.45,0,0,1,41.62-41.27h61.27a41.45,41.45,0,0,1,41.63,41.27v60.74A41.45,41.45,0,0,1,1787.75,271.53Z"/><path class="cls-6" d="M1627.17,271.53h-61.26a41.45,41.45,0,0,1-41.63-41.27V169.52a41.45,41.45,0,0,1,41.63-41.27h61.26a41.45,41.45,0,0,1,41.63,41.27v60.74A41.45,41.45,0,0,1,1627.17,271.53Z"/><path class="cls-7" d="M1466.6,271.53h-61.27a41.45,41.45,0,0,1-41.63-41.27V169.52a41.45,41.45,0,0,1,41.63-41.27h61.27a41.45,41.45,0,0,1,41.62,41.27v60.74A41.45,41.45,0,0,1,1466.6,271.53Z"/><path class="cls-7" d="M1948.33,112.33h-61.27a41.44,41.44,0,0,1-41.62-41.27V10.32a41.44,41.44,0,0,1,41.62-41.26h61.27A41.45,41.45,0,0,1,1990,10.32V71.06A41.45,41.45,0,0,1,1948.33,112.33Z"/><path class="cls-6" d="M1787.75,112.33h-61.27a41.45,41.45,0,0,1-41.62-41.27V10.32a41.44,41.44,0,0,1,41.62-41.26h61.27a41.45,41.45,0,0,1,41.63,41.26V71.06A41.45,41.45,0,0,1,1787.75,112.33Z"/><path class="cls-7" d="M1627.17,112.33h-61.26a41.45,41.45,0,0,1-41.63-41.27V10.32a41.45,41.45,0,0,1,41.63-41.26h61.26a41.45,41.45,0,0,1,41.63,41.26V71.06A41.45,41.45,0,0,1,1627.17,112.33Z"/><path class="cls-6" d="M1466.6,112.33h-61.27a41.45,41.45,0,0,1-41.63-41.27V10.32a41.45,41.45,0,0,1,41.63-41.26h61.27a41.44,41.44,0,0,1,41.62,41.26V71.06A41.44,41.44,0,0,1,1466.6,112.33Z"/><rect class="cls-1" x="543.41" y="-190.14" width="820.29" height="813.23"/><rect class="cls-5" x="543.41" y="-190.14" width="820.29" height="813.23"/><path class="cls-7" d="M1288.62,589.92h-61.27a41.45,41.45,0,0,1-41.62-41.27V487.91a41.45,41.45,0,0,1,41.62-41.27h61.27a41.45,41.45,0,0,1,41.63,41.27v60.74A41.45,41.45,0,0,1,1288.62,589.92Z"/><path class="cls-6" d="M1128,589.92h-61.26a41.45,41.45,0,0,1-41.63-41.27V487.91a41.45,41.45,0,0,1,41.63-41.27H1128a41.45,41.45,0,0,1,41.63,41.27v60.74A41.45,41.45,0,0,1,1128,589.92Z"/><path class="cls-7" d="M967.46,589.92H906.2a41.45,41.45,0,0,1-41.63-41.27V487.91a41.45,41.45,0,0,1,41.63-41.27h61.26a41.45,41.45,0,0,1,41.63,41.27v60.74A41.45,41.45,0,0,1,967.46,589.92Z"/><path class="cls-6" d="M806.89,589.92H745.62A41.45,41.45,0,0,1,704,548.65V487.91a41.45,41.45,0,0,1,41.63-41.27h61.27a41.45,41.45,0,0,1,41.62,41.27v60.74A41.45,41.45,0,0,1,806.89,589.92Z"/><path class="cls-7" d="M646.31,589.92H585a41.45,41.45,0,0,1-41.63-41.27V487.91A41.45,41.45,0,0,1,585,446.64h61.27a41.45,41.45,0,0,1,41.62,41.27v60.74A41.45,41.45,0,0,1,646.31,589.92Z"/><path class="cls-6" d="M1288.62,430.72h-61.27a41.44,41.44,0,0,1-41.62-41.26V328.72a41.44,41.44,0,0,1,41.62-41.27h61.27a41.45,41.45,0,0,1,41.63,41.27v60.74A41.45,41.45,0,0,1,1288.62,430.72Z"/><path class="cls-7" d="M1128,430.72h-61.26a41.45,41.45,0,0,1-41.63-41.26V328.72a41.45,41.45,0,0,1,41.63-41.27H1128a41.45,41.45,0,0,1,41.63,41.27v60.74A41.45,41.45,0,0,1,1128,430.72Z"/><path class="cls-6" d="M967.46,430.72H906.2a41.45,41.45,0,0,1-41.63-41.26V328.72a41.45,41.45,0,0,1,41.63-41.27h61.26a41.45,41.45,0,0,1,41.63,41.27v60.74A41.45,41.45,0,0,1,967.46,430.72Z"/><path class="cls-7" d="M806.89,430.72H745.62A41.45,41.45,0,0,1,704,389.46V328.72a41.45,41.45,0,0,1,41.63-41.27h61.27a41.44,41.44,0,0,1,41.62,41.27v60.74A41.44,41.44,0,0,1,806.89,430.72Z"/><path class="cls-6" d="M646.31,430.72H585a41.45,41.45,0,0,1-41.63-41.26V328.72A41.45,41.45,0,0,1,585,287.45h61.27a41.44,41.44,0,0,1,41.62,41.27v60.74A41.44,41.44,0,0,1,646.31,430.72Z"/><path class="cls-7" d="M1288.62,271.53h-61.27a41.45,41.45,0,0,1-41.62-41.27V169.52a41.45,41.45,0,0,1,41.62-41.27h61.27a41.45,41.45,0,0,1,41.63,41.27v60.74A41.45,41.45,0,0,1,1288.62,271.53Z"/><path class="cls-6" d="M1128,271.53h-61.26a41.45,41.45,0,0,1-41.63-41.27V169.52a41.45,41.45,0,0,1,41.63-41.27H1128a41.45,41.45,0,0,1,41.63,41.27v60.74A41.45,41.45,0,0,1,1128,271.53Z"/><path class="cls-7" d="M967.46,271.53H906.2a41.45,41.45,0,0,1-41.63-41.27V169.52a41.45,41.45,0,0,1,41.63-41.27h61.26a41.45,41.45,0,0,1,41.63,41.27v60.74A41.45,41.45,0,0,1,967.46,271.53Z"/><path class="cls-6" d="M806.89,271.53H745.62A41.45,41.45,0,0,1,704,230.26V169.52a41.45,41.45,0,0,1,41.63-41.27h61.27a41.45,41.45,0,0,1,41.62,41.27v60.74A41.45,41.45,0,0,1,806.89,271.53Z"/><path class="cls-7" d="M646.31,271.53H585a41.45,41.45,0,0,1-41.63-41.27V169.52A41.45,41.45,0,0,1,585,128.25h61.27a41.45,41.45,0,0,1,41.62,41.27v60.74A41.45,41.45,0,0,1,646.31,271.53Z"/><path class="cls-6" d="M1288.62,112.33h-61.27a41.44,41.44,0,0,1-41.62-41.27V10.32a41.44,41.44,0,0,1,41.62-41.26h61.27a41.45,41.45,0,0,1,41.63,41.26V71.06A41.45,41.45,0,0,1,1288.62,112.33Z"/><path class="cls-7" d="M1128,112.33h-61.26a41.45,41.45,0,0,1-41.63-41.27V10.32a41.45,41.45,0,0,1,41.63-41.26H1128a41.45,41.45,0,0,1,41.63,41.26V71.06A41.45,41.45,0,0,1,1128,112.33Z"/><path class="cls-6" d="M967.46,112.33H906.2a41.45,41.45,0,0,1-41.63-41.27V10.32A41.45,41.45,0,0,1,906.2-30.94h61.26a41.45,41.45,0,0,1,41.63,41.26V71.06A41.45,41.45,0,0,1,967.46,112.33Z"/><path class="cls-7" d="M806.89,112.33H745.62A41.45,41.45,0,0,1,704,71.06V10.32a41.45,41.45,0,0,1,41.63-41.26h61.27a41.44,41.44,0,0,1,41.62,41.26V71.06A41.44,41.44,0,0,1,806.89,112.33Z"/><path class="cls-6" d="M646.31,112.33H585a41.45,41.45,0,0,1-41.63-41.27V10.32A41.45,41.45,0,0,1,585-30.94h61.27a41.44,41.44,0,0,1,41.62,41.26V71.06A41.44,41.44,0,0,1,646.31,112.33Z"/><rect class="cls-1" x="-276.88" y="-190.14" width="820.29" height="813.23"/><rect class="cls-5" x="-276.88" y="-190.14" width="820.29" height="813.23"/><path class="cls-7" d="M468.33,589.92H407.07a41.45,41.45,0,0,1-41.63-41.27V487.91a41.45,41.45,0,0,1,41.63-41.27h61.26A41.45,41.45,0,0,1,510,487.91v60.74A41.45,41.45,0,0,1,468.33,589.92Z"/><path class="cls-6" d="M307.75,589.92H246.49a41.45,41.45,0,0,1-41.63-41.27V487.91a41.45,41.45,0,0,1,41.63-41.27h61.26a41.45,41.45,0,0,1,41.63,41.27v60.74A41.45,41.45,0,0,1,307.75,589.92Z"/><path class="cls-7" d="M147.18,589.92H85.91a41.45,41.45,0,0,1-41.63-41.27V487.91a41.45,41.45,0,0,1,41.63-41.27h61.27a41.45,41.45,0,0,1,41.62,41.27v60.74A41.45,41.45,0,0,1,147.18,589.92Z"/><path class="cls-6" d="M-13.4,589.92H-74.67a41.45,41.45,0,0,1-41.63-41.27V487.91a41.45,41.45,0,0,1,41.63-41.27H-13.4a41.45,41.45,0,0,1,41.62,41.27v60.74A41.45,41.45,0,0,1-13.4,589.92Z"/><path class="cls-6" d="M468.33,430.72H407.07a41.45,41.45,0,0,1-41.63-41.26V328.72a41.45,41.45,0,0,1,41.63-41.27h61.26A41.45,41.45,0,0,1,510,328.72v60.74A41.45,41.45,0,0,1,468.33,430.72Z"/><path class="cls-7" d="M307.75,430.72H246.49a41.45,41.45,0,0,1-41.63-41.26V328.72a41.45,41.45,0,0,1,41.63-41.27h61.26a41.45,41.45,0,0,1,41.63,41.27v60.74A41.45,41.45,0,0,1,307.75,430.72Z"/><path class="cls-6" d="M147.18,430.72H85.91a41.45,41.45,0,0,1-41.63-41.26V328.72a41.45,41.45,0,0,1,41.63-41.27h61.27a41.44,41.44,0,0,1,41.62,41.27v60.74A41.44,41.44,0,0,1,147.18,430.72Z"/><path class="cls-7" d="M-13.4,430.72H-74.67a41.45,41.45,0,0,1-41.63-41.26V328.72a41.45,41.45,0,0,1,41.63-41.27H-13.4a41.44,41.44,0,0,1,41.62,41.27v60.74A41.44,41.44,0,0,1-13.4,430.72Z"/><path class="cls-7" d="M468.33,271.53H407.07a41.45,41.45,0,0,1-41.63-41.27V169.52a41.45,41.45,0,0,1,41.63-41.27h61.26A41.45,41.45,0,0,1,510,169.52v60.74A41.45,41.45,0,0,1,468.33,271.53Z"/><path class="cls-6" d="M307.75,271.53H246.49a41.45,41.45,0,0,1-41.63-41.27V169.52a41.45,41.45,0,0,1,41.63-41.27h61.26a41.45,41.45,0,0,1,41.63,41.27v60.74A41.45,41.45,0,0,1,307.75,271.53Z"/><path class="cls-7" d="M147.18,271.53H85.91a41.45,41.45,0,0,1-41.63-41.27V169.52a41.45,41.45,0,0,1,41.63-41.27h61.27a41.45,41.45,0,0,1,41.62,41.27v60.74A41.45,41.45,0,0,1,147.18,271.53Z"/><path class="cls-6" d="M-13.4,271.53H-74.67a41.45,41.45,0,0,1-41.63-41.27V169.52a41.45,41.45,0,0,1,41.63-41.27H-13.4a41.45,41.45,0,0,1,41.62,41.27v60.74A41.45,41.45,0,0,1-13.4,271.53Z"/><path class="cls-6" d="M468.33,112.33H407.07a41.45,41.45,0,0,1-41.63-41.27V10.32a41.45,41.45,0,0,1,41.63-41.26h61.26A41.45,41.45,0,0,1,510,10.32V71.06A41.45,41.45,0,0,1,468.33,112.33Z"/><path class="cls-7" d="M307.75,112.33H246.49a41.45,41.45,0,0,1-41.63-41.27V10.32a41.45,41.45,0,0,1,41.63-41.26h61.26a41.45,41.45,0,0,1,41.63,41.26V71.06A41.45,41.45,0,0,1,307.75,112.33Z"/><path class="cls-6" d="M147.18,112.33H85.91A41.45,41.45,0,0,1,44.28,71.06V10.32A41.45,41.45,0,0,1,85.91-30.94h61.27A41.44,41.44,0,0,1,188.8,10.32V71.06A41.44,41.44,0,0,1,147.18,112.33Z"/><path class="cls-7" d="M-13.4,112.33H-74.67A41.45,41.45,0,0,1-116.3,71.06V10.32A41.45,41.45,0,0,1-74.67-30.94H-13.4A41.44,41.44,0,0,1,28.22,10.32V71.06A41.44,41.44,0,0,1-13.4,112.33Z"/></g><g class="cls-8"><polygon class="cls-1" points="1205.3 602.19 2025.7 602.19 3323.99 1275.69 1482.61 1275.69 1205.3 602.19"/><polygon class="cls-5" points="1205.3 602.19 2025.7 602.19 3323.99 1275.69 1482.61 1275.69 1205.3 602.19"/><path class="cls-6" d="M2021.33,1217h-130.9c-49.11,0-110.39-30.3-135.36-65.54l-59.51-84c-20-28.27-2.51-50,38.12-50H1842c40.63,0,94.82,21.78,122.4,50l81.94,84C2080.7,1186.72,2070.44,1217,2021.33,1217Z"/><path class="cls-7" d="M1678.27,1217H1547.38c-49.12,0-101.4-30.3-115.92-65.54l-34.58-84c-11.64-28.27,12.34-50,53-50h108.3c40.63,0,88.36,21.78,107.55,50l57,84C1746.64,1186.72,1727.38,1217,1678.27,1217Z"/><path class="cls-6" d="M2104.29,999.44H1998c-39.87,0-92.36-20.06-116.08-43.66l-57.64-57.34c-19.77-19.66-7.48-34.94,26.61-34.94h90.87c34.09,0,81.17,15.28,106.19,34.94l72.95,57.34C2151,979.38,2144.16,999.44,2104.29,999.44Z"/><path class="cls-7" d="M1825.8,999.44H1719.54c-39.87,0-86.4-20.06-103.12-43.66l-40.63-57.34c-13.93-19.66,2.89-34.94,37-34.94h90.87c34.09,0,76.63,15.28,95.82,34.94l55.94,57.34C1878.42,979.38,1865.67,999.44,1825.8,999.44Z"/><path class="cls-6" d="M1547.31,999.44H1441.05c-39.87,0-80.45-20.06-90.16-43.66l-23.61-57.34c-8.1-19.66,13.25-34.94,47.34-34.94h90.87c34.09,0,72.1,15.28,85.45,34.94l38.93,57.34C1605.88,979.38,1587.18,999.44,1547.31,999.44Z"/><path class="cls-6" d="M2161,850.79h-89.43c-33.55,0-79.32-14.26-101.32-31.15L1916,778c-18.83-14.46-9.75-25.77,19.62-25.77h78.27c29.37,0,70.91,11.31,93.61,25.77l65.31,41.63C2199.35,836.53,2194.52,850.79,2161,850.79Z"/><path class="cls-7" d="M1926.59,850.79h-89.43c-33.55,0-75.08-14.26-92.07-31.15L1703.25,778c-14.54-14.46-2.1-25.77,27.27-25.77h78.27c29.37,0,67.56,11.31,86,25.77l53,41.63C1969.21,836.53,1960.14,850.79,1926.59,850.79Z"/><path class="cls-6" d="M1692.21,850.79h-89.42c-33.56,0-70.86-14.26-82.83-31.15L1490.47,778c-10.25-14.46,5.55-25.77,34.92-25.77h78.27c29.36,0,64.2,11.31,78.31,25.77l40.61,41.63C1739.06,836.53,1725.77,850.79,1692.21,850.79Z"/><path class="cls-7" d="M1457.84,850.79h-89.43c-33.55,0-66.62-14.26-73.58-31.15L1277.69,778c-6-14.46,13.2-25.77,42.57-25.77h78.26c29.37,0,60.85,11.31,70.67,25.77l28.26,41.63C1508.92,836.53,1491.39,850.79,1457.84,850.79Z"/><path class="cls-7" d="M1999.82,742.79h-77.2c-29,0-66.32-10.65-82.84-23.34l-41.12-31.58c-14.44-11.09-4.86-19.79,20.94-19.79h68.73c25.8,0,60.36,8.7,77.75,19.79l49.56,31.58C2035.55,732.14,2028.78,742.79,1999.82,742.79Z"/><path class="cls-6" d="M1797.49,742.79h-77.2c-29,0-63.15-10.65-75.91-23.34l-31.75-31.58c-11.14-11.09,1-19.79,26.81-19.79h68.74c25.79,0,57.77,8.7,71.87,19.79l40.19,31.58C1836.39,732.14,1826.46,742.79,1797.49,742.79Z"/><path class="cls-7" d="M1595.16,742.79H1518c-29,0-60-10.65-69-23.34l-22.38-31.58c-7.85-11.09,6.89-19.79,32.68-19.79H1528c25.79,0,55.19,8.7,66,19.79l30.81,31.58C1637.22,732.14,1624.13,742.79,1595.16,742.79Z"/><path class="cls-6" d="M1392.83,742.79h-77.19c-29,0-56.84-10.65-62.06-23.34l-13-31.58c-4.56-11.09,12.77-19.79,38.56-19.79h68.74c25.79,0,52.6,8.7,60.13,19.79l21.44,31.58C1438.05,732.14,1421.8,742.79,1392.83,742.79Z"/><path class="cls-7" d="M2055.43,660.78h-67.91c-25.49,0-59.35-8.26-75.14-18.14l-39.63-24.78c-14-8.77-6.41-15.67,16.58-15.67h61.28c23,0,54.52,6.9,70.87,15.67l46.24,24.78C2086.16,652.52,2080.91,660.78,2055.43,660.78Z"/><path class="cls-6" d="M1877.44,660.78h-67.91c-25.49,0-56.9-8.26-69.76-18.14l-32.27-24.78c-11.41-8.77-1.76-15.67,21.23-15.67H1790c23,0,52.47,6.9,66.22,15.67l38.89,24.78C1910.62,652.52,1902.92,660.78,1877.44,660.78Z"/><path class="cls-7" d="M1699.45,660.78h-67.91c-25.49,0-54.44-8.26-64.38-18.14l-24.91-24.78c-8.81-8.77,2.89-15.67,25.88-15.67h61.28c23,0,50.41,6.9,61.57,15.67l31.53,24.78C1735.08,652.52,1724.93,660.78,1699.45,660.78Z"/><path class="cls-6" d="M1521.46,660.78h-67.91c-25.48,0-52-8.26-59-18.14L1377,617.86c-6.21-8.77,7.54-15.67,30.53-15.67h61.28c23,0,48.36,6.9,56.91,15.67l24.18,24.78C1559.54,652.52,1546.94,660.78,1521.46,660.78Z"/><path class="cls-7" d="M1343.47,660.78h-67.91c-25.48,0-49.54-8.26-53.61-18.14l-10.2-24.78c-3.61-8.77,12.18-15.67,35.18-15.67h61.27c23,0,46.32,6.9,52.27,15.67l16.83,24.78C1384,652.52,1369,660.78,1343.47,660.78Z"/><polygon class="cls-1" points="384.89 602.19 1205.3 602.19 1482.61 1275.69 -358.78 1275.69 384.89 602.19"/><polygon class="cls-5" points="384.89 602.19 1205.3 602.19 1482.61 1275.69 -358.78 1275.69 384.89 602.19"/><path class="cls-7" d="M1298.05,1217H1167.16c-49.12,0-91.44-30.3-94.36-65.54l-7-84c-2.34-28.27,28.8-50,69.43-50h108.3c40.63,0,81.19,21.78,91.09,50l29.39,84C1376.38,1186.72,1347.16,1217,1298.05,1217Z"/><path class="cls-6" d="M955,1217H824.1c-49.11,0-82.45-30.3-74.91-65.54l18-84c6.05-28.27,43.65-50,84.28-50h108.3c40.63,0,74.73,21.78,76.23,50l4.47,84C1042.31,1186.72,1004.11,1217,955,1217Z"/><path class="cls-7" d="M611.94,1217H481.05c-49.12,0-73.46-30.3-55.46-65.54l42.89-84c14.43-28.27,58.5-50,99.13-50h108.3c40.63,0,68.27,21.78,61.38,50l-20.46,84C708.25,1186.72,661.05,1217,611.94,1217Z"/><path class="cls-6" d="M268.88,1217H138c-49.11,0-64.47-30.3-36-65.54l67.81-84c22.83-28.27,73.36-50,114-50H392.07c40.64,0,61.81,21.78,46.54,50l-45.38,84C374.18,1186.72,318,1217,268.88,1217Z"/><path class="cls-7" d="M-74.17,1217h-130.9c-49.11,0-55.48-30.3-16.56-65.54l92.74-84c31.22-28.27,88.2-50,128.84-50H108.24c40.64,0,55.35,21.78,31.69,50l-70.31,84C40.11,1186.72-25.06,1217-74.17,1217Z"/><path class="cls-6" d="M1238.65,999.44H1132.4c-39.87,0-73.86-20.06-75.81-43.66l-4.75-57.34c-1.63-19.66,24.74-34.94,58.84-34.94h90.86c34.1,0,67.08,15.28,74,34.94l20.07,57.34C1303.82,979.38,1278.52,999.44,1238.65,999.44Z"/><path class="cls-7" d="M960.16,999.44H853.91c-39.87,0-67.9-20.06-62.86-43.66l12.27-57.34c4.21-19.66,35.11-34.94,69.21-34.94h90.86c34.1,0,62.55,15.28,63.6,34.94l3,57.34C1031.29,979.38,1000,999.44,960.16,999.44Z"/><path class="cls-6" d="M681.68,999.44H575.42c-39.87,0-61.95-20.06-49.9-43.66l29.28-57.34c10.05-19.66,45.49-34.94,79.58-34.94h90.86c34.1,0,58,15.28,53.23,34.94l-14,57.34C758.75,979.38,721.55,999.44,681.68,999.44Z"/><path class="cls-7" d="M403.19,999.44H296.93c-39.87,0-56-20.06-36.94-43.66l46.3-57.34c15.87-19.66,55.85-34.94,89.94-34.94H487.1c34.09,0,53.48,15.28,42.85,34.94l-31,57.34C486.22,979.38,443.06,999.44,403.19,999.44Z"/><path class="cls-6" d="M124.7,999.44H18.44c-39.87,0-50-20.06-24-43.66l63.32-57.34C79.48,878.78,124,863.5,158.08,863.5H249c34.09,0,48.95,15.28,32.48,34.94l-48,57.34C213.68,979.38,164.57,999.44,124.7,999.44Z"/><path class="cls-7" d="M1198.07,850.79h-89.42c-33.56,0-61.94-14.26-63.34-31.15L1041.86,778c-1.2-14.46,21.67-25.77,51-25.77h78.27c29.37,0,57.13,11.31,62.19,25.77l14.57,41.63C1253.84,836.53,1231.63,850.79,1198.07,850.79Z"/><path class="cls-6" d="M963.7,850.79H874.27c-33.55,0-57.71-14.26-54.09-31.15l8.9-41.63c3.1-14.46,29.32-25.77,58.69-25.77H966c29.36,0,53.77,11.31,54.54,25.77l2.22,41.63C1023.69,836.53,997.25,850.79,963.7,850.79Z"/><path class="cls-7" d="M729.32,850.79H639.89c-33.55,0-53.47-14.26-44.84-31.15L616.3,778c7.39-14.46,37-25.77,66.34-25.77H760.9c29.37,0,50.43,11.31,46.9,25.77l-10.14,41.63C793.55,836.53,762.87,850.79,729.32,850.79Z"/><path class="cls-6" d="M494.94,850.79H405.52c-33.56,0-49.25-14.26-35.61-31.15L403.52,778c11.68-14.46,44.62-25.77,74-25.77h78.27c29.37,0,47.07,11.31,39.25,25.77l-22.49,41.63C563.4,836.53,528.5,850.79,494.94,850.79Z"/><path class="cls-7" d="M260.57,850.79H171.14c-33.55,0-45-14.26-26.36-31.15l46-41.63c16-14.46,52.26-25.77,81.63-25.77h78.27c29.37,0,43.71,11.31,31.6,25.77L347.4,819.64C333.26,836.53,294.12,850.79,260.57,850.79Z"/><path class="cls-6" d="M1168.59,742.79h-77.2c-29,0-53.33-10.65-54.38-23.34l-2.62-31.58c-.92-11.09,19.27-19.79,45.06-19.79h68.74c25.79,0,49.75,8.7,53.63,19.79l11,31.58C1217.31,732.14,1197.55,742.79,1168.59,742.79Z"/><path class="cls-7" d="M966.26,742.79h-77.2c-29,0-50.17-10.65-47.45-23.34l6.75-31.58c2.38-11.09,25.15-19.79,50.94-19.79H968c25.79,0,47.16,8.7,47.75,19.79l1.68,31.58C1018.14,732.14,995.23,742.79,966.26,742.79Z"/><path class="cls-6" d="M763.93,742.79H686.74c-29,0-47-10.65-40.53-23.34l16.13-31.58c5.66-11.09,31-19.79,56.8-19.79h68.74c25.79,0,44.58,8.7,41.88,19.79l-7.69,31.58C819,732.14,792.9,742.79,763.93,742.79Z"/><path class="cls-7" d="M561.61,742.79h-77.2c-29,0-43.85-10.65-33.6-23.34l25.5-31.58c8.95-11.09,36.88-19.79,62.68-19.79h68.73c25.8,0,42,8.7,36,19.79l-17.06,31.58C619.81,732.14,590.57,742.79,561.61,742.79Z"/><path class="cls-6" d="M359.28,742.79h-77.2c-29,0-40.69-10.65-26.68-23.34l34.88-31.58c12.24-11.09,42.76-19.79,68.55-19.79h68.74c25.79,0,39.41,8.7,30.14,19.79l-26.44,31.58C420.64,732.14,388.25,742.79,359.28,742.79Z"/><path class="cls-7" d="M1146.2,660.78h-67.91c-25.48,0-46.83-8.26-47.64-18.14l-2.06-24.78c-.72-8.77,17.34-15.67,40.34-15.67h61.27c23,0,44,6.9,47.12,15.67l8.67,24.78C1189.45,652.52,1171.68,660.78,1146.2,660.78Z"/><path class="cls-6" d="M968.21,660.78H900.3c-25.48,0-44.37-8.26-42.26-18.14l5.3-24.78c1.88-8.77,22-15.67,45-15.67H969.6c23,0,42,6.9,42.47,15.67l1.31,24.78C1013.91,652.52,993.69,660.78,968.21,660.78Z"/><path class="cls-7" d="M790.22,660.78H722.31c-25.48,0-41.92-8.26-36.88-18.14l12.66-24.78c4.47-8.77,26.64-15.67,49.63-15.67H809c23,0,40,6.9,37.82,15.67l-6,24.78C838.37,652.52,815.7,660.78,790.22,660.78Z"/><path class="cls-6" d="M612.23,660.78H544.32c-25.48,0-39.47-8.26-31.49-18.14l20-24.78c7.07-8.77,31.29-15.67,54.28-15.67H648.4c23,0,37.9,6.9,33.16,15.67l-13.39,24.78C662.83,652.52,637.71,660.78,612.23,660.78Z"/><path class="cls-7" d="M434.24,660.78H366.33c-25.48,0-37-8.26-26.11-18.14l27.37-24.78c9.67-8.77,35.94-15.67,58.93-15.67H487.8c23,0,35.85,6.9,28.51,15.67l-20.75,24.78C487.29,652.52,459.72,660.78,434.24,660.78Z"/><polygon class="cls-1" points="-435.52 602.19 384.89 602.19 -358.78 1275.69 -2200.17 1275.69 -435.52 602.19"/><polygon class="cls-5" points="-435.52 602.19 384.89 602.19 -358.78 1275.69 -2200.17 1275.69 -435.52 602.19"/><path class="cls-6" d="M-184,999.44H-290.22c-39.87,0-43.44-20.06-9.62-43.66l82.17-57.34c28.18-19.66,77.71-34.94,111.81-34.94H-15c34.1,0,43.92,15.28,21,34.94l-66.86,57.34C-88.38,979.38-144.09,999.44-184,999.44Z"/><path class="cls-7" d="M.8,850.79H-88.62c-33.56,0-40.33-14.26-16.12-31.15L-45.09,778c20.73-14.46,60.74-25.77,90.11-25.77h78.26c29.37,0,40,11.31,23.13,25.77L97.88,819.64C78.18,836.53,34.36,850.79.8,850.79Z"/><path class="cls-6" d="M135,742.79H57.84c-29,0-37.19-10.65-19-23.34L84.1,687.87c15.88-11.09,49.26-19.79,75.06-19.79h68.73c25.8,0,36.56,8.7,23.64,19.79L214.7,719.45C199.9,732.14,164,742.79,135,742.79Z"/><path class="cls-7" d="M-67.29,742.79h-77.2c-29,0-34-10.65-12.08-23.34l54.64-31.58c19.18-11.09,55.14-19.79,80.93-19.79H47.74c25.79,0,34,8.7,17.76,19.79L19.3,719.45C.73,732.14-38.33,742.79-67.29,742.79Z"/><path class="cls-7" d="M237,660.78H169.06c-25.48,0-34.3-8.26-20.15-18.14l35.52-24.78c12.56-8.77,41.1-15.67,64.09-15.67H309.8c23,0,33.58,6.9,23.36,15.67l-28.9,24.78C292.74,652.52,262.45,660.78,237,660.78Z"/><path class="cls-6" d="M59,660.78H-8.93c-25.48,0-31.85-8.26-14.76-18.14l42.87-24.78c15.16-8.77,45.74-15.67,68.74-15.67h61.27c23,0,31.54,6.9,18.72,15.67l-36.26,24.78C117.2,652.52,84.46,660.78,59,660.78Z"/><path class="cls-7" d="M-119,660.78h-67.91c-25.48,0-29.4-8.26-9.38-18.14l50.23-24.78c17.76-8.77,50.39-15.67,73.38-15.67h61.28c23,0,29.49,6.9,14.07,15.67l-43.61,24.78C-58.34,652.52-93.52,660.78-119,660.78Z"/></g></g><path class="cls-9" d="M1818,772.24a17.67,17.67,0,0,1-6.92-1.55c-5.94-3-235.26-86.34-578.4-210.56-32.82-35.59-68.41-83.25-92.17-142.45-58.78-146.4-8.62-272.19,20.28-329.12l848.47,170.85C1947.83,529.05,1876.68,774.78,1818,772.24Z"/><path class="cls-10" d="M1985.09,253.25c193.06-56.31,269.25-80.32,273.74-84.39.36-.32,3.17-3.16,6.62-3,4,.17,6.42,4.18,6.62,4.52,2.45,4.11.35,8.31,0,9-11.46,24-132.27,495.16-132.45,498.65,0,0,0,.16,0,.36a6.54,6.54,0,0,1-2.18,4.09c-2.29,2.1-5.75,2.78-6.62,3-8.12,1.77-257.72,62.19-298,77.2-2.94,1.09-14.61,5.19-17.67,3-2.44-1.77,1.75-6.82,2.21-7.42C1823.83,749.67,1875,596.74,1985.09,253.25Z"/><path class="cls-11" d="M1871.05,54.61C2085.41,98,2291.62,146,2284.46,170.66c-.54,1.84-2.1,3-4.68,4.71-81.28,54.65-239.06,76.49-269,86.45a57.57,57.57,0,0,1-18.71,3.15,61.67,61.67,0,0,1-18.7-3.14c-8.78-2.6-21.62-6-39.76-9.42a278.38,278.38,0,0,0-4.92-50.58c-2.69-13.42-7.34-29.69-7.9-31.65q-1.61-5.62-3.41-11.37A513.4,513.4,0,0,0,1871.05,54.61Z"/><path class="cls-12" d="M387.71,728.49C390.54,833,549,901.74,587,918.25c367.58,159.83,1032.61-33.55,1036.07-165,2.21-84-265-176.61-305-190.44-67.89-23.51-126.64-35.7-157.47-41.68-66.5-12.88-176.48-34.18-316.55-27.42-104.7,5.06-238.19,11.5-343.86,80.07C475,590.17,385.54,648.22,387.71,728.49Z"/><path class="cls-10" d="M1154.76,637c-39.89-15.43-79.09-20.13-112.48-24.14a688.59,688.59,0,0,0-143-2.19c-44,4-220.93,20.32-253.88,94.34-13.71,30.81,3.54,58.12,6.43,62.52,29.54,45,108.33,59.13,154.25,66.91,186.16,31.55,453.95-3.09,474-76.78C1292.07,713.69,1214.69,660.17,1154.76,637Z"/><path class="cls-13" d="M1623.49,752.93c15,40.39,28.42,106.13-13.21,174.8-99.45,164-450.62,241.49-726.46,209.56-50.5-5.84-265.4-30.71-399.55-154.35C382.46,889.1,385,791.66,388.51,757c18.64,31.28,58.78,85.07,143.64,130.85,118.57,64,251.38,72.87,338.47,78.71,231.6,15.54,401.77-37.9,538.23-80.76,85.37-26.81,143.92-55.25,184.92-96.09A209.2,209.2,0,0,0,1623.49,752.93Z"/><path class="cls-9" d="M1927.89,828.76c99.66-39.27,165.16-97.11,209.38-152.08l-331.66,91.47L1634.76,719l-23.45,1.14c15.44,30.16,52.54,116.17-1.68,208.11-57.35,97.24-181.24,140.69-249.58,164.66-100.1,35.1-192.66,44.23-247.9,46.88q1.66,72.62,3.35,145.22l665-164.66c-48.71-154.22-6.35-219.43,41.88-250.42C1852.06,850.84,1878.72,848.13,1927.89,828.76Z"/><path class="cls-14" d="M1805.19,767.78c-11.33,6.73-31.75,17-61,22.3-52.22,9.56-95.74-3.18-108.86-7.44a201.75,201.75,0,0,0-19.6-50.53,251.4,251.4,0,0,0-41.36-55Z"/><path class="cls-12" d="M1909.18,110.83C1882.61,49.19,1851.9-22,1753.2-71,1622-136,1429.2-132.64,1293-89.47c-2.56.81-3.82,1.24-5.85,1.9-229.29,74.31-180.22,320.32-167.31,378.65,15.62,70.66,37.46,115,47.87,131.31,36.44,57,84.9,96.75,118.64,120.5a1060.8,1060.8,0,0,1,169.18,60.61c73.42,33.81,127.76,70,165.83,99.48,69.38-40.08,187.21-120,257.42-246.55C1904.43,410.22,1978.35,271.22,1909.18,110.83Z"/><path class="cls-15" d="M1265.25,779.67A1104.88,1104.88,0,0,0,993.1,764.81c-117.81,8.11-208.46,33.3-263.44,52,5.67,1.94,13.86,4.62,24,7.43,11.74,3.27,39.42,10.45,95.79,16.35,21.21,2.22,52.19,5.38,93.62,5.94,22.39.31,83.58.34,163.29-11.89,101.51-15.57,133.49-35.75,145.87-44.58A153.88,153.88,0,0,0,1265.25,779.67Z"/><path class="cls-16" d="M1223.88,804.94c-25.79.54-64.31.72-111-1.49-72.6-3.43-130.91-11-137.16,0-3.54,6.26,13.36,11.92,10.89,19.32-7.09,21.24-158.74,12.58-158.94,14.87-.16,1.9,103,18.24,233,3A836.84,836.84,0,0,0,1223.88,804.94Z"/><path d="M1378.47,275.14c34.57,27.32,13,80.33-5.36,82-15.14,1.37-32.7-31.87-42.65-50.74-10.46-19.79-20.81-39.39-9.63-45.82S1362,262.14,1378.47,275.14Z"/><path d="M1541.7,294.06c40.67,30.72,14.31,91.58-4.66,92.91-11.32.8-22.69-19.43-35.11-41.5-9.31-16.56-32.35-57.54-14.42-66.31C1499.23,273.43,1526.39,282.49,1541.7,294.06Z"/><path d="M1561.34,440.81c3,3.19-48.28,48.29-115.39,44.58-75.12-4.15-114.26-66.4-111-68.36,2.88-1.76,39.91,44.4,106.68,50.53C1506.6,473.53,1558.45,437.76,1561.34,440.81Z"/><ellipse class="cls-17" cx="1361.04" cy="308.53" rx="13.06" ry="8.92"/><ellipse class="cls-17" cx="1524.33" cy="335.28" rx="13.06" ry="8.92"/></g><path class="cls-18" d="M189.18,142.9c9.51,30.47,8.64,50.07,5.7,62.65a194.32,194.32,0,0,0-4.14,21.23,185.59,185.59,0,0,0-1.56,32.1H52.48A94.21,94.21,0,0,1,53,247.49c1.08-10.21,3.28-15,4.14-20.71s.66-14.19-4.66-25.37Z"/><path class="cls-19" d="M52.48,201.41a47.77,47.77,0,0,1-17.08-14.5c-2.3-3.22-7.4-11.3-7.77-44.53C27.18,102,34.48,91.44,39,86.46a40.19,40.19,0,0,1,5.7-5.18c17.67-2.44,37.07-4.32,58-5.18a604.32,604.32,0,0,1,67.83,1,127.57,127.57,0,0,0,0,124.27Z"/><path class="cls-17" d="M170.54,201.41c-8.55-.23-15.12-32.74-16-55.92-1.26-31.32,6.88-68.11,16-68.35,8.43-.23,17.48,30.4,18.64,55.92C190.69,166,179.55,201.66,170.54,201.41Z"/><ellipse class="cls-20" cx="170.54" cy="140.83" rx="8.28" ry="20.71"/><path class="cls-21" d="M170.54,121.15c-1.73,0-3,1.66-4.14,3.11a14,14,0,0,0-2.59,6.21c-.72,3.47-.56,7.17,0,7.25.87.12,1.25-8.52,4.66-9.32,3.22-.76,6.78,6,8.29,5.18,1-.56.05-4-.52-5.7C176,127.23,173.91,121.11,170.54,121.15Z"/><path class="cls-19" d="M171.06,98.37c-3.66.08-6.23,5.58-7.25,7.76-5.25,11.25-4.79,29-5.18,34.18,0,.46-.12,1.47-.51,1.55s-.88-.75-1-1c-1.59-2.73.48-54.61,12.94-54.89,12.17-.27,16.66,49,16.06,50.23-.26.51-.52.51-.52.51-.26,0-.45-.38-.52-.51-.71-1.41-1.4-20-6.21-30C178.13,104.68,175.05,98.27,171.06,98.37Z"/><path class="cls-22" d="M189,727c0-1.45,0-3.6,0-6.22a223.3,223.3,0,0,1,5.69-46.6c2.63-12.55,3.33-32-5.69-61.62a172.18,172.18,0,0,0-5.18-43.49s-6.09-23.82-13.46-23.82h-2.07a564.67,564.67,0,0,0-69.39-1c-19.59.92-37.77,2.79-54.37,5.18a35,35,0,0,0-5.69,5.18c-8.56,9.7-9.47,21.79-9.84,29.51-2,41-3.25,66.77,14.5,80.78A37.82,37.82,0,0,0,52.3,670c4.35,8.09,5.2,14.67,5.18,19.16,0,8.6-3.29,13.38-4.66,26.92A100.45,100.45,0,0,0,52.3,727Z"/><path class="cls-18" d="M192,376.66c9.51,30.48,8.63,50.08,5.7,62.66a196,196,0,0,0-4.15,21.23,186.38,186.38,0,0,0-1.55,32.1H55.32a94.21,94.21,0,0,1,.52-11.39c1.08-10.21,3.28-15,4.14-20.71s.65-14.19-4.66-25.37Z"/><path class="cls-19" d="M55.32,435.18a47.88,47.88,0,0,1-17.09-14.5c-2.3-3.22-7.4-11.3-7.76-44.53-.45-40.44,6.85-50.95,11.39-55.93a41.23,41.23,0,0,1,5.69-5.17c17.68-2.44,37.08-4.33,58-5.18a604.55,604.55,0,0,1,67.83,1,127.59,127.59,0,0,0,0,124.28Z"/><path class="cls-17" d="M173.38,435.18c-8.55-.24-15.12-32.74-16-55.93-1.26-31.32,6.88-68.1,16-68.35,8.43-.22,17.47,30.41,18.64,55.93C193.53,399.79,182.39,435.42,173.38,435.18Z"/><ellipse class="cls-20" cx="173.38" cy="374.59" rx="8.28" ry="20.71"/><path class="cls-21" d="M173.38,354.92c-1.73,0-3,1.66-4.14,3.1a14,14,0,0,0-2.59,6.22c-.72,3.47-.56,7.17,0,7.25.86.12,1.24-8.52,4.66-9.32,3.22-.76,6.78,6,8.28,5.17,1-.56.06-4-.51-5.69C178.86,361,176.74,354.87,173.38,354.92Z"/><path class="cls-19" d="M173.9,332.13c-3.66.09-6.23,5.59-7.25,7.77-5.25,11.25-4.79,29-5.18,34.18,0,.46-.13,1.46-.52,1.55s-.87-.75-1-1c-1.59-2.72.48-54.61,12.94-54.88,12.17-.27,16.66,49,16,50.22-.26.52-.51.52-.51.52-.26,0-.45-.38-.52-.52-.71-1.4-1.4-20-6.22-30C181,338.45,177.89,332,173.9,332.13Z"/><path class="cls-23" d="M703.85,216.52a82.12,82.12,0,0,1-3.48-21.4c-.91-34.54,20.88-59.52,28.43-67.43a186.6,186.6,0,0,1,1.91,26.45c0,12.64-1.22,17,.4,23.9,1.55,6.58,5.82,15.58,18.41,24.9a130.77,130.77,0,0,1-13.59,10.4c-10.93,7.3-18.45,12.21-25.11,9.66A14.32,14.32,0,0,1,703.85,216.52Z"/><path class="cls-23" d="M791.42,86.7a60.31,60.31,0,0,1,21.37-7.35c19.55-2.78,34.82,5.07,40.28,8.23a9.25,9.25,0,0,1,2.35,2.68c2.31,4.06.32,8.73-3.21,19.61-.78,2.4-2,6.08-3.31,10.66-3.27-5.75-13.25-21.45-33.09-29.34A64.16,64.16,0,0,0,791.42,86.7Z"/><path class="cls-23" d="M849,123.79a56.67,56.67,0,0,1,4,26.58c-14.13,4.12-19.63,10.48-22.09,15.26-6.2,12,.9,25.55-7.4,32.55a100.18,100.18,0,0,1-11.21,7.43c-2.22,1.29-4.1,2.29-5.4,3l-9.4-11.13a42.87,42.87,0,0,0-34.94,11.82,70.43,70.43,0,0,1-26.83-25.67c-14.77-24.93-8.35-50.62-6.91-55.91a39.61,39.61,0,0,0,15,1.36c9-.93,15.22-4.81,19.34-7.44C779.76,111,788.81,93.3,792,86.35a66.34,66.34,0,0,1,29.16,7.53,62.35,62.35,0,0,1,13.74,9.83A60,60,0,0,1,849,123.79Z"/><path class="cls-23" d="M774.05,8.05c0,6.35-3.6,14.41-9.39,15.91-3.75,1-4.71-1.76-12.07-2.72-8-1-10.59,1.69-13.18-.46-3.71-3.08-2.3-12,1.13-17.61,4.34-7.11,11.83-8.91,13.23-9.25a17.33,17.33,0,0,1,10.67.3A14.8,14.8,0,0,1,772,.34,14.85,14.85,0,0,1,774.05,8.05Z"/><path class="cls-23" d="M889,200.09a32.72,32.72,0,0,1-5.11,3.75c-21.62,12.79-57.44-1.63-62.38-16.9a22.7,22.7,0,0,1-.87-8.75c.69-5.49,3.45-9.28,6.45-12.61a53.84,53.84,0,0,1,20.75-14.4,50.76,50.76,0,0,1,8.32-2.38,99.11,99.11,0,0,1,23.31-3c6.71-.07,10.16.21,13.63,2.63a15.31,15.31,0,0,1,4.36,4.75,27.5,27.5,0,0,1,4,9.79c1.3,6.61-.33,11.88-2.09,17.35A65.46,65.46,0,0,1,889,200.09Z"/><path class="cls-23" d="M793,46.39a41.54,41.54,0,0,1,3.94,19.74c-.58,29.45-27.33,49-31.29,51.76-8.8,6.23-17,12-28.14,11.4-22.27-1.3-34.92-27.4-37.7-33.13C696.3,89,688.29,72.5,694.73,54c4.82-13.9,15.12-21.34,18.61-23.79,19.24-13.5,44.89-11.93,61.92-1.84C779.34,30.76,787.84,35.94,793,46.39Z"/><ellipse cx="723.18" cy="67.22" rx="6.82" ry="9.23" transform="translate(223.07 593.91) rotate(-51.79)"/><ellipse cx="747.05" cy="44.87" rx="6.24" ry="8.45" transform="translate(224.09 580.23) rotate(-49.11)"/><path class="cls-23" d="M698.5,28.25a46.3,46.3,0,0,1,0,5.64,55.28,55.28,0,0,1-1.86,10.76c-.9,3.66-2.08,8.18-3.58,13.37l24.33-27.77a16.57,16.57,0,0,1-6-.58c-2-.6-2.59-1.23-6.43-2.75-3.43-1.36-4.56-1.49-5.38-.93A3.13,3.13,0,0,0,698.5,28.25Z"/><path class="cls-23" d="M801.89,200.75a24.76,24.76,0,0,0-10.62-4.83c-13.9-2.55-24.57,8.72-25.7,9.93-2.29,2.46-3.41,4.53-5.34,8.09a71.78,71.78,0,0,0-8.29,31.34,74.86,74.86,0,0,0,2.18,20.54,29,29,0,0,0,11.93,10.88c10.43,5,23.56,2.81,34.15-5.18a35,35,0,0,0,8-7.06c14-16.93,6-41.52,4.83-44.78A55.6,55.6,0,0,0,801.89,200.75Z"/><path class="cls-24" d="M781.44,53c-7-7.56-34.91-.28-46.84,18.16-6.77,10.49-10,27-3.41,31.85,5,3.77,15.32.14,21-5.64,4.24-4.35,8.25-12.36,5.57-16.94-1.64-2.79-7.05-6.52-7.07-8a1.81,1.81,0,0,1,.26-1,1.94,1.94,0,0,1,1.21-.7c1.58-.28,3.21,6.11,6.46,8.38,4.79,3.35,15.91-.32,21.12-8.16C783.05,66,785.31,57.18,781.44,53Z"/><path d="M752.14,55.42c1,2.27,3.3,8.38.49,13.44a9.72,9.72,0,0,1-.86,1.3,7.73,7.73,0,0,1-2.42,1.4c-5.52,2-11.3-3.2-11.81-3.67a21.7,21.7,0,0,1,2-3.57,22.42,22.42,0,0,1,8.64-7.41A22.13,22.13,0,0,1,752.14,55.42Z"/><path class="cls-23" d="M734,23.93c-8.31,4.92-16.78,10.32-25.34,16.24-2.14,1.48-4.24,3-6.31,4.45a68.77,68.77,0,0,0,10.85-17.56,68.8,68.8,0,0,0,4.19-13.73,8.74,8.74,0,0,1,4.42.68c3.51,1.57,3.88,4.87,7.67,7.68A14.59,14.59,0,0,0,734,23.93Z"/><path class="cls-17" d="M724.42,63.35c1.56,1,2.73,3.24,1.84,4.59s-3.22,1.29-4.68.28c-1.65-1.15-2.33-3.77-1.24-4.94C721.27,62.28,723.23,62.61,724.42,63.35Z"/><path class="cls-17" d="M748.24,41.36c1.57,1,2.73,3.24,1.85,4.59s-3.23,1.29-4.69.28c-1.64-1.15-2.33-3.77-1.23-4.94C745.1,40.3,747.06,40.62,748.24,41.36Z"/><path class="cls-25" d="M895.82,163c-2.19-1.58-5.75-1-7-.84a14.3,14.3,0,0,0-6.4,2.9,21.24,21.24,0,0,0-7,8.87A19,19,0,0,0,874,185.32c.94,4.69,4.44,11.54,9.16,11.67,4.3.12,7.37-5.39,9.76-9.67C897.43,179.18,900.62,166.48,895.82,163Z"/><path class="cls-26" d="M882.35,157.88a3.81,3.81,0,0,1-1,3.82c-1.63,1.68-4.91,2.09-6.25.37-1.22-1.57-.51-4.55,1.54-5.73S881.58,156,882.35,157.88Z"/><path class="cls-26" d="M868.7,170.6c1.79,1.89.7,5.94-1.79,6.69a3.94,3.94,0,1,1,1.79-6.69Z"/><path class="cls-26" d="M869.66,191.85c.9,1.45,1.19,4-.32,5s-3.78.2-4.78-1.28c-1.34-2-.26-5.23,1.54-5.73C867.43,189.5,869,190.7,869.66,191.85Z"/><path class="cls-27" d="M799.07,264.5c.54-2.64-1.42-5.66-2.08-6.68a14.27,14.27,0,0,0-5.25-4.66,21.27,21.27,0,0,0-11-2.74,19,19,0,0,0-11,3.27c-3.89,2.78-8.71,8.77-6.9,13.13,1.65,4,7.94,4.52,12.82,4.95C785,272.58,797.88,270.29,799.07,264.5Z"/><path class="cls-26" d="M798.09,252.62a3.78,3.78,0,0,1-3.9.63c-2.2-.79-3.92-3.62-2.9-5.54s4-2.33,5.86-1S799.5,251.15,798.09,252.62Z"/><path class="cls-26" d="M782.2,246.24c-1,2.4-5.13,3.06-6.83,1.1a3.94,3.94,0,1,1,6.83-1.1Z"/><path class="cls-26" d="M764.77,255.71c-1,1.42-3.13,2.7-4.72,1.76s-1.73-3.36-.79-4.88c1.28-2,4.67-2.38,5.86-.94C766,252.72,765.53,254.6,764.77,255.71Z"/><path class="cls-23" d="M693.35,78.06c1,4,1.92,4.64,1.33,6.5-1.79,5.63-13.63,9.25-21.32,5a16.37,16.37,0,0,1-6-6.21,22.34,22.34,0,0,1-3-13.61,28.12,28.12,0,0,1,2.89-14.58A22.34,22.34,0,0,1,672.75,48a18.15,18.15,0,0,1,6.66-3.85,18.4,18.4,0,0,1,6.85-.73c1.8.15,8.11.65,9.64,4.12.8,1.82-.16,3.39-1.18,6.34A45.58,45.58,0,0,0,693.35,78.06Z"/><path class="cls-28" d="M692.44,68.09a24.46,24.46,0,0,0,0,5.63,16,16,0,0,0,.45,2.17,7.53,7.53,0,0,1-3.54,3.66c-3.51,1.58-8-.33-10.08-3.47-2.45-3.61-1.89-8.93,1.33-11.67a9,9,0,0,1,7.11-1.68c.62.1,4.12.66,4.87,2.84C692.77,66.07,692.61,66.12,692.44,68.09Z"/><path class="cls-29" d="M759.64,13.87c1.66,2.77.28,6.58-1.67,7.49-.9.41-1.33-.06-4.73-.46s-3.88,0-4.43-.63c-1.43-1.51-.43-6.7,3.17-8.37C754.39,10.78,758,11.2,759.64,13.87Z"/><path class="cls-30" d="M737.91,194.4c-8.66-12.53-10.08-26.23-9.43-26.44.31-.1,1.12,2.84,4.8,9.76,2,3.74,3.7,6.55,4.7,8.14a74,74,0,0,0,5.33,7.78,53.61,53.61,0,0,0,7.93,8l-4,3.16A54.22,54.22,0,0,1,737.91,194.4Z"/><path class="cls-30" d="M832.84,101a69.11,69.11,0,0,1,9.28,8.84,63.49,63.49,0,0,1,6.92,9.78c-.31,1.16-.62,2.31-.94,3.47a79.53,79.53,0,0,0-11.74-17.45,55.89,55.89,0,0,0-14-11.15c-7-3.92-13.38-5.44-13.31-5.68s5.35.71,11.23,3.54C825.27,94.75,828.52,97.44,832.84,101Z"/><path class="cls-30" d="M752.7,127.78c-12.68,4.15-24.35.41-24.32-.16s11.52,2.65,24.49-2.44c7.72-3,12.84-7.78,19-13.45,10.22-9.48,14.84-17.35,15.17-17.12s-5.68,12.36-17.75,22.78C764.63,121.38,760,125.4,752.7,127.78Z"/><path class="cls-31" d="M810.42,202.51a9.29,9.29,0,0,0,6.36-2,9.44,9.44,0,0,0,3.3-4.41,12.19,12.19,0,0,0,.33-5.2c-.14-1.88-.4-2-.55-3.86-.22-2.74.12-5.2.33-5.2s-.05,1.59.56,3.85a17.26,17.26,0,0,0,4.34,7.52,17.94,17.94,0,0,0,1.71,1.52A56.15,56.15,0,0,1,814,205.07a53.46,53.46,0,0,1-6.12,3.1,26,26,0,0,0-3.52-4.65c-4.72-5-10-6.45-9.81-6.86s5.91.12,11.23,3.53C807.49,201.32,808.47,202.28,810.42,202.51Z"/><path class="cls-32" d="M1298.79,748.87c.09-2,1.64-2.41,2.71-6.23.55-2,.48-3.1,1.09-3.25,1-.25,2.4,2.3,3.25,3.79,1.46,2.59,2.19,3.88,2.17,5.69,0,2.52-1.5,5.93-3.8,6.24C1301.64,755.45,1298.66,751.79,1298.79,748.87Z"/><path class="cls-23" d="M1180.1,829.9c14.57-4.22,20.35-29.46,12-38.16-5.52-5.77-16.72-3.59-24.5-2-5.68,1.21-17.46,3.18-19.51,10.3-.84,2.94.14,6.15,1.09,9.21a31.65,31.65,0,0,0,4.87,9.22C1158.55,824.17,1169.72,832.9,1180.1,829.9Z"/><path class="cls-23" d="M1272.91,817c.07-7.54-5.34-12.89-8.8-16.32a33.16,33.16,0,0,0-11.93-7.59c-3.51-1.26-14.35-5.18-22.22.55-5.41,3.93-6.65,10.41-7,12.46-2.42,12.64,5.09,29.93,19,33.06,10.24,2.31,18.95-4.19,20.6-5.42C1265,831.83,1272.83,826,1272.91,817Z"/><path class="cls-23" d="M1266.27,757.82a13.45,13.45,0,0,0-2.16-7.59c-1.19-1.74-2.36-2.42-2.17-2.71.38-.59,6.16,1,9.2,5.4.67,1,1.32,1.9,2,3.05.5.81,1.8,2.94,2.84,5.07,2.16,4.47,4.15,8.59,2.72,12.49a8.46,8.46,0,0,1-2.17,3.25l-14.09,6.51a37.51,37.51,0,0,0,1.63-3.8,56.42,56.42,0,0,0,2.71-13.55A37.45,37.45,0,0,0,1266.27,757.82Z"/><path class="cls-23" d="M1215.33,712.83a180.28,180.28,0,0,0-31.44,8.13s-12,4.17-19.76,12.16a10.81,10.81,0,0,0-3.25,6,9.82,9.82,0,0,0,1.08,6c1.85,3.41,2.79,6.49,6,11.92,1.34,2.3,1.89,3.11,2.42,3,1.07-.19.76-3.76,2.17-8.67a37.06,37.06,0,0,1,2.71-6.5,83,83,0,0,1,9.76-15.18l9.21-8.13a45.36,45.36,0,0,1,6-3.79A44.24,44.24,0,0,1,1215.33,712.83Z"/><path class="cls-23" d="M1308,672.73c1.74.41,2.16.79,2.16,1.08,0,.85-3.55.92-6.5,3.25a11.06,11.06,0,0,0-3.25,4.34,34.24,34.24,0,0,0-8.67-8.13,34.66,34.66,0,0,0-15.72-5.42,26.14,26.14,0,0,1,6.5-.54c6.37.25,9.4,2.73,16.8,4.33A50.17,50.17,0,0,0,1308,672.73Z"/><path class="cls-23" d="M1299.33,679.77a24,24,0,0,0,6.51,4.34c2.45,1.09,4.92,1.66,9.21,3.79,1.73.86,3.36,1.78,3.25,2.71-.06.5-.6.85-1.08,1.08-.63-.24-4.91-1.8-8.67.55a8.44,8.44,0,0,0-2.71,2.71,36.79,36.79,0,0,0-6.51-15.18Z"/><path class="cls-23" d="M1267,763.54c.11,17.57-10.74,30.06-14.09,33.6-13.54,14.33-30.73,15.86-36.31,16.26-4.87.36-31.74,2.31-43.9-15.72-9.45-14-4.33-31.65-1.08-42.81,1.81-6.23,4.81-16.13,13.55-25.47,2.84-3,15-16,32-16.81C1242,711.49,1266.86,737.11,1267,763.54Z"/><path class="cls-23" d="M1296.62,677.06c-12.4-12.11-31.15-9.74-39.56-8.67-6.37.81-14.43,1.83-22.76,7.59-15.26,10.53-18,27.69-18.43,30.35-.6,4.07-3.46,23.67,10.3,35.77,12.35,10.87,29,7.68,32,7,11.25-2.4,19.06-11.36,34.69-29.26,11.22-12.86,12.91-18,13-22.77C1306.05,686.27,1298.08,678.48,1296.62,677.06Z"/><path d="M1279.81,699.75a2.93,2.93,0,0,0-.8-2.67c-1.72-1.87-5.5-1.29-7.9,0-2.81,1.54-5.18,4.92-4.28,6.53.65,1.18,3,1.3,4.48,1s1.62-1.1,4-2.38C1278,700.75,1279.4,700.91,1279.81,699.75Z"/><path d="M1286.33,711.21c.08-1.51-2-2.65-2.17-2.71a6.2,6.2,0,0,0-4.88,0,7.77,7.77,0,0,0-4.88,3.79c-.28.58-1.27,2.61-.45,3.62,1.24,1.51,5.65-.41,8-1.45S1286.25,712.57,1286.33,711.21Z"/><path class="cls-33" d="M1171.43,827.19c-1.79,1.39-8.31-4-11.93-7.59-4.84-4.87-9.18-11.43-8.13-12.47.47-.45,3.57,1.5,9.76,5.42,5.78,3.66,7.35,4.88,8.67,7.05C1171.39,822.2,1172.67,826.22,1171.43,827.19Z"/><path class="cls-26" d="M1163.3,806.05a1.9,1.9,0,0,1-1.09,1.63c-1.44.67-3.86-.82-3.79-2.17a2.11,2.11,0,0,1,1.63-1.63,2.54,2.54,0,0,1,2.16.55A2.15,2.15,0,0,1,1163.3,806.05Z"/><path class="cls-26" d="M1171.43,812.55c-.11,1.24-1.74,2.35-3.25,2.17s-3.08-1.89-2.71-3.25a2.62,2.62,0,0,1,2.16-1.63C1169.42,809.58,1171.55,811.06,1171.43,812.55Z"/><path class="cls-26" d="M1180.1,820.14c-.08-1.08-2.18-2.08-3.79-1.62-.17,0-1.39.39-1.63,1.35a2.37,2.37,0,0,0,1.63,2.44C1178,822.91,1180.19,821.31,1180.1,820.14Z"/><path class="cls-23" d="M1278.2,668.39c-3.35,1.75-5.18-.53-13-.54-8.78,0-11.09,2.85-13.55,1.08-4.59-3.3-4-18.64,5.42-24.93a18,18,0,0,1,18.43-.54c1,.59,6.92,3.94,8.13,10.84C1284.54,659.6,1282.56,666.11,1278.2,668.39Z"/><path class="cls-23" d="M1288,726.38c0-1.15,1.1-2.41,3.25-4.88,6.53-7.48,6.67-7.64,7-8.13,4.4-5.66,3.76-8.19,6-8.67,3.43-.74,8,4.7,9.76,9.76.43,1.28,2.24,6.64-.55,11.92-3.46,6.57-11.86,8.9-17.88,7C1292.16,732.38,1287.9,729.51,1288,726.38Z"/><path class="cls-34" d="M1270.61,668.39c-.9.36-1.36-.45-3.79-.54-2-.07-2.42.42-3.26,0-1.32-.68-1.84-2.77-1.62-4.34a6.06,6.06,0,0,1,5.42-4.88,5.1,5.1,0,0,1,3.79,1.09C1273.8,662.1,1272.61,667.58,1270.61,668.39Z"/><path class="cls-35" d="M1290.66,722.86c-.07,2.6,3.16,5.57,6.51,5.69,3.95.14,6.89-3.75,7.58-7,.58-2.75-.08-6.68-2.71-8.13a4.44,4.44,0,0,0-2.71-.54c-1.75.26-2.4,1.61-5.42,5.42C1291.16,721.73,1290.69,721.88,1290.66,722.86Z"/><path class="cls-24" d="M1262.46,708.56c6,7.48,7.79,20.2,1.59,28.7-3.52,4.81-10.4,9.37-16,7.8a6.63,6.63,0,0,1-3.93-2.51c-1.91-2.93,1.13-5.45,1-12.53-.07-3.35-.82-6,.54-7a27.24,27.24,0,0,1,3.88-1.84,20.46,20.46,0,0,0,3.63-2s1.17-.81,1-1.18a2.54,2.54,0,0,0-.56-.47l0,0c-.74-.53-6.78,4.83-9.46,3.6a2.78,2.78,0,0,1-1.23-1.52c-3.14-6.16-7.94-6.57-8.62-10.62a7.49,7.49,0,0,1,1.17-5c3.33-5,12.83-4.38,18.89-1.76A21.65,21.65,0,0,1,1262.46,708.56Z"/><path class="cls-32" d="M1176.31,788.71c-.91-1.07-2.51-.89-14.1,2.17-6.07,1.6-9.29,2.52-11.92,5.42-.14.15-2.75,3-2.17,3.79.3.39,1.35,0,1.73-.08,5.75-1.79,12.89,2.52,15-.12,1.07-1.32-.48-2.74.62-4.14,2-2.48,7.67,1,10.29-1.62C1177.14,792.77,1177.41,790,1176.31,788.71Z"/><path class="cls-32" d="M1251.64,668.93a47.72,47.72,0,0,0-33.06,27.1c2.85,3.13,4.79,3.44,6,3.25,4.74-.74,5.39-10.8,10.3-11.38,2.62-.31,3.75,2.39,6,1.63,3.2-1.11,2.49-7.39,5.42-8.13,2.14-.55,3.84,2.45,6,1.62,1.39-.54,1.9-2.3,2.17-3.25C1255.73,675,1252.6,670.28,1251.64,668.93Z"/><path class="cls-32" d="M1222.92,738.85a34.32,34.32,0,0,1-5.42-9.22,35,35,0,0,1-2.17-16.8,49.5,49.5,0,0,0-35.23,26c6.65,1.07,8.59,3.23,9.21,4.87,2,5.37-7.43,11.76-4.87,18.43a6.85,6.85,0,0,0,3.25,3.79c2.94,1.35,5.29-1.1,7,0,3,1.87-1.51,10.25,1.63,13,2.21,1.95,8,.94,9.75-2.17,3.1-5.33-6.82-14.62-3.79-18.42,1.85-2.32,6.31.13,8.67-2.71,2-2.44-.21-5.51,1.09-9.22C1212.93,744,1215.45,741,1222.92,738.85Z"/><path class="cls-32" d="M1182.81,722c-1.79-1.36-5.83,1.24-11.38,4.88-5.12,3.36-9.24,6.11-8.67,8.13a2.77,2.77,0,0,0,2.71,1.63c1.26-.09,1.64-1.23,3.25-2.71a12.26,12.26,0,0,1,6.5-3.25c2.65-.29,4,.91,4.88,0,1.09-1.09-.16-3.42,1.08-4.34.76-.56,1.59,0,2.17-.54C1184.12,725.08,1183.88,722.86,1182.81,722Z"/><path class="cls-32" d="M1254.35,802.26a1.61,1.61,0,0,0,0-1.63c-.51-.71-1.74-.34-2.17-1.08a1.06,1.06,0,0,1,0-1.09c.86-1,5,2.33,6.51,1.09a1.89,1.89,0,0,0,.54-1.63c-.66-4-22.79-9.61-30.89,0-5,5.91-3.9,16.69-2.17,17.34a1.26,1.26,0,0,0,1.08,0c.63-.37.31-1.34,1.09-2.16.09-.11.64-.68,1.08-.55s.39,1.26,1.08,1.63a1.45,1.45,0,0,0,1.09,0c2.05-.64,1.89-7.1,5.42-10.3,1.74-1.57,3.81-1.87,6-2.16C1248.87,800.91,1253.33,803.81,1254.35,802.26Z"/><path d="M1254.35,718.25c-1.69-4,3.53-10.78,7.59-10.3,2.76.33,4.45,4,4.88,4.88s2.19,4.72.54,7C1265,723.2,1256.09,722.41,1254.35,718.25Z"/><path class="cls-36" d="M1265.19,825a3.88,3.88,0,0,0-.54-3.25c-1.78-2-6.44-.13-8.13.54a15.13,15.13,0,0,0-7.59,6c-.7,1.12-2.63,4.22-1.63,5.42s5-.54,11.93-3.79C1262.86,828.18,1264.69,827,1265.19,825Z"/><path class="cls-26" d="M1242,825.27c.21.52,0,1-.34,1.93s-.56,1.44-1,1.64a1.9,1.9,0,0,1-2.14-.83c-.78-1.3.5-3.7,1.88-3.79A1.78,1.78,0,0,1,1242,825.27Z"/><path class="cls-26" d="M1251.65,818.11c0,.15-.1.27-1.15,1-1.3.93-1.49,1-1.69,1a1.72,1.72,0,0,1-1.55-1.19c-.31-1.09.94-2.6,2.33-2.57C1250.7,816.38,1251.77,817.42,1251.65,818.11Z"/><path class="cls-26" d="M1262.87,815.72c-.24.28-.55.14-1.7.22-1.41.1-1.7.38-2.23.11a1.53,1.53,0,0,1-.85-1.27c0-1,1.74-1.82,3.08-1.61a2.3,2.3,0,0,1,1.49.85C1263,814.5,1263.22,815.31,1262.87,815.72Z"/><path class="cls-30" d="M1168.21,757.13a72.6,72.6,0,0,1,3.74-7.51c1.3-2.26,3-5,3.26-4.87s-.6,1.48-1.63,4.33c-.59,1.64-1.11,3.44-2.17,7-.46,1.59-.84,2.91-1.08,3.79a7.83,7.83,0,0,1-1.09-1.08A8,8,0,0,1,1168.21,757.13Z"/><path class="cls-30" d="M1262.46,783.23a35.24,35.24,0,0,0,2.71-7.05c1.68-6.35,1.3-11.38,1.63-11.38s.79,3.33.54,7a28.5,28.5,0,0,1-2.71,10.3Z"/><path class="cls-31" d="M1198.54,809.42c2,1.71,9.12,1.47,10.27,1.45,6.55-.17,8.07.29,9.21-1.09.62-.74.32-1,1.63-3.79a17.51,17.51,0,0,1,2.17-3.8,11.5,11.5,0,0,1,4.33-3.25,18.19,18.19,0,0,0-2.71,4.88,18.72,18.72,0,0,0-1.08,5.42,26.59,26.59,0,0,0,0,3.25,74.28,74.28,0,0,1-10.84,1.09,75.51,75.51,0,0,1-16.78-1.45,19.44,19.44,0,0,0-.54-4.34c-1.21-5-4.06-7.92-3.79-8.13s3.78,2.3,6,6.51C1197.62,808.58,1197.67,808.66,1198.54,809.42Z"/><path class="cls-37" d="M884.11,589.07c-1.76-12.2-5.79-11.06-14.28-34.26-17.55-48-10.34-80.49-18.56-82.1-9.48-1.86-11.25,43-47.83,69.25-22.45,16.13-37.22,10.32-59.25,31.41a98.67,98.67,0,0,0-25.7,41c-2,6.32-15.89,50.26,7.85,73.89,23.32,23.2,65.68,9.63,75.67,6.42C850.15,679.31,890,629.89,884.11,589.07Z"/><path d="M811.29,595.86c-1.83,4.68-6.83,8.66-9.28,7.49s-1.69-7.09-1.42-9.28c.32-2.59,1.08-8.81,5-10a5.15,5.15,0,0,1,4.29.71C813,587,812.61,592.51,811.29,595.86Z"/><path d="M829.57,587.65c-3.23.89-3.85,6.62-4,8-.49,4.53.77,10.73,3,11,3.3.41,9.84-12,6-17A5.16,5.16,0,0,0,829.57,587.65Z"/><path d="M822,624.41c1,1.07-13.89,21-21.41,17.49-4.94-2.28-7-13-2.86-17.49.88-.95,2.35-2.32,3.24-1.9,2.07,1-2.29,10,.33,12.25C805.18,638,821.1,623.4,822,624.41Z"/><path class="cls-38" d="M870.55,569.09c22.4,27.43-2.07,68.28-9.28,77.1-1.09,1.32-5.88,7.18-7.14,6.42-.29-.17-.88-1,2.14-9.28,2.37-6.51,3.55-9.77,6.43-15,5.33-9.68,12.22-40.76,0-56.4-14.37-18.39-52.13-11.51-52.12-15.7,0-1.91,7.15-3.3,8.57-3.57C833.59,549.87,857,552.45,870.55,569.09Z"/><ellipse class="cls-17" cx="805.57" cy="592.65" rx="2" ry="3"/><ellipse class="cls-17" cx="829.07" cy="596.65" rx="1.5" ry="3"/><path class="cls-32" d="M1286.9,190.54c8.48,4.88,27.07,15.56,30.76,34.16,8.32,41.95-65.16,94.2-130.65,108.51-13.54,3-64.58,14.13-84.55-9.83-3.45-4.14-17.28-22.9-16.1-46.49,0-.38,0-.77.07-1.29,1.67-21.13,21.32-35.64,30.93-42.54C1146.78,211.93,1225.61,155.33,1286.9,190.54Z"/><path class="cls-32" d="M1270,193.29c.45,6.77-2.23,14.88-13.24,26.19-40,41.11-125.59,58.34-146,28.38-11.56-17,1.1-43.15,4.2-49.26,19.49-38.4,68-52.33,104-44.23C1238.83,158.83,1268.67,173.06,1270,193.29Z"/><path class="cls-32" d="M1131.86,203.52c9.6,13.09,35.22,9.16,50.48,2.25,14-6.34,29.84-20.54,31.64-39.38,3.62-37.69-57.55-62-62.54-56.7-2.89,3.07,13.62,15,10.18,30.22-3.38,15-21.71,14.55-30,33.77C1131.12,174.81,1123.75,192.46,1131.86,203.52Z"/><path class="cls-39" d="M1112.7,250.49c9.85,12.31,27.61,12.65,37.84,12.84,3.46.07,14.15.08,32.58-5,44.24-12.13,71.28-36.53,75.78-41.92.48-.57,3.38-4.13,3.84-3.82s-.86,2.58-1.27,3.36c-4.23,8.19-68.27,57.83-122.18,51.75-18.46-2.08-26.8-9.7-29.07-11.93a38.44,38.44,0,0,1-7.54-10.52,10.61,10.61,0,0,1,1.79-2.2,11.39,11.39,0,0,1,3.2-2.15A29.13,29.13,0,0,0,1112.7,250.49Z"/><path class="cls-39" d="M1212.55,174c.34.2-3.88,13.54-14.86,24.14-20.29,19.58-59,25.31-72.51,9.09-2.37-2.85-5.13-7.79-5.32-16.4a36.29,36.29,0,0,1,4.53-6.92,35.75,35.75,0,0,1,5.32-5.19,30.68,30.68,0,0,0-1.6,11.87,29.28,29.28,0,0,0,3.75,12.93c7.7,12,40.8,12,61.52-4.13C1206.93,188.86,1212.19,173.79,1212.55,174Z"/><path d="M1133.34,253c2.32,3.71,7.23,7.09,10.28,5.8a5.57,5.57,0,0,0,2.37-2.46c.58-.94,1.75-3.2,1.43-7.62-.17-2.32-.78-10.77-7.11-14.2-1.29-.69-2.55-1.37-3.94-1C1131.92,234.71,1128.94,246,1133.34,253Z"/><path d="M1164.59,250.57c2.33,3.71,7.24,7.09,10.29,5.8a5.59,5.59,0,0,0,2.37-2.47c.57-.93,1.75-3.19,1.43-7.61-.17-2.32-.78-10.78-7.11-14.2-1.29-.69-2.55-1.37-3.94-1C1163.17,232.27,1160.2,243.54,1164.59,250.57Z"/><path d="M1188.94,291.25c.88-.06,5.91,18.05,0,21.59-6.45,3.86-21.36-12.4-21.09-12.76s11.67,11.25,17.58,8.08C1190.94,305.19,1188.16,291.3,1188.94,291.25Z"/><ellipse class="cls-17" cx="1168.02" cy="244.98" rx="2.54" ry="5.08" transform="translate(2.79 502.91) rotate(-24.33)"/><ellipse class="cls-17" cx="1136.97" cy="247.18" rx="2.54" ry="5.08" transform="translate(-0.87 490.32) rotate(-24.33)"/><rect class="cls-40" x="1717.3" y="818.16" width="115.69" height="221.26" rx="12"/><rect class="cls-41" x="1727.86" y="935.81" width="90.33" height="90.33" rx="12"/><path d="M1777.13,952.76v14.29a5.36,5.36,0,0,1-8,4.64l-12.38-7.15a5.35,5.35,0,0,1,0-9.27l12.38-7.15A5.36,5.36,0,0,1,1777.13,952.76Z"/><path d="M1777.07,954.09a29.86,29.86,0,0,1,16.32,6.43c10.54,8.67,15.37,26.23,6.93,40.07-8.64,14.15-27.49,18.39-41.56,10.88-12.51-6.67-19.17-21.53-15.83-36.11l10.89,1c-2.76,10.07,1.82,20.45,10.38,24.73,10.08,5,22.67.28,27.21-8.9,3.27-6.61,2.76-16.32-3.46-21.77a17.22,17.22,0,0,0-10.88-4Z"/><rect class="cls-41" x="1727.69" y="831.52" width="90.51" height="90.51" rx="12"/><path class="cls-42" d="M1765.42,881.2a21.85,21.85,0,0,0-6.18-16.46,20.46,20.46,0,0,0-11.32,1,17.85,17.85,0,0,0-8.23,6.18,14.79,14.79,0,0,0-3.09,9.26,14.44,14.44,0,0,0,3.09,8.23c5.93,7.77,17.81,6.28,18.52,6.18A21.66,21.66,0,0,0,1765.42,881.2Z"/><path class="cls-42" d="M1753.07,881.2c-.29-15.67,14-29.32,30.87-27.78V908C1767.43,909.47,1753.35,896.52,1753.07,881.2Z"/><ellipse class="cls-42" cx="1797.01" cy="858.01" rx="8" ry="3.6" transform="translate(-80.37 1521.99) rotate(-45)"/><ellipse class="cls-42" cx="1798.36" cy="880.46" rx="8.07" ry="3.63" transform="translate(-34.75 74.85) rotate(-2.36)"/><ellipse class="cls-42" cx="1797.53" cy="901.99" rx="3.63" ry="8.07" transform="translate(-111.32 1535.23) rotate(-45)"/><rect class="cls-40" x="49.08" y="943.48" width="409" height="75" rx="12"/><rect class="cls-41" x="62.08" y="955.48" width="8.82" height="51" rx="3.53"/><path class="cls-43" d="M446.08,949c0-.83-5.11-1.5-11.36-1.5H71.43c-6.24,0-11.35.67-11.35,1.5s5.11,1.5,11.35,1.5H434.72C441,950.48,446.08,949.8,446.08,949Z"/><rect class="cls-41" x="51.45" y="827.23" width="93.33" height="93.33" rx="12"/><path d="M75.58,897.08A8.13,8.13,0,0,1,79,890.43c23.95-16.93,28.5-21,28.5-26.77,0-4.18-3.91-6.37-8.65-6.37a21.33,21.33,0,0,0-11.83,3.55,6.17,6.17,0,0,1-3.65,1.09,6.94,6.94,0,0,1-3.64-12.83,34.07,34.07,0,0,1,19.12-5.65c14.3,0,24.59,8,24.59,20.21,0,9.29-6.65,17.21-23,27.77h17.39a6.83,6.83,0,0,1,0,13.66H83.6A8,8,0,0,1,75.58,897.08Z"/></g></g></svg>