<?xml version="1.0" encoding="utf-8"?>
<!-- Generator: Adobe Illustrator 25.4.1, SVG Export Plug-In . SVG Version: 6.00 Build 0)  -->
<svg version="1.1" xmlns="http://www.w3.org/2000/svg" xmlns:xlink="http://www.w3.org/1999/xlink" x="0px" y="0px"
	 viewBox="0 0 1920 1080" style="enable-background:new 0 0 1920 1080;" xml:space="preserve">
<style type="text/css">
	.st0{clip-path:url(#SVGID_00000166655166242622282460000017330088460692259744_);}
	.st1{clip-path:url(#SVGID_00000021799284904209119930000005925344686561006747_);}
	.st2{clip-path:url(#SVGID_00000103258317435506021360000012409206925553271963_);}
	.st3{fill:none;}
	.st4{fill:#E3F2FD;}
	.st5{fill:#BBDEFB;}
	.st6{fill:#A9D6E5;}
	.st7{clip-path:url(#SVGID_00000172408882245141655080000015653148658235088825_);}
	.st8{clip-path:url(#SVGID_00000166655166242622282460000017330088460692259744_);fill:#ABABAB;}
	.st9{clip-path:url(#SVGID_00000166655166242622282460000017330088460692259744_);fill:#C4C4C4;}
	.st10{clip-path:url(#SVGID_00000166655166242622282460000017330088460692259744_);fill:#E0E0E0;}
	.st11{clip-path:url(#SVGID_00000166655166242622282460000017330088460692259744_);fill:#F2F2F2;}
	
		.st12{clip-path:url(#SVGID_00000166655166242622282460000017330088460692259744_);fill:url(#SVGID_00000119108997125148460220000016264147366071945088_);}
	.st13{clip-path:url(#SVGID_00000166655166242622282460000017330088460692259744_);fill:#8C8C8C;}
	.st14{clip-path:url(#SVGID_00000166655166242622282460000017330088460692259744_);fill:#6E6E6E;}
	.st15{fill:#F2F2F2;}
	.st16{clip-path:url(#SVGID_00000166655166242622282460000017330088460692259744_);fill:#348DC4;}
	.st17{clip-path:url(#SVGID_00000166655166242622282460000017330088460692259744_);fill:#115E8F;}
	.st18{clip-path:url(#SVGID_00000166655166242622282460000017330088460692259744_);fill:#FFFFFF;}
	.st19{fill:#E2E6AC;}
	.st20{fill:#F7FACF;}
	.st21{fill:#FFFFFF;}
	.st22{fill:#68694E;}
	.st23{fill:#3B3B2B;}
	.st24{opacity:0.25;fill:#FF4A78;}
	.st25{fill:#F4AD29;}
	.st26{fill:#7F4700;}
	.st27{fill:url(#SVGID_00000112633538893091708480000013046677390165845641_);}
	.st28{fill:#FF5F99;}
	.st29{fill:url(#SVGID_00000163069216933804902890000008563168340976216760_);}
	.st30{fill:url(#SVGID_00000001654306500529573440000016197319604698182819_);}
	.st31{fill:url(#SVGID_00000071531906693019916360000018239075527308775870_);}
	.st32{fill:#C77814;}
	.st33{fill:#C7852E;}
	.st34{fill:#5C4200;}
	.st35{fill:#F4AF7A;}
	.st36{fill:url(#SVGID_00000154426985440506583340000007804092669351008406_);}
	.st37{fill:url(#SVGID_00000101801389540945110910000007878294785578343323_);}
	.st38{fill:url(#SVGID_00000023960895228730509750000012424346629416935590_);}
	.st39{fill:url(#SVGID_00000072985247214011221720000001706051650423825563_);}
	.st40{fill:#EAFF10;}
	.st41{fill:#EAFFA5;}
	.st42{fill:#422E00;}
	.st43{fill:#FFB5C8;}
	.st44{fill:#FF7AAB;}
	.st45{fill:#7A6068;}
	.st46{fill:#FFD9E2;}
	.st47{font-family:'ProximaSoft-Extrabld';}
	.st48{font-size:91.0568px;}
</style>
<g id="Background">
	<g>
		<defs>
			<rect id="SVGID_1_" x="3.5" y="-1" width="1916.5" height="1080"/>
		</defs>
		<clipPath id="SVGID_00000000211237042462253030000012353456702525190039_">
			<use xlink:href="#SVGID_1_"  style="overflow:visible;"/>
		</clipPath>
		<g style="clip-path:url(#SVGID_00000000211237042462253030000012353456702525190039_);">
			<defs>
				<rect id="SVGID_00000135664923237413259480000015578163659155290282_" x="5" y="-1.5" width="1916.5" height="1080"/>
			</defs>
			<clipPath id="SVGID_00000180367931763331837350000008395882638529915029_">
				<use xlink:href="#SVGID_00000135664923237413259480000015578163659155290282_"  style="overflow:visible;"/>
			</clipPath>
			<g style="clip-path:url(#SVGID_00000180367931763331837350000008395882638529915029_);">
				<g>
					<defs>
						<rect id="SVGID_00000139979275290757132470000013505384697237991577_" x="-276.9" y="-190.1" width="2835.5" height="792"/>
					</defs>
					<clipPath id="SVGID_00000055697441947308446380000004447469074340897714_">
						<use xlink:href="#SVGID_00000139979275290757132470000013505384697237991577_"  style="overflow:visible;"/>
					</clipPath>
					<g style="clip-path:url(#SVGID_00000055697441947308446380000004447469074340897714_);">
						<rect x="2184" y="-190.1" class="st3" width="820.3" height="813.2"/>
						<rect x="2184" y="-190.1" class="st4" width="820.3" height="813.2"/>
						<g>
							<g>
								<path class="st5" d="M2929.2,589.9h-61.3c-23,0-41.6-18.5-41.6-41.3v-60.7c0-22.8,18.6-41.3,41.6-41.3h61.3
									c23,0,41.6,18.5,41.6,41.3v60.7C2970.8,571.4,2952.2,589.9,2929.2,589.9z"/>
								<path class="st6" d="M2768.6,589.9h-61.3c-23,0-41.6-18.5-41.6-41.3v-60.7c0-22.8,18.6-41.3,41.6-41.3h61.3
									c23,0,41.6,18.5,41.6,41.3v60.7C2810.2,571.4,2791.6,589.9,2768.6,589.9z"/>
								<path class="st5" d="M2608,589.9h-61.3c-23,0-41.6-18.5-41.6-41.3v-60.7c0-22.8,18.6-41.3,41.6-41.3h61.3
									c23,0,41.6,18.5,41.6,41.3v60.7C2649.7,571.4,2631,589.9,2608,589.9z"/>
								<path class="st6" d="M2447.5,589.9h-61.3c-23,0-41.6-18.5-41.6-41.3v-60.7c0-22.8,18.6-41.3,41.6-41.3h61.3
									c23,0,41.6,18.5,41.6,41.3v60.7C2489.1,571.4,2470.5,589.9,2447.5,589.9z"/>
								<path class="st5" d="M2286.9,589.9h-61.3c-23,0-41.6-18.5-41.6-41.3v-60.7c0-22.8,18.6-41.3,41.6-41.3h61.3
									c23,0,41.6,18.5,41.6,41.3v60.7C2328.5,571.4,2309.9,589.9,2286.9,589.9z"/>
							</g>
							<g>
								<path class="st6" d="M2929.2,430.7h-61.3c-23,0-41.6-18.5-41.6-41.3v-60.7c0-22.8,18.6-41.3,41.6-41.3h61.3
									c23,0,41.6,18.5,41.6,41.3v60.7C2970.8,412.2,2952.2,430.7,2929.2,430.7z"/>
								<path class="st5" d="M2768.6,430.7h-61.3c-23,0-41.6-18.5-41.6-41.3v-60.7c0-22.8,18.6-41.3,41.6-41.3h61.3
									c23,0,41.6,18.5,41.6,41.3v60.7C2810.2,412.2,2791.6,430.7,2768.6,430.7z"/>
								<path class="st6" d="M2608,430.7h-61.3c-23,0-41.6-18.5-41.6-41.3v-60.7c0-22.8,18.6-41.3,41.6-41.3h61.3
									c23,0,41.6,18.5,41.6,41.3v60.7C2649.7,412.2,2631,430.7,2608,430.7z"/>
								<path class="st5" d="M2447.5,430.7h-61.3c-23,0-41.6-18.5-41.6-41.3v-60.7c0-22.8,18.6-41.3,41.6-41.3h61.3
									c23,0,41.6,18.5,41.6,41.3v60.7C2489.1,412.2,2470.5,430.7,2447.5,430.7z"/>
								<path class="st6" d="M2286.9,430.7h-61.3c-23,0-41.6-18.5-41.6-41.3v-60.7c0-22.8,18.6-41.3,41.6-41.3h61.3
									c23,0,41.6,18.5,41.6,41.3v60.7C2328.5,412.2,2309.9,430.7,2286.9,430.7z"/>
							</g>
							<g>
								<path class="st5" d="M2929.2,271.5h-61.3c-23,0-41.6-18.5-41.6-41.3v-60.7c0-22.8,18.6-41.3,41.6-41.3h61.3
									c23,0,41.6,18.5,41.6,41.3v60.7C2970.8,253.1,2952.2,271.5,2929.2,271.5z"/>
								<path class="st6" d="M2768.6,271.5h-61.3c-23,0-41.6-18.5-41.6-41.3v-60.7c0-22.8,18.6-41.3,41.6-41.3h61.3
									c23,0,41.6,18.5,41.6,41.3v60.7C2810.2,253.1,2791.6,271.5,2768.6,271.5z"/>
								<path class="st5" d="M2608,271.5h-61.3c-23,0-41.6-18.5-41.6-41.3v-60.7c0-22.8,18.6-41.3,41.6-41.3h61.3
									c23,0,41.6,18.5,41.6,41.3v60.7C2649.7,253.1,2631,271.5,2608,271.5z"/>
								<path class="st6" d="M2447.5,271.5h-61.3c-23,0-41.6-18.5-41.6-41.3v-60.7c0-22.8,18.6-41.3,41.6-41.3h61.3
									c23,0,41.6,18.5,41.6,41.3v60.7C2489.1,253.1,2470.5,271.5,2447.5,271.5z"/>
								<path class="st5" d="M2286.9,271.5h-61.3c-23,0-41.6-18.5-41.6-41.3v-60.7c0-22.8,18.6-41.3,41.6-41.3h61.3
									c23,0,41.6,18.5,41.6,41.3v60.7C2328.5,253.1,2309.9,271.5,2286.9,271.5z"/>
							</g>
							<g>
								<path class="st6" d="M2929.2,112.3h-61.3c-23,0-41.6-18.5-41.6-41.3V10.3c0-22.8,18.6-41.3,41.6-41.3h61.3
									c23,0,41.6,18.5,41.6,41.3v60.7C2970.8,93.9,2952.2,112.3,2929.2,112.3z"/>
								<path class="st5" d="M2768.6,112.3h-61.3c-23,0-41.6-18.5-41.6-41.3V10.3c0-22.8,18.6-41.3,41.6-41.3h61.3
									c23,0,41.6,18.5,41.6,41.3v60.7C2810.2,93.9,2791.6,112.3,2768.6,112.3z"/>
								<path class="st6" d="M2608,112.3h-61.3c-23,0-41.6-18.5-41.6-41.3V10.3c0-22.8,18.6-41.3,41.6-41.3h61.3
									c23,0,41.6,18.5,41.6,41.3v60.7C2649.7,93.9,2631,112.3,2608,112.3z"/>
								<path class="st5" d="M2447.5,112.3h-61.3c-23,0-41.6-18.5-41.6-41.3V10.3c0-22.8,18.6-41.3,41.6-41.3h61.3
									c23,0,41.6,18.5,41.6,41.3v60.7C2489.1,93.9,2470.5,112.3,2447.5,112.3z"/>
								<path class="st6" d="M2286.9,112.3h-61.3c-23,0-41.6-18.5-41.6-41.3V10.3c0-22.8,18.6-41.3,41.6-41.3h61.3
									c23,0,41.6,18.5,41.6,41.3v60.7C2328.5,93.9,2309.9,112.3,2286.9,112.3z"/>
							</g>
							<g>
								<path class="st5" d="M2929.2-46.9h-61.3c-23,0-41.6-18.5-41.6-41.3v-60.7c0-22.8,18.6-41.3,41.6-41.3h61.3
									c23,0,41.6,18.5,41.6,41.3v60.7C2970.8-65.3,2952.2-46.9,2929.2-46.9z"/>
								<path class="st6" d="M2768.6-46.9h-61.3c-23,0-41.6-18.5-41.6-41.3v-60.7c0-22.8,18.6-41.3,41.6-41.3h61.3
									c23,0,41.6,18.5,41.6,41.3v60.7C2810.2-65.3,2791.6-46.9,2768.6-46.9z"/>
								<path class="st5" d="M2608-46.9h-61.3c-23,0-41.6-18.5-41.6-41.3v-60.7c0-22.8,18.6-41.3,41.6-41.3h61.3
									c23,0,41.6,18.5,41.6,41.3v60.7C2649.7-65.3,2631-46.9,2608-46.9z"/>
								<path class="st6" d="M2447.5-46.9h-61.3c-23,0-41.6-18.5-41.6-41.3v-60.7c0-22.8,18.6-41.3,41.6-41.3h61.3
									c23,0,41.6,18.5,41.6,41.3v60.7C2489.1-65.3,2470.5-46.9,2447.5-46.9z"/>
								<path class="st5" d="M2286.9-46.9h-61.3c-23,0-41.6-18.5-41.6-41.3v-60.7c0-22.8,18.6-41.3,41.6-41.3h61.3
									c23,0,41.6,18.5,41.6,41.3v60.7C2328.5-65.3,2309.9-46.9,2286.9-46.9z"/>
							</g>
						</g>
					</g>
					<g style="clip-path:url(#SVGID_00000055697441947308446380000004447469074340897714_);">
						<rect x="1363.7" y="-190.1" class="st3" width="820.3" height="813.2"/>
						<rect x="1363.7" y="-190.1" class="st4" width="820.3" height="813.2"/>
						<g>
							<g>
								<path class="st5" d="M2108.9,589.9h-61.3c-23,0-41.6-18.5-41.6-41.3v-60.7c0-22.8,18.6-41.3,41.6-41.3h61.3
									c23,0,41.6,18.5,41.6,41.3v60.7C2150.5,571.4,2131.9,589.9,2108.9,589.9z"/>
								<path class="st6" d="M1948.3,589.9h-61.3c-23,0-41.6-18.5-41.6-41.3v-60.7c0-22.8,18.6-41.3,41.6-41.3h61.3
									c23,0,41.6,18.5,41.6,41.3v60.7C1990,571.4,1971.3,589.9,1948.3,589.9z"/>
								<path class="st5" d="M1787.8,589.9h-61.3c-23,0-41.6-18.5-41.6-41.3v-60.7c0-22.8,18.6-41.3,41.6-41.3h61.3
									c23,0,41.6,18.5,41.6,41.3v60.7C1829.4,571.4,1810.7,589.9,1787.8,589.9z"/>
								<path class="st6" d="M1627.2,589.9h-61.3c-23,0-41.6-18.5-41.6-41.3v-60.7c0-22.8,18.6-41.3,41.6-41.3h61.3
									c23,0,41.6,18.5,41.6,41.3v60.7C1668.8,571.4,1650.2,589.9,1627.2,589.9z"/>
								<path class="st5" d="M1466.6,589.9h-61.3c-23,0-41.6-18.5-41.6-41.3v-60.7c0-22.8,18.6-41.3,41.6-41.3h61.3
									c23,0,41.6,18.5,41.6,41.3v60.7C1508.2,571.4,1489.6,589.9,1466.6,589.9z"/>
							</g>
							<g>
								<path class="st6" d="M2108.9,430.7h-61.3c-23,0-41.6-18.5-41.6-41.3v-60.7c0-22.8,18.6-41.3,41.6-41.3h61.3
									c23,0,41.6,18.5,41.6,41.3v60.7C2150.5,412.2,2131.9,430.7,2108.9,430.7z"/>
								<path class="st5" d="M1948.3,430.7h-61.3c-23,0-41.6-18.5-41.6-41.3v-60.7c0-22.8,18.6-41.3,41.6-41.3h61.3
									c23,0,41.6,18.5,41.6,41.3v60.7C1990,412.2,1971.3,430.7,1948.3,430.7z"/>
								<path class="st6" d="M1787.8,430.7h-61.3c-23,0-41.6-18.5-41.6-41.3v-60.7c0-22.8,18.6-41.3,41.6-41.3h61.3
									c23,0,41.6,18.5,41.6,41.3v60.7C1829.4,412.2,1810.7,430.7,1787.8,430.7z"/>
								<path class="st5" d="M1627.2,430.7h-61.3c-23,0-41.6-18.5-41.6-41.3v-60.7c0-22.8,18.6-41.3,41.6-41.3h61.3
									c23,0,41.6,18.5,41.6,41.3v60.7C1668.8,412.2,1650.2,430.7,1627.2,430.7z"/>
								<path class="st6" d="M1466.6,430.7h-61.3c-23,0-41.6-18.5-41.6-41.3v-60.7c0-22.8,18.6-41.3,41.6-41.3h61.3
									c23,0,41.6,18.5,41.6,41.3v60.7C1508.2,412.2,1489.6,430.7,1466.6,430.7z"/>
							</g>
							<g>
								<path class="st5" d="M2108.9,271.5h-61.3c-23,0-41.6-18.5-41.6-41.3v-60.7c0-22.8,18.6-41.3,41.6-41.3h61.3
									c23,0,41.6,18.5,41.6,41.3v60.7C2150.5,253.1,2131.9,271.5,2108.9,271.5z"/>
								<path class="st6" d="M1948.3,271.5h-61.3c-23,0-41.6-18.5-41.6-41.3v-60.7c0-22.8,18.6-41.3,41.6-41.3h61.3
									c23,0,41.6,18.5,41.6,41.3v60.7C1990,253.1,1971.3,271.5,1948.3,271.5z"/>
								<path class="st5" d="M1787.8,271.5h-61.3c-23,0-41.6-18.5-41.6-41.3v-60.7c0-22.8,18.6-41.3,41.6-41.3h61.3
									c23,0,41.6,18.5,41.6,41.3v60.7C1829.4,253.1,1810.7,271.5,1787.8,271.5z"/>
								<path class="st6" d="M1627.2,271.5h-61.3c-23,0-41.6-18.5-41.6-41.3v-60.7c0-22.8,18.6-41.3,41.6-41.3h61.3
									c23,0,41.6,18.5,41.6,41.3v60.7C1668.8,253.1,1650.2,271.5,1627.2,271.5z"/>
								<path class="st5" d="M1466.6,271.5h-61.3c-23,0-41.6-18.5-41.6-41.3v-60.7c0-22.8,18.6-41.3,41.6-41.3h61.3
									c23,0,41.6,18.5,41.6,41.3v60.7C1508.2,253.1,1489.6,271.5,1466.6,271.5z"/>
							</g>
							<g>
								<path class="st6" d="M2108.9,112.3h-61.3c-23,0-41.6-18.5-41.6-41.3V10.3c0-22.8,18.6-41.3,41.6-41.3h61.3
									c23,0,41.6,18.5,41.6,41.3v60.7C2150.5,93.9,2131.9,112.3,2108.9,112.3z"/>
								<path class="st5" d="M1948.3,112.3h-61.3c-23,0-41.6-18.5-41.6-41.3V10.3c0-22.8,18.6-41.3,41.6-41.3h61.3
									c23,0,41.6,18.5,41.6,41.3v60.7C1990,93.9,1971.3,112.3,1948.3,112.3z"/>
								<path class="st6" d="M1787.8,112.3h-61.3c-23,0-41.6-18.5-41.6-41.3V10.3c0-22.8,18.6-41.3,41.6-41.3h61.3
									c23,0,41.6,18.5,41.6,41.3v60.7C1829.4,93.9,1810.7,112.3,1787.8,112.3z"/>
								<path class="st5" d="M1627.2,112.3h-61.3c-23,0-41.6-18.5-41.6-41.3V10.3c0-22.8,18.6-41.3,41.6-41.3h61.3
									c23,0,41.6,18.5,41.6,41.3v60.7C1668.8,93.9,1650.2,112.3,1627.2,112.3z"/>
								<path class="st6" d="M1466.6,112.3h-61.3c-23,0-41.6-18.5-41.6-41.3V10.3c0-22.8,18.6-41.3,41.6-41.3h61.3
									c23,0,41.6,18.5,41.6,41.3v60.7C1508.2,93.9,1489.6,112.3,1466.6,112.3z"/>
							</g>
							<g>
								<path class="st5" d="M2108.9-46.9h-61.3c-23,0-41.6-18.5-41.6-41.3v-60.7c0-22.8,18.6-41.3,41.6-41.3h61.3
									c23,0,41.6,18.5,41.6,41.3v60.7C2150.5-65.3,2131.9-46.9,2108.9-46.9z"/>
								<path class="st6" d="M1948.3-46.9h-61.3c-23,0-41.6-18.5-41.6-41.3v-60.7c0-22.8,18.6-41.3,41.6-41.3h61.3
									c23,0,41.6,18.5,41.6,41.3v60.7C1990-65.3,1971.3-46.9,1948.3-46.9z"/>
								<path class="st5" d="M1787.8-46.9h-61.3c-23,0-41.6-18.5-41.6-41.3v-60.7c0-22.8,18.6-41.3,41.6-41.3h61.3
									c23,0,41.6,18.5,41.6,41.3v60.7C1829.4-65.3,1810.7-46.9,1787.8-46.9z"/>
								<path class="st6" d="M1627.2-46.9h-61.3c-23,0-41.6-18.5-41.6-41.3v-60.7c0-22.8,18.6-41.3,41.6-41.3h61.3
									c23,0,41.6,18.5,41.6,41.3v60.7C1668.8-65.3,1650.2-46.9,1627.2-46.9z"/>
								<path class="st5" d="M1466.6-46.9h-61.3c-23,0-41.6-18.5-41.6-41.3v-60.7c0-22.8,18.6-41.3,41.6-41.3h61.3
									c23,0,41.6,18.5,41.6,41.3v60.7C1508.2-65.3,1489.6-46.9,1466.6-46.9z"/>
							</g>
						</g>
					</g>
					<g style="clip-path:url(#SVGID_00000055697441947308446380000004447469074340897714_);">
						<rect x="543.4" y="-190.1" class="st3" width="820.3" height="813.2"/>
						<rect x="543.4" y="-190.1" class="st4" width="820.3" height="813.2"/>
						<g>
							<g>
								<path class="st5" d="M1288.6,589.9h-61.3c-23,0-41.6-18.5-41.6-41.3v-60.7c0-22.8,18.6-41.3,41.6-41.3h61.3
									c23,0,41.6,18.5,41.6,41.3v60.7C1330.2,571.4,1311.6,589.9,1288.6,589.9z"/>
								<path class="st6" d="M1128,589.9h-61.3c-23,0-41.6-18.5-41.6-41.3v-60.7c0-22.8,18.6-41.3,41.6-41.3h61.3
									c23,0,41.6,18.5,41.6,41.3v60.7C1169.7,571.4,1151,589.9,1128,589.9z"/>
								<path class="st5" d="M967.5,589.9h-61.3c-23,0-41.6-18.5-41.6-41.3v-60.7c0-22.8,18.6-41.3,41.6-41.3h61.3
									c23,0,41.6,18.5,41.6,41.3v60.7C1009.1,571.4,990.5,589.9,967.5,589.9z"/>
								<path class="st6" d="M806.9,589.9h-61.3c-23,0-41.6-18.5-41.6-41.3v-60.7c0-22.8,18.6-41.3,41.6-41.3h61.3
									c23,0,41.6,18.5,41.6,41.3v60.7C848.5,571.4,829.9,589.9,806.9,589.9z"/>
								<path class="st5" d="M646.3,589.9H585c-23,0-41.6-18.5-41.6-41.3v-60.7c0-22.8,18.6-41.3,41.6-41.3h61.3
									c23,0,41.6,18.5,41.6,41.3v60.7C687.9,571.4,669.3,589.9,646.3,589.9z"/>
							</g>
							<g>
								<path class="st6" d="M1288.6,430.7h-61.3c-23,0-41.6-18.5-41.6-41.3v-60.7c0-22.8,18.6-41.3,41.6-41.3h61.3
									c23,0,41.6,18.5,41.6,41.3v60.7C1330.2,412.2,1311.6,430.7,1288.6,430.7z"/>
								<path class="st5" d="M1128,430.7h-61.3c-23,0-41.6-18.5-41.6-41.3v-60.7c0-22.8,18.6-41.3,41.6-41.3h61.3
									c23,0,41.6,18.5,41.6,41.3v60.7C1169.7,412.2,1151,430.7,1128,430.7z"/>
								<path class="st6" d="M967.5,430.7h-61.3c-23,0-41.6-18.5-41.6-41.3v-60.7c0-22.8,18.6-41.3,41.6-41.3h61.3
									c23,0,41.6,18.5,41.6,41.3v60.7C1009.1,412.2,990.5,430.7,967.5,430.7z"/>
								<path class="st5" d="M806.9,430.7h-61.3c-23,0-41.6-18.5-41.6-41.3v-60.7c0-22.8,18.6-41.3,41.6-41.3h61.3
									c23,0,41.6,18.5,41.6,41.3v60.7C848.5,412.2,829.9,430.7,806.9,430.7z"/>
								<path class="st6" d="M646.3,430.7H585c-23,0-41.6-18.5-41.6-41.3v-60.7c0-22.8,18.6-41.3,41.6-41.3h61.3
									c23,0,41.6,18.5,41.6,41.3v60.7C687.9,412.2,669.3,430.7,646.3,430.7z"/>
							</g>
							<g>
								<path class="st5" d="M1288.6,271.5h-61.3c-23,0-41.6-18.5-41.6-41.3v-60.7c0-22.8,18.6-41.3,41.6-41.3h61.3
									c23,0,41.6,18.5,41.6,41.3v60.7C1330.2,253.1,1311.6,271.5,1288.6,271.5z"/>
								<path class="st6" d="M1128,271.5h-61.3c-23,0-41.6-18.5-41.6-41.3v-60.7c0-22.8,18.6-41.3,41.6-41.3h61.3
									c23,0,41.6,18.5,41.6,41.3v60.7C1169.7,253.1,1151,271.5,1128,271.5z"/>
								<path class="st5" d="M967.5,271.5h-61.3c-23,0-41.6-18.5-41.6-41.3v-60.7c0-22.8,18.6-41.3,41.6-41.3h61.3
									c23,0,41.6,18.5,41.6,41.3v60.7C1009.1,253.1,990.5,271.5,967.5,271.5z"/>
								<path class="st6" d="M806.9,271.5h-61.3c-23,0-41.6-18.5-41.6-41.3v-60.7c0-22.8,18.6-41.3,41.6-41.3h61.3
									c23,0,41.6,18.5,41.6,41.3v60.7C848.5,253.1,829.9,271.5,806.9,271.5z"/>
								<path class="st5" d="M646.3,271.5H585c-23,0-41.6-18.5-41.6-41.3v-60.7c0-22.8,18.6-41.3,41.6-41.3h61.3
									c23,0,41.6,18.5,41.6,41.3v60.7C687.9,253.1,669.3,271.5,646.3,271.5z"/>
							</g>
							<g>
								<path class="st6" d="M1288.6,112.3h-61.3c-23,0-41.6-18.5-41.6-41.3V10.3c0-22.8,18.6-41.3,41.6-41.3h61.3
									c23,0,41.6,18.5,41.6,41.3v60.7C1330.2,93.9,1311.6,112.3,1288.6,112.3z"/>
								<path class="st5" d="M1128,112.3h-61.3c-23,0-41.6-18.5-41.6-41.3V10.3c0-22.8,18.6-41.3,41.6-41.3h61.3
									c23,0,41.6,18.5,41.6,41.3v60.7C1169.7,93.9,1151,112.3,1128,112.3z"/>
								<path class="st6" d="M967.5,112.3h-61.3c-23,0-41.6-18.5-41.6-41.3V10.3c0-22.8,18.6-41.3,41.6-41.3h61.3
									c23,0,41.6,18.5,41.6,41.3v60.7C1009.1,93.9,990.5,112.3,967.5,112.3z"/>
								<path class="st5" d="M806.9,112.3h-61.3c-23,0-41.6-18.5-41.6-41.3V10.3c0-22.8,18.6-41.3,41.6-41.3h61.3
									c23,0,41.6,18.5,41.6,41.3v60.7C848.5,93.9,829.9,112.3,806.9,112.3z"/>
								<path class="st6" d="M646.3,112.3H585c-23,0-41.6-18.5-41.6-41.3V10.3c0-22.8,18.6-41.3,41.6-41.3h61.3
									c23,0,41.6,18.5,41.6,41.3v60.7C687.9,93.9,669.3,112.3,646.3,112.3z"/>
							</g>
							<g>
								<path class="st5" d="M1288.6-46.9h-61.3c-23,0-41.6-18.5-41.6-41.3v-60.7c0-22.8,18.6-41.3,41.6-41.3h61.3
									c23,0,41.6,18.5,41.6,41.3v60.7C1330.2-65.3,1311.6-46.9,1288.6-46.9z"/>
								<path class="st6" d="M1128-46.9h-61.3c-23,0-41.6-18.5-41.6-41.3v-60.7c0-22.8,18.6-41.3,41.6-41.3h61.3
									c23,0,41.6,18.5,41.6,41.3v60.7C1169.7-65.3,1151-46.9,1128-46.9z"/>
								<path class="st5" d="M967.5-46.9h-61.3c-23,0-41.6-18.5-41.6-41.3v-60.7c0-22.8,18.6-41.3,41.6-41.3h61.3
									c23,0,41.6,18.5,41.6,41.3v60.7C1009.1-65.3,990.5-46.9,967.5-46.9z"/>
								<path class="st6" d="M806.9-46.9h-61.3c-23,0-41.6-18.5-41.6-41.3v-60.7c0-22.8,18.6-41.3,41.6-41.3h61.3
									c23,0,41.6,18.5,41.6,41.3v60.7C848.5-65.3,829.9-46.9,806.9-46.9z"/>
								<path class="st5" d="M646.3-46.9H585c-23,0-41.6-18.5-41.6-41.3v-60.7c0-22.8,18.6-41.3,41.6-41.3h61.3
									c23,0,41.6,18.5,41.6,41.3v60.7C687.9-65.3,669.3-46.9,646.3-46.9z"/>
							</g>
						</g>
					</g>
					<g style="clip-path:url(#SVGID_00000055697441947308446380000004447469074340897714_);">
						<rect x="-276.9" y="-190.1" class="st3" width="820.3" height="813.2"/>
						<rect x="-276.9" y="-190.1" class="st4" width="820.3" height="813.2"/>
						<g>
							<g>
								<path class="st5" d="M468.3,589.9h-61.3c-23,0-41.6-18.5-41.6-41.3v-60.7c0-22.8,18.6-41.3,41.6-41.3h61.3
									c23,0,41.6,18.5,41.6,41.3v60.7C510,571.4,491.3,589.9,468.3,589.9z"/>
								<path class="st6" d="M307.8,589.9h-61.3c-23,0-41.6-18.5-41.6-41.3v-60.7c0-22.8,18.6-41.3,41.6-41.3h61.3
									c23,0,41.6,18.5,41.6,41.3v60.7C349.4,571.4,330.7,589.9,307.8,589.9z"/>
								<path class="st5" d="M147.2,589.9H85.9c-23,0-41.6-18.5-41.6-41.3v-60.7c0-22.8,18.6-41.3,41.6-41.3h61.3
									c23,0,41.6,18.5,41.6,41.3v60.7C188.8,571.4,170.2,589.9,147.2,589.9z"/>
								<path class="st6" d="M-13.4,589.9h-61.3c-23,0-41.6-18.5-41.6-41.3v-60.7c0-22.8,18.6-41.3,41.6-41.3h61.3
									c23,0,41.6,18.5,41.6,41.3v60.7C28.2,571.4,9.6,589.9-13.4,589.9z"/>
								<path class="st5" d="M-174,589.9h-61.3c-23,0-41.6-18.5-41.6-41.3v-60.7c0-22.8,18.6-41.3,41.6-41.3h61.3
									c23,0,41.6,18.5,41.6,41.3v60.7C-132.4,571.4-151,589.9-174,589.9z"/>
							</g>
							<g>
								<path class="st6" d="M468.3,430.7h-61.3c-23,0-41.6-18.5-41.6-41.3v-60.7c0-22.8,18.6-41.3,41.6-41.3h61.3
									c23,0,41.6,18.5,41.6,41.3v60.7C510,412.2,491.3,430.7,468.3,430.7z"/>
								<path class="st5" d="M307.8,430.7h-61.3c-23,0-41.6-18.5-41.6-41.3v-60.7c0-22.8,18.6-41.3,41.6-41.3h61.3
									c23,0,41.6,18.5,41.6,41.3v60.7C349.4,412.2,330.7,430.7,307.8,430.7z"/>
								<path class="st6" d="M147.2,430.7H85.9c-23,0-41.6-18.5-41.6-41.3v-60.7c0-22.8,18.6-41.3,41.6-41.3h61.3
									c23,0,41.6,18.5,41.6,41.3v60.7C188.8,412.2,170.2,430.7,147.2,430.7z"/>
								<path class="st5" d="M-13.4,430.7h-61.3c-23,0-41.6-18.5-41.6-41.3v-60.7c0-22.8,18.6-41.3,41.6-41.3h61.3
									c23,0,41.6,18.5,41.6,41.3v60.7C28.2,412.2,9.6,430.7-13.4,430.7z"/>
								<path class="st6" d="M-174,430.7h-61.3c-23,0-41.6-18.5-41.6-41.3v-60.7c0-22.8,18.6-41.3,41.6-41.3h61.3
									c23,0,41.6,18.5,41.6,41.3v60.7C-132.4,412.2-151,430.7-174,430.7z"/>
							</g>
							<g>
								<path class="st5" d="M468.3,271.5h-61.3c-23,0-41.6-18.5-41.6-41.3v-60.7c0-22.8,18.6-41.3,41.6-41.3h61.3
									c23,0,41.6,18.5,41.6,41.3v60.7C510,253.1,491.3,271.5,468.3,271.5z"/>
								<path class="st6" d="M307.8,271.5h-61.3c-23,0-41.6-18.5-41.6-41.3v-60.7c0-22.8,18.6-41.3,41.6-41.3h61.3
									c23,0,41.6,18.5,41.6,41.3v60.7C349.4,253.1,330.7,271.5,307.8,271.5z"/>
								<path class="st5" d="M147.2,271.5H85.9c-23,0-41.6-18.5-41.6-41.3v-60.7c0-22.8,18.6-41.3,41.6-41.3h61.3
									c23,0,41.6,18.5,41.6,41.3v60.7C188.8,253.1,170.2,271.5,147.2,271.5z"/>
								<path class="st6" d="M-13.4,271.5h-61.3c-23,0-41.6-18.5-41.6-41.3v-60.7c0-22.8,18.6-41.3,41.6-41.3h61.3
									c23,0,41.6,18.5,41.6,41.3v60.7C28.2,253.1,9.6,271.5-13.4,271.5z"/>
								<path class="st5" d="M-174,271.5h-61.3c-23,0-41.6-18.5-41.6-41.3v-60.7c0-22.8,18.6-41.3,41.6-41.3h61.3
									c23,0,41.6,18.5,41.6,41.3v60.7C-132.4,253.1-151,271.5-174,271.5z"/>
							</g>
							<g>
								<path class="st6" d="M468.3,112.3h-61.3c-23,0-41.6-18.5-41.6-41.3V10.3c0-22.8,18.6-41.3,41.6-41.3h61.3
									c23,0,41.6,18.5,41.6,41.3v60.7C510,93.9,491.3,112.3,468.3,112.3z"/>
								<path class="st5" d="M307.8,112.3h-61.3c-23,0-41.6-18.5-41.6-41.3V10.3c0-22.8,18.6-41.3,41.6-41.3h61.3
									c23,0,41.6,18.5,41.6,41.3v60.7C349.4,93.9,330.7,112.3,307.8,112.3z"/>
								<path class="st6" d="M147.2,112.3H85.9c-23,0-41.6-18.5-41.6-41.3V10.3c0-22.8,18.6-41.3,41.6-41.3h61.3
									c23,0,41.6,18.5,41.6,41.3v60.7C188.8,93.9,170.2,112.3,147.2,112.3z"/>
								<path class="st5" d="M-13.4,112.3h-61.3c-23,0-41.6-18.5-41.6-41.3V10.3c0-22.8,18.6-41.3,41.6-41.3h61.3
									c23,0,41.6,18.5,41.6,41.3v60.7C28.2,93.9,9.6,112.3-13.4,112.3z"/>
								<path class="st6" d="M-174,112.3h-61.3c-23,0-41.6-18.5-41.6-41.3V10.3c0-22.8,18.6-41.3,41.6-41.3h61.3
									c23,0,41.6,18.5,41.6,41.3v60.7C-132.4,93.9-151,112.3-174,112.3z"/>
							</g>
							<g>
								<path class="st5" d="M468.3-46.9h-61.3c-23,0-41.6-18.5-41.6-41.3v-60.7c0-22.8,18.6-41.3,41.6-41.3h61.3
									c23,0,41.6,18.5,41.6,41.3v60.7C510-65.3,491.3-46.9,468.3-46.9z"/>
								<path class="st6" d="M307.8-46.9h-61.3c-23,0-41.6-18.5-41.6-41.3v-60.7c0-22.8,18.6-41.3,41.6-41.3h61.3
									c23,0,41.6,18.5,41.6,41.3v60.7C349.4-65.3,330.7-46.9,307.8-46.9z"/>
								<path class="st5" d="M147.2-46.9H85.9c-23,0-41.6-18.5-41.6-41.3v-60.7c0-22.8,18.6-41.3,41.6-41.3h61.3
									c23,0,41.6,18.5,41.6,41.3v60.7C188.8-65.3,170.2-46.9,147.2-46.9z"/>
								<path class="st6" d="M-13.4-46.9h-61.3c-23,0-41.6-18.5-41.6-41.3v-60.7c0-22.8,18.6-41.3,41.6-41.3h61.3
									c23,0,41.6,18.5,41.6,41.3v60.7C28.2-65.3,9.6-46.9-13.4-46.9z"/>
								<path class="st5" d="M-174-46.9h-61.3c-23,0-41.6-18.5-41.6-41.3v-60.7c0-22.8,18.6-41.3,41.6-41.3h61.3
									c23,0,41.6,18.5,41.6,41.3v60.7C-132.4-65.3-151-46.9-174-46.9z"/>
							</g>
						</g>
					</g>
				</g>
			</g>
			<g style="clip-path:url(#SVGID_00000180367931763331837350000008395882638529915029_);">
				<g>
					<defs>
						<polygon id="SVGID_00000016062409556355707970000016834429828490180751_" points="4065,1237.5 -2100,1237.5 -435.5,602.2 
							2400.4,602.2 						"/>
					</defs>
					<clipPath id="SVGID_00000183220441173130787180000011348310779962937020_">
						<use xlink:href="#SVGID_00000016062409556355707970000016834429828490180751_"  style="overflow:visible;"/>
					</clipPath>
					<g style="clip-path:url(#SVGID_00000183220441173130787180000011348310779962937020_);">
						<polygon class="st3" points="2025.7,602.2 2846.1,602.2 5165.4,1275.7 3324,1275.7 						"/>
						<polygon class="st4" points="2025.7,602.2 2846.1,602.2 5165.4,1275.7 3324,1275.7 						"/>
						<g>
							<g>
								<path class="st5" d="M4802.9,1217H4672c-49.1,0-183.3-30.3-293.1-65.5l-261.6-84c-88.1-28.3-122.9-50-82.3-50h108.3
									c40.6,0,147.2,21.8,242.8,50l284,84C4789.4,1186.7,4852.1,1217,4802.9,1217z"/>
								<path class="st6" d="M4459.9,1217H4329c-49.1,0-174.3-30.3-273.6-65.5l-236.7-84c-79.7-28.3-108.1-50-67.5-50h108.3
									c40.6,0,140.8,21.8,228,50l259.1,84C4455.4,1186.7,4509,1217,4459.9,1217z"/>
								<path class="st5" d="M4116.8,1217h-130.9c-49.1,0-165.3-30.3-254.2-65.5l-211.7-84c-71.3-28.3-93.2-50-52.6-50h108.3
									c40.6,0,134.3,21.8,213.1,50l234.2,84C4121.3,1186.7,4165.9,1217,4116.8,1217z"/>
								<path class="st6" d="M3773.8,1217h-130.9c-49.1,0-156.3-30.3-234.7-65.5l-186.8-84c-62.9-28.3-78.4-50-37.8-50h108.3
									c40.6,0,127.8,21.8,198.3,50l209.3,84C3787.2,1186.7,3822.9,1217,3773.8,1217z"/>
								<path class="st5" d="M3430.7,1217h-130.9c-49.1,0-147.3-30.3-215.3-65.5l-161.9-84c-54.5-28.3-63.5-50-22.9-50H3008
									c40.6,0,121.4,21.8,183.4,50l184.3,84C3453.2,1186.7,3479.8,1217,3430.7,1217z"/>
							</g>
							<g>
								<path class="st6" d="M4083.9,999.4h-106.3c-39.9,0-134.7-20.1-208.2-43.7l-178.6-57.3c-61.2-19.7-81.2-34.9-47.1-34.9h90.9
									c34.1,0,113.4,15.3,179.9,34.9l193.9,57.3C4088.2,979.4,4123.7,999.4,4083.9,999.4z"/>
								<path class="st5" d="M3805.4,999.4h-106.3c-39.9,0-128.7-20.1-195.2-43.7l-161.6-57.3c-55.4-19.7-70.8-34.9-36.7-34.9h90.9
									c34.1,0,108.9,15.3,169.5,34.9l176.9,57.3C3815.7,979.4,3845.3,999.4,3805.4,999.4z"/>
								<path class="st6" d="M3526.9,999.4h-106.3c-39.9,0-122.8-20.1-182.3-43.7l-144.6-57.3c-49.6-19.7-60.5-34.9-26.4-34.9h90.9
									c34.1,0,104.3,15.3,159.2,34.9l159.9,57.3C3543.2,979.4,3566.8,999.4,3526.9,999.4z"/>
								<path class="st5" d="M3248.4,999.4h-106.3c-39.9,0-116.8-20.1-169.3-43.7l-127.6-57.3c-43.7-19.7-50.1-34.9-16-34.9h90.9
									c34.1,0,99.8,15.3,148.8,34.9l142.9,57.3C3270.6,979.4,3288.3,999.4,3248.4,999.4z"/>
								<path class="st6" d="M2969.9,999.4h-106.3c-39.9,0-110.9-20.1-156.3-43.7l-110.5-57.3c-37.9-19.7-39.7-34.9-5.6-34.9h90.9
									c34.1,0,95.3,15.3,138.4,34.9l125.8,57.3C2998.1,979.4,3009.8,999.4,2969.9,999.4z"/>
							</g>
							<g>
								<path class="st5" d="M3592.6,850.8h-89.4c-33.6,0-105.2-14.3-157.8-31.2L3215.8,778c-45.1-14.5-56.5-25.8-27.1-25.8h78.3
									c29.4,0,91.4,11.3,140.3,25.8l140.8,41.6C3605.2,836.5,3626.2,850.8,3592.6,850.8z"/>
								<path class="st6" d="M3358.2,850.8h-89.4c-33.6,0-100.9-14.3-148.5-31.2L3003,778c-40.8-14.5-48.8-25.8-19.4-25.8h78.3
									c29.4,0,88,11.3,132.7,25.8l128.4,41.6C3375,836.5,3391.8,850.8,3358.2,850.8z"/>
								<path class="st5" d="M3123.9,850.8h-89.4c-33.6,0-96.7-14.3-139.3-31.2L2790.2,778c-36.5-14.5-41.2-25.8-11.8-25.8h78.3
									c29.4,0,84.7,11.3,125,25.8l116.1,41.6C3144.9,836.5,3157.4,850.8,3123.9,850.8z"/>
								<path class="st6" d="M2889.5,850.8h-89.4c-33.6,0-92.5-14.3-130-31.2l-92.6-41.6c-32.2-14.5-33.5-25.8-4.1-25.8h78.3
									c29.4,0,81.3,11.3,117.4,25.8l103.7,41.6C2914.7,836.5,2923,850.8,2889.5,850.8z"/>
								<path class="st5" d="M2655.1,850.8h-89.4c-33.6,0-88.2-14.3-120.8-31.2l-80.2-41.6c-27.9-14.5-25.9-25.8,3.5-25.8h78.3
									c29.4,0,78,11.3,109.7,25.8l91.4,41.6C2684.6,836.5,2688.7,850.8,2655.1,850.8z"/>
							</g>
							<g>
								<path class="st6" d="M3235.7,742.8h-77.2c-29,0-85.6-10.7-125.1-23.3l-98.4-31.6c-34.5-11.1-40.7-19.8-14.9-19.8h68.7
									c25.8,0,76.1,8.7,113.6,19.8l106.8,31.6C3252.1,732.1,3264.7,742.8,3235.7,742.8z"/>
								<path class="st5" d="M3033.4,742.8h-77.2c-29,0-82.5-10.7-118.2-23.3l-89-31.6c-31.2-11.1-34.8-19.8-9.1-19.8h68.7
									c25.8,0,73.5,8.7,107.7,19.8l97.4,31.6C3053,732.1,3062.3,742.8,3033.4,742.8z"/>
								<path class="st6" d="M2831,742.8h-77.2c-29,0-79.3-10.7-111.3-23.3l-79.6-31.6c-27.9-11.1-29-19.8-3.2-19.8h68.7
									c25.8,0,71,8.7,101.9,19.8l88.1,31.6C2853.8,732.1,2860,742.8,2831,742.8z"/>
								<path class="st5" d="M2628.7,742.8h-77.2c-29,0-76.1-10.7-104.4-23.3l-70.3-31.6c-24.7-11.1-23.1-19.8,2.7-19.8h68.7
									c25.8,0,68.4,8.7,96,19.8l78.7,31.6C2654.6,732.1,2657.7,742.8,2628.7,742.8z"/>
								<path class="st6" d="M2426.4,742.8h-77.2c-29,0-73-10.7-97.4-23.3l-60.9-31.6c-21.4-11.1-17.2-19.8,8.6-19.8h68.7
									c25.8,0,65.8,8.7,90.1,19.8l69.3,31.6C2455.5,732.1,2455.4,742.8,2426.4,742.8z"/>
							</g>
							<g>
								<path class="st5" d="M2964.7,660.8h-67.9c-25.5,0-71.9-8.3-102.6-18.1l-77.2-24.8c-27.3-8.8-30.2-15.7-7.2-15.7h61.3
									c23,0,65,6.9,94.6,15.7l83.8,24.8C2982.9,652.5,2990.1,660.8,2964.7,660.8z"/>
								<path class="st6" d="M2786.7,660.8h-67.9c-25.5,0-69.4-8.3-97.2-18.1l-69.8-24.8c-24.7-8.8-25.5-15.7-2.5-15.7h61.3
									c23,0,62.9,6.9,90,15.7l76.5,24.8C2807.3,652.5,2812.1,660.8,2786.7,660.8z"/>
								<path class="st5" d="M2608.7,660.8h-67.9c-25.5,0-67-8.3-91.9-18.1l-62.5-24.8c-22.1-8.8-20.9-15.7,2.1-15.7h61.3
									c23,0,60.9,6.9,85.3,15.7l69.1,24.8C2631.8,652.5,2634.2,660.8,2608.7,660.8z"/>
								<path class="st6" d="M2430.7,660.8h-67.9c-25.5,0-64.5-8.3-86.5-18.1l-55.1-24.8c-19.5-8.8-16.2-15.7,6.8-15.7h61.3
									c23,0,58.8,6.9,80.7,15.7l61.8,24.8C2456.3,652.5,2456.2,660.8,2430.7,660.8z"/>
								<path class="st5" d="M2252.7,660.8h-67.9c-25.5,0-62.1-8.3-81.1-18.1l-47.8-24.8c-16.9-8.8-11.6-15.7,11.4-15.7h61.3
									c23,0,56.8,6.9,76,15.7l54.4,24.8C2280.7,652.5,2278.2,660.8,2252.7,660.8z"/>
							</g>
						</g>
					</g>
					<g style="clip-path:url(#SVGID_00000183220441173130787180000011348310779962937020_);">
						<polygon class="st3" points="1205.3,602.2 2025.7,602.2 3324,1275.7 1482.6,1275.7 						"/>
						<polygon class="st4" points="1205.3,602.2 2025.7,602.2 3324,1275.7 1482.6,1275.7 						"/>
						<g>
							<g>
								<path class="st5" d="M3050.5,1217h-130.9c-49.1,0-137.4-30.3-193.7-65.5l-134.3-84c-45.2-28.3-47.1-50-6.4-50h108.3
									c40.6,0,114.2,21.8,167,50l156.7,84C3082.9,1186.7,3099.6,1217,3050.5,1217z"/>
								<path class="st6" d="M2707.4,1217h-130.9c-49.1,0-128.4-30.3-174.3-65.5l-109.4-84c-36.8-28.3-32.2-50,8.4-50h108.3
									c40.6,0,107.7,21.8,152.1,50l131.8,84C2748.8,1186.7,2756.6,1217,2707.4,1217z"/>
								<path class="st5" d="M2364.4,1217h-130.9c-49.1,0-119.4-30.3-154.8-65.5l-84.4-84c-28.4-28.3-17.4-50,23.3-50h108.3
									c40.6,0,101.3,21.8,137.3,50l106.9,84C2414.8,1186.7,2413.5,1217,2364.4,1217z"/>
								<path class="st6" d="M2021.3,1217h-130.9c-49.1,0-110.4-30.3-135.4-65.5l-59.5-84c-20-28.3-2.5-50,38.1-50H1842
									c40.6,0,94.8,21.8,122.4,50l81.9,84C2080.7,1186.7,2070.4,1217,2021.3,1217z"/>
								<path class="st5" d="M1678.3,1217h-130.9c-49.1,0-101.4-30.3-115.9-65.5l-34.6-84c-11.6-28.3,12.3-50,53-50h108.3
									c40.6,0,88.4,21.8,107.6,50l57,84C1746.6,1186.7,1727.4,1217,1678.3,1217z"/>
							</g>
							<g>
								<path class="st6" d="M2661.3,999.4H2555c-39.9,0-104.3-20.1-142-43.7l-91.7-57.3c-31.4-19.7-28.2-34.9,5.9-34.9h90.9
									c34.1,0,90.2,15.3,126.9,34.9l107,57.3C2696,979.4,2701.1,999.4,2661.3,999.4z"/>
								<path class="st5" d="M2382.8,999.4h-106.3c-39.9,0-98.3-20.1-129-43.7l-74.7-57.3c-25.6-19.7-17.9-34.9,16.2-34.9h90.9
									c34.1,0,85.7,15.3,116.6,34.9l90,57.3C2423.5,979.4,2422.6,999.4,2382.8,999.4z"/>
								<path class="st6" d="M2104.3,999.4H1998c-39.9,0-92.4-20.1-116.1-43.7l-57.6-57.3c-19.8-19.7-7.5-34.9,26.6-34.9h90.9
									c34.1,0,81.2,15.3,106.2,34.9l73,57.3C2151,979.4,2144.2,999.4,2104.3,999.4z"/>
								<path class="st5" d="M1825.8,999.4h-106.3c-39.9,0-86.4-20.1-103.1-43.7l-40.6-57.3c-13.9-19.7,2.9-34.9,37-34.9h90.9
									c34.1,0,76.6,15.3,95.8,34.9l55.9,57.3C1878.4,979.4,1865.7,999.4,1825.8,999.4z"/>
								<path class="st6" d="M1547.3,999.4h-106.3c-39.9,0-80.5-20.1-90.2-43.7l-23.6-57.3c-8.1-19.7,13.3-34.9,47.3-34.9h90.9
									c34.1,0,72.1,15.3,85.5,34.9l38.9,57.3C1605.9,979.4,1587.2,999.4,1547.3,999.4z"/>
							</g>
							<g>
								<path class="st5" d="M2395.3,850.8h-89.4c-33.6,0-83.6-14.3-110.6-31.2l-66.5-41.6c-23.1-14.5-17.4-25.8,12-25.8h78.3
									c29.4,0,74.3,11.3,101.3,25.8l77.7,41.6C2429.5,836.5,2428.9,850.8,2395.3,850.8z"/>
								<path class="st6" d="M2161,850.8h-89.4c-33.6,0-79.3-14.3-101.3-31.2L1916,778c-18.8-14.5-9.7-25.8,19.6-25.8h78.3
									c29.4,0,70.9,11.3,93.6,25.8l65.3,41.6C2199.4,836.5,2194.5,850.8,2161,850.8z"/>
								<path class="st5" d="M1926.6,850.8h-89.4c-33.6,0-75.1-14.3-92.1-31.2l-41.8-41.6c-14.5-14.5-2.1-25.8,27.3-25.8h78.3
									c29.4,0,67.6,11.3,86,25.8l53,41.6C1969.2,836.5,1960.1,850.8,1926.6,850.8z"/>
								<path class="st6" d="M1692.2,850.8h-89.4c-33.6,0-70.9-14.3-82.8-31.2l-29.5-41.6c-10.2-14.5,5.6-25.8,34.9-25.8h78.3
									c29.4,0,64.2,11.3,78.3,25.8l40.6,41.6C1739.1,836.5,1725.8,850.8,1692.2,850.8z"/>
								<path class="st5" d="M1457.8,850.8h-89.4c-33.6,0-66.6-14.3-73.6-31.2l-17.1-41.6c-6-14.5,13.2-25.8,42.6-25.8h78.3
									c29.4,0,60.8,11.3,70.7,25.8l28.3,41.6C1508.9,836.5,1491.4,850.8,1457.8,850.8z"/>
							</g>
							<g>
								<path class="st6" d="M2202.1,742.8h-77.2c-29,0-69.5-10.7-89.8-23.3l-50.5-31.6c-17.7-11.1-10.7-19.8,15.1-19.8h68.7
									c25.8,0,62.9,8.7,83.6,19.8l58.9,31.6C2234.7,732.1,2231.1,742.8,2202.1,742.8z"/>
								<path class="st5" d="M1999.8,742.8h-77.2c-29,0-66.3-10.7-82.8-23.3l-41.1-31.6c-14.4-11.1-4.9-19.8,20.9-19.8h68.7
									c25.8,0,60.4,8.7,77.7,19.8l49.6,31.6C2035.6,732.1,2028.8,742.8,1999.8,742.8z"/>
								<path class="st6" d="M1797.5,742.8h-77.2c-29,0-63.2-10.7-75.9-23.3l-31.8-31.6c-11.1-11.1,1-19.8,26.8-19.8h68.7
									c25.8,0,57.8,8.7,71.9,19.8l40.2,31.6C1836.4,732.1,1826.5,742.8,1797.5,742.8z"/>
								<path class="st5" d="M1595.2,742.8H1518c-29,0-60-10.7-69-23.3l-22.4-31.6c-7.9-11.1,6.9-19.8,32.7-19.8h68.7
									c25.8,0,55.2,8.7,66,19.8l30.8,31.6C1637.2,732.1,1624.1,742.8,1595.2,742.8z"/>
								<path class="st6" d="M1392.8,742.8h-77.2c-29,0-56.8-10.7-62.1-23.3l-13-31.6c-4.6-11.1,12.8-19.8,38.6-19.8h68.7
									c25.8,0,52.6,8.7,60.1,19.8l21.4,31.6C1438.1,732.1,1421.8,742.8,1392.8,742.8z"/>
							</g>
							<g>
								<path class="st5" d="M2055.4,660.8h-67.9c-25.5,0-59.3-8.3-75.1-18.1l-39.6-24.8c-14-8.8-6.4-15.7,16.6-15.7h61.3
									c23,0,54.5,6.9,70.9,15.7l46.2,24.8C2086.2,652.5,2080.9,660.8,2055.4,660.8z"/>
								<path class="st6" d="M1877.4,660.8h-67.9c-25.5,0-56.9-8.3-69.8-18.1l-32.3-24.8c-11.4-8.8-1.8-15.7,21.2-15.7h61.3
									c23,0,52.5,6.9,66.2,15.7l38.9,24.8C1910.6,652.5,1902.9,660.8,1877.4,660.8z"/>
								<path class="st5" d="M1699.4,660.8h-67.9c-25.5,0-54.4-8.3-64.4-18.1l-24.9-24.8c-8.8-8.8,2.9-15.7,25.9-15.7h61.3
									c23,0,50.4,6.9,61.6,15.7l31.5,24.8C1735.1,652.5,1724.9,660.8,1699.4,660.8z"/>
								<path class="st6" d="M1521.5,660.8h-67.9c-25.5,0-52-8.3-59-18.1l-17.6-24.8c-6.2-8.8,7.5-15.7,30.5-15.7h61.3
									c23,0,48.4,6.9,56.9,15.7l24.2,24.8C1559.5,652.5,1546.9,660.8,1521.5,660.8z"/>
								<path class="st5" d="M1343.5,660.8h-67.9c-25.5,0-49.5-8.3-53.6-18.1l-10.2-24.8c-3.6-8.8,12.2-15.7,35.2-15.7h61.3
									c23,0,46.3,6.9,52.3,15.7l16.8,24.8C1384,652.5,1369,660.8,1343.5,660.8z"/>
							</g>
						</g>
					</g>
					<g style="clip-path:url(#SVGID_00000183220441173130787180000011348310779962937020_);">
						<polygon class="st3" points="384.9,602.2 1205.3,602.2 1482.6,1275.7 -358.8,1275.7 						"/>
						<polygon class="st4" points="384.9,602.2 1205.3,602.2 1482.6,1275.7 -358.8,1275.7 						"/>
						<g>
							<g>
								<path class="st5" d="M1298.1,1217h-130.9c-49.1,0-91.4-30.3-94.4-65.5l-7-84c-2.3-28.3,28.8-50,69.4-50h108.3
									c40.6,0,81.2,21.8,91.1,50l29.4,84C1376.4,1186.7,1347.2,1217,1298.1,1217z"/>
								<path class="st6" d="M955,1217H824.1c-49.1,0-82.4-30.3-74.9-65.5l18-84c6-28.3,43.6-50,84.3-50h108.3
									c40.6,0,74.7,21.8,76.2,50l4.5,84C1042.3,1186.7,1004.1,1217,955,1217z"/>
								<path class="st5" d="M611.9,1217H481c-49.1,0-73.5-30.3-55.5-65.5l42.9-84c14.4-28.3,58.5-50,99.1-50h108.3
									c40.6,0,68.3,21.8,61.4,50l-20.5,84C708.2,1186.7,661.1,1217,611.9,1217z"/>
								<path class="st6" d="M268.9,1217H138c-49.1,0-64.5-30.3-36-65.5l67.8-84c22.8-28.3,73.4-50,114-50h108.3
									c40.6,0,61.8,21.8,46.5,50l-45.4,84C374.2,1186.7,318,1217,268.9,1217z"/>
								<path class="st5" d="M-74.2,1217h-130.9c-49.1,0-55.5-30.3-16.6-65.5l92.7-84c31.2-28.3,88.2-50,128.8-50h108.3
									c40.6,0,55.3,21.8,31.7,50l-70.3,84C40.1,1186.7-25.1,1217-74.2,1217z"/>
							</g>
							<g>
								<path class="st6" d="M1238.7,999.4h-106.3c-39.9,0-73.9-20.1-75.8-43.7l-4.8-57.3c-1.6-19.7,24.7-34.9,58.8-34.9h90.9
									c34.1,0,67.1,15.3,74,34.9l20.1,57.3C1303.8,979.4,1278.5,999.4,1238.7,999.4z"/>
								<path class="st5" d="M960.2,999.4H853.9c-39.9,0-67.9-20.1-62.9-43.7l12.3-57.3c4.2-19.7,35.1-34.9,69.2-34.9h90.9
									c34.1,0,62.5,15.3,63.6,34.9l3,57.3C1031.3,979.4,1000,999.4,960.2,999.4z"/>
								<path class="st6" d="M681.7,999.4H575.4c-39.9,0-61.9-20.1-49.9-43.7l29.3-57.3c10-19.7,45.5-34.9,79.6-34.9h90.9
									c34.1,0,58,15.3,53.2,34.9l-14,57.3C758.8,979.4,721.5,999.4,681.7,999.4z"/>
								<path class="st5" d="M403.2,999.4H296.9c-39.9,0-56-20.1-36.9-43.7l46.3-57.3c15.9-19.7,55.9-34.9,89.9-34.9h90.9
									c34.1,0,53.5,15.3,42.9,34.9l-31,57.3C486.2,979.4,443.1,999.4,403.2,999.4z"/>
								<path class="st6" d="M124.7,999.4H18.4c-39.9,0-50-20.1-24-43.7l63.3-57.3c21.7-19.7,66.2-34.9,100.3-34.9h90.9
									c34.1,0,48.9,15.3,32.5,34.9l-48,57.3C213.7,979.4,164.6,999.4,124.7,999.4z"/>
							</g>
							<g>
								<path class="st5" d="M1198.1,850.8h-89.4c-33.6,0-61.9-14.3-63.3-31.2l-3.4-41.6c-1.2-14.5,21.7-25.8,51-25.8h78.3
									c29.4,0,57.1,11.3,62.2,25.8l14.6,41.6C1253.8,836.5,1231.6,850.8,1198.1,850.8z"/>
								<path class="st6" d="M963.7,850.8h-89.4c-33.6,0-57.7-14.3-54.1-31.2l8.9-41.6c3.1-14.5,29.3-25.8,58.7-25.8H966
									c29.4,0,53.8,11.3,54.5,25.8l2.2,41.6C1023.7,836.5,997.3,850.8,963.7,850.8z"/>
								<path class="st5" d="M729.3,850.8h-89.4c-33.6,0-53.5-14.3-44.8-31.2l21.3-41.6c7.4-14.5,37-25.8,66.3-25.8h78.3
									c29.4,0,50.4,11.3,46.9,25.8l-10.1,41.6C793.5,836.5,762.9,850.8,729.3,850.8z"/>
								<path class="st6" d="M494.9,850.8h-89.4c-33.6,0-49.2-14.3-35.6-31.2l33.6-41.6c11.7-14.5,44.6-25.8,74-25.8h78.3
									c29.4,0,47.1,11.3,39.3,25.8l-22.5,41.6C563.4,836.5,528.5,850.8,494.9,850.8z"/>
								<path class="st5" d="M260.6,850.8h-89.4c-33.6,0-45-14.3-26.4-31.2l46-41.6c16-14.5,52.3-25.8,81.6-25.8h78.3
									c29.4,0,43.7,11.3,31.6,25.8l-34.8,41.6C333.3,836.5,294.1,850.8,260.6,850.8z"/>
							</g>
							<g>
								<path class="st6" d="M1168.6,742.8h-77.2c-29,0-53.3-10.7-54.4-23.3l-2.6-31.6c-0.9-11.1,19.3-19.8,45.1-19.8h68.7
									c25.8,0,49.7,8.7,53.6,19.8l11.1,31.6C1217.3,732.1,1197.6,742.8,1168.6,742.8z"/>
								<path class="st5" d="M966.3,742.8h-77.2c-29,0-50.2-10.7-47.5-23.3l6.8-31.6c2.4-11.1,25.1-19.8,50.9-19.8H968
									c25.8,0,47.2,8.7,47.8,19.8l1.7,31.6C1018.1,732.1,995.2,742.8,966.3,742.8z"/>
								<path class="st6" d="M763.9,742.8h-77.2c-29,0-47-10.7-40.5-23.3l16.1-31.6c5.7-11.1,31-19.8,56.8-19.8h68.7
									c25.8,0,44.6,8.7,41.9,19.8l-7.7,31.6C819,732.1,792.9,742.8,763.9,742.8z"/>
								<path class="st5" d="M561.6,742.8h-77.2c-29,0-43.8-10.7-33.6-23.3l25.5-31.6c8.9-11.1,36.9-19.8,62.7-19.8h68.7
									c25.8,0,42,8.7,36,19.8l-17.1,31.6C619.8,732.1,590.6,742.8,561.6,742.8z"/>
								<path class="st6" d="M359.3,742.8h-77.2c-29,0-40.7-10.7-26.7-23.3l34.9-31.6c12.2-11.1,42.8-19.8,68.5-19.8h68.7
									c25.8,0,39.4,8.7,30.1,19.8l-26.4,31.6C420.6,732.1,388.2,742.8,359.3,742.8z"/>
							</g>
							<g>
								<path class="st5" d="M1146.2,660.8h-67.9c-25.5,0-46.8-8.3-47.6-18.1l-2.1-24.8c-0.7-8.8,17.3-15.7,40.3-15.7h61.3
									c23,0,44,6.9,47.1,15.7l8.7,24.8C1189.4,652.5,1171.7,660.8,1146.2,660.8z"/>
								<path class="st6" d="M968.2,660.8h-67.9c-25.5,0-44.4-8.3-42.3-18.1l5.3-24.8c1.9-8.8,22-15.7,45-15.7h61.3
									c23,0,42,6.9,42.5,15.7l1.3,24.8C1013.9,652.5,993.7,660.8,968.2,660.8z"/>
								<path class="st5" d="M790.2,660.8h-67.9c-25.5,0-41.9-8.3-36.9-18.1l12.7-24.8c4.5-8.8,26.6-15.7,49.6-15.7H809
									c23,0,40,6.9,37.8,15.7l-6,24.8C838.4,652.5,815.7,660.8,790.2,660.8z"/>
								<path class="st6" d="M612.2,660.8h-67.9c-25.5,0-39.5-8.3-31.5-18.1l20-24.8c7.1-8.8,31.3-15.7,54.3-15.7h61.3
									c23,0,37.9,6.9,33.2,15.7l-13.4,24.8C662.8,652.5,637.7,660.8,612.2,660.8z"/>
								<path class="st5" d="M434.2,660.8h-67.9c-25.5,0-37-8.3-26.1-18.1l27.4-24.8c9.7-8.8,35.9-15.7,58.9-15.7h61.3
									c23,0,35.9,6.9,28.5,15.7l-20.7,24.8C487.3,652.5,459.7,660.8,434.2,660.8z"/>
							</g>
						</g>
					</g>
					<g style="clip-path:url(#SVGID_00000183220441173130787180000011348310779962937020_);">
						<polygon class="st3" points="-435.5,602.2 384.9,602.2 -358.8,1275.7 -2200.2,1275.7 						"/>
						<polygon class="st4" points="-435.5,602.2 384.9,602.2 -358.8,1275.7 -2200.2,1275.7 						"/>
						<g>
							<g>
								<path class="st5" d="M-454.4,1217h-130.9c-49.1,0-45.5-30.3,5-65.5l120.4-84c40.5-28.3,104.7-50,145.3-50h108.3
									c40.6,0,48.2,21.8,15.2,50l-97.9,84C-330.1,1186.7-405.3,1217-454.4,1217z"/>
								<path class="st6" d="M-797.4,1217h-130.9c-49.1,0-36.5-30.3,24.4-65.5l145.3-84c48.9-28.3,119.5-50,160.2-50h108.3
									c40.6,0,41.7,21.8,0.4,50l-122.9,84C-664.2,1186.7-748.3,1217-797.4,1217z"/>
								<path class="st5" d="M-1140.5,1217h-130.9c-49.1,0-27.5-30.3,43.9-65.5l170.2-84c57.3-28.3,134.4-50,175-50H-774
									c40.6,0,35.3,21.8-14.5,50l-147.8,84C-998.3,1186.7-1091.4,1217-1140.5,1217z"/>
								<path class="st6" d="M-1483.6,1217h-130.9c-49.1,0-18.6-30.3,63.3-65.5l195.1-84c65.7-28.3,149.2-50,189.9-50h108.3
									c40.6,0,28.8,21.8-29.3,50l-172.7,84C-1332.3,1186.7-1434.4,1217-1483.6,1217z"/>
								<path class="st5" d="M-1826.6,1217h-130.9c-49.1,0-9.6-30.3,82.8-65.5l220.1-84c74.1-28.3,164.1-50,204.7-50h108.3
									c40.6,0,22.3,21.8-44.2,50l-197.6,84C-1666.4,1186.7-1777.5,1217-1826.6,1217z"/>
							</g>
							<g>
								<path class="st6" d="M-184,999.4h-106.3c-39.9,0-43.4-20.1-9.6-43.7l82.2-57.3c28.2-19.7,77.7-34.9,111.8-34.9H-15
									c34.1,0,43.9,15.3,21,34.9l-66.9,57.3C-88.4,979.4-144.1,999.4-184,999.4z"/>
								<path class="st5" d="M-462.4,999.4h-106.3c-39.9,0-37.5-20.1,3.3-43.7l99.2-57.3c34-19.7,88.1-34.9,122.2-34.9h90.9
									c34.1,0,39.4,15.3,10.6,34.9l-83.9,57.3C-360.9,979.4-422.6,999.4-462.4,999.4z"/>
								<path class="st6" d="M-740.9,999.4h-106.3c-39.9,0-31.5-20.1,16.3-43.7l116.2-57.3c39.9-19.7,98.4-34.9,132.5-34.9h90.9
									c34.1,0,34.9,15.3,0.3,34.9l-100.9,57.3C-633.4,979.4-701.1,999.4-740.9,999.4z"/>
								<path class="st5" d="M-1019.4,999.4h-106.3c-39.9,0-25.6-20.1,29.2-43.7l133.2-57.3c45.7-19.7,108.8-34.9,142.9-34.9h90.9
									c34.1,0,30.3,15.3-10.1,34.9l-117.9,57.3C-906,979.4-979.6,999.4-1019.4,999.4z"/>
								<path class="st6" d="M-1297.9,999.4h-106.3c-39.9,0-19.6-20.1,42.2-43.7l150.2-57.3c51.5-19.7,119.2-34.9,153.3-34.9h90.9
									c34.1,0,25.8,15.3-20.5,34.9l-134.9,57.3C-1178.5,979.4-1258,999.4-1297.9,999.4z"/>
							</g>
							<g>
								<path class="st5" d="M0.8,850.8h-89.4c-33.6,0-40.3-14.3-16.1-31.2l59.7-41.6c20.7-14.5,60.7-25.8,90.1-25.8h78.3
									c29.4,0,40,11.3,23.1,25.8l-48.5,41.6C78.2,836.5,34.4,850.8,0.8,850.8z"/>
								<path class="st6" d="M-233.6,850.8H-323c-33.6,0-36.1-14.3-6.9-31.2l72-41.6c25-14.5,68.4-25.8,97.8-25.8h78.3
									c29.4,0,36.6,11.3,15.5,25.8l-60.9,41.6C-152,836.5-200,850.8-233.6,850.8z"/>
								<path class="st5" d="M-468,850.8h-89.4c-33.6,0-31.9-14.3,2.4-31.2l84.4-41.6c29.3-14.5,76-25.8,105.4-25.8h78.3
									c29.4,0,33.3,11.3,7.8,25.8l-73.2,41.6C-382.1,836.5-434.4,850.8-468,850.8z"/>
								<path class="st6" d="M-702.3,850.8h-89.4c-33.6,0-27.6-14.3,11.6-31.2l96.7-41.6c33.6-14.5,83.7-25.8,113-25.8h78.3
									c29.4,0,29.9,11.3,0.2,25.8l-85.6,41.6C-612.3,836.5-668.8,850.8-702.3,850.8z"/>
								<path class="st5" d="M-936.7,850.8h-89.4c-33.6,0-23.4-14.3,20.9-31.2l109.1-41.6c37.9-14.5,91.3-25.8,120.7-25.8h78.3
									c29.4,0,26.6,11.3-7.5,25.8l-97.9,41.6C-842.4,836.5-903.1,850.8-936.7,850.8z"/>
							</g>
							<g>
								<path class="st6" d="M135,742.8H57.8c-29,0-37.2-10.7-19-23.3l45.3-31.6c15.9-11.1,49.3-19.8,75.1-19.8h68.7
									c25.8,0,36.6,8.7,23.6,19.8l-36.8,31.6C199.9,732.1,164,742.8,135,742.8z"/>
								<path class="st5" d="M-67.3,742.8h-77.2c-29,0-34-10.7-12.1-23.3l54.6-31.6c19.2-11.1,55.1-19.8,80.9-19.8h68.7
									c25.8,0,34,8.7,17.8,19.8l-46.2,31.6C0.7,732.1-38.3,742.8-67.3,742.8z"/>
								<path class="st6" d="M-269.6,742.8h-77.2c-29,0-30.9-10.7-5.1-23.3l64-31.6c22.5-11.1,61-19.8,86.8-19.8h68.7
									c25.8,0,31.4,8.7,11.9,19.8l-55.6,31.6C-198.4,732.1-240.7,742.8-269.6,742.8z"/>
								<path class="st5" d="M-471.9,742.8h-77.2c-29,0-27.7-10.7,1.8-23.3l73.4-31.6c25.8-11.1,66.9-19.8,92.7-19.8h68.7
									c25.8,0,28.8,8.7,6,19.8l-64.9,31.6C-397.6,732.1-443,742.8-471.9,742.8z"/>
								<path class="st6" d="M-674.3,742.8h-77.2c-29,0-24.5-10.7,8.7-23.3l82.8-31.6c29-11.1,72.7-19.8,98.5-19.8h68.7
									c25.8,0,26.2,8.7,0.1,19.8l-74.3,31.6C-596.8,732.1-645.3,742.8-674.3,742.8z"/>
							</g>
							<g>
								<path class="st5" d="M237,660.8h-67.9c-25.5,0-34.3-8.3-20.1-18.1l35.5-24.8c12.6-8.8,41.1-15.7,64.1-15.7h61.3
									c23,0,33.6,6.9,23.4,15.7l-28.9,24.8C292.7,652.5,262.5,660.8,237,660.8z"/>
								<path class="st6" d="M59,660.8H-8.9c-25.5,0-31.9-8.3-14.8-18.1l42.9-24.8c15.2-8.8,45.7-15.7,68.7-15.7h61.3
									c23,0,31.5,6.9,18.7,15.7l-36.3,24.8C117.2,652.5,84.5,660.8,59,660.8z"/>
								<path class="st5" d="M-119,660.8h-67.9c-25.5,0-29.4-8.3-9.4-18.1l50.2-24.8c17.8-8.8,50.4-15.7,73.4-15.7h61.3
									c23,0,29.5,6.9,14.1,15.7L-41,642.6C-58.3,652.5-93.5,660.8-119,660.8z"/>
								<path class="st6" d="M-297,660.8h-67.9c-25.5,0-27-8.3-4-18.1l57.6-24.8c20.4-8.8,55-15.7,78-15.7h61.3
									c23,0,27.4,6.9,9.4,15.7l-51,24.8C-233.9,652.5-271.5,660.8-297,660.8z"/>
								<path class="st5" d="M-475,660.8h-67.9c-25.5,0-24.5-8.3,1.4-18.1l64.9-24.8c23-8.8,59.7-15.7,82.7-15.7h61.3
									c23,0,25.4,6.9,4.8,15.7l-58.3,24.8C-409.4,652.5-449.5,660.8-475,660.8z"/>
							</g>
						</g>
					</g>
				</g>
			</g>
		</g>
		<path style="clip-path:url(#SVGID_00000000211237042462253030000012353456702525190039_);fill:#ABABAB;" d="M1817.9,772.2
			c-3.4-0.1-5.8-1-6.9-1.5c-5.9-3-235.3-86.3-578.4-210.6c-32.8-35.6-68.4-83.2-92.2-142.4c-58.8-146.4-8.6-272.2,20.3-329.1
			c282.8,56.9,565.6,113.9,848.5,170.8C1947.8,529.1,1876.7,774.8,1817.9,772.2z"/>
		<path style="clip-path:url(#SVGID_00000000211237042462253030000012353456702525190039_);fill:#C4C4C4;" d="M1985.1,253.3
			c193.1-56.3,269.2-80.3,273.7-84.4c0.4-0.3,3.2-3.2,6.6-3c4,0.2,6.4,4.2,6.6,4.5c2.4,4.1,0.3,8.3,0,9
			c-11.5,24-132.3,495.2-132.5,498.6c0,0,0,0.2,0,0.4c-0.1,0.8-0.4,2.5-2.2,4.1c-2.3,2.1-5.8,2.8-6.6,3
			c-8.1,1.8-257.7,62.2-298,77.2c-2.9,1.1-14.6,5.2-17.7,3c-2.4-1.8,1.7-6.8,2.2-7.4C1823.8,749.7,1875,596.7,1985.1,253.3z"/>
		<path style="clip-path:url(#SVGID_00000000211237042462253030000012353456702525190039_);fill:#E0E0E0;" d="M1871,54.6
			c214.4,43.4,420.6,91.4,413.4,116c-0.5,1.8-2.1,3-4.7,4.7c-81.3,54.7-239.1,76.5-269,86.5c-1.9,0.6-9.1,3.1-18.7,3.1
			c-8.4,0-14.6-1.9-18.7-3.1c-8.8-2.6-21.6-6-39.8-9.4c-0.1-12.8-1.1-31.4-4.9-50.6c-2.7-13.4-7.3-29.7-7.9-31.6
			c-1.1-3.8-2.2-7.5-3.4-11.4C1904.8,118.7,1888,83.8,1871,54.6z"/>
		<path style="clip-path:url(#SVGID_00000000211237042462253030000012353456702525190039_);fill:#C4C4C4;" d="M1972.8,262.5"/>
		<path style="clip-path:url(#SVGID_00000000211237042462253030000012353456702525190039_);fill:#F2F2F2;" d="M387.7,728.5
			C390.5,833,549,901.7,587,918.3c367.6,159.8,1032.6-33.6,1036.1-165c2.2-84-265.1-176.6-305-190.4
			c-67.9-23.5-126.6-35.7-157.5-41.7c-66.5-12.9-176.5-34.2-316.5-27.4c-104.7,5.1-238.2,11.5-343.9,80.1
			C475,590.2,385.5,648.2,387.7,728.5z"/>
		<path style="clip-path:url(#SVGID_00000000211237042462253030000012353456702525190039_);fill:#C4C4C4;" d="M1154.8,637
			c-39.9-15.4-79.1-20.1-112.5-24.1c-67.2-8.1-121.3-4.2-143-2.2c-44,4-220.9,20.3-253.9,94.3c-13.7,30.8,3.5,58.1,6.4,62.5
			c29.5,45,108.3,59.1,154.3,66.9c186.2,31.5,453.9-3.1,474-76.8C1292.1,713.7,1214.7,660.2,1154.8,637z"/>
		
			<linearGradient id="SVGID_00000128471410690632862070000010940681566161674399_" gradientUnits="userSpaceOnUse" x1="838.4079" y1="714.1124" x2="1311.4652" y2="1055.7649">
			<stop  offset="0" style="stop-color:#C4C4C4"/>
			<stop  offset="0.3982" style="stop-color:#BBBBBB"/>
			<stop  offset="0.4601" style="stop-color:#B2B2B2"/>
			<stop  offset="0.54" style="stop-color:#ABABAB"/>
			<stop  offset="1" style="stop-color:#8C8C8C"/>
		</linearGradient>
		
			<path style="clip-path:url(#SVGID_00000000211237042462253030000012353456702525190039_);fill:url(#SVGID_00000128471410690632862070000010940681566161674399_);" d="
			M1623.5,752.9c15,40.4,28.4,106.1-13.2,174.8c-99.4,164-450.6,241.5-726.5,209.6c-50.5-5.8-265.4-30.7-399.6-154.4
			C382.5,889.1,385,791.7,388.5,757c18.6,31.3,58.8,85.1,143.6,130.8c118.6,64,251.4,72.9,338.5,78.7
			c231.6,15.5,401.8-37.9,538.2-80.8c85.4-26.8,143.9-55.3,184.9-96.1C1608.6,775,1617.9,761.8,1623.5,752.9z"/>
		<path style="clip-path:url(#SVGID_00000000211237042462253030000012353456702525190039_);fill:#8C8C8C;" d="M1115.5,1285
			c-146.3-27.8-292.6-55.6-438.9-83.5c11.2-33.2,22.3-66.3,33.5-99.5c44.3,13.2,103.1,27.2,174.2,35.4
			c92.6,10.7,171.8,7.6,227.8,2.3C1113.3,1188.2,1114.4,1236.6,1115.5,1285z"/>
		<path style="clip-path:url(#SVGID_00000000211237042462253030000012353456702525190039_);fill:#ABABAB;" d="M1927.9,828.8
			c99.7-39.3,165.2-97.1,209.4-152.1c-110.6,30.5-221.1,61-331.7,91.5c-57-16.4-113.9-32.8-170.9-49.2c-7.8,0.4-15.6,0.8-23.5,1.1
			c15.4,30.2,52.5,116.2-1.7,208.1c-57.4,97.2-181.2,140.7-249.6,164.7c-100.1,35.1-192.7,44.2-247.9,46.9
			c1.1,48.4,2.2,96.8,3.4,145.2c221.7-54.9,443.3-109.8,665-164.7c-48.7-154.2-6.4-219.4,41.9-250.4
			C1852.1,850.8,1878.7,848.1,1927.9,828.8z"/>
		<path style="clip-path:url(#SVGID_00000000211237042462253030000012353456702525190039_);fill:#6E6E6E;" d="M1805.2,767.8
			c-11.3,6.7-31.8,16.9-61,22.3c-52.2,9.6-95.7-3.2-108.9-7.4c-3.4-14.3-9.2-31.6-19.6-50.5c-12.5-22.9-27.9-41.3-41.4-55
			C1651.3,707.3,1728.3,737.6,1805.2,767.8z"/>
		<g style="clip-path:url(#SVGID_00000000211237042462253030000012353456702525190039_);">
			<path class="st15" d="M1909.2,110.8c-26.6-61.6-57.3-132.8-156-181.8c-131.2-65.1-324-61.7-460.2-18.5c-2.6,0.8-3.8,1.2-5.8,1.9
				c-229.3,74.3-180.2,320.3-167.3,378.7c15.6,70.7,37.5,115,47.9,131.3c36.4,57,84.9,96.7,118.6,120.5c48.2,12.9,107,32,169.2,60.6
				c73.4,33.8,127.8,70,165.8,99.5c69.4-40.1,187.2-120,257.4-246.5C1904.4,410.2,1978.4,271.2,1909.2,110.8z"/>
		</g>
		<path style="clip-path:url(#SVGID_00000000211237042462253030000012353456702525190039_);fill:#F2F2F2;" d="M1351.8,127.8"/>
		<path style="clip-path:url(#SVGID_00000000211237042462253030000012353456702525190039_);fill:#F2F2F2;" d="M1683.3,787.6"/>
		<path style="clip-path:url(#SVGID_00000000211237042462253030000012353456702525190039_);fill:#F2F2F2;" d="M1864.2,873.4"/>
		<path style="clip-path:url(#SVGID_00000000211237042462253030000012353456702525190039_);fill:#348DC4;" d="M1265.2,779.7
			c-59.2-10.8-155-22.9-272.1-14.9c-117.8,8.1-208.5,33.3-263.4,52c5.7,1.9,13.9,4.6,23.9,7.4c11.7,3.3,39.4,10.5,95.8,16.3
			c21.2,2.2,52.2,5.4,93.6,5.9c22.4,0.3,83.6,0.3,163.3-11.9c101.5-15.6,133.5-35.8,145.9-44.6C1258,786,1262.3,782.3,1265.2,779.7z
			"/>
		<path style="clip-path:url(#SVGID_00000000211237042462253030000012353456702525190039_);fill:#115E8F;" d="M1223.9,804.9
			c-25.8,0.5-64.3,0.7-111-1.5c-72.6-3.4-130.9-11-137.2,0c-3.5,6.3,13.4,11.9,10.9,19.3c-7.1,21.2-158.7,12.6-158.9,14.9
			c-0.2,1.9,103,18.2,233,3C1128.7,832.6,1183.9,818,1223.9,804.9z"/>
		<path style="clip-path:url(#SVGID_00000000211237042462253030000012353456702525190039_);" d="M1378.5,275.1
			c34.6,27.3,13,80.3-5.4,82c-15.1,1.4-32.7-31.9-42.7-50.7c-10.5-19.8-20.8-39.4-9.6-45.8C1331.9,254.2,1362,262.1,1378.5,275.1z"
			/>
		<path style="clip-path:url(#SVGID_00000000211237042462253030000012353456702525190039_);" d="M1541.7,294.1
			c40.7,30.7,14.3,91.6-4.7,92.9c-11.3,0.8-22.7-19.4-35.1-41.5c-9.3-16.6-32.4-57.5-14.4-66.3
			C1499.2,273.4,1526.4,282.5,1541.7,294.1z"/>
		<path style="clip-path:url(#SVGID_00000000211237042462253030000012353456702525190039_);" d="M1561.3,440.8
			c3,3.2-48.3,48.3-115.4,44.6c-75.1-4.2-114.3-66.4-111-68.4c2.9-1.8,39.9,44.4,106.7,50.5C1506.6,473.5,1558.4,437.8,1561.3,440.8
			z"/>
		
			<ellipse style="clip-path:url(#SVGID_00000000211237042462253030000012353456702525190039_);fill:#FFFFFF;" cx="1361" cy="308.5" rx="13.1" ry="8.9"/>
		
			<ellipse style="clip-path:url(#SVGID_00000000211237042462253030000012353456702525190039_);fill:#FFFFFF;" cx="1524.3" cy="335.3" rx="13.1" ry="8.9"/>
	</g>
</g>
<g id="lives">
	<g>
		<path class="st19" d="M189.2,142.9c9.5,30.5,8.6,50.1,5.7,62.7c-0.7,3.1-2.7,10.5-4.1,21.2c-1.8,13.4-1.8,24.6-1.6,32.1
			c-45.6,0-91.1,0-136.7,0c0-2.6,0-6.6,0.5-11.4c1.1-10.2,3.3-15,4.1-20.7c0.9-5.8,0.7-14.2-4.7-25.4
			C98.1,181.9,143.6,162.4,189.2,142.9z"/>
		<path class="st20" d="M52.5,201.4c-4.9-2.5-11.7-7-17.1-14.5c-2.3-3.2-7.4-11.3-7.8-44.5c-0.4-40.4,6.9-50.9,11.4-55.9
			c2.2-2.4,4.3-4.1,5.7-5.2c17.7-2.4,37.1-4.3,58-5.2c24.7-1,47.4-0.4,67.8,1c-5.7,10.2-15,30.2-16.1,57
			c-1.3,32.6,10.3,56.9,16.1,67.3C131.2,201.4,91.8,201.4,52.5,201.4z"/>
		<path class="st21" d="M170.5,201.4c-8.5-0.2-15.1-32.7-16.1-55.9c-1.3-31.3,6.9-68.1,16.1-68.3c8.4-0.2,17.5,30.4,18.6,55.9
			C190.7,166,179.6,201.7,170.5,201.4z"/>
		<ellipse class="st22" cx="170.5" cy="140.8" rx="8.3" ry="20.7"/>
		<path class="st23" d="M170.5,121.1c-1.7,0-3,1.7-4.1,3.1c-1.7,2.2-2.2,4.5-2.6,6.2c-0.7,3.5-0.6,7.2,0,7.2
			c0.9,0.1,1.2-8.5,4.7-9.3c3.2-0.8,6.8,6,8.3,5.2c1-0.6,0.1-4-0.5-5.7C176,127.2,173.9,121.1,170.5,121.1z"/>
		<path class="st20" d="M171.1,98.4c-3.7,0.1-6.2,5.6-7.2,7.8c-5.3,11.2-4.8,29-5.2,34.2c0,0.5-0.1,1.5-0.5,1.6
			c-0.4,0.1-0.9-0.8-1-1c-1.6-2.7,0.5-54.6,12.9-54.9c12.2-0.3,16.7,49,16.1,50.2c-0.3,0.5-0.5,0.5-0.5,0.5c-0.3,0-0.4-0.4-0.5-0.5
			c-0.7-1.4-1.4-20-6.2-30C178.1,104.7,175.1,98.3,171.1,98.4z"/>
	</g>
	<path class="st24" d="M189,727c0-1.4,0-3.6,0-6.2c0.3-23.9,4.6-41.3,5.7-46.6c2.6-12.6,3.3-32-5.7-61.6c0.1-18.9-2.6-33.6-5.2-43.5
		c0,0-6.1-23.8-13.5-23.8c0,0-2.1,0-2.1,0l0,0c-20.7-1.6-44-2.2-69.4-1c-19.6,0.9-37.8,2.8-54.4,5.2c-1.4,1-3.5,2.7-5.7,5.2
		c-8.6,9.7-9.5,21.8-9.8,29.5c-2,41-3.2,66.8,14.5,80.8c3.5,2.7,6.8,4.3,8.8,5.2c4.4,8.1,5.2,14.7,5.2,19.2c0,8.6-3.3,13.4-4.7,26.9
		c-0.5,4.6-0.5,8.4-0.5,10.9C97.9,727,143.4,727,189,727z"/>
	<g>
		<path class="st19" d="M192,376.7c9.5,30.5,8.6,50.1,5.7,62.7c-0.7,3.1-2.7,10.5-4.1,21.2c-1.8,13.4-1.8,24.6-1.6,32.1
			c-45.6,0-91.1,0-136.7,0c0-2.6,0-6.6,0.5-11.4c1.1-10.2,3.3-15,4.1-20.7c0.9-5.8,0.7-14.2-4.7-25.4
			C100.9,415.7,146.5,396.2,192,376.7z"/>
		<path class="st20" d="M55.3,435.2c-4.9-2.5-11.7-7-17.1-14.5c-2.3-3.2-7.4-11.3-7.8-44.5c-0.4-40.4,6.9-50.9,11.4-55.9
			c2.2-2.4,4.3-4.1,5.7-5.2c17.7-2.4,37.1-4.3,58-5.2c24.7-1,47.4-0.4,67.8,1c-5.7,10.2-15,30.2-16.1,57
			c-1.3,32.6,10.3,56.9,16.1,67.3C134,435.2,94.7,435.2,55.3,435.2z"/>
		<path class="st21" d="M173.4,435.2c-8.5-0.2-15.1-32.7-16.1-55.9c-1.3-31.3,6.9-68.1,16.1-68.3c8.4-0.2,17.5,30.4,18.6,55.9
			C193.5,399.8,182.4,435.4,173.4,435.2z"/>
		<ellipse class="st22" cx="173.4" cy="374.6" rx="8.3" ry="20.7"/>
		<path class="st23" d="M173.4,354.9c-1.7,0-3,1.7-4.1,3.1c-1.7,2.2-2.2,4.5-2.6,6.2c-0.7,3.5-0.6,7.2,0,7.2
			c0.9,0.1,1.2-8.5,4.7-9.3c3.2-0.8,6.8,6,8.3,5.2c1-0.6,0.1-4-0.5-5.7C178.9,361,176.7,354.9,173.4,354.9z"/>
		<path class="st20" d="M173.9,332.1c-3.7,0.1-6.2,5.6-7.2,7.8c-5.3,11.2-4.8,29-5.2,34.2c0,0.5-0.1,1.5-0.5,1.6
			c-0.4,0.1-0.9-0.8-1-1c-1.6-2.7,0.5-54.6,12.9-54.9c12.2-0.3,16.7,49,16.1,50.2c-0.3,0.5-0.5,0.5-0.5,0.5c-0.3,0-0.4-0.4-0.5-0.5
			c-0.7-1.4-1.4-20-6.2-30C181,338.5,177.9,332,173.9,332.1z"/>
	</g>
</g>
<g id="teddy">
	<path class="st25" d="M715.1,220.1c-1.8-5.8-3.1-12.6-3.3-20.2c-0.9-32.6,19.7-56.1,26.8-63.6c0.8,5.7,1.8,14.4,1.8,25
		c0,11.9-1.2,16,0.4,22.5c1.5,6.2,5.5,14.7,17.4,23.5c-3.2,2.8-7.4,6.2-12.8,9.8c-10.3,6.9-17.4,11.5-23.7,9.1
		C718.4,224.9,716.3,222.2,715.1,220.1z"/>
	<path class="st25" d="M797.7,97.7c4.5-2.6,11.4-5.7,20.2-6.9c18.4-2.6,32.8,4.8,38,7.8c0.6,0.5,1.5,1.3,2.2,2.5
		c2.2,3.8,0.3,8.2-3,18.5c-0.7,2.3-1.8,5.7-3.1,10.1c-3.1-5.4-12.5-20.2-31.2-27.7C811.6,98.3,803.3,97.6,797.7,97.7z"/>
	<path class="st25" d="M852,132.7c1.2,2.8,2.8,7.5,3.6,13.6c0.6,4.5,0.5,8.4,0.2,11.4c-13.3,3.9-18.5,9.9-20.8,14.4
		c-5.8,11.3,0.9,24.1-7,30.7c-1.6,1.3-6.1,4.4-10.6,7c-2.1,1.2-3.9,2.2-5.1,2.8c-3-3.5-5.9-7-8.9-10.5c-3.5-0.4-9.2-0.6-15.8,1.3
		c-8.7,2.5-14.4,7.3-17.1,9.9c-5.9-3.2-17.2-10.5-25.3-24.2c-13.9-23.5-7.9-47.7-6.5-52.7c3.2,0.9,8.1,1.9,14.1,1.3
		c8.5-0.9,14.4-4.5,18.2-7c15.7-10,24.2-26.7,27.3-33.2c6.6,0.2,16.8,1.4,27.5,7.1c6.7,3.6,11.2,7.6,13,9.3
		C847.4,121.9,851.1,130.5,852,132.7z"/>
	<path class="st25" d="M781.3,23.5c0,6-3.4,13.6-8.8,15c-3.5,0.9-4.4-1.7-11.4-2.6c-7.5-1-10,1.6-12.4-0.4
		c-3.5-2.9-2.2-11.3,1.1-16.6c4.1-6.7,11.1-8.4,12.5-8.7c2-0.5,5.8-1.3,10.1,0.3c1.2,0.4,4.8,1.9,7.1,5.8
		C781.3,19.3,781.3,22.3,781.3,23.5z"/>
	<path class="st25" d="M889.7,204.6c-0.9,0.8-2.5,2.2-4.8,3.5c-20.4,12.1-54.2-1.5-58.8-15.9c-1.3-4.2-0.8-8.3-0.8-8.3
		c0.7-5.2,3.3-8.7,6.1-11.9c3.8-4.2,10.2-10,19.6-13.6c2.8-1.1,5.4-1.8,7.8-2.2c0,0,9.5-2.7,22-2.8c6.3-0.1,9.6,0.2,12.9,2.5
		c2.1,1.4,3.3,3.2,4.1,4.5c1.3,1.9,3,5.1,3.8,9.2c1.2,6.2-0.3,11.2-2,16.4C898.1,190.5,895.3,197.3,889.7,204.6z"/>
	<path class="st25" d="M799.2,59.7c3.8,7.9,3.8,15,3.7,18.6c-0.5,27.8-25.8,46.2-29.5,48.8c-8.3,5.9-16.1,11.4-26.5,10.8
		c-21-1.2-32.9-25.8-35.6-31.3c-3.3-6.7-10.8-22.3-4.7-39.8c4.5-13.1,14.3-20.1,17.6-22.4c18.1-12.7,42.3-11.2,58.4-1.7
		C786.3,44.9,794.3,49.8,799.2,59.7z"/>
	<path class="st26" d="M853.6,130.2"/>
	<g>
		<ellipse transform="matrix(0.6185 -0.7858 0.7858 0.6185 217.4606 606.511)" cx="733.4" cy="79.3" rx="6.4" ry="8.7"/>
	</g>
	<ellipse transform="matrix(0.6546 -0.756 0.756 0.6546 217.0433 591.5059)" cx="755.9" cy="58.2" rx="5.9" ry="8"/>
	<path class="st25" d="M710.1,42.5c0.1,1.3,0.1,3.1,0,5.3c-0.2,3.4-0.8,6.1-1.8,10.2c-0.8,3.5-2,7.7-3.4,12.6
		c7.6-8.7,15.3-17.5,22.9-26.2c-2.5,0.2-4.4-0.2-5.6-0.5c-1.9-0.6-2.4-1.2-6.1-2.6c-3.2-1.3-4.3-1.4-5.1-0.9
		C710.4,40.9,710.2,41.8,710.1,42.5z"/>
	<path class="st25" d="M807.6,205.2c-4.1-3.2-7.9-4.2-10-4.6c-13.1-2.4-23.2,8.2-24.2,9.4c-2.2,2.3-3.2,4.3-5,7.6
		c-1.8,3.3-7.3,14.1-7.8,29.5c-0.2,4.7,0.1,11.4,2,19.4c1.8,2.9,5.3,7.4,11.3,10.3c9.8,4.7,22.2,2.7,32.2-4.9
		c2.1-1.4,4.9-3.5,7.6-6.7c13.2-16,5.6-39.1,4.6-42.2C816.7,218.9,813.8,212.2,807.6,205.2z"/>
	<path class="st26" d="M788.3,65.9c-6.6-7.1-32.9-0.3-44.2,17.1c-6.4,9.9-9.4,25.4-3.2,30c4.8,3.6,14.4,0.1,19.8-5.3
		c4-4.1,7.8-11.7,5.2-16c-1.5-2.6-6.6-6.1-6.7-7.6c0-0.5,0.2-0.9,0.2-0.9c0,0,0.4-0.5,1.1-0.7c1.5-0.3,3,5.8,6.1,7.9
		c4.5,3.2,15-0.3,19.9-7.7C789.8,78.1,791.9,69.8,788.3,65.9z"/>
	<path d="M760.7,68.2c0.9,2.1,3.1,7.9,0.5,12.7c-0.2,0.4-0.5,0.8-0.8,1.2c-0.8,0.7-1.6,1.1-2.3,1.3c-5.2,1.9-10.7-3-11.1-3.5
		c0.4-0.9,1-2.1,1.9-3.4c2.8-4,6.3-6.1,8.1-7C757.9,69.1,759.1,68.6,760.7,68.2z"/>
	<path class="st25" d="M743.5,38.5c-7.8,4.6-15.8,9.7-23.9,15.3c-2,1.4-4,2.8-6,4.2c3.2-3.8,7.1-9.3,10.2-16.6c2-4.8,3.2-9.2,4-12.9
		c1.9-0.2,3.3,0.2,4.2,0.6c3.3,1.5,3.7,4.6,7.2,7.2C740.9,37.6,742.5,38.2,743.5,38.5z"/>
	<g>
		<path class="st21" d="M734.5,75.6c1.5,0.9,2.6,3.1,1.7,4.3c-0.8,1.2-3,1.2-4.4,0.3c-1.6-1.1-2.2-3.6-1.2-4.7
			C731.6,74.6,733.4,74.9,734.5,75.6z"/>
	</g>
	<g>
		<path class="st21" d="M757,54.9c1.5,0.9,2.6,3.1,1.7,4.3c-0.8,1.2-3,1.2-4.4,0.3c-1.6-1.1-2.2-3.6-1.2-4.7
			C754,53.9,755.9,54.2,757,54.9z"/>
	</g>
	
		<linearGradient id="SVGID_00000004522440304650610240000013383858830106425260_" gradientUnits="userSpaceOnUse" x1="919.1956" y1="247.3862" x2="901.4421" y2="234.441" gradientTransform="matrix(0.866 -0.5 0.5 0.866 -22.3202 431.4651)">
		<stop  offset="2.044258e-02" style="stop-color:#FF5F99"/>
		<stop  offset="0.234" style="stop-color:#FF649C"/>
		<stop  offset="0.4936" style="stop-color:#FF73A6"/>
		<stop  offset="0.5844" style="stop-color:#FF7AAB"/>
		<stop  offset="1" style="stop-color:#FF87B3"/>
	</linearGradient>
	<path style="fill:url(#SVGID_00000004522440304650610240000013383858830106425260_);" d="M896.2,169.6c-2.1-1.5-5.4-1-6.5-0.8
		c-2.8,0.4-4.7,1.7-6,2.7c-0.9,0.6-4.5,3.3-6.6,8.4c-0.7,1.7-2.4,5.7-1.4,10.7c0.9,4.4,4.2,10.9,8.6,11c4.1,0.1,6.9-5.1,9.2-9.1
		C897.7,184.9,900.7,172.9,896.2,169.6z"/>
	<path class="st28" d="M883.5,164.8c0.5,1.3-0.2,2.8-1,3.6c-1.5,1.6-4.6,2-5.9,0.4c-1.2-1.5-0.5-4.3,1.4-5.4
		C880,162.2,882.7,163,883.5,164.8z"/>
	<path class="st28" d="M870.6,176.8c1.7,1.8,0.7,5.6-1.7,6.3c-1.5,0.4-3.5-0.3-4.3-2.1c-0.7-1.6-0.2-3.5,1.2-4.5
		C867.4,175.3,869.5,175.7,870.6,176.8z"/>
	<path class="st28" d="M871.5,196.8c0.8,1.4,1.1,3.7-0.3,4.7c-1.4,1-3.6,0.2-4.5-1.2c-1.3-1.9-0.2-4.9,1.4-5.4
		C869.4,194.6,870.8,195.7,871.5,196.8z"/>
	
		<linearGradient id="SVGID_00000134228246253246126740000013775676071433545870_" gradientUnits="userSpaceOnUse" x1="800.185" y1="268.8191" x2="772.4479" y2="248.5941" gradientTransform="matrix(0.866 -0.5 0.5 0.866 -22.3202 431.4651)">
		<stop  offset="2.044258e-02" style="stop-color:#FF5F99"/>
		<stop  offset="0.234" style="stop-color:#FF649C"/>
		<stop  offset="0.4936" style="stop-color:#FF73A6"/>
		<stop  offset="0.5844" style="stop-color:#FF7AAB"/>
		<stop  offset="1" style="stop-color:#FF87B3"/>
	</linearGradient>
	<path style="fill:url(#SVGID_00000134228246253246126740000013775676071433545870_);" d="M804.9,265.3c0.5-2.5-1.3-5.3-2-6.3
		c-1.5-2.4-3.5-3.5-5-4.4c-1-0.6-4.8-2.7-10.3-2.6c-1.8,0-6.2,0.1-10.4,3.1c-3.7,2.6-8.2,8.3-6.5,12.4c1.6,3.7,7.5,4.3,12.1,4.7
		C791.6,273,803.8,270.8,804.9,265.3z"/>
	<path class="st28" d="M804,254.1c-1,1-2.6,1-3.7,0.6c-2.1-0.7-3.7-3.4-2.7-5.2c0.9-1.7,3.7-2.2,5.5-0.9
		C804.9,249.9,805.3,252.8,804,254.1z"/>
	<path class="st28" d="M789,248.1c-0.9,2.3-4.8,2.9-6.4,1c-1-1.2-1.1-3.3,0.2-4.8c1.2-1.3,3.1-1.6,4.6-0.7
		C789,244.6,789.6,246.7,789,248.1z"/>
	<path class="st28" d="M772.6,257.1c-0.9,1.3-3,2.5-4.5,1.7c-1.4-0.8-1.6-3.2-0.7-4.6c1.2-1.9,4.4-2.2,5.5-0.9
		C773.7,254.2,773.3,256,772.6,257.1z"/>
	<path class="st25" d="M705.2,89.5c0.9,3.8,1.8,4.4,1.3,6.1c-1.7,5.3-12.9,8.7-20.1,4.8c-3.1-1.7-4.8-4.4-5.7-5.9
		c-3.2-5.3-3-10.7-2.8-12.8c-0.2-2.9-0.1-8.2,2.7-13.8c0.7-1.4,2.2-4.2,5.2-6.8c1.1-0.9,3.1-2.6,6.3-3.6c0.8-0.2,3.2-0.9,6.5-0.7
		c1.7,0.1,7.7,0.6,9.1,3.9c0.8,1.7-0.2,3.2-1.1,6C704,73.9,703.6,82.8,705.2,89.5z"/>
	
		<linearGradient id="SVGID_00000132056616213297717340000010862885242306581426_" gradientUnits="userSpaceOnUse" x1="802.2682" y1="61.6064" x2="794.9809" y2="56.2927" gradientTransform="matrix(0.866 -0.5 0.5 0.866 -22.3202 431.4651)">
		<stop  offset="2.044258e-02" style="stop-color:#FF5F99"/>
		<stop  offset="0.234" style="stop-color:#FF649C"/>
		<stop  offset="0.4936" style="stop-color:#FF73A6"/>
		<stop  offset="0.5844" style="stop-color:#FF7AAB"/>
		<stop  offset="1" style="stop-color:#FF87B3"/>
	</linearGradient>
	<path style="fill:url(#SVGID_00000132056616213297717340000010862885242306581426_);" d="M704.4,80.1c-0.1,1.2-0.3,3.2,0,5.3
		c0.1,0.9,0.3,1.6,0.4,2c-0.4,0.8-1.4,2.6-3.3,3.5c-3.3,1.5-7.5-0.3-9.5-3.3c-2.3-3.4-1.8-8.4,1.3-11c2.6-2.2,6-1.7,6.7-1.6
		c0.6,0.1,3.9,0.6,4.6,2.7C704.7,78.2,704.5,78.3,704.4,80.1z"/>
	
		<linearGradient id="SVGID_00000018221745265188372280000017960704478766905252_" gradientUnits="userSpaceOnUse" x1="866.3476" y1="-0.8688" x2="870.4061" y2="-6.2507" gradientTransform="matrix(0.861 -0.5086 0.5086 0.861 16.9506 475.8149)">
		<stop  offset="0.1534" style="stop-color:#FF5F99"/>
		<stop  offset="0.3164" style="stop-color:#FF669E"/>
		<stop  offset="0.555" style="stop-color:#FF7AAB"/>
		<stop  offset="1" style="stop-color:#FF87B3"/>
	</linearGradient>
	<path style="fill:url(#SVGID_00000018221745265188372280000017960704478766905252_);" d="M767.7,29c1.6,2.6,0.3,6.2-1.6,7.1
		c-0.9,0.4-1.3-0.1-4.5-0.4c-3.1-0.4-3.7,0-4.2-0.6c-1.3-1.4-0.4-6.3,3-7.9C762.8,26.1,766.2,26.5,767.7,29z"/>
	<path class="st32" d="M747.2,199.2c-8.2-11.8-9.5-24.7-8.9-24.9c0.3-0.1,1.1,2.7,4.5,9.2c1.9,3.5,3.5,6.2,4.4,7.7
		c1.9,3,3.1,5,5,7.3c1.6,2,4.1,4.7,7.5,7.5c-1.3,1-2.5,2-3.8,3C753.5,206.9,750.3,203.7,747.2,199.2z"/>
	<path class="st32" d="M836.8,111.2c2.8,2.3,5.6,4.6,8.8,8.3c2.9,3.4,5,6.6,6.5,9.2c-0.3,1.1-0.6,2.2-0.9,3.3
		c-1.3-2.5-2.8-5.3-4.8-8.3c-2.1-3.2-4.3-5.9-6.3-8.2c-2.8-3.1-7.1-7.1-13.2-10.5c-6.6-3.7-12.6-5.1-12.5-5.4
		c0.1-0.2,5,0.7,10.6,3.3C829.6,105.3,832.7,107.8,836.8,111.2z"/>
	<path class="st32" d="M761.2,136.4c-12,3.9-23,0.4-22.9-0.2c0-0.5,10.9,2.5,23.1-2.3c7.3-2.9,12.1-7.3,17.9-12.7
		c9.6-8.9,14-16.4,14.3-16.1c0.4,0.3-5.4,11.6-16.7,21.5C772.4,130.4,768.1,134.2,761.2,136.4z"/>
	<path class="st33" d="M815.6,206.9c3,0.3,5.5-1.5,6-1.9c0.6-0.4,2.3-1.8,3.1-4.2c0.6-1.6,0.5-3.1,0.3-4.9c-0.1-1.8-0.4-1.9-0.5-3.6
		c-0.2-2.6,0.1-4.9,0.3-4.9c0.2,0,0,1.5,0.5,3.6c0.2,0.9,1.2,4.2,4.1,7.1c0.6,0.6,1.2,1.1,1.6,1.4c-2.9,3.1-6.8,6.7-12.1,9.8
		c-2,1.2-4,2.1-5.8,2.9c-0.7-1.2-1.8-2.7-3.3-4.4c-4.5-4.7-9.4-6.1-9.3-6.5c0.2-0.4,5.6,0.1,10.6,3.3
		C812.9,205.8,813.8,206.7,815.6,206.9z"/>
</g>
<g id="poop_bear">
	<path class="st34" d="M1284.5,776.9c0.1-2.6,2.1-3,3.4-7.8c0.7-2.5,0.6-3.9,1.4-4.1c1.2-0.3,3,2.9,4.1,4.7c1.8,3.2,2.7,4.9,2.7,7.1
		c0,3.1-1.9,7.4-4.7,7.8C1288,785.1,1284.3,780.6,1284.5,776.9z"/>
	<path class="st25" d="M1136.1,878.2c18.2-5.3,25.4-36.8,15-47.7c-6.9-7.2-20.9-4.5-30.6-2.4c-7.1,1.5-21.8,4-24.4,12.9
		c-1.1,3.7,0.2,7.7,1.4,11.5c0.1,0.3,2,6.3,6.1,11.5C1109.2,871,1123.1,882,1136.1,878.2z"/>
	<path class="st25" d="M1252.1,862c0.1-9.4-6.7-16.1-11-20.4c-6.2-6.1-12.6-8.6-14.9-9.5c-4.4-1.6-17.9-6.5-27.8,0.7
		c-6.8,4.9-8.3,13-8.8,15.6c-3,15.8,6.4,37.4,23.7,41.3c12.8,2.9,23.7-5.2,25.7-6.8C1242.2,880.6,1252,873.3,1252.1,862z"/>
	<path class="st25" d="M1243.8,788.1c0-2.8-0.5-6.3-2.7-9.5c-1.5-2.2-2.9-3-2.7-3.4c0.5-0.7,7.7,1.3,11.5,6.8
		c0.8,1.2,1.6,2.4,2.5,3.8c0.6,1,2.3,3.7,3.5,6.3c2.7,5.6,5.2,10.7,3.4,15.6c-0.5,1.3-1.3,2.7-2.7,4.1c-5.9,2.7-11.7,5.4-17.6,8.1
		c0.6-1.2,1.3-2.8,2-4.7c0.2-0.6,1.1-3.2,2-7.5c0.6-2.9,1.2-5.7,1.4-9.5C1244.6,795.7,1244.5,792.2,1243.8,788.1z"/>
	<path class="st25" d="M1180.1,731.9c0,0-17,2.4-39.3,10.2c0,0-15,5.2-24.7,15.2c-1.6,1.7-3.6,4.1-4.1,7.5c-0.5,3.7,0.8,6.5,1.4,7.5
		c2.3,4.3,3.5,8.1,7.5,14.9c1.7,2.9,2.4,3.9,3,3.8c1.3-0.2,0.9-4.7,2.7-10.8c0.8-2.8,1.7-4.7,3.4-8.1c3.7-7.7,8.5-14.3,12.2-19
		c3.8-3.4,7.7-6.8,11.5-10.2c1.9-1.4,4.4-3.1,7.5-4.7C1171.3,732.6,1180.1,731.9,1180.1,731.9z"/>
	<path class="st25" d="M1296,681.7c2.2,0.5,2.7,1,2.7,1.4c0,1.1-4.4,1.2-8.1,4.1c-2.1,1.7-3.3,3.7-4.1,5.4
		c-2.1-2.8-5.6-6.8-10.8-10.2c-7.9-5.1-15.5-6.4-19.6-6.8c1.8-0.4,4.6-0.8,8.1-0.7c8,0.3,11.8,3.4,21,5.4
		C1287.6,680.9,1291.3,681.6,1296,681.7z"/>
	<path class="st25" d="M1285.1,690.6c3.2,2.9,6.1,4.5,8.1,5.4c3.1,1.4,6.2,2.1,11.5,4.7c2.2,1.1,4.2,2.2,4.1,3.4
		c-0.1,0.6-0.7,1.1-1.4,1.4c-0.8-0.3-6.1-2.3-10.8,0.7c-1.7,1-2.7,2.4-3.4,3.4c-0.5-3-1.5-6.7-3.4-10.8
		C1288.4,695.4,1286.7,692.7,1285.1,690.6z"/>
	<path class="st35" d="M1289.9,680.4"/>
	<path class="st25" d="M1244.7,795.3c0.1,22-13.4,37.6-17.6,42c-16.9,17.9-38.4,19.8-45.4,20.3c-6.1,0.4-39.7,2.9-54.9-19.6
		c-11.8-17.5-5.4-39.6-1.4-53.5c2.3-7.8,6-20.2,16.9-31.8c3.6-3.8,18.8-20.1,40-21C1213.5,730.2,1244.5,762.2,1244.7,795.3z"/>
	<path class="st25" d="M1281.8,687.2c-15.5-15.1-38.9-12.2-49.5-10.8c-8,1-18,2.3-28.5,9.5c-19.1,13.2-22.5,34.6-23,37.9
		c-0.7,5.1-4.3,29.6,12.9,44.7c15.4,13.6,36.3,9.6,40,8.8c14.1-3,23.8-14.2,43.4-36.6c14-16.1,16.1-22.5,16.3-28.5
		C1293.5,698.7,1283.6,688.9,1281.8,687.2z"/>
	<path d="M1260.7,715.5c0.4-1.2-0.3-2.6-1-3.3c-2.1-2.3-6.9-1.6-9.9,0c-3.5,1.9-6.5,6.1-5.4,8.2c0.8,1.5,3.7,1.6,5.6,1.2
		c2-0.5,2-1.4,5-3C1258.5,716.8,1260.2,717,1260.7,715.5z"/>
	<path d="M1268.9,729.8c0.1-1.9-2.6-3.3-2.7-3.4c-2.3-1.2-4.7-0.4-6.1,0c-1.1,0.3-4.5,1.4-6.1,4.7c-0.4,0.7-1.6,3.3-0.6,4.5
		c1.5,1.9,7.1-0.5,10-1.8C1266.5,732.6,1268.8,731.6,1268.9,729.8z"/>
	
		<linearGradient id="SVGID_00000088842828807140549900000002459284446926750339_" gradientUnits="userSpaceOnUse" x1="1111.326" y1="866.0035" x2="1113.9058" y2="859.5099">
		<stop  offset="0.4361" style="stop-color:#FF7AAB"/>
		<stop  offset="1" style="stop-color:#FF87B3"/>
	</linearGradient>
	<path style="fill:url(#SVGID_00000088842828807140549900000002459284446926750339_);" d="M1125.3,874.8c-2.2,1.7-10.4-4.9-14.9-9.5
		c-6.1-6.1-11.5-14.3-10.2-15.6c0.6-0.6,4.5,1.9,12.2,6.8c7.2,4.6,9.2,6.1,10.8,8.8C1125.2,868.6,1126.8,873.6,1125.3,874.8z"/>
	<path class="st28" d="M1115.1,848.4c0,0.9-0.7,1.7-1.4,2c-1.8,0.8-4.8-1-4.7-2.7c0.1-0.9,1-1.8,2-2c1.3-0.3,2.3,0.4,2.7,0.7
		C1114.2,846.7,1115.1,847.3,1115.1,848.4z"/>
	<path class="st28" d="M1125.3,856.5c-0.1,1.5-2.2,2.9-4.1,2.7c-2.1-0.2-3.8-2.4-3.4-4.1c0.3-1.2,1.7-1.9,2.7-2
		C1122.8,852.8,1125.4,854.7,1125.3,856.5z"/>
	<path class="st28" d="M1136.1,866c-0.1-1.4-2.7-2.6-4.7-2c-0.2,0.1-1.7,0.5-2,1.7c-0.3,1.2,0.8,2.6,2,3
		C1133.5,869.5,1136.2,867.5,1136.1,866z"/>
	<path class="st25" d="M1258.7,676.3c-4.2,2.2-6.5-0.7-16.3-0.7c-11,0-13.9,3.6-16.9,1.4c-5.7-4.1-5-23.3,6.8-31.2
		c6.6-4.4,15.9-4.8,23-0.7c1.3,0.7,8.7,4.9,10.2,13.5C1266.7,665.3,1264.2,673.5,1258.7,676.3z"/>
	<path class="st25" d="M1270.9,748.8c0-1.4,1.4-3,4.1-6.1c8.2-9.4,8.3-9.6,8.8-10.2c5.5-7.1,4.7-10.2,7.5-10.8
		c4.3-0.9,10.1,5.9,12.2,12.2c0.5,1.6,2.8,8.3-0.7,14.9c-4.3,8.2-14.8,11.1-22.4,8.8C1276.2,756.3,1270.9,752.7,1270.9,748.8z"/>
	
		<linearGradient id="SVGID_00000139269488540298177190000016273828073306089127_" gradientUnits="userSpaceOnUse" x1="1244.3846" y1="674.7387" x2="1246.1226" y2="665.2842">
		<stop  offset="0" style="stop-color:#FF5F99"/>
		<stop  offset="0.4361" style="stop-color:#FF7AAB"/>
		<stop  offset="1" style="stop-color:#FF87B3"/>
	</linearGradient>
	<path style="fill:url(#SVGID_00000139269488540298177190000016273828073306089127_);" d="M1249.2,676.3c-1.1,0.5-1.7-0.6-4.7-0.7
		c-2.4-0.1-3,0.5-4.1,0c-1.7-0.8-2.3-3.5-2-5.4c0.4-3.2,3.5-5.8,6.8-6.1c0.5,0,3-0.3,4.7,1.4
		C1253.2,668.5,1251.7,675.3,1249.2,676.3z"/>
	
		<linearGradient id="SVGID_00000101788155399872680310000013491383017188818838_" gradientUnits="userSpaceOnUse" x1="1280.6238" y1="739.1429" x2="1288.549" y2="745.6082">
		<stop  offset="0" style="stop-color:#FF5F99"/>
		<stop  offset="0.4361" style="stop-color:#FF7AAB"/>
		<stop  offset="1" style="stop-color:#FF87B3"/>
	</linearGradient>
	<path style="fill:url(#SVGID_00000101788155399872680310000013491383017188818838_);" d="M1274.3,744.4c-0.1,3.3,3.9,7,8.1,7.1
		c4.9,0.2,8.6-4.7,9.5-8.8c0.7-3.4-0.1-8.3-3.4-10.2c-0.4-0.2-1.7-0.9-3.4-0.7c-2.2,0.3-3,2-6.8,6.8
		C1274.9,743,1274.3,743.2,1274.3,744.4z"/>
	<path class="st26" d="M1239,726.5c7.5,9.4,9.7,25.3,2,35.9c-4.4,6-13,11.7-20,9.8c-1-0.3-3.5-1-4.9-3.1c-2.4-3.7,1.4-6.8,1.2-15.7
		c-0.1-4.2-1-7.5,0.7-8.7c0.6-0.4,2.7-1.4,4.9-2.3c0.1,0,2.3-0.9,4.5-2.5c0,0,1.5-1,1.2-1.5c0-0.1-0.3-0.3-0.7-0.6c0,0,0,0,0,0
		c-0.9-0.7-8.5,6-11.8,4.5c-0.8-0.4-1.1-1.1-1.5-1.9c-3.9-7.7-9.9-8.2-10.8-13.3c-0.5-3.2,1.2-5.9,1.5-6.3c4.2-6.2,16-5.5,23.6-2.2
		C1234.5,721.1,1237.9,725.1,1239,726.5z"/>
	<path class="st34" d="M1131.4,826.7c-1.1-1.3-3.1-1.1-17.6,2.7c-7.6,2-11.6,3.2-14.9,6.8c-0.2,0.2-3.4,3.8-2.7,4.7
		c0.4,0.5,1.7,0,2.2-0.1c7.2-2.2,16.1,3.1,18.8-0.1c1.3-1.7-0.6-3.4,0.8-5.2c2.4-3.1,9.6,1.2,12.9-2
		C1132.4,831.8,1132.7,828.4,1131.4,826.7z"/>
	<path class="st34" d="M1225.5,677c-5.4,1.2-16.2,4.5-26.4,13.5c-8.3,7.4-12.7,15.5-14.9,20.3c3.6,3.9,6,4.3,7.5,4.1
		c5.9-0.9,6.7-13.5,12.9-14.2c3.3-0.4,4.7,3,7.5,2c4-1.4,3.1-9.2,6.8-10.2c2.7-0.7,4.8,3.1,7.5,2c1.7-0.7,2.4-2.9,2.7-4.1
		C1230.6,684.6,1226.7,678.7,1225.5,677z"/>
	<path class="st34" d="M1189.6,764.4c-2.2-2.6-4.8-6.5-6.8-11.5c-3.5-8.8-3.2-16.7-2.7-21c-5.8,1.1-17.6,4.1-28.8,13.5
		c-8.1,6.8-12.7,14.2-15.2,19c8.3,1.3,10.7,4,11.5,6.1c2.6,6.7-9.3,14.7-6.1,23c0.2,0.6,1.3,3.5,4.1,4.7c3.7,1.7,6.6-1.4,8.8,0
		c3.7,2.3-1.9,12.8,2,16.3c2.8,2.4,9.9,1.2,12.2-2.7c3.9-6.7-8.5-18.3-4.7-23c2.3-2.9,7.9,0.2,10.8-3.4c2.5-3-0.3-6.9,1.4-11.5
		C1177.1,770.8,1180.3,767,1189.6,764.4z"/>
	<path class="st34" d="M1139.5,743.4c-2.2-1.7-7.3,1.5-14.2,6.1c-6.4,4.2-11.5,7.6-10.8,10.2c0.3,1.2,2.1,2.1,3.4,2
		c1.6-0.1,2.1-1.5,4.1-3.4c0.6-0.5,3.9-3.6,8.1-4.1c3.3-0.4,5,1.1,6.1,0c1.4-1.4-0.2-4.3,1.4-5.4c0.9-0.7,2,0,2.7-0.7
		C1141.1,747.2,1140.8,744.4,1139.5,743.4z"/>
	<path class="st34" d="M1228.9,843.7c0.3-0.5,0.4-1.5,0-2c-0.6-0.9-2.2-0.4-2.7-1.4c-0.2-0.4-0.3-1,0-1.4c1.1-1.2,6.2,2.9,8.1,1.4
		c0.6-0.5,0.8-1.5,0.7-2c-0.8-4.9-28.5-12-38.6,0c-6.2,7.4-4.9,20.9-2.7,21.7c0.8,0.3,1.4,0,1.4,0c0.8-0.5,0.4-1.7,1.4-2.7
		c0.1-0.1,0.8-0.8,1.4-0.7c0.7,0.2,0.5,1.6,1.4,2c0.5,0.3,1.1,0.1,1.4,0c2.6-0.8,2.4-8.9,6.8-12.9c2.2-2,4.8-2.3,7.5-2.7
		C1222.1,842,1227.6,845.6,1228.9,843.7z"/>
	<path d="M1228.9,738.7c-2.1-5,4.4-13.5,9.5-12.9c3.5,0.4,5.6,4.9,6.1,6.1c0.5,1,2.7,5.9,0.7,8.8
		C1242.2,744.8,1231.1,743.9,1228.9,738.7z"/>
	
		<linearGradient id="SVGID_00000008122677463185433030000017547564093917898916_" gradientUnits="userSpaceOnUse" x1="1232.2158" y1="877.397" x2="1229.1024" y2="872.6824">
		<stop  offset="0.4361" style="stop-color:#FF7AAB"/>
		<stop  offset="1" style="stop-color:#FF87B3"/>
	</linearGradient>
	<path style="fill:url(#SVGID_00000008122677463185433030000017547564093917898916_);" d="M1242.5,872.1c0.1-0.3,0.6-2.6-0.7-4.1
		c-2.2-2.5-8.1-0.2-10.2,0.7c-2,0.8-6.5,2.6-9.5,7.5c-0.9,1.4-3.3,5.3-2,6.8c1.4,1.7,6.3-0.7,14.9-4.7
		C1239.6,876.1,1241.8,874.6,1242.5,872.1z"/>
	<path class="st28" d="M1213.5,872.4c0.3,0.7,0,1.2-0.4,2.4c-0.5,1.2-0.7,1.8-1.3,2.1c-0.9,0.4-2.2-0.2-2.7-1
		c-1-1.6,0.6-4.6,2.4-4.7C1212.3,871.1,1213.2,871.6,1213.5,872.4z"/>
	<path class="st28" d="M1225.5,863.5c0,0.2-0.1,0.3-1.4,1.3c-1.6,1.2-1.9,1.2-2.1,1.2c-0.8,0-1.7-0.7-1.9-1.5
		c-0.4-1.4,1.2-3.3,2.9-3.2C1224.4,861.3,1225.7,862.6,1225.5,863.5z"/>
	<path class="st28" d="M1239.6,860.5c-0.3,0.4-0.7,0.2-2.1,0.3c-1.8,0.1-2.1,0.5-2.8,0.1c-0.6-0.3-1.1-0.9-1.1-1.6
		c0.1-1.2,2.2-2.3,3.8-2c0.3,0,1.3,0.2,1.9,1.1C1239.7,859,1240,860,1239.6,860.5z"/>
	<path class="st28" d="M1209.9,874.1"/>
	<path class="st32" d="M1121.2,787.3c0.9-2.2,2.4-5.5,4.7-9.4c1.6-2.8,3.8-6.2,4.1-6.1c0.2,0.1-0.7,1.9-2,5.4
		c-0.7,2-1.4,4.3-2.7,8.8c-0.6,2-1,3.6-1.4,4.7c-0.4-0.3-0.9-0.8-1.4-1.4C1121.9,788.6,1121.5,787.8,1121.2,787.3z"/>
	<path class="st32" d="M1239.1,819.9c1-2,2.4-5,3.4-8.8c2.1-7.9,1.6-14.2,2-14.2c0.3,0,1,4.2,0.7,8.8c-0.4,5.6-2,10-3.4,12.9
		C1240.9,819,1240,819.4,1239.1,819.9z"/>
	<path class="st33" d="M1159.1,852.6c2.4,2.1,11.4,1.8,12.8,1.8c8.2-0.2,10.1,0.4,11.5-1.4c0.8-0.9,0.4-1.3,2-4.7
		c0.9-2,1.6-3.4,2.7-4.7c0.9-1.1,2.5-2.8,5.4-4.1c-1.8,2.3-2.8,4.6-3.4,6.1c-1.1,2.9-1.3,5.3-1.4,6.8c-0.1,1.7-0.1,3.1,0,4.1
		c-4,0.7-8.5,1.2-13.5,1.4c-8.2,0.2-15.3-0.7-21-1.8c0-1.3-0.1-3.2-0.7-5.4c-1.5-6.2-5.1-9.9-4.7-10.2c0.4-0.3,4.7,2.9,7.5,8.1
		C1158,851.6,1158.1,851.7,1159.1,852.6z"/>
</g>
<g id="pee">
	<path class="st40" d="M884.1,589.1c-1.8-12.2-5.8-11.1-14.3-34.3c-17.6-48-10.3-80.5-18.6-82.1c-9.5-1.9-11.2,43-47.8,69.2
		c-22.5,16.1-37.2,10.3-59.3,31.4c-6.1,5.8-18.9,19.6-25.7,41c-2,6.3-15.9,50.3,7.9,73.9c23.3,23.2,65.7,9.6,75.7,6.4
		C850.1,679.3,890,629.9,884.1,589.1z"/>
	<path d="M811.3,595.9c-1.8,4.7-6.8,8.7-9.3,7.5c-2.4-1.2-1.7-7.1-1.4-9.3c0.3-2.6,1.1-8.8,5-10c1.5-0.5,3.1-0.1,4.3,0.7
		C813,587,812.6,592.5,811.3,595.9z"/>
	<path d="M829.6,587.7c-3.2,0.9-3.9,6.6-4,8c-0.5,4.5,0.8,10.7,3,11c3.3,0.4,9.8-12,6-17C833.5,588.2,831.3,587.2,829.6,587.7z"/>
	<path d="M822,624.4c0.9,1.1-13.9,21-21.4,17.5c-4.9-2.3-7-13-2.9-17.5c0.9-1,2.4-2.3,3.2-1.9c2.1,1-2.3,10.1,0.3,12.3
		C805.2,638,821.1,623.4,822,624.4z"/>
	<path class="st41" d="M870.5,569.1c22.4,27.4-2.1,68.3-9.3,77.1c-1.1,1.3-5.9,7.2-7.1,6.4c-0.3-0.2-0.9-1,2.1-9.3
		c2.4-6.5,3.5-9.8,6.4-15c5.3-9.7,12.2-40.8,0-56.4c-14.4-18.4-52.1-11.5-52.1-15.7c0-1.9,7.2-3.3,8.6-3.6
		C833.6,549.9,857,552.4,870.5,569.1z"/>
	<ellipse class="st21" cx="805.6" cy="592.7" rx="2" ry="3"/>
	<ellipse class="st21" cx="829.1" cy="596.7" rx="1.5" ry="3"/>
</g>
<g id="poop">
	<path class="st34" d="M1286.9,190.5c8.5,4.9,27.1,15.6,30.8,34.2c8.3,42-65.2,94.2-130.6,108.5c-13.5,3-64.6,14.1-84.5-9.8
		c-3.5-4.1-17.3-22.9-16.1-46.5c0-0.4,0-0.8,0.1-1.3c1.7-21.1,21.3-35.6,30.9-42.5C1146.8,211.9,1225.6,155.3,1286.9,190.5z"/>
	<path class="st34" d="M1270,193.3c0.5,6.8-2.2,14.9-13.2,26.2c-40,41.1-125.6,58.3-146,28.4c-11.6-17,1.1-43.1,4.2-49.3
		c19.5-38.4,68-52.3,104-44.2C1238.8,158.8,1268.7,173.1,1270,193.3z"/>
	<path class="st34" d="M1131.9,203.5c9.6,13.1,35.2,9.2,50.5,2.3c14-6.3,29.8-20.5,31.6-39.4c3.6-37.7-57.6-62-62.5-56.7
		c-2.9,3.1,13.6,15,10.2,30.2c-3.4,14.9-21.7,14.5-30,33.8C1131.1,174.8,1123.8,192.5,1131.9,203.5z"/>
	<path class="st42" d="M1112.7,250.5c9.9,12.3,27.6,12.6,37.8,12.8c3.5,0.1,14.1,0.1,32.6-5c44.2-12.1,71.3-36.5,75.8-41.9
		c0.5-0.6,3.4-4.1,3.8-3.8c0.3,0.2-0.9,2.6-1.3,3.4c-4.2,8.2-68.3,57.8-122.2,51.8c-18.5-2.1-26.8-9.7-29.1-11.9
		c-3.9-3.8-6.2-7.8-7.5-10.5c0.4-0.6,1-1.4,1.8-2.2c1.2-1.1,2.4-1.8,3.2-2.1C1108.4,243.4,1109.9,247,1112.7,250.5z"/>
	<path class="st42" d="M1212.6,174c0.3,0.2-3.9,13.5-14.9,24.1c-20.3,19.6-59,25.3-72.5,9.1c-2.4-2.9-5.1-7.8-5.3-16.4
		c1-2,2.4-4.4,4.5-6.9c1.9-2.2,3.7-3.9,5.3-5.2c-0.8,2.5-1.9,6.7-1.6,11.9c0.4,5.7,2.3,10.6,3.8,12.9c7.7,12,40.8,12,61.5-4.1
		C1206.9,188.9,1212.2,173.8,1212.6,174z"/>
	<path class="st42" d="M1204.5,199.3"/>
	<path class="st42" d="M1183.8,276.8"/>
	<path d="M1133.3,253c2.3,3.7,7.2,7.1,10.3,5.8c1.1-0.5,1.8-1.5,2.4-2.5c0.6-0.9,1.8-3.2,1.4-7.6c-0.2-2.3-0.8-10.8-7.1-14.2
		c-1.3-0.7-2.5-1.4-3.9-1C1131.9,234.7,1128.9,246,1133.3,253z"/>
	<path d="M1164.6,250.6c2.3,3.7,7.2,7.1,10.3,5.8c1.1-0.5,1.8-1.5,2.4-2.5c0.6-0.9,1.8-3.2,1.4-7.6c-0.2-2.3-0.8-10.8-7.1-14.2
		c-1.3-0.7-2.5-1.4-3.9-1C1163.2,232.3,1160.2,243.5,1164.6,250.6z"/>
	<path d="M1188.9,291.2c0.9-0.1,5.9,18.1,0,21.6c-6.4,3.9-21.4-12.4-21.1-12.8c0.2-0.3,11.7,11.3,17.6,8.1
		C1190.9,305.2,1188.2,291.3,1188.9,291.2z"/>
	<ellipse transform="matrix(0.9112 -0.4119 0.4119 0.9112 2.7906 502.9105)" class="st21" cx="1168" cy="245" rx="2.5" ry="5.1"/>
	
		<ellipse transform="matrix(0.9112 -0.4119 0.4119 0.9112 -0.8705 490.3152)" class="st21" cx="1137" cy="247.2" rx="2.5" ry="5.1"/>
</g>
<g id="buttons">
	<path class="st43" d="M1821,1039.4h-91.7c-6.6,0-12-5.4-12-12V830.2c0-6.6,5.4-12,12-12h91.7c6.6,0,12,5.4,12,12v197.3
		C1833,1034,1827.6,1039.4,1821,1039.4z"/>
	<path class="st44" d="M2066.9,1407h-66.3c-6.6,0-12-5.4-12-12v-66.3c0-6.6,5.4-12,12-12h66.3c6.6,0,12,5.4,12,12v66.3
		C2078.9,1401.6,2073.5,1407,2066.9,1407z"/>
	<path d="M2060.8,1368.8l-41.4,23.9c-4.3,2.5-9.7-0.6-9.7-5.6v-47.8c0-5,5.4-8.1,9.7-5.6l41.4,23.9
		C2065.1,1360.1,2065.1,1366.3,2060.8,1368.8z"/>
	<path class="st44" d="M1806.2,1026.1h-66.3c-6.6,0-12-5.4-12-12v-66.3c0-6.6,5.4-12,12-12h66.3c6.6,0,12,5.4,12,12v66.3
		C1818.2,1020.7,1812.8,1026.1,1806.2,1026.1z"/>
	<path d="M1777.1,952.8v14.3c0,4.1-4.5,6.7-8,4.6l-12.4-7.1c-3.6-2.1-3.6-7.2,0-9.3l12.4-7.1
		C1772.7,946.1,1777.1,948.6,1777.1,952.8z"/>
	<path d="M1777.1,954.1c3.5,0.3,10.3,1.5,16.3,6.4c10.5,8.7,15.4,26.2,6.9,40.1c-8.6,14.2-27.5,18.4-41.6,10.9
		c-12.5-6.7-19.2-21.5-15.8-36.1c3.6,0.3,7.3,0.7,10.9,1c-2.8,10.1,1.8,20.5,10.4,24.7c10.1,5,22.7,0.3,27.2-8.9
		c3.3-6.6,2.8-16.3-3.5-21.8c-4-3.5-8.9-3.9-10.9-4C1777.1,962.3,1777.1,958.2,1777.1,954.1z"/>
	<path class="st44" d="M2163.9,1247.9h-99c-6.6,0-12-5.4-12-12v-99c0-6.6,5.4-12,12-12h99c6.6,0,12,5.4,12,12v99
		C2175.9,1242.5,2170.5,1247.9,2163.9,1247.9z"/>
	<path d="M2104.5,1192.4c0.9-12.9-7.2-21.3-8.5-22.6c-2.7-0.5-8.8-1.3-15.5,1.4c-2.2,0.9-7.4,3-11.3,8.5c-1.3,1.9-4.5,6.4-4.2,12.7
		c0.2,5.9,3.2,10,4.2,11.3c8.1,10.6,24.4,8.6,25.4,8.5C2096.2,1210.8,2103.7,1203.9,2104.5,1192.4z"/>
	<path d="M2087.6,1192.4c-0.4-21.5,19.1-40.2,42.3-38.1c0,11.8,0,23.5,0,35.3c0,13.2,0,26.3,0,39.5
		C2107.3,1231.2,2088,1213.4,2087.6,1192.4z"/>
	<ellipse transform="matrix(0.7071 -0.7071 0.7071 0.7071 -191.6002 1858.6924)" cx="2147.8" cy="1160.6" rx="11" ry="4.9"/>
	<ellipse transform="matrix(0.9992 -4.120594e-02 4.120594e-02 0.9992 -47.2673 89.5622)" cx="2149" cy="1191.4" rx="11" ry="4.9"/>
	<ellipse transform="matrix(0.7071 -0.7071 0.7071 0.7071 -234.0415 1876.2722)" cx="2147.8" cy="1220.6" rx="4.9" ry="11"/>
	<path class="st44" d="M1806.2,922h-66.5c-6.6,0-12-5.4-12-12v-66.5c0-6.6,5.4-12,12-12h66.5c6.6,0,12,5.4,12,12V910
		C1818.2,916.6,1812.8,922,1806.2,922z"/>
	<path class="st45" d="M1765.4,881.2c0.7-9.4-5.3-15.5-6.2-16.5c-2-0.4-6.4-0.9-11.3,1c-1.6,0.6-5.4,2.2-8.2,6.2
		c-1,1.4-3.3,4.7-3.1,9.3c0.2,4.3,2.4,7.3,3.1,8.2c5.9,7.8,17.8,6.3,18.5,6.2C1759.3,894.6,1764.8,889.6,1765.4,881.2z"/>
	<path class="st45" d="M1753.1,881.2c-0.3-15.7,14-29.3,30.9-27.8c0,8.6,0,17.2,0,25.7c0,9.6,0,19.2,0,28.8
		C1767.4,909.5,1753.3,896.5,1753.1,881.2z"/>
	<ellipse transform="matrix(0.7071 -0.7071 0.7071 0.7071 -80.3705 1521.986)" class="st45" cx="1797" cy="858" rx="8" ry="3.6"/>
	
		<ellipse transform="matrix(0.9992 -4.120594e-02 4.120594e-02 0.9992 -34.7528 74.8509)" class="st45" cx="1798.4" cy="880.5" rx="8.1" ry="3.6"/>
	
		<ellipse transform="matrix(0.7071 -0.7071 0.7071 0.7071 -111.3174 1535.2313)" class="st45" cx="1797.5" cy="902" rx="3.6" ry="8.1"/>
</g>
<g id="Timer">
	<path class="st43" d="M446.1,1018.5h-385c-6.6,0-12-5.4-12-12v-51c0-6.6,5.4-12,12-12h385c6.6,0,12,5.4,12,12v51
		C458.1,1013.1,452.7,1018.5,446.1,1018.5z"/>
	<path class="st44" d="M67.4,1006.5h-1.8c-1.9,0-3.5-1.6-3.5-3.5V959c0-1.9,1.6-3.5,3.5-3.5h1.8c1.9,0,3.5,1.6,3.5,3.5v43.9
		C70.9,1004.9,69.3,1006.5,67.4,1006.5z"/>
	<path class="st46" d="M446.1,949c0-0.8-5.1-1.5-11.4-1.5H71.4c-6.2,0-11.4,0.7-11.4,1.5s5.1,1.5,11.4,1.5h363.3
		C441,950.5,446.1,949.8,446.1,949z"/>
</g>
<g id="points">
	<path class="st44" d="M132.8,920.6H63.4c-6.6,0-12-5.4-12-12v-69.3c0-6.6,5.4-12,12-12h69.3c6.6,0,12,5.4,12,12v69.3
		C144.8,915.2,139.4,920.6,132.8,920.6z"/>
	<text transform="matrix(1 0 0 1 73.2164 905.0922)" class="st47 st48">2</text>
</g>
<g id="Layer_10">
</g>
</svg>
