<svg id="Master" xmlns="http://www.w3.org/2000/svg" xmlns:xlink="http://www.w3.org/1999/xlink" width="1900" height="1080" viewBox="0 0 1900 1080"><defs><style>.cls-1{fill:none;}.cls-2{clip-path:url(#clip-path);}.cls-3{clip-path:url(#clip-path-2);}.cls-4{fill:#e3f2fd;}.cls-5{fill:#a9d6e5;}.cls-6{fill:#bbdefb;}.cls-7{clip-path:url(#clip-path-3);}</style><clipPath id="clip-path"><rect class="cls-1" width="1900" height="1080"/></clipPath><clipPath id="clip-path-2"><rect class="cls-1" x="-279.45" y="-188.61" width="2811.14" height="792"/></clipPath><clipPath id="clip-path-3"><polygon class="cls-1" points="4025 1239 -2086.92 1239 -436.73 603.71 2374.81 603.71 4025 1239"/></clipPath></defs><g id="Layer_1" data-name="Layer 1"><rect class="cls-1" x="23" y="3" width="1877" height="1077"/><g class="cls-2"><g class="cls-3"><rect class="cls-1" x="1347" y="-188.61" width="813.23" height="813.23"/><rect class="cls-4" x="1347" y="-188.61" width="813.23" height="813.23"/><rect class="cls-5" x="1824.59" y="448.17" width="143.28" height="143.28" rx="41.27"/><rect class="cls-6" x="1665.39" y="448.17" width="143.28" height="143.28" rx="41.27"/><rect class="cls-5" x="1506.2" y="448.17" width="143.28" height="143.28" rx="41.27"/><rect class="cls-6" x="1347" y="448.17" width="143.28" height="143.28" rx="41.27"/><rect class="cls-6" x="1824.59" y="288.97" width="143.28" height="143.28" rx="41.27"/><rect class="cls-5" x="1665.39" y="288.97" width="143.28" height="143.28" rx="41.27"/><rect class="cls-6" x="1506.2" y="288.97" width="143.28" height="143.28" rx="41.27"/><rect class="cls-5" x="1347" y="288.97" width="143.28" height="143.28" rx="41.27"/><rect class="cls-5" x="1824.59" y="129.78" width="143.28" height="143.28" rx="41.27"/><rect class="cls-6" x="1665.39" y="129.78" width="143.28" height="143.28" rx="41.27"/><rect class="cls-5" x="1506.2" y="129.78" width="143.28" height="143.28" rx="41.27"/><rect class="cls-6" x="1347" y="129.78" width="143.28" height="143.28" rx="41.27"/><rect class="cls-6" x="1824.59" y="-29.42" width="143.28" height="143.28" rx="41.27"/><rect class="cls-5" x="1665.39" y="-29.42" width="143.28" height="143.28" rx="41.27"/><rect class="cls-6" x="1506.2" y="-29.42" width="143.28" height="143.28" rx="41.27"/><rect class="cls-5" x="1347" y="-29.42" width="143.28" height="143.28" rx="41.27"/><rect class="cls-1" x="533.77" y="-188.61" width="813.23" height="813.23"/><rect class="cls-4" x="533.77" y="-188.61" width="813.23" height="813.23"/><rect class="cls-6" x="1170.56" y="448.17" width="143.28" height="143.28" rx="41.27"/><rect class="cls-5" x="1011.36" y="448.17" width="143.28" height="143.28" rx="41.27"/><rect class="cls-6" x="852.17" y="448.17" width="143.28" height="143.28" rx="41.27"/><rect class="cls-5" x="692.97" y="448.17" width="143.28" height="143.28" rx="41.27"/><rect class="cls-6" x="533.77" y="448.17" width="143.28" height="143.28" rx="41.27"/><rect class="cls-5" x="1170.56" y="288.97" width="143.28" height="143.28" rx="41.27"/><rect class="cls-6" x="1011.36" y="288.97" width="143.28" height="143.28" rx="41.27"/><rect class="cls-5" x="852.17" y="288.97" width="143.28" height="143.28" rx="41.27"/><rect class="cls-6" x="692.97" y="288.97" width="143.28" height="143.28" rx="41.27"/><rect class="cls-5" x="533.77" y="288.97" width="143.28" height="143.28" rx="41.27"/><rect class="cls-6" x="1170.56" y="129.78" width="143.28" height="143.28" rx="41.27"/><rect class="cls-5" x="1011.36" y="129.78" width="143.28" height="143.28" rx="41.27"/><rect class="cls-6" x="852.17" y="129.78" width="143.28" height="143.28" rx="41.27"/><rect class="cls-5" x="692.97" y="129.78" width="143.28" height="143.28" rx="41.27"/><rect class="cls-6" x="533.77" y="129.78" width="143.28" height="143.28" rx="41.27"/><rect class="cls-5" x="1170.56" y="-29.42" width="143.28" height="143.28" rx="41.27"/><rect class="cls-6" x="1011.36" y="-29.42" width="143.28" height="143.28" rx="41.27"/><rect class="cls-5" x="852.17" y="-29.42" width="143.28" height="143.28" rx="41.27"/><rect class="cls-6" x="692.97" y="-29.42" width="143.28" height="143.28" rx="41.27"/><rect class="cls-5" x="533.77" y="-29.42" width="143.28" height="143.28" rx="41.27"/><rect class="cls-1" x="-279.45" y="-188.61" width="813.23" height="813.23"/><rect class="cls-4" x="-279.45" y="-188.61" width="813.23" height="813.23"/><rect class="cls-6" x="357.33" y="448.17" width="143.28" height="143.28" rx="41.27"/><rect class="cls-5" x="198.14" y="448.17" width="143.28" height="143.28" rx="41.27"/><rect class="cls-6" x="38.94" y="448.17" width="143.28" height="143.28" rx="41.27"/><rect class="cls-5" x="-120.26" y="448.17" width="143.28" height="143.28" rx="41.27"/><rect class="cls-5" x="357.33" y="288.97" width="143.28" height="143.28" rx="41.27"/><rect class="cls-6" x="198.14" y="288.97" width="143.28" height="143.28" rx="41.27"/><rect class="cls-5" x="38.94" y="288.97" width="143.28" height="143.28" rx="41.27"/><rect class="cls-6" x="-120.26" y="288.97" width="143.28" height="143.28" rx="41.27"/><rect class="cls-6" x="357.33" y="129.78" width="143.28" height="143.28" rx="41.27"/><rect class="cls-5" x="198.14" y="129.78" width="143.28" height="143.28" rx="41.27"/><rect class="cls-6" x="38.94" y="129.78" width="143.28" height="143.28" rx="41.27"/><rect class="cls-5" x="-120.26" y="129.78" width="143.28" height="143.28" rx="41.27"/><rect class="cls-5" x="357.33" y="-29.42" width="143.28" height="143.28" rx="41.27"/><rect class="cls-6" x="198.14" y="-29.42" width="143.28" height="143.28" rx="41.27"/><rect class="cls-5" x="38.94" y="-29.42" width="143.28" height="143.28" rx="41.27"/><rect class="cls-6" x="-120.26" y="-29.42" width="143.28" height="143.28" rx="41.27"/></g><g class="cls-7"><polygon class="cls-1" points="1189.96 603.71 2003.3 603.71 3290.42 1277.21 1464.88 1277.21 1189.96 603.71"/><polygon class="cls-4" points="1189.96 603.71 2003.3 603.71 3290.42 1277.21 1464.88 1277.21 1189.96 603.71"/><path class="cls-5" d="M1999,1218.54H1869.2c-48.69,0-109.44-30.29-134.2-65.54l-59-84c-19.86-28.27-2.5-50,37.78-50h107.37c40.28,0,94,21.77,121.35,50l81.23,84C2057.83,1188.25,2047.65,1218.54,1999,1218.54Z"/><path class="cls-6" d="M1658.86,1218.54H1529.1c-48.7,0-100.53-30.29-114.92-65.54l-34.29-84c-11.54-28.27,12.23-50,52.52-50h107.36c40.28,0,87.6,21.77,106.62,50l56.53,84C1726.64,1188.25,1707.55,1218.54,1658.86,1218.54Z"/><path class="cls-5" d="M2081.21,1001H1975.87c-39.53,0-91.57-20.06-115.08-43.65L1803.64,900C1784.05,880.3,1796.22,865,1830,865h90.09c33.8,0,80.47,15.27,105.27,34.94l72.33,57.34C2127.47,980.9,2120.74,1001,2081.21,1001Z"/><path class="cls-6" d="M1805.12,1001H1699.78c-39.53,0-85.66-20.06-102.24-43.65L1557.27,900c-13.82-19.67,2.86-34.94,36.66-34.94H1684c33.8,0,76,15.27,95,34.94l55.45,57.34C1857.29,980.9,1844.65,1001,1805.12,1001Z"/><path class="cls-5" d="M1529,1001H1423.69c-39.53,0-79.76-20.06-89.39-43.65L1310.89,900c-8-19.67,13.14-34.94,46.94-34.94h90.08c33.8,0,71.48,15.27,84.72,34.94l38.59,57.34C1587.1,980.9,1568.55,1001,1529,1001Z"/><path class="cls-5" d="M2137.4,852.32h-88.66c-33.26,0-78.63-14.26-100.44-31.16l-53.73-41.62c-18.67-14.46-9.66-25.77,19.46-25.77h77.59c29.12,0,70.3,11.31,92.8,25.77l64.76,41.62C2175.45,838.06,2170.67,852.32,2137.4,852.32Z"/><path class="cls-6" d="M1905,852.32h-88.65c-33.27,0-74.45-14.26-91.28-31.16l-41.49-41.62c-14.41-14.46-2.07-25.77,27-25.77h77.59c29.12,0,67,11.31,85.23,25.77l52.5,41.62C1947.29,838.06,1938.31,852.32,1905,852.32Z"/><path class="cls-5" d="M1672.68,852.32H1584c-33.27,0-70.25-14.26-82.12-31.16l-29.23-41.62c-10.16-14.46,5.5-25.77,34.61-25.77h77.6c29.11,0,63.65,11.31,77.64,25.77l40.26,41.62C1719.13,838.06,1706,852.32,1672.68,852.32Z"/><path class="cls-6" d="M1440.33,852.32h-88.66c-33.27,0-66.05-14.26-73-31.16l-17-41.62c-5.9-14.46,13.08-25.77,42.2-25.77h77.59c29.12,0,60.33,11.31,70.06,25.77l28,41.62C1491,838.06,1473.59,852.32,1440.33,852.32Z"/><path class="cls-6" d="M1977.64,744.32h-76.53c-28.72,0-65.75-10.65-82.13-23.34l-40.77-31.59c-14.31-11.08-4.81-19.78,20.76-19.78h68.15c25.57,0,59.83,8.7,77.07,19.78L1993.33,721C2013.07,733.67,2006.36,744.32,1977.64,744.32Z"/><path class="cls-5" d="M1777.05,744.32h-76.53c-28.72,0-62.61-10.65-75.26-23.34l-31.48-31.59c-11-11.08,1-19.78,26.58-19.78h68.15c25.57,0,57.28,8.7,71.26,19.78L1799.61,721C1815.61,733.67,1805.77,744.32,1777.05,744.32Z"/><path class="cls-6" d="M1576.47,744.32h-76.54c-28.71,0-59.47-10.65-68.39-23.34l-22.18-31.59c-7.79-11.08,6.83-19.78,32.4-19.78h68.15c25.57,0,54.71,8.7,65.43,19.78L1605.89,721C1618.16,733.67,1605.18,744.32,1576.47,744.32Z"/><path class="cls-5" d="M1375.88,744.32h-76.53c-28.72,0-56.35-10.65-61.53-23.34l-12.89-31.59c-4.52-11.08,12.65-19.78,38.22-19.78h68.15c25.57,0,52.16,8.7,59.61,19.78L1412.17,721C1420.71,733.67,1404.6,744.32,1375.88,744.32Z"/><path class="cls-6" d="M2032.77,662.3h-67.33c-25.26,0-58.83-8.25-74.49-18.13l-39.28-24.79c-13.89-8.76-6.36-15.67,16.44-15.67h60.75c22.79,0,54,6.91,70.25,15.67L2045,644.17C2063.24,654.05,2058,662.3,2032.77,662.3Z"/><path class="cls-5" d="M1856.31,662.3H1789c-25.27,0-56.41-8.25-69.16-18.13l-32-24.79c-11.31-8.76-1.75-15.67,21.05-15.67h60.75c22.79,0,52,6.91,65.64,15.67l38.56,24.79C1889.21,654.05,1881.58,662.3,1856.31,662.3Z"/><path class="cls-6" d="M1679.86,662.3h-67.33c-25.26,0-54-8.25-63.82-18.13L1524,619.38c-8.73-8.76,2.86-15.67,25.66-15.67h60.75c22.79,0,50,6.91,61,15.67l31.26,24.79C1715.18,654.05,1705.12,662.3,1679.86,662.3Z"/><path class="cls-5" d="M1503.4,662.3h-67.33c-25.26,0-51.54-8.25-58.48-18.13l-17.41-24.79c-6.15-8.76,7.47-15.67,30.27-15.67h60.75c22.79,0,48,6.91,56.43,15.67l24,24.79C1541.15,654.05,1528.66,662.3,1503.4,662.3Z"/><path class="cls-6" d="M1326.94,662.3h-67.32c-25.27,0-49.12-8.25-53.15-18.13l-10.12-24.79c-3.57-8.76,12.09-15.67,34.88-15.67H1292c22.79,0,45.92,6.91,51.82,15.67l16.68,24.79C1367.13,654.05,1352.21,662.3,1326.94,662.3Z"/><polygon class="cls-1" points="376.61 603.71 1189.96 603.71 1464.88 1277.21 -360.65 1277.21 376.61 603.71"/><polygon class="cls-4" points="376.61 603.71 1189.96 603.71 1464.88 1277.21 -360.65 1277.21 376.61 603.71"/><path class="cls-6" d="M1281.91,1218.54H1152.15c-48.69,0-90.65-30.29-93.55-65.54l-6.9-84c-2.32-28.27,28.55-50,68.84-50H1227.9c40.28,0,80.5,21.77,90.3,50l29.14,84C1359.57,1188.25,1330.61,1218.54,1281.91,1218.54Z"/><path class="cls-5" d="M941.81,1218.54H812.05c-48.69,0-81.74-30.29-74.27-65.54l17.81-84c6-28.27,43.27-50,83.56-50H946.51c40.29,0,74.09,21.77,75.58,50l4.43,84C1028.38,1188.25,990.5,1218.54,941.81,1218.54Z"/><path class="cls-6" d="M601.71,1218.54H471.94c-48.69,0-72.82-30.29-55-65.54l42.52-84c14.31-28.27,58-50,98.28-50H665.13c40.28,0,67.68,21.77,60.85,50l-20.28,84C697.19,1188.25,650.4,1218.54,601.71,1218.54Z"/><path class="cls-5" d="M261.61,1218.54H131.84c-48.69,0-63.91-30.29-35.7-65.54l67.23-84c22.63-28.27,72.72-50,113-50H383.74c40.28,0,61.28,21.77,46.13,50l-45,84C366,1188.25,310.3,1218.54,261.61,1218.54Z"/><path class="cls-6" d="M-78.5,1218.54H-208.26c-48.69,0-55-30.29-16.42-65.54l91.94-84c31-28.27,87.44-50,127.73-50H102.35c40.29,0,54.87,21.77,31.41,50l-69.7,84C34.81,1188.25-29.8,1218.54-78.5,1218.54Z"/><path class="cls-5" d="M1223,1001H1117.69c-39.53,0-73.22-20.06-75.16-43.65L1037.82,900c-1.61-19.67,24.53-34.94,58.33-34.94h90.09c33.8,0,66.5,15.27,73.32,34.94l19.89,57.34C1287.64,980.9,1262.55,1001,1223,1001Z"/><path class="cls-6" d="M946.94,1001H841.59c-39.52,0-67.31-20.06-62.31-43.65L791.44,900C795.61,880.3,826.25,865,860.06,865h90.08c33.8,0,62,15.27,63,34.94l3,57.34C1017.45,980.9,986.46,1001,946.94,1001Z"/><path class="cls-5" d="M670.85,1001H565.5C526,1001,504.09,980.9,516,957.31l29-57.34C555,880.3,590.16,865,624,865H714c33.8,0,57.51,15.27,52.77,34.94L753,957.31C747.26,980.9,710.37,1001,670.85,1001Z"/><path class="cls-6" d="M394.75,1001H289.41c-39.52,0-55.51-20.06-36.62-43.65L298.69,900C314.43,880.3,354.06,865,387.86,865h90.08c33.8,0,53,15.27,42.49,34.94l-30.72,57.34C477.07,980.9,434.28,1001,394.75,1001Z"/><path class="cls-5" d="M118.66,1001H13.32c-39.52,0-49.61-20.06-23.78-43.65L52.31,900C73.84,880.3,118,865,151.76,865h90.08c33.81,0,48.53,15.27,32.21,34.94l-47.59,57.34C206.88,980.9,158.19,1001,118.66,1001Z"/><path class="cls-6" d="M1182.8,852.32h-88.66c-33.27,0-61.4-14.26-62.79-31.16l-3.42-41.62c-1.19-14.46,21.49-25.77,50.6-25.77h77.59c29.12,0,56.64,11.31,61.66,25.77l14.44,41.62C1238.08,838.06,1216.06,852.32,1182.8,852.32Z"/><path class="cls-5" d="M950.44,852.32H861.78c-33.26,0-57.21-14.26-53.63-31.16L817,779.54c3.07-14.46,29.07-25.77,58.18-25.77h77.6c29.11,0,53.31,11.31,54.07,25.77l2.2,41.62C1009.92,838.06,983.7,852.32,950.44,852.32Z"/><path class="cls-6" d="M718.08,852.32H629.42c-33.26,0-53-14.26-44.46-31.16L606,779.54c7.33-14.46,36.65-25.77,65.77-25.77h77.59c29.12,0,50,11.31,46.5,25.77l-10,41.62C781.76,838.06,751.35,852.32,718.08,852.32Z"/><path class="cls-5" d="M485.72,852.32H397.07c-33.27,0-48.82-14.26-35.3-31.16l33.32-41.62c11.58-14.46,44.23-25.77,73.34-25.77H546c29.11,0,46.66,11.31,38.91,25.77l-22.3,41.62C553.59,838.06,519,852.32,485.72,852.32Z"/><path class="cls-6" d="M253.36,852.32H164.71c-33.27,0-44.63-14.26-26.14-31.16l45.57-41.62C200,765.08,236,753.77,265.07,753.77h77.59c29.12,0,43.34,11.31,31.33,25.77l-34.54,41.62C325.43,838.06,286.63,852.32,253.36,852.32Z"/><path class="cls-5" d="M1153.57,744.32H1077c-28.71,0-52.87-10.65-53.91-23.34l-2.59-31.59c-.91-11.08,19.1-19.78,44.67-19.78h68.15c25.57,0,49.31,8.7,53.16,19.78l11,31.59C1201.87,733.67,1182.28,744.32,1153.57,744.32Z"/><path class="cls-6" d="M953,744.32H876.45c-28.72,0-49.74-10.65-47.05-23.34l6.7-31.59c2.35-11.08,24.92-19.78,50.49-19.78h68.15c25.57,0,46.76,8.7,47.34,19.78l1.67,31.59C1004.42,733.67,981.7,744.32,953,744.32Z"/><path class="cls-5" d="M752.4,744.32H675.86c-28.71,0-46.6-10.65-40.18-23.34l16-31.59c5.61-11.08,30.75-19.78,56.32-19.78h68.15c25.57,0,44.19,8.7,41.52,19.78L810,721C807,733.67,781.11,744.32,752.4,744.32Z"/><path class="cls-6" d="M551.81,744.32H475.28c-28.72,0-43.47-10.65-33.32-23.34l25.29-31.59c8.87-11.08,36.56-19.78,62.13-19.78h68.15c25.57,0,41.64,8.7,35.7,19.78L616.31,721C609.51,733.67,580.53,744.32,551.81,744.32Z"/><path class="cls-5" d="M351.22,744.32H274.69c-28.71,0-40.34-10.65-26.44-23.34l34.57-31.59c12.13-11.08,42.39-19.78,68-19.78h68.15c25.57,0,39.07,8.7,29.87,19.78L422.59,721C412.06,733.67,379.94,744.32,351.22,744.32Z"/><path class="cls-6" d="M1131.37,662.3H1064c-25.26,0-46.42-8.25-47.23-18.13l-2-24.79c-.72-8.76,17.19-15.67,40-15.67h60.75c22.8,0,43.67,6.91,46.71,15.67l8.6,24.79C1174.25,654.05,1156.63,662.3,1131.37,662.3Z"/><path class="cls-5" d="M954.91,662.3H887.59c-25.27,0-44-8.25-41.9-18.13L851,619.38c1.86-8.76,21.8-15.67,44.59-15.67h60.75c22.8,0,41.64,6.91,42.1,15.67l1.31,24.79C1000.22,654.05,980.18,662.3,954.91,662.3Z"/><path class="cls-6" d="M778.46,662.3H711.13c-25.26,0-41.56-8.25-36.56-18.13l12.55-24.79c4.43-8.76,26.41-15.67,49.2-15.67h60.75c22.8,0,39.61,6.91,37.49,15.67l-6,24.79C826.19,654.05,803.72,662.3,778.46,662.3Z"/><path class="cls-5" d="M602,662.3H534.67c-25.26,0-39.13-8.25-31.22-18.13l19.84-24.79c7-8.76,31-15.67,53.81-15.67h60.75c22.8,0,37.58,6.91,32.89,15.67l-13.28,24.79C652.17,654.05,627.26,662.3,602,662.3Z"/><path class="cls-6" d="M425.54,662.3H358.22c-25.27,0-36.71-8.25-25.89-18.13l27.13-24.79c9.59-8.76,35.63-15.67,58.43-15.67h60.75c22.79,0,35.54,6.91,28.27,15.67l-20.57,24.79C478.14,654.05,450.81,662.3,425.54,662.3Z"/><polygon class="cls-1" points="-436.73 603.71 376.61 603.71 -360.65 1277.21 -2186.18 1277.21 -436.73 603.71"/><polygon class="cls-4" points="-436.73 603.71 376.61 603.71 -360.65 1277.21 -2186.18 1277.21 -436.73 603.71"/><path class="cls-5" d="M-187.34,1001H-292.68c-39.53,0-43.07-20.06-9.54-43.65L-220.76,900c27.94-19.67,77-34.94,110.85-34.94h90.08C14,865,23.71,880.3,1,900L-65.3,957.31C-92.58,980.9-147.81,1001-187.34,1001Z"/><path class="cls-6" d="M-4.17,852.32H-92.82c-33.27,0-40-14.26-16-31.16l59.14-41.62c20.55-14.46,60.21-25.77,89.33-25.77h77.59c29.12,0,39.65,11.31,22.93,25.77L92.08,821.16C72.55,838.06,29.1,852.32-4.17,852.32Z"/><path class="cls-5" d="M128.91,744.32H52.38c-28.72,0-36.87-10.65-18.84-23.34l44.88-31.59c15.74-11.08,48.83-19.78,74.41-19.78H221c25.57,0,36.24,8.7,23.43,19.78L207.89,721C193.22,733.67,157.63,744.32,128.91,744.32Z"/><path class="cls-6" d="M-71.68,744.32h-76.53c-28.72,0-33.73-10.65-12-23.34L-106,689.39c19-11.08,54.66-19.78,80.23-19.78H42.37c25.57,0,33.68,8.7,17.6,19.78L14.17,721C-4.23,733.67-43,744.32-71.68,744.32Z"/><path class="cls-6" d="M230,662.3H162.64c-25.26,0-34-8.25-20-18.13l35.21-24.79c12.45-8.76,40.74-15.67,63.54-15.67h60.75c22.79,0,33.29,6.91,23.16,15.67l-28.65,24.79C285.26,654.05,255.23,662.3,230,662.3Z"/><path class="cls-5" d="M53.51,662.3H-13.81c-25.27,0-31.58-8.25-14.64-18.13l42.5-24.79c15-8.76,45.35-15.67,68.15-15.67H143c22.79,0,31.26,6.91,18.55,15.67l-35.94,24.79C111.23,654.05,78.78,662.3,53.51,662.3Z"/><path class="cls-6" d="M-122.94,662.3h-67.33c-25.26,0-29.15-8.25-9.3-18.13l49.8-24.79c17.6-8.76,50-15.67,72.75-15.67h60.75c22.79,0,29.23,6.91,13.94,15.67l-43.23,24.79C-62.8,654.05-97.68,662.3-122.94,662.3Z"/></g></g></g></svg>