<svg xmlns="http://www.w3.org/2000/svg" xmlns:xlink="http://www.w3.org/1999/xlink" width="890" height="980" viewBox="0 0 890 980"><defs><style>.cls-1{fill:#ababab;}.cls-2{fill:#c4c4c4;}.cls-3{fill:#e0e0e0;}.cls-4{fill:#f2f2f2;}.cls-5{fill:url(#linear-gradient);}.cls-6{fill:#8c8c8c;}.cls-7{fill:#6e6e6e;}.cls-8{fill:#348dc4;}.cls-9{fill:#115e8f;}.cls-10{fill:#fff;}</style><linearGradient id="linear-gradient" x1="218.85" y1="628.82" x2="447.24" y2="793.77" gradientUnits="userSpaceOnUse"><stop offset="0" stop-color="#c4c4c4"/><stop offset="0.4" stop-color="#bbb"/><stop offset="0.46" stop-color="#b2b2b2"/><stop offset="0.54" stop-color="#ababab"/><stop offset="1" stop-color="#8c8c8c"/></linearGradient></defs><g id="second_bear" data-name="second bear"><path class="cls-1" d="M676.37,634.59a6.18,6.18,0,0,1-3.17-1c-2.73-2-108.06-58.09-265.67-141.68A356.76,356.76,0,0,1,365.2,396c-27-98.5-4-183.14,9.32-221.44l389.7,115C736,471,703.35,636.3,676.37,634.59Z"/><path class="cls-2" d="M753.14,285.4c88.68-37.89,123.67-54,125.74-56.78.16-.22,1.45-2.13,3-2,1.81.12,3,2.81,3,3a9.18,9.18,0,0,1,0,6.09c-5.26,16.17-60.75,333.16-60.84,335.5,0,0,0,.11,0,.24a5.37,5.37,0,0,1-1,2.76,6,6,0,0,1-3,2c-3.73,1.18-118.37,41.84-136.89,51.93-1.35.74-6.71,3.5-8.11,2-1.12-1.19.8-4.59,1-5C679.08,619.41,702.59,516.51,753.14,285.4Z"/><path class="cls-3" d="M700.76,151.75c98.46,29.21,193.18,61.51,189.89,78.08-.25,1.24-1,2-2.15,3.17C851.17,269.77,778.69,284.46,765,291.17a19.35,19.35,0,0,1-8.6,2.11,20.36,20.36,0,0,1-8.59-2.11,140.64,140.64,0,0,0-18.26-6.34,274,274,0,0,0-2.26-34c-1.24-9-3.37-20-3.63-21.29q-.74-3.8-1.57-7.65A438.32,438.32,0,0,0,700.76,151.75Z"/><path class="cls-4" d="M19.45,605.15c1.3,70.3,74.08,116.57,91.52,127.68,168.84,107.54,474.29-22.57,475.88-111,1-56.53-121.74-118.83-140.07-128.13a398.36,398.36,0,0,0-72.33-28c-30.55-8.66-81.06-23-145.39-18.45C181,450.61,119.65,455,71.12,501.09,59.55,512.09,18.46,551.15,19.45,605.15Z"/><path class="cls-2" d="M371.77,543.59c-18.32-10.37-36.33-13.54-51.67-16.23a216.59,216.59,0,0,0-65.68-1.48c-20.2,2.72-101.48,13.67-116.61,63.47-6.3,20.73,1.63,39.11,2.95,42.07,13.57,30.25,49.76,39.78,70.85,45,85.51,21.23,208.5-2.08,217.72-51.66C434.83,595.19,399.29,559.19,371.77,543.59Z"/><path class="cls-5" d="M587.06,621.6c6.87,27.17,13.05,71.41-6.07,117.61-45.67,110.36-207,162.48-333.67,141-23.19-3.93-121.9-20.67-183.51-103.86-46.76-63.13-45.61-128.7-44-152a215,215,0,0,0,66,88c54.46,43,115.46,49,155.46,53C347.64,775.81,425.8,739.85,488.47,711c39.21-18,66.11-37.17,84.94-64.65A145.11,145.11,0,0,0,587.06,621.6Z"/><path class="cls-6" d="M353.73,979.59,152.16,923.43l15.39-66.94a343.2,343.2,0,0,0,184.64,25.39Q353,930.74,353.73,979.59Z"/><path class="cls-1" d="M726.87,672.62c45.78-26.43,75.86-65.34,96.17-102.33L670.71,631.84l-78.48-33.08-10.77.77c7.09,20.29,24.14,78.16-.77,140C554.35,805,497.45,834.21,466.06,850.34a294.42,294.42,0,0,1-113.87,31.54q.78,48.86,1.54,97.71L659.17,868.8C636.79,765,656.25,721.16,678.4,700.31,692.05,687.47,704.29,685.65,726.87,672.62Z"/><path class="cls-7" d="M670.52,631.59a70.77,70.77,0,0,1-28,15c-24,6.43-44-2.13-50-5a178.35,178.35,0,0,0-28-71Z"/><path class="cls-4" d="M718.28,189.57C706.07,148.1,692,100.19,646.64,67.26c-60.28-43.78-148.82-41.5-211.38-12.45-1.17.54-1.75.83-2.68,1.27-105.32,50-82.78,215.52-76.85,254.77,7.17,47.54,17.2,77.4,22,88.35a274.43,274.43,0,0,0,54.5,81.08A398.71,398.71,0,0,1,586.08,588c31.87-27,86-80.77,118.24-165.89C716.1,391,750.05,297.49,718.28,189.57Z"/><path class="cls-8" d="M422.52,639.59a349.66,349.66,0,0,0-246,25c2.6,1.31,6.36,3.11,11,5,5.39,2.2,18.1,7,44,11a308.66,308.66,0,0,0,43,4c10.28.21,38.38.23,75-8,46.62-10.48,61.31-24.06,67-30A84.21,84.21,0,0,0,422.52,639.59Z"/><path class="cls-9" d="M403.52,656.59c-11.85.36-29.54.49-51-1-33.35-2.31-60.13-7.42-63,0-1.63,4.21,6.13,8,5,13-3.26,14.29-72.91,8.46-73,10-.08,1.28,47.32,12.28,107,2A284.74,284.74,0,0,0,403.52,656.59Z"/><path d="M474.52,300.12c15.88,18.39,6,54.06-2.46,55.18-7,.92-15-21.45-19.59-34.14-4.8-13.32-9.56-26.51-4.43-30.83S467,291.38,474.52,300.12Z"/><path d="M549.49,312.85c18.68,20.67,6.58,61.62-2.14,62.52-5.2.54-10.42-13.07-16.12-27.93-4.28-11.14-14.86-38.71-6.63-44.61C530,299,542.46,305.07,549.49,312.85Z"/><path d="M558.52,411.59c1.39,2.15-22.18,32.5-53,30-34.51-2.79-52.48-44.68-51-46,1.32-1.18,18.33,29.88,49,34C533.37,433.61,557.18,409.54,558.52,411.59Z"/><circle class="cls-10" cx="466.52" cy="322.59" r="6"/><circle class="cls-10" cx="541.52" cy="340.59" r="6"/></g></svg>