<svg xmlns="http://www.w3.org/2000/svg" xmlns:xlink="http://www.w3.org/1999/xlink" width="420" height="80" viewBox="0 0 420 80"><defs><style>.cls-1{fill:none;}.cls-2{clip-path:url(#clip-path);}.cls-3{clip-path:url(#clip-path-2);}.cls-4{fill:#e3f2fd;}.cls-5{fill:#bbdefb;}.cls-6{fill:#a9d6e5;}.cls-7{fill:#ffb5c8;}.cls-8{fill:#ff7aab;}.cls-9{fill:#ffd9e2;}</style><clipPath id="clip-path"><rect class="cls-1" x="950.65" y="-1042.91" width="1900" height="1080"/></clipPath><clipPath id="clip-path-2"><polygon class="cls-1" points="4975.65 196.09 -1136.28 196.09 513.91 -439.19 3325.46 -439.19 4975.65 196.09"/></clipPath></defs><g id="second_bear" data-name="second bear"><g class="cls-2"><g class="cls-3"><polygon class="cls-1" points="513.91 -439.19 1327.26 -439.19 589.99 234.31 -1235.54 234.31 513.91 -439.19"/><polygon class="cls-4" points="513.91 -439.19 1327.26 -439.19 589.99 234.31 -1235.54 234.31 513.91 -439.19"/><path class="cls-5" d="M495.2,175.64H365.44c-48.69,0-45.13-30.29,4.95-65.54l119.32-84c40.17-28.27,103.77-50,144.05-50H741.13c40.28,0,47.76,21.78,15.08,50.05l-97.08,84C618.38,145.35,543.89,175.64,495.2,175.64Z"/><path class="cls-6" d="M155.1,175.64H25.34c-48.7,0-36.22-30.29,24.23-65.54l144-84c48.49-28.27,118.49-50,158.78-50H459.74c40.28,0,41.36,21.78.36,50.05l-121.79,84C287.19,145.35,203.79,175.64,155.1,175.64Z"/><path class="cls-5" d="M-185,175.64H-314.77c-48.69,0-27.3-30.29,43.52-65.54l168.74-84c56.8-28.27,133.21-50,173.5-50H178.35c40.29,0,35,21.78-14.36,50.05l-146.5,84C-44,145.35-136.31,175.64-185,175.64Z"/></g></g></g><g id="Sad_Poop" data-name="Sad Poop"><rect class="cls-7" x="5.5" y="2.5" width="409" height="75" rx="12"/><rect class="cls-8" x="18.5" y="14.5" width="8.82" height="51" rx="3.53"/><path class="cls-9" d="M402.5,8c0-.83-5.11-1.5-11.35-1.5H27.85C21.61,6.5,16.5,7.17,16.5,8s5.11,1.5,11.35,1.5h363.3C397.39,9.5,402.5,8.83,402.5,8Z"/></g></svg>