<svg xmlns="http://www.w3.org/2000/svg" xmlns:xlink="http://www.w3.org/1999/xlink" width="420" height="80" viewBox="0 0 420 80"><defs><style>.cls-1{fill:none;}.cls-2{clip-path:url(#clip-path);}.cls-3{clip-path:url(#clip-path-2);}.cls-4{fill:#e3f2fd;}.cls-5{fill:#bbdefb;}.cls-6{fill:#a9d6e5;}.cls-7{fill:#ffb5c8;}.cls-8{fill:#ff7aab;}.cls-9{fill:#ffd9e2;}</style><clipPath id="clip-path"><rect class="cls-1" x="952.57" y="-1136.43" width="1900" height="1080"/></clipPath><clipPath id="clip-path-2"><polygon class="cls-1" points="4977.57 102.57 -1134.35 102.57 515.84 -532.72 3327.39 -532.72 4977.57 102.57"/></clipPath></defs><g id="second_bear" data-name="second bear"><g class="cls-2"><g class="cls-3"><polygon class="cls-1" points="515.84 -532.72 1329.19 -532.72 591.92 140.78 -1233.61 140.78 515.84 -532.72"/><polygon class="cls-4" points="515.84 -532.72 1329.19 -532.72 591.92 140.78 -1233.61 140.78 515.84 -532.72"/><path class="cls-5" d="M497.13,82.11H367.37c-48.69,0-45.13-30.29,4.95-65.54l119.32-84c40.17-28.27,103.77-50,144.05-50H743.06c40.28,0,47.76,21.78,15.08,50.05l-97.08,84C620.31,51.82,545.82,82.11,497.13,82.11Z"/><path class="cls-6" d="M157,82.11H27.27c-48.7,0-36.22-30.29,24.23-65.54l144-84c48.49-28.27,118.49-50,158.78-50H461.67c40.28,0,41.36,21.78.36,50.05l-121.79,84C289.12,51.82,205.72,82.11,157,82.11Z"/><path class="cls-5" d="M-183.07,82.11H-312.84c-48.69,0-27.3-30.29,43.52-65.54l168.74-84c56.8-28.27,133.21-50,173.5-50H180.28c40.29,0,35,21.78-14.36,50.05l-146.5,84C-42.07,51.82-134.38,82.11-183.07,82.11Z"/></g></g></g><g id="Sad_Poop" data-name="Sad Poop"><rect class="cls-7" x="5.5" y="2.5" width="409" height="75" rx="12"/><rect class="cls-8" x="18.5" y="14.5" width="386" height="51" rx="3.53"/><path class="cls-9" d="M402.5,8c0-.83-5.11-1.5-11.35-1.5H27.85C21.61,6.5,16.5,7.17,16.5,8s5.11,1.5,11.35,1.5h363.3C397.39,9.5,402.5,8.83,402.5,8Z"/></g></svg>