<svg xmlns="http://www.w3.org/2000/svg" xmlns:xlink="http://www.w3.org/1999/xlink" width="1920" height="1080" viewBox="0 0 1920 1080"><defs><style>.cls-1{fill:none;}.cls-2{clip-path:url(#clip-path);}.cls-3{clip-path:url(#clip-path-2);}.cls-4{clip-path:url(#clip-path-3);}.cls-5{clip-path:url(#clip-path-4);}.cls-6{fill:#e3f2fd;}.cls-7{fill:#a9d6e5;}.cls-8{fill:#bbdefb;}.cls-9{clip-path:url(#clip-path-5);}.cls-10{fill:#ababab;}.cls-11{fill:#c4c4c4;}.cls-12{fill:#e0e0e0;}.cls-13{fill:#f2f2f2;}.cls-14{fill:url(#linear-gradient);}.cls-15{fill:#6e6e6e;}.cls-16{fill:#348dc4;}.cls-17{fill:#115e8f;}.cls-18{fill:#fff;}.cls-19{fill:#e2e6ac;}.cls-20{fill:#f7facf;}.cls-21{fill:#68694e;}.cls-22{fill:#3b3b2b;}.cls-23{fill:#ff4a78;opacity:0.25;}.cls-24{fill:#f4ad29;}.cls-25{fill:#7f4700;}.cls-26{fill:url(#linear-gradient-2);}.cls-27{fill:#ff5f99;}.cls-28{fill:url(#linear-gradient-3);}.cls-29{fill:url(#linear-gradient-4);}.cls-30{fill:url(#linear-gradient-5);}.cls-31{fill:#c77814;}.cls-32{fill:#c7852e;}.cls-33{fill:#5c4200;}.cls-34{fill:url(#linear-gradient-6);}.cls-35{fill:url(#linear-gradient-7);}.cls-36{fill:url(#linear-gradient-8);}.cls-37{fill:url(#linear-gradient-9);}.cls-38{fill:#eaff10;}.cls-39{fill:#eaffa5;}.cls-40{fill:#422e00;}.cls-41{fill:#ffb5c8;}.cls-42{fill:#ff7aab;}.cls-43{fill:#7a6068;}.cls-44{fill:#ffd9e2;}</style><clipPath id="clip-path"><rect class="cls-1" x="3.5" y="-1" width="1925.99" height="1080"/></clipPath><clipPath id="clip-path-2"><rect class="cls-1" x="3.5" y="-1" width="1916.5" height="1080"/></clipPath><clipPath id="clip-path-3"><rect class="cls-1" x="5" y="-1.53" width="1916.5" height="1080"/></clipPath><clipPath id="clip-path-4"><rect class="cls-1" x="-276.88" y="-190.14" width="2835.55" height="792"/></clipPath><clipPath id="clip-path-5"><polygon class="cls-1" points="4064.96 1237.47 -2100.04 1237.47 -435.52 602.19 2400.44 602.19 4064.96 1237.47"/></clipPath><linearGradient id="linear-gradient" x1="838.41" y1="714.11" x2="1311.47" y2="1055.76" gradientUnits="userSpaceOnUse"><stop offset="0" stop-color="#c4c4c4"/><stop offset="0.4" stop-color="#bbb"/><stop offset="0.46" stop-color="#b2b2b2"/><stop offset="0.54" stop-color="#ababab"/><stop offset="1" stop-color="#8c8c8c"/></linearGradient><linearGradient id="linear-gradient-2" x1="919.2" y1="247.39" x2="901.44" y2="234.44" gradientTransform="translate(-22.32 431.47) rotate(-30)" gradientUnits="userSpaceOnUse"><stop offset="0.02" stop-color="#ff5f99"/><stop offset="0.23" stop-color="#ff649c"/><stop offset="0.49" stop-color="#ff73a6"/><stop offset="0.58" stop-color="#ff7aab"/><stop offset="1" stop-color="#ff87b3"/></linearGradient><linearGradient id="linear-gradient-3" x1="800.19" y1="268.82" x2="772.45" y2="248.59" xlink:href="#linear-gradient-2"/><linearGradient id="linear-gradient-4" x1="802.27" y1="61.61" x2="794.98" y2="56.29" xlink:href="#linear-gradient-2"/><linearGradient id="linear-gradient-5" x1="866.35" y1="-0.87" x2="870.41" y2="-6.25" gradientTransform="translate(16.95 475.81) rotate(-30.57)" gradientUnits="userSpaceOnUse"><stop offset="0.15" stop-color="#ff5f99"/><stop offset="0.32" stop-color="#ff669e"/><stop offset="0.55" stop-color="#ff7aab"/><stop offset="1" stop-color="#ff87b3"/></linearGradient><linearGradient id="linear-gradient-6" x1="1111.33" y1="866" x2="1113.91" y2="859.51" gradientUnits="userSpaceOnUse"><stop offset="0.44" stop-color="#ff7aab"/><stop offset="1" stop-color="#ff87b3"/></linearGradient><linearGradient id="linear-gradient-7" x1="1244.38" y1="674.74" x2="1246.12" y2="665.28" gradientUnits="userSpaceOnUse"><stop offset="0" stop-color="#ff5f99"/><stop offset="0.44" stop-color="#ff7aab"/><stop offset="1" stop-color="#ff87b3"/></linearGradient><linearGradient id="linear-gradient-8" x1="1280.62" y1="739.14" x2="1288.55" y2="745.61" xlink:href="#linear-gradient-7"/><linearGradient id="linear-gradient-9" x1="1232.22" y1="877.4" x2="1229.1" y2="872.68" xlink:href="#linear-gradient-6"/></defs><g id="Layer_10" data-name="Layer 10"><g class="cls-2"><g class="cls-3"><g class="cls-4"><g class="cls-5"><rect class="cls-1" x="1363.7" y="-190.14" width="820.29" height="813.23"/><rect class="cls-6" x="1363.7" y="-190.14" width="820.29" height="813.23"/><path class="cls-7" d="M1948.33,589.92h-61.27a41.45,41.45,0,0,1-41.62-41.27V487.91a41.45,41.45,0,0,1,41.62-41.27h61.27A41.45,41.45,0,0,1,1990,487.91v60.74A41.45,41.45,0,0,1,1948.33,589.92Z"/><path class="cls-8" d="M1787.75,589.92h-61.27a41.45,41.45,0,0,1-41.62-41.27V487.91a41.45,41.45,0,0,1,41.62-41.27h61.27a41.45,41.45,0,0,1,41.63,41.27v60.74A41.45,41.45,0,0,1,1787.75,589.92Z"/><path class="cls-7" d="M1627.17,589.92h-61.26a41.45,41.45,0,0,1-41.63-41.27V487.91a41.45,41.45,0,0,1,41.63-41.27h61.26a41.45,41.45,0,0,1,41.63,41.27v60.74A41.45,41.45,0,0,1,1627.17,589.92Z"/><path class="cls-8" d="M1466.6,589.92h-61.27a41.45,41.45,0,0,1-41.63-41.27V487.91a41.45,41.45,0,0,1,41.63-41.27h61.27a41.45,41.45,0,0,1,41.62,41.27v60.74A41.45,41.45,0,0,1,1466.6,589.92Z"/><path class="cls-8" d="M1948.33,430.72h-61.27a41.44,41.44,0,0,1-41.62-41.26V328.72a41.44,41.44,0,0,1,41.62-41.27h61.27A41.45,41.45,0,0,1,1990,328.72v60.74A41.45,41.45,0,0,1,1948.33,430.72Z"/><path class="cls-7" d="M1787.75,430.72h-61.27a41.44,41.44,0,0,1-41.62-41.26V328.72a41.45,41.45,0,0,1,41.62-41.27h61.27a41.45,41.45,0,0,1,41.63,41.27v60.74A41.45,41.45,0,0,1,1787.75,430.72Z"/><path class="cls-8" d="M1627.17,430.72h-61.26a41.45,41.45,0,0,1-41.63-41.26V328.72a41.45,41.45,0,0,1,41.63-41.27h61.26a41.45,41.45,0,0,1,41.63,41.27v60.74A41.45,41.45,0,0,1,1627.17,430.72Z"/><path class="cls-7" d="M1466.6,430.72h-61.27a41.45,41.45,0,0,1-41.63-41.26V328.72a41.45,41.45,0,0,1,41.63-41.27h61.27a41.44,41.44,0,0,1,41.62,41.27v60.74A41.44,41.44,0,0,1,1466.6,430.72Z"/><path class="cls-7" d="M1948.33,271.53h-61.27a41.45,41.45,0,0,1-41.62-41.27V169.52a41.45,41.45,0,0,1,41.62-41.27h61.27A41.45,41.45,0,0,1,1990,169.52v60.74A41.45,41.45,0,0,1,1948.33,271.53Z"/><path class="cls-8" d="M1787.75,271.53h-61.27a41.45,41.45,0,0,1-41.62-41.27V169.52a41.45,41.45,0,0,1,41.62-41.27h61.27a41.45,41.45,0,0,1,41.63,41.27v60.74A41.45,41.45,0,0,1,1787.75,271.53Z"/><path class="cls-7" d="M1627.17,271.53h-61.26a41.45,41.45,0,0,1-41.63-41.27V169.52a41.45,41.45,0,0,1,41.63-41.27h61.26a41.45,41.45,0,0,1,41.63,41.27v60.74A41.45,41.45,0,0,1,1627.17,271.53Z"/><path class="cls-8" d="M1466.6,271.53h-61.27a41.45,41.45,0,0,1-41.63-41.27V169.52a41.45,41.45,0,0,1,41.63-41.27h61.27a41.45,41.45,0,0,1,41.62,41.27v60.74A41.45,41.45,0,0,1,1466.6,271.53Z"/><path class="cls-8" d="M1948.33,112.33h-61.27a41.44,41.44,0,0,1-41.62-41.27V10.32a41.44,41.44,0,0,1,41.62-41.26h61.27A41.45,41.45,0,0,1,1990,10.32V71.06A41.45,41.45,0,0,1,1948.33,112.33Z"/><path class="cls-7" d="M1787.75,112.33h-61.27a41.45,41.45,0,0,1-41.62-41.27V10.32a41.44,41.44,0,0,1,41.62-41.26h61.27a41.45,41.45,0,0,1,41.63,41.26V71.06A41.45,41.45,0,0,1,1787.75,112.33Z"/><path class="cls-8" d="M1627.17,112.33h-61.26a41.45,41.45,0,0,1-41.63-41.27V10.32a41.45,41.45,0,0,1,41.63-41.26h61.26a41.45,41.45,0,0,1,41.63,41.26V71.06A41.45,41.45,0,0,1,1627.17,112.33Z"/><path class="cls-7" d="M1466.6,112.33h-61.27a41.45,41.45,0,0,1-41.63-41.27V10.32a41.45,41.45,0,0,1,41.63-41.26h61.27a41.44,41.44,0,0,1,41.62,41.26V71.06A41.44,41.44,0,0,1,1466.6,112.33Z"/><rect class="cls-1" x="543.41" y="-190.14" width="820.29" height="813.23"/><rect class="cls-6" x="543.41" y="-190.14" width="820.29" height="813.23"/><path class="cls-8" d="M1288.62,589.92h-61.27a41.45,41.45,0,0,1-41.62-41.27V487.91a41.45,41.45,0,0,1,41.62-41.27h61.27a41.45,41.45,0,0,1,41.63,41.27v60.74A41.45,41.45,0,0,1,1288.62,589.92Z"/><path class="cls-7" d="M1128,589.92h-61.26a41.45,41.45,0,0,1-41.63-41.27V487.91a41.45,41.45,0,0,1,41.63-41.27H1128a41.45,41.45,0,0,1,41.63,41.27v60.74A41.45,41.45,0,0,1,1128,589.92Z"/><path class="cls-8" d="M967.46,589.92H906.2a41.45,41.45,0,0,1-41.63-41.27V487.91a41.45,41.45,0,0,1,41.63-41.27h61.26a41.45,41.45,0,0,1,41.63,41.27v60.74A41.45,41.45,0,0,1,967.46,589.92Z"/><path class="cls-7" d="M806.89,589.92H745.62A41.45,41.45,0,0,1,704,548.65V487.91a41.45,41.45,0,0,1,41.63-41.27h61.27a41.45,41.45,0,0,1,41.62,41.27v60.74A41.45,41.45,0,0,1,806.89,589.92Z"/><path class="cls-8" d="M646.31,589.92H585a41.45,41.45,0,0,1-41.63-41.27V487.91A41.45,41.45,0,0,1,585,446.64h61.27a41.45,41.45,0,0,1,41.62,41.27v60.74A41.45,41.45,0,0,1,646.31,589.92Z"/><path class="cls-7" d="M1288.62,430.72h-61.27a41.44,41.44,0,0,1-41.62-41.26V328.72a41.44,41.44,0,0,1,41.62-41.27h61.27a41.45,41.45,0,0,1,41.63,41.27v60.74A41.45,41.45,0,0,1,1288.62,430.72Z"/><path class="cls-8" d="M1128,430.72h-61.26a41.45,41.45,0,0,1-41.63-41.26V328.72a41.45,41.45,0,0,1,41.63-41.27H1128a41.45,41.45,0,0,1,41.63,41.27v60.74A41.45,41.45,0,0,1,1128,430.72Z"/><path class="cls-7" d="M967.46,430.72H906.2a41.45,41.45,0,0,1-41.63-41.26V328.72a41.45,41.45,0,0,1,41.63-41.27h61.26a41.45,41.45,0,0,1,41.63,41.27v60.74A41.45,41.45,0,0,1,967.46,430.72Z"/><path class="cls-8" d="M806.89,430.72H745.62A41.45,41.45,0,0,1,704,389.46V328.72a41.45,41.45,0,0,1,41.63-41.27h61.27a41.44,41.44,0,0,1,41.62,41.27v60.74A41.44,41.44,0,0,1,806.89,430.72Z"/><path class="cls-7" d="M646.31,430.72H585a41.45,41.45,0,0,1-41.63-41.26V328.72A41.45,41.45,0,0,1,585,287.45h61.27a41.44,41.44,0,0,1,41.62,41.27v60.74A41.44,41.44,0,0,1,646.31,430.72Z"/><path class="cls-8" d="M1288.62,271.53h-61.27a41.45,41.45,0,0,1-41.62-41.27V169.52a41.45,41.45,0,0,1,41.62-41.27h61.27a41.45,41.45,0,0,1,41.63,41.27v60.74A41.45,41.45,0,0,1,1288.62,271.53Z"/><path class="cls-7" d="M1128,271.53h-61.26a41.45,41.45,0,0,1-41.63-41.27V169.52a41.45,41.45,0,0,1,41.63-41.27H1128a41.45,41.45,0,0,1,41.63,41.27v60.74A41.45,41.45,0,0,1,1128,271.53Z"/><path class="cls-8" d="M967.46,271.53H906.2a41.45,41.45,0,0,1-41.63-41.27V169.52a41.45,41.45,0,0,1,41.63-41.27h61.26a41.45,41.45,0,0,1,41.63,41.27v60.74A41.45,41.45,0,0,1,967.46,271.53Z"/><path class="cls-7" d="M806.89,271.53H745.62A41.45,41.45,0,0,1,704,230.26V169.52a41.45,41.45,0,0,1,41.63-41.27h61.27a41.45,41.45,0,0,1,41.62,41.27v60.74A41.45,41.45,0,0,1,806.89,271.53Z"/><path class="cls-8" d="M646.31,271.53H585a41.45,41.45,0,0,1-41.63-41.27V169.52A41.45,41.45,0,0,1,585,128.25h61.27a41.45,41.45,0,0,1,41.62,41.27v60.74A41.45,41.45,0,0,1,646.31,271.53Z"/><path class="cls-7" d="M1288.62,112.33h-61.27a41.44,41.44,0,0,1-41.62-41.27V10.32a41.44,41.44,0,0,1,41.62-41.26h61.27a41.45,41.45,0,0,1,41.63,41.26V71.06A41.45,41.45,0,0,1,1288.62,112.33Z"/><path class="cls-8" d="M1128,112.33h-61.26a41.45,41.45,0,0,1-41.63-41.27V10.32a41.45,41.45,0,0,1,41.63-41.26H1128a41.45,41.45,0,0,1,41.63,41.26V71.06A41.45,41.45,0,0,1,1128,112.33Z"/><path class="cls-7" d="M967.46,112.33H906.2a41.45,41.45,0,0,1-41.63-41.27V10.32A41.45,41.45,0,0,1,906.2-30.94h61.26a41.45,41.45,0,0,1,41.63,41.26V71.06A41.45,41.45,0,0,1,967.46,112.33Z"/><path class="cls-8" d="M806.89,112.33H745.62A41.45,41.45,0,0,1,704,71.06V10.32a41.45,41.45,0,0,1,41.63-41.26h61.27a41.44,41.44,0,0,1,41.62,41.26V71.06A41.44,41.44,0,0,1,806.89,112.33Z"/><path class="cls-7" d="M646.31,112.33H585a41.45,41.45,0,0,1-41.63-41.27V10.32A41.45,41.45,0,0,1,585-30.94h61.27a41.44,41.44,0,0,1,41.62,41.26V71.06A41.44,41.44,0,0,1,646.31,112.33Z"/><rect class="cls-1" x="-276.88" y="-190.14" width="820.29" height="813.23"/><rect class="cls-6" x="-276.88" y="-190.14" width="820.29" height="813.23"/><path class="cls-8" d="M468.33,589.92H407.07a41.45,41.45,0,0,1-41.63-41.27V487.91a41.45,41.45,0,0,1,41.63-41.27h61.26A41.45,41.45,0,0,1,510,487.91v60.74A41.45,41.45,0,0,1,468.33,589.92Z"/><path class="cls-7" d="M307.75,589.92H246.49a41.45,41.45,0,0,1-41.63-41.27V487.91a41.45,41.45,0,0,1,41.63-41.27h61.26a41.45,41.45,0,0,1,41.63,41.27v60.74A41.45,41.45,0,0,1,307.75,589.92Z"/><path class="cls-8" d="M147.18,589.92H85.91a41.45,41.45,0,0,1-41.63-41.27V487.91a41.45,41.45,0,0,1,41.63-41.27h61.27a41.45,41.45,0,0,1,41.62,41.27v60.74A41.45,41.45,0,0,1,147.18,589.92Z"/><path class="cls-7" d="M-13.4,589.92H-74.67a41.45,41.45,0,0,1-41.63-41.27V487.91a41.45,41.45,0,0,1,41.63-41.27H-13.4a41.45,41.45,0,0,1,41.62,41.27v60.74A41.45,41.45,0,0,1-13.4,589.92Z"/><path class="cls-7" d="M468.33,430.72H407.07a41.45,41.45,0,0,1-41.63-41.26V328.72a41.45,41.45,0,0,1,41.63-41.27h61.26A41.45,41.45,0,0,1,510,328.72v60.74A41.45,41.45,0,0,1,468.33,430.72Z"/><path class="cls-8" d="M307.75,430.72H246.49a41.45,41.45,0,0,1-41.63-41.26V328.72a41.45,41.45,0,0,1,41.63-41.27h61.26a41.45,41.45,0,0,1,41.63,41.27v60.74A41.45,41.45,0,0,1,307.75,430.72Z"/><path class="cls-7" d="M147.18,430.72H85.91a41.45,41.45,0,0,1-41.63-41.26V328.72a41.45,41.45,0,0,1,41.63-41.27h61.27a41.44,41.44,0,0,1,41.62,41.27v60.74A41.44,41.44,0,0,1,147.18,430.72Z"/><path class="cls-8" d="M-13.4,430.72H-74.67a41.45,41.45,0,0,1-41.63-41.26V328.72a41.45,41.45,0,0,1,41.63-41.27H-13.4a41.44,41.44,0,0,1,41.62,41.27v60.74A41.44,41.44,0,0,1-13.4,430.72Z"/><path class="cls-8" d="M468.33,271.53H407.07a41.45,41.45,0,0,1-41.63-41.27V169.52a41.45,41.45,0,0,1,41.63-41.27h61.26A41.45,41.45,0,0,1,510,169.52v60.74A41.45,41.45,0,0,1,468.33,271.53Z"/><path class="cls-7" d="M307.75,271.53H246.49a41.45,41.45,0,0,1-41.63-41.27V169.52a41.45,41.45,0,0,1,41.63-41.27h61.26a41.45,41.45,0,0,1,41.63,41.27v60.74A41.45,41.45,0,0,1,307.75,271.53Z"/><path class="cls-8" d="M147.18,271.53H85.91a41.45,41.45,0,0,1-41.63-41.27V169.52a41.45,41.45,0,0,1,41.63-41.27h61.27a41.45,41.45,0,0,1,41.62,41.27v60.74A41.45,41.45,0,0,1,147.18,271.53Z"/><path class="cls-7" d="M-13.4,271.53H-74.67a41.45,41.45,0,0,1-41.63-41.27V169.52a41.45,41.45,0,0,1,41.63-41.27H-13.4a41.45,41.45,0,0,1,41.62,41.27v60.74A41.45,41.45,0,0,1-13.4,271.53Z"/><path class="cls-7" d="M468.33,112.33H407.07a41.45,41.45,0,0,1-41.63-41.27V10.32a41.45,41.45,0,0,1,41.63-41.26h61.26A41.45,41.45,0,0,1,510,10.32V71.06A41.45,41.45,0,0,1,468.33,112.33Z"/><path class="cls-8" d="M307.75,112.33H246.49a41.45,41.45,0,0,1-41.63-41.27V10.32a41.45,41.45,0,0,1,41.63-41.26h61.26a41.45,41.45,0,0,1,41.63,41.26V71.06A41.45,41.45,0,0,1,307.75,112.33Z"/><path class="cls-7" d="M147.18,112.33H85.91A41.45,41.45,0,0,1,44.28,71.06V10.32A41.45,41.45,0,0,1,85.91-30.94h61.27A41.44,41.44,0,0,1,188.8,10.32V71.06A41.44,41.44,0,0,1,147.18,112.33Z"/><path class="cls-8" d="M-13.4,112.33H-74.67A41.45,41.45,0,0,1-116.3,71.06V10.32A41.45,41.45,0,0,1-74.67-30.94H-13.4A41.44,41.44,0,0,1,28.22,10.32V71.06A41.44,41.44,0,0,1-13.4,112.33Z"/></g><g class="cls-9"><polygon class="cls-1" points="1205.3 602.19 2025.7 602.19 3323.99 1275.69 1482.61 1275.69 1205.3 602.19"/><polygon class="cls-6" points="1205.3 602.19 2025.7 602.19 3323.99 1275.69 1482.61 1275.69 1205.3 602.19"/><path class="cls-7" d="M2021.33,1217h-130.9c-49.11,0-110.39-30.3-135.36-65.54l-59.51-84c-20-28.27-2.51-50,38.12-50H1842c40.63,0,94.82,21.78,122.4,50l81.94,84C2080.7,1186.72,2070.44,1217,2021.33,1217Z"/><path class="cls-8" d="M1678.27,1217H1547.38c-49.12,0-101.4-30.3-115.92-65.54l-34.58-84c-11.64-28.27,12.34-50,53-50h108.3c40.63,0,88.36,21.78,107.55,50l57,84C1746.64,1186.72,1727.38,1217,1678.27,1217Z"/><path class="cls-7" d="M2104.29,999.44H1998c-39.87,0-92.36-20.06-116.08-43.66l-57.64-57.34c-19.77-19.66-7.48-34.94,26.61-34.94h90.87c34.09,0,81.17,15.28,106.19,34.94l72.95,57.34C2151,979.38,2144.16,999.44,2104.29,999.44Z"/><path class="cls-8" d="M1825.8,999.44H1719.54c-39.87,0-86.4-20.06-103.12-43.66l-40.63-57.34c-13.93-19.66,2.89-34.94,37-34.94h90.87c34.09,0,76.63,15.28,95.82,34.94l55.94,57.34C1878.42,979.38,1865.67,999.44,1825.8,999.44Z"/><path class="cls-7" d="M1547.31,999.44H1441.05c-39.87,0-80.45-20.06-90.16-43.66l-23.61-57.34c-8.1-19.66,13.25-34.94,47.34-34.94h90.87c34.09,0,72.1,15.28,85.45,34.94l38.93,57.34C1605.88,979.38,1587.18,999.44,1547.31,999.44Z"/><path class="cls-7" d="M2161,850.79h-89.43c-33.55,0-79.32-14.26-101.32-31.15L1916,778c-18.83-14.46-9.75-25.77,19.62-25.77h78.27c29.37,0,70.91,11.31,93.61,25.77l65.31,41.63C2199.35,836.53,2194.52,850.79,2161,850.79Z"/><path class="cls-8" d="M1926.59,850.79h-89.43c-33.55,0-75.08-14.26-92.07-31.15L1703.25,778c-14.54-14.46-2.1-25.77,27.27-25.77h78.27c29.37,0,67.56,11.31,86,25.77l53,41.63C1969.21,836.53,1960.14,850.79,1926.59,850.79Z"/><path class="cls-7" d="M1692.21,850.79h-89.42c-33.56,0-70.86-14.26-82.83-31.15L1490.47,778c-10.25-14.46,5.55-25.77,34.92-25.77h78.27c29.36,0,64.2,11.31,78.31,25.77l40.61,41.63C1739.06,836.53,1725.77,850.79,1692.21,850.79Z"/><path class="cls-8" d="M1457.84,850.79h-89.43c-33.55,0-66.62-14.26-73.58-31.15L1277.69,778c-6-14.46,13.2-25.77,42.57-25.77h78.26c29.37,0,60.85,11.31,70.67,25.77l28.26,41.63C1508.92,836.53,1491.39,850.79,1457.84,850.79Z"/><path class="cls-8" d="M1999.82,742.79h-77.2c-29,0-66.32-10.65-82.84-23.34l-41.12-31.58c-14.44-11.09-4.86-19.79,20.94-19.79h68.73c25.8,0,60.36,8.7,77.75,19.79l49.56,31.58C2035.55,732.14,2028.78,742.79,1999.82,742.79Z"/><path class="cls-7" d="M1797.49,742.79h-77.2c-29,0-63.15-10.65-75.91-23.34l-31.75-31.58c-11.14-11.09,1-19.79,26.81-19.79h68.74c25.79,0,57.77,8.7,71.87,19.79l40.19,31.58C1836.39,732.14,1826.46,742.79,1797.49,742.79Z"/><path class="cls-8" d="M1595.16,742.79H1518c-29,0-60-10.65-69-23.34l-22.38-31.58c-7.85-11.09,6.89-19.79,32.68-19.79H1528c25.79,0,55.19,8.7,66,19.79l30.81,31.58C1637.22,732.14,1624.13,742.79,1595.16,742.79Z"/><path class="cls-7" d="M1392.83,742.79h-77.19c-29,0-56.84-10.65-62.06-23.34l-13-31.58c-4.56-11.09,12.77-19.79,38.56-19.79h68.74c25.79,0,52.6,8.7,60.13,19.79l21.44,31.58C1438.05,732.14,1421.8,742.79,1392.83,742.79Z"/><path class="cls-8" d="M2055.43,660.78h-67.91c-25.49,0-59.35-8.26-75.14-18.14l-39.63-24.78c-14-8.77-6.41-15.67,16.58-15.67h61.28c23,0,54.52,6.9,70.87,15.67l46.24,24.78C2086.16,652.52,2080.91,660.78,2055.43,660.78Z"/><path class="cls-7" d="M1877.44,660.78h-67.91c-25.49,0-56.9-8.26-69.76-18.14l-32.27-24.78c-11.41-8.77-1.76-15.67,21.23-15.67H1790c23,0,52.47,6.9,66.22,15.67l38.89,24.78C1910.62,652.52,1902.92,660.78,1877.44,660.78Z"/><path class="cls-8" d="M1699.45,660.78h-67.91c-25.49,0-54.44-8.26-64.38-18.14l-24.91-24.78c-8.81-8.77,2.89-15.67,25.88-15.67h61.28c23,0,50.41,6.9,61.57,15.67l31.53,24.78C1735.08,652.52,1724.93,660.78,1699.45,660.78Z"/><path class="cls-7" d="M1521.46,660.78h-67.91c-25.48,0-52-8.26-59-18.14L1377,617.86c-6.21-8.77,7.54-15.67,30.53-15.67h61.28c23,0,48.36,6.9,56.91,15.67l24.18,24.78C1559.54,652.52,1546.94,660.78,1521.46,660.78Z"/><path class="cls-8" d="M1343.47,660.78h-67.91c-25.48,0-49.54-8.26-53.61-18.14l-10.2-24.78c-3.61-8.77,12.18-15.67,35.18-15.67h61.27c23,0,46.32,6.9,52.27,15.67l16.83,24.78C1384,652.52,1369,660.78,1343.47,660.78Z"/><polygon class="cls-1" points="384.89 602.19 1205.3 602.19 1482.61 1275.69 -358.78 1275.69 384.89 602.19"/><polygon class="cls-6" points="384.89 602.19 1205.3 602.19 1482.61 1275.69 -358.78 1275.69 384.89 602.19"/><path class="cls-8" d="M1298.05,1217H1167.16c-49.12,0-91.44-30.3-94.36-65.54l-7-84c-2.34-28.27,28.8-50,69.43-50h108.3c40.63,0,81.19,21.78,91.09,50l29.39,84C1376.38,1186.72,1347.16,1217,1298.05,1217Z"/><path class="cls-7" d="M955,1217H824.1c-49.11,0-82.45-30.3-74.91-65.54l18-84c6.05-28.27,43.65-50,84.28-50h108.3c40.63,0,74.73,21.78,76.23,50l4.47,84C1042.31,1186.72,1004.11,1217,955,1217Z"/><path class="cls-8" d="M611.94,1217H481.05c-49.12,0-73.46-30.3-55.46-65.54l42.89-84c14.43-28.27,58.5-50,99.13-50h108.3c40.63,0,68.27,21.78,61.38,50l-20.46,84C708.25,1186.72,661.05,1217,611.94,1217Z"/><path class="cls-7" d="M268.88,1217H138c-49.11,0-64.47-30.3-36-65.54l67.81-84c22.83-28.27,73.36-50,114-50H392.07c40.64,0,61.81,21.78,46.54,50l-45.38,84C374.18,1186.72,318,1217,268.88,1217Z"/><path class="cls-8" d="M-74.17,1217h-130.9c-49.11,0-55.48-30.3-16.56-65.54l92.74-84c31.22-28.27,88.2-50,128.84-50H108.24c40.64,0,55.35,21.78,31.69,50l-70.31,84C40.11,1186.72-25.06,1217-74.17,1217Z"/><path class="cls-7" d="M1238.65,999.44H1132.4c-39.87,0-73.86-20.06-75.81-43.66l-4.75-57.34c-1.63-19.66,24.74-34.94,58.84-34.94h90.86c34.1,0,67.08,15.28,74,34.94l20.07,57.34C1303.82,979.38,1278.52,999.44,1238.65,999.44Z"/><path class="cls-8" d="M960.16,999.44H853.91c-39.87,0-67.9-20.06-62.86-43.66l12.27-57.34c4.21-19.66,35.11-34.94,69.21-34.94h90.86c34.1,0,62.55,15.28,63.6,34.94l3,57.34C1031.29,979.38,1000,999.44,960.16,999.44Z"/><path class="cls-7" d="M681.68,999.44H575.42c-39.87,0-61.95-20.06-49.9-43.66l29.28-57.34c10.05-19.66,45.49-34.94,79.58-34.94h90.86c34.1,0,58,15.28,53.23,34.94l-14,57.34C758.75,979.38,721.55,999.44,681.68,999.44Z"/><path class="cls-8" d="M403.19,999.44H296.93c-39.87,0-56-20.06-36.94-43.66l46.3-57.34c15.87-19.66,55.85-34.94,89.94-34.94H487.1c34.09,0,53.48,15.28,42.85,34.94l-31,57.34C486.22,979.38,443.06,999.44,403.19,999.44Z"/><path class="cls-7" d="M124.7,999.44H18.44c-39.87,0-50-20.06-24-43.66l63.32-57.34C79.48,878.78,124,863.5,158.08,863.5H249c34.09,0,48.95,15.28,32.48,34.94l-48,57.34C213.68,979.38,164.57,999.44,124.7,999.44Z"/><path class="cls-8" d="M1198.07,850.79h-89.42c-33.56,0-61.94-14.26-63.34-31.15L1041.86,778c-1.2-14.46,21.67-25.77,51-25.77h78.27c29.37,0,57.13,11.31,62.19,25.77l14.57,41.63C1253.84,836.53,1231.63,850.79,1198.07,850.79Z"/><path class="cls-7" d="M963.7,850.79H874.27c-33.55,0-57.71-14.26-54.09-31.15l8.9-41.63c3.1-14.46,29.32-25.77,58.69-25.77H966c29.36,0,53.77,11.31,54.54,25.77l2.22,41.63C1023.69,836.53,997.25,850.79,963.7,850.79Z"/><path class="cls-8" d="M729.32,850.79H639.89c-33.55,0-53.47-14.26-44.84-31.15L616.3,778c7.39-14.46,37-25.77,66.34-25.77H760.9c29.37,0,50.43,11.31,46.9,25.77l-10.14,41.63C793.55,836.53,762.87,850.79,729.32,850.79Z"/><path class="cls-7" d="M494.94,850.79H405.52c-33.56,0-49.25-14.26-35.61-31.15L403.52,778c11.68-14.46,44.62-25.77,74-25.77h78.27c29.37,0,47.07,11.31,39.25,25.77l-22.49,41.63C563.4,836.53,528.5,850.79,494.94,850.79Z"/><path class="cls-8" d="M260.57,850.79H171.14c-33.55,0-45-14.26-26.36-31.15l46-41.63c16-14.46,52.26-25.77,81.63-25.77h78.27c29.37,0,43.71,11.31,31.6,25.77L347.4,819.64C333.26,836.53,294.12,850.79,260.57,850.79Z"/><path class="cls-7" d="M1168.59,742.79h-77.2c-29,0-53.33-10.65-54.38-23.34l-2.62-31.58c-.92-11.09,19.27-19.79,45.06-19.79h68.74c25.79,0,49.75,8.7,53.63,19.79l11,31.58C1217.31,732.14,1197.55,742.79,1168.59,742.79Z"/><path class="cls-8" d="M966.26,742.79h-77.2c-29,0-50.17-10.65-47.45-23.34l6.75-31.58c2.38-11.09,25.15-19.79,50.94-19.79H968c25.79,0,47.16,8.7,47.75,19.79l1.68,31.58C1018.14,732.14,995.23,742.79,966.26,742.79Z"/><path class="cls-7" d="M763.93,742.79H686.74c-29,0-47-10.65-40.53-23.34l16.13-31.58c5.66-11.09,31-19.79,56.8-19.79h68.74c25.79,0,44.58,8.7,41.88,19.79l-7.69,31.58C819,732.14,792.9,742.79,763.93,742.79Z"/><path class="cls-8" d="M561.61,742.79h-77.2c-29,0-43.85-10.65-33.6-23.34l25.5-31.58c8.95-11.09,36.88-19.79,62.68-19.79h68.73c25.8,0,42,8.7,36,19.79l-17.06,31.58C619.81,732.14,590.57,742.79,561.61,742.79Z"/><path class="cls-7" d="M359.28,742.79h-77.2c-29,0-40.69-10.65-26.68-23.34l34.88-31.58c12.24-11.09,42.76-19.79,68.55-19.79h68.74c25.79,0,39.41,8.7,30.14,19.79l-26.44,31.58C420.64,732.14,388.25,742.79,359.28,742.79Z"/><path class="cls-8" d="M1146.2,660.78h-67.91c-25.48,0-46.83-8.26-47.64-18.14l-2.06-24.78c-.72-8.77,17.34-15.67,40.34-15.67h61.27c23,0,44,6.9,47.12,15.67l8.67,24.78C1189.45,652.52,1171.68,660.78,1146.2,660.78Z"/><path class="cls-7" d="M968.21,660.78H900.3c-25.48,0-44.37-8.26-42.26-18.14l5.3-24.78c1.88-8.77,22-15.67,45-15.67H969.6c23,0,42,6.9,42.47,15.67l1.31,24.78C1013.91,652.52,993.69,660.78,968.21,660.78Z"/><path class="cls-8" d="M790.22,660.78H722.31c-25.48,0-41.92-8.26-36.88-18.14l12.66-24.78c4.47-8.77,26.64-15.67,49.63-15.67H809c23,0,40,6.9,37.82,15.67l-6,24.78C838.37,652.52,815.7,660.78,790.22,660.78Z"/><path class="cls-7" d="M612.23,660.78H544.32c-25.48,0-39.47-8.26-31.49-18.14l20-24.78c7.07-8.77,31.29-15.67,54.28-15.67H648.4c23,0,37.9,6.9,33.16,15.67l-13.39,24.78C662.83,652.52,637.71,660.78,612.23,660.78Z"/><path class="cls-8" d="M434.24,660.78H366.33c-25.48,0-37-8.26-26.11-18.14l27.37-24.78c9.67-8.77,35.94-15.67,58.93-15.67H487.8c23,0,35.85,6.9,28.51,15.67l-20.75,24.78C487.29,652.52,459.72,660.78,434.24,660.78Z"/><polygon class="cls-1" points="-435.52 602.19 384.89 602.19 -358.78 1275.69 -2200.17 1275.69 -435.52 602.19"/><polygon class="cls-6" points="-435.52 602.19 384.89 602.19 -358.78 1275.69 -2200.17 1275.69 -435.52 602.19"/><path class="cls-7" d="M-184,999.44H-290.22c-39.87,0-43.44-20.06-9.62-43.66l82.17-57.34c28.18-19.66,77.71-34.94,111.81-34.94H-15c34.1,0,43.92,15.28,21,34.94l-66.86,57.34C-88.38,979.38-144.09,999.44-184,999.44Z"/><path class="cls-8" d="M.8,850.79H-88.62c-33.56,0-40.33-14.26-16.12-31.15L-45.09,778c20.73-14.46,60.74-25.77,90.11-25.77h78.26c29.37,0,40,11.31,23.13,25.77L97.88,819.64C78.18,836.53,34.36,850.79.8,850.79Z"/><path class="cls-7" d="M135,742.79H57.84c-29,0-37.19-10.65-19-23.34L84.1,687.87c15.88-11.09,49.26-19.79,75.06-19.79h68.73c25.8,0,36.56,8.7,23.64,19.79L214.7,719.45C199.9,732.14,164,742.79,135,742.79Z"/><path class="cls-8" d="M-67.29,742.79h-77.2c-29,0-34-10.65-12.08-23.34l54.64-31.58c19.18-11.09,55.14-19.79,80.93-19.79H47.74c25.79,0,34,8.7,17.76,19.79L19.3,719.45C.73,732.14-38.33,742.79-67.29,742.79Z"/><path class="cls-8" d="M237,660.78H169.06c-25.48,0-34.3-8.26-20.15-18.14l35.52-24.78c12.56-8.77,41.1-15.67,64.09-15.67H309.8c23,0,33.58,6.9,23.36,15.67l-28.9,24.78C292.74,652.52,262.45,660.78,237,660.78Z"/><path class="cls-7" d="M59,660.78H-8.93c-25.48,0-31.85-8.26-14.76-18.14l42.87-24.78c15.16-8.77,45.74-15.67,68.74-15.67h61.27c23,0,31.54,6.9,18.72,15.67l-36.26,24.78C117.2,652.52,84.46,660.78,59,660.78Z"/><path class="cls-8" d="M-119,660.78h-67.91c-25.48,0-29.4-8.26-9.38-18.14l50.23-24.78c17.76-8.77,50.39-15.67,73.38-15.67h61.28c23,0,29.49,6.9,14.07,15.67l-43.61,24.78C-58.34,652.52-93.52,660.78-119,660.78Z"/></g></g><path class="cls-10" d="M1818,772.24a17.67,17.67,0,0,1-6.92-1.55c-5.94-3-235.26-86.34-578.4-210.56-32.82-35.59-68.41-83.25-92.17-142.45-58.78-146.4-8.62-272.19,20.28-329.12l848.47,170.85C1947.83,529.05,1876.68,774.78,1818,772.24Z"/><path class="cls-11" d="M1985.09,253.25c193.06-56.31,269.25-80.32,273.74-84.39.36-.32,3.17-3.16,6.62-3,4,.17,6.42,4.18,6.62,4.52,2.45,4.11.35,8.31,0,9-11.46,24-132.27,495.16-132.45,498.65,0,0,0,.16,0,.36a6.54,6.54,0,0,1-2.18,4.09c-2.29,2.1-5.75,2.78-6.62,3-8.12,1.77-257.72,62.19-298,77.2-2.94,1.09-14.61,5.19-17.67,3-2.44-1.77,1.75-6.82,2.21-7.42C1823.83,749.67,1875,596.74,1985.09,253.25Z"/><path class="cls-12" d="M1871.05,54.61C2085.41,98,2291.62,146,2284.46,170.66c-.54,1.84-2.1,3-4.68,4.71-81.28,54.65-239.06,76.49-269,86.45a57.57,57.57,0,0,1-18.71,3.15,61.67,61.67,0,0,1-18.7-3.14c-8.78-2.6-21.62-6-39.76-9.42a278.38,278.38,0,0,0-4.92-50.58c-2.69-13.42-7.34-29.69-7.9-31.65q-1.61-5.62-3.41-11.37A513.4,513.4,0,0,0,1871.05,54.61Z"/><path class="cls-13" d="M387.71,728.49C390.54,833,549,901.74,587,918.25c367.58,159.83,1032.61-33.55,1036.07-165,2.21-84-265-176.61-305-190.44-67.89-23.51-126.64-35.7-157.47-41.68-66.5-12.88-176.48-34.18-316.55-27.42-104.7,5.06-238.19,11.5-343.86,80.07C475,590.17,385.54,648.22,387.71,728.49Z"/><path class="cls-11" d="M1154.76,637c-39.89-15.43-79.09-20.13-112.48-24.14a688.59,688.59,0,0,0-143-2.19c-44,4-220.93,20.32-253.88,94.34-13.71,30.81,3.54,58.12,6.43,62.52,29.54,45,108.33,59.13,154.25,66.91,186.16,31.55,453.95-3.09,474-76.78C1292.07,713.69,1214.69,660.17,1154.76,637Z"/><path class="cls-14" d="M1623.49,752.93c15,40.39,28.42,106.13-13.21,174.8-99.45,164-450.62,241.49-726.46,209.56-50.5-5.84-265.4-30.71-399.55-154.35C382.46,889.1,385,791.66,388.51,757c18.64,31.28,58.78,85.07,143.64,130.85,118.57,64,251.38,72.87,338.47,78.71,231.6,15.54,401.77-37.9,538.23-80.76,85.37-26.81,143.92-55.25,184.92-96.09A209.2,209.2,0,0,0,1623.49,752.93Z"/><path class="cls-10" d="M1927.89,828.76c99.66-39.27,165.16-97.11,209.38-152.08l-331.66,91.47L1634.76,719l-23.45,1.14c15.44,30.16,52.54,116.17-1.68,208.11-57.35,97.24-181.24,140.69-249.58,164.66-100.1,35.1-192.66,44.23-247.9,46.88q1.66,72.62,3.35,145.22l665-164.66c-48.71-154.22-6.35-219.43,41.88-250.42C1852.06,850.84,1878.72,848.13,1927.89,828.76Z"/><path class="cls-15" d="M1805.19,767.78c-11.33,6.73-31.75,17-61,22.3-52.22,9.56-95.74-3.18-108.86-7.44a201.75,201.75,0,0,0-19.6-50.53,251.4,251.4,0,0,0-41.36-55Z"/><path class="cls-13" d="M1909.18,110.83C1882.61,49.19,1851.9-22,1753.2-71,1622-136,1429.2-132.64,1293-89.47c-2.56.81-3.82,1.24-5.85,1.9-229.29,74.31-180.22,320.32-167.31,378.65,15.62,70.66,37.46,115,47.87,131.31,36.44,57,84.9,96.75,118.64,120.5a1060.8,1060.8,0,0,1,169.18,60.61c73.42,33.81,127.76,70,165.83,99.48,69.38-40.08,187.21-120,257.42-246.55C1904.43,410.22,1978.35,271.22,1909.18,110.83Z"/><path class="cls-16" d="M1265.25,779.67A1104.88,1104.88,0,0,0,993.1,764.81c-117.81,8.11-208.46,33.3-263.44,52,5.67,1.94,13.86,4.62,24,7.43,11.74,3.27,39.42,10.45,95.79,16.35,21.21,2.22,52.19,5.38,93.62,5.94,22.39.31,83.58.34,163.29-11.89,101.51-15.57,133.49-35.75,145.87-44.58A153.88,153.88,0,0,0,1265.25,779.67Z"/><path class="cls-17" d="M1223.88,804.94c-25.79.54-64.31.72-111-1.49-72.6-3.43-130.91-11-137.16,0-3.54,6.26,13.36,11.92,10.89,19.32-7.09,21.24-158.74,12.58-158.94,14.87-.16,1.9,103,18.24,233,3A836.84,836.84,0,0,0,1223.88,804.94Z"/><path d="M1378.47,275.14c34.57,27.32,13,80.33-5.36,82-15.14,1.37-32.7-31.87-42.65-50.74-10.46-19.79-20.81-39.39-9.63-45.82S1362,262.14,1378.47,275.14Z"/><path d="M1541.7,294.06c40.67,30.72,14.31,91.58-4.66,92.91-11.32.8-22.69-19.43-35.11-41.5-9.31-16.56-32.35-57.54-14.42-66.31C1499.23,273.43,1526.39,282.49,1541.7,294.06Z"/><path d="M1561.34,440.81c3,3.19-48.28,48.29-115.39,44.58-75.12-4.15-114.26-66.4-111-68.36,2.88-1.76,39.91,44.4,106.68,50.53C1506.6,473.53,1558.45,437.76,1561.34,440.81Z"/><ellipse class="cls-18" cx="1361.04" cy="308.53" rx="13.06" ry="8.92"/><ellipse class="cls-18" cx="1524.33" cy="335.28" rx="13.06" ry="8.92"/></g><path class="cls-19" d="M189.18,142.9c9.51,30.47,8.64,50.07,5.7,62.65a194.32,194.32,0,0,0-4.14,21.23,185.59,185.59,0,0,0-1.56,32.1H52.48A94.21,94.21,0,0,1,53,247.49c1.08-10.21,3.28-15,4.14-20.71s.66-14.19-4.66-25.37Z"/><path class="cls-20" d="M52.48,201.41a47.77,47.77,0,0,1-17.08-14.5c-2.3-3.22-7.4-11.3-7.77-44.53C27.18,102,34.48,91.44,39,86.46a40.19,40.19,0,0,1,5.7-5.18c17.67-2.44,37.07-4.32,58-5.18a604.32,604.32,0,0,1,67.83,1,127.57,127.57,0,0,0,0,124.27Z"/><path class="cls-18" d="M170.54,201.41c-8.55-.23-15.12-32.74-16-55.92-1.26-31.32,6.88-68.11,16-68.35,8.43-.23,17.48,30.4,18.64,55.92C190.69,166,179.55,201.66,170.54,201.41Z"/><ellipse class="cls-21" cx="170.54" cy="140.83" rx="8.28" ry="20.71"/><path class="cls-22" d="M170.54,121.15c-1.73,0-3,1.66-4.14,3.11a14,14,0,0,0-2.59,6.21c-.72,3.47-.56,7.17,0,7.25.87.12,1.25-8.52,4.66-9.32,3.22-.76,6.78,6,8.29,5.18,1-.56.05-4-.52-5.7C176,127.23,173.91,121.11,170.54,121.15Z"/><path class="cls-20" d="M171.06,98.37c-3.66.08-6.23,5.58-7.25,7.76-5.25,11.25-4.79,29-5.18,34.18,0,.46-.12,1.47-.51,1.55s-.88-.75-1-1c-1.59-2.73.48-54.61,12.94-54.89,12.17-.27,16.66,49,16.06,50.23-.26.51-.52.51-.52.51-.26,0-.45-.38-.52-.51-.71-1.41-1.4-20-6.21-30C178.13,104.68,175.05,98.27,171.06,98.37Z"/><path class="cls-23" d="M189,727c0-1.45,0-3.6,0-6.22a223.3,223.3,0,0,1,5.69-46.6c2.63-12.55,3.33-32-5.69-61.62a172.18,172.18,0,0,0-5.18-43.49s-6.09-23.82-13.46-23.82h-2.07a564.67,564.67,0,0,0-69.39-1c-19.59.92-37.77,2.79-54.37,5.18a35,35,0,0,0-5.69,5.18c-8.56,9.7-9.47,21.79-9.84,29.51-2,41-3.25,66.77,14.5,80.78A37.82,37.82,0,0,0,52.3,670c4.35,8.09,5.2,14.67,5.18,19.16,0,8.6-3.29,13.38-4.66,26.92A100.45,100.45,0,0,0,52.3,727Z"/><path class="cls-19" d="M192,376.66c9.51,30.48,8.63,50.08,5.7,62.66a196,196,0,0,0-4.15,21.23,186.38,186.38,0,0,0-1.55,32.1H55.32a94.21,94.21,0,0,1,.52-11.39c1.08-10.21,3.28-15,4.14-20.71s.65-14.19-4.66-25.37Z"/><path class="cls-20" d="M55.32,435.18a47.88,47.88,0,0,1-17.09-14.5c-2.3-3.22-7.4-11.3-7.76-44.53-.45-40.44,6.85-50.95,11.39-55.93a41.23,41.23,0,0,1,5.69-5.17c17.68-2.44,37.08-4.33,58-5.18a604.55,604.55,0,0,1,67.83,1,127.59,127.59,0,0,0,0,124.28Z"/><path class="cls-18" d="M173.38,435.18c-8.55-.24-15.12-32.74-16-55.93-1.26-31.32,6.88-68.1,16-68.35,8.43-.22,17.47,30.41,18.64,55.93C193.53,399.79,182.39,435.42,173.38,435.18Z"/><ellipse class="cls-21" cx="173.38" cy="374.59" rx="8.28" ry="20.71"/><path class="cls-22" d="M173.38,354.92c-1.73,0-3,1.66-4.14,3.1a14,14,0,0,0-2.59,6.22c-.72,3.47-.56,7.17,0,7.25.86.12,1.24-8.52,4.66-9.32,3.22-.76,6.78,6,8.28,5.17,1-.56.06-4-.51-5.69C178.86,361,176.74,354.87,173.38,354.92Z"/><path class="cls-20" d="M173.9,332.13c-3.66.09-6.23,5.59-7.25,7.77-5.25,11.25-4.79,29-5.18,34.18,0,.46-.13,1.46-.52,1.55s-.87-.75-1-1c-1.59-2.72.48-54.61,12.94-54.88,12.17-.27,16.66,49,16,50.22-.26.52-.51.52-.51.52-.26,0-.45-.38-.52-.52-.71-1.4-1.4-20-6.22-30C181,338.45,177.89,332,173.9,332.13Z"/><path class="cls-24" d="M715.13,220.1a76.93,76.93,0,0,1-3.28-20.19c-.86-32.57,19.69-56.12,26.8-63.59a176,176,0,0,1,1.81,25c0,11.91-1.15,16,.38,22.54,1.46,6.2,5.48,14.7,17.36,23.48a124.32,124.32,0,0,1-12.82,9.81c-10.31,6.88-17.4,11.51-23.68,9.1A13.4,13.4,0,0,1,715.13,220.1Z"/><path class="cls-24" d="M797.71,97.67a57.13,57.13,0,0,1,20.15-6.94c18.44-2.62,32.84,4.78,38,7.77a8.54,8.54,0,0,1,2.22,2.52c2.17,3.84.3,8.23-3,18.5-.73,2.26-1.84,5.73-3.12,10-3.09-5.42-12.49-20.23-31.21-27.67A60.41,60.41,0,0,0,797.71,97.67Z"/><path class="cls-24" d="M852,132.65a53.54,53.54,0,0,1,3.8,25.06c-13.33,3.88-18.52,9.88-20.84,14.4-5.84,11.34.86,24.09-7,30.7a96.46,96.46,0,0,1-10.57,7c-2.09,1.21-3.86,2.16-5.09,2.8l-8.87-10.5a40.48,40.48,0,0,0-32.95,11.15,66.5,66.5,0,0,1-25.3-24.21c-13.92-23.51-7.88-47.74-6.52-52.73a37.35,37.35,0,0,0,14.14,1.29c8.5-.88,14.36-4.54,18.24-7,15.69-10,24.22-26.7,27.25-33.25a62.37,62.37,0,0,1,27.49,7.1,58.76,58.76,0,0,1,13,9.27A56.68,56.68,0,0,1,852,132.65Z"/><path class="cls-24" d="M781.33,23.5c0,6-3.39,13.58-8.85,15-3.54.92-4.45-1.66-11.38-2.56-7.52-1-10,1.58-12.44-.44-3.5-2.9-2.16-11.3,1.07-16.61,4.09-6.7,11.15-8.4,12.48-8.72a16.34,16.34,0,0,1,10.06.28,14,14,0,0,1,7.14,5.77A14,14,0,0,1,781.33,23.5Z"/><path class="cls-24" d="M889.69,204.6a29.43,29.43,0,0,1-4.81,3.54c-20.39,12.06-54.17-1.53-58.83-15.94a21.37,21.37,0,0,1-.82-8.25c.65-5.18,3.25-8.75,6.08-11.89a50.71,50.71,0,0,1,19.57-13.58,48.67,48.67,0,0,1,7.84-2.25,93.42,93.42,0,0,1,22-2.8c6.33-.06,9.58.2,12.86,2.48a14.57,14.57,0,0,1,4.11,4.48,26.11,26.11,0,0,1,3.8,9.23c1.22,6.24-.31,11.21-2,16.37A61.7,61.7,0,0,1,889.69,204.6Z"/><path class="cls-24" d="M799.15,59.65a39,39,0,0,1,3.72,18.62c-.55,27.77-25.78,46.18-29.51,48.81-8.3,5.88-16.06,11.37-26.53,10.76-21-1.23-32.94-25.84-35.56-31.26-3.27-6.74-10.81-22.3-4.75-39.78,4.55-13.1,14.27-20.13,17.56-22.44,18.14-12.73,42.33-11.25,58.39-1.73C786.32,44.91,794.33,49.8,799.15,59.65Z"/><ellipse cx="733.35" cy="79.3" rx="6.43" ry="8.7" transform="translate(217.46 606.51) rotate(-51.79)"/><ellipse cx="755.86" cy="58.22" rx="5.89" ry="7.97" transform="translate(217.04 591.51) rotate(-49.11)"/><path class="cls-24" d="M710.08,42.54a43.15,43.15,0,0,1,0,5.32A51.45,51.45,0,0,1,708.35,58c-.84,3.46-2,7.72-3.38,12.61l22.95-26.19a15.46,15.46,0,0,1-5.64-.55c-1.91-.57-2.45-1.16-6.07-2.59-3.23-1.28-4.3-1.4-5.07-.88A2.94,2.94,0,0,0,710.08,42.54Z"/><path class="cls-24" d="M807.58,205.22a23.48,23.48,0,0,0-10-4.55c-13.11-2.4-23.17,8.22-24.24,9.36-2.16,2.32-3.21,4.27-5,7.64a67.61,67.61,0,0,0-7.81,29.55,70.61,70.61,0,0,0,2,19.37,27.35,27.35,0,0,0,11.25,10.26C783.62,281.53,796,279.5,806,272a32.8,32.8,0,0,0,7.58-6.66c13.24-16,5.61-39.15,4.55-42.22A52.62,52.62,0,0,0,807.58,205.22Z"/><path class="cls-25" d="M788.3,65.92c-6.64-7.13-32.93-.27-44.17,17.12-6.39,9.89-9.39,25.44-3.22,30,4.77,3.55,14.45.13,19.77-5.33,4-4.1,7.78-11.65,5.24-16-1.54-2.63-6.64-6.14-6.65-7.58a1.64,1.64,0,0,1,.24-.9,1.84,1.84,0,0,1,1.14-.66c1.48-.26,3,5.77,6.09,7.91,4.52,3.16,15-.31,19.92-7.69C789.82,78.11,792,69.83,788.3,65.92Z"/><path d="M760.67,68.17c.93,2.14,3.11,7.9.46,12.67a8.67,8.67,0,0,1-.81,1.23A7.36,7.36,0,0,1,758,83.39c-5.2,1.86-10.65-3-11.13-3.47a20.17,20.17,0,0,1,1.86-3.36,21.3,21.3,0,0,1,8.15-7A20.6,20.6,0,0,1,760.67,68.17Z"/><path class="cls-24" d="M743.52,38.47c-7.83,4.64-15.82,9.73-23.9,15.32-2,1.39-4,2.79-6,4.2a64.44,64.44,0,0,0,14.18-29.51,8.38,8.38,0,0,1,4.18.63c3.3,1.49,3.66,4.6,7.23,7.25A13.82,13.82,0,0,0,743.52,38.47Z"/><path class="cls-18" d="M734.53,75.64c1.47.92,2.57,3.06,1.73,4.33s-3,1.22-4.41.27c-1.56-1.08-2.2-3.56-1.17-4.66C731.56,74.64,733.41,75,734.53,75.64Z"/><path class="cls-18" d="M757,54.91c1.48.91,2.58,3.06,1.74,4.32s-3,1.22-4.42.27c-1.55-1.08-2.2-3.55-1.16-4.66C754,53.9,755.87,54.21,757,54.91Z"/><path class="cls-26" d="M896.16,169.64c-2.06-1.48-5.42-1-6.54-.79a13.44,13.44,0,0,0-6,2.73A20,20,0,0,0,877,180a17.9,17.9,0,0,0-1.43,10.72c.89,4.43,4.19,10.89,8.64,11,4,.11,6.95-5.08,9.2-9.12C897.68,184.89,900.69,172.91,896.16,169.64Z"/><path class="cls-27" d="M883.46,164.79a3.6,3.6,0,0,1-1,3.61c-1.53,1.59-4.63,2-5.89.35s-.48-4.29,1.45-5.41S882.74,163,883.46,164.79Z"/><path class="cls-27" d="M870.59,176.79c1.69,1.79.66,5.6-1.69,6.31a3.71,3.71,0,1,1,1.69-6.31Z"/><path class="cls-27" d="M871.5,196.83c.85,1.37,1.11,3.73-.31,4.74s-3.56.2-4.5-1.2c-1.26-1.89-.24-4.94,1.45-5.41C869.4,194.61,870.83,195.74,871.5,196.83Z"/><path class="cls-28" d="M804.93,265.34c.51-2.49-1.34-5.34-2-6.29a13.35,13.35,0,0,0-5-4.4,20,20,0,0,0-10.34-2.59,17.94,17.94,0,0,0-10.36,3.09c-3.67,2.62-8.22,8.27-6.51,12.38,1.55,3.74,7.48,4.26,12.09,4.67C791.64,273,803.8,270.81,804.93,265.34Z"/><path class="cls-27" d="M804,254.14a3.58,3.58,0,0,1-3.68.6c-2.08-.75-3.69-3.42-2.73-5.23s3.72-2.19,5.52-.89S805.33,252.75,804,254.14Z"/><path class="cls-27" d="M789,248.12c-.94,2.27-4.84,2.89-6.45,1a3.72,3.72,0,1,1,6.45-1Z"/><path class="cls-27" d="M772.58,257.06c-.91,1.33-3,2.54-4.46,1.66s-1.63-3.18-.74-4.6c1.21-1.93,4.41-2.25,5.53-.89C773.74,254.23,773.3,256,772.58,257.06Z"/><path class="cls-24" d="M705.22,89.52c.93,3.77,1.81,4.37,1.26,6.13-1.69,5.31-12.86,8.72-20.1,4.75a15.32,15.32,0,0,1-5.67-5.87,21,21,0,0,1-2.84-12.83A26.48,26.48,0,0,1,680.59,68a21.19,21.19,0,0,1,5.2-6.81,16.52,16.52,0,0,1,12.74-4.31c1.7.13,7.66.6,9.1,3.88.75,1.71-.16,3.2-1.12,6A43.07,43.07,0,0,0,705.22,89.52Z"/><path class="cls-29" d="M704.36,80.11a23,23,0,0,0,0,5.32,15.88,15.88,0,0,0,.41,2,7,7,0,0,1-3.33,3.45c-3.31,1.5-7.5-.31-9.51-3.27-2.3-3.4-1.78-8.42,1.26-11a8.45,8.45,0,0,1,6.7-1.59c.59.09,3.89.62,4.6,2.68C704.68,78.22,704.53,78.26,704.36,80.11Z"/><path class="cls-30" d="M767.74,29c1.57,2.62.27,6.21-1.57,7.06-.85.4-1.26,0-4.47-.42s-3.66,0-4.18-.6c-1.34-1.42-.4-6.32,3-7.89C762.79,26.07,766.23,26.47,767.74,29Z"/><path class="cls-31" d="M747.25,199.24c-8.17-11.82-9.51-24.74-8.9-24.94.3-.09,1.06,2.68,4.53,9.21,1.87,3.52,3.49,6.18,4.43,7.68a72.28,72.28,0,0,0,5,7.33,50,50,0,0,0,7.48,7.5l-3.8,3A52,52,0,0,1,747.25,199.24Z"/><path class="cls-31" d="M836.78,111.18a66.3,66.3,0,0,1,8.75,8.33,60.46,60.46,0,0,1,6.52,9.23c-.29,1.09-.59,2.18-.88,3.27a75.47,75.47,0,0,0-4.78-8.27,73.55,73.55,0,0,0-6.3-8.18A52.84,52.84,0,0,0,826.93,105c-6.59-3.69-12.62-5.13-12.54-5.35s5,.67,10.59,3.33C829.64,105.26,832.7,107.8,836.78,111.18Z"/><path class="cls-31" d="M761.19,136.41c-12,3.92-23,.38-22.93-.15s10.87,2.5,23.09-2.3c7.29-2.86,12.11-7.34,17.88-12.69,9.64-8.94,14-16.36,14.31-16.14s-5.35,11.65-16.74,21.48C772.45,130.38,768.06,134.16,761.19,136.41Z"/><path class="cls-32" d="M815.63,206.88a8.69,8.69,0,0,0,6-1.89,8.88,8.88,0,0,0,3.12-4.16,11.48,11.48,0,0,0,.31-4.91c-.13-1.77-.38-1.87-.52-3.63-.21-2.58.12-4.91.32-4.91a35.08,35.08,0,0,0,.52,3.64,16.29,16.29,0,0,0,5.71,8.52A53.26,53.26,0,0,1,819,209.3a50.55,50.55,0,0,1-5.77,2.92,24.79,24.79,0,0,0-3.32-4.38c-4.46-4.68-9.41-6.08-9.25-6.48s5.57.12,10.59,3.34C812.87,205.76,813.79,206.67,815.63,206.88Z"/><path class="cls-33" d="M1284.47,776.93c.11-2.56,2-3,3.38-7.79.69-2.47.6-3.87,1.36-4.07,1.21-.31,3,2.88,4.06,4.75,1.83,3.23,2.74,4.85,2.71,7.11,0,3.15-1.87,7.41-4.74,7.79C1288,785.15,1284.3,780.58,1284.47,776.93Z"/><path class="cls-24" d="M1136.1,878.21c18.21-5.27,25.45-36.83,15-47.7-6.9-7.21-20.9-4.49-30.62-2.43-7.11,1.5-21.83,4-24.39,12.87-1.05,3.68.18,7.68,1.36,11.51a39.42,39.42,0,0,0,6.1,11.52C1109.17,871,1123.13,882,1136.1,878.21Z"/><path class="cls-24" d="M1252.12,862c.08-9.43-6.68-16.12-11-20.41a41.58,41.58,0,0,0-14.91-9.48c-4.39-1.58-17.93-6.47-27.77.68-6.77,4.92-8.32,13-8.81,15.58-3,15.8,6.37,37.4,23.71,41.32,12.79,2.89,23.69-5.24,25.75-6.77C1242.19,880.62,1252,873.3,1252.12,862Z"/><path class="cls-24" d="M1243.82,788.11a16.87,16.87,0,0,0-2.71-9.49c-1.48-2.16-2.95-3-2.71-3.39.48-.73,7.7,1.26,11.51,6.76.83,1.21,1.64,2.37,2.54,3.81a72.39,72.39,0,0,1,3.55,6.34c2.7,5.58,5.19,10.73,3.4,15.61a10.92,10.92,0,0,1-2.71,4.07L1239.08,820a47.62,47.62,0,0,0,2-4.75,70.06,70.06,0,0,0,3.39-16.93A46.6,46.6,0,0,0,1243.82,788.11Z"/><path class="cls-24" d="M1180.14,731.88s-17,2.39-39.29,10.16c0,0-15,5.21-24.71,15.2a13.49,13.49,0,0,0-4.06,7.46,12.23,12.23,0,0,0,1.35,7.45c2.31,4.26,3.49,8.11,7.46,14.9,1.67,2.87,2.35,3.89,3,3.77,1.34-.25.94-4.71,2.71-10.84a45.66,45.66,0,0,1,3.39-8.13,103.93,103.93,0,0,1,12.19-19l11.52-10.16a54.55,54.55,0,0,1,7.45-4.74A55.2,55.2,0,0,1,1180.14,731.88Z"/><path class="cls-24" d="M1296,681.75c2.18.52,2.7,1,2.71,1.35,0,1.07-4.43,1.16-8.13,4.07a13.79,13.79,0,0,0-4.06,5.42A42.61,42.61,0,0,0,1256,675.65a33.43,33.43,0,0,1,8.13-.68c8,.33,11.75,3.41,21,5.42A61.68,61.68,0,0,0,1296,681.75Z"/><path class="cls-24" d="M1285.14,690.55a29.67,29.67,0,0,0,8.13,5.42c3.07,1.37,6.16,2.08,11.52,4.75,2.16,1.07,4.2,2.22,4.06,3.38-.07.62-.75,1.07-1.35,1.36-.79-.3-6.14-2.26-10.84.68a10.8,10.8,0,0,0-3.39,3.38,46.3,46.3,0,0,0-8.13-19Z"/><path class="cls-24" d="M1244.74,795.26c.13,22-13.42,37.58-17.61,42-16.93,17.92-38.41,19.82-45.39,20.33-6.09.44-39.67,2.88-54.87-19.65-11.82-17.51-5.41-39.56-1.36-53.52,2.26-7.78,6-20.16,16.94-31.84,3.56-3.8,18.76-20.06,40-21C1213.46,730.21,1244.55,762.23,1244.74,795.26Z"/><path class="cls-24" d="M1281.76,687.17c-15.51-15.15-38.94-12.18-49.46-10.84-8,1-18,2.28-28.45,9.48-19.07,13.17-22.55,34.61-23,37.94-.75,5.09-4.33,29.59,12.87,44.71,15.44,13.59,36.27,9.6,40,8.81,14-3,23.82-14.2,43.35-36.59,14-16.06,16.14-22.45,16.26-28.45C1293.54,698.68,1283.57,688.94,1281.76,687.17Z"/><path d="M1260.73,715.53a3.63,3.63,0,0,0-1-3.35c-2.15-2.33-6.88-1.6-9.87,0-3.51,1.94-6.48,6.15-5.36,8.17.82,1.47,3.71,1.62,5.61,1.19s2-1.37,5-3C1258.5,716.77,1260.23,717,1260.73,715.53Z"/><path d="M1268.88,729.85c.1-1.88-2.55-3.31-2.71-3.39-2.29-1.2-4.68-.44-6.09,0-1.06.33-4.48,1.41-6.1,4.74-.35.72-1.59,3.27-.56,4.53,1.54,1.89,7.06-.52,10-1.82S1268.79,731.55,1268.88,729.85Z"/><path class="cls-34" d="M1125.26,874.82c-2.23,1.74-10.38-4.94-14.9-9.48-6-6.09-11.48-14.29-10.16-15.59.57-.56,4.46,1.88,12.19,6.78,7.23,4.57,9.18,6.09,10.84,8.81C1125.22,868.58,1126.82,873.61,1125.26,874.82Z"/><path class="cls-27" d="M1115.1,848.4a2.35,2.35,0,0,1-1.35,2c-1.81.85-4.84-1-4.74-2.71a2.64,2.64,0,0,1,2-2,3.22,3.22,0,0,1,2.71.68A2.7,2.7,0,0,1,1115.1,848.4Z"/><path class="cls-27" d="M1125.26,856.53c-.12,1.54-2.16,2.93-4.06,2.71-2.06-.24-3.84-2.36-3.39-4.07a3.26,3.26,0,0,1,2.71-2C1122.76,852.81,1125.42,854.66,1125.26,856.53Z"/><path class="cls-27" d="M1136.1,866c-.1-1.35-2.72-2.6-4.74-2-.21.06-1.73.49-2,1.69s.84,2.63,2,3.05C1133.46,869.48,1136.22,867.47,1136.1,866Z"/><path class="cls-24" d="M1258.72,676.33c-4.19,2.18-6.47-.67-16.26-.68-11,0-13.86,3.57-16.93,1.35-5.74-4.12-5-23.29,6.77-31.16a22.45,22.45,0,0,1,23-.68c1.31.75,8.66,4.93,10.17,13.55C1266.65,665.34,1264.17,673.48,1258.72,676.33Z"/><path class="cls-24" d="M1270.92,748.81c0-1.43,1.37-3,4.06-6.09,8.15-9.35,8.34-9.56,8.81-10.16,5.49-7.08,4.69-10.25,7.45-10.84,4.28-.93,10.06,5.86,12.19,12.19.55,1.61,2.81,8.3-.67,14.9-4.34,8.22-14.84,11.13-22.36,8.81C1276.18,756.32,1270.85,752.73,1270.92,748.81Z"/><path class="cls-35" d="M1249.24,676.33c-1.12.45-1.7-.57-4.74-.68-2.45-.09-3,.53-4.07,0-1.66-.85-2.3-3.46-2-5.42a7.58,7.58,0,0,1,6.77-6.1,6.35,6.35,0,0,1,4.75,1.36C1253.22,668.47,1251.74,675.31,1249.24,676.33Z"/><path class="cls-36" d="M1274.3,744.41c-.09,3.25,3.94,7,8.13,7.11,5,.18,8.62-4.68,9.49-8.8.72-3.44-.11-8.35-3.39-10.16a5.38,5.38,0,0,0-3.39-.68c-2.19.32-3,2-6.77,6.77C1274.93,743,1274.34,743.19,1274.3,744.41Z"/><path class="cls-25" d="M1239.05,726.53c7.52,9.36,9.74,25.25,2,35.88-4.39,6-13,11.71-20,9.75a8.22,8.22,0,0,1-4.91-3.13c-2.39-3.67,1.41-6.82,1.22-15.67-.09-4.18-1-7.53.68-8.72a34.34,34.34,0,0,1,4.85-2.3,25.31,25.31,0,0,0,4.53-2.47s1.46-1,1.23-1.47a3.12,3.12,0,0,0-.69-.58l-.05,0c-.92-.66-8.47,6-11.83,4.51a3.56,3.56,0,0,1-1.54-1.9c-3.92-7.7-9.92-8.21-10.76-13.28a9.3,9.3,0,0,1,1.46-6.26c4.16-6.24,16-5.47,23.6-2.2A27.21,27.21,0,0,1,1239.05,726.53Z"/><path class="cls-33" d="M1131.36,826.72c-1.13-1.33-3.13-1.11-17.61,2.71-7.59,2-11.61,3.15-14.91,6.78-.17.18-3.43,3.81-2.71,4.74.38.48,1.69,0,2.16-.11,7.19-2.23,16.11,3.15,18.76-.14,1.33-1.65-.61-3.43.76-5.17,2.44-3.1,9.59,1.2,12.87-2C1132.4,831.8,1132.75,828.35,1131.36,826.72Z"/><path class="cls-33" d="M1225.53,677a59.69,59.69,0,0,0-41.33,33.88c3.56,3.91,6,4.29,7.45,4.06,5.93-.93,6.74-13.49,12.88-14.22,3.27-.39,4.69,3,7.45,2,4-1.39,3.11-9.23,6.77-10.16,2.67-.68,4.8,3.06,7.45,2,1.74-.68,2.38-2.88,2.71-4.07C1230.63,684.56,1226.73,678.69,1225.53,677Z"/><path class="cls-33" d="M1189.62,764.4a43.34,43.34,0,0,1-6.77-11.52,43.82,43.82,0,0,1-2.71-21,61.86,61.86,0,0,0-44,32.52c8.32,1.33,10.74,4,11.52,6.09,2.55,6.72-9.29,14.7-6.1,23a8.65,8.65,0,0,0,4.07,4.74c3.68,1.68,6.62-1.39,8.81,0,3.69,2.33-1.9,12.8,2,16.26,2.76,2.43,9.94,1.16,12.19-2.71,3.87-6.67-8.53-18.28-4.74-23,2.31-2.89,7.89.16,10.84-3.38,2.54-3-.27-6.89,1.35-11.52C1177.15,770.81,1180.29,767,1189.62,764.4Z"/><path class="cls-33" d="M1139.49,743.39c-2.23-1.7-7.29,1.55-14.23,6.1-6.39,4.2-11.54,7.63-10.83,10.16a3.46,3.46,0,0,0,3.38,2c1.58-.11,2.06-1.54,4.07-3.39.59-.55,3.92-3.61,8.13-4.07,3.3-.35,5,1.14,6.09,0,1.37-1.36-.19-4.26,1.36-5.42,1-.7,2,.05,2.71-.67C1141.13,747.18,1140.83,744.41,1139.49,743.39Z"/><path class="cls-33" d="M1228.91,843.66a2,2,0,0,0,0-2c-.63-.89-2.17-.42-2.71-1.35a1.33,1.33,0,0,1,0-1.36c1.08-1.22,6.2,2.92,8.13,1.36a2.33,2.33,0,0,0,.68-2c-.82-5-28.49-12-38.61,0-6.23,7.38-4.87,20.85-2.71,21.68a1.64,1.64,0,0,0,1.35,0c.79-.47.38-1.68,1.36-2.71.12-.13.8-.85,1.35-.68s.49,1.57,1.36,2a1.73,1.73,0,0,0,1.35,0c2.57-.8,2.36-8.87,6.78-12.87,2.17-2,4.77-2.34,7.45-2.71C1222.06,842,1227.64,845.6,1228.91,843.66Z"/><path d="M1228.91,738.65c-2.11-5,4.41-13.48,9.49-12.87,3.46.41,5.56,4.94,6.1,6.1.45,1,2.74,5.9.67,8.8C1242.22,744.83,1231.09,743.86,1228.91,738.65Z"/><path class="cls-37" d="M1242.46,872.11c.07-.25.63-2.62-.67-4.06-2.23-2.47-8.06-.16-10.17.67a18.94,18.94,0,0,0-9.48,7.45c-.87,1.4-3.28,5.28-2,6.78,1.38,1.66,6.31-.67,14.9-4.74C1239.56,876.05,1241.84,874.61,1242.46,872.11Z"/><path class="cls-27" d="M1213.53,872.42c.26.66,0,1.25-.42,2.41s-.71,1.8-1.32,2.06a2.4,2.4,0,0,1-2.68-1c-1-1.63.63-4.63,2.36-4.74A2.23,2.23,0,0,1,1213.53,872.42Z"/><path class="cls-27" d="M1225.54,863.47c0,.19-.13.33-1.43,1.27-1.63,1.17-1.87,1.23-2.12,1.23a2.16,2.16,0,0,1-1.94-1.48c-.38-1.36,1.17-3.26,2.91-3.21C1224.35,861.31,1225.69,862.61,1225.54,863.47Z"/><path class="cls-27" d="M1239.57,860.48c-.3.36-.69.17-2.12.28-1.78.12-2.13.47-2.79.14a1.9,1.9,0,0,1-1.07-1.6c.05-1.25,2.17-2.27,3.85-2a2.73,2.73,0,0,1,1.86,1.06C1239.73,859,1240,860,1239.57,860.48Z"/><path class="cls-31" d="M1121.25,787.25a88.06,88.06,0,0,1,4.67-9.38c1.62-2.83,3.79-6.25,4.07-6.1s-.74,1.85-2,5.42c-.75,2-1.39,4.3-2.71,8.81-.59,2-1,3.63-1.36,4.74a9.13,9.13,0,0,1-1.35-1.36A8.73,8.73,0,0,1,1121.25,787.25Z"/><path class="cls-31" d="M1239.06,819.87a43.83,43.83,0,0,0,3.38-8.81c2.1-7.93,1.62-14.22,2-14.23s1,4.17.67,8.81a36,36,0,0,1-3.38,12.87Z"/><path class="cls-32" d="M1159.15,852.61c2.44,2.14,11.41,1.84,12.84,1.81,8.19-.21,10.08.37,11.52-1.36.76-.92.4-1.3,2-4.74a22.07,22.07,0,0,1,2.71-4.74,14.41,14.41,0,0,1,5.42-4.07,22.48,22.48,0,0,0-3.39,6.1,22.8,22.8,0,0,0-1.35,6.78,31.73,31.73,0,0,0,0,4.06,93.87,93.87,0,0,1-34.52-.45,24.41,24.41,0,0,0-.68-5.42c-1.51-6.24-5.07-9.91-4.74-10.17s4.73,2.87,7.45,8.13C1158,851.57,1158.07,851.66,1159.15,852.61Z"/><path class="cls-38" d="M884.11,589.07c-1.76-12.2-5.79-11.06-14.28-34.26-17.55-48-10.34-80.49-18.56-82.1-9.48-1.86-11.25,43-47.83,69.25-22.45,16.13-37.22,10.32-59.25,31.41a98.67,98.67,0,0,0-25.7,41c-2,6.32-15.89,50.26,7.85,73.89,23.32,23.2,65.68,9.63,75.67,6.42C850.15,679.31,890,629.89,884.11,589.07Z"/><path d="M811.29,595.86c-1.83,4.68-6.83,8.66-9.28,7.49s-1.69-7.09-1.42-9.28c.32-2.59,1.08-8.81,5-10a5.15,5.15,0,0,1,4.29.71C813,587,812.61,592.51,811.29,595.86Z"/><path d="M829.57,587.65c-3.23.89-3.85,6.62-4,8-.49,4.53.77,10.73,3,11,3.3.41,9.84-12,6-17A5.16,5.16,0,0,0,829.57,587.65Z"/><path d="M822,624.41c1,1.07-13.89,21-21.41,17.49-4.94-2.28-7-13-2.86-17.49.88-.95,2.35-2.32,3.24-1.9,2.07,1-2.29,10,.33,12.25C805.18,638,821.1,623.4,822,624.41Z"/><path class="cls-39" d="M870.55,569.09c22.4,27.43-2.07,68.28-9.28,77.1-1.09,1.32-5.88,7.18-7.14,6.42-.29-.17-.88-1,2.14-9.28,2.37-6.51,3.55-9.77,6.43-15,5.33-9.68,12.22-40.76,0-56.4-14.37-18.39-52.13-11.51-52.12-15.7,0-1.91,7.15-3.3,8.57-3.57C833.59,549.87,857,552.45,870.55,569.09Z"/><ellipse class="cls-18" cx="805.57" cy="592.65" rx="2" ry="3"/><ellipse class="cls-18" cx="829.07" cy="596.65" rx="1.5" ry="3"/><path class="cls-33" d="M1286.9,190.54c8.48,4.88,27.07,15.56,30.76,34.16,8.32,41.95-65.16,94.2-130.65,108.51-13.54,3-64.58,14.13-84.55-9.83-3.45-4.14-17.28-22.9-16.1-46.49,0-.38,0-.77.07-1.29,1.67-21.13,21.32-35.64,30.93-42.54C1146.78,211.93,1225.61,155.33,1286.9,190.54Z"/><path class="cls-33" d="M1270,193.29c.45,6.77-2.23,14.88-13.24,26.19-40,41.11-125.59,58.34-146,28.38-11.56-17,1.1-43.15,4.2-49.26,19.49-38.4,68-52.33,104-44.23C1238.83,158.83,1268.67,173.06,1270,193.29Z"/><path class="cls-33" d="M1131.86,203.52c9.6,13.09,35.22,9.16,50.48,2.25,14-6.34,29.84-20.54,31.64-39.38,3.62-37.69-57.55-62-62.54-56.7-2.89,3.07,13.62,15,10.18,30.22-3.38,15-21.71,14.55-30,33.77C1131.12,174.81,1123.75,192.46,1131.86,203.52Z"/><path class="cls-40" d="M1112.7,250.49c9.85,12.31,27.61,12.65,37.84,12.84,3.46.07,14.15.08,32.58-5,44.24-12.13,71.28-36.53,75.78-41.92.48-.57,3.38-4.13,3.84-3.82s-.86,2.58-1.27,3.36c-4.23,8.19-68.27,57.83-122.18,51.75-18.46-2.08-26.8-9.7-29.07-11.93a38.44,38.44,0,0,1-7.54-10.52,10.61,10.61,0,0,1,1.79-2.2,11.39,11.39,0,0,1,3.2-2.15A29.13,29.13,0,0,0,1112.7,250.49Z"/><path class="cls-40" d="M1212.55,174c.34.2-3.88,13.54-14.86,24.14-20.29,19.58-59,25.31-72.51,9.09-2.37-2.85-5.13-7.79-5.32-16.4a36.29,36.29,0,0,1,4.53-6.92,35.75,35.75,0,0,1,5.32-5.19,30.68,30.68,0,0,0-1.6,11.87,29.28,29.28,0,0,0,3.75,12.93c7.7,12,40.8,12,61.52-4.13C1206.93,188.86,1212.19,173.79,1212.55,174Z"/><path d="M1133.34,253c2.32,3.71,7.23,7.09,10.28,5.8a5.57,5.57,0,0,0,2.37-2.46c.58-.94,1.75-3.2,1.43-7.62-.17-2.32-.78-10.77-7.11-14.2-1.29-.69-2.55-1.37-3.94-1C1131.92,234.71,1128.94,246,1133.34,253Z"/><path d="M1164.59,250.57c2.33,3.71,7.24,7.09,10.29,5.8a5.59,5.59,0,0,0,2.37-2.47c.57-.93,1.75-3.19,1.43-7.61-.17-2.32-.78-10.78-7.11-14.2-1.29-.69-2.55-1.37-3.94-1C1163.17,232.27,1160.2,243.54,1164.59,250.57Z"/><path d="M1188.94,291.25c.88-.06,5.91,18.05,0,21.59-6.45,3.86-21.36-12.4-21.09-12.76s11.67,11.25,17.58,8.08C1190.94,305.19,1188.16,291.3,1188.94,291.25Z"/><ellipse class="cls-18" cx="1168.02" cy="244.98" rx="2.54" ry="5.08" transform="translate(2.79 502.91) rotate(-24.33)"/><ellipse class="cls-18" cx="1136.97" cy="247.18" rx="2.54" ry="5.08" transform="translate(-0.87 490.32) rotate(-24.33)"/><rect class="cls-41" x="1717.3" y="818.16" width="115.69" height="221.26" rx="12"/><rect class="cls-42" x="1727.86" y="935.81" width="90.33" height="90.33" rx="12"/><path d="M1777.13,952.76v14.29a5.36,5.36,0,0,1-8,4.64l-12.38-7.15a5.35,5.35,0,0,1,0-9.27l12.38-7.15A5.36,5.36,0,0,1,1777.13,952.76Z"/><path d="M1777.07,954.09a29.86,29.86,0,0,1,16.32,6.43c10.54,8.67,15.37,26.23,6.93,40.07-8.64,14.15-27.49,18.39-41.56,10.88-12.51-6.67-19.17-21.53-15.83-36.11l10.89,1c-2.76,10.07,1.82,20.45,10.38,24.73,10.08,5,22.67.28,27.21-8.9,3.27-6.61,2.76-16.32-3.46-21.77a17.22,17.22,0,0,0-10.88-4Z"/><rect class="cls-42" x="1727.69" y="831.52" width="90.51" height="90.51" rx="12"/><path class="cls-43" d="M1765.42,881.2a21.85,21.85,0,0,0-6.18-16.46,20.46,20.46,0,0,0-11.32,1,17.85,17.85,0,0,0-8.23,6.18,14.79,14.79,0,0,0-3.09,9.26,14.44,14.44,0,0,0,3.09,8.23c5.93,7.77,17.81,6.28,18.52,6.18A21.66,21.66,0,0,0,1765.42,881.2Z"/><path class="cls-43" d="M1753.07,881.2c-.29-15.67,14-29.32,30.87-27.78V908C1767.43,909.47,1753.35,896.52,1753.07,881.2Z"/><ellipse class="cls-43" cx="1797.01" cy="858.01" rx="8" ry="3.6" transform="translate(-80.37 1521.99) rotate(-45)"/><ellipse class="cls-43" cx="1798.36" cy="880.46" rx="8.07" ry="3.63" transform="translate(-34.75 74.85) rotate(-2.36)"/><ellipse class="cls-43" cx="1797.53" cy="901.99" rx="3.63" ry="8.07" transform="translate(-111.32 1535.23) rotate(-45)"/><rect class="cls-41" x="49.08" y="943.48" width="409" height="75" rx="12"/><rect class="cls-42" x="62.08" y="955.48" width="8.82" height="51" rx="3.53"/><path class="cls-44" d="M446.08,949c0-.83-5.11-1.5-11.36-1.5H71.43c-6.24,0-11.35.67-11.35,1.5s5.11,1.5,11.35,1.5H434.72C441,950.48,446.08,949.8,446.08,949Z"/><rect class="cls-42" x="51.45" y="827.23" width="93.33" height="93.33" rx="12"/><path d="M75.58,897.08A8.13,8.13,0,0,1,79,890.43c23.95-16.93,28.5-21,28.5-26.77,0-4.18-3.91-6.37-8.65-6.37a21.33,21.33,0,0,0-11.83,3.55,6.17,6.17,0,0,1-3.65,1.09,6.94,6.94,0,0,1-3.64-12.83,34.07,34.07,0,0,1,19.12-5.65c14.3,0,24.59,8,24.59,20.21,0,9.29-6.65,17.21-23,27.77h17.39a6.83,6.83,0,0,1,0,13.66H83.6A8,8,0,0,1,75.58,897.08Z"/></g></g></svg>