<svg xmlns="http://www.w3.org/2000/svg" xmlns:xlink="http://www.w3.org/1999/xlink" width="1900" height="1080" viewBox="0 0 1900 1080"><defs><style>.cls-1{fill:none;}.cls-2{clip-path:url(#clip-path);}.cls-3{clip-path:url(#clip-path-2);}.cls-4{clip-path:url(#clip-path-3);}.cls-5{fill:#e3f2fd;}.cls-6{fill:#a9d6e5;}.cls-7{fill:#bbdefb;}.cls-8{clip-path:url(#clip-path-4);}.cls-9{fill:#ababab;}.cls-10{fill:#c4c4c4;}.cls-11{fill:#e0e0e0;}.cls-12{fill:#f2f2f2;}.cls-13{fill:url(#linear-gradient);}.cls-14{fill:#6e6e6e;}.cls-15{fill:#348dc4;}.cls-16{fill:#115e8f;}.cls-17{fill:#fff;}</style><clipPath id="clip-path"><rect class="cls-1" x="-6.5" y="-1" width="1900" height="1080"/></clipPath><clipPath id="clip-path-2"><rect class="cls-1" x="-5.01" y="-1.53" width="1900" height="1080"/></clipPath><clipPath id="clip-path-3"><rect class="cls-1" x="-284.46" y="-190.14" width="2811.14" height="792"/></clipPath><clipPath id="clip-path-4"><polygon class="cls-1" points="4019.99 1237.47 -2091.93 1237.47 -441.74 602.19 2369.8 602.19 4019.99 1237.47"/></clipPath><linearGradient id="linear-gradient" x1="820.94" y1="715.37" x2="1290.33" y2="1054.38" gradientUnits="userSpaceOnUse"><stop offset="0" stop-color="#c4c4c4"/><stop offset="0.4" stop-color="#bbb"/><stop offset="0.46" stop-color="#b2b2b2"/><stop offset="0.54" stop-color="#ababab"/><stop offset="1" stop-color="#8c8c8c"/></linearGradient></defs><g id="Sad_Poop" data-name="Sad Poop"><g class="cls-2"><g class="cls-3"><g class="cls-4"><rect class="cls-1" x="1341.99" y="-190.14" width="813.23" height="813.23"/><rect class="cls-5" x="1341.99" y="-190.14" width="813.23" height="813.23"/><rect class="cls-6" x="1819.58" y="446.64" width="143.28" height="143.28" rx="41.27"/><rect class="cls-7" x="1660.38" y="446.64" width="143.28" height="143.28" rx="41.27"/><rect class="cls-6" x="1501.19" y="446.64" width="143.28" height="143.28" rx="41.27"/><rect class="cls-7" x="1341.99" y="446.64" width="143.28" height="143.28" rx="41.27"/><rect class="cls-7" x="1819.58" y="287.45" width="143.28" height="143.28" rx="41.27"/><rect class="cls-6" x="1660.38" y="287.45" width="143.28" height="143.28" rx="41.27"/><rect class="cls-7" x="1501.19" y="287.45" width="143.28" height="143.28" rx="41.27"/><rect class="cls-6" x="1341.99" y="287.45" width="143.28" height="143.28" rx="41.27"/><rect class="cls-6" x="1819.58" y="128.25" width="143.28" height="143.28" rx="41.27"/><rect class="cls-7" x="1660.38" y="128.25" width="143.28" height="143.28" rx="41.27"/><rect class="cls-6" x="1501.19" y="128.25" width="143.28" height="143.28" rx="41.27"/><rect class="cls-7" x="1341.99" y="128.25" width="143.28" height="143.28" rx="41.27"/><rect class="cls-7" x="1819.58" y="-30.94" width="143.28" height="143.28" rx="41.27"/><rect class="cls-6" x="1660.38" y="-30.94" width="143.28" height="143.28" rx="41.27"/><rect class="cls-7" x="1501.19" y="-30.94" width="143.28" height="143.28" rx="41.27"/><rect class="cls-6" x="1341.99" y="-30.94" width="143.28" height="143.28" rx="41.27"/><rect class="cls-1" x="528.76" y="-190.14" width="813.23" height="813.23"/><rect class="cls-5" x="528.76" y="-190.14" width="813.23" height="813.23"/><rect class="cls-7" x="1165.55" y="446.64" width="143.28" height="143.28" rx="41.27"/><rect class="cls-6" x="1006.35" y="446.64" width="143.28" height="143.28" rx="41.27"/><rect class="cls-7" x="847.16" y="446.64" width="143.28" height="143.28" rx="41.27"/><rect class="cls-6" x="687.96" y="446.64" width="143.28" height="143.28" rx="41.27"/><rect class="cls-7" x="528.76" y="446.64" width="143.28" height="143.28" rx="41.27"/><rect class="cls-6" x="1165.55" y="287.45" width="143.28" height="143.28" rx="41.27"/><rect class="cls-7" x="1006.35" y="287.45" width="143.28" height="143.28" rx="41.27"/><rect class="cls-6" x="847.16" y="287.45" width="143.28" height="143.28" rx="41.27"/><rect class="cls-7" x="687.96" y="287.45" width="143.28" height="143.28" rx="41.27"/><rect class="cls-6" x="528.76" y="287.45" width="143.28" height="143.28" rx="41.27"/><rect class="cls-7" x="1165.55" y="128.25" width="143.28" height="143.28" rx="41.27"/><rect class="cls-6" x="1006.35" y="128.25" width="143.28" height="143.28" rx="41.27"/><rect class="cls-7" x="847.16" y="128.25" width="143.28" height="143.28" rx="41.27"/><rect class="cls-6" x="687.96" y="128.25" width="143.28" height="143.28" rx="41.27"/><rect class="cls-7" x="528.76" y="128.25" width="143.28" height="143.28" rx="41.27"/><rect class="cls-6" x="1165.55" y="-30.94" width="143.28" height="143.28" rx="41.27"/><rect class="cls-7" x="1006.35" y="-30.94" width="143.28" height="143.28" rx="41.27"/><rect class="cls-6" x="847.16" y="-30.94" width="143.28" height="143.28" rx="41.27"/><rect class="cls-7" x="687.96" y="-30.94" width="143.28" height="143.28" rx="41.27"/><rect class="cls-6" x="528.76" y="-30.94" width="143.28" height="143.28" rx="41.27"/><rect class="cls-1" x="-284.46" y="-190.14" width="813.23" height="813.23"/><rect class="cls-5" x="-284.46" y="-190.14" width="813.23" height="813.23"/><rect class="cls-7" x="352.32" y="446.64" width="143.28" height="143.28" rx="41.27"/><rect class="cls-6" x="193.13" y="446.64" width="143.28" height="143.28" rx="41.27"/><rect class="cls-7" x="33.93" y="446.64" width="143.28" height="143.28" rx="41.27"/><rect class="cls-6" x="-125.27" y="446.64" width="143.28" height="143.28" rx="41.27"/><rect class="cls-6" x="352.32" y="287.45" width="143.28" height="143.28" rx="41.27"/><rect class="cls-7" x="193.13" y="287.45" width="143.28" height="143.28" rx="41.27"/><rect class="cls-6" x="33.93" y="287.45" width="143.28" height="143.28" rx="41.27"/><rect class="cls-7" x="-125.27" y="287.45" width="143.28" height="143.28" rx="41.27"/><rect class="cls-7" x="352.32" y="128.25" width="143.28" height="143.28" rx="41.27"/><rect class="cls-6" x="193.13" y="128.25" width="143.28" height="143.28" rx="41.27"/><rect class="cls-7" x="33.93" y="128.25" width="143.28" height="143.28" rx="41.27"/><rect class="cls-6" x="-125.27" y="128.25" width="143.28" height="143.28" rx="41.27"/><rect class="cls-6" x="352.32" y="-30.94" width="143.28" height="143.28" rx="41.27"/><rect class="cls-7" x="193.13" y="-30.94" width="143.28" height="143.28" rx="41.27"/><rect class="cls-6" x="33.93" y="-30.94" width="143.28" height="143.28" rx="41.27"/><rect class="cls-7" x="-125.27" y="-30.94" width="143.28" height="143.28" rx="41.27"/></g><g class="cls-8"><polygon class="cls-1" points="1184.95 602.19 1998.29 602.19 3285.41 1275.69 1459.87 1275.69 1184.95 602.19"/><polygon class="cls-5" points="1184.95 602.19 1998.29 602.19 3285.41 1275.69 1459.87 1275.69 1184.95 602.19"/><path class="cls-6" d="M1994,1217H1864.19c-48.69,0-109.44-30.3-134.2-65.54l-59-84c-19.86-28.27-2.5-50,37.79-50h107.36c40.28,0,94,21.78,121.35,50l81.23,84C2052.82,1186.72,2042.65,1217,1994,1217Z"/><path class="cls-7" d="M1653.85,1217H1524.09c-48.69,0-100.53-30.3-114.92-65.54l-34.28-84c-11.54-28.27,12.22-50,52.51-50h107.36c40.29,0,87.6,21.78,106.63,50l56.52,84C1721.63,1186.72,1702.54,1217,1653.85,1217Z"/><path class="cls-6" d="M2076.2,999.44H1970.86c-39.53,0-91.56-20.06-115.08-43.66l-57.15-57.34c-19.59-19.66-7.42-34.94,26.39-34.94h90.08c33.8,0,80.47,15.28,105.27,34.94l72.33,57.34C2122.47,979.38,2115.73,999.44,2076.2,999.44Z"/><path class="cls-7" d="M1800.11,999.44H1694.77c-39.53,0-85.66-20.06-102.24-43.66l-40.27-57.34c-13.82-19.66,2.86-34.94,36.66-34.94H1679c33.8,0,76,15.28,95,34.94l55.46,57.34C1852.28,979.38,1839.64,999.44,1800.11,999.44Z"/><path class="cls-6" d="M1524,999.44H1418.68c-39.53,0-79.76-20.06-89.39-43.66l-23.41-57.34c-8-19.66,13.14-34.94,46.94-34.94h90.08c33.8,0,71.49,15.28,84.72,34.94l38.59,57.34C1582.09,979.38,1563.55,999.44,1524,999.44Z"/><path class="cls-6" d="M2132.39,850.79h-88.65c-33.27,0-78.64-14.26-100.45-31.15L1889.56,778c-18.67-14.46-9.66-25.77,19.46-25.77h77.59c29.12,0,70.3,11.31,92.8,25.77l64.76,41.63C2170.45,836.53,2165.66,850.79,2132.39,850.79Z"/><path class="cls-7" d="M1900,850.79h-88.65c-33.27,0-74.44-14.26-91.28-31.15L1678.62,778c-14.42-14.46-2.08-25.77,27-25.77h77.6c29.11,0,67,11.31,85.22,25.77l52.5,41.63C1942.28,836.53,1933.3,850.79,1900,850.79Z"/><path class="cls-6" d="M1667.67,850.79H1579c-33.27,0-70.25-14.26-82.11-31.15L1467.67,778c-10.16-14.46,5.5-25.77,34.62-25.77h77.59c29.11,0,63.65,11.31,77.64,25.77l40.26,41.63C1714.12,836.53,1700.94,850.79,1667.67,850.79Z"/><path class="cls-7" d="M1435.32,850.79h-88.66c-33.26,0-66.05-14.26-73-31.15l-17-41.63c-5.9-14.46,13.08-25.77,42.2-25.77h77.59c29.12,0,60.33,11.31,70.06,25.77l28,41.63C1486,836.53,1468.58,850.79,1435.32,850.79Z"/><path class="cls-7" d="M1972.63,742.79H1896.1c-28.72,0-65.75-10.65-82.13-23.34l-40.77-31.58c-14.31-11.09-4.81-19.79,20.76-19.79h68.15c25.57,0,59.83,8.7,77.07,19.79l49.14,31.58C2008.06,732.14,2001.35,742.79,1972.63,742.79Z"/><path class="cls-6" d="M1772,742.79h-76.53c-28.72,0-62.61-10.65-75.26-23.34l-31.48-31.58c-11-11.09,1-19.79,26.59-19.79h68.14c25.57,0,57.28,8.7,71.26,19.79l39.84,31.58C1810.61,732.14,1800.76,742.79,1772,742.79Z"/><path class="cls-7" d="M1571.46,742.79h-76.53c-28.72,0-59.48-10.65-68.4-23.34l-22.18-31.58c-7.79-11.09,6.83-19.79,32.4-19.79h68.15c25.57,0,54.71,8.7,65.43,19.79l30.55,31.58C1613.15,732.14,1600.18,742.79,1571.46,742.79Z"/><path class="cls-6" d="M1370.87,742.79h-76.53c-28.72,0-56.34-10.65-61.52-23.34l-12.9-31.58c-4.52-11.09,12.65-19.79,38.23-19.79h68.14c25.57,0,52.16,8.7,59.62,19.79l21.25,31.58C1415.7,732.14,1399.59,742.79,1370.87,742.79Z"/><path class="cls-7" d="M2027.76,660.78h-67.33c-25.26,0-58.83-8.26-74.49-18.14l-39.28-24.78c-13.89-8.77-6.36-15.67,16.44-15.67h60.75c22.79,0,54,6.9,70.25,15.67L2040,642.64C2058.23,652.52,2053,660.78,2027.76,660.78Z"/><path class="cls-6" d="M1851.3,660.78H1784c-25.27,0-56.41-8.26-69.16-18.14l-32-24.78c-11.31-8.77-1.75-15.67,21.05-15.67h60.75c22.79,0,52,6.9,65.65,15.67l38.55,24.78C1884.2,652.52,1876.57,660.78,1851.3,660.78Z"/><path class="cls-7" d="M1674.85,660.78h-67.33c-25.26,0-54-8.26-63.82-18.14L1519,617.86c-8.73-8.77,2.87-15.67,25.66-15.67h60.75c22.79,0,50,6.9,61,15.67l31.26,24.78C1710.17,652.52,1700.11,660.78,1674.85,660.78Z"/><path class="cls-6" d="M1498.39,660.78h-67.33c-25.26,0-51.54-8.26-58.48-18.14l-17.41-24.78c-6.15-8.77,7.48-15.67,30.27-15.67h60.75c22.8,0,48,6.9,56.43,15.67l24,24.78C1536.15,652.52,1523.65,660.78,1498.39,660.78Z"/><path class="cls-7" d="M1321.93,660.78h-67.32c-25.27,0-49.12-8.26-53.15-18.14l-10.12-24.78c-3.57-8.77,12.09-15.67,34.88-15.67H1287c22.8,0,45.92,6.9,51.82,15.67l16.68,24.78C1362.12,652.52,1347.2,660.78,1321.93,660.78Z"/><polygon class="cls-1" points="371.6 602.19 1184.95 602.19 1459.87 1275.69 -365.66 1275.69 371.6 602.19"/><polygon class="cls-5" points="371.6 602.19 1184.95 602.19 1459.87 1275.69 -365.66 1275.69 371.6 602.19"/><path class="cls-7" d="M1276.9,1217H1147.14c-48.69,0-90.65-30.3-93.55-65.54l-6.89-84c-2.33-28.27,28.54-50,68.83-50h107.36c40.29,0,80.5,21.78,90.31,50l29.13,84C1354.56,1186.72,1325.6,1217,1276.9,1217Z"/><path class="cls-6" d="M936.8,1217H807c-48.69,0-81.74-30.3-74.27-65.54l17.81-84c6-28.27,43.28-50,83.56-50H941.5c40.29,0,74.09,21.78,75.58,50l4.43,84C1023.37,1186.72,985.49,1217,936.8,1217Z"/><path class="cls-7" d="M596.7,1217H466.94c-48.7,0-72.83-30.3-55-65.54l42.52-84c14.32-28.27,58-50,98.28-50H660.12c40.28,0,67.68,21.78,60.85,50l-20.28,84C692.18,1186.72,645.39,1217,596.7,1217Z"/><path class="cls-6" d="M256.6,1217H126.83c-48.69,0-63.91-30.3-35.7-65.54l67.23-84c22.63-28.27,72.72-50,113-50H378.73c40.28,0,61.28,21.78,46.13,50l-45,84C361,1186.72,305.29,1217,256.6,1217Z"/><path class="cls-7" d="M-83.5,1217H-213.27c-48.69,0-55-30.3-16.42-65.54l91.94-84c31-28.27,87.45-50,127.73-50H97.34c40.29,0,54.87,21.78,31.41,50l-69.7,84C29.8,1186.72-34.81,1217-83.5,1217Z"/><path class="cls-6" d="M1218,999.44H1112.68c-39.53,0-73.22-20.06-75.16-43.66l-4.71-57.34c-1.61-19.66,24.53-34.94,58.33-34.94h90.09c33.8,0,66.5,15.28,73.32,34.94l19.89,57.34C1282.63,979.38,1257.55,999.44,1218,999.44Z"/><path class="cls-7" d="M941.93,999.44H836.59c-39.53,0-67.32-20.06-62.32-43.66l12.16-57.34c4.17-19.66,34.82-34.94,68.62-34.94h90.08c33.8,0,62,15.28,63,34.94l3,57.34C1012.44,979.38,981.45,999.44,941.93,999.44Z"/><path class="cls-6" d="M665.84,999.44H560.5c-39.53,0-61.42-20.06-49.47-43.66l29-57.34c10-19.66,45.09-34.94,78.89-34.94H709c33.8,0,57.52,15.28,52.77,34.94L748,955.78C742.25,979.38,705.36,999.44,665.84,999.44Z"/><path class="cls-7" d="M389.75,999.44H284.4c-39.52,0-55.51-20.06-36.62-43.66l45.9-57.34c15.74-19.66,55.37-34.94,89.17-34.94h90.08c33.8,0,53,15.28,42.49,34.94L484.7,955.78C472.06,979.38,429.27,999.44,389.75,999.44Z"/><path class="cls-6" d="M113.65,999.44H8.31c-39.52,0-49.61-20.06-23.78-43.66L47.3,898.44C68.83,878.78,113,863.5,146.75,863.5h90.09c33.8,0,48.52,15.28,32.2,34.94l-47.58,57.34C201.87,979.38,153.18,999.44,113.65,999.44Z"/><path class="cls-7" d="M1177.79,850.79h-88.66c-33.26,0-61.4-14.26-62.79-31.15L1022.92,778c-1.19-14.46,21.49-25.77,50.6-25.77h77.6c29.11,0,56.64,11.31,61.65,25.77l14.44,41.63C1233.07,836.53,1211.05,850.79,1177.79,850.79Z"/><path class="cls-6" d="M945.43,850.79H856.77c-33.26,0-57.21-14.26-53.62-31.15L812,778c3.07-14.46,29.07-25.77,58.19-25.77h77.59c29.11,0,53.31,11.31,54.08,25.77l2.19,41.63C1004.91,836.53,978.69,850.79,945.43,850.79Z"/><path class="cls-7" d="M713.07,850.79H624.42c-33.27,0-53-14.26-44.47-31.15L601,778c7.32-14.46,36.64-25.77,65.76-25.77h77.59c29.12,0,50,11.31,46.5,25.77l-10,41.63C776.75,836.53,746.34,850.79,713.07,850.79Z"/><path class="cls-6" d="M480.71,850.79H392.06c-33.27,0-48.82-14.26-35.3-31.15L390.08,778c11.58-14.46,44.23-25.77,73.34-25.77H541c29.11,0,46.66,11.31,38.91,25.77l-22.3,41.63C548.58,836.53,514,850.79,480.71,850.79Z"/><path class="cls-7" d="M248.35,850.79H159.7c-33.27,0-44.63-14.26-26.13-31.15L179.13,778c15.83-14.46,51.81-25.77,80.93-25.77h77.59c29.12,0,43.34,11.31,31.33,25.77l-34.54,41.63C320.42,836.53,281.62,850.79,248.35,850.79Z"/><path class="cls-6" d="M1148.56,742.79H1072c-28.72,0-52.88-10.65-53.92-23.34l-2.59-31.58c-.91-11.09,19.1-19.79,44.67-19.79h68.15c25.57,0,49.32,8.7,53.16,19.79l11,31.58C1196.86,732.14,1177.27,742.79,1148.56,742.79Z"/><path class="cls-7" d="M948,742.79H871.44c-28.72,0-49.74-10.65-47.05-23.34l6.7-31.58c2.35-11.09,24.93-19.79,50.5-19.79h68.14c25.57,0,46.76,8.7,47.34,19.79l1.67,31.58C999.41,732.14,976.69,742.79,948,742.79Z"/><path class="cls-6" d="M747.39,742.79H670.85c-28.71,0-46.6-10.65-40.18-23.34l16-31.58c5.62-11.09,30.75-19.79,56.32-19.79h68.15c25.57,0,44.19,8.7,41.52,19.79L805,719.45C802,732.14,776.1,742.79,747.39,742.79Z"/><path class="cls-7" d="M546.8,742.79H470.27c-28.72,0-43.47-10.65-33.32-23.34l25.29-31.58c8.87-11.09,36.57-19.79,62.14-19.79h68.14c25.57,0,41.64,8.7,35.7,19.79L611.3,719.45C604.5,732.14,575.52,742.79,546.8,742.79Z"/><path class="cls-6" d="M346.22,742.79H269.68c-28.71,0-40.33-10.65-26.44-23.34l34.57-31.58c12.14-11.09,42.39-19.79,68-19.79h68.15c25.57,0,39.07,8.7,29.88,19.79l-26.22,31.58C407.05,732.14,374.93,742.79,346.22,742.79Z"/><path class="cls-7" d="M1126.36,660.78H1059c-25.26,0-46.42-8.26-47.23-18.14l-2-24.78c-.72-8.77,17.19-15.67,40-15.67h60.75c22.8,0,43.67,6.9,46.71,15.67l8.6,24.78C1169.24,652.52,1151.62,660.78,1126.36,660.78Z"/><path class="cls-6" d="M949.9,660.78H882.58c-25.27,0-44-8.26-41.9-18.14l5.26-24.78c1.86-8.77,21.8-15.67,44.59-15.67h60.75c22.8,0,41.64,6.9,42.1,15.67l1.31,24.78C995.21,652.52,975.17,660.78,949.9,660.78Z"/><path class="cls-7" d="M773.45,660.78H706.12c-25.26,0-41.56-8.26-36.56-18.14l12.55-24.78c4.44-8.77,26.41-15.67,49.21-15.67h60.74c22.8,0,39.61,6.9,37.49,15.67l-6,24.78C821.18,652.52,798.71,660.78,773.45,660.78Z"/><path class="cls-6" d="M597,660.78H529.66c-25.26,0-39.13-8.26-31.22-18.14l19.84-24.78c7-8.77,31-15.67,53.82-15.67h60.75c22.79,0,37.57,6.9,32.88,15.67l-13.28,24.78C647.16,652.52,622.25,660.78,597,660.78Z"/><path class="cls-7" d="M420.53,660.78H353.21c-25.27,0-36.7-8.26-25.89-18.14l27.13-24.78c9.59-8.77,35.63-15.67,58.43-15.67h60.75c22.79,0,35.54,6.9,28.27,15.67l-20.57,24.78C473.13,652.52,445.8,660.78,420.53,660.78Z"/><polygon class="cls-1" points="-441.74 602.19 371.6 602.19 -365.66 1275.69 -2191.19 1275.69 -441.74 602.19"/><polygon class="cls-5" points="-441.74 602.19 371.6 602.19 -365.66 1275.69 -2191.19 1275.69 -441.74 602.19"/><path class="cls-6" d="M-192.35,999.44H-297.69c-39.52,0-43.07-20.06-9.54-43.66l81.46-57.34c27.94-19.66,77.05-34.94,110.85-34.94h90.08C9,863.5,18.7,878.78-4,898.44l-66.28,57.34C-97.59,979.38-152.82,999.44-192.35,999.44Z"/><path class="cls-7" d="M-9.18,850.79H-97.83c-33.27,0-40-14.26-16-31.15L-54.67,778c20.55-14.46,60.21-25.77,89.33-25.77h77.59c29.12,0,39.65,11.31,22.93,25.77L87.07,819.64C67.54,836.53,24.09,850.79-9.18,850.79Z"/><path class="cls-6" d="M123.9,742.79H47.37c-28.72,0-36.87-10.65-18.84-23.34l44.88-31.58c15.74-11.09,48.84-19.79,74.41-19.79H216c25.57,0,36.24,8.7,23.43,19.79l-36.51,31.58C188.21,732.14,152.62,742.79,123.9,742.79Z"/><path class="cls-7" d="M-76.68,742.79h-76.54c-28.71,0-33.73-10.65-12-23.34L-111,687.87c19-11.09,54.66-19.79,80.23-19.79H37.36c25.57,0,33.68,8.7,17.6,19.79L9.16,719.45C-9.24,732.14-48,742.79-76.68,742.79Z"/><path class="cls-7" d="M225,660.78H157.63c-25.26,0-34-8.26-20-18.14l35.21-24.78c12.46-8.77,40.74-15.67,63.54-15.67h60.75c22.79,0,33.29,6.9,23.16,15.67l-28.65,24.78C280.25,652.52,250.22,660.78,225,660.78Z"/><path class="cls-6" d="M48.5,660.78H-18.82c-25.26,0-31.58-8.26-14.64-18.14L9.05,617.86c15-8.77,45.34-15.67,68.14-15.67h60.75c22.79,0,31.26,6.9,18.55,15.67l-35.94,24.78C106.22,652.52,73.77,660.78,48.5,660.78Z"/><path class="cls-7" d="M-127.95,660.78h-67.33c-25.26,0-29.15-8.26-9.3-18.14l49.8-24.78c17.6-8.77,50-15.67,72.75-15.67h60.75c22.79,0,29.23,6.9,13.94,15.67l-43.23,24.78C-67.8,652.52-102.69,660.78-127.95,660.78Z"/></g></g><path class="cls-9" d="M1792.32,772.24a17.38,17.38,0,0,1-6.85-1.55c-5.89-3-233.24-86.34-573.42-210.56-32.54-35.59-67.82-83.25-91.38-142.45-58.28-146.4-8.54-272.19,20.11-329.12l841.16,170.85C1921.09,529.05,1850.55,774.78,1792.32,772.24Z"/><path class="cls-10" d="M1958,253.25c191.4-56.31,266.93-80.32,271.38-84.39.36-.32,3.15-3.16,6.57-3,3.91.17,6.36,4.18,6.56,4.52,2.43,4.11.35,8.31,0,9-11.36,24-131.13,495.16-131.31,498.65,0,0,0,.16,0,.36a6.59,6.59,0,0,1-2.16,4.09c-2.27,2.1-5.7,2.78-6.57,3-8,1.77-255.49,62.19-295.45,77.2-2.91,1.09-14.48,5.19-17.51,3-2.42-1.77,1.73-6.82,2.19-7.42C1798.16,749.67,1848.91,596.74,1958,253.25Z"/><path class="cls-11" d="M1845,54.61c212.51,43.43,417,91.42,409.85,116.05-.53,1.84-2.08,3-4.64,4.71-80.57,54.65-237,76.49-266.66,86.45A56.67,56.67,0,0,1,1965,265a60.63,60.63,0,0,1-18.54-3.14,402.86,402.86,0,0,0-39.42-9.42,280.59,280.59,0,0,0-4.88-50.58c-2.66-13.42-7.27-29.69-7.82-31.65q-1.61-5.62-3.39-11.37A515.74,515.74,0,0,0,1845,54.61Z"/><path class="cls-12" d="M374.4,728.49C377.2,833,534.29,901.74,571.93,918.25c364.43,159.83,1023.72-33.55,1027.16-165,2.19-84-262.77-176.61-302.34-190.44-67.3-23.51-125.54-35.7-156.12-41.68-65.92-12.88-175-34.18-313.82-27.42-103.8,5.06-236.13,11.5-340.9,80.07C460.94,590.17,372.25,648.22,374.4,728.49Z"/><path class="cls-10" d="M1134.85,637c-39.55-15.43-78.41-20.13-111.51-24.14a676.83,676.83,0,0,0-141.78-2.19c-43.59,4-219,20.32-251.7,94.34-13.59,30.81,3.51,58.12,6.38,62.52,29.28,45,107.39,59.13,152.92,66.91,184.56,31.55,450-3.09,469.94-76.78C1271,713.69,1194.26,660.17,1134.85,637Z"/><path class="cls-13" d="M1599.54,752.93c14.83,40.39,28.18,106.13-13.09,174.8-98.59,164-446.74,241.49-720.21,209.56-50.06-5.84-263.11-30.71-396.11-154.35C369.2,889.1,371.69,791.66,375.2,757c18.47,31.28,58.27,85.07,142.4,130.85,117.55,64,249.22,72.87,335.55,78.71,229.62,15.54,398.32-37.9,533.6-80.76,84.63-26.81,142.68-55.25,183.33-96.09A208.87,208.87,0,0,0,1599.54,752.93Z"/><path class="cls-9" d="M1901.32,828.76c98.8-39.27,163.74-97.11,207.58-152.08l-328.81,91.47L1610.71,719l-23.25,1.14c15.31,30.16,52.1,116.17-1.66,208.11-56.86,97.24-179.68,140.69-247.43,164.66-99.24,35.1-191,44.23-245.77,46.88q1.67,72.62,3.32,145.22l659.26-164.66c-48.29-154.22-6.29-219.43,41.52-250.42C1826.15,850.84,1852.57,848.13,1901.32,828.76Z"/><path class="cls-14" d="M1779.68,767.78c-11.24,6.73-31.48,17-60.44,22.3-51.76,9.56-94.91-3.18-107.92-7.44a202.81,202.81,0,0,0-19.43-50.53,251,251,0,0,0-41-55Z"/><path class="cls-12" d="M1882.78,110.83C1856.43,49.19,1826-22,1728.14-71,1598-136,1406.92-132.64,1271.9-89.47c-2.54.81-3.79,1.24-5.8,1.9-227.32,74.31-178.67,320.32-165.88,378.65,15.5,70.66,37.15,115,47.46,131.31,36.13,57,84.18,96.75,117.62,120.5A1045.77,1045.77,0,0,1,1433,603.5c72.79,33.81,126.66,70,164.4,99.48,68.78-40.08,185.59-120,255.21-246.55C1878.06,410.22,1951.35,271.22,1882.78,110.83Z"/><path class="cls-15" d="M1244.38,779.67a1086,1086,0,0,0-269.8-14.86c-116.79,8.11-206.66,33.3-261.17,52,5.62,1.94,13.74,4.62,23.74,7.43,11.64,3.27,39.09,10.45,95,16.35,21,2.22,51.74,5.38,92.82,5.94,22.19.31,82.85.34,161.88-11.89,100.63-15.57,132.33-35.75,144.61-44.58A150.11,150.11,0,0,0,1244.38,779.67Z"/><path class="cls-16" d="M1203.37,804.94c-25.56.54-63.75.72-110.08-1.49-72-3.43-129.78-11-136,0-3.51,6.26,13.25,11.92,10.79,19.32-7,21.24-157.37,12.58-157.56,14.87-.16,1.9,102.14,18.24,231,3A823.45,823.45,0,0,0,1203.37,804.94Z"/><path d="M1356.64,275.14c34.26,27.32,12.84,80.33-5.32,82-15,1.37-32.42-31.87-42.29-50.74-10.36-19.79-20.62-39.39-9.55-45.82S1340.34,262.14,1356.64,275.14Z"/><path d="M1518.46,294.06c40.32,30.72,14.19,91.58-4.62,92.91-11.23.8-22.5-19.43-34.81-41.5-9.23-16.56-32.07-57.54-14.3-66.31C1476.35,273.43,1503.28,282.49,1518.46,294.06Z"/><path d="M1537.93,440.81c3,3.19-47.87,48.29-114.39,44.58-74.48-4.15-113.28-66.4-110.09-68.36,2.86-1.76,39.57,44.4,105.77,50.53C1483.66,473.53,1535.06,437.76,1537.93,440.81Z"/><ellipse class="cls-17" cx="1339.36" cy="308.53" rx="12.95" ry="8.92"/><ellipse class="cls-17" cx="1501.24" cy="335.28" rx="12.95" ry="8.92"/></g></g></svg>