<svg id="Layer_1" data-name="Layer 1" xmlns="http://www.w3.org/2000/svg" xmlns:xlink="http://www.w3.org/1999/xlink" width="55" height="65" viewBox="0 0 55 65"><defs><style>.cls-1{fill:#f4ad29;}.cls-2{fill:#7f4700;}.cls-3{fill:#fff;}.cls-4{fill:url(#linear-gradient);}.cls-5{fill:#ff5f99;}.cls-6{fill:url(#linear-gradient-2);}.cls-7{fill:url(#linear-gradient-3);}.cls-8{fill:url(#linear-gradient-4);}.cls-9{fill:#c77814;}.cls-10{fill:#c7852e;}</style><linearGradient id="linear-gradient" x1="48.12" y1="57.03" x2="43.6" y2="53.73" gradientUnits="userSpaceOnUse"><stop offset="0.02" stop-color="#ff5f99"/><stop offset="0.23" stop-color="#ff649c"/><stop offset="0.49" stop-color="#ff73a6"/><stop offset="0.58" stop-color="#ff7aab"/><stop offset="1" stop-color="#ff87b3"/></linearGradient><linearGradient id="linear-gradient-2" x1="17.77" y1="62.49" x2="10.7" y2="57.34" xlink:href="#linear-gradient"/><linearGradient id="linear-gradient-3" x1="18.3" y1="9.65" x2="16.45" y2="8.3" xlink:href="#linear-gradient"/><linearGradient id="linear-gradient-4" x1="36.39" y1="6.4" x2="37.42" y2="5.03" gradientTransform="translate(1.2 0.29) rotate(-0.57)" gradientUnits="userSpaceOnUse"><stop offset="0.15" stop-color="#ff5f99"/><stop offset="0.32" stop-color="#ff669e"/><stop offset="0.55" stop-color="#ff7aab"/><stop offset="1" stop-color="#ff87b3"/></linearGradient></defs><path class="cls-1" d="M3.53,41.29a19.67,19.67,0,0,1,1.85-4.88c4-7.3,11.5-9.88,14-10.62a46.83,46.83,0,0,1-2.78,5.74c-1.52,2.63-2.3,3.4-2.79,5s-.67,4,.84,7.4a31.85,31.85,0,0,1-4.09.54c-3.15.2-5.31.32-6.39-1A3.49,3.49,0,0,1,3.53,41.29Z"/><path class="cls-1" d="M37.38,24.78a14.59,14.59,0,0,1,5.33,1,15.2,15.2,0,0,1,7.4,6.56,2.17,2.17,0,0,1,.17.84c0,1.12-1,1.86-3,3.7-.45.4-1.13,1-2,1.82a16.27,16.27,0,0,0-3.36-10.09A15.56,15.56,0,0,0,37.38,24.78Z"/><path class="cls-1" d="M44.9,39.43a13.43,13.43,0,0,1-2.36,6c-3.43-.84-5.34-.17-6.43.53-2.74,1.76-2.89,5.43-5.46,5.89a26,26,0,0,1-3.23.2c-.61,0-1.12,0-1.48,0-.2-1.14-.41-2.29-.62-3.44a10.3,10.3,0,0,0-8.69-1.74,17,17,0,0,1-2.51-8.58,17.82,17.82,0,0,1,5.29-12.47,9.52,9.52,0,0,0,3,2.09,10.35,10.35,0,0,0,4.92.77,20.43,20.43,0,0,0,10.26-3.87,15.89,15.89,0,0,1,5.16,5.08,15.3,15.3,0,0,1,1.69,3.69A14.41,14.41,0,0,1,44.9,39.43Z"/><path class="cls-1" d="M43.22,6.31c-.76,1.33-2.48,2.57-3.87,2.19-.9-.25-.77-.94-2.19-2s-2.41-.92-2.69-1.68c-.4-1.09,1-2.77,2.36-3.53A5.15,5.15,0,0,1,40.7.93a4.12,4.12,0,0,1,2.18,1.35,3.55,3.55,0,0,1,.84,2.18A3.58,3.58,0,0,1,43.22,6.31Z"/><path class="cls-1" d="M44.06,60.13a7.38,7.38,0,0,1-1.51.16c-6,.07-11.77-7.24-11-11a5.4,5.4,0,0,1,.87-1.93,5.5,5.5,0,0,1,2.85-1.85,13,13,0,0,1,6.06-.5,12.69,12.69,0,0,1,2,.5,24.39,24.39,0,0,1,5.21,2.19c1.4.79,2.09,1.27,2.52,2.19a3.79,3.79,0,0,1,.34,1.51,6.66,6.66,0,0,1-.34,2.52,7.84,7.84,0,0,1-2.52,3.37A16,16,0,0,1,44.06,60.13Z"/><path class="cls-1" d="M42.55,16.57A9.94,9.94,0,0,1,41,21.15c-3.66,6.07-11.58,6.92-12.74,7-2.58.24-5,.46-7.23-1-4.48-2.94-4-9.9-3.87-11.43.14-1.91.46-6.31,4-9.39a11.7,11.7,0,0,1,6.73-2.72A14.12,14.12,0,0,1,41,10.68,10.37,10.37,0,0,1,42.55,16.57Z"/><ellipse cx="25.51" cy="12.52" rx="1.64" ry="2.22" transform="translate(-2.82 10.36) rotate(-21.79)"/><ellipse cx="33.17" cy="10.73" rx="1.5" ry="2.03" transform="matrix(0.94, -0.33, 0.33, 0.94, -1.69, 11.45)"/><path class="cls-1" d="M25.06,1.43a11.33,11.33,0,0,1-.68,1.18,12.73,12.73,0,0,1-1.68,2c-.63.65-1.42,1.45-2.35,2.35l8.41-2.85a4,4,0,0,1-1.18-.85c-.35-.36-.39-.56-1-1.34s-.77-.86-1-.84A.74.74,0,0,0,25.06,1.43Z"/><path class="cls-1" d="M25.84,49.79a5.79,5.79,0,0,0-1.63-2.28c-2.58-2.2-6.16-1.14-6.54-1a8.46,8.46,0,0,0-2.09,1,17.31,17.31,0,0,0-5.49,5.53,17.94,17.94,0,0,0-2,4.54,7,7,0,0,0,1.18,3.7,8,8,0,0,0,7.73,3,8.59,8.59,0,0,0,2.53-.5c5-1.84,6.23-7.93,6.39-8.75A13.51,13.51,0,0,0,25.84,49.79Z"/><path class="cls-2" d="M39.35,16.57c-.56-2.42-7.24-4.26-11.94-1.85-2.67,1.37-5.32,4.42-4.54,6.22.6,1.39,3.17,1.87,5,1.35,1.41-.4,3.21-1.58,3.2-2.86,0-.78-.68-2.21-.5-2.52a.4.4,0,0,1,.16-.17.47.47,0,0,1,.34,0c.36.13-.07,1.66.34,2.52.59,1.27,3.35,1.85,5.38.84C38.13,19.46,39.66,17.9,39.35,16.57Z"/><path d="M33,13.54a3.83,3.83,0,0,1-1.51,2.86,3.59,3.59,0,0,1-.34.17,1.87,1.87,0,0,1-.67,0c-1.39-.25-2-2-2-2.19a5.8,5.8,0,0,1,.84-.5A5.5,5.5,0,0,1,32,13.37,5.89,5.89,0,0,1,33,13.54Z"/><path class="cls-1" d="M33,4.8c-2.32,0-4.74.13-7.23.33l-1.85.17A16.41,16.41,0,0,0,28.25,3,16.31,16.31,0,0,0,30.77.59a2.14,2.14,0,0,1,.84.68c.55.75.23,1.48.68,2.52A3.55,3.55,0,0,0,33,4.8Z"/><path class="cls-3" d="M26.23,11.86c.21.39.18,1-.17,1.18s-.82-.12-1-.51,0-1.06.33-1.17S26.07,11.57,26.23,11.86Z"/><path class="cls-3" d="M33.84,10.15c.21.39.18,1-.17,1.17s-.83-.12-1-.5,0-1.07.34-1.18S33.68,9.85,33.84,10.15Z"/><path class="cls-4" d="M49.94,53.23a2.45,2.45,0,0,0-1.34-1,3.48,3.48,0,0,0-1.68-.17,5.16,5.16,0,0,0-2.52,1,4.61,4.61,0,0,0-1.69,2.19c-.36,1.09-.46,2.94.51,3.53s2.18-.24,3.19-.84C48.34,56.79,50.53,54.53,49.94,53.23Z"/><path class="cls-5" d="M47.76,50.54a.91.91,0,0,1-.67.67c-.54.16-1.28-.15-1.35-.67a1,1,0,1,1,2,0Z"/><path class="cls-5" d="M43.39,51.55a1.07,1.07,0,0,1-1.18,1.18.95.95,0,1,1,1.18-1.18Z"/><path class="cls-5" d="M41,56.09c0,.41-.23,1-.67,1a.89.89,0,0,1-.84-.84c0-.58.57-1.12,1-1S41,55.77,41,56.09Z"/><path class="cls-6" d="M17.59,62.73A2.41,2.41,0,0,0,18,61.09a3.37,3.37,0,0,0-.53-1.6,5.09,5.09,0,0,0-1.95-1.89A4.59,4.59,0,0,0,12.79,57c-1.14.11-2.87.78-3,1.9s1.11,1.9,2.07,2.58C13.69,62.72,16.65,63.8,17.59,62.73Z"/><path class="cls-5" d="M18.82,60.14a.91.91,0,0,1-.89-.34A1.07,1.07,0,0,1,18,58.3a1,1,0,1,1,.83,1.84Z"/><path class="cls-5" d="M16.28,56.9a1.07,1.07,0,0,1-1.56-.59.95.95,0,1,1,1.56.59Z"/><path class="cls-5" d="M11.51,56.78c-.37.18-1,.18-1.2-.2a.88.88,0,0,1,.42-1.11,1,1,0,0,1,1.34.5C12.12,56.3,11.8,56.64,11.51,56.78Z"/><path class="cls-1" d="M18,11.19c-.27,1-.16,1.2-.5,1.51-1,1-3.95.29-5-1.51a4,4,0,0,1-.5-2A5.34,5.34,0,0,1,13,6a6.8,6.8,0,0,1,2.35-2.7,5.66,5.66,0,0,1,2-.84,4.63,4.63,0,0,1,1.85,0,4.37,4.37,0,0,1,1.51.68c.36.24,1.62,1.11,1.52,2-.06.48-.44.69-1,1.18A11,11,0,0,0,18,11.19Z"/><path class="cls-7" d="M19,9a6.22,6.22,0,0,0-.67,1.18,3.68,3.68,0,0,0-.17.5A1.78,1.78,0,0,1,17,11,2.07,2.07,0,0,1,15.3,9.09,2.19,2.19,0,0,1,17,6.82a2.17,2.17,0,0,1,1.69.5c.11.1.78.63.67,1.18C19.31,8.62,19.27,8.61,19,9Z"/><path class="cls-8" d="M39.52,5.79a1.36,1.36,0,0,1-1.25,1.36c-.24,0-.27-.17-.93-.66s-.8-.48-.85-.67c-.11-.48.72-1.44,1.67-1.36A1.47,1.47,0,0,1,39.52,5.79Z"/><path class="cls-9" d="M13.28,40.78c-.29-3.65,1.06-6.68,1.22-6.64s-.11.72-.17,2.61c0,1,0,1.81,0,2.26a17.2,17.2,0,0,0,.17,2.26,12.76,12.76,0,0,0,.69,2.61L14,44.05A12.93,12.93,0,0,1,13.28,40.78Z"/><path class="cls-9" d="M44.28,32.75a16.69,16.69,0,0,1,.87,3,15.6,15.6,0,0,1,.27,2.87l-.61.61a21.83,21.83,0,0,0,0-2.43,21.24,21.24,0,0,0-.35-2.61,13.51,13.51,0,0,0-1.57-4,21.78,21.78,0,0,0-2.09-2.79,8.23,8.23,0,0,1,1.92,2.09A14,14,0,0,1,44.28,32.75Z"/><path class="cls-9" d="M24.37,28.68a8.57,8.57,0,0,1-5-3,12.69,12.69,0,0,0,5.39,2.44,14.26,14.26,0,0,0,5.57-.52,35.75,35.75,0,0,0,5.22-1.74,15.67,15.67,0,0,1-6.44,2.61A11.21,11.21,0,0,1,24.37,28.68Z"/><path class="cls-10" d="M27.41,51.19A2.4,2.4,0,0,0,30.19,51a2.81,2.81,0,0,0,.7-1c.2-.41.15-.46.35-.87a3.23,3.23,0,0,1,.69-1.05s-.2.33-.34.87a4,4,0,0,0,0,2.09,2.87,2.87,0,0,0,.17.52,13.75,13.75,0,0,1-3.92.62c-.59,0-1.14,0-1.65-.09a6.32,6.32,0,0,0-.17-1.4,10.39,10.39,0,0,0-1.22-2.61,4.55,4.55,0,0,1,1.91,2.09A2.46,2.46,0,0,0,27.41,51.19Z"/></svg>