<svg xmlns="http://www.w3.org/2000/svg" xmlns:xlink="http://www.w3.org/1999/xlink" width="275" height="320" viewBox="0 0 275 320"><defs><style>.cls-1{fill:none;}.cls-2{clip-path:url(#clip-path);}.cls-3{clip-path:url(#clip-path-2);}.cls-4{fill:#e3f2fd;}.cls-5{fill:#a9d6e5;}.cls-6{fill:#bbdefb;}.cls-7{fill:#876aff;}.cls-8{fill:#241623;}.cls-9{fill:#fff;}.cls-10{fill:#4e3e94;}</style><clipPath id="clip-path"><rect class="cls-1" x="-1004.37" y="335.74" width="1900" height="1080"/></clipPath><clipPath id="clip-path-2"><rect class="cls-1" x="-1283.82" y="147.13" width="2811.14" height="792"/></clipPath></defs><g id="second_bear" data-name="second bear"><g class="cls-2"><g class="cls-3"><rect class="cls-1" x="-470.59" y="147.13" width="813.23" height="813.23"/><rect class="cls-4" x="-470.59" y="147.13" width="813.23" height="813.23"/><rect class="cls-5" x="166.19" y="306.33" width="143.28" height="143.28" rx="41.27"/><rect class="cls-6" x="7" y="306.33" width="143.28" height="143.28" rx="41.27"/><rect class="cls-6" x="166.19" y="147.13" width="143.28" height="143.28" rx="41.27"/><rect class="cls-5" x="7" y="147.13" width="143.28" height="143.28" rx="41.27"/></g></g><path class="cls-7" d="M211.32,112.73c-18.81-14.25-49.14-18-60-5.71-7.47,8.48,4,20.73-2.85,45.69-1.48,5.4-3.81,13.64-10,21.42-7.63,9.6-16.57,12.77-42.84,21.42C54.25,209.19,46.91,211,38.53,219.83A56.76,56.76,0,0,0,24.25,247c-4.84,23.48,6.29,51.79,27.13,62.83,16.71,8.86,34.37,3.89,48.55,0,17.51-4.8,22.44-10.89,55.7-31.41,40.09-24.75,40.94-20.84,51.4-31.42,5.53-5.58,28.19-29.19,30-65.69C237.45,172.69,239.17,133.83,211.32,112.73Z"/><path class="cls-7" d="M218.39,191.27H165.18a17,17,0,0,1-16.81-17.14c0-9.73-.11-17.66,1.4-22.84,6.27-21.38-4.29-24.62-7-75.69,0-.64-.06-1.12-.05-1.66a104.5,104.5,0,0,1,2.14-21c2.07-10.21,3-25.94,2.2-37.33,0,0-.65-9.25,2.85-11.42a10.77,10.77,0,0,1,4.29-1.43,8.82,8.82,0,0,1,1.43,0c38.14,3,61.4,0,61.4,0,6.8-.87,14.53-2.35,17.14,1.43C235.41,6,235.5,9,235.59,12.77a43.61,43.61,0,0,1-.39,7.14,238.73,238.73,0,0,0-2.8,40c.26,19,2.72,31.12,4.2,42.84,2.12,16.74,3.28,40.73-1.4,71.4C235.2,175.29,235.06,181.34,218.39,191.27Z"/><path class="cls-8" d="M67.78,314.29c1.16-.34,1-4.36-.35-9l-23.31-79.2c-1.35-4.59-3.39-8.06-4.55-7.72h0c-1.15.34-1,4.37.36,9l23.3,79.2C64.58,311.16,66.63,314.63,67.78,314.29Z"/><path class="cls-8" d="M218.46,191.27A79,79,0,0,1,237,169.85V167c-5.11,3.46-25.69,18.25-31.41,45.7A71.42,71.42,0,0,0,207,247l1.43-1.43C207.24,237.15,205,214.07,218.46,191.27Z"/><path d="M115,210.83c1.28,5.29-2.83,11.77-7.55,11.75-3.78,0-7.21-4.21-7.55-8.39-.38-4.67,3-10,7.55-10.07C111.18,204.06,114.24,207.53,115,210.83Z"/><ellipse cx="133.33" cy="206.07" rx="7.68" ry="9.44" transform="translate(-20.25 14.61) rotate(-5.83)"/><circle class="cls-9" cx="106.36" cy="213.4" r="2.14"/><circle class="cls-9" cx="132.06" cy="204.84" r="2.14"/><path d="M133.19,253.94c.37.09.48,6-2.86,11.42-1.4,2.29-4.37,7.12-8.56,7.14-5.54,0-9.08-8.33-10-12.85-.11-.54-.53-2.63,0-2.85,1.41-.6,6.19,13.23,11.42,12.85,2.86-.21,5.09-4.57,7.14-8.57C132.49,256.87,132.92,253.88,133.19,253.94Z"/><ellipse class="cls-10" cx="155.44" cy="47.57" rx="22.17" ry="4.15" transform="translate(93.87 198.02) rotate(-84.76)"/><ellipse class="cls-10" cx="169.56" cy="48.22" rx="21.3" ry="4.15" transform="translate(113.22 215.25) rotate(-87.24)"/><ellipse class="cls-10" cx="186.59" cy="48.94" rx="4.15" ry="20.57"/><ellipse class="cls-10" cx="203.7" cy="49.06" rx="20.72" ry="4.15" transform="translate(144.87 250.16) rotate(-87.24)"/><ellipse class="cls-10" cx="222.13" cy="49.67" rx="19.84" ry="4.15" transform="translate(161.8 269.15) rotate(-87.24)"/></g></svg>