<svg xmlns="http://www.w3.org/2000/svg" width="190" height="255" viewBox="0 0 190 255"><defs><style>.cls-1{fill:#eaff10;}.cls-2{fill:#eaffa5;}.cls-3{fill:#fff;}</style></defs><g id="Happy_Pee" data-name="Happy Pee"><path class="cls-1" d="M180.79,129.09C179,116.89,175,118,166.51,94.82,149,46.79,156.16,14.33,148,12.72c-9.48-1.86-11.25,43-47.83,69.25C77.66,98.1,62.89,92.29,40.86,113.38a99,99,0,0,0-25.7,41.05c-2,6.32-15.89,50.27,7.86,73.89,23.32,23.21,65.67,9.63,75.67,6.43C146.82,219.32,186.68,169.9,180.79,129.09Z"/><path d="M108,135.87c-1.84,4.69-6.84,8.66-9.28,7.5s-1.7-7.1-1.43-9.28c.32-2.59,1.09-8.82,5-10a5.14,5.14,0,0,1,4.28.72C109.7,127,109.28,132.52,108,135.87Z"/><path d="M126.25,127.67c-3.24.89-3.85,6.61-4,8-.49,4.53.77,10.72,3,11,3.29.4,9.84-12,6-17A5.14,5.14,0,0,0,126.25,127.67Z"/><path d="M118.68,164.43c.95,1.07-13.89,21-21.42,17.49-4.93-2.29-7-13-2.85-17.49.88-1,2.35-2.32,3.24-1.91,2.07,1-2.29,10.06.33,12.26C101.86,178,117.78,163.42,118.68,164.43Z"/><path class="cls-2" d="M167.23,109.1c22.4,27.43-2.07,68.29-9.29,77.1-1.08,1.33-5.87,7.18-7.13,6.43-.29-.18-.88-1,2.14-9.28,2.36-6.52,3.55-9.77,6.42-15,5.33-9.68,12.22-40.75,0-56.39C145,93.57,107.25,100.45,107.26,96.25c0-1.91,7.15-3.3,8.56-3.57C130.26,89.88,153.64,92.46,167.23,109.1Z"/><ellipse class="cls-3" cx="102.25" cy="132.67" rx="2" ry="3"/><ellipse class="cls-3" cx="125.75" cy="136.67" rx="1.5" ry="3"/></g></svg>