<svg xmlns="http://www.w3.org/2000/svg" width="380" height="360" viewBox="0 0 380 360"><defs><style>.cls-1{fill:#5c4200;}.cls-2{fill:#422e00;}.cls-3{fill:#fff;}</style></defs><g id="Happy_Poo_Master" data-name="Happy Poo Master"><path class="cls-1" d="M355.66,208.36c9,12.51,28.77,39.92,22,69-15.28,65.64-154.7,92.95-258,71-21.36-4.53-101.89-21.64-115-69-2.27-8.18-9.95-44.09,7.05-77.2.27-.53.55-1.07.95-1.8,16.1-29.24,53.73-37.33,72-41C140.62,148.13,290.53,118,355.66,208.36Z"/><path class="cls-1" d="M329.66,201.36c-3.74,10-12.86,19.91-36,29-84.13,33.07-218.17,2.26-228-54-5.58-31.9,29.57-61.23,38-68,52.89-42.47,131.62-31,178,4C307.22,131.64,340.84,171.43,329.66,201.36Z"/><path class="cls-1" d="M124.66,126.36c5.28,25,44.62,36,71,36,24.25,0,56.17-10.12,71-36,29.65-51.75-42.38-126.41-53-122-6.13,2.55,9.84,30.34-5,50-14.54,19.27-40.6,6.8-65,29C142.22,84.67,120.2,105.22,124.66,126.36Z"/><path class="cls-2" d="M66.66,181.36c6.15,24.07,31.43,36.08,46,43,4.92,2.34,20.26,9.3,50,14,71.39,11.29,126-6.19,136-11,1.07-.51,7.54-3.74,8-3,.34.57-2.92,3.15-4,4-11.39,9-135.56,38.73-209-5-25.16-15-32.19-31.31-34-36a60.48,60.48,0,0,1-4-20,17.64,17.64,0,0,1,4-2,18.11,18.11,0,0,1,6-1A45.68,45.68,0,0,0,66.66,181.36Z"/><path class="cls-2" d="M259.66,136.36c.35.51-14.36,16.92-37,25-41.85,14.95-101.16-2-110-34-1.56-5.64-2.31-14.51,3-27a57.33,57.33,0,0,1,11-7,58,58,0,0,1,11-4,48.69,48.69,0,0,0-10,16c-3.2,8.42-3.64,16.7-3,21,3.28,22.21,50.8,43.67,91,34C241.94,154.05,259.28,135.83,259.66,136.36Z"/><path d="M94.66,198.36c.92,6.84,5.78,14.88,11,15,2,0,3.56-1,5-2s4.59-3.44,7-10c1.26-3.43,5.87-16-1-25-1.4-1.83-2.77-3.63-5-4C104.49,171.18,92.91,185.42,94.66,198.36Z"/><path d="M141.11,215.16c.93,6.84,5.78,14.88,11,15,2,.05,3.57-1,5-2s4.59-3.45,7-10c1.27-3.44,5.88-16-1-25-1.39-1.83-2.76-3.63-5-4C151,188,139.36,202.22,141.11,215.16Z"/><path d="M149.66,289.36c1.3.5-3.23,29.76-14,31-11.77,1.36-22.62-31.66-22-32s9.45,23.73,20,23C143.49,310.68,148.52,288.93,149.66,289.36Z"/><ellipse class="cls-3" cx="149.66" cy="209.36" rx="4" ry="8"/><ellipse class="cls-3" cx="103.66" cy="192.36" rx="4" ry="8"/></g></svg>