<svg xmlns="http://www.w3.org/2000/svg" xmlns:xlink="http://www.w3.org/1999/xlink" width="300" height="350" viewBox="0 0 300 350"><defs><style>.cls-1{fill:none;}.cls-2{clip-path:url(#clip-path);}.cls-3{clip-path:url(#clip-path-2);}.cls-4{fill:#e3f2fd;}.cls-5{fill:#bbdefb;}.cls-6{fill:#a9d6e5;}.cls-7{fill:#ff8b15;}.cls-8{fill:#ffe5aa;}.cls-9{fill:#fff;}.cls-10{fill:#5f8cff;}.cls-11{fill:#8a4b39;}.cls-12{fill:#385499;}.cls-13{fill:#a3590d;}</style><clipPath id="clip-path"><rect class="cls-1" x="-1336.9" y="372.85" width="1900" height="1080"/></clipPath><clipPath id="clip-path-2"><rect class="cls-1" x="-1616.35" y="184.24" width="2811.14" height="792"/></clipPath></defs><g id="second_bear" data-name="second bear"><g class="cls-2"><g class="cls-3"><rect class="cls-1" x="10.1" y="184.24" width="813.23" height="813.23"/><rect class="cls-4" x="10.1" y="184.24" width="813.23" height="813.23"/><rect class="cls-5" x="169.3" y="343.44" width="143.28" height="143.28" rx="41.27"/><rect class="cls-6" x="10.1" y="343.44" width="143.28" height="143.28" rx="41.27"/><rect class="cls-6" x="169.3" y="184.24" width="143.28" height="143.28" rx="41.27"/><rect class="cls-5" x="10.1" y="184.24" width="143.28" height="143.28" rx="41.27"/><rect class="cls-1" x="-803.13" y="184.24" width="813.23" height="813.23"/><rect class="cls-4" x="-803.13" y="184.24" width="813.23" height="813.23"/></g></g><path class="cls-7" d="M131.8,105.33c8,32.46-22.41,61.89-15.94,103.41a28.67,28.67,0,0,0,1.24,5.47c6.12,17.24,27.18,30.32,46,29.1,20-1.29,32.06-18.23,52.68-49,24.82-37.06,60.33-102.16,42.73-117.81l-.33-.28a11.07,11.07,0,0,0-2.6-1.48c-27.86-10.75-102.29,4-102.29,4C146.36,80.05,136,82.25,132,90.14,129.11,95.92,131,102.08,131.8,105.33Z"/><path class="cls-8" d="M218.29,177.66s34.45-49.74,29.76-84.7a5.81,5.81,0,0,0-1.25-2.84,6.57,6.57,0,0,0-3.2-1.87c-10.24-2.87-99.92-5.61-108.52-.7a13.72,13.72,0,0,0-2.87,2.25,11.66,11.66,0,0,0-2.63,4.81c-2.73,9.46-9.41,69.15-17.89,100.46-1.46,5.42-2.63,8.67-1.65,13.57,3.38,16.94,28.46,33.38,48.57,32.89C174,241.16,189,220,218.29,177.66Z"/><path class="cls-7" d="M11.84,239.94C-10.32,269.66,28,346.07,56,345.79c1.49,0,3.44-.24,13.36-5.13,12.2-6,26.46-13.15,45.22-27.75,14.58-11.35,28.88-22.67,42.14-42.14A151.69,151.69,0,0,0,167,253.3c-6.84-.24-33.16-2-51.38-22.61a62.93,62.93,0,0,1-11.3-18.49c-1.52.24-3.64.59-6.17,1C47.34,222,21.92,226.44,11.84,239.94Z"/><path d="M143.06,150c-1.58,7.65-.46,17.95,3.31,18.87s9.95-7.24,11.3-15.47c1.32-8.06-1.84-17.57-5.59-17.93S144.38,143.6,143.06,150Z"/><path d="M170.78,156.46c-1.56,7.68-.43,18,3.31,18.87s9.84-7.27,11.3-15.47-1.56-18-5.31-18.39S172.15,149.69,170.78,156.46Z"/><ellipse class="cls-9" cx="149.08" cy="158.97" rx="3" ry="4.5"/><ellipse class="cls-9" cx="176.08" cy="166.97" rx="3" ry="4.5"/><path d="M169.08,194c.33.49-9.66,12.72-19,9.5-7.84-2.71-9.92-14.48-9-15s4.12,9.19,12,11C161.23,201.34,168.81,193.55,169.08,194Z"/><rect class="cls-10" x="83.16" y="223.88" width="19.73" height="17.97" rx="5.88" transform="translate(-74.8 46.55) rotate(-20.24)"/><rect class="cls-10" x="94.22" y="245.46" width="19.73" height="17.97" rx="5.88" transform="translate(-124.86 102.26) rotate(-34.14)"/><rect class="cls-10" x="107.9" y="261.74" width="19.73" height="17.97" rx="5.88" transform="translate(-147 140.1) rotate(-40.23)"/><rect class="cls-10" x="59.57" y="231.26" width="22.26" height="20.27" rx="5.88" transform="translate(-92.02 49.58) rotate(-23.98)"/><rect class="cls-10" x="72.39" y="257.27" width="20.83" height="18.98" rx="5.88" transform="translate(-138.16 95.9) rotate(-35.04)"/><rect class="cls-10" x="87.29" y="279.08" width="20.83" height="18.98" rx="5.88" transform="translate(-165.71 135.5) rotate(-41.13)"/><rect class="cls-10" x="33.09" y="241.73" width="24.55" height="22.37" rx="5.88" transform="translate(-95.51 38.03) rotate(-23.08)"/><rect class="cls-10" x="48.9" y="271.4" width="24.23" height="22.07" rx="5.88" transform="translate(-133.04 68.35) rotate(-30)"/><rect class="cls-10" x="63.81" y="296.9" width="23.71" height="21.6" rx="5.88" transform="translate(-162.96 99.22) rotate(-35.04)"/><ellipse class="cls-10" cx="29.99" cy="294.58" rx="10.75" ry="22.03" transform="translate(-113.08 35.34) rotate(-23.08)"/><path class="cls-11" d="M293.61,17.67c2.57-2.22.79-11-4.29-13-1.93-.75-4.78-.67-6.28,1-2.13,2.36-.65,6.85,1.53,9.31C287.08,17.79,291.73,19.29,293.61,17.67Z"/><path class="cls-7" d="M253.59,43.19C241.32,63.66,243.34,83.13,241.38,83c-2.2-.16-8-24.93,3.83-45.25,13.24-22.65,42-28.73,43.14-26.79C289.33,12.69,267.45,20.07,253.59,43.19Z"/><path class="cls-11" d="M245.08,76.47a7.37,7.37,0,0,1-2,5c-2.09,2.24-5.89,3.22-7,2s.13-4.46,3-8a3.22,3.22,0,0,0,1,4c1.42.79,3.2-.54,3.89-1.24A7.14,7.14,0,0,0,245.08,76.47Z"/><path class="cls-12" d="M59.08,256.47c.57,1-4.73,5.5-11,8-3,1.2-6.16,2.4-9,1-.52-.26-2-1.08-4-5-2.74-5.36-4-11.64-3-12,1.13-.43,2.56,8.2,9,11C48.9,262.86,58.33,255.16,59.08,256.47Z"/><path class="cls-12" d="M83.75,244.79c.51.9-4.33,5-10,7.3-2.76,1.1-5.62,2.19-8.21.91-.49-.23-1.83-1-3.66-4.56-2.5-4.9-3.62-10.62-2.74-11,1-.39,2.34,7.49,8.22,10.05C74.45,250.63,83.06,243.59,83.75,244.79Z"/><path class="cls-12" d="M104.05,235.5c.45.8-3.8,4.43-8.83,6.43-2.43,1-5,1.93-7.23.8-.42-.21-1.61-.87-3.21-4-2.2-4.31-3.19-9.34-2.41-9.64s2,6.59,7.23,8.83C95.87,240.64,103.45,234.45,104.05,235.5Z"/><path class="cls-12" d="M75.38,285c.69.91-4,6.06-9.89,9.33-2.85,1.58-5.81,3.17-8.8,2.14-.56-.19-2.12-.82-4.61-4.45-3.39-5-5.41-11-4.5-11.52,1.07-.57,3.58,7.81,10.33,9.76C66.09,292.59,74.47,283.75,75.38,285Z"/><path class="cls-12" d="M89.39,309.7c.72.8-3.32,6-8.65,9.57-2.57,1.7-5.25,3.42-8.16,2.68-.54-.14-2.06-.61-4.68-3.86-3.59-4.45-6-10-5.13-10.56s4,7.12,10.5,8.46C81.19,317.62,88.44,308.63,89.39,309.7Z"/><path class="cls-12" d="M109.58,289.4c.66.71-2.93,5.47-7.7,8.72-2.3,1.56-4.7,3.14-7.33,2.5-.49-.12-1.87-.53-4.27-3.44-3.28-4-5.47-9-4.73-9.46s3.66,6.37,9.55,7.52C102.26,296.62,108.71,288.44,109.58,289.4Z"/><path class="cls-12" d="M95,266.8c.66.72-2.93,5.48-7.7,8.72-2.3,1.57-4.7,3.15-7.33,2.51-.49-.12-1.87-.54-4.27-3.44-3.28-4-5.47-9-4.73-9.47s3.66,6.38,9.55,7.52C87.65,274,94.1,265.85,95,266.8Z"/><path class="cls-12" d="M115.32,254.69c.61.67-2.73,5.11-7.18,8.13-2.14,1.46-4.38,2.93-6.83,2.33-.46-.11-1.75-.49-4-3.2-3.06-3.7-5.1-8.37-4.41-8.82s3.41,5.94,8.91,7C108.5,261.43,114.51,253.8,115.32,254.69Z"/><path class="cls-12" d="M128.69,271.43c.62.67-2.73,5.1-7.18,8.13-2.14,1.45-4.38,2.93-6.83,2.33-.46-.11-1.74-.5-4-3.2-3.06-3.7-5.1-8.37-4.41-8.83s3.41,5.95,8.91,7C121.87,278.17,127.89,270.54,128.69,271.43Z"/><path class="cls-12" d="M42.08,297.47c1.5.35,1.83,16.93-4,19-7.18,2.54-19.72-18.37-19-19s9.24,12,16,10C40.15,305.94,41,297.21,42.08,297.47Z"/><path class="cls-13" d="M170.08,242.47a11.08,11.08,0,0,1-3,11,68.24,68.24,0,0,1-63-41l6-4a34.75,34.75,0,0,0,3,8c3.87,7.33,9.39,11.18,15,15,5.44,3.69,13.72,9.19,26,11A55.76,55.76,0,0,0,170.08,242.47Z"/></g></svg>