<svg xmlns="http://www.w3.org/2000/svg" xmlns:xlink="http://www.w3.org/1999/xlink" width="315" height="370" viewBox="0 0 315 370"><defs><style>.cls-1{fill:#f4ad29;}.cls-2{fill:#7f4700;}.cls-3{fill:#fff;}.cls-4{fill:url(#linear-gradient);}.cls-5{fill:#ff5f99;}.cls-6{fill:url(#linear-gradient-2);}.cls-7{fill:url(#linear-gradient-3);}.cls-8{fill:url(#linear-gradient-4);}.cls-9{fill:#c77814;}.cls-10{fill:#c7852e;}</style><linearGradient id="linear-gradient" x1="276.05" y1="326" x2="250.03" y2="307.02" gradientUnits="userSpaceOnUse"><stop offset="0.02" stop-color="#ff5f99"/><stop offset="0.23" stop-color="#ff649c"/><stop offset="0.49" stop-color="#ff73a6"/><stop offset="0.58" stop-color="#ff7aab"/><stop offset="1" stop-color="#ff87b3"/></linearGradient><linearGradient id="linear-gradient-2" x1="101.59" y1="357.42" x2="60.92" y2="327.77" xlink:href="#linear-gradient"/><linearGradient id="linear-gradient-3" x1="104.64" y1="53.65" x2="93.96" y2="45.86" xlink:href="#linear-gradient"/><linearGradient id="linear-gradient-4" x1="219.93" y1="49.22" x2="225.88" y2="41.33" gradientTransform="translate(-4.56 -12.5) rotate(-0.57)" gradientUnits="userSpaceOnUse"><stop offset="0.15" stop-color="#ff5f99"/><stop offset="0.32" stop-color="#ff669e"/><stop offset="0.55" stop-color="#ff7aab"/><stop offset="1" stop-color="#ff87b3"/></linearGradient></defs><g id="second_bear" data-name="second bear"><path class="cls-1" d="M19.71,235.53a112.37,112.37,0,0,1,10.63-28c22.78-42,66.14-56.82,80.64-61.08a256.39,256.39,0,0,1-16,33c-8.71,15.13-13.22,19.52-16,28.88-2.7,8.95-3.81,22.68,4.83,42.54a182.46,182.46,0,0,1-23.47,3.06c-18.13,1.17-30.52,1.86-36.74-5.8C20.32,244.09,19.7,239.12,19.71,235.53Z"/><path class="cls-1" d="M214.29,140.63a83.62,83.62,0,0,1,30.67,6c25.32,10.19,38.18,30.15,42.53,37.71a12.66,12.66,0,0,1,1,4.83c0,6.46-5.65,10.67-17.4,21.27-2.59,2.33-6.53,5.92-11.34,10.47.06-9.15-1-34.84-19.33-58A88.86,88.86,0,0,0,214.29,140.63Z"/><path class="cls-1" d="M257.53,224.81A78.47,78.47,0,0,1,244,259.42c-19.76-4.85-30.74-1-37,3-15.73,10.12-16.57,31.21-31.36,33.85a139.86,139.86,0,0,1-18.56,1.15c-3.54,0-6.48-.09-8.51-.18L145,277.42a59.3,59.3,0,0,0-50-10,97.51,97.51,0,0,1-14.37-49.29c-.45-40,25-66.37,30.37-71.71a54.87,54.87,0,0,0,17,12c11.44,5.11,21.55,4.76,28.3,4.45,27.29-1.26,50.33-16.14,59-22.24A91.54,91.54,0,0,1,245,169.8a86.55,86.55,0,0,1,9.66,21.26A83,83,0,0,1,257.53,224.81Z"/><path class="cls-1" d="M247.86,34.45c-4.34,7.64-14.27,14.77-22.24,12.57-5.16-1.42-4.42-5.37-12.57-11.6-8.82-6.75-13.85-5.31-15.46-9.67-2.32-6.25,5.53-15.93,13.53-20.3,10.1-5.51,20.32-2.5,22.24-1.93a24,24,0,0,1,12.56,7.73,20.58,20.58,0,0,1,4.84,12.57A20.51,20.51,0,0,1,247.86,34.45Z"/><path class="cls-1" d="M252.69,343.81a44.29,44.29,0,0,1-8.7,1c-34.73.37-67.65-41.65-63-63.35a31.23,31.23,0,0,1,5-11.08c4.62-6.09,10.54-8.73,16.43-10.64a74.5,74.5,0,0,1,34.8-2.9,71.67,71.67,0,0,1,11.6,2.9,137.14,137.14,0,0,1,30,12.57c8.08,4.55,12,7.27,14.5,12.57a21.36,21.36,0,0,1,1.94,8.7,38,38,0,0,1-1.94,14.5c-3,8.82-8.61,14-14.5,19.33A90.61,90.61,0,0,1,252.69,343.81Z"/><path class="cls-1" d="M244,93.42a57.34,57.34,0,0,1-8.93,26.36c-21.06,34.86-66.57,39.73-73.24,40.35-14.85,1.37-28.73,2.65-41.57-5.8-25.77-17-22.87-57-22.24-65.74.8-11,2.63-36.25,23.14-54C136.53,21.3,154,19.51,159.88,19c32.36-2.87,62,16.74,75.41,40.6C238.5,65.3,245.09,77.38,244,93.42Z"/><ellipse cx="146.05" cy="70.14" rx="9.43" ry="12.76" transform="translate(-15.6 59.23) rotate(-21.79)"/><ellipse cx="190.08" cy="59.88" rx="8.63" ry="11.68" transform="translate(-9.13 65.52) rotate(-19.11)"/><path class="cls-1" d="M143.45,6.42a65.4,65.4,0,0,1-3.87,6.77,74.93,74.93,0,0,1-9.67,11.6c-3.6,3.76-8.14,8.36-13.53,13.53l48.34-16.43A22.65,22.65,0,0,1,158,17.05c-2-2.11-2.26-3.26-5.8-7.73-3.17-4-4.44-4.94-5.8-4.84A4.34,4.34,0,0,0,143.45,6.42Z"/><path class="cls-1" d="M148,284.42a34.11,34.11,0,0,0-9.36-13.12c-14.89-12.67-35.45-6.55-37.64-5.88-4.44,1.36-7.21,3.06-12,6A99,99,0,0,0,57.41,303.2a103.51,103.51,0,0,0-11.6,26.11,40,40,0,0,0,6.77,21.26c9.05,13.16,26.26,19.66,44.47,17.41a48.3,48.3,0,0,0,14.5-2.9c28.51-10.56,35.82-45.59,36.73-50.27A77,77,0,0,0,148,284.42Z"/><path class="cls-2" d="M225.62,93.42C222.42,79.51,184,69,157,82.79c-15.36,7.87-30.56,25.42-26.1,35.77,3.45,8,18.24,10.76,29,7.73,8.09-2.27,18.42-9.09,18.37-16.43,0-4.47-3.93-12.67-2.9-14.5a2.5,2.5,0,0,1,1-1,2.64,2.64,0,0,1,1.93,0c2.08.75-.38,9.54,1.93,14.5,3.43,7.32,19.29,10.61,30.94,4.84C218.61,110,227.38,101.06,225.62,93.42Z"/><path d="M188.89,76c-.39,3.41-1.85,12.32-8.71,16.44a13.35,13.35,0,0,1-1.93,1,10.84,10.84,0,0,1-3.87,0c-8-1.45-11.31-11.64-11.6-12.56a29.69,29.69,0,0,1,4.84-2.9A31.2,31.2,0,0,1,188.89,76Z"/><path class="cls-1" d="M188.89,25.75c-13.36.15-27.23.76-41.57,1.94-3.59.29-7.13.61-10.64,1a94.83,94.83,0,0,0,25.14-13.53,94.87,94.87,0,0,0,14.5-13.54,12.13,12.13,0,0,1,4.83,3.87C184.26,9.76,182.42,14,185,20A19.8,19.8,0,0,0,188.89,25.75Z"/><path class="cls-3" d="M150.22,66.36c1.2,2.24,1,5.77-1,6.76s-4.75-.68-5.8-2.9c-1.18-2.51-.19-6.12,1.93-6.76C147.18,62.91,149.31,64.65,150.22,66.36Z"/><path class="cls-3" d="M193.94,56.5c1.2,2.24,1,5.77-1,6.76s-4.75-.68-5.8-2.9c-1.18-2.51-.19-6.12,1.94-6.76C190.91,53.05,193,54.79,193.94,56.5Z"/><path class="cls-4" d="M286.53,304.17c-1.53-3.4-6.18-5.2-7.74-5.8a19.8,19.8,0,0,0-9.67-1,29.42,29.42,0,0,0-14.5,5.8c-2.12,1.61-7.28,5.52-9.66,12.57-2.12,6.27-2.67,16.89,2.9,20.3,5.06,3.11,12.54-1.35,18.36-4.83C277.28,324.64,289.88,311.63,286.53,304.17Z"/><path class="cls-5" d="M274,288.7c-.29,2.05-2.28,3.41-3.87,3.87-3.11.9-7.32-.89-7.73-3.87-.38-2.73,2.53-5.79,5.8-5.8S274.34,285.91,274,288.7Z"/><path class="cls-5" d="M248.82,294.5c.83,3.51-3.26,7.6-6.76,6.77a5.44,5.44,0,1,1,6.76-6.77Z"/><path class="cls-5" d="M235.29,320.61c.07,2.36-1.33,5.56-3.87,5.8s-4.67-2.37-4.83-4.84c-.23-3.32,3.3-6.44,5.8-5.8C234.24,316.25,235.24,318.74,235.29,320.61Z"/><path class="cls-6" d="M100.55,358.79c2.47-2.78,2.21-7.76,2.13-9.43a19.69,19.69,0,0,0-3.08-9.21,29.29,29.29,0,0,0-11.22-10.86c-2.33-1.28-8-4.4-15.42-3.68-6.58.63-16.5,4.48-17.34,10.95-.77,5.89,6.37,10.89,11.92,14.78C78.09,358.73,95.11,364.91,100.55,358.79Z"/><path class="cls-5" d="M107.59,343.9c-2,.57-4-.68-5.11-1.95-2.09-2.47-2.19-7,.36-8.64,2.34-1.46,6.33-.06,7.67,2.92S110.29,343.11,107.59,343.9Z"/><path class="cls-5" d="M93,325.27c-2.86,2.19-8.27.13-9-3.41a5.45,5.45,0,1,1,9,3.41Z"/><path class="cls-5" d="M65.56,324.56c-2.13,1-5.62,1.07-6.88-1.15s.25-5.23,2.44-6.39c2.93-1.56,7.23.38,7.66,2.92C69.1,321.83,67.24,323.75,65.56,324.56Z"/><path class="cls-1" d="M102.85,62.49c-1.59,5.47-.92,6.88-2.9,8.7-6,5.51-22.72,1.66-29-8.7A22.66,22.66,0,0,1,68,50.89a30.86,30.86,0,0,1,5.8-18.37A39.11,39.11,0,0,1,87.38,17.05,31.28,31.28,0,0,1,99,12.22a24.25,24.25,0,0,1,19.33,3.87c2.07,1.41,9.28,6.37,8.7,11.6-.29,2.72-2.53,3.94-5.8,6.76C112.77,41.76,105.69,52.69,102.85,62.49Z"/><path class="cls-7" d="M108.65,49.92a34.12,34.12,0,0,0-3.87,6.77,23,23,0,0,0-1,2.9,10.35,10.35,0,0,1-6.76,1.93c-5.3-.53-9.3-5.89-9.67-11.12-.43-6,3.91-12,9.67-13,5-.9,8.9,2.29,9.66,2.9s4.49,3.64,3.87,6.77C110.44,47.74,110.21,47.69,108.65,49.92Z"/><path class="cls-8" d="M226.59,31.47c.07,4.46-4.21,8.07-7.18,7.8-1.37-.12-1.55-1-5.35-3.81s-4.62-2.74-4.87-3.82c-.67-2.8,4.13-8.32,9.59-7.83C222.43,24.14,226.52,27.17,226.59,31.47Z"/><path class="cls-9" d="M75.77,232.59c-1.7-21,6.06-38.37,7-38.17.44.09-.62,4.17-1,15-.2,5.85-.09,10.41,0,13a103.85,103.85,0,0,0,1,13,75.11,75.11,0,0,0,4,15l-7,1A76.24,76.24,0,0,1,75.77,232.59Z"/><path class="cls-9" d="M254,186.42a95.43,95.43,0,0,1,5,17,89,89,0,0,1,1.53,16.49L257,223.42a110,110,0,0,0-2-29,76.94,76.94,0,0,0-9-23c-5.66-9.54-12.25-15.77-12-16s5.91,4.55,11,12C249.26,173.67,251.29,179.14,254,186.42Z"/><path class="cls-9" d="M139.53,163.05c-18-3.79-29.43-16.35-29-17s12,11.13,31,14c11.35,1.71,20.76-.43,32-3,18.8-4.28,29.77-10.51,30-10s-15.34,10.86-37,15C158.24,163.64,149.9,165.23,139.53,163.05Z"/><path class="cls-10" d="M157,292.42c3.6,2.66,8.1,2.11,9,2a13.07,13.07,0,0,0,7-3c1.92-1.68,2.84-3.59,4-6s.89-2.66,2-5c1.63-3.44,3.75-6.15,4-6s-1.16,1.86-2,5a24,24,0,0,0,0,12,25.25,25.25,0,0,0,1,3,78.2,78.2,0,0,1-22.52,3.52,79.57,79.57,0,0,1-9.48-.52,35.59,35.59,0,0,0-1-8c-2.23-9.21-7.49-14.62-7-15s7,4.23,11,12C154.3,289,154.81,290.8,157,292.42Z"/></g></svg>