<svg xmlns="http://www.w3.org/2000/svg" xmlns:xlink="http://www.w3.org/1999/xlink" width="130" height="130" viewBox="0 0 130 130"><defs><style>.cls-1{fill:none;}.cls-2{clip-path:url(#clip-path);}.cls-3{clip-path:url(#clip-path-2);}.cls-4{clip-path:url(#clip-path-3);}.cls-5{fill:#e3f2fd;}.cls-6{fill:#bbdefb;}.cls-7{fill:#a9d6e5;}.cls-8{fill:#c4c4c4;}.cls-9{fill:#e0e0e0;}.cls-10{fill:#fd79ab;}.cls-11{fill:#fdb4c7;}.cls-12{fill:#c56482;}.cls-13{opacity:0.53;}</style><clipPath id="clip-path"><rect class="cls-1" x="-2150.18" y="-50.78" width="1916.5" height="1080"/></clipPath><clipPath id="clip-path-2"><rect class="cls-1" x="-2148.68" y="-51.31" width="1916.5" height="1080"/></clipPath><clipPath id="clip-path-3"><rect class="cls-1" x="-2430.55" y="-239.92" width="2835.55" height="792"/></clipPath></defs><g id="Sad_Poop" data-name="Sad Poop"><g class="cls-2"><g class="cls-3"><g class="cls-4"><rect class="cls-1" x="30.31" y="-239.92" width="820.29" height="813.23"/><rect class="cls-5" x="30.31" y="-239.92" width="820.29" height="813.23"/><path class="cls-6" d="M133.21,221.75H71.94a41.45,41.45,0,0,1-41.63-41.27V119.74A41.45,41.45,0,0,1,71.94,78.47h61.27a41.45,41.45,0,0,1,41.62,41.27v60.74A41.45,41.45,0,0,1,133.21,221.75Z"/><path class="cls-7" d="M133.21,62.55H71.94A41.45,41.45,0,0,1,30.31,21.28V-39.46A41.45,41.45,0,0,1,71.94-80.73h61.27a41.45,41.45,0,0,1,41.62,41.27V21.28A41.45,41.45,0,0,1,133.21,62.55Z"/><rect class="cls-1" x="-789.98" y="-239.92" width="820.29" height="813.23"/><rect class="cls-5" x="-789.98" y="-239.92" width="820.29" height="813.23"/></g></g><path class="cls-8" d="M-168.59,203.47c193.06-56.31,269.25-80.32,273.74-84.39.36-.33,3.18-3.17,6.62-3,4,.18,6.42,4.18,6.62,4.53,2.45,4.1.35,8.3,0,9-11.46,24-132.26,495.16-132.45,498.65,0,0,0,.16,0,.35a6.56,6.56,0,0,1-2.18,4.1c-2.29,2.1-5.75,2.78-6.62,3-8.12,1.76-257.72,62.19-298,77.19-2.94,1.09-14.61,5.2-17.66,3-2.44-1.77,1.74-6.82,2.2-7.42C-329.85,699.89-278.65,547-168.59,203.47Z"/><path class="cls-9" d="M-282.63,4.83c214.36,43.42,420.57,91.42,413.41,116-.54,1.85-2.1,3-4.68,4.72C44.82,180.24-113,202.07-142.87,212a57.53,57.53,0,0,1-18.72,3.14,61.36,61.36,0,0,1-18.7-3.14c-8.78-2.59-21.62-6-39.76-9.42A278.29,278.29,0,0,0-225,152.05c-2.69-13.42-7.34-29.69-7.9-31.65q-1.6-5.62-3.41-11.37A513.15,513.15,0,0,0-282.63,4.83Z"/></g><rect class="cls-10" x="3.5" y="3.5" width="123" height="123" rx="12"/><rect x="30.46" y="70.69" width="69.31" height="35.79" rx="5.79"/><path d="M69.24,25.43,114.53,68a5.82,5.82,0,0,1-4,10H20a5.81,5.81,0,0,1-4-10L61.27,25.43A5.81,5.81,0,0,1,69.24,25.43Z"/><rect x="83.79" y="37.95" width="17.63" height="21.37" rx="3.87"/><path class="cls-11" d="M7.58,53.48a2.29,2.29,0,0,0,2.05-2.65V16.94c0-1.62,0-3.24.07-4.86a14.89,14.89,0,0,1-1.31-1.39c-.57-.68-.66-.92-.83-.92-.47,0-1.16,2.09-1.57,7.09-.69,8.38-.47,23.43-.2,34A2.29,2.29,0,0,0,7.58,53.48Z"/><path class="cls-11" d="M7.48,10.24c-.33.78-.2,1.34.34,3.87.41,2,1,4.73,1.66,8.13a11.07,11.07,0,0,1,3-9,11.07,11.07,0,0,1,9-3h47l15.29-.4c1.68-.3,2.74-1.39,2.66-2.13S84.9,6,83,6.32c-3.29-.08-5.86-.16-7.17-.2,0,0-41.41-1.27-56.78-.19a28.21,28.21,0,0,0-2.87.39C12.76,6.94,8.55,7.72,7.48,10.24Z"/><path class="cls-12" d="M122.39,57.42c-.93-.09-2,1.54-1.89,3.76v48.1l-.18,3.13c.39,1,1.32,3.13,2,3,.29,0,.21-.49,1-3a9.42,9.42,0,0,0,.53-3s-1.52-26.83.18-48.22C124.19,59.12,123.26,57.49,122.39,57.42Z"/><path class="cls-12" d="M123.32,108.41c-.41-.93-1.27-2.11-2-2-1.49.24-.51,5.52-3,9-1.46,2-4.47,4-11.11,4q-23.23.17-47,0l-7.41-.07c-1.64.12-2.73,1.06-2.43,2s1.67,1.43,3.17,1.28l6.55.19L112,123a9.17,9.17,0,0,0,2.62-.37C120.61,120.9,125.28,112.92,123.32,108.41Z"/></g></svg>