<svg xmlns="http://www.w3.org/2000/svg" width="365" height="335" viewBox="0 0 365 335"><defs><style>.cls-1{fill:#5c4200;}.cls-2{fill:#6b5504;}.cls-3{fill:#453002;}.cls-4{fill:#ff5f99;}.cls-5{fill:#ffc4da;}</style></defs><g id="Sad_Poop" data-name="Sad Poop"><path class="cls-1" d="M228.19,86.64c1.6-17.1,17.53-17.91,23.29-39.06,3.06-11.21,4.4-32.34-8.91-41.11-10.72-7.06-28.14-4.24-34.94,4.8-6.28,8.36,1.36,15.58-4.11,30.83S185.13,65.27,181.6,67.45a58.46,58.46,0,0,1-25.35,8.22,66.56,66.56,0,0,1-29.46-4.79c-32.4-13.83-28.68-49.83-51.3-55.21C55.82,11,27.54,32.15,26.76,52.38c-.05,1.2-.37,11.68,6.85,18.5C44.38,81.05,57.39,71.55,72,81.15c7.83,5.15,13.55,14.12,14.39,23.3.77,8.39-3,14.56-9.59,25.35-7.84,12.77-13,21.14-22.36,26.31-19.18,10.56-34.72-4.08-45,5-11.88,10.48-7.45,44.45,8,52,16.51,8.06,34.05-19.71,58-12.06,12.45,4,24.48,16.81,25.35,30.15,1.52,23.37-31.06,30.46-32.89,58.92-.89,14,6,28.21,16.45,35.63,23.43,16.59,63.6-.41,67.83-18.5,3.39-14.55-18.17-22.52-15.76-41.79,1.92-15.37,18.09-29.86,34.94-31.52,14.87-1.47,26.38,7.45,33.57,13,19,14.74,14.91,26.47,31.52,38.37,13.28,9.5,33.74,14.77,50,6.85,2.55-1.24,13.36-6.5,17.13-17.82,4.88-14.64-4.73-31.37-15.07-40.42-20-17.49-40.91-4.74-52.76-19.87-9.57-12.22-7.34-35.48,5.48-48,14.82-14.42,38-8.78,41.21-8,23,5.59,25.79,23.17,40,23,22.82-.28,48.81-46.05,37-63-6.8-9.76-26-9.85-38-7-21.09,5-25.24,20.44-45.26,21.43a43.68,43.68,0,0,1-24-6.17C238.87,118.73,226.69,102.53,228.19,86.64Z"/><path class="cls-1" d="M196.31,311.14a10.44,10.44,0,0,1-2-1c-6.36-4-8.21-13.87-9.89-22-3.81-18.47-5.49-22.26-4-23,2.42-1.22,6.38,8.95,20,17,4.37,2.58,6.51,3,8.92,6.08,3.28,4.16,6.7,12.71,2,18.84C208.15,311.29,201.37,313.12,196.31,311.14Z"/><path class="cls-1" d="M59,121.58c.12-.51-.36-1-.69-1.37-4.39-4.49-13.05-6.83-15.76-7.54-5-1.32-7.55-2-8.22-2-4-.44-12.49-1.42-17.13,4.11-.5.6-4,4.89-2.74,10.27,1.3,5.58,6.64,7.84,7.54,8.22a14.9,14.9,0,0,0,8.91.69c8.42-1.71,9-8.28,17.81-11C53.37,121.52,58.58,123.07,59,121.58Z"/><path class="cls-1" d="M146.81,56.87c1.15,0,2.19-1,6.7-10.66s6.66-14.27,6.16-17.13c-1-6.06-7-13.08-13.7-12.33-5.52.62-9.29,6.35-10.28,11-.32,1.49-.52,3.69,3.43,14.39C142.75,51.94,144.6,56.86,146.81,56.87Z"/><path class="cls-2" d="M45.25,44.84C42.68,41.33,47.61,34,48.49,32.67c4.11-6.13,11.89-10.92,20-10,5.74.65,9.6,3.92,12,6C91,37.82,87.71,47,97.32,58.54c5.22,6.28,11.07,9.41,16.45,12.34,14.72,8,28.26,8.22,28.09,10.62-.11,1.6-6.25,2.32-6.85,2.39a27.63,27.63,0,0,1-15.08-2.74A149.8,149.8,0,0,1,86.36,59.23c-9.2-9.08-8.49-11.42-13.87-13.56C60.35,40.84,48.66,49.48,45.25,44.84Z"/><path class="cls-2" d="M214.48,16.75c.8-5,8.42-8.17,14.39-8.22a19,19,0,0,1,13.7,6.17c3.11,3.5,3.71,7.3,4.8,13.7a45,45,0,0,1,.68,13c-1.57,14.81-11.2,24.47-15.42,28.71-1.89,1.88-4.76,4.49-5.13,4.17s2.58-4.1,6.17-9.59c4.24-6.5,6.37-9.75,7.53-13,2.81-7.87,2.2-18.88-4.11-26-1.11-1.26-6.2-7-11.64-6.17-3.91.63-5.74,4.3-8.23,3.43C215.27,22.23,214.1,19.16,214.48,16.75Z"/><path class="cls-3" d="M70.6,292.86A32.07,32.07,0,0,0,72,301.77,36.28,36.28,0,0,0,83.62,318.9c11.18,9.39,24.69,9.16,28.78,8.9,16.74-1,28.92-12,28.77-12.33a99.12,99.12,0,0,1-12.33,4.8,75.55,75.55,0,0,1-8.22,2.05c-15.88,2.78-28.78-5.48-28.78-5.48-2.61-1.68-10.65-7-14.38-17.13A36.42,36.42,0,0,1,75.4,286c.2-7.69,2.6-12.12,2.06-12.33C76.68,273.38,70.59,281.88,70.6,292.86Z"/><path class="cls-3" d="M204.21,240.11c.59-.75,9,3.74,17.12,11,10.72,9.57,10,14.34,19.19,22.61,4.81,4.34,13.76,12.43,25.35,13,16,.81,28.33-13.14,30.14-11,.94,1.13-1.94,5.36-4.79,8.22-11.46,11.52-29.85,8.41-30.83,8.23-13.93-2.57-22.71-12.45-28.09-18.5-5.13-5.77-4.25-6.82-11.65-15.76C211.12,246.41,203.62,240.85,204.21,240.11Z"/><path class="cls-4" d="M118.28,182.12l-2.43-6.5-9.47,3.53,2.42,6.5a4.27,4.27,0,1,1-8,3l-7.17-19.23a4.27,4.27,0,1,1,8-3l2.15,5.75,9.47-3.53-2.14-5.75a4.27,4.27,0,0,1,8-3l7.16,19.23a4.27,4.27,0,1,1-8,3Z"/><path class="cls-4" d="M134.94,149.4c8.16-3,16.54.15,19.57,8.28s-1.21,16-9.37,19.08-16.54-.16-19.57-8.29S126.77,152.45,134.94,149.4Zm2.63,7.06c-3.85,1.43-5.25,5.3-3.88,9s5,5.69,8.82,4.26,5.24-5.3,3.87-9S141.41,155,137.57,156.46Z"/><path class="cls-4" d="M184.33,157.49l-4.87-13.08.28,17.59a2.47,2.47,0,0,1-4.36,1.63l-11.31-13.49L169,163.23a4.27,4.27,0,0,1-8,3l-6.28-16.85a6.81,6.81,0,0,1,11.63-6.73l6.86,8.37-.28-10.82a6.81,6.81,0,0,1,13.19-2.53l6.28,16.85a4.27,4.27,0,0,1-8,3Z"/><path class="cls-4" d="M196.39,152.27l-6.69-18c-1-2.73-.08-4.8,2.66-5.82l12.88-4.8a3.55,3.55,0,1,1,2.48,6.66l-9.11,3.39,1.15,3.1,8.84-3.3a3.55,3.55,0,0,1,2.48,6.66l-8.84,3.3,1.26,3.37,9.12-3.4a3.55,3.55,0,0,1,2.48,6.66l-12.89,4.8C199.48,156,197.41,155,196.39,152.27Z"/><path class="cls-5" d="M102.6,185.92q.8,2.33.6,2.4t-1.2-1.8l-3-7.82c-2.55-6.62-5-9.72-3.61-12a4,4,0,0,1,2.4-1.81c.11.11-.74.81-1.2,1.81-.78,1.7-.07,3.51,1.2,6.61,1.36,3.3,2.41,5.79,3,7.22Z"/><path class="cls-5" d="M126.34,165.45c1.09,6.27,7.2,10.24,7.22,10.22a21.31,21.31,0,0,1-3.61-4.81,17.57,17.57,0,0,1-1.8-4.21,12.08,12.08,0,0,1,0-7.82,11.72,11.72,0,0,1,3-4.21,9.78,9.78,0,0,1,2.4-1.8c1.94-1,3.48-.9,5.41-2.41.39-.3.65-.5.6-.6-.18-.39-5.7.12-9.62,4.21A13.58,13.58,0,0,0,126.34,165.45Z"/><path class="cls-5" d="M163.3,165.43c.13.72.19,1.76,0,1.81s-.83-1.65-1.8-4.21c-.77-2-1.62-4-2.41-6-2.34-6-3.27-8.33-3-10.82a5.46,5.46,0,0,1,1.2-3c.66-.78,1.62-1.37,1.8-1.2s-.68,1.19-1.2,2.41c-.26.6-.79,2.08,0,6a47.75,47.75,0,0,0,3.61,10.22c.43,1,.76,2,1.2,3A7.48,7.48,0,0,1,163.3,165.43Z"/><path class="cls-5" d="M193.79,133.15c-1.23,4.53,6.5,20.76,6,21-.13.08-.6-.6-.6-.6a36.27,36.27,0,0,1-4.56-9.76c-2.46-9.08-3.76-10-2.65-11.89,1.51-2.54,5.37-3.08,5.41-3a6.21,6.21,0,0,0-3.61,4.21Z"/></g></svg>