<svg xmlns="http://www.w3.org/2000/svg" width="280" height="190" viewBox="0 0 280 190"><defs><style>.cls-1{fill:#7a2d00;}</style></defs><g id="Sad_Poop" data-name="Sad Poop"><path class="cls-1" d="M74.07,160.24,45,118.23c-2.67-3.86-4.16-7.69-3.16-8.39s4.06,2.06,6.74,5.92l29.1,42c2.68,3.87,4.16,7.7,3.17,8.39S76.74,164.1,74.07,160.24Z"/><path class="cls-1" d="M91.19,153.91,66,126.46l17.5,27.39c2.53,4,3.87,7.85,2.85,8.5s-4-2.2-6.51-6.16L53.7,115.32c-3.28-5.14-5-10.2-3.68-11.06.81-.52,2.54.63,4.6,2.88L78.3,132.83,61.82,107.05c-2.53-4-3.86-7.86-2.86-8.5s4,2.18,6.54,6.14l26.55,41.55c3.07,4.8,4.65,9.49,3.4,10.29C94.7,157,93.05,155.92,91.19,153.91Z"/><path class="cls-1" d="M92.8,143.47c-2.13-3.73-3.16-7.29-2.22-7.83.35-.2.86,0,1.52.51,2.45,1.94,4.56,2.92,5.94,2.13s.84-3.36-.75-6.14c-1.89-3.29-3.58-4.06-5.88-4.46-3.51-.53-8.28-1-16.14-14.73C69.7,103.24,67,93.63,70.92,91.36c1.6-.92,4-.44,6.93,1.56a17.54,17.54,0,0,1,4.37,5.44c2.14,3.73,3.12,7.21,2.17,7.75-.28.16-.77,0-1.25-.32-2.5-1.56-4.22-2.07-5.14-1.54-1.47.84-.81,3.11.63,5.62,1.74,3,3.24,3.56,5.56,3.85,3.55.61,8.48,1.48,16,14.57,6.66,11.63,8.92,20.59,5,22.84-2.15,1.23-4.89.27-8.21-2.32A19.26,19.26,0,0,1,92.8,143.47Z"/><path class="cls-1" d="M111.44,137.4l-20-39.07-2.72,1.4c-.93.47-3.2-2.07-5.11-5.81s-2.66-7.06-1.74-7.54l9.27-4.75c.92-.47,3.21,2.06,5.13,5.8S98.87,94.51,98,95l-2.68,1.37,20,39.06c2.14,4.19,3.09,8.19,2,8.74S113.58,141.58,111.44,137.4Z"/><path class="cls-1" d="M131.37,121.92a29.87,29.87,0,0,1,2.69,4.7c2,4.26,2.67,8.13,1.64,8.61-.71.34-2-.94-3.12-2.51L121,116.15l-2.22,1L125,130.61c2,4.26,2.8,8.29,1.7,8.8s-3.66-2.71-5.64-7l-21-45.15c-2.49-5.35-3.1-8.59-1.75-9.22l5.57-2.59c3.39-1.58,9.44,6.41,14.67,17.65,4.39,9.43,5.67,15.67,5.53,18.72Zm-18.75-18,3.12-1.45c1-.48.68-3.51-1.26-7.68s-4-6.4-5.06-5.92l-3.12,1.45Z"/><path class="cls-1" d="M116.63,78.27c-1.76-4.36-2.35-8.44-1.2-8.9s3.54,2.88,5.3,7.23l11.76,29c3,7.32,6.1,12.21,8.28,11.32s1-6.55-2-13.87L127,74.05c-1.76-4.35-2.35-8.43-1.23-8.89s3.56,2.87,5.33,7.23l12,29.47c6.24,15.38,8.41,27.13,3.4,29.16s-11.7-8-17.86-23.19Z"/><path class="cls-1" d="M143.6,95c-6.73-19.47-7.55-33.89-2.77-35.54,2.69-.94,5.91,2.39,9,7.35a25.6,25.6,0,0,1,2.33,5c1.43,4.16,1.76,8,.69,8.33-.58.2-1.43-.57-2.34-2-1.81-3-3.55-4.7-4.72-4.29-2.49.86-1.58,9.43,2,19.73s8.15,17.61,10.64,16.75c1.17-.41,1.47-2.84,1.08-6.3-.22-1.73,0-2.85.55-3.05,1-.36,3.11,2.73,4.58,7a25.74,25.74,0,0,1,1.27,5.27c.59,5.83.18,10.52-2.51,11.45C158.61,126.35,150.31,114.41,143.6,95Z"/><path class="cls-1" d="M172,112.47l-12.4-42.11-2.94.86c-1,.29-2.75-2.63-3.93-6.66s-1.3-7.44-.3-7.73l10-2.94c1-.29,2.77,2.62,4,6.65s1.27,7.44.27,7.74l-2.88.85,12.4,42.11c1.33,4.51,1.51,8.62.38,9S173.32,117,172,112.47Z"/><path class="cls-1" d="M182.38,109.52,169.61,60c-1.17-4.55-1.24-8.66-.07-9s3.1,3.33,4.28,7.88l12.77,49.47c1.17,4.55,1.24,8.67.07,9S183.55,114.07,182.38,109.52Z"/><path class="cls-1" d="M184.58,47.32c5-1.08,11.76,12,16,31.85s3.47,34.54-1.57,35.62-11.79-12-16-31.85S179.54,48.4,184.58,47.32Zm3.18,14.86C185,62.77,185,71.36,187.3,82s5.8,18.49,8.54,17.91,2.69-9.27.43-19.83S190.48,61.6,187.76,62.18Z"/><path class="cls-1" d="M218.91,106.38,207.05,71.05l4.83,32.14c.7,4.65.35,8.75-.85,8.93s-2.75-3.63-3.45-8.28l-7.21-48c-.91-6-.43-11.36,1.14-11.6,1-.15,2.06,1.61,3,4.5l11.17,33.11-4.55-30.26c-.7-4.65-.33-8.75.85-8.93s2.77,3.63,3.47,8.28l7.33,48.75c.85,5.64.39,10.56-1.08,10.78C220.85,110.64,219.78,109,218.91,106.38Z"/><path class="cls-1" d="M224.57,97.53c-.39-4.29.16-8,1.24-8,.4,0,.79.33,1.17,1.1,1.42,2.78,2.93,4.55,4.51,4.41s2.16-2.71,1.87-5.9c-.35-3.79-1.57-5.18-3.49-6.51-3-1.94-7.1-4.37-8.54-20.1-1-11.16.48-21,5-21.46,1.84-.16,3.8,1.26,5.65,4.31a17.43,17.43,0,0,1,1.71,6.77c.39,4.28-.17,7.85-1.25,7.95-.33,0-.69-.34-1-.81-1.62-2.47-3-3.65-4-3.55-1.69.15-2,2.5-1.76,5.38.32,3.49,1.46,4.59,3.45,5.81,3,2,7.09,4.88,8.47,19.91,1.23,13.35-.45,22.44-5,22.85-2.46.23-4.55-1.79-6.49-5.53A19,19,0,0,1,224.57,97.53Z"/></g></svg>