<svg xmlns="http://www.w3.org/2000/svg" xmlns:xlink="http://www.w3.org/1999/xlink" width="1907.51" height="1080" viewBox="0 0 1907.51 1080"><defs><style>.cls-1{fill:none;}.cls-2{clip-path:url(#clip-path);}.cls-3{clip-path:url(#clip-path-2);}.cls-4{clip-path:url(#clip-path-3);}.cls-5{fill:#e3f2fd;}.cls-6{fill:#bbdefb;}.cls-7{fill:#a9d6e5;}.cls-8{clip-path:url(#clip-path-4);}.cls-9{clip-path:url(#clip-path-5);}.cls-10{clip-path:url(#clip-path-6);}.cls-11{clip-path:url(#clip-path-7);}.cls-12{clip-path:url(#clip-path-8);}.cls-13{clip-path:url(#clip-path-9);}.cls-14{clip-path:url(#clip-path-10);}.cls-15{fill:#fdb4c7;opacity:0.83;}.cls-16{fill:#e2e6ac;}.cls-17{fill:#f7facf;}.cls-18{fill:#fff;}.cls-19{fill:#68694e;}.cls-20{fill:#3b3b2b;}.cls-21{fill:#000255;}</style><clipPath id="clip-path"><rect class="cls-1" x="-2888.42" y="40.32" width="1916.5" height="1080"/></clipPath><clipPath id="clip-path-2"><rect class="cls-1" x="-2886.91" y="39.79" width="1916.5" height="1080"/></clipPath><clipPath id="clip-path-3"><rect class="cls-1" x="-3168.79" y="-148.82" width="2835.55" height="792"/></clipPath><clipPath id="clip-path-4"><polygon class="cls-1" points="1173.04 1278.79 -4991.96 1278.79 -3327.44 643.51 -491.48 643.51 1173.04 1278.79"/></clipPath><clipPath id="clip-path-5"><rect class="cls-1" x="1985.42" y="0.2" width="1907.51" height="1080"/></clipPath><clipPath id="clip-path-6"><rect class="cls-1" x="1704.87" y="-188.41" width="2822.24" height="792"/></clipPath><clipPath id="clip-path-7"><polygon class="cls-1" points="6026.33 1239.2 -109.75 1239.2 1546.96 603.91 4369.62 603.91 6026.33 1239.2"/></clipPath><clipPath id="clip-path-8"><rect class="cls-1" width="1907.51" height="1080"/></clipPath><clipPath id="clip-path-9"><rect class="cls-1" x="-280.56" y="-188.61" width="2822.24" height="792"/></clipPath><clipPath id="clip-path-10"><polygon class="cls-1" points="4040.91 1239 -2095.17 1239 -438.46 603.71 2384.2 603.71 4040.91 1239"/></clipPath></defs><g id="Sad_Poop" data-name="Sad Poop"><g class="cls-2"><g class="cls-3"><g class="cls-4"><rect class="cls-1" x="-707.93" y="-148.82" width="820.29" height="813.23"/><rect class="cls-5" x="-707.93" y="-148.82" width="820.29" height="813.23"/><path class="cls-6" d="M37.28,631.24H-24A41.44,41.44,0,0,1-65.61,590V529.23A41.44,41.44,0,0,1-24,488H37.28a41.45,41.45,0,0,1,41.63,41.26V590A41.45,41.45,0,0,1,37.28,631.24Z"/><path class="cls-7" d="M37.28,472.05H-24a41.45,41.45,0,0,1-41.62-41.27V370A41.45,41.45,0,0,1-24,328.77H37.28A41.45,41.45,0,0,1,78.91,370v60.74A41.45,41.45,0,0,1,37.28,472.05Z"/><path class="cls-6" d="M37.28,312.85H-24a41.45,41.45,0,0,1-41.62-41.27V210.84A41.45,41.45,0,0,1-24,169.57H37.28a41.45,41.45,0,0,1,41.63,41.27v60.74A41.45,41.45,0,0,1,37.28,312.85Z"/><path class="cls-7" d="M37.28,153.65H-24a41.44,41.44,0,0,1-41.62-41.26V51.65A41.44,41.44,0,0,1-24,10.38H37.28A41.45,41.45,0,0,1,78.91,51.65v60.74A41.45,41.45,0,0,1,37.28,153.65Z"/></g><g class="cls-8"><polygon class="cls-1" points="-866.22 643.51 -45.81 643.51 2273.46 1317.01 432.08 1317.01 -866.22 643.51"/><polygon class="cls-5" points="-866.22 643.51 -45.81 643.51 2273.46 1317.01 432.08 1317.01 -866.22 643.51"/><path class="cls-6" d="M1911,1258.34H1780.13c-49.12,0-183.28-30.29-293.07-65.54l-261.59-84c-88.06-28.27-123-50-82.31-50h108.29c40.64,0,147.23,21.78,242.83,50l284,84C1897.51,1228.05,1960.13,1258.34,1911,1258.34Z"/><path class="cls-7" d="M1568,1258.34H1437.07c-49.11,0-174.29-30.29-273.61-65.54l-236.68-84c-79.66-28.27-108.09-50-67.45-50H967.62c40.63,0,140.76,21.78,228,50l259.1,84C1563.44,1228.05,1617.08,1258.34,1568,1258.34Z"/><path class="cls-6" d="M1224.91,1258.34H1094c-49.12,0-165.3-30.29-254.17-65.54l-211.75-84c-71.28-28.27-93.24-50-52.61-50h108.3c40.63,0,134.3,21.78,213.12,50l234.19,84C1229.38,1228.05,1274,1258.34,1224.91,1258.34Z"/><path class="cls-7" d="M881.85,1258.34H751c-49.11,0-156.31-30.29-234.72-65.54l-186.82-84c-62.89-28.27-78.39-50-37.76-50H400c40.63,0,127.84,21.78,198.27,50l209.26,84C895.31,1228.05,931,1258.34,881.85,1258.34Z"/><path class="cls-6" d="M538.8,1258.34H407.91c-49.12,0-147.33-30.29-215.27-65.54l-161.91-84c-54.49-28.27-63.53-50-22.9-50h108.3c40.63,0,121.37,21.78,183.42,50l184.33,84C561.24,1228.05,587.91,1258.34,538.8,1258.34Z"/><path class="cls-7" d="M1192,1040.76H1085.7c-39.87,0-134.67-20.06-208.17-43.66l-178.6-57.34c-61.24-19.66-81.19-34.94-47.09-34.94H742.7c34.1,0,113.4,15.28,179.9,34.94l193.91,57.34C1196.31,1020.7,1231.83,1040.76,1192,1040.76Z"/><path class="cls-6" d="M913.47,1040.76H807.21c-39.87,0-128.72-20.06-195.21-43.66L450.42,939.76C395,920.1,379.6,904.82,413.69,904.82h90.87c34.09,0,108.86,15.28,169.52,34.94L851,997.1C923.77,1020.7,953.34,1040.76,913.47,1040.76Z"/><path class="cls-7" d="M635,1040.76H528.72c-39.87,0-122.76-20.06-182.25-43.66L201.9,939.76c-49.58-19.66-60.45-34.94-26.36-34.94h90.87c34.09,0,104.33,15.28,159.16,34.94L585.45,997.1C651.24,1020.7,674.85,1040.76,635,1040.76Z"/><path class="cls-6" d="M356.49,1040.76H250.24c-39.87,0-116.82-20.06-169.31-43.66L-46.62,939.76c-43.74-19.66-50.08-34.94-16-34.94H28.26c34.09,0,99.79,15.28,148.79,34.94L319.91,997.1C378.7,1020.7,396.36,1040.76,356.49,1040.76Z"/><path class="cls-7" d="M78,1040.76H-28.25c-39.87,0-110.87-20.06-156.35-43.66l-110.53-57.34c-37.91-19.66-39.72-34.94-5.62-34.94h90.86c34.1,0,95.26,15.28,138.42,34.94L54.38,997.1C106.17,1020.7,117.87,1040.76,78,1040.76Z"/><path class="cls-6" d="M700.69,892.11H611.27c-33.56,0-105.17-14.26-157.78-31.15L323.84,819.33c-45.06-14.46-56.46-25.76-27.09-25.76H375c29.37,0,91.4,11.3,140.32,25.76L656.1,861C713.24,877.85,734.25,892.11,700.69,892.11Z"/><path class="cls-7" d="M466.32,892.11H376.89c-33.55,0-100.93-14.26-148.54-31.15L111.06,819.33c-40.76-14.46-48.81-25.76-19.44-25.76h78.27c29.37,0,88.05,11.3,132.67,25.76L431,861C483.09,877.85,499.87,892.11,466.32,892.11Z"/><path class="cls-6" d="M231.94,892.11H142.52C109,892.11,45.81,877.85,3.22,861l-104.94-41.63c-36.47-14.46-41.16-25.76-11.79-25.76h78.26c29.37,0,84.7,11.3,125,25.76L205.84,861C253,877.85,265.5,892.11,231.94,892.11Z"/><path class="cls-7" d="M-2.43,892.11H-91.86c-33.55,0-92.47-14.26-130-31.15l-92.59-41.63c-32.18-14.46-33.51-25.76-4.15-25.76h78.27c29.37,0,81.34,11.3,117.38,25.76L-19.29,861C22.8,877.85,31.12,892.11-2.43,892.11Z"/><path class="cls-7" d="M343.78,784.11h-77.2c-29,0-85.62-10.65-125.14-23.34L43.06,729.19C8.53,718.1,2.34,709.4,28.13,709.4H96.87c25.79,0,76.13,8.7,113.61,19.79L317.3,760.77C360.21,773.46,372.75,784.11,343.78,784.11Z"/><path class="cls-6" d="M141.45,784.11H64.26c-29,0-82.47-10.65-118.22-23.34l-89-31.58C-174.2,718.1-177.82,709.4-152,709.4h68.73c25.8,0,73.55,8.7,107.74,19.79l97.45,31.58C161,773.46,170.42,784.11,141.45,784.11Z"/><path class="cls-6" d="M72.74,702.1H4.82C-20.66,702.1-67,693.84-97.81,684L-175,659.18c-27.29-8.77-30.16-15.67-7.17-15.67h61.28c23,0,65,6.9,94.62,15.67L57.54,684C91,693.84,98.22,702.1,72.74,702.1Z"/><polygon class="cls-1" points="-1686.62 643.51 -866.22 643.51 432.08 1317.01 -1409.31 1317.01 -1686.62 643.51"/><polygon class="cls-5" points="-1686.62 643.51 -866.22 643.51 432.08 1317.01 -1409.31 1317.01 -1686.62 643.51"/><path class="cls-6" d="M158.58,1258.34H27.68c-49.11,0-137.35-30.29-193.71-65.54l-134.28-84c-45.19-28.27-47.07-50-6.44-50h108.3c40.63,0,114.21,21.78,167,50l156.71,84C191,1228.05,207.69,1258.34,158.58,1258.34Z"/></g></g></g><g class="cls-9"><g class="cls-10"><rect class="cls-1" x="1704.87" y="-188.41" width="816.44" height="813.23"/><rect class="cls-5" x="1704.87" y="-188.41" width="816.44" height="813.23"/><path class="cls-7" d="M1967.1,591.65h-61a41.35,41.35,0,0,1-41.43-41.27V489.64a41.35,41.35,0,0,1,41.43-41.27h61a41.35,41.35,0,0,1,41.43,41.27v60.74A41.35,41.35,0,0,1,1967.1,591.65Z"/><path class="cls-6" d="M1807.28,591.65h-61a41.35,41.35,0,0,1-41.43-41.27V489.64a41.35,41.35,0,0,1,41.43-41.27h61a41.35,41.35,0,0,1,41.43,41.27v60.74A41.35,41.35,0,0,1,1807.28,591.65Z"/><path class="cls-6" d="M1967.1,432.45h-61a41.35,41.35,0,0,1-41.43-41.27V330.44a41.35,41.35,0,0,1,41.43-41.27h61a41.35,41.35,0,0,1,41.43,41.27v60.74A41.35,41.35,0,0,1,1967.1,432.45Z"/><path class="cls-7" d="M1807.28,432.45h-61a41.35,41.35,0,0,1-41.43-41.27V330.44a41.35,41.35,0,0,1,41.43-41.27h61a41.35,41.35,0,0,1,41.43,41.27v60.74A41.35,41.35,0,0,1,1807.28,432.45Z"/><path class="cls-7" d="M1967.1,273.26h-61A41.35,41.35,0,0,1,1864.69,232V171.25A41.35,41.35,0,0,1,1906.12,130h61a41.35,41.35,0,0,1,41.43,41.27V232A41.35,41.35,0,0,1,1967.1,273.26Z"/><path class="cls-6" d="M1807.28,273.26h-61A41.35,41.35,0,0,1,1704.87,232V171.25A41.35,41.35,0,0,1,1746.3,130h61a41.35,41.35,0,0,1,41.43,41.27V232A41.35,41.35,0,0,1,1807.28,273.26Z"/><path class="cls-6" d="M1967.1,114.06h-61a41.35,41.35,0,0,1-41.43-41.27V12.05a41.35,41.35,0,0,1,41.43-41.27h61a41.35,41.35,0,0,1,41.43,41.27V72.79A41.35,41.35,0,0,1,1967.1,114.06Z"/><path class="cls-7" d="M1807.28,114.06h-61a41.35,41.35,0,0,1-41.43-41.27V12.05a41.35,41.35,0,0,1,41.43-41.27h61a41.35,41.35,0,0,1,41.43,41.27V72.79A41.35,41.35,0,0,1,1807.28,114.06Z"/></g><g class="cls-11"><polygon class="cls-1" points="2363.52 603.91 3180.08 603.91 3456.09 1277.41 1623.35 1277.41 2363.52 603.91"/><polygon class="cls-5" points="2363.52 603.91 3180.08 603.91 3456.09 1277.41 1623.35 1277.41 2363.52 603.91"/><path class="cls-6" d="M1906.62,1218.74H1776.34c-48.89,0-55.22-30.29-16.49-65.54l92.31-84c31.07-28.27,87.79-50,128.23-50h107.79c40.44,0,55.08,21.77,31.53,50l-70,84C2020.37,1188.45,1955.5,1218.74,1906.62,1218.74Z"/><polygon class="cls-1" points="1546.96 603.91 2363.52 603.91 1623.35 1277.41 -209.4 1277.41 1546.96 603.91"/><polygon class="cls-5" points="1546.96 603.91 2363.52 603.91 1623.35 1277.41 -209.4 1277.41 1546.96 603.91"/><path class="cls-6" d="M1528.18,1218.74H1397.9c-48.88,0-45.3-30.29,5-65.54l119.8-84c40.32-28.27,104.17-50,144.62-50h107.79c40.44,0,48,21.77,15.14,50l-97.47,84C1651.85,1188.45,1577.06,1218.74,1528.18,1218.74Z"/><path class="cls-7" d="M1186.73,1218.74H1056.46c-48.89,0-36.36-30.29,24.33-65.54l144.6-84c48.67-28.27,119-50,159.4-50h107.79c40.44,0,41.52,21.77.36,50l-122.28,84C1319.35,1188.45,1235.62,1218.74,1186.73,1218.74Z"/><path class="cls-6" d="M845.29,1218.74H715c-48.88,0-27.41-30.29,43.69-65.54l169.41-84c57-28.27,133.74-50,174.18-50h107.79c40.44,0,35.09,21.77-14.42,50l-147.08,84C986.85,1188.45,894.17,1218.74,845.29,1218.74Z"/><path class="cls-7" d="M503.84,1218.74H373.56c-48.88,0-18.46-30.29,63.05-65.54l194.22-84c65.37-28.27,148.52-50,189-50H927.58c40.44,0,28.66,21.77-29.2,50l-171.89,84C654.35,1188.45,552.72,1218.74,503.84,1218.74Z"/><path class="cls-6" d="M162.39,1218.74H32.12c-48.89,0-9.52-30.29,82.4-65.54l219-84c73.73-28.27,163.31-50,203.75-50H645.08c40.44,0,22.23,21.77-44,50l-196.7,84C321.85,1188.45,211.28,1218.74,162.39,1218.74Z"/><path class="cls-7" d="M1797.34,1001.16H1691.59c-39.69,0-43.24-20.06-9.59-43.65l81.79-57.34c28-19.67,77.35-34.94,111.28-34.94h90.44c33.94,0,43.72,15.27,20.9,34.94l-66.55,57.34C1892.48,981.1,1837,1001.16,1797.34,1001.16Z"/><path class="cls-6" d="M1520.16,1001.16H1414.41c-39.69,0-37.32-20.06,3.31-43.65l98.72-57.34c33.86-19.67,87.67-34.94,121.6-34.94h90.44c33.94,0,39.21,15.27,10.58,34.94l-83.48,57.34C1621.22,981.1,1559.85,1001.16,1520.16,1001.16Z"/><path class="cls-7" d="M1243,1001.16H1137.22c-39.68,0-31.38-20.06,16.21-43.65l115.66-57.34c39.67-19.67,98-34.94,131.92-34.94h90.44c33.94,0,34.69,15.27.26,34.94l-100.42,57.34C1350,981.1,1282.66,1001.16,1243,1001.16Z"/><path class="cls-6" d="M965.8,1001.16H860c-39.68,0-25.46-20.06,29.1-43.65l132.6-57.34c45.47-19.67,108.31-34.94,142.24-34.94h90.44c33.94,0,30.18,15.27-10.06,34.94L1127,957.51C1078.71,981.1,1005.48,1001.16,965.8,1001.16Z"/><path class="cls-7" d="M688.62,1001.16H582.86c-39.68,0-19.54-20.06,42-43.65l149.54-57.34C825.67,880.5,893,865.23,927,865.23h90.44c33.93,0,25.67,15.27-20.39,34.94L862.71,957.51C807.45,981.1,728.3,1001.16,688.62,1001.16Z"/><path class="cls-6" d="M1981.24,852.52h-89c-33.39,0-40.13-14.26-16-31.16l59.38-41.62C1956.2,765.27,1996,754,2025.25,754h77.9c29.23,0,39.81,11.3,23,25.77l-48.31,41.62C2058.26,838.26,2014.64,852.52,1981.24,852.52Z"/><path class="cls-7" d="M1748,852.52h-89c-33.4,0-35.93-14.26-6.84-31.16l71.67-41.62c24.9-14.47,68.06-25.77,97.29-25.77H1899c29.23,0,36.47,11.3,15.41,25.77l-60.6,41.62C1829.19,838.26,1781.36,852.52,1748,852.52Z"/><path class="cls-6" d="M1514.69,852.52h-89c-33.4,0-31.71-14.26,2.36-31.16l84-41.62c29.18-14.47,75.68-25.77,104.91-25.77h77.9c29.23,0,33.13,11.3,7.8,25.77l-72.9,41.62C1600.13,838.26,1548.08,852.52,1514.69,852.52Z"/><path class="cls-7" d="M1281.41,852.52h-89c-33.39,0-27.5-14.26,11.57-31.16l96.25-41.62c33.45-14.47,83.29-25.77,112.52-25.77h77.9c29.23,0,29.79,11.3.19,25.77l-85.19,41.62C1371.06,838.26,1314.81,852.52,1281.41,852.52Z"/><path class="cls-6" d="M1048.13,852.52h-89c-33.4,0-23.29-14.26,20.76-31.16l108.55-41.62c37.72-14.47,90.9-25.77,120.13-25.77h77.9c29.23,0,26.45,11.3-7.42,25.77l-97.49,41.62C1142,838.26,1081.53,852.52,1048.13,852.52Z"/><path class="cls-6" d="M1913.46,744.52h-76.83c-28.83,0-33.87-10.65-12-23.34L1879,689.59c19.09-11.08,54.88-19.78,80.55-19.78H2028c25.67,0,33.81,8.7,17.67,19.78l-46,31.59C1981.17,733.87,1942.29,744.52,1913.46,744.52Z"/><path class="cls-7" d="M1712.08,744.52h-76.83c-28.83,0-30.72-10.65-5.12-23.34l63.71-31.59c22.36-11.08,60.72-19.78,86.39-19.78h68.41c25.68,0,31.25,8.7,11.84,19.78l-55.32,31.59C1782.94,733.87,1740.92,744.52,1712.08,744.52Z"/><path class="cls-6" d="M1510.71,744.52h-76.84c-28.83,0-27.57-10.65,1.77-23.34l73-31.59c25.63-11.08,66.57-19.78,92.24-19.78h68.41c25.68,0,28.68,8.7,6,19.78l-64.64,31.59C1584.71,733.87,1539.54,744.52,1510.71,744.52Z"/><path class="cls-7" d="M1309.33,744.52h-76.84c-28.83,0-24.42-10.65,8.67-23.34l82.37-31.59c28.9-11.08,72.41-19.78,98.08-19.78H1490c25.67,0,26.11,8.7.15,19.78l-74,31.59C1386.48,733.87,1338.16,744.52,1309.33,744.52Z"/><path class="cls-6" d="M1862,662.5H1794.4c-25.36,0-29.26-8.25-9.34-18.13l50-24.79c17.67-8.76,50.15-15.67,73-15.67h61c22.88,0,29.34,6.91,14,15.67l-43.4,24.79C1922.38,654.25,1887.36,662.5,1862,662.5Z"/><path class="cls-7" d="M1684.84,662.5h-67.59c-25.37,0-26.83-8.25-4-18.13l57.31-24.79c20.27-8.76,54.78-15.67,77.67-15.67h61c22.88,0,27.3,6.91,9.37,15.67l-50.73,24.79C1747.66,654.25,1710.2,662.5,1684.84,662.5Z"/><path class="cls-6" d="M1507.69,662.5h-67.6c-25.36,0-24.38-8.25,1.38-18.13l64.63-24.79c22.86-8.76,59.42-15.67,82.3-15.67h61c22.88,0,25.27,6.91,4.74,15.67l-58,24.79C1573,654.25,1533.05,662.5,1507.69,662.5Z"/></g></g><g class="cls-12"><g class="cls-13"><rect class="cls-1" x="1352.32" y="-188.61" width="816.44" height="813.23"/><rect class="cls-5" x="1352.32" y="-188.61" width="816.44" height="813.23"/><path class="cls-7" d="M1934.21,591.45h-61a41.35,41.35,0,0,1-41.43-41.27V489.44a41.35,41.35,0,0,1,41.43-41.27h61a41.35,41.35,0,0,1,41.43,41.27v60.74A41.35,41.35,0,0,1,1934.21,591.45Z"/><path class="cls-6" d="M1774.38,591.45h-61A41.35,41.35,0,0,1,1672,550.18V489.44a41.35,41.35,0,0,1,41.43-41.27h61a41.35,41.35,0,0,1,41.44,41.27v60.74A41.35,41.35,0,0,1,1774.38,591.45Z"/><path class="cls-7" d="M1614.56,591.45h-61a41.35,41.35,0,0,1-41.43-41.27V489.44a41.35,41.35,0,0,1,41.43-41.27h61A41.35,41.35,0,0,1,1656,489.44v60.74A41.35,41.35,0,0,1,1614.56,591.45Z"/><path class="cls-6" d="M1454.73,591.45h-61a41.35,41.35,0,0,1-41.43-41.27V489.44a41.35,41.35,0,0,1,41.43-41.27h61a41.35,41.35,0,0,1,41.44,41.27v60.74A41.35,41.35,0,0,1,1454.73,591.45Z"/><path class="cls-6" d="M1934.21,432.25h-61A41.35,41.35,0,0,1,1831.8,391V330.24A41.35,41.35,0,0,1,1873.23,289h61a41.35,41.35,0,0,1,41.43,41.27V391A41.35,41.35,0,0,1,1934.21,432.25Z"/><path class="cls-7" d="M1774.38,432.25h-61A41.35,41.35,0,0,1,1672,391V330.24A41.35,41.35,0,0,1,1713.4,289h61a41.35,41.35,0,0,1,41.44,41.27V391A41.35,41.35,0,0,1,1774.38,432.25Z"/><path class="cls-6" d="M1614.56,432.25h-61A41.35,41.35,0,0,1,1512.15,391V330.24A41.35,41.35,0,0,1,1553.58,289h61A41.35,41.35,0,0,1,1656,330.24V391A41.35,41.35,0,0,1,1614.56,432.25Z"/><path class="cls-7" d="M1454.73,432.25h-61A41.35,41.35,0,0,1,1352.32,391V330.24A41.35,41.35,0,0,1,1393.75,289h61a41.35,41.35,0,0,1,41.44,41.27V391A41.35,41.35,0,0,1,1454.73,432.25Z"/><path class="cls-7" d="M1934.21,273.06h-61a41.35,41.35,0,0,1-41.43-41.27V171.05a41.35,41.35,0,0,1,41.43-41.27h61a41.35,41.35,0,0,1,41.43,41.27v60.74A41.35,41.35,0,0,1,1934.21,273.06Z"/><path class="cls-6" d="M1774.38,273.06h-61A41.35,41.35,0,0,1,1672,231.79V171.05a41.35,41.35,0,0,1,41.43-41.27h61a41.35,41.35,0,0,1,41.44,41.27v60.74A41.35,41.35,0,0,1,1774.38,273.06Z"/><path class="cls-7" d="M1614.56,273.06h-61a41.35,41.35,0,0,1-41.43-41.27V171.05a41.35,41.35,0,0,1,41.43-41.27h61A41.35,41.35,0,0,1,1656,171.05v60.74A41.35,41.35,0,0,1,1614.56,273.06Z"/><path class="cls-6" d="M1454.73,273.06h-61a41.35,41.35,0,0,1-41.43-41.27V171.05a41.35,41.35,0,0,1,41.43-41.27h61a41.35,41.35,0,0,1,41.44,41.27v60.74A41.35,41.35,0,0,1,1454.73,273.06Z"/><path class="cls-6" d="M1934.21,113.86h-61a41.35,41.35,0,0,1-41.43-41.27V11.85a41.35,41.35,0,0,1,41.43-41.27h61a41.35,41.35,0,0,1,41.43,41.27V72.59A41.35,41.35,0,0,1,1934.21,113.86Z"/><path class="cls-7" d="M1774.38,113.86h-61A41.35,41.35,0,0,1,1672,72.59V11.85a41.35,41.35,0,0,1,41.43-41.27h61a41.35,41.35,0,0,1,41.44,41.27V72.59A41.35,41.35,0,0,1,1774.38,113.86Z"/><path class="cls-6" d="M1614.56,113.86h-61a41.35,41.35,0,0,1-41.43-41.27V11.85a41.35,41.35,0,0,1,41.43-41.27h61A41.35,41.35,0,0,1,1656,11.85V72.59A41.35,41.35,0,0,1,1614.56,113.86Z"/><path class="cls-7" d="M1454.73,113.86h-61a41.35,41.35,0,0,1-41.43-41.27V11.85a41.35,41.35,0,0,1,41.43-41.27h61a41.35,41.35,0,0,1,41.44,41.27V72.59A41.35,41.35,0,0,1,1454.73,113.86Z"/><rect class="cls-1" x="535.88" y="-188.61" width="816.44" height="813.23"/><rect class="cls-5" x="535.88" y="-188.61" width="816.44" height="813.23"/><path class="cls-6" d="M1277.6,591.45h-61a41.35,41.35,0,0,1-41.43-41.27V489.44a41.35,41.35,0,0,1,41.43-41.27h61A41.35,41.35,0,0,1,1319,489.44v60.74A41.35,41.35,0,0,1,1277.6,591.45Z"/><path class="cls-7" d="M1117.77,591.45h-61a41.35,41.35,0,0,1-41.43-41.27V489.44a41.35,41.35,0,0,1,41.43-41.27h61a41.35,41.35,0,0,1,41.43,41.27v60.74A41.35,41.35,0,0,1,1117.77,591.45Z"/><path class="cls-6" d="M957.94,591.45H897a41.35,41.35,0,0,1-41.43-41.27V489.44A41.35,41.35,0,0,1,897,448.17h61a41.35,41.35,0,0,1,41.44,41.27v60.74A41.35,41.35,0,0,1,957.94,591.45Z"/><path class="cls-7" d="M798.12,591.45h-61a41.35,41.35,0,0,1-41.43-41.27V489.44a41.35,41.35,0,0,1,41.43-41.27h61a41.35,41.35,0,0,1,41.43,41.27v60.74A41.35,41.35,0,0,1,798.12,591.45Z"/><path class="cls-6" d="M638.29,591.45h-61a41.35,41.35,0,0,1-41.43-41.27V489.44a41.35,41.35,0,0,1,41.43-41.27h61a41.35,41.35,0,0,1,41.44,41.27v60.74A41.35,41.35,0,0,1,638.29,591.45Z"/><path class="cls-7" d="M1277.6,432.25h-61A41.35,41.35,0,0,1,1175.18,391V330.24A41.35,41.35,0,0,1,1216.61,289h61A41.35,41.35,0,0,1,1319,330.24V391A41.35,41.35,0,0,1,1277.6,432.25Z"/><path class="cls-6" d="M1117.77,432.25h-61A41.35,41.35,0,0,1,1015.36,391V330.24A41.35,41.35,0,0,1,1056.79,289h61a41.35,41.35,0,0,1,41.43,41.27V391A41.35,41.35,0,0,1,1117.77,432.25Z"/><path class="cls-7" d="M957.94,432.25H897A41.35,41.35,0,0,1,855.53,391V330.24A41.35,41.35,0,0,1,897,289h61a41.35,41.35,0,0,1,41.44,41.27V391A41.35,41.35,0,0,1,957.94,432.25Z"/><path class="cls-6" d="M798.12,432.25h-61A41.35,41.35,0,0,1,695.71,391V330.24A41.35,41.35,0,0,1,737.14,289h61a41.35,41.35,0,0,1,41.43,41.27V391A41.35,41.35,0,0,1,798.12,432.25Z"/><path class="cls-7" d="M638.29,432.25h-61A41.35,41.35,0,0,1,535.88,391V330.24A41.35,41.35,0,0,1,577.31,289h61a41.35,41.35,0,0,1,41.44,41.27V391A41.35,41.35,0,0,1,638.29,432.25Z"/><path class="cls-6" d="M1277.6,273.06h-61a41.35,41.35,0,0,1-41.43-41.27V171.05a41.35,41.35,0,0,1,41.43-41.27h61A41.35,41.35,0,0,1,1319,171.05v60.74A41.35,41.35,0,0,1,1277.6,273.06Z"/><path class="cls-7" d="M1117.77,273.06h-61a41.35,41.35,0,0,1-41.43-41.27V171.05a41.35,41.35,0,0,1,41.43-41.27h61a41.35,41.35,0,0,1,41.43,41.27v60.74A41.35,41.35,0,0,1,1117.77,273.06Z"/><path class="cls-6" d="M957.94,273.06H897a41.35,41.35,0,0,1-41.43-41.27V171.05A41.35,41.35,0,0,1,897,129.78h61a41.35,41.35,0,0,1,41.44,41.27v60.74A41.35,41.35,0,0,1,957.94,273.06Z"/><path class="cls-7" d="M798.12,273.06h-61a41.35,41.35,0,0,1-41.43-41.27V171.05a41.35,41.35,0,0,1,41.43-41.27h61a41.35,41.35,0,0,1,41.43,41.27v60.74A41.35,41.35,0,0,1,798.12,273.06Z"/><path class="cls-6" d="M638.29,273.06h-61a41.35,41.35,0,0,1-41.43-41.27V171.05a41.35,41.35,0,0,1,41.43-41.27h61a41.35,41.35,0,0,1,41.44,41.27v60.74A41.35,41.35,0,0,1,638.29,273.06Z"/><path class="cls-7" d="M1277.6,113.86h-61a41.35,41.35,0,0,1-41.43-41.27V11.85a41.35,41.35,0,0,1,41.43-41.27h61A41.35,41.35,0,0,1,1319,11.85V72.59A41.35,41.35,0,0,1,1277.6,113.86Z"/><path class="cls-6" d="M1117.77,113.86h-61a41.35,41.35,0,0,1-41.43-41.27V11.85a41.35,41.35,0,0,1,41.43-41.27h61a41.35,41.35,0,0,1,41.43,41.27V72.59A41.35,41.35,0,0,1,1117.77,113.86Z"/><path class="cls-7" d="M957.94,113.86H897a41.35,41.35,0,0,1-41.43-41.27V11.85A41.35,41.35,0,0,1,897-29.42h61a41.35,41.35,0,0,1,41.44,41.27V72.59A41.35,41.35,0,0,1,957.94,113.86Z"/><path class="cls-6" d="M798.12,113.86h-61a41.35,41.35,0,0,1-41.43-41.27V11.85a41.35,41.35,0,0,1,41.43-41.27h61a41.35,41.35,0,0,1,41.43,41.27V72.59A41.35,41.35,0,0,1,798.12,113.86Z"/><path class="cls-7" d="M638.29,113.86h-61a41.35,41.35,0,0,1-41.43-41.27V11.85a41.35,41.35,0,0,1,41.43-41.27h61a41.35,41.35,0,0,1,41.44,41.27V72.59A41.35,41.35,0,0,1,638.29,113.86Z"/><rect class="cls-1" x="-280.56" y="-188.61" width="816.44" height="813.23"/><rect class="cls-5" x="-280.56" y="-188.61" width="816.44" height="813.23"/><path class="cls-6" d="M461.16,591.45h-61a41.35,41.35,0,0,1-41.43-41.27V489.44a41.35,41.35,0,0,1,41.43-41.27h61a41.35,41.35,0,0,1,41.43,41.27v60.74A41.35,41.35,0,0,1,461.16,591.45Z"/><path class="cls-7" d="M301.33,591.45h-61a41.35,41.35,0,0,1-41.43-41.27V489.44a41.35,41.35,0,0,1,41.43-41.27h61a41.35,41.35,0,0,1,41.43,41.27v60.74A41.35,41.35,0,0,1,301.33,591.45Z"/><path class="cls-6" d="M141.51,591.45h-61a41.35,41.35,0,0,1-41.43-41.27V489.44a41.35,41.35,0,0,1,41.43-41.27h61a41.35,41.35,0,0,1,41.43,41.27v60.74A41.35,41.35,0,0,1,141.51,591.45Z"/><path class="cls-7" d="M-18.32,591.45h-61a41.35,41.35,0,0,1-41.43-41.27V489.44A41.35,41.35,0,0,1-79.3,448.17h61a41.35,41.35,0,0,1,41.43,41.27v60.74A41.35,41.35,0,0,1-18.32,591.45Z"/><path class="cls-7" d="M461.16,432.25h-61A41.35,41.35,0,0,1,358.74,391V330.24A41.35,41.35,0,0,1,400.17,289h61a41.35,41.35,0,0,1,41.43,41.27V391A41.35,41.35,0,0,1,461.16,432.25Z"/><path class="cls-6" d="M301.33,432.25h-61A41.35,41.35,0,0,1,198.92,391V330.24A41.35,41.35,0,0,1,240.35,289h61a41.35,41.35,0,0,1,41.43,41.27V391A41.35,41.35,0,0,1,301.33,432.25Z"/><path class="cls-7" d="M141.51,432.25h-61A41.35,41.35,0,0,1,39.09,391V330.24A41.35,41.35,0,0,1,80.52,289h61a41.35,41.35,0,0,1,41.43,41.27V391A41.35,41.35,0,0,1,141.51,432.25Z"/><path class="cls-6" d="M-18.32,432.25h-61A41.35,41.35,0,0,1-120.73,391V330.24A41.35,41.35,0,0,1-79.3,289h61a41.35,41.35,0,0,1,41.43,41.27V391A41.35,41.35,0,0,1-18.32,432.25Z"/><path class="cls-6" d="M461.16,273.06h-61a41.35,41.35,0,0,1-41.43-41.27V171.05a41.35,41.35,0,0,1,41.43-41.27h61a41.35,41.35,0,0,1,41.43,41.27v60.74A41.35,41.35,0,0,1,461.16,273.06Z"/><path class="cls-7" d="M301.33,273.06h-61a41.35,41.35,0,0,1-41.43-41.27V171.05a41.35,41.35,0,0,1,41.43-41.27h61a41.35,41.35,0,0,1,41.43,41.27v60.74A41.35,41.35,0,0,1,301.33,273.06Z"/><path class="cls-6" d="M141.51,273.06h-61a41.35,41.35,0,0,1-41.43-41.27V171.05a41.35,41.35,0,0,1,41.43-41.27h61a41.35,41.35,0,0,1,41.43,41.27v60.74A41.35,41.35,0,0,1,141.51,273.06Z"/><path class="cls-7" d="M-18.32,273.06h-61a41.35,41.35,0,0,1-41.43-41.27V171.05A41.35,41.35,0,0,1-79.3,129.78h61a41.35,41.35,0,0,1,41.43,41.27v60.74A41.35,41.35,0,0,1-18.32,273.06Z"/><path class="cls-7" d="M461.16,113.86h-61a41.35,41.35,0,0,1-41.43-41.27V11.85a41.35,41.35,0,0,1,41.43-41.27h61a41.35,41.35,0,0,1,41.43,41.27V72.59A41.35,41.35,0,0,1,461.16,113.86Z"/><path class="cls-6" d="M301.33,113.86h-61a41.35,41.35,0,0,1-41.43-41.27V11.85a41.35,41.35,0,0,1,41.43-41.27h61a41.35,41.35,0,0,1,41.43,41.27V72.59A41.35,41.35,0,0,1,301.33,113.86Z"/><path class="cls-7" d="M141.51,113.86h-61A41.35,41.35,0,0,1,39.09,72.59V11.85A41.35,41.35,0,0,1,80.52-29.42h61a41.35,41.35,0,0,1,41.43,41.27V72.59A41.35,41.35,0,0,1,141.51,113.86Z"/><path class="cls-6" d="M-18.32,113.86h-61a41.35,41.35,0,0,1-41.43-41.27V11.85A41.35,41.35,0,0,1-79.3-29.42h61A41.35,41.35,0,0,1,23.11,11.85V72.59A41.35,41.35,0,0,1-18.32,113.86Z"/></g><g class="cls-14"><polygon class="cls-1" points="1194.66 603.71 2011.22 603.71 3303.42 1277.21 1470.67 1277.21 1194.66 603.71"/><polygon class="cls-5" points="1194.66 603.71 2011.22 603.71 3303.42 1277.21 1470.67 1277.21 1194.66 603.71"/><path class="cls-7" d="M2006.86,1218.54H1876.58c-48.88,0-109.87-30.29-134.72-65.54l-59.23-84c-19.94-28.27-2.51-50,37.94-50h107.78c40.45,0,94.38,21.77,121.83,50l81.55,84C2066,1188.25,2055.75,1218.54,2006.86,1218.54Z"/><path class="cls-6" d="M1665.42,1218.54H1535.14c-48.89,0-100.93-30.29-115.37-65.54l-34.42-84c-11.59-28.27,12.27-50,52.72-50h107.78c40.45,0,88,21.77,107.05,50l56.75,84C1733.46,1188.25,1714.3,1218.54,1665.42,1218.54Z"/><path class="cls-7" d="M2089.43,1001H1983.68c-39.69,0-91.93-20.06-115.54-43.65L1810.77,900c-19.67-19.67-7.45-34.94,26.49-34.94h90.43c33.94,0,80.79,15.27,105.7,34.94L2106,957.31C2135.88,980.9,2129.12,1001,2089.43,1001Z"/><path class="cls-6" d="M1812.25,1001H1706.49c-39.68,0-86-20.06-102.63-43.65L1563.42,900c-13.87-19.67,2.87-34.94,36.81-34.94h90.43c33.94,0,76.28,15.27,95.38,34.94l55.67,57.34C1864.63,980.9,1851.93,1001,1812.25,1001Z"/><path class="cls-7" d="M1535.07,1001H1429.31c-39.68,0-80.07-20.06-89.74-43.65L1316.07,900C1308,880.3,1329.26,865,1363.19,865h90.44c33.94,0,71.77,15.27,85,34.94l38.75,57.34C1593.37,980.9,1574.75,1001,1535.07,1001Z"/><path class="cls-7" d="M2145.85,852.32h-89c-33.4,0-79-14.26-100.84-31.16l-53.94-41.62c-18.75-14.46-9.7-25.77,19.53-25.77h77.9c29.23,0,70.58,11.31,93.17,25.77l65,41.62C2184.05,838.06,2179.24,852.32,2145.85,852.32Z"/><path class="cls-6" d="M1912.57,852.32h-89c-33.39,0-74.73-14.26-91.64-31.16l-41.64-41.62c-14.47-14.46-2.09-25.77,27.14-25.77h77.9c29.23,0,67.24,11.31,85.56,25.77l52.71,41.62C1955,838.06,1946,852.32,1912.57,852.32Z"/><path class="cls-7" d="M1679.29,852.32h-89c-33.4,0-70.53-14.26-82.44-31.16l-29.35-41.62c-10.2-14.46,5.52-25.77,34.75-25.77h77.9c29.23,0,63.9,11.31,77.95,25.77l40.42,41.62C1725.92,838.06,1712.69,852.32,1679.29,852.32Z"/><path class="cls-6" d="M1446,852.32h-89c-33.4,0-66.31-14.26-73.24-31.16l-17-41.62c-5.93-14.46,13.13-25.77,42.36-25.77H1387c29.23,0,60.57,11.31,70.34,25.77l28.12,41.62C1496.86,838.06,1479.41,852.32,1446,852.32Z"/><path class="cls-6" d="M1985.45,744.32h-76.83c-28.83,0-66-10.65-82.45-23.34l-40.93-31.59c-14.37-11.08-4.83-19.78,20.84-19.78h68.41c25.68,0,60.08,8.7,77.39,19.78L2001.2,721C2021,733.67,2014.28,744.32,1985.45,744.32Z"/><path class="cls-7" d="M1784.08,744.32h-76.84c-28.83,0-62.86-10.65-75.56-23.34l-31.6-31.59c-11.09-11.08,1-19.78,26.69-19.78h68.41c25.67,0,57.5,8.7,71.54,19.78l40,31.59C1822.79,733.67,1812.91,744.32,1784.08,744.32Z"/><path class="cls-6" d="M1582.7,744.32h-76.84c-28.83,0-59.71-10.65-68.66-23.34l-22.27-31.59c-7.82-11.08,6.86-19.78,32.53-19.78h68.41c25.67,0,54.93,8.7,65.7,19.78L1612.24,721C1624.56,733.67,1611.53,744.32,1582.7,744.32Z"/><path class="cls-7" d="M1381.32,744.32h-76.84c-28.83,0-56.56-10.65-61.76-23.34l-13-31.59c-4.54-11.08,12.7-19.78,38.38-19.78h68.41c25.67,0,52.36,8.7,59.85,19.78L1417.75,721C1426.33,733.67,1410.15,744.32,1381.32,744.32Z"/><path class="cls-6" d="M2040.8,662.3h-67.59c-25.36,0-59.06-8.25-74.79-18.13L1859,619.38c-13.94-8.76-6.38-15.67,16.51-15.67h61c22.88,0,54.26,6.91,70.53,15.67l46,24.79C2071.39,654.05,2066.16,662.3,2040.8,662.3Z"/><path class="cls-7" d="M1863.65,662.3h-67.59c-25.37,0-56.63-8.25-69.43-18.13l-32.12-24.79c-11.36-8.76-1.75-15.67,21.13-15.67h61c22.89,0,52.22,6.91,65.91,15.67l38.71,24.79C1896.67,654.05,1889,662.3,1863.65,662.3Z"/><path class="cls-6" d="M1686.49,662.3H1618.9c-25.36,0-54.18-8.25-64.07-18.13L1530,619.38c-8.77-8.76,2.88-15.67,25.76-15.67h61c22.89,0,50.18,6.91,61.28,15.67l31.39,24.79C1722,654.05,1711.86,662.3,1686.49,662.3Z"/><path class="cls-7" d="M1509.34,662.3h-67.59c-25.37,0-51.75-8.25-58.72-18.13l-17.47-24.79c-6.18-8.76,7.5-15.67,30.38-15.67h61c22.89,0,48.15,6.91,56.65,15.67l24.07,24.79C1547.24,654.05,1534.7,662.3,1509.34,662.3Z"/><path class="cls-6" d="M1332.19,662.3h-67.6c-25.36,0-49.3-8.25-53.35-18.13l-10.16-24.79c-3.59-8.76,12.13-15.67,35-15.67h61c22.88,0,46.1,6.91,52,15.67l16.74,24.79C1372.53,654.05,1357.55,662.3,1332.19,662.3Z"/><polygon class="cls-1" points="378.1 603.71 1194.66 603.71 1470.67 1277.21 -362.08 1277.21 378.1 603.71"/><polygon class="cls-5" points="378.1 603.71 1194.66 603.71 1470.67 1277.21 -362.08 1277.21 378.1 603.71"/><path class="cls-6" d="M1287,1218.54H1156.7c-48.88,0-91-30.29-93.91-65.54l-6.93-84c-2.33-28.27,28.66-50,69.1-50h107.79c40.45,0,80.82,21.77,90.66,50l29.26,84C1364.94,1188.25,1335.86,1218.54,1287,1218.54Z"/><path class="cls-7" d="M945.53,1218.54H815.26c-48.89,0-82.07-30.29-74.56-65.54l17.88-84c6-28.27,43.44-50,83.89-50H950.25c40.45,0,74.39,21.77,75.88,50l4.45,84C1032.44,1188.25,994.42,1218.54,945.53,1218.54Z"/><path class="cls-6" d="M604.09,1218.54H473.81c-48.88,0-73.12-30.29-55.2-65.54l42.69-84c14.37-28.27,58.22-50,98.67-50H667.75c40.45,0,68,21.77,61.1,50l-20.36,84C699.94,1188.25,653,1218.54,604.09,1218.54Z"/><path class="cls-7" d="M262.64,1218.54H132.36c-48.88,0-64.17-30.29-35.84-65.54l67.5-84c22.72-28.27,73-50,113.45-50H385.25c40.45,0,61.52,21.77,46.32,50l-45.17,84C367.44,1188.25,311.52,1218.54,262.64,1218.54Z"/><path class="cls-6" d="M-78.81,1218.54H-209.08c-48.89,0-55.23-30.29-16.49-65.54l92.31-84c31.06-28.27,87.79-50,128.23-50H102.76c40.44,0,55.08,21.77,31.53,50l-70,84C34.94,1188.25-29.92,1218.54-78.81,1218.54Z"/><path class="cls-7" d="M1227.86,1001H1122.1c-39.68,0-73.5-20.06-75.45-43.65L1041.92,900c-1.62-19.67,24.63-34.94,58.57-34.94h90.43c33.94,0,66.77,15.27,73.62,34.94l20,57.34C1292.73,980.9,1267.54,1001,1227.86,1001Z"/><path class="cls-6" d="M950.68,1001H844.92c-39.68,0-67.58-20.06-62.56-43.65L794.57,900C798.76,880.3,829.52,865,863.45,865h90.44c33.94,0,62.26,15.27,63.3,34.94l3,57.34C1021.47,980.9,990.36,1001,950.68,1001Z"/><path class="cls-7" d="M673.5,1001H567.74c-39.68,0-61.66-20.06-49.67-43.65L547.22,900c10-19.67,45.27-34.94,79.2-34.94h90.44c33.94,0,57.74,15.27,53,34.94l-13.91,57.34C750.21,980.9,713.18,1001,673.5,1001Z"/><path class="cls-6" d="M396.31,1001H290.56c-39.69,0-55.73-20.06-36.77-43.65L299.87,900C315.67,880.3,355.46,865,389.39,865h90.44c33.94,0,53.23,15.27,42.65,34.94l-30.83,57.34C479,980.9,436,1001,396.31,1001Z"/><path class="cls-7" d="M119.13,1001H13.37c-39.68,0-49.8-20.06-23.87-43.65l63-57.34C74.13,880.3,118.43,865,152.36,865H242.8c33.94,0,48.72,15.27,32.33,34.94l-47.77,57.34C207.7,980.9,158.82,1001,119.13,1001Z"/><path class="cls-6" d="M1187.47,852.32h-89c-33.39,0-61.64-14.26-63-31.16L1032,779.54c-1.19-14.46,21.57-25.77,50.8-25.77h77.9c29.23,0,56.87,11.31,61.9,25.77l14.5,41.62C1243,838.06,1220.87,852.32,1187.47,852.32Z"/><path class="cls-7" d="M954.19,852.32h-89c-33.4,0-57.44-14.26-53.84-31.16l8.86-41.62c3.08-14.46,29.18-25.77,58.41-25.77h77.9c29.23,0,53.53,11.31,54.29,25.77l2.21,41.62C1013.91,838.06,987.59,852.32,954.19,852.32Z"/><path class="cls-6" d="M720.92,852.32h-89c-33.4,0-53.22-14.26-44.64-31.16l21.16-41.62c7.35-14.46,36.79-25.77,66-25.77h77.9c29.23,0,50.19,11.31,46.68,25.77l-10.09,41.62C784.85,838.06,754.31,852.32,720.92,852.32Z"/><path class="cls-7" d="M487.64,852.32h-89c-33.39,0-49-14.26-35.43-31.16l33.45-41.62c11.62-14.46,44.4-25.77,73.63-25.77h77.9c29.23,0,46.85,11.31,39.07,25.77l-22.38,41.62C555.78,838.06,521,852.32,487.64,852.32Z"/><path class="cls-6" d="M254.36,852.32h-89c-33.4,0-44.8-14.26-26.24-31.16l45.75-41.62c15.89-14.46,52-25.77,81.24-25.77H344c29.23,0,43.51,11.31,31.46,25.77l-34.68,41.62C326.71,838.06,287.76,852.32,254.36,852.32Z"/><path class="cls-7" d="M1158.12,744.32h-76.83c-28.83,0-53.08-10.65-54.13-23.34l-2.6-31.59c-.92-11.08,19.18-19.78,44.85-19.78h68.41c25.68,0,49.52,8.7,53.38,19.78l11,31.59C1206.62,733.67,1187,744.32,1158.12,744.32Z"/><path class="cls-6" d="M956.75,744.32H879.91c-28.83,0-49.93-10.65-47.23-23.34l6.72-31.59c2.36-11.08,25-19.78,50.7-19.78h68.41c25.68,0,47,8.7,47.53,19.78l1.67,31.59C1008.39,733.67,985.58,744.32,956.75,744.32Z"/><path class="cls-7" d="M755.37,744.32H678.53c-28.83,0-46.79-10.65-40.34-23.34l16.06-31.59c5.63-11.08,30.87-19.78,56.54-19.78H779.2c25.67,0,44.38,8.7,41.69,19.78L813.23,721C810.15,733.67,784.2,744.32,755.37,744.32Z"/><path class="cls-6" d="M554,744.32H477.16c-28.83,0-43.65-10.65-33.45-23.34l25.38-31.59c8.91-11.08,36.72-19.78,62.39-19.78h68.41c25.67,0,41.8,8.7,35.84,19.78l-17,31.59C611.92,733.67,582.82,744.32,554,744.32Z"/><path class="cls-7" d="M352.61,744.32H275.78c-28.83,0-40.5-10.65-26.55-23.34l34.71-31.59c12.18-11.08,42.55-19.78,68.23-19.78h68.41c25.67,0,39.23,8.7,30,19.78L424.26,721C413.69,733.67,381.44,744.32,352.61,744.32Z"/><path class="cls-6" d="M1135.84,662.3h-67.59c-25.36,0-46.61-8.25-47.42-18.13l-2-24.79c-.73-8.76,17.26-15.67,40.14-15.67h61c22.89,0,43.84,6.91,46.89,15.67l8.64,24.79C1178.89,654.05,1161.2,662.3,1135.84,662.3Z"/><path class="cls-7" d="M958.69,662.3h-67.6c-25.36,0-44.16-8.25-42.06-18.13l5.28-24.79c1.87-8.76,21.89-15.67,44.77-15.67h61c22.89,0,41.8,6.91,42.27,15.67l1.31,24.79C1004.17,654.05,984.05,662.3,958.69,662.3Z"/><path class="cls-6" d="M781.53,662.3H713.94c-25.36,0-41.73-8.25-36.7-18.13l12.59-24.79c4.46-8.76,26.52-15.67,49.4-15.67h61c22.89,0,39.77,6.91,37.64,15.67l-6,24.79C829.46,654.05,806.89,662.3,781.53,662.3Z"/><path class="cls-7" d="M604.38,662.3H536.79c-25.37,0-39.29-8.25-31.35-18.13l19.92-24.79c7-8.76,31.14-15.67,54-15.67h61c22.88,0,37.72,6.91,33,15.67l-13.33,24.79C654.74,654.05,629.74,662.3,604.38,662.3Z"/><path class="cls-6" d="M427.22,662.3H359.63c-25.36,0-36.85-8.25-26-18.13l27.24-24.79c9.63-8.76,35.77-15.67,58.66-15.67h61c22.88,0,35.68,6.91,28.38,15.67l-20.65,24.79C480,654.05,452.59,662.3,427.22,662.3Z"/><polygon class="cls-1" points="-438.46 603.71 378.1 603.71 -362.08 1277.21 -2194.82 1277.21 -438.46 603.71"/><polygon class="cls-5" points="-438.46 603.71 378.1 603.71 -362.08 1277.21 -2194.82 1277.21 -438.46 603.71"/><path class="cls-7" d="M-188.08,1001H-293.83c-39.69,0-43.24-20.06-9.59-43.65L-221.63,900c28-19.67,77.35-34.94,111.28-34.94h90.44C14,865,23.81,880.3,1,900l-66.55,57.34C-92.94,980.9-148.39,1001-188.08,1001Z"/><path class="cls-6" d="M-4.18,852.32h-89c-33.4,0-40.13-14.26-16-31.16l59.37-41.62c20.64-14.46,60.45-25.77,89.69-25.77h77.9c29.23,0,39.8,11.31,23,25.77L92.44,821.16C72.83,838.06,29.21,852.32-4.18,852.32Z"/><path class="cls-7" d="M129.42,744.32H52.58c-28.83,0-37-10.65-18.91-23.34l45.06-31.59c15.81-11.08,49-19.78,74.7-19.78h68.41c25.68,0,36.39,8.7,23.52,19.78L208.71,721C194,733.67,158.25,744.32,129.42,744.32Z"/><path class="cls-6" d="M-72,744.32h-76.83c-28.83,0-33.87-10.65-12-23.34l54.38-31.59c19.08-11.08,54.88-19.78,80.55-19.78H42.53c25.68,0,33.82,8.7,17.68,19.78L14.22,721C-4.25,733.67-43.13,744.32-72,744.32Z"/><path class="cls-6" d="M230.88,662.3H163.29c-25.37,0-34.15-8.25-20.06-18.13l35.36-24.79c12.5-8.76,40.9-15.67,63.78-15.67h61c22.89,0,33.43,6.91,23.25,15.67l-28.76,24.79C286.39,654.05,256.24,662.3,230.88,662.3Z"/><path class="cls-7" d="M53.72,662.3H-13.87c-25.36,0-31.7-8.25-14.69-18.13l42.67-24.79c15.09-8.76,45.53-15.67,68.41-15.67h61c22.89,0,31.39,6.91,18.63,15.67l-36.09,24.79C111.67,654.05,79.09,662.3,53.72,662.3Z"/><path class="cls-6" d="M-123.43,662.3H-191c-25.36,0-29.27-8.25-9.34-18.13l50-24.79c17.68-8.76,50.16-15.67,73-15.67h61c22.89,0,29.35,6.91,14,15.67l-43.4,24.79C-63,654.05-98.07,662.3-123.43,662.3Z"/></g></g><rect class="cls-15" x="58" y="34.32" width="1787.16" height="1012.53" rx="94.32"/><path class="cls-16" d="M474.52,19.33C527.89,2.52,562.22,4.07,584.26,9.26a341.27,341.27,0,0,0,37.18,7.32,322,322,0,0,0,56.23,2.75V261a165.5,165.5,0,0,1-19.95-.91c-17.89-1.92-26.25-5.8-36.28-7.33S596.58,251.6,577,261Z"/><path class="cls-17" d="M577,261a84.16,84.16,0,0,1-25.39,30.21c-5.64,4.06-19.78,13.08-78,13.73-70.82.79-89.23-12.12-97.95-20.14a72.81,72.81,0,0,1-9.07-10.07c-4.27-31.24-7.57-65.54-9.07-102.52a1080.16,1080.16,0,0,1,1.81-119.92A223.23,223.23,0,0,0,459.1,80.66,224.2,224.2,0,0,0,577,52.28Z"/><path class="cls-18" d="M577,52.28c-.41,15.11-57.34,26.73-97.94,28.38C424.2,82.88,359.77,68.49,359.34,52.28c-.39-14.89,53.26-30.89,98-32.95C515,16.66,577.43,36.35,577,52.28Z"/><ellipse class="cls-19" cx="470.89" cy="52.28" rx="36.28" ry="14.65"/><path class="cls-20" d="M436.43,52.28c0,3.06,2.92,5.33,5.44,7.32a24.2,24.2,0,0,0,10.89,4.58c6.07,1.28,12.56,1,12.69,0,.22-1.53-14.92-2.2-16.32-8.24-1.32-5.69,10.53-12,9.07-14.64-1-1.78-7-.1-10,.91C447.09,42.6,436.36,46.34,436.43,52.28Z"/><path class="cls-17" d="M396.53,51.37c.15,6.47,9.78,11,13.6,12.81C429.82,73.47,461,72.64,470,73.34c.81.06,2.57.22,2.72.91s-1.32,1.54-1.82,1.83c-4.77,2.81-95.64-.85-96.13-22.88-.47-21.51,85.87-29.45,88-28.38.91.46.91.92.91.92,0,.45-.67.79-.91.91-2.46,1.26-35,2.47-52.6,11C407.59,38.87,396.37,44.31,396.53,51.37Z"/><path class="cls-16" d="M1429,19.33c-53.37-16.81-87.7-15.26-109.74-10.07a340.73,340.73,0,0,1-37.18,7.32,322,322,0,0,1-56.23,2.75V261a165.5,165.5,0,0,0,19.95-.91c17.89-1.92,26.26-5.8,36.28-7.33s24.86-1.15,44.44,8.24Z"/><path class="cls-17" d="M1326.55,261a84.16,84.16,0,0,0,25.39,30.21c5.64,4.06,19.79,13.08,78,13.73,70.82.79,89.22-12.12,97.94-20.14a72.15,72.15,0,0,0,9.07-10.07c4.28-31.24,7.57-65.54,9.07-102.52a1077.74,1077.74,0,0,0-1.81-119.92,223.18,223.18,0,0,1-99.76,28.38,224.2,224.2,0,0,1-117.9-28.38Z"/><path class="cls-18" d="M1326.55,52.28c.41,15.11,57.34,26.73,98,28.38,54.85,2.22,119.28-12.17,119.71-28.38.39-14.89-53.26-30.89-98-32.95C1388.53,16.66,1326.12,36.35,1326.55,52.28Z"/><ellipse class="cls-19" cx="1432.66" cy="52.28" rx="36.28" ry="14.65"/><path class="cls-20" d="M1467.12,52.28c0,3.06-2.92,5.33-5.44,7.32a24.22,24.22,0,0,1-10.88,4.58c-6.08,1.28-12.56,1-12.7,0-.21-1.53,14.92-2.2,16.32-8.24,1.32-5.69-10.53-12-9.07-14.64,1-1.78,7-.1,10,.91C1456.47,42.6,1467.2,46.34,1467.12,52.28Z"/><path class="cls-17" d="M1507,51.37c-.14,6.47-9.78,11-13.6,12.81-19.69,9.29-50.83,8.46-59.86,9.16-.8.06-2.56.22-2.72.91s1.32,1.54,1.82,1.83c4.78,2.81,95.65-.85,96.13-22.88.47-21.51-85.86-29.45-88-28.38-.91.46-.91.92-.91.92,0,.45.67.79.91.91,2.46,1.26,35,2.47,52.6,11C1496,38.87,1507.19,44.31,1507,51.37Z"/><path class="cls-16" d="M1225.89,261.49c-80.62,6.48-171.91,10.92-272.1,11-101.87.07-194.59-4.41-276.3-11q-.56-121.32-1.12-242.64A2502.53,2502.53,0,0,0,956.58,34.47a2502.66,2502.66,0,0,0,269.31-14.64Z"/><path class="cls-21" d="M599.31,170.2v-51a8.51,8.51,0,1,1,17,0v51a8.51,8.51,0,1,1-17,0Z"/><path class="cls-21" d="M670.48,174.39l-25.3-36.62V170.2a8.5,8.5,0,1,1-17,0V121.81a11.27,11.27,0,0,1,11.17-11.27,11,11,0,0,1,9.09,4.88l23.92,34.33V119.22a8.55,8.55,0,1,1,17.1,0v49.19a10.41,10.41,0,0,1-19,6Z"/><path class="cls-21" d="M698.76,166.41a7.84,7.84,0,0,1,7.71-7.88,7.32,7.32,0,0,1,4.15,1.19,29.16,29.16,0,0,0,16,4.79c5.84,0,9.39-2.49,9.39-5.68,0-3.79-4.25-5.29-11.26-6.79-10.88-2.19-26.1-5-26.1-20.75,0-11.18,9.39-20.86,27.28-20.86a44.5,44.5,0,0,1,20.46,4.79,7.75,7.75,0,0,1-3.46,14.67,8.93,8.93,0,0,1-3.65-.9c-5.44-2.59-10.28-3.89-14.44-3.89-6.62,0-8.79,2.3-8.79,5.19,0,3.49,4.05,4.69,11.36,6.09,10.88,2.29,25.9,5.49,25.9,20.55,0,13.37-9.78,22.25-27.48,22.25-9.68,0-17.1-2.19-23.32-6.08A7.73,7.73,0,0,1,698.76,166.41Z"/><path class="cls-21" d="M775.57,170.2V126.4h-12a7.49,7.49,0,0,1,0-15h40.72a7.49,7.49,0,1,1,0,15H792.57v43.8a8.5,8.5,0,1,1-17,0Z"/><path class="cls-21" d="M872.93,165a9.26,9.26,0,0,1,1.78,5.39,8.56,8.56,0,0,1-8.4,8.48,8.67,8.67,0,0,1-6.92-3.59l-13.74-19.86h-9.59V170.2a8.5,8.5,0,1,1-17,0V120.51c0-5.88,3.16-9.08,9-9.08h24c14.63,0,22.93,9.78,22.93,22.15,0,10.38-5.73,16.57-11.27,19.26Zm-36.87-24.14h13.45c4.44,0,8.2-2.9,8.2-7.49s-3.76-7.48-8.2-7.48H836.06Z"/><path class="cls-21" d="M884.4,119.22a8.65,8.65,0,1,1,17.3,0v31.23c0,7.88,4.15,13.57,13.35,13.57s13.24-5.69,13.24-13.57V119.22a8.65,8.65,0,1,1,17.3,0v31.72c0,16.57-9.39,28.24-30.54,28.24S884.4,167.41,884.4,151Z"/><path class="cls-21" d="M954.1,144.76c0-20.56,15.42-34.42,35.19-34.42,11.16,0,18.77,4.19,23.92,9.87a8.31,8.31,0,0,1,2.17,5.49,8.16,8.16,0,0,1-8.11,8.08,8,8,0,0,1-6-2.69,15.57,15.57,0,0,0-12-5.59c-10.29,0-17.9,8.38-17.9,19.26S979,164,989.29,164a15.93,15.93,0,0,0,12.05-5.59,7.61,7.61,0,0,1,5.93-2.7,8.08,8.08,0,0,1,8,8.09,8.32,8.32,0,0,1-2.07,5.38c-5.24,5.69-12.76,10-23.92,10C969.52,179.18,954.1,165.21,954.1,144.76Z"/><path class="cls-21" d="M1038.32,170.2V126.4h-12a7.49,7.49,0,0,1,0-15h40.72a7.49,7.49,0,1,1,0,15h-11.76v43.8a8.5,8.5,0,1,1-17,0Z"/><path class="cls-21" d="M1081.81,170.2v-51a8.5,8.5,0,1,1,17,0v51a8.5,8.5,0,1,1-17,0Z"/><path class="cls-21" d="M1142.61,110.34c20.16,0,35.19,14.16,35.19,34.42s-15,34.42-35.19,34.42-35.29-14.17-35.29-34.42S1122.44,110.34,1142.61,110.34Zm0,15.16c-11,0-18,8.38-18,19.26s7,19.26,18,19.26,17.89-8.49,17.89-19.26S1153.48,125.5,1142.61,125.5Z"/><path class="cls-21" d="M1228.71,174.39l-25.31-36.62V170.2a8.5,8.5,0,1,1-17,0V121.81a11.27,11.27,0,0,1,11.17-11.27,11,11,0,0,1,9.09,4.88l23.92,34.33V119.22a8.55,8.55,0,1,1,17.1,0v49.19a10.41,10.41,0,0,1-19,6Z"/><path class="cls-21" d="M1257,166.41a7.84,7.84,0,0,1,7.71-7.88,7.32,7.32,0,0,1,4.15,1.19,29.16,29.16,0,0,0,16,4.79c5.84,0,9.39-2.49,9.39-5.68,0-3.79-4.25-5.29-11.27-6.79-10.87-2.19-26.09-5-26.09-20.75,0-11.18,9.39-20.86,27.28-20.86a44.5,44.5,0,0,1,20.46,4.79,7.75,7.75,0,0,1-3.46,14.67,8.93,8.93,0,0,1-3.65-.9c-5.44-2.59-10.29-3.89-14.44-3.89-6.62,0-8.79,2.3-8.79,5.19,0,3.49,4,4.69,11.36,6.09,10.88,2.29,25.9,5.49,25.9,20.55,0,13.37-9.78,22.25-27.48,22.25-9.68,0-17.1-2.19-23.33-6.08A7.74,7.74,0,0,1,1257,166.41Z"/></g></svg>