<svg xmlns="http://www.w3.org/2000/svg" xmlns:xlink="http://www.w3.org/1999/xlink" width="590" height="555" viewBox="0 0 590 555"><defs><style>.cls-1{fill:none;}.cls-2{clip-path:url(#clip-path);}.cls-3{clip-path:url(#clip-path-2);}.cls-4{clip-path:url(#clip-path-3);}.cls-5{fill:#e3f2fd;}.cls-6{fill:#bbdefb;}.cls-7{fill:#a9d6e5;}.cls-8{fill:#5c4200;}.cls-9{fill:#6b5504;}.cls-10{fill:#453002;}.cls-11{fill:#ff5f99;}.cls-12{fill:#ffc4da;}.cls-13{opacity:0.53;}.cls-14{clip-path:url(#clip-path-4);}.cls-15{clip-path:url(#clip-path-5);}</style><clipPath id="clip-path"><rect class="cls-1" x="-2236.61" y="-820.15" width="1916.5" height="1080"/></clipPath><clipPath id="clip-path-2"><rect class="cls-1" x="-2235.11" y="-820.67" width="1916.5" height="1080"/></clipPath><clipPath id="clip-path-3"><polygon class="cls-1" points="1824.85 418.33 -4340.15 418.33 -2675.63 -216.96 160.33 -216.96 1824.85 418.33"/></clipPath><clipPath id="clip-path-4"><rect class="cls-1" x="645.09" y="-799.1" width="1920" height="1077"/></clipPath><clipPath id="clip-path-5"><polygon class="cls-1" points="4712.45 436.46 -1463.8 436.46 203.75 -197.06 3044.9 -197.06 4712.45 436.46"/></clipPath></defs><g id="Sad_Poop" data-name="Sad Poop"><g class="cls-2"><g class="cls-3"><g class="cls-4"><polygon class="cls-1" points="-214.41 -216.96 606 -216.96 2925.27 456.54 1083.88 456.54 -214.41 -216.96"/><polygon class="cls-5" points="-214.41 -216.96 606 -216.96 2925.27 456.54 1083.88 456.54 -214.41 -216.96"/><path class="cls-6" d="M1008.3,180.29H902c-39.87,0-116.81-20.06-169.3-43.66L605.19,79.29c-43.74-19.66-50.08-34.94-16-34.94h90.87c34.09,0,99.79,15.28,148.78,34.94l142.87,57.34C1030.51,160.23,1048.17,180.29,1008.3,180.29Z"/><path class="cls-7" d="M729.81,180.29H623.55c-39.87,0-110.86-20.06-156.34-43.66L356.67,79.29c-37.9-19.66-39.71-34.94-5.62-34.94h90.87c34.09,0,95.26,15.28,138.42,34.94l125.85,57.34C758,160.23,769.68,180.29,729.81,180.29Z"/><path class="cls-6" d="M883.75,31.64H794.32c-33.55,0-96.7-14.26-139.29-31.15L550.08-41.14C513.62-55.6,508.93-66.9,538.29-66.9h78.27c29.37,0,84.7,11.3,125,25.76L857.65.49C904.75,17.38,917.3,31.64,883.75,31.64Z"/><path class="cls-7" d="M649.37,31.64H560c-33.56,0-92.47-14.26-130.05-31.15L337.31-41.14C305.13-55.6,303.79-66.9,333.16-66.9h78.27c29.37,0,81.34,11.3,117.38,25.76L632.52.49C674.61,17.38,682.93,31.64,649.37,31.64Z"/><path class="cls-6" d="M415,31.64H325.57C292,31.64,237.33,17.38,204.77.49L124.53-41.14C96.64-55.6,98.66-66.9,128-66.9H206.3c29.36,0,78,11.3,109.73,25.76L407.38.49C444.46,17.38,448.55,31.64,415,31.64Z"/><polygon class="cls-1" points="-1034.82 -216.96 -214.41 -216.96 1083.88 456.54 -757.5 456.54 -1034.82 -216.96"/><polygon class="cls-5" points="-1034.82 -216.96 -214.41 -216.96 1083.88 456.54 -757.5 456.54 -1034.82 -216.96"/><path class="cls-6" d="M810.38,397.87H679.49c-49.11,0-137.36-30.29-193.71-65.54l-134.28-84c-45.2-28.27-47.07-50.05-6.44-50.05h108.3c40.63,0,114.21,21.78,167,50.05l156.7,84C842.79,367.58,859.5,397.87,810.38,397.87Z"/><path class="cls-7" d="M467.33,397.87H336.44c-49.12,0-128.37-30.29-174.27-65.54l-109.35-84C16,220.07,20.6,198.29,61.23,198.29h108.3c40.63,0,107.74,21.78,152.1,50.05l131.79,84C508.73,367.58,516.44,397.87,467.33,397.87Z"/><path class="cls-6" d="M124.27,397.87H-6.62c-49.11,0-119.38-30.29-154.81-65.54l-84.43-84c-28.42-28.27-17.37-50.05,23.26-50.05h108.29C-73.67,198.29-13,220.07,23,248.34l106.86,84C174.66,367.58,173.39,397.87,124.27,397.87Z"/><path class="cls-7" d="M421.15,180.29H314.9c-39.87,0-104.27-20.06-142-43.66L81.23,79.29C49.79,59.63,53,44.35,87.11,44.35H178c34.1,0,90.24,15.28,126.93,34.94l107,57.34C455.91,160.23,461,180.29,421.15,180.29Z"/><path class="cls-6" d="M142.66,180.29H36.41c-39.87,0-98.31-20.06-129-43.66l-74.65-57.34C-192.89,59.63-185.14,44.35-151,44.35h90.86c34.1,0,85.71,15.28,116.56,34.94l90,57.34C183.38,160.23,182.53,180.29,142.66,180.29Z"/><path class="cls-6" d="M155.23,31.64H65.8C32.25,31.64-17.75,17.38-44.75.49L-111.3-41.14c-23.13-14.46-17.39-25.76,12-25.76h78.27C8.31-66.9,53.21-55.6,80.2-41.14L157.86.49C189.38,17.38,188.79,31.64,155.23,31.64Z"/></g></g></g><path class="cls-8" d="M231,143c-2.67-28.43-29.15-29.78-38.74-65C187.15,59.43,184.91,24.29,207,9.71c17.84-11.75,46.81-7.06,58.11,8C275.61,31.59,262.89,43.59,272,69c9,25.18,30.59,38.52,36.46,42.16a97.5,97.5,0,0,0,42.16,13.67c15.19,1.31,30.72-.94,49-8C458.79,94,461.27,53.9,499.87,49.59c28.57-3.19,62.2,14.87,66.09,36.46,1.94,10.82-3.34,23.15-11.4,30.76-17.91,16.92-39.55,1.13-63.8,17.09-13,8.57-22.53,23.47-23.93,38.74-.48,5.24-.91,20.25,15.95,42.16,34.65,45,76.14,33.22,94.57,67.23,14.2,26.21,7.06,65.52-10.25,74.06-21.58,10.64-47.08-31.64-82-22.79-20.86,5.28-40.7,27.65-42.16,50.13-2.52,38.87,51.66,50.66,54.69,98,1.5,23.3-9.92,46.92-27.34,59.25-39,27.59-105.78-.68-112.8-30.76-5.65-24.2,30.21-37.46,26.2-69.51-3.2-25.55-30.08-49.65-58.11-52.41-24.73-2.43-43.87,12.39-55.83,21.65-31.65,24.52-24.79,44-52.41,63.81-22.08,15.81-56.11,24.56-83.18,11.39-4.23-2.06-22.21-10.81-28.48-29.62C97.52,430.86,113.5,403,130.7,388c33.25-29.09,68-7.87,87.74-33,16.67-21.3,11.66-61.91-9.12-79.76-16.6-14.26-39.86-11.07-75.2-5.7-64.65,9.83-89.71,34.14-112.8,19.37C3.86,277.69,3.12,254.14,3.09,252.4,2.59,221.72,36,193.2,66.9,189.74c32-3.59,42.3,29.76,84.31,29.62a82.15,82.15,0,0,0,39.88-10.25C213.21,196.39,233.45,169.45,231,143Z"/><path class="cls-8" d="M79.43,380c12.1-4.73,9-18.9,23.93-37.6,13.3-16.65,27.63-20.28,26.2-23.93-1.86-4.78-26.72.43-44.43,6.83-13.16,4.76-21.37,7.87-27.35,16.53-5,7.18-10.76,21.64-3.42,31.33C59.73,380.26,71,383.31,79.43,380Z"/><path class="cls-8" d="M512.4,201.13c-.2-.84.6-1.73,1.14-2.28,7.31-7.46,21.71-11.35,26.21-12.53,8.38-2.2,12.57-3.3,13.67-3.42,6.66-.72,20.78-2.35,28.49,6.84.84,1,6.64,8.14,4.56,17.09-2.16,9.27-11,13-12.54,13.67a24.78,24.78,0,0,1-14.81,1.14c-14-2.85-15-13.77-29.62-18.23C521.69,201,513,203.62,512.4,201.13Z"/><path class="cls-8" d="M366.31,93.53c-1.91,0-3.64-1.76-11.14-17.74-7.4-15.75-11.08-23.73-10.26-28.48,1.75-10.09,11.73-21.76,22.79-20.51,9.18,1,15.45,10.56,17.09,18.23.53,2.48.87,6.12-5.7,23.93C373.06,85.32,370,93.51,366.31,93.53Z"/><path class="cls-9" d="M535.19,73.52c1.5-5.34-5.56-11.47-6.83-12.54-10.06-8.41-26-7.67-37.6-3.42-16.22,5.93-15.88,15.66-42.16,38.74-10.27,9-16.83,14.79-27.35,20.51-24.49,13.33-47,13.68-46.71,17.66.18,2.67,10.39,3.87,11.39,4,12.19,1.44,22-3.07,25.07-4.56,25.94-12.37,31.94-24.94,55.83-36.46a209,209,0,0,1,38.74-13.67C521.54,80.1,533.46,79.71,535.19,73.52Z"/><path class="cls-9" d="M253.76,26.8c-1.33-8.29-14-13.59-23.93-13.67C216.52,13,208,22.32,207,23.38c-5.17,5.83-6.17,12.15-8,22.79a75,75,0,0,0-1.14,21.65c2.61,24.63,18.63,40.69,25.66,47.74,3.13,3.14,7.91,7.48,8.52,7s-4.29-6.82-10.25-16c-7.07-10.82-10.6-16.22-12.54-21.65-4.67-13.09-3.65-31.41,6.84-43.3,1.85-2.09,10.31-11.7,19.37-10.25,6.49,1,9.53,7.15,13.67,5.69C252.45,35.92,254.4,30.81,253.76,26.8Z"/><path class="cls-10" d="M493,486a53,53,0,0,1-2.28,14.81c-4.85,16.11-15.91,25.58-19.37,28.49-18.59,15.61-41.06,15.23-47.86,14.81-27.84-1.73-48.1-20-47.85-20.51.13-.27,7.29,4,20.51,8A124.75,124.75,0,0,0,409.86,535c26.41,4.62,47.85-9.11,47.85-9.11,4.34-2.79,17.73-11.66,23.93-28.49a61,61,0,0,0,3.42-22.78c-.34-12.79-4.33-20.16-3.42-20.51C482.93,453.58,493.06,467.71,493,486Z"/><path class="cls-10" d="M270.85,398.25c-1-1.25-15.05,6.23-28.48,18.23-17.82,15.91-16.69,23.85-31.91,37.6-8,7.22-22.88,20.67-42.16,21.65-26.64,1.35-47.12-21.86-50.13-18.23-1.56,1.87,3.24,8.91,8,13.67,19.06,19.15,49.63,14,51.27,13.67,23.16-4.27,37.76-20.7,46.72-30.76,8.52-9.59,7.05-11.34,19.37-26.21C259.35,408.73,271.83,399.49,270.85,398.25Z"/><path class="cls-11" d="M257.05,269.85l-11.53-30.92a7.11,7.11,0,0,1,13.32-5l9.84,26.38,11.54-4.3a6.19,6.19,0,1,1,4.32,11.6l-17.8,6.64C262.19,276,258.75,274.41,257.05,269.85Z"/><path class="cls-11" d="M298.74,211.43c13.58-5.06,27.51.26,32.55,13.78s-2,26.65-15.59,31.72-27.51-.26-32.55-13.78S285.15,216.49,298.74,211.43Zm4.37,11.74c-6.39,2.38-8.73,8.81-6.44,14.94s8.26,9.47,14.65,7.08,8.73-8.81,6.45-14.95S309.51,220.78,303.11,223.17Z"/><path class="cls-11" d="M381.81,224.54a7.12,7.12,0,0,1-12.34,6.78l-1.61-2.1-16.35,6.1.15,2.64a7.11,7.11,0,0,1-13.76,3,7.21,7.21,0,0,1-.47-2.46l-.1-32.71a12.48,12.48,0,0,1,21.89-8.16l21.34,24.79A7.27,7.27,0,0,1,381.81,224.54Zm-21.58-5.09-10.16-13,.8,16.45Z"/><path class="cls-11" d="M385.77,221.87,374.63,192c-1.69-4.55-.12-8,4.43-9.69l12.59-4.7c13.85-5.16,27.09-1.08,32.32,13s-2.07,25.86-15.85,31l-12.66,4.72C390.91,228,387.47,226.42,385.77,221.87Zm18-11.88a10.86,10.86,0,0,0,6.74-14.38c-2.22-5.93-7.29-9.07-14.41-6.42l-6.4,2.39,7.74,20.77Z"/><path class="cls-11" d="M317,324l2.65,7.13c1.33,3.55,1.48,6.58-.52,9.88a27.61,27.61,0,0,1-14.38,11.59c-13.32,5-27.44.32-32.68-13.73s2.4-26.8,15.72-31.77a22.88,22.88,0,0,1,15.72-.53,6.73,6.73,0,0,1,4.13,4,6.63,6.63,0,0,1-8.63,8.48,9.28,9.28,0,0,0-6.85-.23c-6.39,2.39-8.86,8.86-6.57,15s8.39,9.42,14.79,7c3.49-1.3,5.22-2.92,6.12-4.53l-.59-1.58L302.52,336a6,6,0,0,1-7.56-3.56c-1.13-3,.27-6.94,3.24-8.05l11.07-4.13A6.21,6.21,0,0,1,317,324Z"/><path class="cls-11" d="M368.73,321a7.11,7.11,0,0,1-12.34,6.78l-1.61-2.1-16.35,6.1.16,2.64a7.13,7.13,0,1,1-14.24.5l-.1-32.71a12.48,12.48,0,0,1,21.89-8.16l21.34,24.79A7.27,7.27,0,0,1,368.73,321Zm-21.57-5.1L337,303l.8,16.45Z"/><path class="cls-11" d="M412,304.89l-8.11-21.76.47,29.26a4.1,4.1,0,0,1-7.25,2.71l-18.81-22.43,8.12,21.76a7.11,7.11,0,1,1-13.32,5l-10.45-28A11.33,11.33,0,0,1,382,280.18l11.43,13.91-.48-18a11.33,11.33,0,0,1,21.94-4.2l10.45,28a7.11,7.11,0,0,1-13.32,5Z"/><path class="cls-11" d="M432,296.21,420.9,266.34c-1.69-4.55-.12-8,4.43-9.69l21.43-8a5.91,5.91,0,0,1,4.13,11.08l-15.17,5.66,1.92,5.14,14.7-5.48a5.91,5.91,0,1,1,4.13,11.07l-14.7,5.49,2.09,5.6L459,281.57a5.91,5.91,0,1,1,4.12,11.08l-21.43,8C437.17,302.33,433.73,300.76,432,296.21Z"/><path class="cls-12" d="M259.09,265.9c.87,2.58,1.21,3.91,1,4s-.86-.91-2-3q-2.5-6.5-5-13c-4.24-11-8.34-16.17-6-20,1.2-2,3.78-3.23,4-3s-1.24,1.35-2,3c-1.3,2.83-.12,5.84,2,11,2.25,5.48,4,9.63,5,12Z"/><path class="cls-12" d="M283.09,237.9c1.8,10.43,12,17,12,17a34.71,34.71,0,0,1-6-8,28.87,28.87,0,0,1-3-7c-.75-2.8-2.08-7.73,0-13a19.46,19.46,0,0,1,5-7,16.83,16.83,0,0,1,4-3c3.22-1.67,5.79-1.5,9-4,.64-.5,1.08-.84,1-1-.3-.65-9.48.2-16,7A22.51,22.51,0,0,0,283.09,237.9Z"/><path class="cls-12" d="M341.09,235.9a5.06,5.06,0,0,0,0-2c-.18-.87-.12-4.91,0-13,.14-9.66.14-14.5,2-18s4.44-5.51,4-6-3.94,1.07-6,4c-1.62,2.31-1.84,4.7-2,7a163.29,163.29,0,0,0,0,20c.26,6,.38,10,1,10C340.43,237.92,340.9,236.79,341.09,235.9Z"/><path class="cls-12" d="M383.09,203.9c1.35,3.51,3.31,8.82,5.44,15.56.5,1.57.69,2.39.56,2.44q-.45.18-6-12c-2-6.17-3.71-10.79-5-14-1-2.49-2.22-5.36-1-8a7.11,7.11,0,0,1,3-3c6.72-4.18,14.85-5.56,15-5,.11.4-3.91,1.16-10,5-2.85,1.8-4.27,2.69-5,4C378.21,192.27,380.13,196.2,383.09,203.9Z"/><path class="cls-12" d="M292.09,352.9c.06-.14-7.67-1.5-13-8a23.71,23.71,0,0,1-5-16c.67-7.94,5.58-14.1,9-16a35.65,35.65,0,0,1,4-2,12.33,12.33,0,0,0,4-2c.23-.19,1.08-.88,1-1-.26-.4-13.08,3.14-18,13-3.66,7.34-2.51,17.31,3,24C283,352.13,292,353.05,292.09,352.9Z"/><path class="cls-12" d="M328.47,332.38a4.86,4.86,0,0,0,0-2c-.17-.87-.12-4.92,0-13,.14-9.67.14-14.5,2-18s4.44-5.51,4-6-3.94,1.07-6,4c-1.62,2.3-1.84,4.7-2,7a163.29,163.29,0,0,0,0,20c.26,6,.38,9.95,1,10C327.81,334.4,328.29,333.27,328.47,332.38Z"/><path class="cls-12" d="M376.09,317.9c.22,1.2.32,2.92,0,3s-1.39-2.75-3-7c-1.27-3.36-2.69-6.66-4-10-3.89-9.92-5.45-13.85-5-18a9.18,9.18,0,0,1,2-5c1.1-1.3,2.69-2.28,3-2s-1.13,2-2,4c-.43,1-1.31,3.47,0,10,1.25,6.25,3.57,11.5,6,17,.72,1.64,1.27,3.36,2,5A12,12,0,0,1,376.09,317.9Z"/><path class="cls-12" d="M426.09,262.9c-2,7.52,10.81,34.52,10,35-.22.13-1-1-1-1a60.13,60.13,0,0,1-7.59-16.23c-4.1-15.09-6.24-16.7-4.41-19.77,2.52-4.23,8.94-5.13,9-5a10.31,10.31,0,0,0-6,7Z"/></g><g id="InstructionsINSTRUCTIONS"><g class="cls-13"><g class="cls-14"><g class="cls-15"><polygon class="cls-1" points="1025.66 -197.06 1847.57 -197.06 2125.39 474.57 280.64 474.57 1025.66 -197.06"/><polygon class="cls-5" points="1025.66 -197.06 1847.57 -197.06 2125.39 474.57 280.64 474.57 1025.66 -197.06"/><path class="cls-6" d="M565.76,416.06H434.63c-49.2,0-55.58-30.21-16.59-65.36L511,267C542.22,238.75,599.31,217,640,217H748.51c40.71,0,55.45,21.71,31.74,49.91L709.82,350.7C680.26,385.85,615,416.06,565.76,416.06Z"/><polygon class="cls-1" points="203.75 -197.06 1025.66 -197.06 280.64 474.57 -1564.11 474.57 203.75 -197.06"/><polygon class="cls-5" points="203.75 -197.06 1025.66 -197.06 280.64 474.57 -1564.11 474.57 203.75 -197.06"/><path class="cls-6" d="M184.85,416.06H53.72c-49.21,0-45.6-30.21,5-65.36L179.3,267C219.89,238.75,284.16,217,324.87,217H433.36c40.71,0,48.27,21.71,15.25,49.91L350.5,350.7C309.33,385.85,234.05,416.06,184.85,416.06Z"/><path class="cls-7" d="M-158.83,416.06H-290c-49.21,0-36.6-30.21,24.48-65.36L-119.92,267C-70.93,238.75-.19,217,40.52,217H149c40.71,0,41.8,21.71.37,49.91L26.3,350.7C-25.35,385.85-109.63,416.06-158.83,416.06Z"/><path class="cls-7" d="M455.78,199.08H349.33c-39.95,0-43.53-20-9.65-43.53L422,98.37c28.24-19.61,77.86-34.85,112-34.85h91c34.15,0,44,15.24,21,34.85l-67,57.18C551.53,179.08,495.72,199.08,455.78,199.08Z"/><path class="cls-6" d="M176.78,199.08H70.33c-39.94,0-37.56-20,3.33-43.53L173,98.37c34.08-19.61,88.25-34.85,122.4-34.85h91c34.16,0,39.46,15.24,10.65,34.85l-84,57.18C278.5,179.08,216.72,199.08,176.78,199.08Z"/><path class="cls-7" d="M-102.22,199.08H-208.67c-39.94,0-31.59-20,16.31-43.53L-75.94,98.37C-36,78.76,22.69,63.52,56.85,63.52h91c34.16,0,34.92,15.24.26,34.85L47.06,155.55C5.47,179.08-62.27,199.08-102.22,199.08Z"/><path class="cls-6" d="M640.87,50.85H551.29c-33.62,0-40.4-14.22-16.15-31.07L594.9-21.73c20.77-14.42,60.85-25.69,90.27-25.69h78.41c29.42,0,40.07,11.27,23.17,25.69L738.13,19.78C718.4,36.63,674.49,50.85,640.87,50.85Z"/><path class="cls-7" d="M406.07,50.85H316.48c-33.61,0-36.16-14.22-6.88-31.07l72.14-41.51c25.06-14.42,68.5-25.69,97.92-25.69h78.42c29.42,0,36.7,11.27,15.51,25.69l-61,41.51C487.83,36.63,439.69,50.85,406.07,50.85Z"/><path class="cls-6" d="M171.27,50.85H81.68c-33.62,0-31.92-14.22,2.38-31.07l84.51-41.51c29.36-14.42,76.17-25.69,105.59-25.69h78.41c29.42,0,33.35,11.27,7.85,25.69L287.05,19.78C257.27,36.63,204.88,50.85,171.27,50.85Z"/><path class="cls-7" d="M-63.54,50.85h-89.59c-33.61,0-27.68-14.22,11.64-31.07L-44.6-21.73C-10.93-36.15,39.23-47.42,68.65-47.42h78.41c29.42,0,30,11.27.19,25.69L61.5,19.78C26.7,36.63-29.92,50.85-63.54,50.85Z"/></g></g></g></g></svg>