<svg xmlns="http://www.w3.org/2000/svg" xmlns:xlink="http://www.w3.org/1999/xlink" width="1920" height="1077" viewBox="0 0 1920 1077"><defs><style>.cls-1{fill:none;}.cls-2{clip-path:url(#clip-path);}.cls-3{clip-path:url(#clip-path-2);}.cls-4{fill:#e3f2fd;}.cls-5{fill:#bbdefb;}.cls-6{fill:#a9d6e5;}.cls-7{clip-path:url(#clip-path-3);}.cls-8{clip-path:url(#clip-path-4);}.cls-9{clip-path:url(#clip-path-5);}.cls-10{clip-path:url(#clip-path-6);}.cls-11{fill:#ff4a78;opacity:0.25;}.cls-12{fill:#ababab;}.cls-13{fill:#c4c4c4;}.cls-14{fill:#e0e0e0;}.cls-15{fill:#8c8c8c;}.cls-16{fill:#f2f2f2;}.cls-17{fill:#348dc4;}.cls-18{fill:#115e8f;}.cls-19{fill:#fff;}.cls-20{fill:#e2e6ac;}.cls-21{fill:#f7facf;}.cls-22{fill:#68694e;}.cls-23{fill:#3b3b2b;}.cls-24{fill:#000255;}.cls-25{fill:#5c4200;}.cls-26{fill:#f4ad29;}.cls-27{fill:#f4af7a;}.cls-28{fill:url(#linear-gradient);}.cls-29{fill:#ff5f99;}.cls-30{fill:url(#linear-gradient-2);}.cls-31{fill:url(#linear-gradient-3);}.cls-32{fill:#7f4700;}.cls-33{fill:url(#linear-gradient-4);}.cls-34{fill:#c77814;}.cls-35{fill:#c7852e;}.cls-36{fill:url(#linear-gradient-5);}.cls-37{fill:#6e6e6e;}</style><clipPath id="clip-path"><rect class="cls-1" x="2050" y="-0.45" width="1920" height="1077"/></clipPath><clipPath id="clip-path-2"><rect class="cls-1" x="1767.61" y="-188.54" width="2840.73" height="789.8"/></clipPath><clipPath id="clip-path-3"><polygon class="cls-1" points="6117.37 1235.1 -58.89 1235.1 1608.67 601.58 4449.81 601.58 6117.37 1235.1"/></clipPath><clipPath id="clip-path-4"><rect class="cls-1" width="1920" height="1077"/></clipPath><clipPath id="clip-path-5"><rect class="cls-1" x="-282.39" y="-188.09" width="2840.73" height="789.8"/></clipPath><clipPath id="clip-path-6"><polygon class="cls-1" points="4067.37 1235.56 -2108.89 1235.56 -441.33 602.04 2399.81 602.04 4067.37 1235.56"/></clipPath><linearGradient id="linear-gradient" x1="1239.63" y1="738.42" x2="1243.87" y2="727.76" gradientUnits="userSpaceOnUse"><stop offset="0.44" stop-color="#ff7aab"/><stop offset="1" stop-color="#ff87b3"/></linearGradient><linearGradient id="linear-gradient-2" x1="1447.72" y1="459.13" x2="1450.24" y2="445.44" gradientUnits="userSpaceOnUse"><stop offset="0" stop-color="#ff5f99"/><stop offset="0.44" stop-color="#ff7aab"/><stop offset="1" stop-color="#ff87b3"/></linearGradient><linearGradient id="linear-gradient-3" x1="1499.18" y1="556.81" x2="1510.67" y2="566.19" xlink:href="#linear-gradient-2"/><linearGradient id="linear-gradient-4" x1="1420.01" y1="759.86" x2="1415.35" y2="752.8" xlink:href="#linear-gradient"/><linearGradient id="linear-gradient-5" x1="1314.27" y1="661.14" x2="1480.14" y2="780.94" gradientUnits="userSpaceOnUse"><stop offset="0" stop-color="#c4c4c4"/><stop offset="0.4" stop-color="#bbb"/><stop offset="0.46" stop-color="#b2b2b2"/><stop offset="0.54" stop-color="#ababab"/><stop offset="1" stop-color="#8c8c8c"/></linearGradient></defs><g id="Sad_Poop" data-name="Sad Poop"><g class="cls-2"><g class="cls-3"><rect class="cls-1" x="1767.61" y="-188.54" width="821.79" height="810.97"/><rect class="cls-4" x="1767.61" y="-188.54" width="821.79" height="810.97"/><path class="cls-5" d="M1870.69,589.35h-61.38c-23,0-41.7-18.43-41.7-41.15V487.62c0-22.72,18.67-41.15,41.7-41.15h61.38c23,0,41.7,18.43,41.7,41.15V548.2C1912.39,570.92,1893.72,589.35,1870.69,589.35Z"/><path class="cls-6" d="M1870.69,430.6h-61.38c-23,0-41.7-18.43-41.7-41.16V328.87c0-22.73,18.67-41.15,41.7-41.15h61.38c23,0,41.7,18.42,41.7,41.15v60.57C1912.39,412.17,1893.72,430.6,1870.69,430.6Z"/><path class="cls-5" d="M1870.69,271.84h-61.38c-23,0-41.7-18.42-41.7-41.15V170.12c0-22.73,18.67-41.16,41.7-41.16h61.38c23,0,41.7,18.43,41.7,41.16v60.57C1912.39,253.42,1893.72,271.84,1870.69,271.84Z"/><path class="cls-6" d="M1870.69,113.09h-61.38c-23,0-41.7-18.43-41.7-41.15V11.36c0-22.72,18.67-41.15,41.7-41.15h61.38c23,0,41.7,18.43,41.7,41.15V71.94C1912.39,94.66,1893.72,113.09,1870.69,113.09Z"/></g><g class="cls-7"><polygon class="cls-1" points="2430.58 601.58 3252.48 601.58 3530.3 1273.21 1685.55 1273.21 2430.58 601.58"/><polygon class="cls-4" points="2430.58 601.58 3252.48 601.58 3530.3 1273.21 1685.55 1273.21 2430.58 601.58"/><path class="cls-5" d="M1970.68,1214.7H1839.55c-49.21,0-55.59-30.2-16.59-65.35l92.9-83.76c31.27-28.19,88.37-49.91,129.08-49.91h108.49c40.71,0,55.45,21.72,31.74,49.91l-70.44,83.76C2085.17,1184.5,2019.88,1214.7,1970.68,1214.7Z"/><polygon class="cls-1" points="1608.67 601.58 2430.58 601.58 1685.55 1273.21 -159.2 1273.21 1608.67 601.58"/><polygon class="cls-4" points="1608.67 601.58 2430.58 601.58 1685.55 1273.21 -159.2 1273.21 1608.67 601.58"/><path class="cls-5" d="M1589.76,1214.7H1458.63c-49.2,0-45.6-30.2,5-65.35l120.58-83.76c40.59-28.19,104.85-49.91,145.56-49.91h108.5c40.7,0,48.27,21.72,15.24,49.91l-98.11,83.76C1714.24,1184.5,1639,1214.7,1589.76,1214.7Z"/><path class="cls-6" d="M1246.08,1214.7H1115c-49.2,0-36.6-30.2,24.49-65.35L1285,1065.59c49-28.19,119.74-49.91,160.44-49.91h108.5c40.71,0,41.79,21.72.36,49.91l-123.07,83.76C1379.56,1184.5,1295.28,1214.7,1246.08,1214.7Z"/><path class="cls-5" d="M902.4,1214.7H771.27c-49.21,0-27.59-30.2,44-65.35l170.52-83.76c57.4-28.19,134.62-49.91,175.33-49.91h108.49c40.71,0,35.32,21.72-14.51,49.91l-148,83.76C1044.89,1184.5,951.6,1214.7,902.4,1214.7Z"/><path class="cls-6" d="M558.72,1214.7H427.59c-49.21,0-18.59-30.2,63.45-65.35l195.49-83.76c65.81-28.19,149.5-49.91,190.21-49.91H985.23c40.71,0,28.85,21.72-29.39,49.91l-173,83.76C710.21,1184.5,607.92,1214.7,558.72,1214.7Z"/><path class="cls-5" d="M215,1214.7H83.9c-49.2,0-9.58-30.2,82.95-65.35l220.46-83.76c74.2-28.19,164.37-49.91,205.08-49.91H700.88c40.71,0,22.37,21.72-44.27,49.91l-198,83.76C375.53,1184.5,264.24,1214.7,215,1214.7Z"/><path class="cls-6" d="M1860.69,997.73H1754.24c-39.94,0-43.52-20-9.65-43.54L1826.92,897c28.23-19.61,77.85-34.84,112-34.84h91c34.16,0,44,15.23,21,34.84l-67,57.18C1956.45,977.72,1900.63,997.73,1860.69,997.73Z"/><path class="cls-5" d="M1581.69,997.73H1475.24c-39.94,0-37.55-20,3.34-43.54L1578,897c34.08-19.61,88.24-34.84,122.4-34.84h91c34.15,0,39.46,15.23,10.64,34.84l-84,57.18C1683.42,977.72,1621.64,997.73,1581.69,997.73Z"/><path class="cls-6" d="M1302.7,997.73H1196.25c-40,0-31.6-20,16.31-43.54L1329,897c39.92-19.61,98.63-34.84,132.78-34.84h91c34.16,0,34.92,15.23.26,34.84L1452,954.19C1410.38,977.72,1342.64,997.73,1302.7,997.73Z"/><path class="cls-5" d="M1023.7,997.73H917.25c-39.94,0-25.63-20,29.29-43.54L1080,897c45.77-19.61,109-34.84,143.17-34.84h91c34.16,0,30.38,15.23-10.13,34.84L1186,954.19C1137.35,977.72,1063.64,997.73,1023.7,997.73Z"/><path class="cls-6" d="M744.7,997.73H638.25c-39.94,0-19.66-20,42.27-43.54L831,897c51.61-19.61,119.4-34.84,153.56-34.84h91c34.16,0,25.83,15.23-20.52,34.84L919.94,954.19C864.32,977.72,784.65,997.73,744.7,997.73Z"/><path class="cls-6" d="M1811,849.49H1721.4c-33.62,0-36.16-14.21-6.89-31.06l72.14-41.51c25.07-14.42,68.51-25.7,97.93-25.7H1963c29.42,0,36.71,11.28,15.51,25.7l-61,41.51C1892.75,835.28,1844.6,849.49,1811,849.49Z"/><path class="cls-5" d="M1576.18,849.49h-89.59c-33.61,0-31.92-14.21,2.38-31.06l84.51-41.51c29.37-14.42,76.17-25.7,105.59-25.7h78.41c29.42,0,33.35,11.28,7.85,25.7L1692,818.43C1662.18,835.28,1609.8,849.49,1576.18,849.49Z"/><path class="cls-6" d="M1341.38,849.49h-89.59c-33.62,0-27.68-14.21,11.64-31.06l96.88-41.51c33.67-14.42,83.83-25.7,113.26-25.7H1552c29.42,0,30,11.28.19,25.7l-85.75,41.51C1431.62,835.28,1375,849.49,1341.38,849.49Z"/><path class="cls-5" d="M1106.57,849.49H1017c-33.61,0-23.44-14.21,20.91-31.06l109.26-41.51c38-14.42,91.49-25.7,120.91-25.7h78.41c29.42,0,26.62,11.28-7.47,25.7l-98.13,41.51C1201.05,835.28,1140.19,849.49,1106.57,849.49Z"/><path class="cls-5" d="M1977.57,741.8h-77.34c-29,0-34.08-10.62-12.09-23.28l54.73-31.5c19.21-11,55.24-19.73,81.08-19.73h68.86c25.84,0,34,8.68,17.79,19.73l-46.28,31.5C2045.72,731.18,2006.59,741.8,1977.57,741.8Z"/><path class="cls-6" d="M1774.87,741.8h-77.34c-29,0-30.91-10.62-5.15-23.28l64.13-31.5c22.5-11,61.11-19.73,87-19.73h68.87c25.84,0,31.44,8.68,11.91,19.73l-55.68,31.5C1846.19,731.18,1803.89,741.8,1774.87,741.8Z"/><path class="cls-5" d="M1572.18,741.8h-77.34c-29,0-27.76-10.62,1.78-23.28l73.52-31.5c25.8-11,67-19.73,92.84-19.73h68.86c25.84,0,28.86,8.68,6,19.73l-65.07,31.5C1646.66,731.18,1601.2,741.8,1572.18,741.8Z"/><path class="cls-6" d="M1369.48,741.8h-77.34c-29,0-24.59-10.62,8.72-23.28l82.91-31.5c29.1-11,72.88-19.73,98.72-19.73h68.87c25.84,0,26.27,8.68.14,19.73L1477,718.52C1447.13,731.18,1398.5,741.8,1369.48,741.8Z"/><path class="cls-5" d="M1925.76,660h-68c-25.53,0-29.46-8.24-9.4-18.09l50.32-24.71c17.79-8.74,50.48-15.63,73.52-15.63h61.39c23,0,29.54,6.89,14.09,15.63L2004,641.92C1986.54,651.77,1951.29,660,1925.76,660Z"/><path class="cls-6" d="M1747.45,660h-68c-25.53,0-27-8.24-4-18.09l57.69-24.71c20.39-8.74,55.14-15.63,78.17-15.63h61.39c23,0,27.49,6.89,9.43,15.63l-51,24.71C1810.68,651.77,1773,660,1747.45,660Z"/><path class="cls-5" d="M1569.13,660h-68c-25.53,0-24.55-8.24,1.38-18.09l65.06-24.71c23-8.74,59.8-15.63,82.84-15.63h61.39c23,0,25.43,6.89,4.77,15.63l-58.43,24.71C1634.83,651.77,1594.66,660,1569.13,660Z"/></g></g></g><g id="you_lose" data-name="you lose"><g class="cls-8"><g class="cls-9"><rect class="cls-1" x="1361.18" y="-188.09" width="821.79" height="810.97"/><rect class="cls-4" x="1361.18" y="-188.09" width="821.79" height="810.97"/><path class="cls-6" d="M1946.88,589.8H1885.5c-23,0-41.71-18.42-41.71-41.15V488.08c0-22.73,18.67-41.15,41.71-41.15h61.38c23,0,41.7,18.42,41.7,41.15v60.57C1988.58,571.38,1969.91,589.8,1946.88,589.8Z"/><path class="cls-5" d="M1786,589.8h-61.38c-23,0-41.7-18.42-41.7-41.15V488.08c0-22.73,18.67-41.15,41.7-41.15H1786c23,0,41.71,18.42,41.71,41.15v60.57C1827.71,571.38,1809,589.8,1786,589.8Z"/><path class="cls-6" d="M1625.13,589.8h-61.38c-23,0-41.7-18.42-41.7-41.15V488.08c0-22.73,18.67-41.15,41.7-41.15h61.38c23,0,41.71,18.42,41.71,41.15v60.57C1666.84,571.38,1648.16,589.8,1625.13,589.8Z"/><path class="cls-5" d="M1464.26,589.8h-61.38c-23,0-41.7-18.42-41.7-41.15V488.08c0-22.73,18.67-41.15,41.7-41.15h61.38c23,0,41.7,18.42,41.7,41.15v60.57C1506,571.38,1487.29,589.8,1464.26,589.8Z"/><path class="cls-5" d="M1946.88,431.05H1885.5c-23,0-41.71-18.42-41.71-41.15V329.33c0-22.73,18.67-41.16,41.71-41.16h61.38c23,0,41.7,18.43,41.7,41.16V389.9C1988.58,412.63,1969.91,431.05,1946.88,431.05Z"/><path class="cls-6" d="M1786,431.05h-61.38c-23,0-41.7-18.42-41.7-41.15V329.33c0-22.73,18.67-41.16,41.7-41.16H1786c23,0,41.71,18.43,41.71,41.16V389.9C1827.71,412.63,1809,431.05,1786,431.05Z"/><path class="cls-5" d="M1625.13,431.05h-61.38c-23,0-41.7-18.42-41.7-41.15V329.33c0-22.73,18.67-41.16,41.7-41.16h61.38c23,0,41.71,18.43,41.71,41.16V389.9C1666.84,412.63,1648.16,431.05,1625.13,431.05Z"/><path class="cls-6" d="M1464.26,431.05h-61.38c-23,0-41.7-18.42-41.7-41.15V329.33c0-22.73,18.67-41.16,41.7-41.16h61.38c23,0,41.7,18.43,41.7,41.16V389.9C1506,412.63,1487.29,431.05,1464.26,431.05Z"/><path class="cls-6" d="M1946.88,272.3H1885.5c-23,0-41.71-18.43-41.71-41.16V170.57c0-22.73,18.67-41.15,41.71-41.15h61.38c23,0,41.7,18.42,41.7,41.15v60.57C1988.58,253.87,1969.91,272.3,1946.88,272.3Z"/><path class="cls-5" d="M1786,272.3h-61.38c-23,0-41.7-18.43-41.7-41.16V170.57c0-22.73,18.67-41.15,41.7-41.15H1786c23,0,41.71,18.42,41.71,41.15v60.57C1827.71,253.87,1809,272.3,1786,272.3Z"/><path class="cls-6" d="M1625.13,272.3h-61.38c-23,0-41.7-18.43-41.7-41.16V170.57c0-22.73,18.67-41.15,41.7-41.15h61.38c23,0,41.71,18.42,41.71,41.15v60.57C1666.84,253.87,1648.16,272.3,1625.13,272.3Z"/><path class="cls-5" d="M1464.26,272.3h-61.38c-23,0-41.7-18.43-41.7-41.16V170.57c0-22.73,18.67-41.15,41.7-41.15h61.38c23,0,41.7,18.42,41.7,41.15v60.57C1506,253.87,1487.29,272.3,1464.26,272.3Z"/><path class="cls-5" d="M1946.88,113.54H1885.5c-23,0-41.71-18.42-41.71-41.15V11.82c0-22.73,18.67-41.16,41.71-41.16h61.38c23,0,41.7,18.43,41.7,41.16V72.39C1988.58,95.12,1969.91,113.54,1946.88,113.54Z"/><path class="cls-6" d="M1786,113.54h-61.38c-23,0-41.7-18.42-41.7-41.15V11.82c0-22.73,18.67-41.16,41.7-41.16H1786c23,0,41.71,18.43,41.71,41.16V72.39C1827.71,95.12,1809,113.54,1786,113.54Z"/><path class="cls-5" d="M1625.13,113.54h-61.38c-23,0-41.7-18.42-41.7-41.15V11.82c0-22.73,18.67-41.16,41.7-41.16h61.38c23,0,41.71,18.43,41.71,41.16V72.39C1666.84,95.12,1648.16,113.54,1625.13,113.54Z"/><path class="cls-6" d="M1464.26,113.54h-61.38c-23,0-41.7-18.42-41.7-41.15V11.82c0-22.73,18.67-41.16,41.7-41.16h61.38c23,0,41.7,18.43,41.7,41.16V72.39C1506,95.12,1487.29,113.54,1464.26,113.54Z"/><rect class="cls-1" x="539.39" y="-188.09" width="821.79" height="810.97"/><rect class="cls-4" x="539.39" y="-188.09" width="821.79" height="810.97"/><path class="cls-5" d="M1286,589.8h-61.38c-23,0-41.7-18.42-41.7-41.15V488.08c0-22.73,18.67-41.15,41.7-41.15H1286c23,0,41.7,18.42,41.7,41.15v60.57C1327.66,571.38,1309,589.8,1286,589.8Z"/><path class="cls-6" d="M1125.09,589.8h-61.38c-23,0-41.7-18.42-41.7-41.15V488.08c0-22.73,18.67-41.15,41.7-41.15h61.38c23,0,41.7,18.42,41.7,41.15v60.57C1166.79,571.38,1148.12,589.8,1125.09,589.8Z"/><path class="cls-5" d="M964.22,589.8H902.84c-23,0-41.7-18.42-41.7-41.15V488.08c0-22.73,18.67-41.15,41.7-41.15h61.38c23,0,41.7,18.42,41.7,41.15v60.57C1005.92,571.38,987.25,589.8,964.22,589.8Z"/><path class="cls-6" d="M803.35,589.8H742c-23,0-41.71-18.42-41.71-41.15V488.08c0-22.73,18.68-41.15,41.71-41.15h61.38c23,0,41.7,18.42,41.7,41.15v60.57C845.05,571.38,826.38,589.8,803.35,589.8Z"/><path class="cls-5" d="M642.47,589.8H581.09c-23,0-41.7-18.42-41.7-41.15V488.08c0-22.73,18.67-41.15,41.7-41.15h61.38c23,0,41.71,18.42,41.71,41.15v60.57C684.18,571.38,665.51,589.8,642.47,589.8Z"/><path class="cls-6" d="M1286,431.05h-61.38c-23,0-41.7-18.42-41.7-41.15V329.33c0-22.73,18.67-41.16,41.7-41.16H1286c23,0,41.7,18.43,41.7,41.16V389.9C1327.66,412.63,1309,431.05,1286,431.05Z"/><path class="cls-5" d="M1125.09,431.05h-61.38c-23,0-41.7-18.42-41.7-41.15V329.33c0-22.73,18.67-41.16,41.7-41.16h61.38c23,0,41.7,18.43,41.7,41.16V389.9C1166.79,412.63,1148.12,431.05,1125.09,431.05Z"/><path class="cls-6" d="M964.22,431.05H902.84c-23,0-41.7-18.42-41.7-41.15V329.33c0-22.73,18.67-41.16,41.7-41.16h61.38c23,0,41.7,18.43,41.7,41.16V389.9C1005.92,412.63,987.25,431.05,964.22,431.05Z"/><path class="cls-5" d="M803.35,431.05H742c-23,0-41.71-18.42-41.71-41.15V329.33c0-22.73,18.68-41.16,41.71-41.16h61.38c23,0,41.7,18.43,41.7,41.16V389.9C845.05,412.63,826.38,431.05,803.35,431.05Z"/><path class="cls-6" d="M642.47,431.05H581.09c-23,0-41.7-18.42-41.7-41.15V329.33c0-22.73,18.67-41.16,41.7-41.16h61.38c23,0,41.71,18.43,41.71,41.16V389.9C684.18,412.63,665.51,431.05,642.47,431.05Z"/><path class="cls-5" d="M1286,272.3h-61.38c-23,0-41.7-18.43-41.7-41.16V170.57c0-22.73,18.67-41.15,41.7-41.15H1286c23,0,41.7,18.42,41.7,41.15v60.57C1327.66,253.87,1309,272.3,1286,272.3Z"/><path class="cls-6" d="M1125.09,272.3h-61.38c-23,0-41.7-18.43-41.7-41.16V170.57c0-22.73,18.67-41.15,41.7-41.15h61.38c23,0,41.7,18.42,41.7,41.15v60.57C1166.79,253.87,1148.12,272.3,1125.09,272.3Z"/><path class="cls-5" d="M964.22,272.3H902.84c-23,0-41.7-18.43-41.7-41.16V170.57c0-22.73,18.67-41.15,41.7-41.15h61.38c23,0,41.7,18.42,41.7,41.15v60.57C1005.92,253.87,987.25,272.3,964.22,272.3Z"/><path class="cls-6" d="M803.35,272.3H742c-23,0-41.71-18.43-41.71-41.16V170.57c0-22.73,18.68-41.15,41.71-41.15h61.38c23,0,41.7,18.42,41.7,41.15v60.57C845.05,253.87,826.38,272.3,803.35,272.3Z"/><path class="cls-5" d="M642.47,272.3H581.09c-23,0-41.7-18.43-41.7-41.16V170.57c0-22.73,18.67-41.15,41.7-41.15h61.38c23,0,41.71,18.42,41.71,41.15v60.57C684.18,253.87,665.51,272.3,642.47,272.3Z"/><path class="cls-6" d="M1286,113.54h-61.38c-23,0-41.7-18.42-41.7-41.15V11.82c0-22.73,18.67-41.16,41.7-41.16H1286c23,0,41.7,18.43,41.7,41.16V72.39C1327.66,95.12,1309,113.54,1286,113.54Z"/><path class="cls-5" d="M1125.09,113.54h-61.38c-23,0-41.7-18.42-41.7-41.15V11.82c0-22.73,18.67-41.16,41.7-41.16h61.38c23,0,41.7,18.43,41.7,41.16V72.39C1166.79,95.12,1148.12,113.54,1125.09,113.54Z"/><path class="cls-6" d="M964.22,113.54H902.84c-23,0-41.7-18.42-41.7-41.15V11.82c0-22.73,18.67-41.16,41.7-41.16h61.38c23,0,41.7,18.43,41.7,41.16V72.39C1005.92,95.12,987.25,113.54,964.22,113.54Z"/><path class="cls-5" d="M803.35,113.54H742c-23,0-41.71-18.42-41.71-41.15V11.82c0-22.73,18.68-41.16,41.71-41.16h61.38c23,0,41.7,18.43,41.7,41.16V72.39C845.05,95.12,826.38,113.54,803.35,113.54Z"/><path class="cls-6" d="M642.47,113.54H581.09c-23,0-41.7-18.42-41.7-41.15V11.82c0-22.73,18.67-41.16,41.7-41.16h61.38c23,0,41.71,18.43,41.71,41.16V72.39C684.18,95.12,665.51,113.54,642.47,113.54Z"/><rect class="cls-1" x="-282.39" y="-188.09" width="821.79" height="810.97"/><rect class="cls-4" x="-282.39" y="-188.09" width="821.79" height="810.97"/><path class="cls-5" d="M464.18,589.8H402.8c-23,0-41.71-18.42-41.71-41.15V488.08c0-22.73,18.67-41.15,41.71-41.15h61.38c23,0,41.7,18.42,41.7,41.15v60.57C505.88,571.38,487.21,589.8,464.18,589.8Z"/><path class="cls-6" d="M303.3,589.8H241.92c-23,0-41.7-18.42-41.7-41.15V488.08c0-22.73,18.67-41.15,41.7-41.15H303.3c23,0,41.71,18.42,41.71,41.15v60.57C345,571.38,326.34,589.8,303.3,589.8Z"/><path class="cls-5" d="M142.43,589.8H81.05c-23,0-41.7-18.42-41.7-41.15V488.08c0-22.73,18.67-41.15,41.7-41.15h61.38c23,0,41.7,18.42,41.7,41.15v60.57C184.13,571.38,165.46,589.8,142.43,589.8Z"/><path class="cls-6" d="M-18.44,589.8H-79.82c-23,0-41.7-18.42-41.7-41.15V488.08c0-22.73,18.67-41.15,41.7-41.15h61.38c23,0,41.7,18.42,41.7,41.15v60.57C23.26,571.38,4.59,589.8-18.44,589.8Z"/><path class="cls-6" d="M464.18,431.05H402.8c-23,0-41.71-18.42-41.71-41.15V329.33c0-22.73,18.67-41.16,41.71-41.16h61.38c23,0,41.7,18.43,41.7,41.16V389.9C505.88,412.63,487.21,431.05,464.18,431.05Z"/><path class="cls-5" d="M303.3,431.05H241.92c-23,0-41.7-18.42-41.7-41.15V329.33c0-22.73,18.67-41.16,41.7-41.16H303.3c23,0,41.71,18.43,41.71,41.16V389.9C345,412.63,326.34,431.05,303.3,431.05Z"/><path class="cls-6" d="M142.43,431.05H81.05c-23,0-41.7-18.42-41.7-41.15V329.33c0-22.73,18.67-41.16,41.7-41.16h61.38c23,0,41.7,18.43,41.7,41.16V389.9C184.13,412.63,165.46,431.05,142.43,431.05Z"/><path class="cls-5" d="M-18.44,431.05H-79.82c-23,0-41.7-18.42-41.7-41.15V329.33c0-22.73,18.67-41.16,41.7-41.16h61.38c23,0,41.7,18.43,41.7,41.16V389.9C23.26,412.63,4.59,431.05-18.44,431.05Z"/><path class="cls-5" d="M464.18,272.3H402.8c-23,0-41.71-18.43-41.71-41.16V170.57c0-22.73,18.67-41.15,41.71-41.15h61.38c23,0,41.7,18.42,41.7,41.15v60.57C505.88,253.87,487.21,272.3,464.18,272.3Z"/><path class="cls-6" d="M303.3,272.3H241.92c-23,0-41.7-18.43-41.7-41.16V170.57c0-22.73,18.67-41.15,41.7-41.15H303.3c23,0,41.71,18.42,41.71,41.15v60.57C345,253.87,326.34,272.3,303.3,272.3Z"/><path class="cls-5" d="M142.43,272.3H81.05c-23,0-41.7-18.43-41.7-41.16V170.57c0-22.73,18.67-41.15,41.7-41.15h61.38c23,0,41.7,18.42,41.7,41.15v60.57C184.13,253.87,165.46,272.3,142.43,272.3Z"/><path class="cls-6" d="M-18.44,272.3H-79.82c-23,0-41.7-18.43-41.7-41.16V170.57c0-22.73,18.67-41.15,41.7-41.15h61.38c23,0,41.7,18.42,41.7,41.15v60.57C23.26,253.87,4.59,272.3-18.44,272.3Z"/><path class="cls-6" d="M464.18,113.54H402.8c-23,0-41.71-18.42-41.71-41.15V11.82c0-22.73,18.67-41.16,41.71-41.16h61.38c23,0,41.7,18.43,41.7,41.16V72.39C505.88,95.12,487.21,113.54,464.18,113.54Z"/><path class="cls-5" d="M303.3,113.54H241.92c-23,0-41.7-18.42-41.7-41.15V11.82c0-22.73,18.67-41.16,41.7-41.16H303.3c23,0,41.71,18.43,41.71,41.16V72.39C345,95.12,326.34,113.54,303.3,113.54Z"/><path class="cls-6" d="M142.43,113.54H81.05c-23,0-41.7-18.42-41.7-41.15V11.82c0-22.73,18.67-41.16,41.7-41.16h61.38c23,0,41.7,18.43,41.7,41.16V72.39C184.13,95.12,165.46,113.54,142.43,113.54Z"/><path class="cls-5" d="M-18.44,113.54H-79.82c-23,0-41.7-18.42-41.7-41.15V11.82c0-22.73,18.67-41.16,41.7-41.16h61.38c23,0,41.7,18.43,41.7,41.16V72.39C23.26,95.12,4.59,113.54-18.44,113.54Z"/></g><g class="cls-10"><polygon class="cls-1" points="1202.48 602.04 2024.39 602.04 3325.05 1273.67 1480.3 1273.67 1202.48 602.04"/><polygon class="cls-4" points="1202.48 602.04 2024.39 602.04 3325.05 1273.67 1480.3 1273.67 1202.48 602.04"/><path class="cls-6" d="M2020,1215.16H1888.87c-49.2,0-110.59-30.21-135.61-65.36l-59.61-83.75c-20.07-28.2-2.53-49.91,38.18-49.91h108.5c40.71,0,95,21.71,122.62,49.91L2045,1149.8C2079.49,1185,2069.21,1215.16,2020,1215.16Z"/><path class="cls-5" d="M1676.32,1215.16H1545.19c-49.2,0-101.59-30.21-116.13-65.36l-34.64-83.75c-11.66-28.2,12.36-49.91,53.07-49.91H1556c40.71,0,88.52,21.71,107.74,49.91l57.12,83.75C1744.81,1185,1725.53,1215.16,1676.32,1215.16Z"/><path class="cls-6" d="M2103.12,998.18H1996.67c-40,0-92.53-20-116.29-43.53l-57.75-57.18c-19.8-19.61-7.5-34.85,26.66-34.85h91c34.16,0,81.32,15.24,106.38,34.85l73.09,57.18C2149.87,978.18,2143.06,998.18,2103.12,998.18Z"/><path class="cls-5" d="M1824.12,998.18H1717.67c-39.94,0-86.56-20-103.31-43.53l-40.7-57.18c-14-19.61,2.89-34.85,37-34.85h91c34.15,0,76.77,15.24,96,34.85l56,57.18C1876.84,978.18,1864.06,998.18,1824.12,998.18Z"/><path class="cls-6" d="M1545.12,998.18H1438.67c-39.94,0-80.6-20-90.33-43.53l-23.65-57.18c-8.11-19.61,13.27-34.85,47.43-34.85h91c34.16,0,72.24,15.24,85.61,34.85l39,57.18C1603.8,978.18,1585.07,998.18,1545.12,998.18Z"/><path class="cls-6" d="M2159.9,850h-89.59c-33.62,0-79.46-14.22-101.5-31.07l-54.3-41.51c-18.86-14.42-9.76-25.69,19.66-25.69h78.42c29.42,0,71,11.27,93.78,25.69l65.43,41.51C2198.35,835.73,2193.51,850,2159.9,850Z"/><path class="cls-5" d="M1925.09,850h-89.58c-33.62,0-75.23-14.22-92.24-31.07l-41.92-41.51c-14.57-14.42-2.1-25.69,27.32-25.69h78.41c29.42,0,67.68,11.27,86.12,25.69l53.06,41.51C1967.79,835.73,1958.71,850,1925.09,850Z"/><path class="cls-6" d="M1690.29,850H1600.7c-33.61,0-71-14.22-83-31.07l-29.54-41.51c-10.27-14.42,5.56-25.69,35-25.69h78.41c29.42,0,64.32,11.27,78.46,25.69l40.68,41.51C1737.22,835.73,1723.91,850,1690.29,850Z"/><path class="cls-5" d="M1455.49,850H1365.9c-33.62,0-66.75-14.22-73.72-31.07L1275,777.37c-6-14.42,13.22-25.69,42.64-25.69h78.41c29.43,0,61,11.27,70.8,25.69l28.31,41.51C1506.66,835.73,1489.1,850,1455.49,850Z"/><path class="cls-5" d="M1998.46,742.25h-77.34c-29,0-66.44-10.62-83-23.27l-41.2-31.5c-14.46-11.06-4.86-19.73,21-19.73h68.86c25.84,0,60.46,8.67,77.89,19.73l49.65,31.5C2034.26,731.63,2027.47,742.25,1998.46,742.25Z"/><path class="cls-6" d="M1795.76,742.25h-77.34c-29,0-63.27-10.62-76.05-23.27l-31.81-31.5c-11.16-11.06,1-19.73,26.86-19.73h68.86c25.84,0,57.88,8.67,72,19.73l40.26,31.5C1834.73,731.63,1824.78,742.25,1795.76,742.25Z"/><path class="cls-5" d="M1593.06,742.25h-77.34c-29,0-60.1-10.62-69.11-23.27l-22.42-31.5c-7.86-11.06,6.91-19.73,32.75-19.73h68.86c25.84,0,55.29,8.67,66.12,19.73l30.87,31.5C1635.2,731.63,1622.08,742.25,1593.06,742.25Z"/><path class="cls-6" d="M1390.36,742.25H1313c-29,0-56.94-10.62-62.18-23.27l-13-31.5c-4.58-11.06,12.78-19.73,38.62-19.73h68.86c25.84,0,52.71,8.67,60.25,19.73L1427,719C1435.67,731.63,1419.38,742.25,1390.36,742.25Z"/><path class="cls-5" d="M2054.17,660.46h-68c-25.53,0-59.45-8.23-75.27-18.08l-39.7-24.72c-14-8.74-6.42-15.62,16.61-15.62h61.39c23,0,54.62,6.88,71,15.62l46.33,24.72C2085,652.23,2079.7,660.46,2054.17,660.46Z"/><path class="cls-6" d="M1875.85,660.46h-68c-25.53,0-57-8.23-69.88-18.08l-32.33-24.72c-11.44-8.74-1.77-15.62,21.27-15.62h61.39c23,0,52.56,6.88,66.33,15.62l39,24.72C1909.09,652.23,1901.38,660.46,1875.85,660.46Z"/><path class="cls-5" d="M1697.54,660.46h-68c-25.53,0-54.54-8.23-64.49-18.08l-25-24.72C1531.23,608.92,1543,602,1566,602h61.39c23,0,50.51,6.88,61.68,15.62l31.59,24.72C1733.24,652.23,1723.07,660.46,1697.54,660.46Z"/><path class="cls-6" d="M1519.22,660.46h-68c-25.53,0-52.09-8.23-59.1-18.08l-17.59-24.72c-6.22-8.74,7.55-15.62,30.59-15.62h61.39c23,0,48.45,6.88,57,15.62l24.22,24.72C1557.38,652.23,1544.75,660.46,1519.22,660.46Z"/><path class="cls-5" d="M1340.91,660.46h-68c-25.53,0-49.64-8.23-53.71-18.08L1209,617.66c-3.62-8.74,12.21-15.62,35.24-15.62h61.39c23,0,46.4,6.88,52.36,15.62l16.86,24.72C1381.52,652.23,1366.44,660.46,1340.91,660.46Z"/><polygon class="cls-1" points="380.58 602.04 1202.48 602.04 1480.3 1273.67 -364.45 1273.67 380.58 602.04"/><polygon class="cls-4" points="380.58 602.04 1202.48 602.04 1480.3 1273.67 -364.45 1273.67 380.58 602.04"/><path class="cls-5" d="M1295.41,1215.16H1164.28c-49.21,0-91.61-30.21-94.53-65.36l-7-83.75c-2.34-28.2,28.85-49.91,69.56-49.91h108.49c40.71,0,81.35,21.71,91.26,49.91l29.44,83.75C1373.88,1185,1344.61,1215.16,1295.41,1215.16Z"/><path class="cls-6" d="M951.73,1215.16H820.59c-49.2,0-82.6-30.21-75-65.36l18-83.75c6.06-28.2,43.72-49.91,84.43-49.91h108.5c40.7,0,74.87,21.71,76.37,49.91l4.48,83.75C1039.2,1185,1000.93,1215.16,951.73,1215.16Z"/><path class="cls-5" d="M608,1215.16H476.91c-49.2,0-73.59-30.21-55.56-65.36l43-83.75c14.46-28.2,58.6-49.91,99.31-49.91h108.5c40.71,0,68.39,21.71,61.49,49.91l-20.49,83.75C704.53,1185,657.25,1215.16,608,1215.16Z"/><path class="cls-6" d="M264.36,1215.16H133.23c-49.2,0-64.59-30.21-36.08-65.36l67.94-83.75c22.87-28.2,73.49-49.91,114.2-49.91H387.78c40.71,0,61.92,21.71,46.62,49.91l-45.47,83.75C369.85,1185,313.56,1215.16,264.36,1215.16Z"/><path class="cls-5" d="M-79.32,1215.16H-210.45c-49.21,0-55.59-30.21-16.59-65.36l92.9-83.75c31.27-28.2,88.37-49.91,129.08-49.91H103.43c40.71,0,55.45,21.71,31.74,49.91L64.73,1149.8C35.17,1185-30.12,1215.16-79.32,1215.16Z"/><path class="cls-6" d="M1235.9,998.18H1129.45c-39.94,0-74-20-76-43.53l-4.76-57.18c-1.63-19.61,24.79-34.85,59-34.85h91c34.16,0,67.2,15.24,74.1,34.85l20.1,57.18C1301.19,978.18,1275.84,998.18,1235.9,998.18Z"/><path class="cls-5" d="M956.9,998.18H850.45c-39.94,0-68-20-63-43.53l12.28-57.18c4.22-19.61,35.18-34.85,69.34-34.85h91c34.16,0,62.66,15.24,63.71,34.85l3.05,57.18C1028.16,978.18,996.85,998.18,956.9,998.18Z"/><path class="cls-6" d="M677.91,998.18H571.46c-40,0-62.06-20-50-43.53l29.33-57.18c10.06-19.61,45.57-34.85,79.73-34.85h91c34.15,0,58.12,15.24,53.32,34.85l-14,57.18C755.13,978.18,717.85,998.18,677.91,998.18Z"/><path class="cls-5" d="M398.91,998.18H292.46c-39.94,0-56.1-20-37-43.53l46.38-57.18c15.91-19.61,56-34.85,90.11-34.85h91c34.16,0,53.58,15.24,42.94,34.85l-31,57.18C482.09,978.18,438.85,998.18,398.91,998.18Z"/><path class="cls-6" d="M119.91,998.18H13.46c-39.94,0-50.13-20-24-43.53l63.43-57.18c21.75-19.61,66.34-34.85,100.5-34.85h91c34.16,0,49,15.24,32.55,34.85l-48.09,57.18C209.06,978.18,159.86,998.18,119.91,998.18Z"/><path class="cls-5" d="M1195.25,850h-89.59c-33.62,0-62.05-14.22-63.46-31.07l-3.45-41.51c-1.2-14.42,21.71-25.69,51.13-25.69h78.41c29.43,0,57.24,11.27,62.31,25.69l14.59,41.51C1251.12,835.73,1228.86,850,1195.25,850Z"/><path class="cls-6" d="M960.44,850H870.85c-33.61,0-57.81-14.22-54.19-31.07l8.92-41.51c3.1-14.42,29.38-25.69,58.8-25.69h78.41c29.42,0,53.87,11.27,54.64,25.69l2.22,41.51C1020.55,835.73,994.06,850,960.44,850Z"/><path class="cls-5" d="M725.64,850H636.05c-33.62,0-53.57-14.22-44.93-31.07l21.29-41.51c7.4-14.42,37-25.69,66.46-25.69h78.41c29.42,0,50.51,11.27,47,25.69l-10.16,41.51C790,835.73,759.25,850,725.64,850Z"/><path class="cls-6" d="M490.83,850H401.25c-33.62,0-49.34-14.22-35.67-31.07l33.67-41.51c11.7-14.42,44.69-25.69,74.11-25.69h78.41c29.43,0,47.16,11.27,39.33,25.69l-22.54,41.51C559.42,835.73,524.45,850,490.83,850Z"/><path class="cls-5" d="M256,850H166.44c-33.61,0-45.09-14.22-26.41-31.07l46.05-41.51c16-14.42,52.35-25.69,81.78-25.69h78.41c29.42,0,43.79,11.27,31.66,25.69L343,818.88C328.85,835.73,289.65,850,256,850Z"/><path class="cls-6" d="M1165.71,742.25h-77.34c-29,0-53.43-10.62-54.48-23.27l-2.62-31.5c-.92-11.06,19.3-19.73,45.14-19.73h68.87c25.84,0,49.83,8.67,53.72,19.73l11.07,31.5C1214.52,731.63,1194.73,742.25,1165.71,742.25Z"/><path class="cls-5" d="M963,742.25H885.67c-29,0-50.26-10.62-47.54-23.27l6.77-31.5c2.38-11.06,25.19-19.73,51-19.73h68.86c25.84,0,47.25,8.67,47.84,19.73l1.68,31.5C1015,731.63,992,742.25,963,742.25Z"/><path class="cls-6" d="M760.32,742.25H683c-29,0-47.1-10.62-40.61-23.27l16.16-31.5c5.67-11.06,31.07-19.73,56.91-19.73h68.87c25.84,0,44.66,8.67,42,19.73l-7.7,31.5C815.46,731.63,789.34,742.25,760.32,742.25Z"/><path class="cls-5" d="M557.62,742.25H480.28c-29,0-43.93-10.62-33.66-23.27l25.55-31.5c9-11.06,36.95-19.73,62.79-19.73h68.86c25.84,0,42.08,8.67,36.08,19.73L622.8,719C615.93,731.63,586.64,742.25,557.62,742.25Z"/><path class="cls-6" d="M354.92,742.25H277.58c-29,0-40.76-10.62-26.72-23.27l34.94-31.5c12.26-11.06,42.83-19.73,68.67-19.73h68.87c25.83,0,39.48,8.67,30.19,19.73L427,719C416.4,731.63,383.94,742.25,354.92,742.25Z"/><path class="cls-5" d="M1143.28,660.46h-68c-25.53,0-46.91-8.23-47.73-18.08l-2-24.72c-.73-8.74,17.37-15.62,40.41-15.62h61.38c23,0,44.13,6.88,47.21,15.62l8.68,24.72C1186.61,652.23,1168.81,660.46,1143.28,660.46Z"/><path class="cls-6" d="M965,660.46h-68c-25.53,0-44.45-8.23-42.34-18.08l5.31-24.72c1.88-8.74,22-15.62,45.07-15.62h61.39c23,0,42.08,6.88,42.54,15.62l1.32,24.72C1010.75,652.23,990.49,660.46,965,660.46Z"/><path class="cls-5" d="M786.65,660.46h-68c-25.53,0-42-8.23-37-18.08l12.68-24.72C698.83,608.92,721,602,744.07,602h61.39c23,0,40,6.88,37.89,15.62l-6.05,24.72C834.89,652.23,812.18,660.46,786.65,660.46Z"/><path class="cls-6" d="M608.34,660.46h-68c-25.53,0-39.54-8.23-31.55-18.08l20-24.72c7.09-8.74,31.34-15.62,54.38-15.62h61.39c23,0,38,6.88,33.23,15.62l-13.42,24.72C659,652.23,633.87,660.46,608.34,660.46Z"/><path class="cls-5" d="M430,660.46H362c-25.53,0-37.09-8.23-26.16-18.08l27.41-24.72c9.7-8.74,36-15.62,59-15.62h61.39c23,0,35.92,6.88,28.57,15.62l-20.78,24.72C483.17,652.23,455.55,660.46,430,660.46Z"/><polygon class="cls-1" points="-441.33 602.04 380.58 602.04 -364.45 1273.67 -2209.2 1273.67 -441.33 602.04"/><polygon class="cls-4" points="-441.33 602.04 380.58 602.04 -364.45 1273.67 -2209.2 1273.67 -441.33 602.04"/><path class="cls-6" d="M-189.31,998.18H-295.76c-39.94,0-43.52-20-9.65-43.53l82.33-57.18c28.23-19.61,77.85-34.85,112-34.85h91c34.16,0,44,15.24,21,34.85l-67,57.18C-93.55,978.18-149.37,998.18-189.31,998.18Z"/><path class="cls-5" d="M-4.21,850H-93.8c-33.62,0-40.4-14.22-16.14-31.07l59.76-41.51c20.76-14.42,60.84-25.69,90.27-25.69H118.5c29.42,0,40.06,11.27,23.17,25.69L93.05,818.88C73.31,835.73,29.41,850-4.21,850Z"/><path class="cls-6" d="M130.27,742.25H52.93c-29,0-37.25-10.62-19-23.27l45.35-31.5c15.91-11.06,49.35-19.73,75.19-19.73H223.3c25.84,0,36.62,8.67,23.67,19.73L210.08,719C195.25,731.63,159.29,742.25,130.27,742.25Z"/><path class="cls-5" d="M-72.43,742.25h-77.34c-29,0-34.08-10.62-12.09-23.27l54.73-31.5c19.21-11.06,55.24-19.73,81.08-19.73H42.81c25.84,0,34,8.67,17.79,19.73L14.32,719C-4.28,731.63-43.41,742.25-72.43,742.25Z"/><path class="cls-5" d="M232.39,660.46h-68c-25.53,0-34.37-8.23-20.19-18.08l35.59-24.72C192.34,608.92,220.92,602,244,602h61.39c23,0,33.64,6.88,23.4,15.62L299.8,642.38C288.26,652.23,257.92,660.46,232.39,660.46Z"/><path class="cls-6" d="M54.08,660.46H-14c-25.53,0-31.91-8.23-14.79-18.08l43-24.72C29.39,608.92,60,602,83.06,602h61.39c23,0,31.59,6.88,18.75,15.62l-36.32,24.72C112.4,652.23,79.61,660.46,54.08,660.46Z"/><path class="cls-5" d="M-124.24,660.46h-68c-25.53,0-29.46-8.23-9.4-18.08l50.32-24.72c17.79-8.74,50.48-15.62,73.52-15.62h61.39c23,0,29.54,6.88,14.09,15.62L-46,642.38C-63.46,652.23-98.71,660.46-124.24,660.46Z"/></g></g><rect class="cls-11" x="291.67" y="186.09" width="1341.08" height="716" rx="94.32"/><path class="cls-12" d="M1646.22,670.15h0c-.1.14,3,2.51,2.88,2.7-.28.47-21.35-11.32-31.6-17.37-35.93-21.23-115.76-76.66-171.51-115.86-16.69-31-25.06-68.09-29.09-102.17-10-84.29,2.86-141.24,50.85-210.92,90.73,66.27,181.92,126.07,281.75,177.79C1732.07,438.39,1652.57,668.68,1646.22,670.15Z"/><path class="cls-13" d="M1741.43,399.54c31.31-5.27,80.25-5,107.22-19.87,2.16-1.19,1.3-.67,2.72-.95s1.8,2,1.78,2.23c-.22,2.64.34,2.37-1.06,4.7C1806,462.15,1774.44,537.21,1757,625c-.08.38.15,0,0,.26-.76,1,.45,1.34-1.05,2.12-2,1,.9.58-2.74,1.53-33.9,8.89-69.44,19.86-100.63,36.5-2.27,1.21-4.69,4.39-5.7,1-.8-2.7-1.85,1.88.75-4.14C1684.51,576.6,1694.77,483.49,1741.43,399.54Z"/><path class="cls-14" d="M1721.73,289.52c19.17,12.05,138,77.07,135.63,92.81-.18,1.17-1.12,1.35-2.17,1.9-32.81,17.32-70,15-105.63,21.28a19.94,19.94,0,0,1-7.36.12,17.25,17.25,0,0,1-6.34-2.78,161.19,161.19,0,0,0-14.88-8.34,95.74,95.74,0,0,0,3.75-12c.91-3.77,1.36-6.76,2.25-12.74,0,0,1.27-8.56,1.66-15,.15-2.68.18-5.18.18-5.18,0-.68,0-1.27,0-2C1728.7,327.46,1725.51,308.87,1721.73,289.52Z"/><path class="cls-13" d="M1419.52,585.74c-14.42-8.29-28.77-10.3-38.32-11.63-7.26-1-25.7-3-51.52,2.81-19.14,4.28-78,17.44-87,54.82-3.68,15.27,2.38,28.7,3.58,31.24,9,19.07,28.61,26.4,38.24,30,55.45,20.72,168.57,4.13,177.26-41.31C1466.31,628,1442.15,598.75,1419.52,585.74Z"/><path class="cls-15" d="M1407,946.69c-49.75,2.19-102.42-7.19-136.62-46.88-3.44-4-8.49-12.28-11.25-17.27,3.54-16.74,7.78-33.08,11.69-49.63,18.91,6.64,38.83,11.86,58.61,14.27a290,290,0,0,0,76.3-1Q1406.18,896.42,1407,946.69Z"/><path class="cls-16" d="M1151.05,653.23c2.11,45.68,52.31,77.31,64.75,85.15,130.06,81.94,357.17,4.93,367.2-73.15,7.53-58.64-106.2-127-161.23-141.73-32-8.59-65.49-8.86-65.49-8.86s-28-.22-53.6,5.11C1246.6,531.41,1148,587.41,1151.05,653.23Z"/><path class="cls-12" d="M1682.7,701.31c31.07-19.88,54.4-46.06,73.54-77.09-38.51,13.13-76,28.25-113.24,44.37-18.86-8.74-38.25-16.54-56.49-26.53-2.92,0-5.42-.33-8.6-.07,12,33.37,8,71.27-3.64,103.64-12.26,34.23-54.22,62.17-80.25,74.89-38.13,18.63-52.62,18.49-89.5,26.21,3,32.76,1.16,66.71,2.49,99.89,68.83-18.84,134.81-45.93,195.93-83.41,8.5-5.22,19.16-12.45,27.93-18.85-9.53-34.7-12.63-95.24,14.48-120.86C1662,707.72,1667.37,711.12,1682.7,701.31Z"/><path class="cls-17" d="M1457.86,662.45c-31.1-8.33-62.22-12-94.16-6.87s-61.71,17.65-89.77,33.86a101,101,0,0,0,35.35,11,117.62,117.62,0,0,0,16.5.75c22.23-.25,33.35-.37,38.24-.75,15.45-1.22,28.44-2.24,45-7.5,27-8.6,39.89-21,42.78-23.83A84.68,84.68,0,0,0,1457.86,662.45Z"/><path class="cls-18" d="M1445,675a245.84,245.84,0,0,1-37.94-.56c-5.67-.53-42.36-3.95-47.5,1.59a3.74,3.74,0,0,0-1.27,2.6c.1,3.36,3.45,5.15,3.46,7.42,0,4.24-13.42,7.5-14.23,7.7a354.21,354.21,0,0,1-38.25,6.75c35.34,1.83,60.4-.35,75-2.25A136.15,136.15,0,0,0,1409,693,130.93,130.93,0,0,0,1445,675Z"/><circle class="cls-19" cx="1533.21" cy="328.09" r="3"/><circle class="cls-19" cx="1621.21" cy="352.09" r="3"/><path class="cls-20" d="M603.32,142.75c47.59-14.85,78.2-13.49,97.85-8.9a305.81,305.81,0,0,0,33.15,6.47,290.32,290.32,0,0,0,50.14,2.43V356.24a148.93,148.93,0,0,1-17.79-.81c-15.95-1.69-23.41-5.12-32.35-6.47s-22.16-1-39.62,7.28Z"/><path class="cls-21" d="M694.7,356.24a74.55,74.55,0,0,1-22.65,26.69c-5,3.59-17.64,11.55-69.54,12.13-63.15.7-79.56-10.71-87.34-17.79a65,65,0,0,1-8.09-8.9c-3.81-27.6-6.75-57.9-8.08-90.57a943.61,943.61,0,0,1,1.61-105.94,200.46,200.46,0,0,0,89,25.07A201.41,201.41,0,0,0,694.7,171.86Z"/><path class="cls-19" d="M694.7,171.86c-.37,13.35-51.13,23.62-87.34,25.07-48.91,2-106.37-10.75-106.75-25.07-.34-13.16,47.49-27.29,87.34-29.11C639.43,140.39,695.08,157.78,694.7,171.86Z"/><ellipse class="cls-22" cx="600.08" cy="171.86" rx="32.35" ry="12.94"/><path class="cls-23" d="M569.35,171.86c0,2.7,2.6,4.71,4.85,6.47a21.9,21.9,0,0,0,9.71,4c5.42,1.13,11.2.88,11.32,0,.19-1.35-13.31-1.94-14.56-7.28-1.17-5,9.39-10.59,8.09-12.93-.88-1.58-6.22-.09-8.9.8C578.85,163.3,569.28,166.61,569.35,171.86Z"/><path class="cls-21" d="M533.77,171.05c.13,5.72,8.72,9.73,12.13,11.32,17.56,8.21,45.32,7.48,53.37,8.09.72,0,2.29.2,2.43.81s-1.18,1.36-1.62,1.62c-4.26,2.47-85.29-.75-85.72-20.22-.42-19,76.57-26,78.44-25.07.81.41.81.81.81.81,0,.4-.59.7-.81.81-2.19,1.11-31.24,2.18-46.9,9.7C543.63,160,533.63,164.82,533.77,171.05Z"/><path class="cls-20" d="M1283.44,142.75c-47.59-14.85-78.2-13.49-97.85-8.9a306.18,306.18,0,0,1-33.16,6.47,290.21,290.21,0,0,1-50.13,2.43V356.24a148.93,148.93,0,0,0,17.79-.81c15.94-1.69,23.4-5.12,32.34-6.47s22.17-1,39.63,7.28Z"/><path class="cls-21" d="M1192.06,356.24a74.5,74.5,0,0,0,22.64,26.69c5,3.59,17.64,11.55,69.55,12.13,63.15.7,79.56-10.71,87.34-17.79a64.1,64.1,0,0,0,8.08-8.9c3.81-27.6,6.75-57.9,8.09-90.57a943.47,943.47,0,0,0-1.62-105.94,200.4,200.4,0,0,1-89,25.07,201.38,201.38,0,0,1-105.13-25.07Z"/><path class="cls-19" d="M1192.06,171.86c.36,13.35,51.13,23.62,87.34,25.07,48.91,2,106.37-10.75,106.74-25.07.35-13.16-47.48-27.29-87.33-29.11C1247.32,140.39,1191.67,157.78,1192.06,171.86Z"/><ellipse class="cls-22" cx="1286.68" cy="171.86" rx="32.35" ry="12.94"/><path class="cls-23" d="M1317.41,171.86c0,2.7-2.6,4.71-4.86,6.47a21.82,21.82,0,0,1-9.7,4c-5.42,1.13-11.2.88-11.32,0-.19-1.35,13.3-1.94,14.55-7.28,1.18-5-9.39-10.59-8.08-12.93.87-1.58,6.21-.09,8.89.8C1307.91,163.3,1317.47,166.61,1317.41,171.86Z"/><path class="cls-21" d="M1353,171.05c-.13,5.72-8.73,9.73-12.13,11.32-17.56,8.21-45.32,7.48-53.38,8.09-.72,0-2.29.2-2.42.81s1.17,1.36,1.62,1.62c4.26,2.47,85.28-.75,85.72-20.22.42-19-76.57-26-78.45-25.07-.81.41-.81.81-.81.81,0,.4.6.7.81.81,2.2,1.11,31.25,2.18,46.91,9.7C1343.12,160,1353.13,164.82,1353,171.05Z"/><path class="cls-20" d="M1102.1,356.68a1304.71,1304.71,0,0,1-157.69,9.7,1303.91,1303.91,0,0,1-160.12-9.7V143.19A983.12,983.12,0,0,0,946,156.13a982.74,982.74,0,0,0,156.08-12.94Z"/><path class="cls-24" d="M777.12,248.38,760,272.1v16.83a7.58,7.58,0,1,1-15.16,0V272.1l-17.19-23.63a7.16,7.16,0,0,1-1.85-4.85,7.45,7.45,0,0,1,7.4-7.4,7.54,7.54,0,0,1,6,3.08l13.22,19.57,13.13-19.57a7.54,7.54,0,0,1,6-3.08,7.37,7.37,0,0,1,7.31,7.4A7.28,7.28,0,0,1,777.12,248.38Z"/><path class="cls-24" d="M811.41,236c18,0,31.38,12.52,31.38,30.41s-13.4,30.41-31.38,30.41-31.47-12.51-31.47-30.41S793.43,236,811.41,236Zm0,13.4c-9.78,0-16,7.41-16,17s6.26,17,16,17,16-7.5,16-17S821.11,249.44,811.41,249.44Z"/><path class="cls-24" d="M850.46,243.89a7.71,7.71,0,0,1,15.42,0v27.59c0,7,3.71,12,11.9,12s11.82-5,11.82-12V243.89a7.71,7.71,0,0,1,15.42,0v28c0,14.63-8.37,24.94-27.24,24.94s-27.32-10.4-27.32-24.85Z"/><path class="cls-24" d="M938.16,287.79v-43.9a7.58,7.58,0,1,1,15.16,0v38.7H971a6.61,6.61,0,0,1,0,13.22H946.18C941,295.81,938.16,293,938.16,287.79Z"/><path class="cls-24" d="M1011.15,236c18,0,31.38,12.52,31.38,30.41s-13.4,30.41-31.38,30.41-31.47-12.51-31.47-30.41S993.17,236,1011.15,236Zm0,13.4c-9.79,0-16,7.41-16,17s6.25,17,16,17,15.95-7.5,15.95-17S1020.85,249.44,1011.15,249.44Z"/><path class="cls-24" d="M1047.9,285.58a7,7,0,0,1,6.88-7,6.48,6.48,0,0,1,3.7,1.06,26.29,26.29,0,0,0,14.28,4.23c5.2,0,8.38-2.21,8.38-5,0-3.35-3.79-4.67-10.05-6-9.7-1.94-23.27-4.41-23.27-18.34,0-9.87,8.37-18.42,24.33-18.42a40,40,0,0,1,18.24,4.23,6.84,6.84,0,0,1-3.08,13,8.07,8.07,0,0,1-3.26-.79c-4.85-2.3-9.17-3.44-12.87-3.44-5.91,0-7.85,2-7.85,4.58,0,3.09,3.62,4.15,10.14,5.38,9.69,2,23.09,4.85,23.09,18.16,0,11.81-8.72,19.65-24.5,19.65-8.64,0-15.25-1.93-20.81-5.37A6.84,6.84,0,0,1,1047.9,285.58Z"/><path class="cls-24" d="M1116.39,288.93v-38.7h-10.66a6.61,6.61,0,0,1,0-13.22h36.32a6.61,6.61,0,1,1,0,13.22h-10.49v38.7a7.59,7.59,0,1,1-15.17,0Z"/><path class="cls-24" d="M1161.7,280.29a8.25,8.25,0,1,1,0,16.49,8.25,8.25,0,0,1,0-16.49Zm-6.35-10.22-1.41-25.74a7.72,7.72,0,1,1,15.43,0l-1.32,25.74a6.36,6.36,0,0,1-12.7,0Z"/><path class="cls-16" d="M1730,315c-1.68-20.75-5.36-66.36-38.77-107.69s-92-72.61-150.43-63.7a114.08,114.08,0,0,0-29,7.91c-103,43.76-96.34,223.83-92.92,240.93h0c1.44,15.73,3.62,28.07,5.13,36.11,1.87,9.95,5,22.9,13.22,48.53,4.83,15.08,11.54,34.47,20.57,56.89a235.17,235.17,0,0,1,122.45,102.83c26.78-30.75,44.38-50.54,60.91-74.53a531,531,0,0,0,44.76-79.47C1713.06,423.52,1734.9,375.87,1730,315Z"/><path class="cls-25" d="M1505.29,611c0-3.65,3.87-8,4.84-11.35.5-1.72.35-5.63,2-5.93,2.73-.47,4.88,5,5.94,6.78,1.83,3.12,4.09,7,4,10.41-.2,4.7-1.92,10.7-7,11.32C1509.43,622.94,1505.24,616.23,1505.29,611Z"/><path class="cls-26" d="M1274.55,756.6c26-8.11,36.7-49.39,18.33-68.71-12.19-12.82-24.67-7.72-40.07-5.45-11.25,1.66-27.62,5.56-33.51,17.8-2.44,5.06-1.19,10,1,18.22.18.65,2.45,10.67,8.57,17.3C1237.26,744.81,1256.05,762.37,1274.55,756.6Z"/><path class="cls-26" d="M1449.51,738c2.3-11.34-8.31-23.7-13.54-29.89-7.42-8.79-13.6-11.46-21.7-15.21-15.35-7.11-31.88-6.15-45.55-.74-9.4,3.72-13.46,17.41-14.32,21.85-5.28,27.4,13.69,55.09,35.58,62.5,16.14,5.46,29-2.41,38.45-8C1442.73,760.06,1446.76,751.55,1449.51,738Z"/><path class="cls-26" d="M1447.17,628.7c.43-4.64-3.22-10.77-4.67-13.73-1-2-6.37-4.18-4.18-5.17,4.45-2,14.6,5.74,17.93,10.32.73,1,2.64,3.29,4.23,5.84a100.19,100.19,0,0,1,5.49,9.4c3.28,7,7.4,14.94,5,23.24a16,16,0,0,1-3.86,5.89c-9.57,4.24-19.23,7.49-29.11,11.08a69,69,0,0,0,4.52-7.51,64.45,64.45,0,0,0,4.46-10.78c.75-2.79,2.35-8.95,2-13.85C1448.73,640.11,1448.47,632.66,1447.17,628.7Z"/><path class="cls-26" d="M1341.31,538.81c-5.89,1-42.88,9.72-59.64,16.57-5.15,2.11-30.51,12.89-37.17,21.91-1.12,1.52-6.4,7.69-6.79,10.62-.42,3.25.24,9.16,1,10.9,3.53,7.9,6.08,16.36,9.38,22.51,1.39,2.6,2.27,6.61,4.25,5.8,3.94-1.6,3-11.4,5.1-16.25a109.67,109.67,0,0,1,5.75-11.82,180.91,180.91,0,0,1,20.56-27.94c5.75-5.07,13.19-10.36,18.6-15.27,2.5-2.28,11.07-6,11.91-7.2C1317,544.82,1347.19,537.8,1341.31,538.81Z"/><path class="cls-27" d="M1523.71,472.25c.71.16,4.33.93,3.81,2-1.55,3.18-8.87,3.49-12.13,6a22.74,22.74,0,0,0-5.93,7.67c-4.58-5.67-9.64-11.22-15.72-15.21a75.39,75.39,0,0,0-29.13-11.27c4.49-.37,7.44-1,12.23-.38,10.91,1.32,20,6,31.48,9A101.74,101.74,0,0,0,1523.71,472.25Z"/><path class="cls-27" d="M1507.51,485a47.72,47.72,0,0,0,11.73,8.08c5.87,2.64,11.29,4.44,16.73,7.22,2.2,1.12,5.57,2.51,5.71,5,.07,1.33-1.3,1.41-2,2a19,19,0,0,0-15.87.9c-1.92,1-3.7,3.08-5,4.86a76,76,0,0,0-4.64-16A76.93,76.93,0,0,0,1507.51,485Z"/><path class="cls-26" d="M1449.72,637.8c2,27.67-23.86,53-31.58,59.32-31.25,25.41-44.54,28.92-77.74,30.33-29,1.24-59.28-1.3-78.22-32.34-14.73-24.13-19.73-46.22-6.23-77.6,7.52-17.5,8.15-28.86,31.86-49.78,7.73-6.82,34.71-30.16,63.34-30.38C1393.05,537,1446.72,596.17,1449.72,637.8Z"/><path class="cls-26" d="M1503.6,481.62c-21.74-23.14-49.12-21.24-73.27-21.11-18.27.09-30.84,4.08-43.82,9.47-23.75,9.86-33,33.66-38.45,52.93-8.32,29.5-1.83,53.48,14.5,73.33,14.68,17.82,55.52,17.4,64.74,16.23,35-4.43,47.57-36.4,66.31-52.37,13.45-11.46,22.62-33.5,24.7-40.74C1523,503,1506.15,484.33,1503.6,481.62Z"/><path d="M1470.71,521.43c.82-2-.17-3.75-1.42-5-3.76-3.88-10.54-2.38-14.44-.46-4.58,2.26-9.61,7.38-7.95,12,1.22,3.35,5.58,2.45,8.14,2.12s5.18-3.17,7.37-4.21C1464.9,524.63,1469.68,523.86,1470.71,521.43Z"/><path d="M1482.5,543.13c.86-2.62-3.24-5-3.52-5.09-4.21-1.67-5.28-1.5-9.45-.19-3.13,1-7,3.1-8.84,7.16-.41.88-2.81,4.68-.64,6.56,3.26,2.84,11.09-1.21,14.41-2.53S1481.65,545.74,1482.5,543.13Z"/><path class="cls-28" d="M1258.57,751c-5.78,3.58-17.4-10.59-20.36-14.09-4-4.68-17.57-17.19-13.29-23.21,1.87-2.61,13.94,8.22,17.35,10.32,3.18,2,12.66,9.31,14.26,12.92C1258.45,741.25,1262.59,748.5,1258.57,751Z"/><path class="cls-29" d="M1246.72,711.83a3.44,3.44,0,0,1-2.25,2.91c-2.91.93-6.7-1-6.73-4.13,0-1.7,2-2.59,3.21-2.91a4.53,4.53,0,0,1,4,1.06A3.57,3.57,0,0,1,1246.72,711.83Z"/><path class="cls-29" d="M1260.22,724.34c-.29,2.67-3.22,4.15-5.84,3.78s-4.94-3.4-4.22-6a4.43,4.43,0,0,1,3.91-2.91C1257.23,718.92,1260.58,721.11,1260.22,724.34Z"/><path class="cls-29" d="M1275.05,738.89c-.09-2.95-3.92-3.66-6.61-3.15-.28.06-2.69,1-2.89,2.46s1.1,3.94,2.68,4.43C1271,743.49,1275.14,741.84,1275.05,738.89Z"/><path class="cls-26" d="M1468.68,462.49c-7.26,2.7-17.27-.84-23.89-2.07-7.42-1.38-19.72,6.38-25.28-.36-10.36-12.57-2.22-35.21,13-44.21a31.16,31.16,0,0,1,33.72,1.34c2.18,1.51,13.52,11.52,13.14,20.41C1479.06,444.42,1478.11,459,1468.68,462.49Z"/><path class="cls-26" d="M1484.94,571c-.45-2.63,5-7.86,6-8.8,2.72-2.84,12.29-14,12.72-14.4,5-4.82,6.1-16.12,12.08-16.27,9.28-.24,14.26,8.18,17.48,18.71.82,2.67,2.92,14.61-2.28,21.39-6.47,8.44-20.1,16.71-32.52,12.34C1491.39,581.51,1486.17,578.18,1484.94,571Z"/><path class="cls-30" d="M1454.64,461.85c-2.42,1.26-4.77-1.15-7.06-1.21-1.84,0-4.46.66-6-.41a7.48,7.48,0,0,1-2.63-8.14c1.42-4.95,4.71-7.84,10.6-8.39,1-.09,5,.27,6.69,2.44C1459.21,450.15,1460.06,459,1454.64,461.85Z"/><path class="cls-31" d="M1490.1,564.31c.43,6.37,5.42,10.36,11.43,10.45,7.1.12,12.5-6,14.1-12.77,1.35-5.62.62-11.22-4.64-15a7,7,0,0,0-5-.89c-3.07.64-8,7.11-9.81,9.76C1494.49,558.23,1489.94,561.91,1490.1,564.31Z"/><path class="cls-32" d="M1438,536.71c12.33,18.75,14.3,35.78,2.79,54-6.51,10.35-18.83,15.49-31.46,13.42-1.86-.3-6.37-1.66-8-5-2.78-5.63,2.07-16,2.73-22.93.32-3.29-2.36-10.33,1.78-13.08,1.34-.9,5.28-2.09,8.08-3,.12,0,6-2.2,6.95-3.19.17-.17,2.53-1.26,1.82-2.16a1.81,1.81,0,0,0-1.26-.92s2.06-.24-.77,0-12.75,7.1-18.11,5.35c-1.32-.43-2.11-2.4-2.58-3.11-4.7-7.17-14.57-15.86-16.87-22.64-1.45-4.27,1.74-9.17,2.27-9.79,9.74-11.48,27.67-3.64,36.73.08C1428.94,526.66,1436.08,533.81,1438,536.71Z"/><path class="cls-25" d="M1265.87,680.49c-3.17-2.65-14.63.88-21,3.42-3.37,1.33-17,3.86-21.21,9.31-.22.28-5.82,4.94-4.55,6.66.66.89,2.71.13,3.22,0,7.64-1.37,23.14,4.26,27.47.46,2.18-1.91-.86-5.16,1.32-7.46,3.88-4.09,11.58,1.92,15.45-2.58C1268.56,688,1269.75,683.73,1265.87,680.49Z"/><path class="cls-25" d="M1419.3,460.79c-14.84,3-28.17,6.69-41.07,15a68.15,68.15,0,0,0-23.93,27c1.32,3.08,7.63,8.28,10.24,7.61,10.55-2.71,10.69-17.15,20.68-18.49,5.33-.72,7,5.54,11.48,4.29,6.53-1.83,5-12.05,11.06-13.33,4.44-.94,7.06,4.83,11.2,3.9,2.71-.61,3.89-3.9,4.27-5.5C1425.14,473.22,1423.11,467.59,1419.3,460.79Z"/><path class="cls-25" d="M1356.75,590.47c-3.84-5.88-7.67-11.86-9.61-18.48-3.38-11.56-3.7-22.06-1.75-33.81a123.42,123.42,0,0,0-46.82,21.75,107.15,107.15,0,0,0-25.52,28.45c4.89.18,15.21,4.53,15.64,9,1.41,14.74-13.27,19.89-11.08,35.29.15,1,2.4,5.61,5,7,3.47,1.82,9.11-2.49,12.11.67,5.07,5.32-3.48,17.22,3.06,23.27,4.6,4.25,15.47,2.61,18.06-3.54,4.44-10.59-11.83-23.92-4.78-33.62,4.29-5.91,12.79.57,18-5.4,4.45-5.12.61-10,4.55-17.84C1336.17,598,1349.14,590.76,1356.75,590.47Z"/><path class="cls-25" d="M1280.57,556.92c-5.53-2.88-16.64,5.8-21.6,8.9-4.57,2.86-17,8.53-16.89,14.56.05,3,2.31,3.35,4.59,3.22,2.69-.16,3.53-2.46,6.72-5.17.95-.81,8.76-5.68,11.93-5.52,2.49.13,7.07,1.7,8.92.05,2.2-2,.68-6,2.85-7.92,1.34-1.14,3.25.16,4.15-1.19C1282.42,562.08,1283.87,558.65,1280.57,556.92Z"/><path class="cls-25" d="M1417.26,709.73c.92-.54.72-2.13.17-2.9-.86-1.23-3.31-.82-4.07-2.17-.31-.53-.78-1.54.19-1.93,3.55-1.47,8.44,4.1,12,2.23,1.18-.62,2.16-1.33,1.18-3-9.41-15.91-49.09-11.86-61.6-1.57-7.69,6.32-10.15,24.6-4.64,31.11,2.1,2.48,1.63.54,2.34.45,1.91-.24.86-2.83,2.43-3.81.19-.12,1.23-1.31,2.09-.83s1.11,2.38,2.11,3a2.12,2.12,0,0,0,2.11.05c5.53-3.7,6.08-13.6,11.22-18.61,2.53-2.47,9.41-3.41,11.68-3.57C1400.74,707.72,1413.82,711.76,1417.26,709.73Z"/><path d="M1423.64,555.2c-3.57-8.4,5.66-19.49,13.7-18.85,5.47.44,7.52,5.23,9.26,9.29s4.35,8.88.64,13.28C1441.93,565.21,1427.21,563.59,1423.64,555.2Z"/><path class="cls-33" d="M1435,752.08c.09-.53,1.4-4.32-.92-5.83-4-2.59-9.77-1.53-14.95.73s-11,5-14.43,10.71c-1,1.65-6.49,6.72-2.88,9.71s17.23-3.68,22.22-6.5C1426.69,759.41,1434.17,757.34,1435,752.08Z"/><path class="cls-29" d="M1391.63,751.53c.51,1.14-.24,2.46-.64,3.51s-1,2.6-2,2.93a3.3,3.3,0,0,1-4-1.65,4.94,4.94,0,0,1,3.54-6.77A3.05,3.05,0,0,1,1391.63,751.53Z"/><path class="cls-29" d="M1410.56,739c0,.46-1.75,1.44-2.19,1.76s-2.74,1.75-3.21,1.68c-1.61-.26-2.7-.83-3-2.31-.49-2.54,2.23-4.6,4.57-4.5C1408.6,735.67,1410.58,736.83,1410.56,739Z"/><path class="cls-29" d="M1431.63,735.08c-.78.75-2.25.28-3.17.34-1.14.07-3.14.65-4.07.07s-1.76-1.23-1.46-2.42c.57-2.3,3.35-3.08,5.87-2.7a4.36,4.36,0,0,1,2.59,1.65C1431.71,732.7,1432.41,734.33,1431.63,735.08Z"/><path class="cls-34" d="M1248.8,622a126.61,126.61,0,0,1,7.52-13.59c1.56-2.45,4.91-9.09,6.31-8.6s-2.43,5.23-3.39,8c-.55,1.59-3.72,9.35-4.61,12.65-.4,1.45-1.72,5.17-2.19,6.89a9.76,9.76,0,0,1-1.85-2A12.52,12.52,0,0,1,1248.8,622Z"/><path class="cls-34" d="M1438,675.31c2.5-2.86,5.59-9.68,7.06-12.48,3.06-5.82,1.65-18.9,3.74-19.92s2.2,8.83,1.53,12.38c-.8,4.26-4,13.81-7.51,18.15A35.05,35.05,0,0,1,1438,675.31Z"/><path class="cls-35" d="M1306.71,719.86c2.73,3.28,16.61,3.14,17.9,3.13,7.39-.06,14.6,2.24,19.31-1.55,2.52-2,1.53-4.21,3.43-7.09,1.1-1.66,2.09-4.59,4.29-6.82,1.73-1.77,5.73-4.76,8.6-5.48-1.89,1.78-4.49,6.57-5.25,8.49a31.34,31.34,0,0,0-2,9.93,56.83,56.83,0,0,0,.18,6.32,213.45,213.45,0,0,1-22.35,1.29,138.1,138.1,0,0,1-30.58-3.46c.28-1.89-1-6.34-1.11-7.82-.32-4.23-8.34-12.54-6.75-14.46s9.5,8.84,10.38,11.5A26.47,26.47,0,0,0,1306.71,719.86Z"/><path class="cls-25" d="M1237.18,646.81c1.45-3.35-.29-8.9.18-12.34.24-1.77,2-5.29.52-6.25-2.3-1.54-6.47,2.57-8.17,3.79-2.94,2.11-6.59,4.78-7.83,7.92-1.73,4.37-2.59,10.55,1.78,13.17C1228.56,656,1235.11,651.6,1237.18,646.81Z"/><path class="cls-36" d="M1592,641.23a204,204,0,0,1-8,81.15c-2.66,8.54-7,22.65-16.78,38.09-19.81,31.36-46.74,47.1-61.49,55.49-42,23.91-111.57,44.32-190.74,28.85-42.52-8.31-106.62-20.74-140-76.84-21-35.36-20.52-72.37-18.75-91.49a203.82,203.82,0,0,0,51.49,54.42c116,83.38,324.83,36.18,376-67.92A124.75,124.75,0,0,0,1592,641.23Z"/><path class="cls-37" d="M1642.85,668.42c-6.19,4.73-13,9.45-20.66,10.91a39.17,39.17,0,0,1-13.58,1,33.88,33.88,0,0,1-25.31-16.89,109,109,0,0,0-5-21,110.14,110.14,0,0,0-12.53-25.25C1578.1,625.83,1590.83,634.55,1642.85,668.42Z"/><path class="cls-16" d="M1485.3,722.91c-.27,15-9.4,25.7-13,29.5a320.31,320.31,0,0,1-257-14l-32-42,63-33a125.41,125.41,0,0,0,38,30c52.83,26.81,109.12,5.9,125,0a186.83,186.83,0,0,0,36-18C1469.68,682.78,1485.67,702.64,1485.3,722.91Z"/><path d="M1476.16,416.54c-1.37-1.22,22.44-45.64,56.5-47.7,46.6-2.82,65.49,76.48,64.11,77.29s-25-66.64-65.36-66.37C1501.28,380,1477.45,417.7,1476.16,416.54Z"/><path d="M1536.4,328.06c11.28-10.2,9.49-34.83-3.59-41.71-9.61-5.05-22,1.19-28.51,7.06-7.19,6.54-14.37,19.39-9.35,29,3.85,7.33,13,9.17,17.35,10C1515.17,333,1528.08,335.58,1536.4,328.06Z"/><circle class="cls-19" cx="1518.37" cy="304.29" r="7.73"/><path d="M1622.08,355.75c9.44-9,10.13-24.42,4.22-35.34-5.49-10.15-18.22-19.25-29.62-15.84-13.8,4.13-18,24.33-14.23,37.76.61,2.17,4.77,17,17.85,20.08C1611.92,365.18,1621.26,356.53,1622.08,355.75Z"/><circle class="cls-19" cx="1599.32" cy="329.42" r="7.83"/><circle class="cls-19" cx="1609.3" cy="316.41" r="4"/><circle class="cls-19" cx="1532.3" cy="299.41" r="4"/></g></svg>