<svg xmlns="http://www.w3.org/2000/svg" xmlns:xlink="http://www.w3.org/1999/xlink" width="130" height="130" viewBox="0 0 130 130"><defs><style>.cls-1{fill:none;}.cls-2{clip-path:url(#clip-path);}.cls-3{clip-path:url(#clip-path-2);}.cls-4{clip-path:url(#clip-path-3);}.cls-5{fill:#e3f2fd;}.cls-6{fill:#a9d6e5;}.cls-7{fill:#bbdefb;}.cls-8{clip-path:url(#clip-path-4);}.cls-9{clip-path:url(#clip-path-5);}.cls-10{fill:#fd79ab;}.cls-11{fill:#fdb4c7;}.cls-12{fill:#c56482;}.cls-13{fill:#7a6068;}</style><clipPath id="clip-path"><rect class="cls-1" x="-2590.01" y="-53.7" width="1916.5" height="1080"/></clipPath><clipPath id="clip-path-2"><rect class="cls-1" x="-2588.5" y="-54.23" width="1916.5" height="1080"/></clipPath><clipPath id="clip-path-3"><rect class="cls-1" x="-2870.38" y="-242.84" width="2835.55" height="792"/></clipPath><clipPath id="clip-path-4"><rect class="cls-1" x="298.41" y="-94.02" width="1907.51" height="1080"/></clipPath><clipPath id="clip-path-5"><rect class="cls-1" x="17.85" y="-282.63" width="2822.24" height="792"/></clipPath></defs><g id="Sad_Poop" data-name="Sad Poop"><g class="cls-2"><g class="cls-3"><g class="cls-4"><rect class="cls-1" x="-409.52" y="-242.84" width="820.29" height="813.23"/><rect class="cls-5" x="-409.52" y="-242.84" width="820.29" height="813.23"/><path class="cls-6" d="M175.11,218.83H113.84a41.45,41.45,0,0,1-41.62-41.27V116.82a41.45,41.45,0,0,1,41.62-41.27h61.27a41.45,41.45,0,0,1,41.63,41.27v60.74A41.45,41.45,0,0,1,175.11,218.83Z"/><path class="cls-7" d="M14.53,218.83H-46.74a41.45,41.45,0,0,1-41.62-41.27V116.82A41.45,41.45,0,0,1-46.74,75.55H14.53a41.45,41.45,0,0,1,41.63,41.27v60.74A41.45,41.45,0,0,1,14.53,218.83Z"/><path class="cls-7" d="M175.11,59.63H113.84A41.44,41.44,0,0,1,72.22,18.36V-42.38a41.44,41.44,0,0,1,41.62-41.26h61.27a41.45,41.45,0,0,1,41.63,41.26V18.36A41.45,41.45,0,0,1,175.11,59.63Z"/><path class="cls-6" d="M14.53,59.63H-46.74A41.45,41.45,0,0,1-88.36,18.36V-42.38A41.44,41.44,0,0,1-46.74-83.64H14.53A41.45,41.45,0,0,1,56.16-42.38V18.36A41.45,41.45,0,0,1,14.53,59.63Z"/></g></g></g><g class="cls-8"><g class="cls-9"><rect class="cls-1" x="17.85" y="-282.63" width="816.44" height="813.23"/><rect class="cls-5" x="17.85" y="-282.63" width="816.44" height="813.23"/><path class="cls-7" d="M120.26,179h-61a41.34,41.34,0,0,1-41.43-41.26V77A41.35,41.35,0,0,1,59.28,35.76h61A41.35,41.35,0,0,1,161.7,77v60.74A41.35,41.35,0,0,1,120.26,179Z"/><path class="cls-6" d="M120.26,19.84h-61A41.35,41.35,0,0,1,17.85-21.43V-82.17a41.35,41.35,0,0,1,41.43-41.27h61A41.35,41.35,0,0,1,161.7-82.17v60.74A41.35,41.35,0,0,1,120.26,19.84Z"/></g></g><rect class="cls-10" x="3.5" y="3.5" width="123" height="123" rx="12"/><path d="M59.11,67c.92-12.85-7.22-21.31-8.46-22.56a27.93,27.93,0,0,0-15.52,1.41,24.39,24.39,0,0,0-11.28,8.46A20.27,20.27,0,0,0,19.62,67a19.79,19.79,0,0,0,4.23,11.29C32,89,48.26,86.92,49.23,86.78A29.68,29.68,0,0,0,59.11,67Z"/><path d="M42.18,67C41.79,45.55,61.33,26.85,84.49,29V103.7C61.87,105.78,42.57,88,42.18,67Z"/><ellipse cx="102.42" cy="35.25" rx="10.96" ry="4.94" transform="translate(5.07 82.74) rotate(-45)"/><ellipse cx="103.55" cy="66.01" rx="10.96" ry="4.94" transform="translate(-2.63 4.32) rotate(-2.36)"/><ellipse cx="102.42" cy="95.27" rx="4.94" ry="10.96" transform="translate(-37.37 100.32) rotate(-45)"/><path class="cls-11" d="M7.76,53.33a2.3,2.3,0,0,0,2.05-2.66V16.78c0-1.62,0-3.23.07-4.85a16.31,16.31,0,0,1-1.31-1.39c-.57-.68-.66-.92-.82-.93-.48,0-1.17,2.1-1.58,7.09-.69,8.39-.47,23.44-.2,34A2.29,2.29,0,0,0,7.76,53.33Z"/><path class="cls-11" d="M7.66,10.09c-.33.78-.19,1.34.34,3.86.41,2,1,4.74,1.66,8.14a11.07,11.07,0,0,1,3-9,11,11,0,0,1,9-3h47L84,9.69c1.69-.31,2.74-1.39,2.66-2.13s-1.52-1.71-3.47-1.39C79.84,6.09,77.27,6,76,6c0,0-41.41-1.28-56.78-.2,0,0-1.18.09-2.87.4C12.94,6.79,8.73,7.57,7.66,10.09Z"/><path class="cls-12" d="M123.39,58.29c-.93-.08-2,1.54-1.89,3.76v48.1l-.18,3.14c.39,1,1.32,3.12,2,3,.29-.06.21-.5,1-3a9.44,9.44,0,0,0,.53-3s-1.52-26.83.18-48.22C125.19,60,124.26,58.37,123.39,58.29Z"/><path class="cls-12" d="M124.32,109.29c-.41-.93-1.27-2.12-2-2-1.49.23-.51,5.51-3,9-1.46,2-4.47,4-11.11,4q-23.23.18-47,0l-7.41-.06c-1.64.12-2.73,1-2.43,2s1.67,1.42,3.17,1.28c3,.07,5.29.14,6.55.18l51.87.18a9.4,9.4,0,0,0,2.62-.36C121.61,121.77,126.28,113.79,124.32,109.29Z"/><path class="cls-13" d="M59,66.94c.92-12.89-7.22-21.36-8.47-22.62A27.91,27.91,0,0,0,35,45.74a24.35,24.35,0,0,0-11.3,8.48A20.32,20.32,0,0,0,19.5,66.94a19.87,19.87,0,0,0,4.24,11.31c8.14,10.68,24.44,8.62,25.42,8.49A29.78,29.78,0,0,0,59,66.94Z"/><path class="cls-13" d="M42.1,66.94c-.4-21.53,19.16-40.28,42.36-38.17V103.7C61.81,105.79,42.48,88,42.1,66.94Z"/><ellipse class="cls-13" cx="102.31" cy="35.32" rx="11.21" ry="5.05" transform="translate(5.04 82.78) rotate(-45.05)"/><ellipse class="cls-13" cx="103.35" cy="66.12" rx="11.16" ry="5.19" transform="translate(-2.64 4.32) rotate(-2.37)"/><ellipse class="cls-13" cx="102.24" cy="95.37" rx="5.18" ry="11.07" transform="translate(-37.5 100.09) rotate(-44.95)"/></g></svg>