<svg xmlns="http://www.w3.org/2000/svg" xmlns:xlink="http://www.w3.org/1999/xlink" width="160" height="160" viewBox="0 0 160 160"><defs><style>.cls-1{fill:none;}.cls-2{clip-path:url(#clip-path);}.cls-3{clip-path:url(#clip-path-2);}.cls-4{clip-path:url(#clip-path-3);}.cls-5{fill:#e3f2fd;}.cls-6{fill:#a9d6e5;}.cls-7{fill:#bbdefb;}.cls-8{fill:#c4c4c4;}.cls-9{fill:#e0e0e0;}.cls-10{fill:#ff7aab;}</style><clipPath id="clip-path"><rect class="cls-1" x="-2116.5" y="-205" width="1900" height="1080"/></clipPath><clipPath id="clip-path-2"><rect class="cls-1" x="-2115.01" y="-205.53" width="1900" height="1080"/></clipPath><clipPath id="clip-path-3"><rect class="cls-1" x="-2394.46" y="-394.14" width="2811.14" height="792"/></clipPath></defs><g id="Sad_Poop" data-name="Sad Poop"><g class="cls-2"><g class="cls-3"><g class="cls-4"><rect class="cls-1" x="45.22" y="-394.14" width="813.23" height="813.23"/><rect class="cls-5" x="45.22" y="-394.14" width="813.23" height="813.23"/><rect class="cls-6" x="45.22" y="83.45" width="143.28" height="143.28" rx="41.27"/><rect class="cls-7" x="45.22" y="-75.75" width="143.28" height="143.28" rx="41.27"/><rect class="cls-1" x="-768.01" y="-394.14" width="813.23" height="813.23"/><rect class="cls-5" x="-768.01" y="-394.14" width="813.23" height="813.23"/><rect class="cls-6" x="-131.22" y="83.45" width="143.28" height="143.28" rx="41.27"/><rect class="cls-7" x="-131.22" y="-75.75" width="143.28" height="143.28" rx="41.27"/></g></g><path class="cls-8" d="M-152,49.25C39.43-7.06,115-31.07,119.41-35.14c.36-.32,3.15-3.16,6.57-3,3.91.17,6.36,4.18,6.56,4.52,2.43,4.11.35,8.31,0,9C121.18-.55,1.41,470.57,1.23,474.06c0,0,0,.16,0,.36A6.59,6.59,0,0,1-1,478.51c-2.27,2.1-5.7,2.78-6.57,3-8,1.77-255.49,62.19-295.45,77.2-2.91,1.09-14.48,5.19-17.51,3-2.42-1.77,1.73-6.82,2.19-7.42C-311.84,545.67-261.09,392.74-152,49.25Z"/><path class="cls-9" d="M-265-149.39C-52.52-106,151.92-58,144.82-33.34c-.53,1.84-2.08,3-4.64,4.71C59.61,26-96.82,47.86-126.48,57.82A56.67,56.67,0,0,1-145,61a60.63,60.63,0,0,1-18.54-3.14A402.86,402.86,0,0,0-203,48.41a280.59,280.59,0,0,0-4.88-50.58c-2.66-13.42-7.27-29.69-7.82-31.65q-1.6-5.62-3.39-11.37A515.74,515.74,0,0,0-265-149.39Z"/></g><rect class="cls-10" x="18.99" y="18.98" width="123" height="123" rx="12"/><path d="M120.86,87.89,57.5,124.47a6.45,6.45,0,0,1-9.67-5.59V45.73a6.44,6.44,0,0,1,9.67-5.58l63.36,36.57A6.46,6.46,0,0,1,120.86,87.89Z"/></g></svg>