<svg xmlns="http://www.w3.org/2000/svg" width="355" height="335" viewBox="0 0 355 335"><defs><style>.cls-1{fill:#5c4200;}.cls-2{fill:#6b5504;}.cls-3{fill:#453002;}.cls-4{fill:#ff5f99;}.cls-5{fill:#ffc4da;}</style></defs><g id="Sad_Poop" data-name="Sad Poop"><path class="cls-1" d="M139,86.64c-1.61-17.1-17.53-17.91-23.3-39.06-3-11.21-4.4-32.34,8.91-41.11,10.73-7.06,28.14-4.24,34.94,4.8,6.29,8.36-1.36,15.58,4.11,30.83s18.4,23.17,21.93,25.35a58.4,58.4,0,0,0,25.35,8.22c9.13.79,18.47-.56,29.46-4.79C276,57.17,277.48,33.05,300.69,30.45c17.18-1.91,37.4,9,39.74,21.93,1.17,6.51-2,13.92-6.85,18.5-10.77,10.17-23.78.67-38.37,10.27-7.82,5.15-13.54,14.12-14.39,23.3-.29,3.14-.54,12.17,9.59,25.35,20.84,27.08,45.79,20,56.87,40.42,8.54,15.76,4.24,39.4-6.17,44.54-13,6.39-28.3-19-49.33-13.71-12.54,3.18-24.47,16.63-25.35,30.15-1.51,23.37,31.07,30.46,32.89,58.92.9,14-6,28.21-16.44,35.63-23.44,16.59-63.61-.41-67.83-18.5-3.4-14.55,18.17-22.52,15.76-41.79-1.93-15.37-18.09-29.86-34.94-31.52-14.88-1.47-26.39,7.45-33.58,13-19,14.74-14.91,26.47-31.51,38.37-13.28,9.5-33.74,14.77-50,6.85-2.54-1.24-13.36-6.51-17.13-17.82-4.88-14.64,4.73-31.37,15.08-40.42,20-17.49,40.91-4.74,52.75-19.87,10-12.8,7-37.22-5.48-48-10-8.58-24-6.65-45.22-3.42-38.87,5.91-53.95,20.52-67.83,11.64C2.43,167.62,2,153.45,2,152.41c-.3-18.45,19.77-35.6,38.37-37.68,19.24-2.16,25.44,17.89,50.7,17.81a49.33,49.33,0,0,0,24-6.17C128.32,118.73,140.49,102.53,139,86.64Z"/><path class="cls-1" d="M47.88,229.14c7.27-2.84,5.4-11.36,14.38-22.61,8-10,16.62-12.19,15.76-14.38-1.12-2.88-16.07.25-26.72,4.11-7.91,2.86-12.85,4.73-16.44,9.93-3,4.32-6.47,13-2.06,18.84C36,229.29,42.81,231.12,47.88,229.14Z"/><path class="cls-1" d="M308.23,121.58c-.13-.51.36-1,.68-1.37,4.4-4.49,13-6.83,15.76-7.54,5-1.32,7.56-2,8.22-2,4-.44,12.49-1.42,17.13,4.11.51.6,4,4.89,2.74,10.27-1.3,5.58-6.63,7.84-7.53,8.22a14.9,14.9,0,0,1-8.91.69c-8.42-1.71-9-8.28-17.81-11C313.81,121.52,308.6,123.07,308.23,121.58Z"/><path class="cls-1" d="M220.38,56.87c-1.15,0-2.19-1-6.7-10.66S207,31.94,207.51,29.08C208.57,23,214.57,16,221.22,16.75c5.51.62,9.29,6.35,10.27,11,.32,1.49.52,3.69-3.42,14.39C224.44,51.94,222.58,56.86,220.38,56.87Z"/><path class="cls-2" d="M321.93,44.84c.9-3.21-3.34-6.89-4.11-7.53-6.05-5.06-15.61-4.62-22.61-2.06-9.75,3.56-9.55,9.41-25.35,23.29-6.17,5.43-10.12,8.9-16.44,12.34-14.73,8-28.26,8.22-28.09,10.62.11,1.6,6.24,2.32,6.85,2.39a27.58,27.58,0,0,0,15.07-2.74c15.6-7.44,19.21-15,33.57-21.92A125.36,125.36,0,0,1,304.12,51C313.72,48.8,320.89,48.57,321.93,44.84Z"/><path class="cls-2" d="M152.7,16.75c-.8-5-8.42-8.17-14.39-8.22a19.07,19.07,0,0,0-13.7,6.17c-3.11,3.5-3.71,7.3-4.79,13.7a44.62,44.62,0,0,0-.69,13c1.57,14.81,11.2,24.47,15.43,28.71,1.88,1.88,4.76,4.49,5.12,4.17s-2.57-4.1-6.16-9.59c-4.25-6.5-6.37-9.75-7.54-13-2.81-7.87-2.19-18.88,4.11-26,1.11-1.26,6.2-7,11.65-6.17,3.9.63,5.73,4.3,8.22,3.43C151.92,22.23,153.09,19.16,152.7,16.75Z"/><path class="cls-3" d="M296.58,292.86a31.67,31.67,0,0,1-1.37,8.91,36.21,36.21,0,0,1-11.65,17.13c-11.17,9.39-24.68,9.16-28.77,8.9-16.75-1-28.92-12-28.78-12.33a100,100,0,0,0,12.33,4.8,76.53,76.53,0,0,0,8.23,2.05c15.88,2.78,28.77-5.48,28.77-5.48,2.61-1.68,10.66-7,14.39-17.13a36.56,36.56,0,0,0,2-13.7c-.2-7.69-2.6-12.12-2-12.33C290.51,273.38,296.6,281.88,296.58,292.86Z"/><path class="cls-3" d="M163,240.11c-.59-.75-9,3.74-17.13,11-10.71,9.57-10,14.34-19.18,22.61-4.81,4.34-13.76,12.43-25.35,13-16,.81-28.34-13.14-30.15-11-.94,1.13,2,5.36,4.8,8.22,11.46,11.52,29.84,8.41,30.83,8.23,13.92-2.57,22.71-12.45,28.09-18.5,5.13-5.77,4.24-6.82,11.65-15.76C156.06,246.41,163.57,240.85,163,240.11Z"/><path class="cls-4" d="M159.15,156.34l-6.94-18.59c-1-2.74-.07-4.81,2.66-5.83l9.88-3.68c6.18-2.3,11.05.58,12.9,5.54s0,10.12-6.21,12.43l-6.1,2.27,1.81,4.88a4.27,4.27,0,0,1-8,3Zm7-21.05-5.08,1.89,1.73,4.64,5.08-1.89a2.48,2.48,0,1,0-1.73-4.64Z"/><path class="cls-4" d="M185.16,145.92l-6.94-18.59a4.27,4.27,0,0,1,8-3l5.92,15.86,6.93-2.59a3.73,3.73,0,0,1,2.61,7l-10.71,4C188.25,149.6,186.18,148.66,185.16,145.92Z"/><path class="cls-4" d="M231.39,129.41a4.29,4.29,0,0,1-7.43,4.08l-1-1.27-9.84,3.67.1,1.59a4.28,4.28,0,0,1-8.28,1.77,4.4,4.4,0,0,1-.28-1.47l-.06-19.67a7.5,7.5,0,0,1,13.16-4.9l12.83,14.9A4.44,4.44,0,0,1,231.39,129.41Zm-13-3.07-6.11-7.79.48,9.89Z"/><path class="cls-4" d="M247.5,104.43l-3.87,12.51,2.59,6.94a4.27,4.27,0,0,1-8,3l-2.59-6.94L224.51,113a4.2,4.2,0,0,1,.4-7.65,4,4,0,0,1,3.72.42l8.45,5.84,2.57-10a4,4,0,0,1,2.54-2.75,4.19,4.19,0,0,1,5.31,5.51Z"/><path class="cls-4" d="M188.91,200.32a4.28,4.28,0,0,1-7.42,4.08l-1-1.26-9.83,3.66.09,1.59a4.28,4.28,0,0,1-8.28,1.78,4.73,4.73,0,0,1-.28-1.48L162.16,189a7.5,7.5,0,0,1,13.16-4.91L188.15,199A4.58,4.58,0,0,1,188.91,200.32Zm-13-3.06-6.11-7.79.48,9.89Z"/><path class="cls-4" d="M212.74,181.64l1.6,4.28a6.26,6.26,0,0,1-.31,5.94,16.65,16.65,0,0,1-8.65,7c-8,3-16.5.19-19.65-8.25s1.44-16.12,9.45-19.1a13.75,13.75,0,0,1,9.46-.32,4.07,4.07,0,0,1,2.48,2.41,4,4,0,0,1-2.34,5.12,3.89,3.89,0,0,1-2.85,0,5.57,5.57,0,0,0-4.12-.14,7.07,7.07,0,0,0,4.94,13.25,6.5,6.5,0,0,0,3.68-2.73l-.36-1-2,.75a3.61,3.61,0,0,1-4.55-2.14,3.85,3.85,0,0,1,1.95-4.84l6.66-2.48A3.72,3.72,0,0,1,212.74,181.64Z"/><path class="cls-4" d="M243.86,179.83a4.28,4.28,0,0,1-7.42,4.08l-1-1.26-9.83,3.66.1,1.59a4.28,4.28,0,0,1-8.28,1.78,4.22,4.22,0,0,1-.28-1.48l-.06-19.66a7.5,7.5,0,0,1,13.16-4.91l12.83,14.91A4.16,4.16,0,0,1,243.86,179.83Zm-13-3.06L224.78,169l.48,9.89Z"/><path class="cls-4" d="M246.48,178.86l-7.17-19.23a4.27,4.27,0,0,1,8-3l7.17,19.23a4.27,4.27,0,0,1-8,3Z"/><path class="cls-4" d="M276.06,170l-13.22-9.3,3.94,10.59a4.27,4.27,0,1,1-8,3l-6.71-18a5.61,5.61,0,0,1,3.29-7.19,5.5,5.5,0,0,1,5.12.66l12.2,8.51-3.62-9.72a4.27,4.27,0,0,1,8-3L283.92,164a5.2,5.2,0,0,1-7.86,6.05Z"/><path class="cls-5" d="M165.17,206.24a2.92,2.92,0,0,0,0-1.2c-.1-.52-.07-2.95,0-7.82.09-5.81.09-8.71,1.2-10.82s2.67-3.31,2.41-3.61-2.37.65-3.61,2.41a7.72,7.72,0,0,0-1.2,4.21,97.5,97.5,0,0,0,0,12c.16,3.6.23,6,.6,6C164.77,207.46,165.06,206.78,165.17,206.24Z"/><path class="cls-5" d="M219.84,186.17a3.11,3.11,0,0,0,0-1.2c-.11-.52-.07-3,0-7.82.08-5.81.08-8.72,1.2-10.82s2.67-3.31,2.4-3.61-2.37.64-3.6,2.41a7.69,7.69,0,0,0-1.21,4.21,97.51,97.51,0,0,0,0,12c.16,3.59.23,6,.6,6C219.44,187.39,219.72,186.71,219.84,186.17Z"/><path class="cls-5" d="M206.85,135.8a2.92,2.92,0,0,0,0-1.2c-.11-.52-.07-2.95,0-7.82.08-5.81.08-8.71,1.2-10.82s2.67-3.31,2.41-3.61-2.37.65-3.61,2.41a7.69,7.69,0,0,0-1.2,4.21,97.5,97.5,0,0,0,0,12c.15,3.6.22,6,.6,6C206.45,137,206.74,136.34,206.85,135.8Z"/><path class="cls-5" d="M158,149.5c1.46,3.94,2.19,5.91,2,6-.57.28-5-10.88-7-17-.28-.88-.81-2.58,0-4,1.23-2.14,4.84-2.42,5-2s-2.8.75-4,3C152.66,138,154.63,140.45,158,149.5Z"/><path class="cls-5" d="M184.94,139.62c1.46,3.94,2.19,5.91,2,6-.56.28-5-10.87-7-17-.29-.91-.9-2.75,0-4s2.84-1.47,3-1.12-1.26.86-2,2.12C179.41,128.16,181.92,131.43,184.94,139.62Z"/><path class="cls-5" d="M245.81,171.58c1.45,3.94,2.18,5.91,2,6-.57.28-5-10.87-7-17-.3-.91-.91-2.75,0-4s2.84-1.47,3-1.12-1.27.85-2,2.12C240.27,160.12,242.78,163.39,245.81,171.58Z"/><path class="cls-5" d="M186,184c.72-5.38,5.78-9.65,6-9.5a8.71,8.71,0,0,1-1,2,26.07,26.07,0,0,1-2,3c-1.91,2.56-1.9,7.49-1,11a15.19,15.19,0,0,0,3,6S185.1,190.56,186,184Z"/><path class="cls-5" d="M258.09,167.42c1.45,3.94,2.18,5.91,2,6-.57.28-5-10.87-7-17-.3-.9-.91-2.75,0-4s2.83-1.47,3-1.12-1.26.86-2,2.12C252.55,156,255.06,159.23,258.09,167.42Z"/><path class="cls-5" d="M230,115.5a8,8,0,0,1-1.95-1.11c-2.52-1.59-3.79-2.4-4.05-2.89-1.08-2.09.78-5.06,1-5s-1.37,3.06,0,5c.69,1,1.58.92,4,3C229.22,114.71,230,115.41,230,115.5Z"/><path class="cls-5" d="M239,125.5a7.52,7.52,0,0,1,.51,1.83,19.72,19.72,0,0,1-1.33-2.81c-1.27-2.83-1.72-3.8-1.67-3.82s.06,0,.49.8A24.6,24.6,0,0,1,239,125.5Z"/></g></svg>