<svg xmlns="http://www.w3.org/2000/svg" xmlns:xlink="http://www.w3.org/1999/xlink" width="140" height="140" viewBox="0 0 140 140"><defs><style>.cls-1{fill:none;}.cls-2{clip-path:url(#clip-path);}.cls-3{clip-path:url(#clip-path-2);}.cls-4{clip-path:url(#clip-path-3);}.cls-5{fill:#e3f2fd;}.cls-6{fill:#bbdefb;}.cls-7{fill:#a9d6e5;}.cls-8{fill:#ff7aab;}</style><clipPath id="clip-path"><rect class="cls-1" x="-167" y="162.5" width="1916.5" height="1080"/></clipPath><clipPath id="clip-path-2"><rect class="cls-1" x="-165.5" y="161.97" width="1916.5" height="1080"/></clipPath><clipPath id="clip-path-3"><rect class="cls-1" x="-447.38" y="-26.64" width="2835.55" height="792"/></clipPath></defs><g id="Sad_Poop" data-name="Sad Poop"><g class="cls-2"><g class="cls-3"><g class="cls-4"><rect class="cls-1" x="-447.38" y="-26.64" width="820.29" height="813.23"/><rect class="cls-5" x="-447.38" y="-26.64" width="820.29" height="813.23"/><path class="cls-6" d="M137.25,275.83H76a41.45,41.45,0,0,1-41.63-41.27V173.82A41.45,41.45,0,0,1,76,132.56h61.26a41.45,41.45,0,0,1,41.63,41.26v60.74A41.45,41.45,0,0,1,137.25,275.83Z"/><path class="cls-7" d="M-23.32,275.83H-84.59a41.45,41.45,0,0,1-41.63-41.27V173.82a41.45,41.45,0,0,1,41.63-41.26h61.27A41.44,41.44,0,0,1,18.3,173.82v60.74A41.44,41.44,0,0,1-23.32,275.83Z"/><path class="cls-7" d="M137.25,116.64H76A41.45,41.45,0,0,1,34.36,75.37V14.63A41.45,41.45,0,0,1,76-26.64h61.26a41.45,41.45,0,0,1,41.63,41.27V75.37A41.45,41.45,0,0,1,137.25,116.64Z"/><path class="cls-6" d="M-23.32,116.64H-84.59a41.45,41.45,0,0,1-41.63-41.27V14.63A41.45,41.45,0,0,1-84.59-26.64h61.27A41.45,41.45,0,0,1,18.3,14.63V75.37A41.45,41.45,0,0,1-23.32,116.64Z"/></g></g></g><rect class="cls-8" x="8.5" y="8.5" width="123" height="123" rx="12"/></g></svg>