<svg xmlns="http://www.w3.org/2000/svg" xmlns:xlink="http://www.w3.org/1999/xlink" width="130" height="130" viewBox="0 0 130 130"><defs><style>.cls-1{fill:none;}.cls-2{clip-path:url(#clip-path);}.cls-3{clip-path:url(#clip-path-2);}.cls-4{clip-path:url(#clip-path-3);}.cls-5{fill:#e3f2fd;}.cls-6{fill:#a9d6e5;}.cls-7{fill:#bbdefb;}.cls-8{fill:#fd79ab;}.cls-9{fill:#4d373c;}.cls-10{fill:#c56482;}.cls-11{fill:#fdb4c7;}.cls-12{opacity:0.53;}</style><clipPath id="clip-path"><rect class="cls-1" x="-2301.63" y="-53.73" width="1916.5" height="1080"/></clipPath><clipPath id="clip-path-2"><rect class="cls-1" x="-2300.12" y="-54.25" width="1916.5" height="1080"/></clipPath><clipPath id="clip-path-3"><rect class="cls-1" x="-2582" y="-242.87" width="2835.55" height="792"/></clipPath></defs><g id="Sad_Poop" data-name="Sad Poop"><g class="cls-2"><g class="cls-3"><g class="cls-4"><rect class="cls-1" x="-121.14" y="-242.87" width="820.29" height="813.23"/><rect class="cls-5" x="-121.14" y="-242.87" width="820.29" height="813.23"/><path class="cls-6" d="M142.34,218.8H81.07a41.45,41.45,0,0,1-41.63-41.27V116.79A41.45,41.45,0,0,1,81.07,75.53h61.27A41.44,41.44,0,0,1,184,116.79v60.74A41.44,41.44,0,0,1,142.34,218.8Z"/><path class="cls-7" d="M-18.24,218.8H-79.51a41.45,41.45,0,0,1-41.63-41.27V116.79A41.45,41.45,0,0,1-79.51,75.53h61.27a41.44,41.44,0,0,1,41.62,41.26v60.74A41.44,41.44,0,0,1-18.24,218.8Z"/><path class="cls-7" d="M142.34,59.61H81.07A41.45,41.45,0,0,1,39.44,18.34V-42.4A41.45,41.45,0,0,1,81.07-83.67h61.27A41.45,41.45,0,0,1,184-42.4V18.34A41.45,41.45,0,0,1,142.34,59.61Z"/><path class="cls-6" d="M-18.24,59.61H-79.51a41.45,41.45,0,0,1-41.63-41.27V-42.4A41.45,41.45,0,0,1-79.51-83.67h61.27A41.45,41.45,0,0,1,23.38-42.4V18.34A41.45,41.45,0,0,1-18.24,59.61Z"/></g></g></g><rect class="cls-8" x="3.5" y="3.5" width="123" height="123" rx="12"/><path d="M70.58,23.22V49.39a5.35,5.35,0,0,1-8,4.63L39.89,40.94a5.35,5.35,0,0,1,0-9.27L62.55,18.58A5.36,5.36,0,0,1,70.58,23.22Z"/><path d="M70.5,28.38a40.86,40.86,0,0,1,22.23,8.76C107.07,49,113.65,72.86,102.16,91.7c-11.76,19.27-37.42,25-56.58,14.82C28.54,97.43,19.47,77.2,24,57.35l14.82,1.34C35.09,72.41,41.32,86.54,53,92.37c13.71,6.85,30.86.38,37-12.12,4.45-9,3.76-22.22-4.71-29.64-5.46-4.77-12.06-5.33-14.82-5.39Z"/><path class="cls-9" d="M67.5,21.5c-.38-.73-8.28,2.45-15,6-5.67,3-12.38,7.25-12,8,.29.57,4.63-1.09,7-2a72,72,0,0,0,15-8C65.35,23.55,67.72,21.92,67.5,21.5Z"/><path class="cls-9" d="M31.5,61.5c1.87-.13,4-.64,4-1s-1.88-.72-10-1a31.25,31.25,0,0,0-1,10,26.23,26.23,0,0,0,2,9,53.27,53.27,0,0,1-1-8c-.09-3.13-.23-7.94,2-9C28.44,61.05,28.94,61.68,31.5,61.5Z"/><path class="cls-10" d="M122.57,57.5c-.93-.08-2,1.55-1.89,3.77v48.1l-.18,3.13c.4,1,1.33,3.12,2,3,.3,0,.21-.49,1-3a9.15,9.15,0,0,0,.53-3s-1.52-26.83.18-48.22C124.38,59.2,123.44,57.58,122.57,57.5Z"/><path class="cls-10" d="M123.5,108.5c-.4-.93-1.27-2.12-2-2-1.48.24-.5,5.52-3,9-1.46,2-4.47,4-11.1,4q-23.25.17-47,0L53,119.48c-1.63.12-2.73,1-2.43,2s1.67,1.42,3.17,1.28c3,.07,5.3.14,6.55.18l51.87.18a9.4,9.4,0,0,0,2.62-.36C120.79,121,125.46,113,123.5,108.5Z"/><path class="cls-11" d="M8.6,53.74a2.3,2.3,0,0,0,2.05-2.66V17.19c0-1.62,0-3.23.07-4.85A16.31,16.31,0,0,1,9.41,11c-.57-.68-.67-.92-.83-.93-.47,0-1.16,2.1-1.57,7.09-.69,8.39-.47,23.44-.2,34A2.29,2.29,0,0,0,8.6,53.74Z"/><path class="cls-11" d="M8.5,10.5c-.33.78-.2,1.34.34,3.86.41,2,1,4.74,1.66,8.14a11,11,0,0,1,3-9,11.07,11.07,0,0,1,9-3h47l15.28-.4c1.69-.31,2.75-1.39,2.67-2.13S85.92,6.26,84,6.58c-3.29-.08-5.86-.16-7.17-.2,0,0-41.42-1.28-56.78-.2,0,0-1.18.09-2.87.4C13.78,7.2,9.57,8,8.5,10.5Z"/></g></svg>