<svg xmlns="http://www.w3.org/2000/svg" xmlns:xlink="http://www.w3.org/1999/xlink" width="380" height="215" viewBox="0 0 380 215"><defs><style>.cls-1{fill:url(#linear-gradient);}.cls-2{fill:url(#linear-gradient-2);}.cls-3{fill:url(#linear-gradient-3);}.cls-4{fill:#eaff10;}.cls-5{fill:#fff;}</style><linearGradient id="linear-gradient" x1="115.13" y1="72.53" x2="115.13" y2="114.71" gradientUnits="userSpaceOnUse"><stop offset="0.05" stop-color="#e9fe10"/><stop offset="1" stop-color="#cfe804"/></linearGradient><linearGradient id="linear-gradient-2" x1="192.05" y1="72.53" x2="192.05" y2="114.71" xlink:href="#linear-gradient"/><linearGradient id="linear-gradient-3" x1="271.11" y1="72.53" x2="271.11" y2="114.71" xlink:href="#linear-gradient"/></defs><g id="Happy_Pee" data-name="Happy Pee"><path class="cls-1" d="M135.55,108.28c-2.48,2.82-8.61,9.81-18,10a20.88,20.88,0,0,1-11-3c-8.18-4.75-10.52-13.1-11-15,2.86-.35,6.4-1.29,8-4,5.56-9.47-19.64-28.6-14-40,1.93-3.92,7.54-7,12-6,12.81,2.76,8.36,36.84,27,46a23.68,23.68,0,0,0,13,2A33,33,0,0,1,135.55,108.28Z"/><path class="cls-2" d="M202.55,101.28c3.61,3.4,9.12,3.44,13,3a22,22,0,0,1-4,6c-8,8.5-22.47,9.56-33,5a30.65,30.65,0,0,1-10-7c3.95-1.34,9.23-3.88,12-9,5.48-10.12-3.43-21.86,2-27,3-2.82,9.38-2.81,13,0C203.18,78.23,194.78,94,202.55,101.28Z"/><path class="cls-3" d="M242.55,98.28a15.72,15.72,0,0,0,3,10c4.73,6.25,12.86,6,14,6,9.27-.24,18.33-9,22-22-.72-12.52,2.71-18.68,6-22,4.06-4.09,8.73-4.67,11-10,1.57-3.69,1.76-9.15-1-12-4.42-4.55-16.27-2.31-23,4-9.17,8.58-3.6,19.73-12,32C257.08,92.26,248.8,96.2,242.55,98.28Z"/><path class="cls-4" d="M30.55,50.28c-.81.85-3.77-2.53-10-4-6.64-1.56-8.67,1-13-1-4.7-2.18-8.67-8.13-7-12,1.23-2.85,5.26-4,8-4,5.83-.09,10,4.53,15,10C27.14,43.24,31.58,49.2,30.55,50.28Z"/><path class="cls-4" d="M282.55,116.28c-6,7.06-10,16-18,34a343.24,343.24,0,0,0-18,51,224.94,224.94,0,0,1-34,9c-21,3.84-53.64,9.39-88-4a120.46,120.46,0,0,1-20-10c-.88-7.12-2.39-17.54-5-30-8.83-42-13.24-63-29-79-11.29-11.44-25.88-18.3-24-27a8.36,8.36,0,0,1,5-6c9.15-3.24,23.89,16,30,24,17.68,23.11,18.3,36.49,30,39,9.38,2,18.16-4.61,20-6,10.66-8,12.63-21.47,13-24,1.47-10.1-1.84-15.29,2-19,3.17-3.06,9.8-3.72,14-1,10.31,6.7-2.62,28.36,8,41,9.07,10.81,32.69,11.83,43,2,9.89-9.42,3.62-25.1,15-32,4.25-2.58,10.95-3.91,15-1,7.07,5.1-3.87,21.18,4,31a17.37,17.37,0,0,0,14,6c11.36-.66,14.37-14.4,30-31,11.34-12,32.05-28.49,42-23,4.35,2.41,6.85,9.13,6,15C335,92.61,305.13,89.89,282.55,116.28Z"/><path class="cls-4" d="M168.8,20.42c.13,2.33-1.17,3.06-4,8-4.78,8.33-4.94,12.95-7,13-.44,0-1.67-.17-5-8-3.87-9.08-5.81-13.62-4-17s6.07-5.3,10-5C164.1,11.82,168.56,16.29,168.8,20.42Z"/><path class="cls-4" d="M236.8,24.42c-.9,4.88-1.74,12.44,0,13s3.63-8.16,12-13c5.38-3.12,8.34-1.62,11-5s3.12-9.59,0-14c-2.42-3.41-7-5.85-11-5C240.9,2.09,238.4,15.69,236.8,24.42Z"/><path class="cls-4" d="M346.8,50.42c0-2.28,3.39-3,9-7,4.74-3.41,4.68-4.61,8-6,1.92-.81,5.39-2.27,9-1a11.16,11.16,0,0,1,7,11c-.81,7.65-12.34,12.49-18,10-2.66-1.17-3.59-3.76-7-4-2.53-.18-4.14,1.09-6,0A3.83,3.83,0,0,1,346.8,50.42Z"/><path d="M188.55,153.78c-1.17,7.7-9.25,14.09-13,12.5-3.27-1.38-3.51-8.89-2-14,1.55-5.27,6.08-11.77,10-11C187.12,142,189.33,148.6,188.55,153.78Z"/><path d="M213.54,153.8c-1.17,7.7-9.24,14.09-13,12.5-3.27-1.38-3.51-8.89-2-14,1.55-5.27,6.09-11.77,10-11C212.11,142,214.33,148.62,213.54,153.8Z"/><path d="M193.92,186.41c-1,.76-3.8-4.38-9.43-5.2-5.15-.74-8.74,2.71-9.3,1.88s3.38-6.84,8.92-7a9.72,9.72,0,0,1,6.7,2.84C193.61,181.63,194.81,185.77,193.92,186.41Z"/><ellipse class="cls-5" cx="180.55" cy="157.28" rx="2" ry="3"/><ellipse class="cls-5" cx="204.55" cy="159.28" rx="2" ry="3"/></g></svg>