<svg xmlns="http://www.w3.org/2000/svg" width="520" height="485" viewBox="0 0 520 485"><defs><style>.cls-1{fill:#5c4200;}</style></defs><g id="Sad_Poop" data-name="Sad Poop"><path class="cls-1" d="M227.81,128.52c-9-30.8-45.71-27.55-58-61-6.87-18.67-5.78-47.83,13-60,16.05-10.4,42-6.41,51,7,10.32,15.37-9.19,31.72-1,57,7.34,22.67,30.86,33.71,40,38,36.28,17,72.68,4.56,77,3,51-18.35,50.58-65.75,90-70,24.83-2.68,54.57,13,58,32,2.42,13.5-8.88,25.81-10,27-17.75,18.81-40.5,4.64-68,23-4.46,3-17.75,12.11-24,29-5.08,13.7-5.26,31.78,2,45,20.47,37.34,87.21,12.24,110,48,13.62,21.38,6.88,57.2-9,65-25.62,12.58-62.91-53.66-100-42-22.12,7-38.86,39.92-34,66,7.8,41.88,67.24,44.33,73,86,2.94,21.33-9.7,41.88-24,52-34.21,24.22-92.84-.59-99-27-5-21.24,26.52-32.87,23-61-2.81-22.43-26.41-43.57-51-46-21.71-2.14-38.51,10.87-49,19-27.78,21.52-21.77,38.65-46,56-19.39,13.88-49.25,21.56-73,10-3.72-1.81-19.5-9.49-25-26-7.13-21.37,6.9-45.79,22-59,29.17-25.53,59.7-6.91,77-29,14.63-18.69,10.23-54.33-8-70-14.58-12.52-35-9.71-66-5-56.75,8.63-78.74,30-99,17-15.33-9.8-16-30.47-16-32-.45-26.92,28.85-52,56-55,25.3-2.83,30.78,15.46,74,26,23.55,5.75,52,12.69,73-3C223.76,175.85,234,149.78,227.81,128.52Z"/><path class="cls-1" d="M70.81,332.52c10.61-4.15,7.88-16.58,21-33,11.67-14.61,24.25-17.79,23-21-1.64-4.19-23.46.38-39,6-11.55,4.18-18.76,6.91-24,14.5-4.36,6.31-9.45,19-3,27.5C53.52,332.74,63.42,335.41,70.81,332.52Z"/><path class="cls-1" d="M450.81,175.52c-.19-.74.52-1.51,1-2,6.41-6.54,19-10,23-11,7.35-1.93,11-2.89,12-3,5.84-.63,18.23-2.06,25,6,.74.88,5.82,7.15,4,15-1.9,8.14-9.69,11.44-11,12a21.81,21.81,0,0,1-13,1c-12.3-2.49-13.14-12.08-26-16C459,175.44,451.35,177.71,450.81,175.52Z"/><ellipse cx="265.81" cy="202.02" rx="11" ry="13.5"/><ellipse cx="315.81" cy="207.02" rx="10" ry="14.5"/><path d="M252.81,277.52c-2-4.23,9.85-18.94,25-23,17.66-4.73,33.39,6.73,39,13,2,2.2,7.06,7.91,5.37,11.52a2.7,2.7,0,0,1-1.37,1.48c-3.48,1.2-7.22-10.88-16-17-10.09-7-27.4-6.59-37,1-6.75,5.34-10.94,15.19-14,14A1.94,1.94,0,0,1,252.81,277.52Z"/></g></svg>