<svg xmlns="http://www.w3.org/2000/svg" xmlns:xlink="http://www.w3.org/1999/xlink" width="300" height="350" viewBox="0 0 300 350"><defs><style>.cls-1{fill:none;}.cls-2{clip-path:url(#clip-path);}.cls-3{clip-path:url(#clip-path-2);}.cls-4{fill:#e3f2fd;}.cls-5{fill:#bbdefb;}.cls-6{fill:#a9d6e5;}.cls-7{fill:#ff8b15;}.cls-8{fill:#ffe5aa;}.cls-9{fill:#fff;}.cls-10{fill:#5f8cff;}.cls-11{fill:#8a4b39;}.cls-12{fill:#385499;}.cls-13{fill:#5c4200;}.cls-14{fill:#a3590d;}</style><clipPath id="clip-path"><rect class="cls-1" x="-1672.5" y="369.5" width="1900" height="1080"/></clipPath><clipPath id="clip-path-2"><rect class="cls-1" x="-1951.95" y="180.89" width="2811.14" height="792"/></clipPath></defs><g id="second_bear" data-name="second bear"><g class="cls-2"><g class="cls-3"><rect class="cls-1" x="-325.5" y="180.89" width="813.23" height="813.23"/><rect class="cls-4" x="-325.5" y="180.89" width="813.23" height="813.23"/><rect class="cls-5" x="152.09" y="340.08" width="143.28" height="143.28" rx="41.27"/><rect class="cls-6" x="-7.11" y="340.08" width="143.28" height="143.28" rx="41.27"/><rect class="cls-6" x="152.09" y="180.89" width="143.28" height="143.28" rx="41.27"/><rect class="cls-5" x="-7.11" y="180.89" width="143.28" height="143.28" rx="41.27"/></g></g><path class="cls-7" d="M112.6,101c35.78,35.59,4.09,58.25,9.08,99.59.29,2.44.36,3.85,1.25,5.42,10.07,17.8,24.07,28.87,46.3,26.57,23.6-2.45,38.37-33.4,47.77-51.58,11.32-21.89,40.55-88.92,27.93-110.82-.12-.2.12.26-.41-.31a5.5,5.5,0,0,0-2.19-1.67c-28.08-14.12-83.05-6.49-113.15,2.51-8.31,2.48-20.42,6.94-23.85,15.68C102.81,92.76,109,97.41,112.6,101Z"/><path class="cls-8" d="M219.39,160.89c5.29-11.22,23.22-53.7,12.25-73.33-.53-1-.53-3-1.1-3.33-1.26-.77-1.34-1.79-2.68-2.37-25.69-11.24-95.45-11.42-119,1.33-4.58,2.46-2-.83-3.29,3.45s-3.76-4-1.24,6.37c9.74,40.12,27.7,41.06,13.6,93.46-2.43,9.06-4.1,8.65-1.6,14,8.65,18.57,23.41,34.47,49.39,30C185.57,227.07,207.24,186.63,219.39,160.89Z"/><path class="cls-7" d="M19,229.25c-21.85,31,8.39,103,43,106.85,1.83.2,6.68-1.51,14.8-5.89,10-5.37,30.16-15.63,44.58-27.4,11.2-9.15,31.72-26.59,41.06-41.43,3.34-5.31,7.56-11.88,10.21-17.58-20.07-1.5-36.37-7.68-51.35-21.84-4.63-4.37-8.43-11.79-11.41-17.67-.85-.37-5.41,1-6.37,1C84.22,206,29,215.15,19,229.25Z"/><path d="M148.45,141.61c.09,2.49.24,16.46,6.15,16.4,4.67-.06,8-9.48,7.61-14.86-.46-6.34-8-14.77-14.62-11.6C143.68,133.42,148.31,138,148.45,141.61Z"/><path d="M174.52,145.65c.37,3.36.27,16.94,6,17.33,5.23.36,6.93-11,6.12-15-.94-4.57-7.38-14.84-12.6-11.9C171.42,137.6,174.22,143,174.52,145.65Z"/><path class="cls-9" d="M156.93,148.35c-.11,1.67-.73,4.47-2.84,4.6s-2.61-2.46-2.5-4.18.85-4.46,2.91-4.6S157.05,146.67,156.93,148.35Z"/><path class="cls-9" d="M182.52,153.35c.07,1.58-.22,4.42-2.27,4.57s-2.75-2.59-2.75-4.19.4-4.45,2.34-4.6S182.45,151.76,182.52,153.35Z"/><path d="M172.56,191c-2.75,2.24-7.07-7.45-13-8.11-4.77-.54-10.59,5.88-12.11,3.07s10.43-9,14.67-8.26S175.31,188.78,172.56,191Z"/><path class="cls-10" d="M105.44,231.17a76,76,0,0,1-7.38,2.62c-3.45,1-6.07-.29-7.57-3.46a42.6,42.6,0,0,1-2.12-5.64c-1-3.37.2-6,3.5-7.37a73.74,73.74,0,0,1,7.37-2.55c3.46-1,6.09.28,7.61,3.46a43,43,0,0,1,2.12,5.6C109.92,227.19,108.71,229.77,105.44,231.17Z"/><path class="cls-10" d="M118,250.49a72.75,72.75,0,0,1-6.52,4.31c-3.12,1.79-6,1.16-8.21-1.56a42.85,42.85,0,0,1-3.42-5c-1.75-3-1.25-5.83,1.6-8A72.45,72.45,0,0,1,108,236a5.93,5.93,0,0,1,8.19,1.5,40.94,40.94,0,0,1,3.43,4.93C121.33,245.49,120.84,248.33,118,250.49Z"/><path class="cls-10" d="M132.22,265.63a68.74,68.74,0,0,1-6,5.07c-2.91,2.16-5.83,1.77-8.34-.72a44.88,44.88,0,0,1-4-4.63c-2.07-2.85-1.9-5.7.71-8.17a75.34,75.34,0,0,1,6-5c2.88-2.14,5.76-1.92,8.3.54a41.89,41.89,0,0,1,4,4.57C135,260.2,134.83,263.12,132.22,265.63Z"/><path class="cls-10" d="M85.1,239.45c-2.62,1.3-6.65,3-9.41,4-3.41,1.23-6.07.13-7.76-3a70.21,70.21,0,0,1-3.39-7.57c-1.21-3.34-.27-6,3-7.65,2.63-1.3,6.64-3,9.41-4,3.41-1.22,6.09-.08,7.78,3.06a70.7,70.7,0,0,1,3.4,7.54C89.34,235.2,88.33,237.85,85.1,239.45Z"/><path class="cls-10" d="M97.44,262.49c-2,1.54-5.15,3.7-7.31,5-3.09,1.85-5.93,1.29-8.19-1.43a53.14,53.14,0,0,1-4.06-5.74c-1.81-3-1.38-5.85,1.45-8.06a82.38,82.38,0,0,1,7.3-5c3.09-1.84,5.93-1.25,8.2,1.45a52.28,52.28,0,0,1,4.07,5.71C100.71,257.46,100.28,260.28,97.44,262.49Z"/><path class="cls-10" d="M113,283.25a84.65,84.65,0,0,1-6.71,5.83c-2.89,2.21-5.81,1.87-8.35-.64a57.31,57.31,0,0,1-4.72-5.38c-2.13-2.84-2.06-5.75.53-8.27a83.79,83.79,0,0,1,6.73-5.76c2.89-2.19,5.79-1.87,8.34.61a56.66,56.66,0,0,1,4.71,5.32C115.63,277.79,115.54,280.7,113,283.25Z"/><path class="cls-10" d="M61.18,251.22c-3.29,1.58-8.1,3.59-11.54,4.84s-6.09.1-7.71-3.12a99.09,99.09,0,0,1-4.06-9.57c-1.21-3.4-.2-6.09,3.1-7.66s8.1-3.55,11.54-4.78,6.09-.05,7.71,3.16a99.92,99.92,0,0,1,4.07,9.53C65.49,247,64.47,249.65,61.18,251.22Z"/><path class="cls-10" d="M77.42,279.2c-3,2-7.39,4.49-10.62,6.16s-6,.86-8-2.15a94.08,94.08,0,0,1-5-8.76c-1.6-3.23-.89-6,2.16-8s7.38-4.46,10.6-6.09,6-.83,8,2.15a92.8,92.8,0,0,1,5.06,8.69C81.17,274.41,80.47,277.23,77.42,279.2Z"/><path class="cls-10" d="M92.4,303.54c-2.84,2.21-6.66,4.86-9.71,6.77s-6,1.35-8.24-1.48a90.81,90.81,0,0,1-5.58-7.95c-1.89-3.07-1.4-6,1.43-8.2s6.63-4.89,9.67-6.81,5.94-1.37,8.2,1.46c1.71,2.15,4.17,5.64,5.62,8C95.69,298.38,95.25,301.32,92.4,303.54Z"/><path class="cls-10" d="M45.45,280.77c2.67,6.32,6.91,20.38-1.5,23.92s-15.5-9.32-18.16-15.64-6.9-20.39,1.5-23.92S42.79,274.46,45.45,280.77Z"/><path class="cls-11" d="M205.72,6.7c-4.66,1.27-6.64,10.12-4,14.41a4.2,4.2,0,0,0,5.32,1.6c2.82-1.37,5.36-5.95,5.1-8.56C211.86,11.14,209.12,5.78,205.72,6.7Z"/><path class="cls-7" d="M241.46,34.61c-.16,11.62-6.78,40.11-12.7,37.86s4-16,3.78-37.32c-.2-23.77-22.92-11.06-21.46-19.57S241.64,21.49,241.46,34.61Z"/><path class="cls-11" d="M232.51,69.74c.26.7-1.77,4.11-3.1,4.89s-5.34,3.62-6.76,1.11,3.2-6.22,5-7.47a3,3,0,0,0-.23,3.88c1.21,1.35,3.07-.54,3.76-.83S232.26,69.05,232.51,69.74Z"/><path class="cls-12" d="M64,247.62c2,1.72-7.92,6.85-10.56,7.45-1.27.3-6.14,2.65-8.86.73-.5-.36-3.4-3.62-3.81-4.83C40.2,249.3,35.42,240.1,38,239.6s3.42,8.07,9,10.38C53.81,252.78,61.37,245.34,64,247.62Z"/><path class="cls-12" d="M88.69,236.32c1.72,1.49-7.25,6.22-9.7,6.71-1.18.24-5.63,2.35-8.08.62-.45-.32-3.2-3.34-3.47-4.37-.38-1.42-5.26-10.12-2.44-10.27s3.53,7.59,8.25,9.46C79,240.75,86.42,234.35,88.69,236.32Z"/><path class="cls-12" d="M109,227.27c2,1.66-6.45,5.35-8.45,6-1,.29-5,2.05-7.14.58A17.28,17.28,0,0,1,90.34,230c-.41-1.24-4.45-8.81-2.19-9s3.76,6.75,7.15,8.22C99.41,231,107,225.6,109,227.27Z"/><path class="cls-12" d="M80.31,275.92c2.21,1.44-7,7.91-9.51,8.87-1.24.46-5.76,3.46-8.72,1.9-.55-.29-3.83-3.15-4.4-4.31-.78-1.58-6.67-10.09-4.18-10.93s4.39,7.55,10.27,9.11C70.9,282.46,77.39,274,80.31,275.92Z"/><path class="cls-12" d="M94.56,300.77c2.2,1.22-6,8-8.37,9.12-1.15.53-5.23,3.69-8.16,2.42a19.94,19.94,0,0,1-4.53-3.77c-.86-1.44-7.13-9.09-4.82-10.08s4.77,6.86,10.49,7.92C86.1,307.66,91.65,299.15,94.56,300.77Z"/><path class="cls-12" d="M114.69,280.44c2.08,1.35-5.24,7.16-7.36,8.31-1,.56-4.67,3.31-7.29,2.24-.49-.2-3.66-2.47-4.13-3.37-.65-1.23-6.93-8.27-4.41-9s4.93,6.23,9.56,7C106.68,286.65,112.61,279.09,114.69,280.44Z"/><path class="cls-12" d="M100,258c2.07,1.33-5.31,7-7.41,8.16-1,.54-4.68,3.27-7.27,2.24-.48-.19-3.61-2.4-4.08-3.29-.64-1.21-6.83-8.14-4.33-8.86s4.88,6.16,9.45,6.92C91.89,264.09,97.91,256.66,100,258Z"/><path class="cls-12" d="M120.37,246.12c2.29,1.17-5,6.62-6.85,7.63-.88.5-4.41,3.07-6.81,2.09a16.85,16.85,0,0,1-3.82-3.06c-.67-1.11-6.23-7.55-4.08-8.2s5.1,5.68,8.71,6.39C111.91,251.82,118.08,244.94,120.37,246.12Z"/><path class="cls-12" d="M133.79,262.54c2.27,1.23-5,6.7-6.82,7.79-.89.52-4.39,3.1-6.8,2.1a17.22,17.22,0,0,1-3.85-3.1c-.67-1.13-6.26-7.62-4.11-8.29s5.14,5.77,8.75,6.47C125.34,268.35,131.52,261.31,133.79,262.54Z"/><path class="cls-12" d="M47.54,288.89c3.4,1.61.81,15.82-4.14,17.77-6.1,2.41-19.42-15.75-17.77-17.39S34.85,300,40.55,298C44.81,296.44,45,287.71,47.54,288.89Z"/><path class="cls-13" d="M64.68,236.25c4.77-.56,15.25-1.8,18-8,2.3-5.17-1.16-12.89-8-19-13.44,2.58-24.6,5.52-33,8-13.47,4-18.45,6.33-22.62,11.12-5.23,6-6.55,12.84-7.38,16.88a45.91,45.91,0,0,0,2,25c.91,1.31,4.16,5.71,9,6,6.76.39,11.52-7.53,13-10,3.1-5.16,1.72-6.75,5-15,2.77-7,4.61-11.59,9-14S56.28,237.24,64.68,236.25Z"/><path class="cls-13" d="M141.68,86.25c2.89-1.12,5.39,4.56,11,5,4.86.38,10.38-3.3,12-8,2.19-6.34-2.44-15.27-12-18-4.72.94-27.37,5.57-40.39,12.25-2.74,1.4-5.78,3.27-7.61,6.75-2.44,4.65-1.52,10-1,13,.63,3.59,1.24,3.31,3,9.44,2.18,7.7,1.5,9.17,3.39,11.2,2.77,3,8.68,4.59,11.64,2.36,5.56-4.19-2.33-19.45,3-23,3.34-2.23,8.09,2.66,12,0S138.54,87.47,141.68,86.25Z"/><path class="cls-13" d="M240.68,122.25,230,154.07c-5,6.63-8.26,7.53-10.32,7.18-3.73-.64-4.1-5.51-10-9-4.65-2.76-6.81-1.14-10-3-8.65-5.06-10.6-27.5-1-36,6.81-6,16.4-2.38,19-8,2.27-4.91-4.17-9.54-3-15,1-4.83,8-10.18,33-13a72,72,0,0,1-7,45Z"/><path class="cls-13" d="M239.89,188.41c-1.55-3.38.32-6.16,1.66-12.53a54.19,54.19,0,0,0,.72-17.45,39.9,39.9,0,0,1,15.22,10.31c3.3,3.63,6.23,6.86,6.29,11.52.07,6-4.62,13-11.58,13.94C247.36,194.84,241.74,192.49,239.89,188.41Z"/><path class="cls-13" d="M68.41,148.12c-.51-5.62,4.83-9.67,7.31-11.56,7.34-5.58,16-5.14,19.36-4.79-2.47,1.93-5.6,5.07-6.53,9.53-1,5,1.52,7.32-.16,10.57-2.13,4.13-9.64,6.9-15.08,3.69C73.06,155.4,68.84,152.82,68.41,148.12Z"/><path class="cls-14" d="M174.68,231.25a13.5,13.5,0,0,1-2,13,86.33,86.33,0,0,1-26-6c-6.1-2.47-14.58-6-23-14a62.69,62.69,0,0,1-14-20l5.69-6.24a68.27,68.27,0,0,0,3.31,7.24c2.17,4.06,6,11.2,13,17,10.22,8.42,21.86,9.56,27,10A54.94,54.94,0,0,0,174.68,231.25Z"/></g></svg>