<svg xmlns="http://www.w3.org/2000/svg" xmlns:xlink="http://www.w3.org/1999/xlink" width="315" height="370" viewBox="0 0 315 370"><defs><style>.cls-1{fill:#5c4200;}.cls-2{fill:#f4ad29;}.cls-3{fill:url(#linear-gradient);}.cls-4{fill:#ff5f99;}.cls-5{fill:url(#linear-gradient-2);}.cls-6{fill:url(#linear-gradient-3);}.cls-7{fill:#7f4700;}.cls-8{fill:url(#linear-gradient-4);}.cls-9{fill:#c77814;}.cls-10{fill:#c7852e;}</style><linearGradient id="linear-gradient" x1="23.22" y1="332.14" x2="27.02" y2="322.55" gradientUnits="userSpaceOnUse"><stop offset="0.44" stop-color="#ff7aab"/><stop offset="1" stop-color="#ff87b3"/></linearGradient><linearGradient id="linear-gradient-2" x1="219.63" y1="49.8" x2="222.19" y2="35.85" gradientUnits="userSpaceOnUse"><stop offset="0" stop-color="#ff5f99"/><stop offset="0.44" stop-color="#ff7aab"/><stop offset="1" stop-color="#ff87b3"/></linearGradient><linearGradient id="linear-gradient-3" x1="273.12" y1="144.87" x2="284.82" y2="154.42" xlink:href="#linear-gradient-2"/><linearGradient id="linear-gradient-4" x1="201.66" y1="348.95" x2="197.07" y2="341.99" xlink:href="#linear-gradient"/></defs><g id="second_bear" data-name="second bear"><path class="cls-1" d="M278.79,200.65c.17-3.77,3-4.45,5-11.5,1-3.64.88-5.71,2-6,1.79-.46,4.44,4.24,6,7,2.7,4.77,4,7.16,4,10.5-.06,4.65-2.76,10.94-7,11.5C284,212.78,278.55,206,278.79,200.65Z"/><path class="cls-2" d="M59.79,350.15c26.88-7.78,37.56-54.36,22.2-70.41-10.19-10.64-30.85-6.62-45.2-3.59-10.49,2.22-32.23,5.87-36,19-1.56,5.43.26,11.34,2,17a58.69,58.69,0,0,0,9,17C20,339.58,40.65,355.69,59.79,350.15Z"/><path class="cls-2" d="M231,326.26c.13-13.91-9.86-23.79-16.25-30.11a61.24,61.24,0,0,0-22-14c-6.48-2.34-26.48-9.56-41,1-10,7.26-12.28,19.22-13,23-4.46,23.32,9.4,55.21,35,61,18.88,4.27,35-7.73,38-10C216.39,353.72,230.89,342.9,231,326.26Z"/><path class="cls-2" d="M218.79,217.15a24.82,24.82,0,0,0-4-14c-2.18-3.2-4.35-4.46-4-5,.71-1.09,11.37,1.86,17,10,1.23,1.78,2.42,3.5,3.75,5.62.93,1.5,3.33,5.43,5.24,9.36,4,8.24,7.66,15.84,5,23.05a16,16,0,0,1-4,6l-26,12a67.28,67.28,0,0,0,3-7,80.29,80.29,0,0,0,3-11,81.13,81.13,0,0,0,2-14A68.81,68.81,0,0,0,218.79,217.15Z"/><path class="cls-2" d="M124.79,134.15c0-.07-25.08,3.53-58,15,0,0-22.1,7.7-36.46,22.44-2.42,2.48-5.31,6.06-6,11a18,18,0,0,0,2,11c3.4,6.3,5.14,12,11,22,2.47,4.24,3.47,5.74,4.46,5.56,2-.36,1.39-6.94,4-16,1.21-4.2,2.51-6.88,5-12a153.23,153.23,0,0,1,18-28l17-15a83.32,83.32,0,0,1,39-16Z"/><path class="cls-2" d="M295.79,60.15c3.21.77,4,1.47,4,2,0,1.57-6.55,1.7-12,6a20.55,20.55,0,0,0-6,8,63,63,0,0,0-16-15,63.78,63.78,0,0,0-29-10,49,49,0,0,1,12-1c11.75.48,17.35,5,31,8A91.32,91.32,0,0,0,295.79,60.15Z"/><path class="cls-2" d="M279.79,73.15a44,44,0,0,0,12,8c4.52,2,9.09,3.07,17,7,3.2,1.59,6.21,3.28,6,5-.11.92-1.1,1.57-2,2-1.16-.45-9.05-3.33-16,1a15.9,15.9,0,0,0-5,5,68.21,68.21,0,0,0-12-28Z"/><path class="cls-2" d="M220.16,227.71c.19,32.41-19.82,55.47-26,62-25,26.44-56.71,29.25-67,30-9,.66-58.56,4.26-81-29-17.45-25.85-8-58.39-2-79,3.34-11.49,8.87-29.76,25-47,5.25-5.61,27.69-29.61,59-31C174,131.68,219.87,179,220.16,227.71Z"/><path class="cls-2" d="M274.79,68.15c-22.88-22.36-57.47-18-73-16-11.74,1.49-26.62,3.37-42,14-28.14,19.44-33.28,51.09-34,56-1.1,7.52-6.38,43.67,19,66,22.8,20.06,53.54,14.17,59,13,20.75-4.44,35.16-21,64-54,20.7-23.72,23.83-33.15,24-42C292.19,85.14,277.47,70.77,274.79,68.15Z"/><path d="M243.76,110c.6-1.73-.41-3.79-1.47-4.94-3.17-3.45-10.15-2.38-14.57.06-5.18,2.85-9.56,9.07-7.91,12,1.21,2.18,5.48,2.4,8.28,1.75s3-2,7.39-4.4C240.46,111.85,243,112.16,243.76,110Z"/><path d="M255.79,131.15c.15-2.78-3.77-4.88-4-5-3.38-1.77-6.92-.66-9,0-1.56.49-6.6,2.08-9,7-.52,1.07-2.35,4.82-.83,6.68,2.28,2.79,10.43-.76,14.83-2.68S255.66,133.67,255.79,131.15Z"/><path class="cls-3" d="M43.79,345.15c-3.3,2.57-15.33-7.29-22-14-8.93-9-16.95-21.09-15-23,.85-.83,6.58,2.77,18,10,10.66,6.75,13.55,9,16,13C43.72,335.94,46.08,343.36,43.79,345.15Z"/><path class="cls-4" d="M28.79,306.15a3.48,3.48,0,0,1-2,3c-2.66,1.25-7.14-1.51-7-4,.08-1.37,1.55-2.62,3-3a4.71,4.71,0,0,1,4,1C27.43,303.61,28.78,304.59,28.79,306.15Z"/><path class="cls-4" d="M43.79,318.15c-.19,2.27-3.2,4.32-6,4-3-.35-5.67-3.49-5-6,.48-1.79,2.49-2.78,4-3C40.09,312.66,44,315.4,43.79,318.15Z"/><path class="cls-4" d="M59.79,332.15c-.15-2-4-3.84-7-3-.31.09-2.55.72-3,2.5s1.25,3.87,3,4.5C55.88,337.26,60,334.3,59.79,332.15Z"/><path class="cls-2" d="M240.79,52.15c-6.18,3.23-9.55-1-24-1-16.19,0-20.46,5.27-25,2-8.47-6.1-7.4-34.39,10-46a33.12,33.12,0,0,1,34-1c1.93,1.09,12.78,7.26,15,20C252.5,35.93,248.83,48,240.79,52.15Z"/><path class="cls-2" d="M258.79,159.15c0-2.12,2-4.44,6-9,12-13.8,12.3-14.1,13-15,8.11-10.45,6.93-15.12,11-16,6.32-1.37,14.84,8.66,18,18,.8,2.37,4.14,12.25-1,22-6.4,12.13-21.9,16.43-33,13C266.55,170.22,258.7,164.93,258.79,159.15Z"/><path class="cls-5" d="M226.79,52.15c-1.65.67-2.5-.84-7-1-3.61-.13-4.45.79-6,0-2.45-1.25-3.4-5.11-3-8,.66-4.77,5.22-8.58,10-9a9.34,9.34,0,0,1,7,2C232.67,40.55,230.49,50.65,226.79,52.15Z"/><path class="cls-6" d="M263.79,152.65c-.14,4.8,5.82,10.28,12,10.5,7.31.25,12.73-6.92,14-13,1.06-5.08-.15-12.33-5-15a8.1,8.1,0,0,0-5-1c-3.23.47-4.43,3-10,10C264.72,150.56,263.84,150.84,263.79,152.65Z"/><path class="cls-7" d="M211.75,126.26c11.1,13.81,14.39,37.27,2.93,53-6.49,8.88-19.19,17.28-29.58,14.4-1.52-.43-5.17-1.44-7.25-4.63-3.52-5.42,2.08-10.06,1.8-23.13-.14-6.18-1.52-11.12,1-12.87a51.08,51.08,0,0,1,7.16-3.4A37.79,37.79,0,0,0,194.5,146s2.16-1.48,1.81-2.18a5.25,5.25,0,0,0-1-.85l-.07,0c-1.35-1-12.5,8.91-17.46,6.65-1.21-.55-1.69-1.67-2.27-2.8-5.79-11.38-14.65-12.13-15.89-19.61a13.81,13.81,0,0,1,2.15-9.24c6.14-9.21,23.68-8.08,34.85-3.25A40.1,40.1,0,0,1,211.75,126.26Z"/><path class="cls-1" d="M52.79,274.15c-1.67-2-4.63-1.65-26,4-11.2,3-17.14,4.65-22,10-.25.28-5.07,5.62-4,7,.56.72,2.49.06,3.19-.15,10.61-3.3,23.78,4.64,27.68-.21,2-2.45-.89-5.07,1.13-7.64,3.6-4.58,14.16,1.78,19-3C54.32,281.65,54.83,276.56,52.79,274.15Z"/><path class="cls-1" d="M191.79,53.15a88.09,88.09,0,0,0-61,50c5.26,5.78,8.84,6.34,11,6,8.74-1.37,9.94-19.92,19-21,4.83-.58,6.93,4.41,11,3,5.91-2,4.59-13.62,10-15,3.94-1,7.09,4.52,11,3,2.57-1,3.5-4.26,4-6C199.33,64.3,193.57,55.64,191.79,53.15Z"/><path class="cls-1" d="M138.79,182.15a63.87,63.87,0,0,1-10-17,64.94,64.94,0,0,1-4-31,91.34,91.34,0,0,0-65,48c12.27,2,15.85,6,17,9,3.77,9.91-13.72,21.69-9,34,.32.84,2,5.16,6,7,5.44,2.49,9.77-2,13,0,5.45,3.44-2.8,18.9,3,24,4.07,3.58,14.68,1.72,18-4,5.71-9.85-12.6-27-7-34,3.41-4.27,11.64.24,16-5,3.75-4.5-.39-10.16,2-17C120.38,191.62,125,186.05,138.79,182.15Z"/><path class="cls-1" d="M64.79,151.15c-3.3-2.51-10.76,2.28-21,9-9.44,6.19-17,11.27-16,15,.51,1.82,3,3.13,5,3,2.33-.16,3-2.27,6-5,.88-.81,5.79-5.33,12-6,4.88-.53,7.31,1.68,9,0,2-2-.29-6.3,2-8,1.4-1,2.92.07,4-1C67.21,156.74,66.76,152.65,64.79,151.15Z"/><path class="cls-1" d="M196.79,299.15a2.93,2.93,0,0,0,0-3c-.93-1.32-3.21-.62-4-2a1.94,1.94,0,0,1,0-2c1.59-1.81,9.14,4.3,12,2a3.43,3.43,0,0,0,1-3c-1.21-7.3-42-17.74-57,0-9.19,10.9-7.18,30.78-4,32a2.43,2.43,0,0,0,2,0c1.17-.69.57-2.48,2-4,.18-.19,1.18-1.25,2-1,1,.31.72,2.32,2,3a2.63,2.63,0,0,0,2,0c3.79-1.18,3.49-13.1,10-19,3.21-2.91,7.05-3.46,11-4C186.67,296.65,194.91,302,196.79,299.15Z"/><path d="M196.79,144.15c-3.11-7.44,6.51-19.9,14-19,5.1.61,8.21,7.29,9,9,.67,1.44,4.05,8.71,1,13C216.44,153.27,200,151.83,196.79,144.15Z"/><path class="cls-8" d="M216.79,341.15c.1-.38.92-3.87-1-6-3.28-3.64-11.88-.23-15,1-2.89,1.14-9.58,3.9-14,11-1.29,2.07-4.85,7.78-3,10,2,2.45,9.31-1,22-7C212.5,347,215.87,344.84,216.79,341.15Z"/><path class="cls-4" d="M174.08,341.61c.39,1,0,1.84-.62,3.55s-1,2.67-2,3a3.52,3.52,0,0,1-3.95-1.54c-1.44-2.39.93-6.83,3.48-7A3.28,3.28,0,0,1,174.08,341.61Z"/><path class="cls-4" d="M191.81,328.4c0,.28-.19.49-2.12,1.87-2.4,1.73-2.75,1.82-3.11,1.81a3.19,3.19,0,0,1-2.87-2.18c-.57-2,1.73-4.81,4.3-4.74C190.05,325.21,192,327.12,191.81,328.4Z"/><path class="cls-4" d="M212.52,324c-.44.52-1,.25-3.14.4-2.62.18-3.14.7-4.11.21a2.8,2.8,0,0,1-1.58-2.35c.08-1.85,3.21-3.36,5.68-3a4.08,4.08,0,0,1,2.75,1.56C212.75,321.74,213.16,323.24,212.52,324Z"/><path class="cls-9" d="M37.86,215.89A133,133,0,0,1,44.76,202c2.4-4.17,5.59-9.22,6-9s-1.09,2.74-3,8c-1.09,3-2,6.36-4,13-.86,2.94-1.54,5.37-2,7a13.41,13.41,0,0,1-2-2A13.69,13.69,0,0,1,37.86,215.89Z"/><path class="cls-9" d="M211.76,264a63.85,63.85,0,0,0,5-13c3.1-11.71,2.39-21,3-21s1.47,6.15,1,13a52.8,52.8,0,0,1-5,19C214.43,262.7,213.1,263.37,211.76,264Z"/><path class="cls-10" d="M93.81,312.36c3.61,3.16,16.84,2.73,19,2.67,12.1-.3,14.89.55,17-2,1.14-1.36.6-1.92,3-7a32.9,32.9,0,0,1,4-7,21.43,21.43,0,0,1,8-6,33.13,33.13,0,0,0-5,9,34.28,34.28,0,0,0-2,10,51.2,51.2,0,0,0,0,6,138,138,0,0,1-50.95-.67,36.19,36.19,0,0,0-1-8c-2.23-9.2-7.49-14.62-7-15s7,4.23,11,12C92.11,310.82,92.22,311,93.81,312.36Z"/></g></svg>