<svg xmlns="http://www.w3.org/2000/svg" xmlns:xlink="http://www.w3.org/1999/xlink" width="275" height="320" viewBox="0 0 275 320"><defs><style>.cls-1{fill:none;}.cls-2{clip-path:url(#clip-path);}.cls-3{clip-path:url(#clip-path-2);}.cls-4{fill:#e3f2fd;}.cls-5{fill:#a9d6e5;}.cls-6{fill:#bbdefb;}.cls-7{fill:#876aff;}.cls-8{fill:#4e3e94;}.cls-9{fill:#fff;}.cls-10{fill:#5c4200;}</style><clipPath id="clip-path"><rect class="cls-1" x="-698.33" y="340.03" width="1900" height="1080"/></clipPath><clipPath id="clip-path-2"><rect class="cls-1" x="-977.78" y="151.42" width="2811.14" height="792"/></clipPath></defs><g id="second_bear" data-name="second bear"><g class="cls-2"><g class="cls-3"><rect class="cls-1" x="-164.56" y="151.42" width="813.23" height="813.23"/><rect class="cls-4" x="-164.56" y="151.42" width="813.23" height="813.23"/><rect class="cls-5" x="153.83" y="310.61" width="143.28" height="143.28" rx="41.27"/><rect class="cls-6" x="-5.36" y="310.61" width="143.28" height="143.28" rx="41.27"/><rect class="cls-6" x="153.83" y="151.42" width="143.28" height="143.28" rx="41.27"/><rect class="cls-5" x="-5.36" y="151.42" width="143.28" height="143.28" rx="41.27"/></g></g><path class="cls-7" d="M185.68,125.89C155.81,88.8,168,41.44,153.74,37.69c-9-2.35-23.91,13.77-30.41,30.42-12.32,31.57,9.35,55.58-1.7,99-1.78,7-4.22,13.44-9.19,19.68-7,8.82-15.23,11.73-39.36,19.68C35,219,28.29,220.67,20.59,228.76A52.2,52.2,0,0,0,7.47,253.69C3,275.27,13.25,301.27,32.4,311.42,47.76,319.56,64,315,77,311.42c16.09-4.41,20.62-10,51.18-28.86,35.57-22,37.43-20.83,47.23-28.87,13.71-11.23,36.53-37.9,37.63-105A93.08,93.08,0,0,1,185.68,125.89Z"/><path class="cls-7" d="M195.26,148.78,140.14,53.31a9.15,9.15,0,0,1,3.34-12.47L204.68,5.5a12.56,12.56,0,0,1,6.92-.9c7,1.25,11,9.33,12.85,13.33,8.64,18.35,20.78,45.52,25.85,55.5a132.12,132.12,0,0,0,22,30.89,9.39,9.39,0,0,1,.9,6.92,9.07,9.07,0,0,1-4.24,5.54q-3.58,1.44-7.22,3a251.48,251.48,0,0,0-54,32.31C207.19,152.43,204.36,154,195.26,148.78Z"/><path class="cls-8" d="M209.25,151c.25.43-4.31,5.78-9.13,6.08-7.92.5-13.83-12.8-31.17-44.85C156.31,88.83,149.1,76.77,144.62,78c-1.56.43-2.41,2.36-3,3.8-3.41,7.77,2.76,16.49,2.28,16.73s-12-11.26-7.6-22c1.37-3.36,4.87-8.47,9.12-8.36s6.42,5.41,12.93,17.48c2.94,5.46-19.24-36.35,12.92,22.81,5.75,10.58,12.62,20.53,18.25,31.18,3.42,6.48,6.73,13.21,12.16,13.68C205.52,153.6,209,150.63,209.25,151Z"/><ellipse class="cls-8" cx="187.61" cy="112.99" rx="3.85" ry="20.56" transform="translate(-28.08 75) rotate(-21.07)"/><ellipse class="cls-8" cx="199.61" cy="107.73" rx="3.85" ry="19.75" transform="translate(-26.42 88.72) rotate(-23.55)"/><ellipse class="cls-8" cx="214.07" cy="101.33" rx="3.85" ry="19.08" transform="translate(-22.74 105.39) rotate(-26.31)"/><ellipse class="cls-8" cx="228.34" cy="94.4" rx="3.85" ry="19.22" transform="translate(-18.7 99.09) rotate(-23.55)"/><ellipse class="cls-8" cx="243.92" cy="87.33" rx="3.85" ry="18.4" transform="translate(-14.58 104.72) rotate(-23.55)"/><path d="M99,230.65c2.23,6.93-4.1,15.71-9.92,15.37-4.11-.24-7.53-5-8.2-9.36-.86-5.58,2.44-12.64,8-13.31C93.41,222.81,97.75,226.6,99,230.65Z"/><path d="M130.19,219.82c1,6.74-5.1,13.88-10.66,13.28-4.27-.47-7.26-5.39-7.92-9.45-.82-5.1,1.51-12.19,6.93-13.32S129.35,214.4,130.19,219.82Z"/><circle class="cls-9" cx="88.71" cy="231.85" r="2.64"/><circle class="cls-9" cx="119.19" cy="220.38" r="2.64"/><path d="M106.6,276.43c.64-.67-4.33-10.35-11.4-10.64-8.54-.35-13.46,13.28-12.93,13.69s7-10.44,12.93-9.13c.43.1,3.08,1.59,8.36,4.56C106.14,276.37,106.48,276.56,106.6,276.43Z"/><path class="cls-10" d="M107.36,215.61c4-5,0-11,4.57-14.45,7.06-5.38,19.75,6.92,30.41.76.65-.37,5-3,6.08-7.6,1.19-5.25-3.27-7.31-4.56-13.69C141.71,170,152,165,149.18,155.54c-1.56-5.36-6.19-8.44-8.36-9.88a24.39,24.39,0,0,0-16-3.8,94.81,94.81,0,0,1-1.52,16c-1,5.26-3.2,17.64-9.12,26.62-7.49,11.34-19.46,15.16-41.06,22.05-14.39,4.58-22.9,5.16-37.26,12.92A114.53,114.53,0,0,0,23.73,227a46.8,46.8,0,0,0,2.3,23.5c1.64,4.35,7.23,19.2,18.25,20.53a15.91,15.91,0,0,0,12.17-3.8c12.74-11.53-5.25-38.68,5.29-48.59C72.09,208.92,98.68,226.36,107.36,215.61Z"/><path class="cls-10" d="M38.17,199.64c-1.19,1.45-4.46-1.91-11.4-1.52-9,.51-11.65,6.61-16.73,5.32C4.58,202.06-.64,192.89,2.44,186c3-6.75,12.08-7.45,16.73-6.85C32.36,180.82,40.41,196.93,38.17,199.64Z"/><path class="cls-10" d="M240.42,49.86c.4,6.41-1.79,11.72-5.32,12.92-3.8,1.3-8.19-2.46-10.65-4.56-6.15-5.26-5.27-9.34-9.88-12.16-6.4-3.92-15.13-.36-16,0-10.5,4.45-12.21,15.89-17.49,15.2-3.89-.5-5.93-7.12-6.08-7.6-2.59-8.71,4.85-14.43,2.28-22.81A15.26,15.26,0,0,0,172.75,24c2.95-1.52,7.82-4.1,13.69-7.61C201.17,7.61,205.55,3,211.53,4.24c4.13.89,6.42,4,10.64,9.88,6.18,8.53,5.88,14.06,12.17,25.85A93.89,93.89,0,0,0,240.42,49.86Z"/><path class="cls-10" d="M255.63,160.11c-5.28-3.86-7-7.49-8.37-6.85-1.83.87,0,8.19.76,11.41,2.75,11.15,5.14,20.87,11.41,22.05,4.19.78,9.32-2.4,11.4-6.85a12.08,12.08,0,0,0-.76-11.4C267.11,163.88,263,165.52,255.63,160.11Z"/></g></svg>