<svg xmlns="http://www.w3.org/2000/svg" xmlns:xlink="http://www.w3.org/1999/xlink" width="130" height="130" viewBox="0 0 130 130"><defs><style>.cls-1{fill:none;}.cls-2{clip-path:url(#clip-path);}.cls-3{clip-path:url(#clip-path-2);}.cls-4{clip-path:url(#clip-path-3);}.cls-5{fill:#e3f2fd;}.cls-6{fill:#bbdefb;}.cls-7{fill:#a9d6e5;}.cls-8{fill:#fd79ab;}.cls-9{fill:#fdb4c7;}.cls-10{fill:#c56482;}.cls-11{opacity:0.53;}</style><clipPath id="clip-path"><rect class="cls-1" x="-2442.18" y="-53.78" width="1916.5" height="1080"/></clipPath><clipPath id="clip-path-2"><rect class="cls-1" x="-2440.68" y="-54.31" width="1916.5" height="1080"/></clipPath><clipPath id="clip-path-3"><rect class="cls-1" x="-2722.55" y="-242.92" width="2835.55" height="792"/></clipPath></defs><g id="Sad_Poop" data-name="Sad Poop"><g class="cls-2"><g class="cls-3"><g class="cls-4"><rect class="cls-1" x="-261.69" y="-242.92" width="820.29" height="813.23"/><rect class="cls-5" x="-261.69" y="-242.92" width="820.29" height="813.23"/><path class="cls-6" d="M162.36,218.75H101.09a41.45,41.45,0,0,1-41.62-41.27V116.74a41.45,41.45,0,0,1,41.62-41.27h61.27A41.45,41.45,0,0,1,204,116.74v60.74A41.45,41.45,0,0,1,162.36,218.75Z"/><path class="cls-7" d="M1.78,218.75H-59.48a41.45,41.45,0,0,1-41.63-41.27V116.74A41.45,41.45,0,0,1-59.48,75.47H1.78a41.45,41.45,0,0,1,41.63,41.27v60.74A41.45,41.45,0,0,1,1.78,218.75Z"/><path class="cls-7" d="M162.36,59.55H101.09A41.45,41.45,0,0,1,59.47,18.28V-42.46a41.45,41.45,0,0,1,41.62-41.27h61.27A41.45,41.45,0,0,1,204-42.46V18.28A41.45,41.45,0,0,1,162.36,59.55Z"/><path class="cls-6" d="M1.78,59.55H-59.48a41.45,41.45,0,0,1-41.63-41.27V-42.46A41.45,41.45,0,0,1-59.48-83.73H1.78A41.45,41.45,0,0,1,43.41-42.46V18.28A41.45,41.45,0,0,1,1.78,59.55Z"/></g></g></g><rect class="cls-8" x="3.5" y="3.5" width="123" height="123" rx="12"/><path d="M59.11,67c.92-12.85-7.22-21.31-8.46-22.56a27.93,27.93,0,0,0-15.52,1.41,24.39,24.39,0,0,0-11.28,8.46A20.27,20.27,0,0,0,19.62,67a19.79,19.79,0,0,0,4.23,11.29C32,89,48.26,86.92,49.23,86.78A29.68,29.68,0,0,0,59.11,67Z"/><path d="M42.18,67C41.79,45.55,61.33,26.85,84.49,29V103.7C61.87,105.78,42.57,88,42.18,67Z"/><ellipse cx="102.42" cy="35.25" rx="10.96" ry="4.94" transform="translate(5.07 82.74) rotate(-45)"/><ellipse cx="103.55" cy="66.01" rx="10.96" ry="4.94" transform="translate(-2.63 4.32) rotate(-2.36)"/><ellipse cx="102.42" cy="95.27" rx="4.94" ry="10.96" transform="translate(-37.37 100.32) rotate(-45)"/><path class="cls-9" d="M7.76,53.33a2.3,2.3,0,0,0,2.05-2.66V16.78c0-1.62,0-3.23.07-4.85a16.31,16.31,0,0,1-1.31-1.39c-.57-.68-.66-.92-.82-.93-.48,0-1.17,2.1-1.58,7.09-.69,8.39-.47,23.44-.2,34A2.29,2.29,0,0,0,7.76,53.33Z"/><path class="cls-9" d="M7.66,10.09c-.33.78-.19,1.34.34,3.86.41,2,1,4.74,1.66,8.14a11.07,11.07,0,0,1,3-9,11,11,0,0,1,9-3h47L84,9.69c1.69-.31,2.74-1.39,2.66-2.13s-1.52-1.71-3.47-1.39C79.84,6.09,77.27,6,76,6c0,0-41.41-1.28-56.78-.2,0,0-1.18.09-2.87.4C12.94,6.79,8.73,7.57,7.66,10.09Z"/><path class="cls-10" d="M123.39,58.29c-.93-.08-2,1.54-1.89,3.76v48.1l-.18,3.14c.39,1,1.32,3.12,2,3,.29-.06.21-.5,1-3a9.44,9.44,0,0,0,.53-3s-1.52-26.83.18-48.22C125.19,60,124.26,58.37,123.39,58.29Z"/><path class="cls-10" d="M124.32,109.29c-.41-.93-1.27-2.12-2-2-1.49.23-.51,5.51-3,9-1.46,2-4.47,4-11.11,4q-23.23.18-47,0l-7.41-.06c-1.64.12-2.73,1-2.43,2s1.67,1.42,3.17,1.28c3,.07,5.29.14,6.55.18l51.87.18a9.4,9.4,0,0,0,2.62-.36C121.61,121.77,126.28,113.79,124.32,109.29Z"/></g></svg>