<svg xmlns="http://www.w3.org/2000/svg" xmlns:xlink="http://www.w3.org/1999/xlink" width="590" height="555" viewBox="0 0 590 555"><defs><style>.cls-1{fill:none;}.cls-2{clip-path:url(#clip-path);}.cls-3{clip-path:url(#clip-path-2);}.cls-4{clip-path:url(#clip-path-3);}.cls-5{fill:#e3f2fd;}.cls-6{fill:#bbdefb;}.cls-7{fill:#a9d6e5;}.cls-8{fill:#5c4200;}.cls-9{fill:#6b5504;}.cls-10{fill:#453002;}.cls-11{fill:#ff5f99;}.cls-12{fill:#ffc4da;}.cls-13{opacity:0.53;}.cls-14{clip-path:url(#clip-path-4);}.cls-15{clip-path:url(#clip-path-5);}</style><clipPath id="clip-path"><rect class="cls-1" x="-2236.61" y="-820.15" width="1916.5" height="1080"/></clipPath><clipPath id="clip-path-2"><rect class="cls-1" x="-2235.11" y="-820.67" width="1916.5" height="1080"/></clipPath><clipPath id="clip-path-3"><polygon class="cls-1" points="1824.85 418.33 -4340.15 418.33 -2675.63 -216.96 160.33 -216.96 1824.85 418.33"/></clipPath><clipPath id="clip-path-4"><rect class="cls-1" x="645.09" y="-799.1" width="1920" height="1077"/></clipPath><clipPath id="clip-path-5"><polygon class="cls-1" points="4712.45 436.46 -1463.8 436.46 203.75 -197.06 3044.9 -197.06 4712.45 436.46"/></clipPath></defs><g id="Sad_Poop" data-name="Sad Poop"><g class="cls-2"><g class="cls-3"><g class="cls-4"><polygon class="cls-1" points="-214.41 -216.96 606 -216.96 2925.27 456.54 1083.88 456.54 -214.41 -216.96"/><polygon class="cls-5" points="-214.41 -216.96 606 -216.96 2925.27 456.54 1083.88 456.54 -214.41 -216.96"/><path class="cls-6" d="M1008.3,180.29H902c-39.87,0-116.81-20.06-169.3-43.66L605.19,79.29c-43.74-19.66-50.08-34.94-16-34.94h90.87c34.09,0,99.79,15.28,148.78,34.94l142.87,57.34C1030.51,160.23,1048.17,180.29,1008.3,180.29Z"/><path class="cls-7" d="M729.81,180.29H623.55c-39.87,0-110.86-20.06-156.34-43.66L356.67,79.29c-37.9-19.66-39.71-34.94-5.62-34.94h90.87c34.09,0,95.26,15.28,138.42,34.94l125.85,57.34C758,160.23,769.68,180.29,729.81,180.29Z"/><path class="cls-6" d="M883.75,31.64H794.32c-33.55,0-96.7-14.26-139.29-31.15L550.08-41.14C513.62-55.6,508.93-66.9,538.29-66.9h78.27c29.37,0,84.7,11.3,125,25.76L857.65.49C904.75,17.38,917.3,31.64,883.75,31.64Z"/><path class="cls-7" d="M649.37,31.64H560c-33.56,0-92.47-14.26-130.05-31.15L337.31-41.14C305.13-55.6,303.79-66.9,333.16-66.9h78.27c29.37,0,81.34,11.3,117.38,25.76L632.52.49C674.61,17.38,682.93,31.64,649.37,31.64Z"/><path class="cls-6" d="M415,31.64H325.57C292,31.64,237.33,17.38,204.77.49L124.53-41.14C96.64-55.6,98.66-66.9,128-66.9H206.3c29.36,0,78,11.3,109.73,25.76L407.38.49C444.46,17.38,448.55,31.64,415,31.64Z"/><polygon class="cls-1" points="-1034.82 -216.96 -214.41 -216.96 1083.88 456.54 -757.5 456.54 -1034.82 -216.96"/><polygon class="cls-5" points="-1034.82 -216.96 -214.41 -216.96 1083.88 456.54 -757.5 456.54 -1034.82 -216.96"/><path class="cls-6" d="M810.38,397.87H679.49c-49.11,0-137.36-30.29-193.71-65.54l-134.28-84c-45.2-28.27-47.07-50.05-6.44-50.05h108.3c40.63,0,114.21,21.78,167,50.05l156.7,84C842.79,367.58,859.5,397.87,810.38,397.87Z"/><path class="cls-7" d="M467.33,397.87H336.44c-49.12,0-128.37-30.29-174.27-65.54l-109.35-84C16,220.07,20.6,198.29,61.23,198.29h108.3c40.63,0,107.74,21.78,152.1,50.05l131.79,84C508.73,367.58,516.44,397.87,467.33,397.87Z"/><path class="cls-6" d="M124.27,397.87H-6.62c-49.11,0-119.38-30.29-154.81-65.54l-84.43-84c-28.42-28.27-17.37-50.05,23.26-50.05h108.29C-73.67,198.29-13,220.07,23,248.34l106.86,84C174.66,367.58,173.39,397.87,124.27,397.87Z"/><path class="cls-7" d="M421.15,180.29H314.9c-39.87,0-104.27-20.06-142-43.66L81.23,79.29C49.79,59.63,53,44.35,87.11,44.35H178c34.1,0,90.24,15.28,126.93,34.94l107,57.34C455.91,160.23,461,180.29,421.15,180.29Z"/><path class="cls-6" d="M142.66,180.29H36.41c-39.87,0-98.31-20.06-129-43.66l-74.65-57.34C-192.89,59.63-185.14,44.35-151,44.35h90.86c34.1,0,85.71,15.28,116.56,34.94l90,57.34C183.38,160.23,182.53,180.29,142.66,180.29Z"/><path class="cls-6" d="M155.23,31.64H65.8C32.25,31.64-17.75,17.38-44.75.49L-111.3-41.14c-23.13-14.46-17.39-25.76,12-25.76h78.27C8.31-66.9,53.21-55.6,80.2-41.14L157.86.49C189.38,17.38,188.79,31.64,155.23,31.64Z"/></g></g></g><path class="cls-8" d="M231.41,145.23c-2.64-28.11-28.83-29.45-38.31-64.23-5-18.43-7.24-53.19,14.65-67.61,17.64-11.63,46.29-7,57.47,7.89C275.56,35,263,46.89,272,72c8.93,24.9,30.26,38.1,36.06,41.69a96.29,96.29,0,0,0,41.7,13.52c15,1.3,30.38-.92,48.45-7.88,58.54-22.55,61-62.23,99.17-66.49,28.25-3.16,61.52,14.71,65.36,36.06,1.92,10.7-3.3,22.9-11.27,30.43-17.72,16.73-39.12,1.11-63.11,16.9-12.87,8.47-22.27,23.21-23.66,38.31-.48,5.18-.9,20,15.77,41.7,34.27,44.54,75.31,32.85,93.54,66.48,14,25.92,7,64.81-10.15,73.25-21.34,10.53-46.56-31.29-81.13-22.54-20.63,5.23-40.25,27.35-41.7,49.59-2.49,38.44,51.1,50.1,54.09,96.91,1.48,23-9.81,46.4-27,58.6-38.54,27.28-104.62-.68-111.56-30.43-5.59-23.93,29.88-37,25.92-68.74-3.17-25.28-29.76-49.1-57.48-51.84-24.46-2.4-43.39,12.26-55.21,21.42-31.31,24.24-24.53,43.54-51.84,63.1-21.84,15.64-55.5,24.3-82.26,11.27-4.19-2-22-10.69-28.17-29.3-8-24.09,7.77-51.6,24.79-66.49,32.87-28.76,67.28-7.78,86.77-32.67,16.49-21.07,11.53-61.23-9-78.89-16.42-14.1-39.42-10.94-74.37-5.63C71.68,280,46.9,304.08,24.07,289.48c-17.28-11.05-18-34.35-18-36.06-.5-30.35,32.51-58.56,63.1-62,31.64-3.55,41.84,29.43,83.39,29.3A81.11,81.11,0,0,0,192,210.59C213.85,198,233.87,171.37,231.41,145.23Z"/><path class="cls-8" d="M81.54,379.63c12-4.68,8.88-18.69,23.66-37.19,13.16-16.46,27.33-20.05,25.92-23.67-1.84-4.72-26.44.43-43.95,6.77-13,4.7-21.14,7.78-27,16.34-4.91,7.1-10.65,21.41-3.38,31C62.06,379.87,73.21,382.88,81.54,379.63Z"/><path class="cls-8" d="M509.75,202.71c-.2-.84.6-1.71,1.13-2.26,7.23-7.38,21.46-11.22,25.92-12.39,8.29-2.18,12.43-3.27,13.52-3.38,6.59-.71,20.55-2.33,28.17,6.76.84,1,6.57,8.05,4.51,16.9-2.13,9.17-10.91,12.89-12.39,13.52A24.56,24.56,0,0,1,556,223c-13.85-2.81-14.8-13.62-29.3-18C518.94,202.61,510.37,205.17,509.75,202.71Z"/><path class="cls-8" d="M365.26,96.28c-1.89,0-3.6-1.73-11-17.53-7.31-15.59-10.95-23.48-10.14-28.17,1.73-10,11.6-21.52,22.54-20.29,9.07,1,15.28,10.45,16.9,18,.53,2.45.86,6.06-5.63,23.67C371.94,88.17,368.88,96.27,365.26,96.28Z"/><path class="cls-9" d="M532.29,76.49c1.48-5.28-5.5-11.34-6.76-12.39-9.94-8.32-25.67-7.59-37.19-3.38-16,5.86-15.7,15.48-41.69,38.31-10.16,8.93-16.65,14.63-27,20.29-24.22,13.18-46.48,13.53-46.2,17.46.19,2.64,10.28,3.83,11.27,3.95,12.06,1.42,21.71-3,24.79-4.51,25.66-12.24,31.6-24.67,55.22-36.06A206.61,206.61,0,0,1,503,86.64C518.79,83,530.58,82.62,532.29,76.49Z"/><path class="cls-9" d="M254,30.29c-1.31-8.19-13.85-13.44-23.66-13.52-13.17-.11-21.61,9.09-22.54,10.14-5.12,5.76-6.11,12-7.89,22.54a74.1,74.1,0,0,0-1.13,21.41c2.59,24.36,18.43,40.25,25.38,47.22,3.1,3.1,7.83,7.4,8.43,6.87s-4.24-6.74-10.14-15.78c-7-10.69-10.48-16-12.4-21.41-4.62-12.94-3.61-31.06,6.76-42.82,1.83-2.07,10.2-11.57,19.16-10.14,6.42,1,9.43,7.07,13.52,5.63C252.66,39.31,254.59,34.26,254,30.29Z"/><path class="cls-10" d="M490.6,484.43a52.38,52.38,0,0,1-2.26,14.65c-4.79,15.93-15.73,25.29-19.15,28.17-18.39,15.44-40.61,15.07-47.33,14.65-27.54-1.71-47.57-19.82-47.33-20.29.13-.26,7.21,3.93,20.28,7.89a121.6,121.6,0,0,0,13.52,3.38c26.12,4.56,47.33-9,47.33-9,4.29-2.76,17.53-11.53,23.67-28.17a60.52,60.52,0,0,0,3.38-22.54c-.34-12.65-4.28-19.94-3.38-20.29C480.6,452.38,490.62,466.36,490.6,484.43Z"/><path class="cls-10" d="M270.85,397.66c-1-1.24-14.88,6.16-28.17,18-17.62,15.74-16.5,23.59-31.55,37.18-7.91,7.15-22.64,20.45-41.7,21.42-26.34,1.33-46.6-21.62-49.58-18-1.54,1.86,3.2,8.82,7.89,13.53,18.85,18.94,49.09,13.82,50.71,13.52,22.9-4.22,37.35-20.47,46.2-30.43,8.44-9.48,7-11.21,19.16-25.91C259.48,408,271.82,398.88,270.85,397.66Z"/><path class="cls-11" d="M231.21,271.67a6.35,6.35,0,0,1,3.72-8.14,6.09,6.09,0,0,1,3.29-.34,21.32,21.32,0,0,0,11.29-1c2.48-.92,4.51-2.65,3.88-4.34s-2.78-1.87-7.37-1c-7.66,1.37-19.25,3.76-23.31-7.13-2.75-7.37.88-16.38,13.46-21.07a36.93,36.93,0,0,1,14.56-2.38,6.26,6.26,0,0,1,1.77,12.11,7.26,7.26,0,0,1-2.8.46c-4.41-.07-7.7.27-10.11,1.17-3.91,1.45-4.19,2.89-3.78,4,.63,1.7,2.61,1.63,7.53.69,7.64-1.44,19-3.31,22.79,6.73,3.57,9.58-1.47,17.78-13.14,22.13-6.33,2.36-11.68,2.94-16.7,2.21A6.26,6.26,0,0,1,231.21,271.67Z"/><path class="cls-11" d="M282.9,254.71l-9.73-26.09-6.58,2.46a6.13,6.13,0,0,1-4.28-11.48l26.28-9.8a6.13,6.13,0,0,1,4.28,11.48l-6.53,2.43,9.73,26.09a7,7,0,1,1-13.17,4.91Z"/><path class="cls-11" d="M347.2,230.73A7,7,0,0,1,335,237.44l-1.59-2.08-16.17,6,.15,2.61a7,7,0,1,1-14.07.5l-.1-32.35a12.34,12.34,0,0,1,21.65-8.07L346,228.6A7.3,7.3,0,0,1,347.2,230.73Zm-21.34-5L315.8,212.88l.8,16.26Z"/><path class="cls-11" d="M387,211.23a7,7,0,1,1-7.45,11.92l-12.86-8.8-4.95,1.85,3,8a7,7,0,0,1-13.18,4.91l-11.4-30.59c-1.68-4.49-.12-7.9,4.38-9.57l16.23-6.06c10.18-3.79,18.18,1,21.22,9.1,2.48,6.65.49,11.85-2,15Zm-29.35-6,8-3c2.22-.83,3.77-3,2.87-5.45s-3.5-3-5.71-2.18l-8,3Z"/><path class="cls-11" d="M404.39,209.41l-9.72-26.08-6.59,2.45a6.13,6.13,0,0,1-4.28-11.48l26.28-9.79A6.12,6.12,0,1,1,414.36,176l-6.52,2.43,9.73,26.09a7,7,0,0,1-13.18,4.91Z"/><path class="cls-11" d="M305,321l2.62,7c1.31,3.53,1.46,6.52-.51,9.78a27.3,27.3,0,0,1-14.22,11.46c-13.18,4.92-27.14.32-32.32-13.57s2.37-26.51,15.54-31.42a22.56,22.56,0,0,1,15.55-.52,6.62,6.62,0,0,1,4.08,4,6.55,6.55,0,0,1-8.53,8.38,9.13,9.13,0,0,0-6.77-.22c-6.33,2.36-8.77,8.76-6.51,14.83s8.3,9.31,14.63,6.95c3.46-1.29,5.16-2.89,6.05-4.49l-.58-1.56-3.33,1.24a5.94,5.94,0,0,1-7.48-3.53c-1.12-3,.27-6.86,3.2-8l11-4.08A6.13,6.13,0,0,1,305,321Z"/><path class="cls-11" d="M356.14,318a7,7,0,0,1-12.2,6.7l-1.59-2.08-16.18,6,.16,2.62a7,7,0,0,1-13.62,2.92,7.32,7.32,0,0,1-.46-2.43l-.1-32.35a12.34,12.34,0,0,1,21.65-8.07l21.1,24.52A7,7,0,0,1,356.14,318Zm-21.34-5.05-10.05-12.81.79,16.27Z"/><path class="cls-11" d="M398.93,302l-8-21.52.47,28.94a4.05,4.05,0,0,1-7.17,2.67L365.6,290l8,21.52a7,7,0,0,1-13.17,4.91l-10.33-27.71a11.2,11.2,0,0,1,19.12-11.07l11.3,13.76-.47-17.8a11.2,11.2,0,0,1,21.7-4.15l10.33,27.71A7,7,0,1,1,398.93,302Z"/><path class="cls-11" d="M418.76,293.45l-11-29.54c-1.67-4.5-.12-7.9,4.38-9.58l21.19-7.9a5.85,5.85,0,0,1,4.09,11l-15,5.59,1.89,5.09,14.55-5.42a5.84,5.84,0,1,1,4.08,11L428.38,279l2.07,5.54,15-5.59a5.85,5.85,0,0,1,4.09,11l-21.19,7.9C423.84,299.51,420.43,298,418.76,293.45Z"/><path class="cls-12" d="M307.43,242a5.17,5.17,0,0,0,0-2c-.18-.86-.12-4.86,0-12.86.13-9.55.13-14.34,2-17.8s4.39-5.45,4-5.93-3.9,1.06-5.93,3.95a12.66,12.66,0,0,0-2,6.93,159.73,159.73,0,0,0,0,19.78c.25,5.91.37,9.84,1,9.89C306.77,244,307.24,242.91,307.43,242Z"/><path class="cls-12" d="M280.35,349.52c0-.14-7.59-1.48-12.86-7.91a23.52,23.52,0,0,1-4.95-15.83c.67-7.85,5.52-13.94,8.9-15.82a34.85,34.85,0,0,1,4-2,12.09,12.09,0,0,0,4-2c.23-.19,1.06-.87,1-1-.26-.39-12.94,3.11-17.81,12.86-3.62,7.26-2.48,17.12,3,23.74C271.39,348.75,280.28,349.67,280.35,349.52Z"/><path class="cls-12" d="M316.33,329.22a5,5,0,0,0,0-2c-.18-.86-.12-4.85,0-12.85.14-9.56.14-14.34,2-17.8s4.38-5.45,3.95-5.94-3.9,1.06-5.93,4c-1.6,2.28-1.82,4.65-2,6.92a161.72,161.72,0,0,0,0,19.78c.26,5.91.37,9.85,1,9.89C315.67,331.23,316.14,330.1,316.33,329.22Z"/><path class="cls-12" d="M363.42,314.9c.22,1.19.32,2.89,0,3s-1.37-2.71-3-6.92c-1.26-3.32-2.66-6.59-4-9.89-3.85-9.81-5.39-13.7-4.95-17.8a9.13,9.13,0,0,1,2-4.95c1.09-1.28,2.66-2.26,3-2s-1.12,2-2,4c-.42,1-1.29,3.43,0,9.89,1.24,6.18,3.54,11.37,5.94,16.81.71,1.63,1.25,3.33,2,4.95A11.75,11.75,0,0,1,363.42,314.9Z"/><path class="cls-12" d="M412.87,260.51c-2,7.44,10.69,34.14,9.89,34.61-.22.14-1-1-1-1a59.32,59.32,0,0,1-7.5-16.06c-4-14.92-6.18-16.51-4.36-19.55,2.49-4.18,8.83-5.07,8.9-4.94a11.68,11.68,0,0,0-4,3A11.83,11.83,0,0,0,412.87,260.51Z"/><path class="cls-12" d="M238,230.54c-.24-.28-12.87,6.32-13.16,14.8-.15,4.4,3.05,8.32,3.29,8.23s-1.83-2.82-1.64-6.58c.22-4.44,3.41-7.91,8.22-13.16C237.14,231.13,238,230.62,238,230.54Z"/><path class="cls-12" d="M234.66,268.37c1-2.33,3.4-3.1,3.29-3.29s-4.06.46-4.94,3.29c-.76,2.48,1.32,5,1.65,4.93S233.65,270.81,234.66,268.37Z"/><path class="cls-12" d="M280.71,215.74c-.14-.68-13.83,1.89-18.09,6.58a6,6,0,0,0-1.64,3.29c-.3,2.24,1.23,4.32,1.56,4.22s-.2-1.07.08-2.58a7.07,7.07,0,0,1,1.65-3.29,11.1,11.1,0,0,1,4.93-3.29C269.94,220.4,280.85,216.35,280.71,215.74Z"/><path class="cls-12" d="M280.71,242.05c2.17,5.68,5.34,14.65,4.94,14.81S282,250,279.33,242.67c-2.1-5.78-3.88-12-3.55-12.13S279.26,238.26,280.71,242.05Z"/><path class="cls-12" d="M401.66,170.91c-.13-.63-13.89,2.13-18.28,6.66a6,6,0,0,0-1.72,3.14c-.35,2.13,1.13,4,1.45,3.94s-.16-1,.15-2.43a7.14,7.14,0,0,1,1.73-3.14,12,12,0,0,1,5-3.23C390.75,175.58,401.77,171.49,401.66,170.91Z"/><path class="cls-12" d="M403.12,197.4c2.17,5.68,5.34,14.65,4.94,14.81s-3.68-6.89-6.32-14.19c-2.1-5.78-3.88-12-3.55-12.13S401.67,193.61,403.12,197.4Z"/><path class="cls-12" d="M346.72,212.11c-4.68-12.19-7.25-16-5.15-19.4,1.84-3,6.2-3.85,6.58-3.29s-3.74,2.56-4.94,6.58c-.58,2-.22,3.59,3.29,11.51,2.1,4.74,5.61,12.35,6.58,19.74.1.76.19,1.59,0,1.64C352.53,229.06,350.44,221.8,346.72,212.11Z"/></g><g id="InstructionsINSTRUCTIONS"><g class="cls-13"><g class="cls-14"><g class="cls-15"><polygon class="cls-1" points="1025.66 -197.06 1847.57 -197.06 2125.39 474.57 280.64 474.57 1025.66 -197.06"/><polygon class="cls-5" points="1025.66 -197.06 1847.57 -197.06 2125.39 474.57 280.64 474.57 1025.66 -197.06"/><path class="cls-6" d="M565.76,416.06H434.63c-49.2,0-55.58-30.21-16.59-65.36L511,267C542.22,238.75,599.31,217,640,217H748.51c40.71,0,55.45,21.71,31.74,49.91L709.82,350.7C680.26,385.85,615,416.06,565.76,416.06Z"/><polygon class="cls-1" points="203.75 -197.06 1025.66 -197.06 280.64 474.57 -1564.11 474.57 203.75 -197.06"/><polygon class="cls-5" points="203.75 -197.06 1025.66 -197.06 280.64 474.57 -1564.11 474.57 203.75 -197.06"/><path class="cls-6" d="M184.85,416.06H53.72c-49.21,0-45.6-30.21,5-65.36L179.3,267C219.89,238.75,284.16,217,324.87,217H433.36c40.71,0,48.27,21.71,15.25,49.91L350.5,350.7C309.33,385.85,234.05,416.06,184.85,416.06Z"/><path class="cls-7" d="M-158.83,416.06H-290c-49.21,0-36.6-30.21,24.48-65.36L-119.92,267C-70.93,238.75-.19,217,40.52,217H149c40.71,0,41.8,21.71.37,49.91L26.3,350.7C-25.35,385.85-109.63,416.06-158.83,416.06Z"/><path class="cls-7" d="M455.78,199.08H349.33c-39.95,0-43.53-20-9.65-43.53L422,98.37c28.24-19.61,77.86-34.85,112-34.85h91c34.15,0,44,15.24,21,34.85l-67,57.18C551.53,179.08,495.72,199.08,455.78,199.08Z"/><path class="cls-6" d="M176.78,199.08H70.33c-39.94,0-37.56-20,3.33-43.53L173,98.37c34.08-19.61,88.25-34.85,122.4-34.85h91c34.16,0,39.46,15.24,10.65,34.85l-84,57.18C278.5,179.08,216.72,199.08,176.78,199.08Z"/><path class="cls-7" d="M-102.22,199.08H-208.67c-39.94,0-31.59-20,16.31-43.53L-75.94,98.37C-36,78.76,22.69,63.52,56.85,63.52h91c34.16,0,34.92,15.24.26,34.85L47.06,155.55C5.47,179.08-62.27,199.08-102.22,199.08Z"/><path class="cls-6" d="M640.87,50.85H551.29c-33.62,0-40.4-14.22-16.15-31.07L594.9-21.73c20.77-14.42,60.85-25.69,90.27-25.69h78.41c29.42,0,40.07,11.27,23.17,25.69L738.13,19.78C718.4,36.63,674.49,50.85,640.87,50.85Z"/><path class="cls-7" d="M406.07,50.85H316.48c-33.61,0-36.16-14.22-6.88-31.07l72.14-41.51c25.06-14.42,68.5-25.69,97.92-25.69h78.42c29.42,0,36.7,11.27,15.51,25.69l-61,41.51C487.83,36.63,439.69,50.85,406.07,50.85Z"/><path class="cls-6" d="M171.27,50.85H81.68c-33.62,0-31.92-14.22,2.38-31.07l84.51-41.51c29.36-14.42,76.17-25.69,105.59-25.69h78.41c29.42,0,33.35,11.27,7.85,25.69L287.05,19.78C257.27,36.63,204.88,50.85,171.27,50.85Z"/><path class="cls-7" d="M-63.54,50.85h-89.59c-33.61,0-27.68-14.22,11.64-31.07L-44.6-21.73C-10.93-36.15,39.23-47.42,68.65-47.42h78.41c29.42,0,30,11.27.19,25.69L61.5,19.78C26.7,36.63-29.92,50.85-63.54,50.85Z"/></g></g></g></g></svg>