<svg xmlns="http://www.w3.org/2000/svg" xmlns:xlink="http://www.w3.org/1999/xlink" width="420" height="80" viewBox="0 0 420 80"><defs><style>.cls-1{fill:none;}.cls-2{clip-path:url(#clip-path);}.cls-3{clip-path:url(#clip-path-2);}.cls-4{clip-path:url(#clip-path-3);}.cls-5{fill:#e3f2fd;}.cls-6{fill:#bbdefb;}.cls-7{fill:#a9d6e5;}.cls-8{fill:url(#linear-gradient);}.cls-9{fill:#8c8c8c;}.cls-10{fill:#ffb5c8;}.cls-11{fill:#ffd9e2;}</style><clipPath id="clip-path"><rect class="cls-1" x="-277.5" y="-1101" width="1916.5" height="1080"/></clipPath><clipPath id="clip-path-2"><rect class="cls-1" x="-276" y="-1101.53" width="1916.5" height="1080"/></clipPath><clipPath id="clip-path-3"><polygon class="cls-1" points="3783.96 137.47 -2381.04 137.47 -716.52 -497.81 2119.44 -497.81 3783.96 137.47"/></clipPath><linearGradient id="linear-gradient" x1="557.41" y1="-385.89" x2="1030.47" y2="-44.24" gradientUnits="userSpaceOnUse"><stop offset="0" stop-color="#c4c4c4"/><stop offset="0.4" stop-color="#bbb"/><stop offset="0.46" stop-color="#b2b2b2"/><stop offset="0.54" stop-color="#ababab"/><stop offset="1" stop-color="#8c8c8c"/></linearGradient></defs><g id="Sad_Poop" data-name="Sad Poop"><g class="cls-2"><g class="cls-3"><g class="cls-4"><polygon class="cls-1" points="103.89 -497.81 924.29 -497.81 1201.61 175.69 -639.78 175.69 103.89 -497.81"/><polygon class="cls-5" points="103.89 -497.81 924.29 -497.81 1201.61 175.69 -639.78 175.69 103.89 -497.81"/><path class="cls-6" d="M330.94,117H200.05c-49.12,0-73.46-30.3-55.46-65.54l42.89-84c14.43-28.27,58.5-50.05,99.13-50.05h108.3c40.63,0,68.27,21.78,61.38,50.05l-20.46,84C427.25,86.72,380.05,117,330.94,117Z"/><path class="cls-7" d="M-12.12,117H-143c-49.11,0-64.47-30.3-36-65.54l67.81-84c22.83-28.27,73.36-50.05,114-50.05H111.07c40.64,0,61.81,21.78,46.54,50.05l-45.38,84C93.18,86.72,37,117-12.12,117Z"/><polygon class="cls-1" points="-716.52 -497.81 103.89 -497.81 -639.78 175.69 -2481.17 175.69 -716.52 -497.81"/><polygon class="cls-5" points="-716.52 -497.81 103.89 -497.81 -639.78 175.69 -2481.17 175.69 -716.52 -497.81"/></g></g><path class="cls-8" d="M1342.49-347.07c15,40.39,28.42,106.13-13.21,174.8C1229.83-8.24,878.66,69.22,602.82,37.29c-50.5-5.84-265.4-30.71-399.55-154.35C101.46-210.9,104-308.34,107.51-343c18.64,31.28,58.78,85.07,143.64,130.85,118.57,63.95,251.38,72.87,338.47,78.71,231.6,15.54,401.77-37.9,538.23-80.76,85.37-26.81,143.92-55.25,184.92-96.09A209.2,209.2,0,0,0,1342.49-347.07Z"/><path class="cls-9" d="M834.5,185,395.64,101.53q16.74-49.74,33.5-99.48a1020.46,1020.46,0,0,0,174.2,35.44,1094.32,1094.32,0,0,0,227.81,2.29Q832.82,112.4,834.5,185Z"/></g><rect class="cls-10" x="5.5" y="2.5" width="409" height="75" rx="12"/><path class="cls-11" d="M402.5,8c0-.83-5.11-1.5-11.35-1.5H27.85C21.61,6.5,16.5,7.17,16.5,8s5.11,1.5,11.35,1.5h363.3C397.39,9.5,402.5,8.83,402.5,8Z"/></g></svg>