<svg xmlns="http://www.w3.org/2000/svg" xmlns:xlink="http://www.w3.org/1999/xlink" width="1920" height="1077" viewBox="0 0 1920 1077"><defs><style>.cls-1{fill:none;}.cls-2{clip-path:url(#clip-path);}.cls-3{clip-path:url(#clip-path-2);}.cls-4{fill:#e3f2fd;}.cls-5{fill:#a9d6e5;}.cls-6{fill:#bbdefb;}.cls-7{clip-path:url(#clip-path-3);}.cls-8{fill:#fdb4c7;opacity:0.83;}.cls-9{fill:#e2e6ac;}.cls-10{fill:#f7facf;}.cls-11{fill:#fff;}.cls-12{fill:#68694e;}.cls-13{fill:#3b3b2b;}.cls-14{fill:#c0c2b4;}.cls-15{fill:#a2a393;}.cls-16{fill:#ababab;}.cls-17{fill:#c4c4c4;}.cls-18{fill:#e0e0e0;}.cls-19{fill:#f2f2f2;}.cls-20{fill:#348dc4;}.cls-21{fill:#115e8f;}.cls-22{fill:#8c8c8c;}.cls-23{fill:url(#linear-gradient);}.cls-24{fill:#6e6e6e;}.cls-25{fill:#5c4200;}.cls-26{fill:url(#linear-gradient-2);}.cls-27{fill:url(#linear-gradient-3);}.cls-28{fill:url(#linear-gradient-4);}.cls-29{fill:#eaff10;}.cls-30{fill:#422e00;}.cls-31{fill:#876aff;}.cls-32{fill:#241623;}.cls-33{fill:#4e3e94;}.cls-34{fill:#eb9b1c;}.cls-35{fill:#7f4700;}.cls-36{fill:url(#linear-gradient-5);}.cls-37{fill:#ff5f99;}.cls-38{fill:url(#linear-gradient-6);}.cls-39{fill:url(#linear-gradient-7);}.cls-40{fill:url(#linear-gradient-8);}.cls-41{fill:#c77814;}.cls-42{fill:#c7852e;}.cls-43{clip-path:url(#clip-path-4);}.cls-44{clip-path:url(#clip-path-5);}.cls-45{clip-path:url(#clip-path-6);}</style><clipPath id="clip-path"><rect class="cls-1" width="1920" height="1077"/></clipPath><clipPath id="clip-path-2"><rect class="cls-1" x="-282.39" y="-188.09" width="2840.73" height="789.8"/></clipPath><clipPath id="clip-path-3"><polygon class="cls-1" points="4067.37 1235.56 -2108.89 1235.56 -441.33 602.04 2399.81 602.04 4067.37 1235.56"/></clipPath><linearGradient id="linear-gradient" x1="-4233.14" y1="717.44" x2="-4045.89" y2="852.67" gradientTransform="matrix(-1, 0, 0, 1, -3632.62, 0)" gradientUnits="userSpaceOnUse"><stop offset="0" stop-color="#c4c4c4"/><stop offset="0.4" stop-color="#bbb"/><stop offset="0.46" stop-color="#b2b2b2"/><stop offset="0.54" stop-color="#ababab"/><stop offset="1" stop-color="#8c8c8c"/></linearGradient><linearGradient id="linear-gradient-2" x1="-197.35" y1="1893.25" x2="-197.35" y2="1913.37" gradientTransform="translate(-1222.64 -1161.88) rotate(-50.45)" gradientUnits="userSpaceOnUse"><stop offset="0.05" stop-color="#e9fe10"/><stop offset="1" stop-color="#cfe804"/></linearGradient><linearGradient id="linear-gradient-3" x1="-160.67" y1="1893.25" x2="-160.67" y2="1913.37" xlink:href="#linear-gradient-2"/><linearGradient id="linear-gradient-4" x1="-122.97" y1="1893.25" x2="-122.97" y2="1913.37" xlink:href="#linear-gradient-2"/><linearGradient id="linear-gradient-5" x1="-212.56" y1="1263.61" x2="-244.22" y2="1240.53" gradientTransform="translate(1023.48 -300.07) rotate(-9.89)" gradientUnits="userSpaceOnUse"><stop offset="0.02" stop-color="#ff5f99"/><stop offset="0.23" stop-color="#ff649c"/><stop offset="0.49" stop-color="#ff73a6"/><stop offset="0.58" stop-color="#ff7aab"/><stop offset="1" stop-color="#ff87b3"/></linearGradient><linearGradient id="linear-gradient-6" x1="-424.77" y1="1301.83" x2="-474.23" y2="1265.77" xlink:href="#linear-gradient-5"/><linearGradient id="linear-gradient-7" x1="-421.05" y1="932.35" x2="-434.05" y2="922.88" xlink:href="#linear-gradient-5"/><linearGradient id="linear-gradient-8" x1="-299.97" y1="949.5" x2="-292.74" y2="939.9" gradientTransform="translate(1020.71 -343.57) rotate(-10.46)" gradientUnits="userSpaceOnUse"><stop offset="0.15" stop-color="#ff5f99"/><stop offset="0.32" stop-color="#ff669e"/><stop offset="0.55" stop-color="#ff7aab"/><stop offset="1" stop-color="#ff87b3"/></linearGradient><clipPath id="clip-path-4"><rect class="cls-1" x="-2050" y="0.45" width="1920" height="1077"/></clipPath><clipPath id="clip-path-5"><rect class="cls-1" x="-2332.39" y="-187.63" width="2840.73" height="789.8"/></clipPath><clipPath id="clip-path-6"><polygon class="cls-1" points="2017.37 1236.01 -4158.89 1236.01 -2491.33 602.49 349.81 602.49 2017.37 1236.01"/></clipPath></defs><g id="Sad_Poop" data-name="Sad Poop"><g class="cls-2"><g class="cls-3"><rect class="cls-1" x="1361.18" y="-188.09" width="821.79" height="810.97"/><rect class="cls-4" x="1361.18" y="-188.09" width="821.79" height="810.97"/><path class="cls-5" d="M1946.88,589.8H1885.5c-23,0-41.71-18.42-41.71-41.15V488.08c0-22.73,18.67-41.15,41.71-41.15h61.38c23,0,41.7,18.42,41.7,41.15v60.57C1988.58,571.38,1969.91,589.8,1946.88,589.8Z"/><path class="cls-6" d="M1786,589.8h-61.38c-23,0-41.7-18.42-41.7-41.15V488.08c0-22.73,18.67-41.15,41.7-41.15H1786c23,0,41.71,18.42,41.71,41.15v60.57C1827.71,571.38,1809,589.8,1786,589.8Z"/><path class="cls-5" d="M1625.13,589.8h-61.38c-23,0-41.7-18.42-41.7-41.15V488.08c0-22.73,18.67-41.15,41.7-41.15h61.38c23,0,41.71,18.42,41.71,41.15v60.57C1666.84,571.38,1648.16,589.8,1625.13,589.8Z"/><path class="cls-6" d="M1464.26,589.8h-61.38c-23,0-41.7-18.42-41.7-41.15V488.08c0-22.73,18.67-41.15,41.7-41.15h61.38c23,0,41.7,18.42,41.7,41.15v60.57C1506,571.38,1487.29,589.8,1464.26,589.8Z"/><path class="cls-6" d="M1946.88,431.05H1885.5c-23,0-41.71-18.42-41.71-41.15V329.33c0-22.73,18.67-41.16,41.71-41.16h61.38c23,0,41.7,18.43,41.7,41.16V389.9C1988.58,412.63,1969.91,431.05,1946.88,431.05Z"/><path class="cls-5" d="M1786,431.05h-61.38c-23,0-41.7-18.42-41.7-41.15V329.33c0-22.73,18.67-41.16,41.7-41.16H1786c23,0,41.71,18.43,41.71,41.16V389.9C1827.71,412.63,1809,431.05,1786,431.05Z"/><path class="cls-6" d="M1625.13,431.05h-61.38c-23,0-41.7-18.42-41.7-41.15V329.33c0-22.73,18.67-41.16,41.7-41.16h61.38c23,0,41.71,18.43,41.71,41.16V389.9C1666.84,412.63,1648.16,431.05,1625.13,431.05Z"/><path class="cls-5" d="M1464.26,431.05h-61.38c-23,0-41.7-18.42-41.7-41.15V329.33c0-22.73,18.67-41.16,41.7-41.16h61.38c23,0,41.7,18.43,41.7,41.16V389.9C1506,412.63,1487.29,431.05,1464.26,431.05Z"/><path class="cls-5" d="M1946.88,272.3H1885.5c-23,0-41.71-18.43-41.71-41.16V170.57c0-22.73,18.67-41.15,41.71-41.15h61.38c23,0,41.7,18.42,41.7,41.15v60.57C1988.58,253.87,1969.91,272.3,1946.88,272.3Z"/><path class="cls-6" d="M1786,272.3h-61.38c-23,0-41.7-18.43-41.7-41.16V170.57c0-22.73,18.67-41.15,41.7-41.15H1786c23,0,41.71,18.42,41.71,41.15v60.57C1827.71,253.87,1809,272.3,1786,272.3Z"/><path class="cls-5" d="M1625.13,272.3h-61.38c-23,0-41.7-18.43-41.7-41.16V170.57c0-22.73,18.67-41.15,41.7-41.15h61.38c23,0,41.71,18.42,41.71,41.15v60.57C1666.84,253.87,1648.16,272.3,1625.13,272.3Z"/><path class="cls-6" d="M1464.26,272.3h-61.38c-23,0-41.7-18.43-41.7-41.16V170.57c0-22.73,18.67-41.15,41.7-41.15h61.38c23,0,41.7,18.42,41.7,41.15v60.57C1506,253.87,1487.29,272.3,1464.26,272.3Z"/><path class="cls-6" d="M1946.88,113.54H1885.5c-23,0-41.71-18.42-41.71-41.15V11.82c0-22.73,18.67-41.16,41.71-41.16h61.38c23,0,41.7,18.43,41.7,41.16V72.39C1988.58,95.12,1969.91,113.54,1946.88,113.54Z"/><path class="cls-5" d="M1786,113.54h-61.38c-23,0-41.7-18.42-41.7-41.15V11.82c0-22.73,18.67-41.16,41.7-41.16H1786c23,0,41.71,18.43,41.71,41.16V72.39C1827.71,95.12,1809,113.54,1786,113.54Z"/><path class="cls-6" d="M1625.13,113.54h-61.38c-23,0-41.7-18.42-41.7-41.15V11.82c0-22.73,18.67-41.16,41.7-41.16h61.38c23,0,41.71,18.43,41.71,41.16V72.39C1666.84,95.12,1648.16,113.54,1625.13,113.54Z"/><path class="cls-5" d="M1464.26,113.54h-61.38c-23,0-41.7-18.42-41.7-41.15V11.82c0-22.73,18.67-41.16,41.7-41.16h61.38c23,0,41.7,18.43,41.7,41.16V72.39C1506,95.12,1487.29,113.54,1464.26,113.54Z"/><rect class="cls-1" x="539.39" y="-188.09" width="821.79" height="810.97"/><rect class="cls-4" x="539.39" y="-188.09" width="821.79" height="810.97"/><path class="cls-6" d="M1286,589.8h-61.38c-23,0-41.7-18.42-41.7-41.15V488.08c0-22.73,18.67-41.15,41.7-41.15H1286c23,0,41.7,18.42,41.7,41.15v60.57C1327.66,571.38,1309,589.8,1286,589.8Z"/><path class="cls-5" d="M1125.09,589.8h-61.38c-23,0-41.7-18.42-41.7-41.15V488.08c0-22.73,18.67-41.15,41.7-41.15h61.38c23,0,41.7,18.42,41.7,41.15v60.57C1166.79,571.38,1148.12,589.8,1125.09,589.8Z"/><path class="cls-6" d="M964.22,589.8H902.84c-23,0-41.7-18.42-41.7-41.15V488.08c0-22.73,18.67-41.15,41.7-41.15h61.38c23,0,41.7,18.42,41.7,41.15v60.57C1005.92,571.38,987.25,589.8,964.22,589.8Z"/><path class="cls-5" d="M803.35,589.8H742c-23,0-41.71-18.42-41.71-41.15V488.08c0-22.73,18.68-41.15,41.71-41.15h61.38c23,0,41.7,18.42,41.7,41.15v60.57C845.05,571.38,826.38,589.8,803.35,589.8Z"/><path class="cls-6" d="M642.47,589.8H581.09c-23,0-41.7-18.42-41.7-41.15V488.08c0-22.73,18.67-41.15,41.7-41.15h61.38c23,0,41.71,18.42,41.71,41.15v60.57C684.18,571.38,665.51,589.8,642.47,589.8Z"/><path class="cls-5" d="M1286,431.05h-61.38c-23,0-41.7-18.42-41.7-41.15V329.33c0-22.73,18.67-41.16,41.7-41.16H1286c23,0,41.7,18.43,41.7,41.16V389.9C1327.66,412.63,1309,431.05,1286,431.05Z"/><path class="cls-6" d="M1125.09,431.05h-61.38c-23,0-41.7-18.42-41.7-41.15V329.33c0-22.73,18.67-41.16,41.7-41.16h61.38c23,0,41.7,18.43,41.7,41.16V389.9C1166.79,412.63,1148.12,431.05,1125.09,431.05Z"/><path class="cls-5" d="M964.22,431.05H902.84c-23,0-41.7-18.42-41.7-41.15V329.33c0-22.73,18.67-41.16,41.7-41.16h61.38c23,0,41.7,18.43,41.7,41.16V389.9C1005.92,412.63,987.25,431.05,964.22,431.05Z"/><path class="cls-6" d="M803.35,431.05H742c-23,0-41.71-18.42-41.71-41.15V329.33c0-22.73,18.68-41.16,41.71-41.16h61.38c23,0,41.7,18.43,41.7,41.16V389.9C845.05,412.63,826.38,431.05,803.35,431.05Z"/><path class="cls-5" d="M642.47,431.05H581.09c-23,0-41.7-18.42-41.7-41.15V329.33c0-22.73,18.67-41.16,41.7-41.16h61.38c23,0,41.71,18.43,41.71,41.16V389.9C684.18,412.63,665.51,431.05,642.47,431.05Z"/><path class="cls-6" d="M1286,272.3h-61.38c-23,0-41.7-18.43-41.7-41.16V170.57c0-22.73,18.67-41.15,41.7-41.15H1286c23,0,41.7,18.42,41.7,41.15v60.57C1327.66,253.87,1309,272.3,1286,272.3Z"/><path class="cls-5" d="M1125.09,272.3h-61.38c-23,0-41.7-18.43-41.7-41.16V170.57c0-22.73,18.67-41.15,41.7-41.15h61.38c23,0,41.7,18.42,41.7,41.15v60.57C1166.79,253.87,1148.12,272.3,1125.09,272.3Z"/><path class="cls-6" d="M964.22,272.3H902.84c-23,0-41.7-18.43-41.7-41.16V170.57c0-22.73,18.67-41.15,41.7-41.15h61.38c23,0,41.7,18.42,41.7,41.15v60.57C1005.92,253.87,987.25,272.3,964.22,272.3Z"/><path class="cls-5" d="M803.35,272.3H742c-23,0-41.71-18.43-41.71-41.16V170.57c0-22.73,18.68-41.15,41.71-41.15h61.38c23,0,41.7,18.42,41.7,41.15v60.57C845.05,253.87,826.38,272.3,803.35,272.3Z"/><path class="cls-6" d="M642.47,272.3H581.09c-23,0-41.7-18.43-41.7-41.16V170.57c0-22.73,18.67-41.15,41.7-41.15h61.38c23,0,41.71,18.42,41.71,41.15v60.57C684.18,253.87,665.51,272.3,642.47,272.3Z"/><path class="cls-5" d="M1286,113.54h-61.38c-23,0-41.7-18.42-41.7-41.15V11.82c0-22.73,18.67-41.16,41.7-41.16H1286c23,0,41.7,18.43,41.7,41.16V72.39C1327.66,95.12,1309,113.54,1286,113.54Z"/><path class="cls-6" d="M1125.09,113.54h-61.38c-23,0-41.7-18.42-41.7-41.15V11.82c0-22.73,18.67-41.16,41.7-41.16h61.38c23,0,41.7,18.43,41.7,41.16V72.39C1166.79,95.12,1148.12,113.54,1125.09,113.54Z"/><path class="cls-5" d="M964.22,113.54H902.84c-23,0-41.7-18.42-41.7-41.15V11.82c0-22.73,18.67-41.16,41.7-41.16h61.38c23,0,41.7,18.43,41.7,41.16V72.39C1005.92,95.12,987.25,113.54,964.22,113.54Z"/><path class="cls-6" d="M803.35,113.54H742c-23,0-41.71-18.42-41.71-41.15V11.82c0-22.73,18.68-41.16,41.71-41.16h61.38c23,0,41.7,18.43,41.7,41.16V72.39C845.05,95.12,826.38,113.54,803.35,113.54Z"/><path class="cls-5" d="M642.47,113.54H581.09c-23,0-41.7-18.42-41.7-41.15V11.82c0-22.73,18.67-41.16,41.7-41.16h61.38c23,0,41.71,18.43,41.71,41.16V72.39C684.18,95.12,665.51,113.54,642.47,113.54Z"/><rect class="cls-1" x="-282.39" y="-188.09" width="821.79" height="810.97"/><rect class="cls-4" x="-282.39" y="-188.09" width="821.79" height="810.97"/><path class="cls-6" d="M464.18,589.8H402.8c-23,0-41.71-18.42-41.71-41.15V488.08c0-22.73,18.67-41.15,41.71-41.15h61.38c23,0,41.7,18.42,41.7,41.15v60.57C505.88,571.38,487.21,589.8,464.18,589.8Z"/><path class="cls-5" d="M303.3,589.8H241.92c-23,0-41.7-18.42-41.7-41.15V488.08c0-22.73,18.67-41.15,41.7-41.15H303.3c23,0,41.71,18.42,41.71,41.15v60.57C345,571.38,326.34,589.8,303.3,589.8Z"/><path class="cls-6" d="M142.43,589.8H81.05c-23,0-41.7-18.42-41.7-41.15V488.08c0-22.73,18.67-41.15,41.7-41.15h61.38c23,0,41.7,18.42,41.7,41.15v60.57C184.13,571.38,165.46,589.8,142.43,589.8Z"/><path class="cls-5" d="M-18.44,589.8H-79.82c-23,0-41.7-18.42-41.7-41.15V488.08c0-22.73,18.67-41.15,41.7-41.15h61.38c23,0,41.7,18.42,41.7,41.15v60.57C23.26,571.38,4.59,589.8-18.44,589.8Z"/><path class="cls-5" d="M464.18,431.05H402.8c-23,0-41.71-18.42-41.71-41.15V329.33c0-22.73,18.67-41.16,41.71-41.16h61.38c23,0,41.7,18.43,41.7,41.16V389.9C505.88,412.63,487.21,431.05,464.18,431.05Z"/><path class="cls-6" d="M303.3,431.05H241.92c-23,0-41.7-18.42-41.7-41.15V329.33c0-22.73,18.67-41.16,41.7-41.16H303.3c23,0,41.71,18.43,41.71,41.16V389.9C345,412.63,326.34,431.05,303.3,431.05Z"/><path class="cls-5" d="M142.43,431.05H81.05c-23,0-41.7-18.42-41.7-41.15V329.33c0-22.73,18.67-41.16,41.7-41.16h61.38c23,0,41.7,18.43,41.7,41.16V389.9C184.13,412.63,165.46,431.05,142.43,431.05Z"/><path class="cls-6" d="M-18.44,431.05H-79.82c-23,0-41.7-18.42-41.7-41.15V329.33c0-22.73,18.67-41.16,41.7-41.16h61.38c23,0,41.7,18.43,41.7,41.16V389.9C23.26,412.63,4.59,431.05-18.44,431.05Z"/><path class="cls-6" d="M464.18,272.3H402.8c-23,0-41.71-18.43-41.71-41.16V170.57c0-22.73,18.67-41.15,41.71-41.15h61.38c23,0,41.7,18.42,41.7,41.15v60.57C505.88,253.87,487.21,272.3,464.18,272.3Z"/><path class="cls-5" d="M303.3,272.3H241.92c-23,0-41.7-18.43-41.7-41.16V170.57c0-22.73,18.67-41.15,41.7-41.15H303.3c23,0,41.71,18.42,41.71,41.15v60.57C345,253.87,326.34,272.3,303.3,272.3Z"/><path class="cls-6" d="M142.43,272.3H81.05c-23,0-41.7-18.43-41.7-41.16V170.57c0-22.73,18.67-41.15,41.7-41.15h61.38c23,0,41.7,18.42,41.7,41.15v60.57C184.13,253.87,165.46,272.3,142.43,272.3Z"/><path class="cls-5" d="M-18.44,272.3H-79.82c-23,0-41.7-18.43-41.7-41.16V170.57c0-22.73,18.67-41.15,41.7-41.15h61.38c23,0,41.7,18.42,41.7,41.15v60.57C23.26,253.87,4.59,272.3-18.44,272.3Z"/><path class="cls-5" d="M464.18,113.54H402.8c-23,0-41.71-18.42-41.71-41.15V11.82c0-22.73,18.67-41.16,41.71-41.16h61.38c23,0,41.7,18.43,41.7,41.16V72.39C505.88,95.12,487.21,113.54,464.18,113.54Z"/><path class="cls-6" d="M303.3,113.54H241.92c-23,0-41.7-18.42-41.7-41.15V11.82c0-22.73,18.67-41.16,41.7-41.16H303.3c23,0,41.71,18.43,41.71,41.16V72.39C345,95.12,326.34,113.54,303.3,113.54Z"/><path class="cls-5" d="M142.43,113.54H81.05c-23,0-41.7-18.42-41.7-41.15V11.82c0-22.73,18.67-41.16,41.7-41.16h61.38c23,0,41.7,18.43,41.7,41.16V72.39C184.13,95.12,165.46,113.54,142.43,113.54Z"/><path class="cls-6" d="M-18.44,113.54H-79.82c-23,0-41.7-18.42-41.7-41.15V11.82c0-22.73,18.67-41.16,41.7-41.16h61.38c23,0,41.7,18.43,41.7,41.16V72.39C23.26,95.12,4.59,113.54-18.44,113.54Z"/></g><g class="cls-7"><polygon class="cls-1" points="1202.48 602.04 2024.39 602.04 3325.05 1273.67 1480.3 1273.67 1202.48 602.04"/><polygon class="cls-4" points="1202.48 602.04 2024.39 602.04 3325.05 1273.67 1480.3 1273.67 1202.48 602.04"/><path class="cls-5" d="M2020,1215.16H1888.87c-49.2,0-110.59-30.21-135.61-65.36l-59.61-83.75c-20.07-28.2-2.53-49.91,38.18-49.91h108.5c40.71,0,95,21.71,122.62,49.91L2045,1149.8C2079.49,1185,2069.21,1215.16,2020,1215.16Z"/><path class="cls-6" d="M1676.32,1215.16H1545.19c-49.2,0-101.59-30.21-116.13-65.36l-34.64-83.75c-11.66-28.2,12.36-49.91,53.07-49.91H1556c40.71,0,88.52,21.71,107.74,49.91l57.12,83.75C1744.81,1185,1725.53,1215.16,1676.32,1215.16Z"/><path class="cls-5" d="M2103.12,998.18H1996.67c-40,0-92.53-20-116.29-43.53l-57.75-57.18c-19.8-19.61-7.5-34.85,26.66-34.85h91c34.16,0,81.32,15.24,106.38,34.85l73.09,57.18C2149.87,978.18,2143.06,998.18,2103.12,998.18Z"/><path class="cls-6" d="M1824.12,998.18H1717.67c-39.94,0-86.56-20-103.31-43.53l-40.7-57.18c-14-19.61,2.89-34.85,37-34.85h91c34.15,0,76.77,15.24,96,34.85l56,57.18C1876.84,978.18,1864.06,998.18,1824.12,998.18Z"/><path class="cls-5" d="M1545.12,998.18H1438.67c-39.94,0-80.6-20-90.33-43.53l-23.65-57.18c-8.11-19.61,13.27-34.85,47.43-34.85h91c34.16,0,72.24,15.24,85.61,34.85l39,57.18C1603.8,978.18,1585.07,998.18,1545.12,998.18Z"/><path class="cls-5" d="M2159.9,850h-89.59c-33.62,0-79.46-14.22-101.5-31.07l-54.3-41.51c-18.86-14.42-9.76-25.69,19.66-25.69h78.42c29.42,0,71,11.27,93.78,25.69l65.43,41.51C2198.35,835.73,2193.51,850,2159.9,850Z"/><path class="cls-6" d="M1925.09,850h-89.58c-33.62,0-75.23-14.22-92.24-31.07l-41.92-41.51c-14.57-14.42-2.1-25.69,27.32-25.69h78.41c29.42,0,67.68,11.27,86.12,25.69l53.06,41.51C1967.79,835.73,1958.71,850,1925.09,850Z"/><path class="cls-5" d="M1690.29,850H1600.7c-33.61,0-71-14.22-83-31.07l-29.54-41.51c-10.27-14.42,5.56-25.69,35-25.69h78.41c29.42,0,64.32,11.27,78.46,25.69l40.68,41.51C1737.22,835.73,1723.91,850,1690.29,850Z"/><path class="cls-6" d="M1455.49,850H1365.9c-33.62,0-66.75-14.22-73.72-31.07L1275,777.37c-6-14.42,13.22-25.69,42.64-25.69h78.41c29.43,0,61,11.27,70.8,25.69l28.31,41.51C1506.66,835.73,1489.1,850,1455.49,850Z"/><path class="cls-6" d="M1998.46,742.25h-77.34c-29,0-66.44-10.62-83-23.27l-41.2-31.5c-14.46-11.06-4.86-19.73,21-19.73h68.86c25.84,0,60.46,8.67,77.89,19.73l49.65,31.5C2034.26,731.63,2027.47,742.25,1998.46,742.25Z"/><path class="cls-5" d="M1795.76,742.25h-77.34c-29,0-63.27-10.62-76.05-23.27l-31.81-31.5c-11.16-11.06,1-19.73,26.86-19.73h68.86c25.84,0,57.88,8.67,72,19.73l40.26,31.5C1834.73,731.63,1824.78,742.25,1795.76,742.25Z"/><path class="cls-6" d="M1593.06,742.25h-77.34c-29,0-60.1-10.62-69.11-23.27l-22.42-31.5c-7.86-11.06,6.91-19.73,32.75-19.73h68.86c25.84,0,55.29,8.67,66.12,19.73l30.87,31.5C1635.2,731.63,1622.08,742.25,1593.06,742.25Z"/><path class="cls-5" d="M1390.36,742.25H1313c-29,0-56.94-10.62-62.18-23.27l-13-31.5c-4.58-11.06,12.78-19.73,38.62-19.73h68.86c25.84,0,52.71,8.67,60.25,19.73L1427,719C1435.67,731.63,1419.38,742.25,1390.36,742.25Z"/><path class="cls-6" d="M2054.17,660.46h-68c-25.53,0-59.45-8.23-75.27-18.08l-39.7-24.72c-14-8.74-6.42-15.62,16.61-15.62h61.39c23,0,54.62,6.88,71,15.62l46.33,24.72C2085,652.23,2079.7,660.46,2054.17,660.46Z"/><path class="cls-5" d="M1875.85,660.46h-68c-25.53,0-57-8.23-69.88-18.08l-32.33-24.72c-11.44-8.74-1.77-15.62,21.27-15.62h61.39c23,0,52.56,6.88,66.33,15.62l39,24.72C1909.09,652.23,1901.38,660.46,1875.85,660.46Z"/><path class="cls-6" d="M1697.54,660.46h-68c-25.53,0-54.54-8.23-64.49-18.08l-25-24.72C1531.23,608.92,1543,602,1566,602h61.39c23,0,50.51,6.88,61.68,15.62l31.59,24.72C1733.24,652.23,1723.07,660.46,1697.54,660.46Z"/><path class="cls-5" d="M1519.22,660.46h-68c-25.53,0-52.09-8.23-59.1-18.08l-17.59-24.72c-6.22-8.74,7.55-15.62,30.59-15.62h61.39c23,0,48.45,6.88,57,15.62l24.22,24.72C1557.38,652.23,1544.75,660.46,1519.22,660.46Z"/><path class="cls-6" d="M1340.91,660.46h-68c-25.53,0-49.64-8.23-53.71-18.08L1209,617.66c-3.62-8.74,12.21-15.62,35.24-15.62h61.39c23,0,46.4,6.88,52.36,15.62l16.86,24.72C1381.52,652.23,1366.44,660.46,1340.91,660.46Z"/><polygon class="cls-1" points="380.58 602.04 1202.48 602.04 1480.3 1273.67 -364.45 1273.67 380.58 602.04"/><polygon class="cls-4" points="380.58 602.04 1202.48 602.04 1480.3 1273.67 -364.45 1273.67 380.58 602.04"/><path class="cls-6" d="M1295.41,1215.16H1164.28c-49.21,0-91.61-30.21-94.53-65.36l-7-83.75c-2.34-28.2,28.85-49.91,69.56-49.91h108.49c40.71,0,81.35,21.71,91.26,49.91l29.44,83.75C1373.88,1185,1344.61,1215.16,1295.41,1215.16Z"/><path class="cls-5" d="M951.73,1215.16H820.59c-49.2,0-82.6-30.21-75-65.36l18-83.75c6.06-28.2,43.72-49.91,84.43-49.91h108.5c40.7,0,74.87,21.71,76.37,49.91l4.48,83.75C1039.2,1185,1000.93,1215.16,951.73,1215.16Z"/><path class="cls-6" d="M608,1215.16H476.91c-49.2,0-73.59-30.21-55.56-65.36l43-83.75c14.46-28.2,58.6-49.91,99.31-49.91h108.5c40.71,0,68.39,21.71,61.49,49.91l-20.49,83.75C704.53,1185,657.25,1215.16,608,1215.16Z"/><path class="cls-5" d="M264.36,1215.16H133.23c-49.2,0-64.59-30.21-36.08-65.36l67.94-83.75c22.87-28.2,73.49-49.91,114.2-49.91H387.78c40.71,0,61.92,21.71,46.62,49.91l-45.47,83.75C369.85,1185,313.56,1215.16,264.36,1215.16Z"/><path class="cls-6" d="M-79.32,1215.16H-210.45c-49.21,0-55.59-30.21-16.59-65.36l92.9-83.75c31.27-28.2,88.37-49.91,129.08-49.91H103.43c40.71,0,55.45,21.71,31.74,49.91L64.73,1149.8C35.17,1185-30.12,1215.16-79.32,1215.16Z"/><path class="cls-5" d="M1235.9,998.18H1129.45c-39.94,0-74-20-76-43.53l-4.76-57.18c-1.63-19.61,24.79-34.85,59-34.85h91c34.16,0,67.2,15.24,74.1,34.85l20.1,57.18C1301.19,978.18,1275.84,998.18,1235.9,998.18Z"/><path class="cls-6" d="M956.9,998.18H850.45c-39.94,0-68-20-63-43.53l12.28-57.18c4.22-19.61,35.18-34.85,69.34-34.85h91c34.16,0,62.66,15.24,63.71,34.85l3.05,57.18C1028.16,978.18,996.85,998.18,956.9,998.18Z"/><path class="cls-5" d="M677.91,998.18H571.46c-40,0-62.06-20-50-43.53l29.33-57.18c10.06-19.61,45.57-34.85,79.73-34.85h91c34.15,0,58.12,15.24,53.32,34.85l-14,57.18C755.13,978.18,717.85,998.18,677.91,998.18Z"/><path class="cls-6" d="M398.91,998.18H292.46c-39.94,0-56.1-20-37-43.53l46.38-57.18c15.91-19.61,56-34.85,90.11-34.85h91c34.16,0,53.58,15.24,42.94,34.85l-31,57.18C482.09,978.18,438.85,998.18,398.91,998.18Z"/><path class="cls-5" d="M119.91,998.18H13.46c-39.94,0-50.13-20-24-43.53l63.43-57.18c21.75-19.61,66.34-34.85,100.5-34.85h91c34.16,0,49,15.24,32.55,34.85l-48.09,57.18C209.06,978.18,159.86,998.18,119.91,998.18Z"/><path class="cls-6" d="M1195.25,850h-89.59c-33.62,0-62.05-14.22-63.46-31.07l-3.45-41.51c-1.2-14.42,21.71-25.69,51.13-25.69h78.41c29.43,0,57.24,11.27,62.31,25.69l14.59,41.51C1251.12,835.73,1228.86,850,1195.25,850Z"/><path class="cls-5" d="M960.44,850H870.85c-33.61,0-57.81-14.22-54.19-31.07l8.92-41.51c3.1-14.42,29.38-25.69,58.8-25.69h78.41c29.42,0,53.87,11.27,54.64,25.69l2.22,41.51C1020.55,835.73,994.06,850,960.44,850Z"/><path class="cls-6" d="M725.64,850H636.05c-33.62,0-53.57-14.22-44.93-31.07l21.29-41.51c7.4-14.42,37-25.69,66.46-25.69h78.41c29.42,0,50.51,11.27,47,25.69l-10.16,41.51C790,835.73,759.25,850,725.64,850Z"/><path class="cls-5" d="M490.83,850H401.25c-33.62,0-49.34-14.22-35.67-31.07l33.67-41.51c11.7-14.42,44.69-25.69,74.11-25.69h78.41c29.43,0,47.16,11.27,39.33,25.69l-22.54,41.51C559.42,835.73,524.45,850,490.83,850Z"/><path class="cls-6" d="M256,850H166.44c-33.61,0-45.09-14.22-26.41-31.07l46.05-41.51c16-14.42,52.35-25.69,81.78-25.69h78.41c29.42,0,43.79,11.27,31.66,25.69L343,818.88C328.85,835.73,289.65,850,256,850Z"/><path class="cls-5" d="M1165.71,742.25h-77.34c-29,0-53.43-10.62-54.48-23.27l-2.62-31.5c-.92-11.06,19.3-19.73,45.14-19.73h68.87c25.84,0,49.83,8.67,53.72,19.73l11.07,31.5C1214.52,731.63,1194.73,742.25,1165.71,742.25Z"/><path class="cls-6" d="M963,742.25H885.67c-29,0-50.26-10.62-47.54-23.27l6.77-31.5c2.38-11.06,25.19-19.73,51-19.73h68.86c25.84,0,47.25,8.67,47.84,19.73l1.68,31.5C1015,731.63,992,742.25,963,742.25Z"/><path class="cls-5" d="M760.32,742.25H683c-29,0-47.1-10.62-40.61-23.27l16.16-31.5c5.67-11.06,31.07-19.73,56.91-19.73h68.87c25.84,0,44.66,8.67,42,19.73l-7.7,31.5C815.46,731.63,789.34,742.25,760.32,742.25Z"/><path class="cls-6" d="M557.62,742.25H480.28c-29,0-43.93-10.62-33.66-23.27l25.55-31.5c9-11.06,36.95-19.73,62.79-19.73h68.86c25.84,0,42.08,8.67,36.08,19.73L622.8,719C615.93,731.63,586.64,742.25,557.62,742.25Z"/><path class="cls-5" d="M354.92,742.25H277.58c-29,0-40.76-10.62-26.72-23.27l34.94-31.5c12.26-11.06,42.83-19.73,68.67-19.73h68.87c25.83,0,39.48,8.67,30.19,19.73L427,719C416.4,731.63,383.94,742.25,354.92,742.25Z"/><path class="cls-6" d="M1143.28,660.46h-68c-25.53,0-46.91-8.23-47.73-18.08l-2-24.72c-.73-8.74,17.37-15.62,40.41-15.62h61.38c23,0,44.13,6.88,47.21,15.62l8.68,24.72C1186.61,652.23,1168.81,660.46,1143.28,660.46Z"/><path class="cls-5" d="M965,660.46h-68c-25.53,0-44.45-8.23-42.34-18.08l5.31-24.72c1.88-8.74,22-15.62,45.07-15.62h61.39c23,0,42.08,6.88,42.54,15.62l1.32,24.72C1010.75,652.23,990.49,660.46,965,660.46Z"/><path class="cls-6" d="M786.65,660.46h-68c-25.53,0-42-8.23-37-18.08l12.68-24.72C698.83,608.92,721,602,744.07,602h61.39c23,0,40,6.88,37.89,15.62l-6.05,24.72C834.89,652.23,812.18,660.46,786.65,660.46Z"/><path class="cls-5" d="M608.34,660.46h-68c-25.53,0-39.54-8.23-31.55-18.08l20-24.72c7.09-8.74,31.34-15.62,54.38-15.62h61.39c23,0,38,6.88,33.23,15.62l-13.42,24.72C659,652.23,633.87,660.46,608.34,660.46Z"/><path class="cls-6" d="M430,660.46H362c-25.53,0-37.09-8.23-26.16-18.08l27.41-24.72c9.7-8.74,36-15.62,59-15.62h61.39c23,0,35.92,6.88,28.57,15.62l-20.78,24.72C483.17,652.23,455.55,660.46,430,660.46Z"/><polygon class="cls-1" points="-441.33 602.04 380.58 602.04 -364.45 1273.67 -2209.2 1273.67 -441.33 602.04"/><polygon class="cls-4" points="-441.33 602.04 380.58 602.04 -364.45 1273.67 -2209.2 1273.67 -441.33 602.04"/><path class="cls-5" d="M-189.31,998.18H-295.76c-39.94,0-43.52-20-9.65-43.53l82.33-57.18c28.23-19.61,77.85-34.85,112-34.85h91c34.16,0,44,15.24,21,34.85l-67,57.18C-93.55,978.18-149.37,998.18-189.31,998.18Z"/><path class="cls-6" d="M-4.21,850H-93.8c-33.62,0-40.4-14.22-16.14-31.07l59.76-41.51c20.76-14.42,60.84-25.69,90.27-25.69H118.5c29.42,0,40.06,11.27,23.17,25.69L93.05,818.88C73.31,835.73,29.41,850-4.21,850Z"/><path class="cls-5" d="M130.27,742.25H52.93c-29,0-37.25-10.62-19-23.27l45.35-31.5c15.91-11.06,49.35-19.73,75.19-19.73H223.3c25.84,0,36.62,8.67,23.67,19.73L210.08,719C195.25,731.63,159.29,742.25,130.27,742.25Z"/><path class="cls-6" d="M-72.43,742.25h-77.34c-29,0-34.08-10.62-12.09-23.27l54.73-31.5c19.21-11.06,55.24-19.73,81.08-19.73H42.81c25.84,0,34,8.67,17.79,19.73L14.32,719C-4.28,731.63-43.41,742.25-72.43,742.25Z"/><path class="cls-6" d="M232.39,660.46h-68c-25.53,0-34.37-8.23-20.19-18.08l35.59-24.72C192.34,608.92,220.92,602,244,602h61.39c23,0,33.64,6.88,23.4,15.62L299.8,642.38C288.26,652.23,257.92,660.46,232.39,660.46Z"/><path class="cls-5" d="M54.08,660.46H-14c-25.53,0-31.91-8.23-14.79-18.08l43-24.72C29.39,608.92,60,602,83.06,602h61.39c23,0,31.59,6.88,18.75,15.62l-36.32,24.72C112.4,652.23,79.61,660.46,54.08,660.46Z"/><path class="cls-6" d="M-124.24,660.46h-68c-25.53,0-29.46-8.23-9.4-18.08l50.32-24.72c17.79-8.74,50.48-15.62,73.52-15.62h61.39c23,0,29.54,6.88,14.09,15.62L-46,642.38C-63.46,652.23-98.71,660.46-124.24,660.46Z"/></g></g><rect class="cls-8" x="156.48" y="91.8" width="1717.83" height="917.14" rx="94.32"/><path class="cls-9" d="M583.32,53.18c53.73-16.76,88.28-15.22,110.46-10a344.69,344.69,0,0,0,37.43,7.3,326.94,326.94,0,0,0,56.59,2.74v241a166.08,166.08,0,0,1-20.08-.92c-18-1.91-26.42-5.78-36.51-7.3s-25-1.15-44.73,8.22Q634.9,173.67,583.32,53.18Z"/><path class="cls-10" d="M700,273.18A84.1,84.1,0,0,1,674.4,303.3c-5.68,4.05-19.91,13-78.5,13.69-71.29.79-89.81-12.08-98.59-20.08a72.79,72.79,0,0,1-9.13-10c-4.3-31.16-7.62-65.36-9.13-102.24A1064.39,1064.39,0,0,1,480.88,65a226,226,0,0,0,100.41,28.3A227.17,227.17,0,0,0,700,65Z"/><path class="cls-11" d="M700,65c-.41,15.07-57.72,26.66-98.59,28.3C546.16,95.56,481.3,81.21,480.88,65c-.4-14.85,53.6-30.8,98.58-32.86C637.58,29.52,700.4,49.16,700,65Z"/><ellipse class="cls-12" cx="593.16" cy="65.04" rx="36.51" ry="14.61"/><path class="cls-13" d="M558.47,65c0,3,2.93,5.32,5.48,7.31a24.6,24.6,0,0,0,10.95,4.56c6.12,1.27,12.64,1,12.78,0,.21-1.52-15-2.19-16.43-8.21-1.33-5.68,10.6-12,9.13-14.61-1-1.78-7-.1-10,.91C569.19,55.39,558.39,59.12,558.47,65Z"/><path class="cls-10" d="M518.3,64.13c.15,6.45,9.85,11,13.7,12.78,19.82,9.26,51.16,8.44,60.24,9.13.82.06,2.59.22,2.74.91s-1.32,1.54-1.82,1.83c-4.81,2.8-96.28-.85-96.77-22.82-.47-21.45,86.43-29.37,88.55-28.3.91.46.91.91.91.91,0,.45-.67.79-.91.91-2.48,1.26-35.27,2.47-52.94,11C529.44,51.67,518.14,57.09,518.3,64.13Z"/><path class="cls-14" d="M598,307a1.51,1.51,0,0,0,1.44-1.56A80.15,80.15,0,0,1,597.8,277c.11-.86.23-1.71.37-2.54a1.56,1.56,0,0,0-.49-1,1.47,1.47,0,0,0-1.07-.4,1.5,1.5,0,0,0-1.44,1.56c-.27,3.18-.35,5.75-.37,7.42a156.38,156.38,0,0,0,1,17c.26,2.83.49,5.12.64,6.55A1.7,1.7,0,0,0,598,307Z"/><rect class="cls-14" x="596.8" y="191.96" width="3" height="33" rx="1.5" transform="translate(1196.61 416.93) rotate(-180)"/><path class="cls-14" d="M597.54,151a1.51,1.51,0,0,0,1.57-1.43c-.32-3-.53-6.14-.56-9.53a97.66,97.66,0,0,1,2-20.44,1.58,1.58,0,0,0-.4-1.08,1.44,1.44,0,0,0-1-.48,1.5,1.5,0,0,0-1.57,1.42,113,113,0,0,0-1.39,30A1.71,1.71,0,0,0,597.54,151Z"/><path class="cls-9" d="M1714.57,52.18c-53.72-16.76-88.28-15.22-110.46-10a344.86,344.86,0,0,1-37.42,7.3,327,327,0,0,1-56.6,2.74v241a166.08,166.08,0,0,0,20.08-.92c18-1.91,26.42-5.78,36.52-7.3s25-1.15,44.73,8.22Q1663,172.67,1714.57,52.18Z"/><path class="cls-9" d="M1510.1,293.67c-107.3,6.47-228.79,10.9-362.12,11-135.56.06-259-4.4-367.68-11l-1.5-242c111.77,9.4,236.75,15.63,372.9,15.58,130.42,0,250.49-5.81,358.4-14.6Z"/><path class="cls-15" d="M1506.61,272a1.51,1.51,0,0,1-1.44-1.56A79.93,79.93,0,0,0,1506.8,242c-.11-.86-.23-1.71-.36-2.54a1.53,1.53,0,0,1,.48-1,1.5,1.5,0,0,1,2.52,1.16c.27,3.18.34,5.75.36,7.42a156.38,156.38,0,0,1-1,17c-.25,2.83-.48,5.12-.63,6.55A1.7,1.7,0,0,1,1506.61,272Z"/><rect class="cls-15" x="1504.8" y="156.96" width="3" height="33" rx="1.5"/><path class="cls-15" d="M1507.07,116a1.5,1.5,0,0,1-1.57-1.43c.32-3,.53-6.14.56-9.53a99,99,0,0,0-2-20.44,1.55,1.55,0,0,1,.39-1.08,1.48,1.48,0,0,1,1-.48,1.5,1.5,0,0,1,1.57,1.42,112.41,112.41,0,0,1,1.67,14.44,114.28,114.28,0,0,1-.28,15.53A1.71,1.71,0,0,1,1507.07,116Z"/><path class="cls-15" d="M1286.61,272a1.51,1.51,0,0,1-1.44-1.56A79.93,79.93,0,0,0,1286.8,242c-.11-.86-.23-1.71-.36-2.54a1.53,1.53,0,0,1,.48-1,1.5,1.5,0,0,1,2.52,1.16c.27,3.18.34,5.75.36,7.42a156.38,156.38,0,0,1-1,17c-.25,2.83-.48,5.12-.63,6.55A1.7,1.7,0,0,1,1286.61,272Z"/><rect class="cls-15" x="1284.8" y="156.96" width="3" height="33" rx="1.5"/><path class="cls-15" d="M1287.07,116a1.5,1.5,0,0,1-1.57-1.43c.32-3,.53-6.14.56-9.53a99,99,0,0,0-2-20.44,1.55,1.55,0,0,1,.39-1.08,1.48,1.48,0,0,1,1-.48,1.5,1.5,0,0,1,1.57,1.42,112.41,112.41,0,0,1,1.67,14.44,114.28,114.28,0,0,1-.28,15.53A1.71,1.71,0,0,1,1287.07,116Z"/><path class="cls-15" d="M1051.61,272a1.51,1.51,0,0,1-1.44-1.56A79.93,79.93,0,0,0,1051.8,242c-.11-.86-.23-1.71-.36-2.54a1.53,1.53,0,0,1,.48-1,1.5,1.5,0,0,1,2.52,1.16c.27,3.18.34,5.75.36,7.42a156.38,156.38,0,0,1-1,17c-.25,2.83-.48,5.12-.63,6.55A1.7,1.7,0,0,1,1051.61,272Z"/><rect class="cls-15" x="1049.8" y="156.96" width="3" height="33" rx="1.5"/><path class="cls-15" d="M1052.07,116a1.5,1.5,0,0,1-1.57-1.43c.32-3,.53-6.14.56-9.53a99,99,0,0,0-2-20.44,1.55,1.55,0,0,1,.39-1.08,1.48,1.48,0,0,1,1-.48,1.5,1.5,0,0,1,1.57,1.42,112.41,112.41,0,0,1,1.67,14.44,114.28,114.28,0,0,1-.28,15.53A1.71,1.71,0,0,1,1052.07,116Z"/><path class="cls-10" d="M1611.42,293.18A84.06,84.06,0,0,0,1637,323.3c5.68,4.05,19.92,13,78.51,13.69,71.28.79,89.81-12.08,98.59-20.08a73.45,73.45,0,0,0,9.13-10c4.3-31.16,7.62-65.36,9.13-102.24A1069.16,1069.16,0,0,0,1830.5,85a226,226,0,0,1-100.41,28.3A227.14,227.14,0,0,1,1611.42,85Z"/><path class="cls-11" d="M1611.42,85c.41,15.07,57.71,26.66,98.58,28.3,55.22,2.22,120.07-12.13,120.5-28.3.39-14.85-53.61-30.8-98.59-32.86C1673.8,49.52,1611,69.16,1611.42,85Z"/><ellipse class="cls-12" cx="1717.21" cy="85.02" rx="36.51" ry="14.61"/><path class="cls-13" d="M1752.91,85c0,3-2.94,5.32-5.48,7.31a24.6,24.6,0,0,1-11,4.56c-6.12,1.27-12.65,1-12.78,0-.22-1.52,15-2.19,16.43-8.21,1.33-5.68-10.6-12-9.13-14.61,1-1.78,7-.1,10,.91C1742.18,75.39,1753,79.12,1752.91,85Z"/><path class="cls-10" d="M1793.07,84.13c-.15,6.45-9.84,11-13.69,12.78-19.82,9.26-51.16,8.44-60.25,9.13-.81.06-2.58.22-2.74.91s1.33,1.54,1.83,1.83c4.81,2.8,96.27-.85,96.76-22.82.48-21.45-86.43-29.37-88.55-28.3-.91.46-.91.91-.91.91,0,.45.67.79.91.91,2.48,1.26,35.27,2.47,53,11C1781.94,71.67,1793.23,77.09,1793.07,84.13Z"/><rect class="cls-15" x="1684.8" y="198.96" width="3" height="33" rx="1.5"/><path class="cls-14" d="M1687.07,158a1.5,1.5,0,0,1-1.57-1.43c.32-3,.53-6.14.56-9.53a99,99,0,0,0-2-20.44,1.55,1.55,0,0,1,.39-1.08,1.48,1.48,0,0,1,1-.48,1.5,1.5,0,0,1,1.57,1.42,112.41,112.41,0,0,1,1.67,14.44,114.28,114.28,0,0,1-.28,15.53A1.71,1.71,0,0,1,1687.07,158Z"/><path class="cls-14" d="M1686.61,314a1.51,1.51,0,0,1-1.44-1.56A79.93,79.93,0,0,0,1686.8,284c-.11-.86-.23-1.71-.36-2.54a1.53,1.53,0,0,1,.48-1,1.5,1.5,0,0,1,2.52,1.16c.27,3.18.34,5.75.36,7.42a156.38,156.38,0,0,1-1,17c-.25,2.83-.48,5.12-.63,6.55A1.7,1.7,0,0,1,1686.61,314Z"/><path class="cls-16" d="M225.8,727.6h0c.12.16-3.37,2.83-3.24,3,.31.53,24.1-12.77,35.66-19.6,40.56-24,130.67-86.54,193.6-130.79,18.84-35,28.29-76.86,32.85-115.33,11.26-95.15-3.24-159.43-57.41-238.08-102.42,74.8-205.35,142.3-318,200.68C128.89,466,218.64,725.94,225.8,727.6Z"/><path class="cls-17" d="M118.33,422.14c-35.35-5.95-90.59-5.65-121-22.43-2.44-1.35-1.47-.76-3.07-1.08s-2,2.27-2,2.52c.25,3-.39,2.68,1.2,5.31,52,86.36,87.65,171.08,107.38,270.21.08.43-.17,0,0,.29.86,1.09-.51,1.52,1.19,2.4,2.24,1.17-1,.65,3.09,1.73,38.27,10,78.39,22.41,113.6,41.19,2.56,1.37,5.29,5,6.42,1.14.91-3,2.09,2.13-.84-4.66C182.59,622,171,516.9,118.33,422.14Z"/><path class="cls-18" d="M140.57,297.94c-21.65,13.61-155.8,87-153.1,104.76.2,1.34,1.26,1.53,2.44,2.15,37,19.56,79,17,119.24,24a22.68,22.68,0,0,0,8.31.14,19.42,19.42,0,0,0,7.16-3.15,181.83,181.83,0,0,1,16.79-9.41,109.52,109.52,0,0,1-4.23-13.54c-1-4.26-1.53-7.64-2.54-14.39,0,0-1.44-9.66-1.87-17-.18-3-.21-5.86-.21-5.86v-2.22C132.69,340.77,136.29,319.79,140.57,297.94Z"/><path class="cls-19" d="M784.76,708.51c-2.38,51.56-59,87.27-73.09,96.11-146.82,92.5-403.18,5.57-414.5-82.57-8.5-66.19,119.88-143.34,182-160,36.14-9.69,73.92-10,73.92-10s31.58-.26,60.51,5.76C676.9,571,788.18,634.2,784.76,708.51Z"/><path class="cls-17" d="M484.71,654.94c15.42-8.14,30-10.54,42.57-12.63a189.22,189.22,0,0,1,54.13-1.15c16.65,2.12,83.63,10.63,96.1,49.35,5.15,16-1.74,31.19-2.43,32.71-7.32,16-25.84,24.39-29.45,26-36.19,16.34-123-2.26-123-2.26-54.68-11.71-82.09-17.87-85.79-32.74C431.66,693.66,462.65,666.56,484.71,654.94Z"/><path class="cls-20" d="M438.43,718.91c35.11-9.4,70.24-13.58,106.29-7.75s69.65,19.92,101.33,38.22a114.22,114.22,0,0,1-39.91,12.46,131,131,0,0,1-18.62.84c-25.1-.27-37.64-.41-43.17-.84-17.44-1.37-32.1-2.53-50.79-8.47-30.52-9.7-45-23.65-48.3-26.9A93.64,93.64,0,0,1,438.43,718.91Z"/><path class="cls-21" d="M452.93,733.06a276.48,276.48,0,0,0,42.83-.64c6.4-.6,47.82-4.45,53.62,1.8a4.23,4.23,0,0,1,1.43,2.93c-.11,3.8-3.89,5.82-3.91,8.38,0,4.78,15.15,8.47,16.07,8.69a397.36,397.36,0,0,0,43.17,7.62c-39.89,2.07-68.17-.4-84.65-2.54a152.65,152.65,0,0,1-27.93-5.93A147.62,147.62,0,0,1,452.93,733.06Z"/><path class="cls-19" d="M131.25,326.73c1.9-23.43,6.06-74.91,43.76-121.56s103.85-82,169.82-71.91a128.86,128.86,0,0,1,32.76,8.94c116.25,49.39,108.74,252.66,104.88,272h0c-1.62,17.76-4.08,31.69-5.79,40.77-2.11,11.23-5.65,25.85-14.92,54.78-5.46,17-13,38.91-23.22,64.21A265.53,265.53,0,0,0,300.32,690c-30.24-34.71-50.1-57-68.76-84.13A599.55,599.55,0,0,1,181,516.16C150.35,449.2,125.7,395.42,131.25,326.73Z"/><path class="cls-22" d="M495.87,1039.76c56.16,2.48,115.61-8.1,154.22-52.91,3.88-4.5,9.58-13.86,12.69-19.5-4-18.9-8.77-37.34-13.18-56-21.35,7.49-43.84,13.39-66.16,16.11a327.24,327.24,0,0,1-86.14-1.17Q496.76,983,495.87,1039.76Z"/><path class="cls-23" d="M287,695a230.33,230.33,0,0,0,9,91.6c3,9.64,7.94,25.57,18.95,43,22.35,35.4,52.75,53.16,69.41,62.64,47.44,27,125.94,50,215.31,32.56,48-9.38,120.34-23.4,158-86.74,23.72-39.91,23.16-81.68,21.16-103.27a229.93,229.93,0,0,1-58.13,61.43C589.71,890.3,354,837,296.32,719.51A140.36,140.36,0,0,1,287,695Z"/><path class="cls-16" d="M184.62,762.78c-35.07-22.45-61.41-52-83-87,43.47,14.83,85.74,31.9,127.83,50.09,21.29-9.86,43.18-18.66,63.76-29.94,3.3,0,6.12-.38,9.71-.08-13.56,37.67-9,80.45,4.11,117,13.84,38.64,61.21,70.19,90.59,84.54,43,21,59.4,20.88,101,29.6-3.43,37-1.31,75.29-2.81,112.75-77.7-21.27-152.18-51.85-221.17-94.16-9.6-5.89-21.64-14-31.53-21.27,10.76-39.17,14.26-107.51-16.34-136.43C208,770,201.92,773.86,184.62,762.78Z"/><path class="cls-24" d="M229.61,725.65c7,5.34,14.68,10.67,23.32,12.32,3.32.63,8.52,2,15.33,1.09a38.93,38.93,0,0,0,17.28-6.65A38.41,38.41,0,0,0,296.82,720a124.11,124.11,0,0,1,19.8-52.21C302.7,677.58,288.32,687.42,229.61,725.65Z"/><path d="M406.58,505.42c1.57,2.43-25,36.68-59.83,33.87-38.95-3.16-59.24-50.44-57.57-51.93,1.49-1.33,20.69,33.73,55.31,38.38C378.2,530.27,405.07,503.11,406.58,505.42Z"/><path d="M388.46,365.51c22.58,25,7.94,74.47-2.59,75.55-6.28.65-12.59-15.8-19.48-33.75-5.17-13.46-18-46.78-8-53.91C364.89,348.74,380,356.11,388.46,365.51Z"/><path d="M317,384.33c17.72,25.19,6.65,74.07-2.75,75.6-7.75,1.27-16.75-29.38-21.85-46.77-5.36-18.25-10.67-36.33-4.94-42.25S308.61,372.34,317,384.33Z"/><ellipse class="cls-11" cx="313.75" cy="412.86" rx="6.69" ry="8.22"/><circle class="cls-11" cx="386.72" cy="395.64" r="7.25"/><path class="cls-25" d="M1180.4,190.16c3.23,4.22,10.28,13.48,7.86,23.31-5.46,22.18-55.27,31.41-92.18,24-7.63-1.54-36.4-7.32-41.09-23.32-.81-2.77-3.56-14.9,2.52-26.09l.34-.61c5.75-9.88,19.19-12.61,25.72-13.85C1103.57,169.8,1157.14,159.63,1180.4,190.16Z"/><path class="cls-25" d="M1164.35,186.66c-1.18,3-4.06,6-11.37,8.66-26.57,9.88-68.9.68-72-16.13-1.76-9.52,9.34-18.28,12-20.31,16.7-12.68,41.56-9.24,56.21,1.2C1157.26,165.84,1167.88,177.72,1164.35,186.66Z"/><path class="cls-25" d="M1099.26,167.07c1.77,8,15,11.44,23.85,11.44,8.15,0,18.88-3.22,23.86-11.44,10-16.45-14.24-40.18-17.81-38.78-2.06.81,3.31,9.65-1.68,15.89s-13.64,2.17-21.84,9.22C1105.16,153.81,1097.76,160.35,1099.26,167.07Z"/><path class="cls-11" d="M1104.8,164.36a4.86,4.86,0,1,1,4.85,4.85A4.84,4.84,0,0,1,1104.8,164.36Zm.53,26.38V175.22a4.33,4.33,0,0,1,8.65,0v15.52a4.33,4.33,0,1,1-8.65,0Z"/><path class="cls-11" d="M1143.14,178.1v12.64a4.32,4.32,0,1,1-8.64,0v-9c0-2.41-1.3-3.32-3.37-3.32a4.57,4.57,0,0,0-3.7,1.83v10.47a4.33,4.33,0,1,1-8.65,0V175.22a4.36,4.36,0,0,1,4.33-4.52,4.4,4.4,0,0,1,4.32,3.32,10.25,10.25,0,0,1,8-3.22C1140.79,170.8,1143.14,174.07,1143.14,178.1Z"/><path class="cls-11" d="M1105.33,228.75a3.69,3.69,0,0,1-2.93,3.55,12.13,12.13,0,0,1-2.83.29c-5.14,0-8-2.45-8-7.3v-9H1091a3.75,3.75,0,0,1,0-7.49h.58v-2.5a4.33,4.33,0,0,1,8.65,0v2.5h1.44a3.75,3.75,0,1,1,0,7.49h-1.44v6.49A2,2,0,0,0,1102,225l.43.05A3.55,3.55,0,0,1,1105.33,228.75Z"/><path class="cls-11" d="M1123.93,228.17v-9.08c0-2.4-1.3-3.22-3.37-3.22a4.57,4.57,0,0,0-3.7,1.83v10.47a4.33,4.33,0,1,1-8.65,0V203.81a4.33,4.33,0,0,1,8.65,0v7.64a10.25,10.25,0,0,1,8-3.22c5.38,0,7.73,3.17,7.73,7.21v12.73a4.32,4.32,0,1,1-8.64,0Z"/><path class="cls-11" d="M1148.43,208.23c6.82,0,12.06,4.9,12.06,10.62,0,3.27-1.83,4.23-5.14,4.23h-10.62c.48,1.49,2.16,2.93,5.09,2.93a9.37,9.37,0,0,0,3.41-.67,3.06,3.06,0,0,1,1.2-.24,3.27,3.27,0,0,1,3.27,3.27,3.34,3.34,0,0,1-2.11,3,20.22,20.22,0,0,1-6.87,1.2c-7.26,0-12.93-4.56-12.93-12.2C1135.79,213.66,1140.93,208.23,1148.43,208.23Zm-3.8,9.37h7.64a3.55,3.55,0,0,0-3.84-2.79A3.63,3.63,0,0,0,1144.63,217.6Z"/><path d="M1195.3,209.37v-48h-12.12a10.56,10.56,0,0,1,0-21.12h48.36a10.56,10.56,0,0,1,0,21.12h-12v48a12.12,12.12,0,1,1-24.24,0Z"/><path d="M1286.62,138.93c24.72,0,43.8,16.8,43.8,41.4s-19.08,41.4-43.8,41.4-43.8-16.8-43.8-41.4S1261.9,138.93,1286.62,138.93Zm0,21.36c-11.64,0-19.2,8.88-19.2,20s7.56,20,19.2,20,19.2-8.88,19.2-20S1298.26,160.29,1286.62,160.29Z"/><path d="M1339.06,209.37v-58.2a12.12,12.12,0,1,1,24.24,0v58.2a12.12,12.12,0,1,1-24.24,0Z"/><path d="M1376.26,207.45V151.17a12.12,12.12,0,1,1,24.24,0v48h21a10.56,10.56,0,0,1,0,21.12h-32.4C1380.82,220.29,1376.26,215.73,1376.26,207.45Z"/><path d="M1440.58,207.45V153.09c0-8.28,4.56-12.84,12.84-12.84h39a10.08,10.08,0,0,1,0,20.16h-27.6v9.36h26.76a10.08,10.08,0,1,1,0,20.16h-26.76v10.2h27.6a10.08,10.08,0,0,1,0,20.16h-39C1445.14,220.29,1440.58,215.73,1440.58,207.45Z"/><path d="M1529.26,209.37v-48h-12.12a10.56,10.56,0,0,1,0-21.12h48.36a10.56,10.56,0,0,1,0,21.12h-12v48a12.12,12.12,0,1,1-24.24,0Z"/><path d="M1593.94,196.05a12.78,12.78,0,1,1-12.72,12.84A12.91,12.91,0,0,1,1593.94,196.05Zm-10.32-13.92-1.92-30.24a12,12,0,0,1,12.12-12.84,12.18,12.18,0,0,1,12.12,12.84l-1.8,30.24a10.28,10.28,0,0,1-20.52,0Z"/><path d="M713.14,208.34V152.06c0-8.28,4.56-12.84,12.84-12.84h29.88c18.71,0,28.79,12.48,28.79,27.48s-10.08,26.88-28.79,26.88H737.38v14.76a12.12,12.12,0,1,1-24.24,0Zm39.6-49H737.38v14h15.36c4.08,0,7.32-2.76,7.32-7S756.82,159.38,752.74,159.38Z"/><path d="M832.05,137.9c24.72,0,43.8,16.8,43.8,41.4s-19.08,41.4-43.8,41.4-43.79-16.8-43.79-41.4S807.34,137.9,832.05,137.9Zm0,21.36c-11.64,0-19.2,8.88-19.2,20s7.56,20,19.2,20,19.2-8.88,19.2-20S843.69,159.26,832.05,159.26Z"/><path d="M924,137.9c24.72,0,43.8,16.8,43.8,41.4s-19.08,41.4-43.8,41.4-43.79-16.8-43.79-41.4S899.25,137.9,924,137.9Zm0,21.36c-11.64,0-19.2,8.88-19.2,20s7.56,20,19.2,20,19.2-8.88,19.2-20S935.61,159.26,924,159.26Z"/><path d="M976.41,208.34V152.06c0-8.28,4.56-12.84,12.84-12.84h29.88c18.72,0,28.8,12.48,28.8,27.48s-10.08,26.88-28.8,26.88h-18.48v14.76a12.12,12.12,0,1,1-24.24,0Zm39.6-49h-15.36v14H1016c4.08,0,7.32-2.76,7.32-7S1020.09,159.38,1016,159.38Z"/><path class="cls-26" d="M130.84,199.21c.28,1.76,1,6.14-1.79,9.65A10,10,0,0,1,124.6,212a11.76,11.76,0,0,1-8.85-.51c.74-1.17,1.47-2.75,1-4.16-1.8-4.92-16.48-1.47-19-7a5.69,5.69,0,0,1,1.43-6.23c4.91-3.88,16.09,8.11,25.12,4A11.31,11.31,0,0,0,129,194,15.77,15.77,0,0,1,130.84,199.21Z"/><path class="cls-27" d="M148.61,172.45c2.35-.3,4-2.32,5-3.87a10.41,10.41,0,0,1,1,3.29c.69,5.53-3.31,11.16-8.18,13.65a14.74,14.74,0,0,1-5.61,1.55,9.91,9.91,0,0,0,.33-7.14c-2.06-5.09-9.08-5.38-9.32-8.94-.13-2,1.82-4.3,3.95-4.78C140.33,165.21,143.57,173.08,148.61,172.45Z"/><path class="cls-28" d="M159.65,156.83a7.55,7.55,0,0,0,4.59,1.93c3.73.15,6.12-2.9,6.46-3.33,2.72-3.48,2.24-9.48-1.41-14.77-4.83-3.53-6-6.67-6.27-8.88-.27-2.74.93-4.63-.34-7.08-.88-1.7-2.82-3.43-4.71-3.28-3,.24-5.79,5.28-5.52,9.67.37,6,6.17,7.32,8.13,14.13A18.36,18.36,0,0,1,159.65,156.83Z"/><path class="cls-29" d="M77.62,220.2c.07.56-2.07.62-4.5,2.47-2.59,2-2.26,3.49-4.32,4.47-2.22,1.07-5.62.72-6.54-1.07-.67-1.32.15-3.13,1-4.15,1.74-2.18,4.72-2.32,8.23-2.48C74,219.32,77.54,219.49,77.62,220.2Z"/><path class="cls-29" d="M178.42,147.58c.76,4.37,2.85,8.56,7,16.95a163.7,163.7,0,0,0,13.29,22.1,108.19,108.19,0,0,1-7,15.24c-5,8.89-12.83,22.57-28.19,31.14a58.28,58.28,0,0,1-9.75,4.32c-2.88-1.84-7.18-4.45-12.55-7.27-18.13-9.52-27.19-14.27-37.85-13.33-7.64.68-14.59,4-17.22.63a4,4,0,0,1-.69-3.66c1.59-4.35,13.15-3.92,17.94-3.75,13.86.52,19,4.35,23.45.81,3.59-2.83,3.82-8.07,3.86-9.17.28-6.37-4.06-11.17-4.87-12.07-3.27-3.61-6.19-4-6.38-6.5a5.9,5.9,0,0,1,3.88-5.46c5.6-1.75,9.64,9.58,17.51,9.51,6.73,0,14.27-8.43,13.79-15.2-.46-6.5-8.13-9-7.21-15.23.34-2.35,1.89-5.22,4.19-5.82,4-1.06,6.61,7.85,12.61,7.94a8.28,8.28,0,0,0,6.46-3.33c3.2-4.38-.94-9.66-2.29-20.44-1-7.83-.75-20.44,4.29-22.43,2.21-.87,5.44.26,7.34,2.35C185.65,121.1,175.57,131.27,178.42,147.58Z"/><path class="cls-29" d="M108.62,160.3c.9.66.78,1.36,1.73,3.9,1.61,4.29,3.27,5.75,2.66,6.52-.13.16-.57.56-4.46-.59-4.52-1.33-6.77-2-7.47-3.69a5.1,5.1,0,0,1,1.2-5.2C104,159.42,107,159.13,108.62,160.3Z"/><path class="cls-29" d="M130.74,136.51c1.53,1.81,4,4.42,4.78,4s-1.89-3.82-1.13-8.36c.49-2.93,1.94-3.56,1.5-5.56a5.85,5.85,0,0,0-5.15-4.26,5.53,5.53,0,0,0-5.18,2.53C123.78,128.22,128,133.27,130.74,136.51Z"/><path class="cls-29" d="M173.71,104c-.84-.7-.07-2.15.16-5.44.18-2.78-.27-3.11.22-4.76a5.93,5.93,0,0,1,2.36-3.61,5.34,5.34,0,0,1,6.18.76c2.56,2.62.84,8.34-1.79,9.66-1.24.62-2.47.18-3.6,1.36-.83.87-.85,1.85-1.82,2.21A1.84,1.84,0,0,1,173.71,104Z"/><path d="M163.66,193.54c2.48,2.76,2.37,7.67.65,8.57-1.5.78-4.33-1.41-5.76-3.51s-2.48-5.82-1-7S162,191.67,163.66,193.54Z"/><path d="M171.26,184.35c2.47,2.77,2.37,7.68.65,8.58-1.5.78-4.34-1.41-5.76-3.52s-2.48-5.81-1-7S169.59,182.49,171.26,184.35Z"/><path d="M177.29,201.46c0,.63-2.77.07-4.78,1.9-1.83,1.66-1.66,4-2.13,4s-1.49-3.32.15-5.4a4.62,4.62,0,0,1,3.08-1.6C175.44,200.13,177.32,200.94,177.29,201.46Z"/><ellipse class="cls-11" cx="162.52" cy="197.54" rx="0.95" ry="1.43" transform="translate(-93.28 197.06) rotate(-50.45)"/><ellipse class="cls-11" cx="170.54" cy="189.32" rx="0.95" ry="1.43" transform="matrix(0.64, -0.77, 0.77, 0.64, -84.03, 200.26)"/><path class="cls-25" d="M412.76,665.71c-7.19,10-23,31.85-17.55,55.06,12.19,52.37,123.44,74.17,205.87,56.66,17-3.62,81.3-17.27,91.77-55.06,1.81-6.54,7.94-35.19-5.63-61.61-.21-.42-.44-.86-.75-1.43C673.62,636,643.59,629.54,629,626.61,584.35,617.65,464.73,593.63,412.76,665.71Z"/><path class="cls-25" d="M433.51,660.13c3,8,10.26,15.88,28.73,23.14,67.13,26.38,174.09,1.8,181.93-43.09,4.45-25.46-23.6-48.87-30.32-54.26-42.21-33.9-105-24.72-142,3.19C451.41,604.49,424.59,636.24,433.51,660.13Z"/><path class="cls-25" d="M597.09,600.28c-4.21,20-35.6,28.74-56.65,28.73-19.35,0-44.83-8.08-56.66-28.73-23.66-41.3,33.81-100.87,42.29-97.35,4.9,2-7.85,24.21,4,39.9,11.61,15.37,32.4,5.42,51.87,23.14C583.08,567,600.65,583.41,597.09,600.28Z"/><path class="cls-30" d="M643.38,644.17c-4.92,19.2-25.08,28.78-36.71,34.31-3.93,1.87-16.17,7.42-39.9,11.17-57,9-100.58-4.94-108.52-8.78-.86-.41-6-3-6.39-2.39s2.33,2.51,3.2,3.19c9.08,7.19,108.16,30.9,166.77-4,20.07-11.95,25.68-25,27.13-28.73a48.21,48.21,0,0,0,3.19-16,13.85,13.85,0,0,0-3.19-1.6,14.48,14.48,0,0,0-4.79-.8A36.7,36.7,0,0,1,643.38,644.17Z"/><path class="cls-30" d="M489.37,608.26c-.28.4,11.45,13.49,29.52,20,33.4,11.93,80.72-1.57,87.78-27.13,1.24-4.51,1.84-11.59-2.39-21.55A45.27,45.27,0,0,0,595.5,574a45.88,45.88,0,0,0-8.78-3.2,39,39,0,0,1,8,12.77c2.55,6.72,2.9,13.33,2.39,16.76-2.61,17.72-40.53,34.84-72.61,27.13C503.51,622.37,489.67,607.83,489.37,608.26Z"/><path d="M621,657.73c-.74,5.46-4.61,11.87-8.78,12a7,7,0,0,1-4-1.59c-1.14-.78-3.66-2.76-5.58-8-1-2.75-4.69-12.75.8-20,1.11-1.46,2.2-2.9,4-3.19C613.18,636,622.43,647.4,621,657.73Z"/><path d="M584,671.13c-.74,5.46-4.61,11.87-8.78,12a7,7,0,0,1-4-1.59c-1.14-.77-3.66-2.75-5.58-8-1-2.75-4.69-12.75.8-19.95,1.11-1.46,2.2-2.9,4-3.19C576.11,649.44,585.36,660.8,584,671.13Z"/><path d="M577.14,730.35c-1,.39,2.58,23.74,11.18,24.73,9.38,1.09,18-25.26,17.55-25.53s-7.54,18.93-16,18.35C582.07,747.36,578.05,730,577.14,730.35Z"/><ellipse class="cls-11" cx="577.14" cy="666.51" rx="3.19" ry="6.38"/><ellipse class="cls-11" cx="613.85" cy="652.94" rx="3.19" ry="6.38"/><path class="cls-31" d="M192.5,905.43c10.73-21,36.4-37.6,51.51-31.24,10.42,4.39,5.46,20.39,22.46,39.9,3.68,4.22,9.36,10.62,18.32,14.93,11,5.32,20.48,4.28,47.9.64,43.21-5.74,50.61-7.28,62-3a56.69,56.69,0,0,1,24.66,18.21c14.58,19,16.88,49.36,2.92,68.38-11.19,15.24-29.25,18.46-43.71,21.13-17.85,3.29-24.94,0-63.81-4.05-46.88-4.83-45.93-.94-60-5.91-7.4-2.62-38.08-14-55.59-46.09C195.07,970.79,176.61,936.56,192.5,905.43Z"/><path class="cls-31" d="M220.31,979.23l47.91-23.17a17,17,0,0,0,7.67-22.74c-4.23-8.76-7.58-16-11.2-20-14.94-16.52-6.85-24-26.64-71.19-.24-.58-.43-1-.67-1.52a103.45,103.45,0,0,0-11.07-18c-6.3-8.29-14-22.05-18.22-32.65,0,0-3.44-8.62-7.54-9a10.86,10.86,0,0,0-4.48.58,8.68,8.68,0,0,0-1.29.62c-33.05,19.28-55.28,26.73-55.28,26.73-6.5,2.17-14.1,4.21-14.81,8.74-.33,2.17.91,4.93,2.45,8.33a43.74,43.74,0,0,0,3.46,6.26A239.71,239.71,0,0,1,150.53,867c8,17.23,11.09,29.2,14.86,40.4,5.38,16,14.77,38.09,32.34,63.67C198.23,972.15,201,977.54,220.31,979.23Z"/><path class="cls-32" d="M409.46,1024.44c-1.19.19-2.8-3.5-3.58-8.22l-13.49-81.45c-.78-4.72-.45-8.73.73-8.93h0c1.19-.2,2.8,3.5,3.58,8.22l13.49,81.45C411,1020.22,410.64,1024.24,409.46,1024.44Z"/><path class="cls-32" d="M220.26,979.25a79.09,79.09,0,0,0-26-11.2L193,965.48c6.11.89,31.07,5.24,48.17,27.47a71.29,71.29,0,0,1,13.63,31.47l-1.91-.66C250.33,1015.68,242.26,993.94,220.26,979.25Z"/><path d="M321.88,951.86c1.15,5.31,7.67,9.36,11.91,7.29,3.4-1.66,4.66-6.93,3.15-10.84-1.69-4.37-7.09-7.68-11.18-5.78C322.41,944.08,321.16,948.53,321.88,951.86Z"/><ellipse cx="303.34" cy="955.52" rx="7.68" ry="9.44" transform="translate(-308.09 161.05) rotate(-19.97)"/><circle class="cls-11" cx="330.81" cy="950.39" r="2.14"/><circle class="cls-11" cx="303.94" cy="953.87" r="2.14"/><path d="M324.3,998.57c-.3.24,2.17,5.6,7.54,9,2.26,1.44,7,4.51,10.82,2.7,5-2.39,4.55-11.46,3.41-15.92-.14-.54-.66-2.6-1.24-2.58-1.53.08.19,14.61-4.69,16.55-2.66,1-6.57-1.9-10.16-4.61C326.2,1000.9,324.52,998.39,324.3,998.57Z"/><ellipse class="cls-33" cx="214.45" cy="822.45" rx="4.15" ry="22.17" transform="translate(-393.4 228.37) rotate(-31.04)"/><ellipse class="cls-33" cx="202.02" cy="829.18" rx="4.15" ry="21.3" transform="translate(-371.88 197.52) rotate(-28.56)"/><ellipse class="cls-33" cx="187" cy="837.24" rx="4.15" ry="20.57" transform="translate(-345.76 164.85) rotate(-25.8)"/><ellipse class="cls-33" cx="171.65" cy="844.8" rx="4.15" ry="20.72" transform="translate(-383.05 184.9) rotate(-28.56)"/><ellipse class="cls-33" cx="155.32" cy="853.37" rx="4.15" ry="19.84" transform="translate(-389.13 178.14) rotate(-28.56)"/><path class="cls-34" d="M705,926.42a137.34,137.34,0,0,1,6.89-35.81c18.53-55.06,67.38-81.9,83.87-90a312.38,312.38,0,0,1-12.28,42.88c-7.27,20-11.76,26.16-13.18,38-1.36,11.28.18,28,14.67,50A222.09,222.09,0,0,1,757.49,940c-21.48,5.19-36.18,8.6-45.23.72C707.52,936.54,705.75,930.72,705,926.42Z"/><path class="cls-34" d="M918.34,772.06a101.54,101.54,0,0,1,38,.74c32.48,6.92,52.06,28.14,58.85,36.29a15.33,15.33,0,0,1,2.16,5.59c1.3,7.76-4.53,14-16.4,29.12-2.62,3.34-6.59,8.47-11.4,14.92-1.84-11-8.51-41.54-35.28-65.47A108.07,108.07,0,0,0,918.34,772.06Z"/><path class="cls-34" d="M987.74,863.9a95.34,95.34,0,0,1-9,44.29c-24.69-1.67-37.05,5.2-43.71,11.33-16.74,15.41-13.34,40.86-30.51,47.12a170.78,170.78,0,0,1-22,5.24c-4.25.76-7.79,1.26-10.24,1.57q-4.21-11.51-8.41-23a72.12,72.12,0,0,0-62-1.54,118.39,118.39,0,0,1-27.51-56c-8.91-47.89,16.07-84.76,21.41-92.28a66.62,66.62,0,0,0,22.88,10.83c14.77,3.74,26.82,1.2,34.84-.58,32.44-7.21,56.93-29.85,66-39a111.31,111.31,0,0,1,41.68,28.74,105.57,105.57,0,0,1,16,23.47A100.86,100.86,0,0,1,987.74,863.9Z"/><path class="cls-34" d="M936.39,637.82c-3.6,10-14,20.68-24,19.71-6.49-.63-6.43-5.51-17.48-11.28-12-6.25-17.71-3.47-20.56-8.35-4.08-7,3.3-20.25,12-27.16,11-8.71,23.82-7.23,26.24-7,3.69.43,10.52,1.31,16.67,6.65a23.91,23.91,0,0,1,7.17,27.39Z"/><path class="cls-34" d="M1006.79,1007.5a53.44,53.44,0,0,1-10.22,3c-41.55,7.69-89.77-35.78-88.73-62.76a38.09,38.09,0,0,1,3.68-14.32c4.26-8.25,10.81-12.65,17.47-16.17a90.52,90.52,0,0,1,41.09-10.75,86.14,86.14,0,0,1,14.51,1.06,166.06,166.06,0,0,1,38.54,8.8c10.62,3.76,15.92,6.2,20,12a25.93,25.93,0,0,1,4.13,10,46,46,0,0,1,.71,17.78c-1.78,11.19-7.39,18.57-13.33,26.19A110.21,110.21,0,0,1,1006.79,1007.5Z"/><path class="cls-34" d="M944.07,709.29c1.62,15.5-2.88,27.47-5.2,33.45-17.94,46.17-71.47,61.51-79.33,63.64-17.51,4.75-33.87,9.18-51,1.74-34.42-14.93-39.3-63.46-40.38-74.13-1.34-13.29-4.42-44,16.45-69.53,15.65-19.15,36.22-25,43.15-26.8,38.18-10.19,77.77,7.12,98.84,32.91C931.62,676.74,942,689.84,944.07,709.29Z"/><ellipse cx="821.85" cy="701.85" rx="11.47" ry="15.52" transform="translate(-246.14 536.21) rotate(-31.68)"/><ellipse cx="872.46" cy="680.36" rx="10.5" ry="14.21" transform="translate(-220.44 508.22) rotate(-29)"/><path class="cls-34" d="M805.42,626A76.94,76.94,0,0,1,802.2,635c-2.43,5.64-5,9.69-9.16,15.92-3.54,5.27-8,11.72-13.39,19l54.49-29.79a27.44,27.44,0,0,1-9.12-4.38c-2.85-2.12-3.39-3.44-8.56-8.06-4.64-4.12-6.36-5-8-4.58A5.27,5.27,0,0,0,805.42,626Z"/><path class="cls-34" d="M868.92,958.2a41.52,41.52,0,0,0-14-13.75c-20.49-12.08-43.85-.46-46.32.8-5,2.56-8,5.18-13.13,9.7a120.48,120.48,0,0,0-31.19,44.68,125.26,125.26,0,0,0-8.45,33.7,48.69,48.69,0,0,0,12.55,24.07c13.6,13.88,35.58,18.07,56.92,11.57a58.56,58.56,0,0,0,16.77-6.51c32-18.6,33.4-62.1,33.52-67.91A93.82,93.82,0,0,0,868.92,958.2Z"/><path class="cls-35" d="M922.06,713.13c-6.75-16-55-20.63-84.47,1.59-16.76,12.64-31.31,36.84-23.8,48.31,5.8,8.88,24.11,9.09,36.36,3.21,9.22-4.41,20.17-14.74,18.58-23.52-1-5.35-7.35-14.37-6.5-16.77a3.06,3.06,0,0,1,.95-1.37,3.29,3.29,0,0,1,2.32-.4c2.65.46,1.53,11.51,5.35,17,5.63,8.06,25.32,8.69,38.07-.67C917.13,734.47,925.76,721.91,922.06,713.13Z"/><path d="M874.41,700c.25,4.16.36,15.15-7,21.51A16.72,16.72,0,0,1,865.3,723a13.29,13.29,0,0,1-4.64.81c-9.85-.08-16-11.59-16.52-12.64a37,37,0,0,1,5.19-4.48A37.74,37.74,0,0,1,874.41,700Z"/><path class="cls-34" d="M863.91,639.71c-16,3-32.47,6.6-49.41,11q-6.35,1.65-12.54,3.38a114.75,114.75,0,0,0,41.84-40.71,14.8,14.8,0,0,1,6.6,3.62c4.63,4.52,3.3,10,7.66,16.57A24,24,0,0,0,863.91,639.71Z"/><path class="cls-11" d="M826.05,696.44c1.91,2.44,2.43,6.7.26,8.31s-5.84.18-7.56-2.26c-1.94-2.76-1.51-7.3.9-8.51C821.7,693,824.6,694.59,826.05,696.44Z"/><path class="cls-11" d="M876.38,675.5c1.91,2.43,2.44,6.7.26,8.31s-5.84.17-7.56-2.27c-1.94-2.76-1.5-7.3.91-8.51C872,672,874.94,673.65,876.38,675.5Z"/><path class="cls-36" d="M1039.06,952.94c-2.55-3.76-8.49-4.94-10.48-5.34a24,24,0,0,0-11.79.86,35.76,35.76,0,0,0-16.16,10c-2.21,2.37-7.58,8.13-9,17.08-1.22,8,.34,20.79,7.71,23.72,6.72,2.67,14.75-4.25,21-9.63C1032.26,979.39,1044.64,961.17,1039.06,952.94Z"/><path class="cls-37" d="M1020.77,937c.08,2.5-2,4.55-3.83,5.44-3.54,1.72-9,.46-10.07-3-1-3.2,1.82-7.48,5.73-8.16S1020.65,933.6,1020.77,937Z"/><path class="cls-37" d="M991.86,949.23c1.72,4-2.33,9.78-6.7,9.52a6.62,6.62,0,1,1,6.7-9.52Z"/><path class="cls-37" d="M981.09,983.33c.58,2.82-.42,6.94-3.42,7.76s-6.09-1.87-6.8-4.78c-1-3.93,2.62-8.42,5.74-8.17C978.93,978.33,980.64,981.11,981.09,983.33Z"/><path class="cls-38" d="M827.62,1057.23c2.38-3.86,1-9.76.58-11.74a24,24,0,0,0-5.61-10.4,35.67,35.67,0,0,0-15.72-10.67c-3.06-1.05-10.51-3.6-19.25-1.19-7.75,2.13-18.83,8.81-18.49,16.74.31,7.22,9.91,11.73,17.38,15.23C800.7,1061.85,822.38,1065.69,827.62,1057.23Z"/><path class="cls-37" d="M832.94,1037.91c-2.25,1.11-5,0-6.53-1.26-3-2.52-4.09-8-1.37-10.43,2.5-2.24,7.57-1.39,9.8,1.9S836,1036.4,832.94,1037.91Z"/><path class="cls-37" d="M811.54,1018.64c-3,3.22-9.87,1.88-11.42-2.21a6.62,6.62,0,1,1,11.42,2.21Z"/><path class="cls-37" d="M778.54,1023.52c-2.34,1.68-6.51,2.46-8.48.06s-.79-6.32,1.58-8.17c3.2-2.48,8.75-1,9.8,1.9C782.22,1019.51,780.38,1022.2,778.54,1023.52Z"/><path class="cls-34" d="M768.48,701.7c-.76,6.89.35,8.44-1.66,11-6.08,7.87-26.87,6.74-36.56-4.36-4.2-4.81-5.31-10.33-5.9-13.3a37.52,37.52,0,0,1,3.11-23.22,47.39,47.39,0,0,1,13-21.36,38,38,0,0,1,12.89-8.22,29.5,29.5,0,0,1,24,.6c2.77,1.27,12.45,5.71,12.85,12.08.21,3.33-2.22,5.26-5.53,9.32C776.05,674.79,769.84,689.37,768.48,701.7Z"/><path class="cls-39" d="M772.81,685.43a41.38,41.38,0,0,0-3.22,8.92A27.36,27.36,0,0,0,769,698a12.68,12.68,0,0,1-7.71,3.73c-6.45.47-12.36-5.12-13.91-11.31-1.77-7.11,2.18-15.2,8.86-17.65,5.78-2.13,11.15.87,12.19,1.45s6.13,3.43,6,7.3C774.5,682.45,774.22,682.43,772.81,685.43Z"/><path class="cls-40" d="M910.28,638.69c1,5.33-3.37,10.54-7,10.85-1.66.14-2.07-.87-7.21-3.45s-6.1-2.32-6.64-3.56c-1.38-3.21,3.21-10.83,9.86-11.39C903.77,630.77,909.29,633.55,910.28,638.69Z"/><path class="cls-41" d="M771.57,911.18c-6.42-24.79-.75-47.24.4-47.2.55,0,.13,5.13,1.94,18.18,1,7.06,2.06,12.5,2.71,15.58a124.91,124.91,0,0,0,3.92,15.37,90.49,90.49,0,0,0,7.92,17.14l-8.18,2.66A92.64,92.64,0,0,1,771.57,911.18Z"/><path class="cls-41" d="M975.47,818.63A118,118,0,0,1,985,838a108,108,0,0,1,5.27,19.45l-3.49,4.93A133.34,133.34,0,0,0,978.34,828a93.94,93.94,0,0,0-15.59-25.68C954,792.09,944.77,786,945,785.66s8,4.22,15.69,12.08C967.15,804.35,970.72,810.48,975.47,818.63Z"/><path class="cls-41" d="M833.44,814.54c-22.42-.78-38.68-13.44-38.3-14.31s16.66,10.84,40.07,10.3c14-.32,24.78-4.86,37.72-10.28,21.63-9.06,33.48-18.81,33.86-18.25s-16.11,16.22-41.2,25.7C856,811.33,846.32,815,833.44,814.54Z"/><path class="cls-42" d="M881.38,965.91c4.86,2.44,10.14.84,11.2.51a15.86,15.86,0,0,0,7.76-5c1.95-2.41,2.65-4.89,3.54-8s.51-3.36,1.35-6.41c1.24-4.45,3.21-8.15,3.54-8s-1,2.48-1.35,6.41a29.06,29.06,0,0,0,2.51,14.38,28.48,28.48,0,0,0,1.82,3.38A95.09,95.09,0,0,1,885.5,972,93.91,93.91,0,0,1,874,973.36a43.26,43.26,0,0,0-2.87-9.38c-4.59-10.56-12-16-11.52-16.51s9.26,3.61,15.69,12.08C877.44,962.34,878.44,964.43,881.38,965.91Z"/><path class="cls-15" d="M835.61,268a1.51,1.51,0,0,1-1.44-1.56A79.93,79.93,0,0,0,835.8,238c-.11-.86-.23-1.71-.36-2.54a1.53,1.53,0,0,1,.48-1,1.5,1.5,0,0,1,2.52,1.16c.27,3.18.34,5.75.36,7.42a156.38,156.38,0,0,1-1,17c-.25,2.83-.48,5.12-.63,6.55A1.7,1.7,0,0,1,835.61,268Z"/><path class="cls-15" d="M836.07,112a1.5,1.5,0,0,1-1.57-1.43c.32-3,.53-6.14.56-9.53a99,99,0,0,0-1.95-20.44,1.55,1.55,0,0,1,.39-1.08,1.48,1.48,0,0,1,1-.48,1.5,1.5,0,0,1,1.57,1.42,112.41,112.41,0,0,1,1.67,14.44,114.28,114.28,0,0,1-.28,15.53A1.71,1.71,0,0,1,836.07,112Z"/></g><g id="you_lose" data-name="you lose"><g class="cls-43"><g class="cls-44"><rect class="cls-1" x="132.97" y="-187.63" width="821.79" height="810.97"/><rect class="cls-4" x="132.97" y="-187.63" width="821.79" height="810.97"/><path class="cls-6" d="M879.53,590.26H818.15c-23,0-41.7-18.43-41.7-41.15V488.53c0-22.72,18.67-41.15,41.7-41.15h61.38c23,0,41.71,18.43,41.71,41.15v60.58C921.24,571.83,902.57,590.26,879.53,590.26Z"/><path class="cls-5" d="M718.66,590.26H657.28c-23,0-41.7-18.43-41.7-41.15V488.53c0-22.72,18.67-41.15,41.7-41.15h61.38c23,0,41.71,18.43,41.71,41.15v60.58C760.37,571.83,741.69,590.26,718.66,590.26Z"/><path class="cls-6" d="M557.79,590.26H496.41c-23,0-41.7-18.43-41.7-41.15V488.53c0-22.72,18.67-41.15,41.7-41.15h61.38c23,0,41.7,18.43,41.7,41.15v60.58C599.49,571.83,580.82,590.26,557.79,590.26Z"/><path class="cls-5" d="M396.92,590.26H335.54c-23,0-41.7-18.43-41.7-41.15V488.53c0-22.72,18.67-41.15,41.7-41.15h61.38c23,0,41.7,18.43,41.7,41.15v60.58C438.62,571.83,420,590.26,396.92,590.26Z"/><path class="cls-6" d="M236.05,590.26H174.67c-23,0-41.7-18.43-41.7-41.15V488.53c0-22.72,18.67-41.15,41.7-41.15h61.38c23,0,41.7,18.43,41.7,41.15v60.58C277.75,571.83,259.08,590.26,236.05,590.26Z"/><path class="cls-5" d="M879.53,431.51H818.15c-23,0-41.7-18.43-41.7-41.16V329.78c0-22.73,18.67-41.15,41.7-41.15h61.38c23,0,41.71,18.42,41.71,41.15v60.57C921.24,413.08,902.57,431.51,879.53,431.51Z"/><path class="cls-6" d="M718.66,431.51H657.28c-23,0-41.7-18.43-41.7-41.16V329.78c0-22.73,18.67-41.15,41.7-41.15h61.38c23,0,41.71,18.42,41.71,41.15v60.57C760.37,413.08,741.69,431.51,718.66,431.51Z"/><path class="cls-5" d="M557.79,431.51H496.41c-23,0-41.7-18.43-41.7-41.16V329.78c0-22.73,18.67-41.15,41.7-41.15h61.38c23,0,41.7,18.42,41.7,41.15v60.57C599.49,413.08,580.82,431.51,557.79,431.51Z"/><path class="cls-6" d="M396.92,431.51H335.54c-23,0-41.7-18.43-41.7-41.16V329.78c0-22.73,18.67-41.15,41.7-41.15h61.38c23,0,41.7,18.42,41.7,41.15v60.57C438.62,413.08,420,431.51,396.92,431.51Z"/><path class="cls-5" d="M236.05,431.51H174.67c-23,0-41.7-18.43-41.7-41.16V329.78c0-22.73,18.67-41.15,41.7-41.15h61.38c23,0,41.7,18.42,41.7,41.15v60.57C277.75,413.08,259.08,431.51,236.05,431.51Z"/><path class="cls-6" d="M879.53,272.75H818.15c-23,0-41.7-18.42-41.7-41.15V171c0-22.73,18.67-41.16,41.7-41.16h61.38c23,0,41.71,18.43,41.71,41.16V231.6C921.24,254.33,902.57,272.75,879.53,272.75Z"/><path class="cls-5" d="M718.66,272.75H657.28c-23,0-41.7-18.42-41.7-41.15V171c0-22.73,18.67-41.16,41.7-41.16h61.38c23,0,41.71,18.43,41.71,41.16V231.6C760.37,254.33,741.69,272.75,718.66,272.75Z"/><path class="cls-6" d="M557.79,272.75H496.41c-23,0-41.7-18.42-41.7-41.15V171c0-22.73,18.67-41.16,41.7-41.16h61.38c23,0,41.7,18.43,41.7,41.16V231.6C599.49,254.33,580.82,272.75,557.79,272.75Z"/><path class="cls-5" d="M396.92,272.75H335.54c-23,0-41.7-18.42-41.7-41.15V171c0-22.73,18.67-41.16,41.7-41.16h61.38c23,0,41.7,18.43,41.7,41.16V231.6C438.62,254.33,420,272.75,396.92,272.75Z"/><path class="cls-6" d="M236.05,272.75H174.67c-23,0-41.7-18.42-41.7-41.15V171c0-22.73,18.67-41.16,41.7-41.16h61.38c23,0,41.7,18.43,41.7,41.16V231.6C277.75,254.33,259.08,272.75,236.05,272.75Z"/><path class="cls-5" d="M879.53,114H818.15c-23,0-41.7-18.43-41.7-41.16V12.27c0-22.73,18.67-41.15,41.7-41.15h61.38c23,0,41.71,18.42,41.71,41.15V72.84C921.24,95.57,902.57,114,879.53,114Z"/><path class="cls-6" d="M718.66,114H657.28c-23,0-41.7-18.43-41.7-41.16V12.27c0-22.73,18.67-41.15,41.7-41.15h61.38c23,0,41.71,18.42,41.71,41.15V72.84C760.37,95.57,741.69,114,718.66,114Z"/><path class="cls-5" d="M557.79,114H496.41c-23,0-41.7-18.43-41.7-41.16V12.27c0-22.73,18.67-41.15,41.7-41.15h61.38c23,0,41.7,18.42,41.7,41.15V72.84C599.49,95.57,580.82,114,557.79,114Z"/><path class="cls-6" d="M396.92,114H335.54c-23,0-41.7-18.43-41.7-41.16V12.27c0-22.73,18.67-41.15,41.7-41.15h61.38c23,0,41.7,18.42,41.7,41.15V72.84C438.62,95.57,420,114,396.92,114Z"/><path class="cls-5" d="M236.05,114H174.67c-23,0-41.7-18.43-41.7-41.16V12.27c0-22.73,18.67-41.15,41.7-41.15h61.38c23,0,41.7,18.42,41.7,41.15V72.84C277.75,95.57,259.08,114,236.05,114Z"/><rect class="cls-1" x="-688.82" y="-187.63" width="821.79" height="810.97"/><rect class="cls-4" x="-688.82" y="-187.63" width="821.79" height="810.97"/><path class="cls-6" d="M57.75,590.26H-3.63c-23,0-41.7-18.43-41.7-41.15V488.53c0-22.72,18.67-41.15,41.7-41.15H57.75c23,0,41.7,18.43,41.7,41.15v60.58C99.45,571.83,80.78,590.26,57.75,590.26Z"/><path class="cls-5" d="M57.75,431.51H-3.63c-23,0-41.7-18.43-41.7-41.16V329.78c0-22.73,18.67-41.15,41.7-41.15H57.75c23,0,41.7,18.42,41.7,41.15v60.57C99.45,413.08,80.78,431.51,57.75,431.51Z"/><path class="cls-6" d="M57.75,272.75H-3.63c-23,0-41.7-18.42-41.7-41.15V171c0-22.73,18.67-41.16,41.7-41.16H57.75c23,0,41.7,18.43,41.7,41.16V231.6C99.45,254.33,80.78,272.75,57.75,272.75Z"/><path class="cls-5" d="M57.75,114H-3.63c-23,0-41.7-18.43-41.7-41.16V12.27c0-22.73,18.67-41.15,41.7-41.15H57.75c23,0,41.7,18.42,41.7,41.15V72.84C99.45,95.57,80.78,114,57.75,114Z"/></g><g class="cls-45"><polygon class="cls-1" points="-25.61 602.49 796.29 602.49 3119.8 1274.12 1275.05 1274.12 -25.61 602.49"/><polygon class="cls-4" points="-25.61 602.49 796.29 602.49 3119.8 1274.12 1275.05 1274.12 -25.61 602.49"/><path class="cls-5" d="M2413,1215.61H2281.88c-49.2,0-174.6-30.21-274.11-65.36l-237.11-83.75c-79.81-28.19-108.29-49.91-67.58-49.91h108.49c40.71,0,141,21.72,228.4,49.91l259.57,83.75C2408.48,1185.4,2462.22,1215.61,2413,1215.61Z"/><path class="cls-6" d="M2069.33,1215.61H1938.2c-49.2,0-165.6-30.21-254.63-65.36l-212.14-83.75c-71.4-28.19-93.41-49.91-52.7-49.91h108.49c40.71,0,134.55,21.72,213.52,49.91l234.61,83.75C2073.81,1185.4,2118.54,1215.61,2069.33,1215.61Z"/><path class="cls-5" d="M1725.65,1215.61H1594.52c-49.21,0-156.6-30.21-235.15-65.36L1172.2,1066.5c-63-28.19-78.53-49.91-37.82-49.91h108.49c40.71,0,128.08,21.72,198.64,49.91l209.64,83.75C1739.13,1185.4,1774.85,1215.61,1725.65,1215.61Z"/><path class="cls-6" d="M1382,1215.61H1250.84c-49.21,0-147.59-30.21-215.67-65.36L873,1066.5c-54.6-28.19-63.66-49.91-23-49.91h108.5c40.71,0,121.59,21.72,183.75,49.91L1327,1150.25C1404.45,1185.4,1431.17,1215.61,1382,1215.61Z"/><path class="cls-5" d="M2036.32,998.64H1929.87c-39.94,0-134.92-20-208.55-43.54L1542.4,897.92c-61.36-19.61-81.34-34.84-47.18-34.84h91c34.15,0,113.6,15.23,180.22,34.84l194.27,57.18C2040.68,978.63,2076.26,998.64,2036.32,998.64Z"/><path class="cls-6" d="M1757.32,998.64H1650.87c-39.94,0-128.95-20-195.57-43.54l-161.87-57.18c-55.52-19.61-71-34.84-36.8-34.84h91c34.16,0,109.06,15.23,169.84,34.84l177.22,57.18C1767.65,978.63,1797.27,998.64,1757.32,998.64Z"/><path class="cls-5" d="M1478.33,998.64H1371.88c-40,0-123-20-182.59-43.54l-144.84-57.18c-49.66-19.61-60.56-34.84-26.4-34.84h91c34.16,0,104.52,15.23,159.45,34.84L1428.7,955.1C1494.61,978.63,1518.27,998.64,1478.33,998.64Z"/><path class="cls-6" d="M1199.33,998.64H1092.88c-39.94,0-117-20-169.61-43.54L795.48,897.92c-43.82-19.61-50.17-34.84-16-34.84h91c34.15,0,100,15.23,149.06,34.84l143.12,57.18C1221.58,978.63,1239.27,998.64,1199.33,998.64Z"/><path class="cls-5" d="M920.33,998.64H813.88c-39.94,0-111.06-20-156.63-43.54L546.51,897.92c-38-19.61-39.78-34.84-5.63-34.84h91c34.16,0,95.44,15.23,138.68,34.84L896.67,955.1C948.55,978.63,960.28,998.64,920.33,998.64Z"/><path class="cls-6" d="M1544.16,850.4h-89.59c-33.62,0-105.35-14.22-158.07-31.06l-129.89-41.51c-45.13-14.43-56.55-25.7-27.13-25.7h78.41c29.42,0,91.57,11.27,140.57,25.7l141,41.51C1556.72,836.18,1577.78,850.4,1544.16,850.4Z"/><path class="cls-5" d="M1309.36,850.4h-89.59c-33.62,0-101.12-14.22-148.81-31.06L953.45,777.83c-40.84-14.43-48.9-25.7-19.48-25.7h78.41c29.42,0,88.21,11.27,132.92,25.7L1274,819.34C1326.16,836.18,1343,850.4,1309.36,850.4Z"/><path class="cls-6" d="M1074.55,850.4H985c-33.61,0-96.88-14.22-139.55-31.06L740.28,777.83c-36.54-14.43-41.24-25.7-11.81-25.7h78.41c29.42,0,84.85,11.27,125.25,25.7l116.27,41.51C1095.59,836.18,1108.17,850.4,1074.55,850.4Z"/><path class="cls-5" d="M839.75,850.4H750.16c-33.62,0-92.64-14.22-130.29-31.06l-92.76-41.51c-32.23-14.43-33.57-25.7-4.15-25.7h78.41c29.42,0,81.49,11.27,117.59,25.7l103.9,41.51C865,836.18,873.36,850.4,839.75,850.4Z"/><path class="cls-6" d="M604.94,850.4H515.36c-33.62,0-88.41-14.22-121-31.06l-80.39-41.51c-27.93-14.43-25.91-25.7,3.51-25.7h78.41c29.42,0,78.13,11.27,109.93,25.7l91.53,41.51C634.46,836.18,638.56,850.4,604.94,850.4Z"/><path class="cls-5" d="M1186.6,742.71h-77.34c-29,0-85.78-10.63-125.38-23.28l-98.56-31.5c-34.58-11-40.79-19.73-15-19.73h68.86c25.84,0,76.27,8.68,113.82,19.73l107,31.5C1203.05,732.08,1215.61,742.71,1186.6,742.71Z"/><path class="cls-6" d="M983.9,742.71H906.56c-29,0-82.61-10.63-118.44-23.28L699,687.93c-31.29-11-34.91-19.73-9.07-19.73h68.87c25.84,0,73.68,8.68,107.93,19.73l97.63,31.5C1003.52,732.08,1012.92,742.71,983.9,742.71Z"/><path class="cls-5" d="M781.2,742.71H703.86c-29,0-79.44-10.63-111.49-23.28l-79.78-31.5c-28-11-29-19.73-3.19-19.73h68.86c25.84,0,71.1,8.68,102.06,19.73l88.23,31.5C804,732.08,810.22,742.71,781.2,742.71Z"/><path class="cls-6" d="M578.5,742.71H501.17c-29,0-76.28-10.63-104.56-23.28l-70.39-31.5c-24.7-11-23.15-19.73,2.69-19.73h68.87c25.84,0,68.5,8.68,96.17,19.73l78.84,31.5C604.46,732.08,607.52,742.71,578.5,742.71Z"/><path class="cls-5" d="M375.81,742.71H298.47c-29,0-73.11-10.63-97.62-23.28l-61-31.5c-21.4-11-17.26-19.73,8.58-19.73h68.86c25.84,0,65.92,8.68,90.29,19.73L377,719.43C404.93,732.08,404.83,742.71,375.81,742.71Z"/><path class="cls-6" d="M915.05,660.92H847c-25.53,0-72-8.24-102.82-18.09l-77.34-24.71c-27.35-8.74-30.22-15.63-7.18-15.63h61.39c23,0,65.1,6.89,94.79,15.63l84,24.71C933.3,652.68,940.58,660.92,915.05,660.92Z"/><path class="cls-5" d="M736.74,660.92h-68c-25.53,0-69.54-8.24-97.43-18.09l-70-24.71c-24.74-8.74-25.56-15.63-2.53-15.63h61.39c23,0,63.05,6.89,90.14,15.63l76.6,24.71C757.44,652.68,762.27,660.92,736.74,660.92Z"/><path class="cls-6" d="M558.43,660.92h-68c-25.53,0-67.08-8.24-92-18.09l-62.61-24.71c-22.13-8.74-20.9-15.63,2.14-15.63h61.39c23,0,61,6.89,85.47,15.63L554,642.83C581.58,652.68,584,660.92,558.43,660.92Z"/><path class="cls-5" d="M380.11,660.92h-68c-25.53,0-64.63-8.24-86.65-18.09L170.2,618.12c-19.53-8.74-16.24-15.63,6.79-15.63h61.39c23,0,58.94,6.89,80.82,15.63l61.86,24.71C405.72,652.68,405.64,660.92,380.11,660.92Z"/><path class="cls-6" d="M201.8,660.92h-68c-25.53,0-62.17-8.24-81.25-18.09L4.65,618.12c-16.93-8.74-11.59-15.63,11.45-15.63H77.49c23,0,56.89,6.89,76.16,15.63l54.49,24.71C229.86,652.68,227.33,660.92,201.8,660.92Z"/><polygon class="cls-1" points="-847.52 602.49 -25.61 602.49 1275.05 1274.12 -569.7 1274.12 -847.52 602.49"/><polygon class="cls-4" points="-847.52 602.49 -25.61 602.49 1275.05 1274.12 -569.7 1274.12 -847.52 602.49"/><path class="cls-6" d="M1001.05,1215.61H869.92c-49.2,0-137.61-30.21-194.07-65.36L541.33,1066.5c-45.28-28.19-47.16-49.91-6.45-49.91H643.37c40.71,0,114.42,21.72,167.27,49.91l157,83.75C1033.52,1185.4,1050.26,1215.61,1001.05,1215.61Z"/><path class="cls-5" d="M657.37,1215.61H526.24c-49.21,0-128.61-30.21-174.58-65.36L242.1,1066.5c-36.87-28.19-32.28-49.91,8.43-49.91H359c40.71,0,108,21.72,152.39,49.91l132,83.75C698.84,1185.4,706.57,1215.61,657.37,1215.61Z"/><path class="cls-6" d="M313.69,1215.61H182.56c-49.21,0-119.6-30.21-155.1-65.36l-84.58-83.75c-28.48-28.19-17.41-49.91,23.3-49.91H74.68c40.7,0,101.47,21.72,137.5,49.91l107.06,83.75C364.17,1185.4,362.89,1215.61,313.69,1215.61Z"/><path class="cls-5" d="M-30,1215.61H-161.13c-49.2,0-110.59-30.21-135.61-65.36l-59.61-83.75c-20.07-28.19-2.53-49.91,38.18-49.91h108.5c40.71,0,95,21.72,122.62,49.91L-5,1150.25C29.49,1185.4,19.21,1215.61-30,1215.61Z"/><path class="cls-5" d="M611.11,998.64H504.66c-39.94,0-104.45-20-142.25-43.54l-91.84-57.18c-31.5-19.61-28.27-34.84,5.88-34.84h91c34.16,0,90.41,15.23,127.16,34.84L601.83,955.1C645.93,978.63,651.05,998.64,611.11,998.64Z"/><path class="cls-6" d="M332.11,998.64H225.66c-39.94,0-98.49-20-129.27-43.54L21.6,897.92C-4,878.31,3.71,863.08,37.87,863.08h91c34.16,0,85.86,15.23,116.77,34.84l90.14,57.18C372.9,978.63,372.06,998.64,332.11,998.64Z"/><path class="cls-5" d="M53.12,998.64H-53.33c-39.95,0-92.53-20-116.29-43.54l-57.75-57.18c-19.8-19.61-7.5-34.84,26.66-34.84h91c34.16,0,81.32,15.23,106.38,34.84L69.79,955.1C99.87,978.63,93.06,998.64,53.12,998.64Z"/><path class="cls-6" d="M344.7,850.4H255.11c-33.61,0-83.7-14.22-110.76-31.06L77.68,777.83c-23.17-14.43-17.42-25.7,12-25.7h78.41c29.42,0,74.41,11.27,101.44,25.7l77.81,41.51C378.92,836.18,378.32,850.4,344.7,850.4Z"/><path class="cls-5" d="M109.9,850.4H20.31c-33.62,0-79.46-14.22-101.5-31.06l-54.3-41.51c-18.86-14.43-9.76-25.7,19.66-25.7h78.42c29.42,0,71,11.27,93.78,25.7l65.43,41.51C148.35,836.18,143.51,850.4,109.9,850.4Z"/><path class="cls-5" d="M151.15,742.71H73.81c-29,0-69.6-10.63-89.92-23.28l-50.6-31.5c-17.75-11-10.74-19.73,15.1-19.73H17.25c25.84,0,63.06,8.68,83.78,19.73l59,31.5C183.79,732.08,180.17,742.71,151.15,742.71Z"/><path class="cls-6" d="M4.17,660.92h-68c-25.53,0-59.45-8.24-75.27-18.09l-39.7-24.71c-14-8.74-6.42-15.63,16.61-15.63h61.39c23,0,54.62,6.89,71,15.63l46.33,24.71C35,652.68,29.7,660.92,4.17,660.92Z"/></g></g></g></svg>