<svg xmlns="http://www.w3.org/2000/svg" xmlns:xlink="http://www.w3.org/1999/xlink" width="1920" height="1080" viewBox="0 0 1920 1080"><defs><style>.cls-1{fill:none;}.cls-2{clip-path:url(#clip-path);}.cls-3{clip-path:url(#clip-path-2);}.cls-4{fill:#e3f2fd;}.cls-5{fill:#bbdefb;}.cls-6{fill:#a9d6e5;}.cls-7{clip-path:url(#clip-path-3);}.cls-8{clip-path:url(#clip-path-4);}.cls-9{clip-path:url(#clip-path-5);}.cls-10{fill:#ff4a78;opacity:0.25;}.cls-11{fill:#ababab;}.cls-12{fill:#c4c4c4;}.cls-13{fill:#e0e0e0;}.cls-14{fill:#f2f2f2;}.cls-15{fill:url(#linear-gradient);}.cls-16{fill:#8c8c8c;}.cls-17{fill:#6e6e6e;}.cls-18{fill:#348dc4;}.cls-19{fill:#115e8f;}.cls-20{fill:#fff;}.cls-21{fill:#5c4200;}.cls-22{fill:#422e00;}.cls-23{fill:#e2e6ac;}.cls-24{fill:#f7facf;}.cls-25{fill:#68694e;}.cls-26{fill:#3b3b2b;}.cls-27{fill:#000255;}</style><clipPath id="clip-path"><rect class="cls-1" x="-3043.9" y="-0.09" width="1900" height="1080"/></clipPath><clipPath id="clip-path-2"><polygon class="cls-1" points="981.1 1238.91 -5130.82 1238.91 -3480.64 603.62 -669.09 603.62 981.1 1238.91"/></clipPath><clipPath id="clip-path-3"><rect class="cls-1" x="0.29" y="1.41" width="1920" height="1077"/></clipPath><clipPath id="clip-path-4"><rect class="cls-1" x="-282.1" y="-186.68" width="2840.73" height="789.8"/></clipPath><clipPath id="clip-path-5"><polygon class="cls-1" points="4067.66 1236.97 -2108.59 1236.97 -441.04 603.45 2400.1 603.45 4067.66 1236.97"/></clipPath><linearGradient id="linear-gradient" x1="1314.56" y1="662.55" x2="1480.44" y2="782.35" gradientUnits="userSpaceOnUse"><stop offset="0" stop-color="#c4c4c4"/><stop offset="0.4" stop-color="#bbb"/><stop offset="0.46" stop-color="#b2b2b2"/><stop offset="0.54" stop-color="#ababab"/><stop offset="1" stop-color="#8c8c8c"/></linearGradient></defs><g id="second_bear" data-name="second bear"><g class="cls-2"><g class="cls-3"><polygon class="cls-1" points="-1040.6 603.62 -227.26 603.62 2072.05 1277.12 246.51 1277.12 -1040.6 603.62"/><polygon class="cls-4" points="-1040.6 603.62 -227.26 603.62 2072.05 1277.12 246.51 1277.12 -1040.6 603.62"/><path class="cls-5" d="M1712.72,1218.45H1583c-48.69,0-181.7-30.29-290.55-65.54l-259.34-84c-87.3-28.27-121.89-50-81.6-50h107.36c40.29,0,146,21.77,240.74,50l281.58,84C1699.33,1188.16,1761.41,1218.45,1712.72,1218.45Z"/><path class="cls-6" d="M1372.62,1218.45H1242.86c-48.7,0-172.79-30.29-271.27-65.54l-234.63-84c-79-28.27-107.16-50-66.88-50H777.44c40.29,0,139.55,21.77,226,50l256.87,84C1368.14,1188.16,1421.31,1218.45,1372.62,1218.45Z"/><path class="cls-5" d="M1032.52,1218.45H902.75c-48.69,0-163.87-30.29-252-65.54l-209.92-84c-70.66-28.27-92.44-50-52.16-50H496.06c40.28,0,133.14,21.77,211.29,50l232.16,84C1037,1188.16,1081.21,1218.45,1032.52,1218.45Z"/><path class="cls-6" d="M692.42,1218.45H562.65c-48.69,0-155-30.29-232.7-65.54l-185.21-84c-62.35-28.27-77.72-50-37.43-50H214.67c40.29,0,126.74,21.77,196.57,50l207.45,84C705.76,1188.16,741.11,1218.45,692.42,1218.45Z"/><path class="cls-5" d="M352.31,1218.45H222.55c-48.69,0-146.06-30.29-213.42-65.54l-160.51-84c-54-28.27-63-50-22.7-50H-66.72c40.29,0,120.33,21.77,181.84,50l182.75,84C374.57,1188.16,401,1218.45,352.31,1218.45Z"/><path class="cls-6" d="M999.85,1000.87H894.51c-39.53,0-133.52-20.06-206.38-43.65L511.07,899.88c-60.72-19.67-80.49-34.94-46.69-34.94h90.08c33.81,0,112.42,15.27,178.35,34.94l192.25,57.34C1004.16,980.81,1039.38,1000.87,999.85,1000.87Z"/><path class="cls-5" d="M723.76,1000.87H618.42c-39.53,0-127.62-20.06-193.53-43.65l-160.2-57.34c-54.93-19.67-70.21-34.94-36.41-34.94h90.09c33.8,0,107.92,15.27,168.06,34.94l175.38,57.34C734,980.81,763.29,1000.87,723.76,1000.87Z"/><path class="cls-6" d="M447.67,1000.87H342.33c-39.53,0-121.72-20.06-180.69-43.65L18.32,899.88c-49.15-19.67-59.93-34.94-26.13-34.94H82.27c33.8,0,103.43,15.27,157.79,34.94l158.5,57.34C463.78,980.81,487.2,1000.87,447.67,1000.87Z"/><path class="cls-5" d="M171.58,1000.87H66.24c-39.53,0-115.81-20.06-167.85-43.65l-126.45-57.34c-43.37-19.67-49.65-34.94-15.85-34.94h90.08c33.8,0,98.94,15.27,147.51,34.94l141.63,57.34C193.6,980.81,211.11,1000.87,171.58,1000.87Z"/><path class="cls-5" d="M512.82,852.22H424.16c-33.27,0-104.26-14.25-156.42-31.15L139.2,779.45c-44.66-14.47-56-25.77-26.85-25.77H190c29.11,0,90.61,11.3,139.11,25.77l139.55,41.62C525.25,838,546.08,852.22,512.82,852.22Z"/><path class="cls-6" d="M280.46,852.22H191.8c-33.26,0-100.06-14.25-147.26-31.15L-71.74,779.45C-112.15,765-120.13,753.68-91,753.68h77.59c29.11,0,87.29,11.3,131.53,25.77l127.31,41.62C297.09,838,313.72,852.22,280.46,852.22Z"/><path class="cls-5" d="M48.1,852.22H-40.56c-33.26,0-95.86-14.25-138.09-31.15l-104-41.62c-36.15-14.47-40.81-25.77-11.69-25.77h77.59c29.12,0,84,11.3,124,25.77L22.22,821.07C68.92,838,81.37,852.22,48.1,852.22Z"/><path class="cls-6" d="M159,744.23H82.44c-28.71,0-84.88-10.65-124.07-23.34l-97.53-31.59c-34.22-11.08-40.37-19.78-14.8-19.78h68.15c25.57,0,75.47,8.7,112.63,19.78l105.9,31.59C175.26,733.58,187.69,744.23,159,744.23Z"/><polygon class="cls-1" points="-1853.95 603.62 -1040.6 603.62 246.51 1277.12 -1579.02 1277.12 -1853.95 603.62"/><polygon class="cls-4" points="-1853.95 603.62 -1040.6 603.62 246.51 1277.12 -1579.02 1277.12 -1853.95 603.62"/><path class="cls-5" d="M-24.63,1218.45H-154.4c-48.69,0-136.18-30.29-192-65.54l-133.13-84c-44.8-28.27-46.66-50-6.38-50h107.36c40.29,0,113.23,21.77,165.52,50l155.36,84C7.5,1188.16,24.06,1218.45-24.63,1218.45Z"/></g></g><g class="cls-7"><g class="cls-8"><rect class="cls-1" x="1361.47" y="-186.68" width="821.79" height="810.97"/><rect class="cls-4" x="1361.47" y="-186.68" width="821.79" height="810.97"/><path class="cls-6" d="M1947.17,591.22h-61.38c-23,0-41.7-18.43-41.7-41.16V489.49c0-22.73,18.67-41.15,41.7-41.15h61.38c23,0,41.7,18.42,41.7,41.15v60.57C1988.87,572.79,1970.2,591.22,1947.17,591.22Z"/><path class="cls-5" d="M1786.3,591.22h-61.38c-23,0-41.71-18.43-41.71-41.16V489.49c0-22.73,18.68-41.15,41.71-41.15h61.38c23,0,41.7,18.42,41.7,41.15v60.57C1828,572.79,1809.33,591.22,1786.3,591.22Z"/><path class="cls-6" d="M1625.43,591.22h-61.38c-23,0-41.71-18.43-41.71-41.16V489.49c0-22.73,18.67-41.15,41.71-41.15h61.38c23,0,41.7,18.42,41.7,41.15v60.57C1667.13,572.79,1648.46,591.22,1625.43,591.22Z"/><path class="cls-5" d="M1464.55,591.22h-61.38c-23,0-41.7-18.43-41.7-41.16V489.49c0-22.73,18.67-41.15,41.7-41.15h61.38c23,0,41.71,18.42,41.71,41.15v60.57C1506.26,572.79,1487.59,591.22,1464.55,591.22Z"/><path class="cls-5" d="M1947.17,432.46h-61.38c-23,0-41.7-18.42-41.7-41.15V330.74c0-22.73,18.67-41.16,41.7-41.16h61.38c23,0,41.7,18.43,41.7,41.16v60.57C1988.87,414,1970.2,432.46,1947.17,432.46Z"/><path class="cls-6" d="M1786.3,432.46h-61.38c-23,0-41.71-18.42-41.71-41.15V330.74c0-22.73,18.68-41.16,41.71-41.16h61.38c23,0,41.7,18.43,41.7,41.16v60.57C1828,414,1809.33,432.46,1786.3,432.46Z"/><path class="cls-5" d="M1625.43,432.46h-61.38c-23,0-41.71-18.42-41.71-41.15V330.74c0-22.73,18.67-41.16,41.71-41.16h61.38c23,0,41.7,18.43,41.7,41.16v60.57C1667.13,414,1648.46,432.46,1625.43,432.46Z"/><path class="cls-6" d="M1464.55,432.46h-61.38c-23,0-41.7-18.42-41.7-41.15V330.74c0-22.73,18.67-41.16,41.7-41.16h61.38c23,0,41.71,18.43,41.71,41.16v60.57C1506.26,414,1487.59,432.46,1464.55,432.46Z"/><path class="cls-6" d="M1947.17,273.71h-61.38c-23,0-41.7-18.43-41.7-41.15V172c0-22.72,18.67-41.15,41.7-41.15h61.38c23,0,41.7,18.43,41.7,41.15v60.58C1988.87,255.28,1970.2,273.71,1947.17,273.71Z"/><path class="cls-5" d="M1786.3,273.71h-61.38c-23,0-41.71-18.43-41.71-41.15V172c0-22.72,18.68-41.15,41.71-41.15h61.38c23,0,41.7,18.43,41.7,41.15v60.58C1828,255.28,1809.33,273.71,1786.3,273.71Z"/><path class="cls-6" d="M1625.43,273.71h-61.38c-23,0-41.71-18.43-41.71-41.15V172c0-22.72,18.67-41.15,41.71-41.15h61.38c23,0,41.7,18.43,41.7,41.15v60.58C1667.13,255.28,1648.46,273.71,1625.43,273.71Z"/><path class="cls-5" d="M1464.55,273.71h-61.38c-23,0-41.7-18.43-41.7-41.15V172c0-22.72,18.67-41.15,41.7-41.15h61.38c23,0,41.71,18.43,41.71,41.15v60.58C1506.26,255.28,1487.59,273.71,1464.55,273.71Z"/><path class="cls-5" d="M1947.17,115h-61.38c-23,0-41.7-18.43-41.7-41.16V13.23c0-22.73,18.67-41.15,41.7-41.15h61.38c23,0,41.7,18.42,41.7,41.15V73.8C1988.87,96.53,1970.2,115,1947.17,115Z"/><path class="cls-6" d="M1786.3,115h-61.38c-23,0-41.71-18.43-41.71-41.16V13.23c0-22.73,18.68-41.15,41.71-41.15h61.38c23,0,41.7,18.42,41.7,41.15V73.8C1828,96.53,1809.33,115,1786.3,115Z"/><path class="cls-5" d="M1625.43,115h-61.38c-23,0-41.71-18.43-41.71-41.16V13.23c0-22.73,18.67-41.15,41.71-41.15h61.38c23,0,41.7,18.42,41.7,41.15V73.8C1667.13,96.53,1648.46,115,1625.43,115Z"/><path class="cls-6" d="M1464.55,115h-61.38c-23,0-41.7-18.43-41.7-41.16V13.23c0-22.73,18.67-41.15,41.7-41.15h61.38c23,0,41.71,18.42,41.71,41.15V73.8C1506.26,96.53,1487.59,115,1464.55,115Z"/><rect class="cls-1" x="539.69" y="-186.68" width="821.79" height="810.97"/><rect class="cls-4" x="539.69" y="-186.68" width="821.79" height="810.97"/><path class="cls-5" d="M1286.25,591.22h-61.38c-23,0-41.7-18.43-41.7-41.16V489.49c0-22.73,18.67-41.15,41.7-41.15h61.38c23,0,41.71,18.42,41.71,41.15v60.57C1328,572.79,1309.29,591.22,1286.25,591.22Z"/><path class="cls-6" d="M1125.38,591.22H1064c-23,0-41.7-18.43-41.7-41.16V489.49c0-22.73,18.67-41.15,41.7-41.15h61.38c23,0,41.7,18.42,41.7,41.15v60.57C1167.08,572.79,1148.41,591.22,1125.38,591.22Z"/><path class="cls-5" d="M964.51,591.22H903.13c-23,0-41.7-18.43-41.7-41.16V489.49c0-22.73,18.67-41.15,41.7-41.15h61.38c23,0,41.7,18.42,41.7,41.15v60.57C1006.21,572.79,987.54,591.22,964.51,591.22Z"/><path class="cls-6" d="M803.64,591.22H742.26c-23,0-41.7-18.43-41.7-41.16V489.49c0-22.73,18.67-41.15,41.7-41.15h61.38c23,0,41.7,18.42,41.7,41.15v60.57C845.34,572.79,826.67,591.22,803.64,591.22Z"/><path class="cls-5" d="M642.77,591.22H581.39c-23,0-41.7-18.43-41.7-41.16V489.49c0-22.73,18.67-41.15,41.7-41.15h61.38c23,0,41.7,18.42,41.7,41.15v60.57C684.47,572.79,665.8,591.22,642.77,591.22Z"/><path class="cls-6" d="M1286.25,432.46h-61.38c-23,0-41.7-18.42-41.7-41.15V330.74c0-22.73,18.67-41.16,41.7-41.16h61.38c23,0,41.71,18.43,41.71,41.16v60.57C1328,414,1309.29,432.46,1286.25,432.46Z"/><path class="cls-5" d="M1125.38,432.46H1064c-23,0-41.7-18.42-41.7-41.15V330.74c0-22.73,18.67-41.16,41.7-41.16h61.38c23,0,41.7,18.43,41.7,41.16v60.57C1167.08,414,1148.41,432.46,1125.38,432.46Z"/><path class="cls-6" d="M964.51,432.46H903.13c-23,0-41.7-18.42-41.7-41.15V330.74c0-22.73,18.67-41.16,41.7-41.16h61.38c23,0,41.7,18.43,41.7,41.16v60.57C1006.21,414,987.54,432.46,964.51,432.46Z"/><path class="cls-5" d="M803.64,432.46H742.26c-23,0-41.7-18.42-41.7-41.15V330.74c0-22.73,18.67-41.16,41.7-41.16h61.38c23,0,41.7,18.43,41.7,41.16v60.57C845.34,414,826.67,432.46,803.64,432.46Z"/><path class="cls-6" d="M642.77,432.46H581.39c-23,0-41.7-18.42-41.7-41.15V330.74c0-22.73,18.67-41.16,41.7-41.16h61.38c23,0,41.7,18.43,41.7,41.16v60.57C684.47,414,665.8,432.46,642.77,432.46Z"/><path class="cls-5" d="M1286.25,273.71h-61.38c-23,0-41.7-18.43-41.7-41.15V172c0-22.72,18.67-41.15,41.7-41.15h61.38c23,0,41.71,18.43,41.71,41.15v60.58C1328,255.28,1309.29,273.71,1286.25,273.71Z"/><path class="cls-6" d="M1125.38,273.71H1064c-23,0-41.7-18.43-41.7-41.15V172c0-22.72,18.67-41.15,41.7-41.15h61.38c23,0,41.7,18.43,41.7,41.15v60.58C1167.08,255.28,1148.41,273.71,1125.38,273.71Z"/><path class="cls-5" d="M964.51,273.71H903.13c-23,0-41.7-18.43-41.7-41.15V172c0-22.72,18.67-41.15,41.7-41.15h61.38c23,0,41.7,18.43,41.7,41.15v60.58C1006.21,255.28,987.54,273.71,964.51,273.71Z"/><path class="cls-6" d="M803.64,273.71H742.26c-23,0-41.7-18.43-41.7-41.15V172c0-22.72,18.67-41.15,41.7-41.15h61.38c23,0,41.7,18.43,41.7,41.15v60.58C845.34,255.28,826.67,273.71,803.64,273.71Z"/><path class="cls-5" d="M642.77,273.71H581.39c-23,0-41.7-18.43-41.7-41.15V172c0-22.72,18.67-41.15,41.7-41.15h61.38c23,0,41.7,18.43,41.7,41.15v60.58C684.47,255.28,665.8,273.71,642.77,273.71Z"/><path class="cls-6" d="M1286.25,115h-61.38c-23,0-41.7-18.43-41.7-41.16V13.23c0-22.73,18.67-41.15,41.7-41.15h61.38c23,0,41.71,18.42,41.71,41.15V73.8C1328,96.53,1309.29,115,1286.25,115Z"/><path class="cls-5" d="M1125.38,115H1064c-23,0-41.7-18.43-41.7-41.16V13.23c0-22.73,18.67-41.15,41.7-41.15h61.38c23,0,41.7,18.42,41.7,41.15V73.8C1167.08,96.53,1148.41,115,1125.38,115Z"/><path class="cls-6" d="M964.51,115H903.13c-23,0-41.7-18.43-41.7-41.16V13.23c0-22.73,18.67-41.15,41.7-41.15h61.38c23,0,41.7,18.42,41.7,41.15V73.8C1006.21,96.53,987.54,115,964.51,115Z"/><path class="cls-5" d="M803.64,115H742.26c-23,0-41.7-18.43-41.7-41.16V13.23c0-22.73,18.67-41.15,41.7-41.15h61.38c23,0,41.7,18.42,41.7,41.15V73.8C845.34,96.53,826.67,115,803.64,115Z"/><path class="cls-6" d="M642.77,115H581.39c-23,0-41.7-18.43-41.7-41.16V13.23c0-22.73,18.67-41.15,41.7-41.15h61.38c23,0,41.7,18.42,41.7,41.15V73.8C684.47,96.53,665.8,115,642.77,115Z"/><rect class="cls-1" x="-282.1" y="-186.68" width="821.79" height="810.97"/><rect class="cls-4" x="-282.1" y="-186.68" width="821.79" height="810.97"/><path class="cls-5" d="M464.47,591.22H403.09c-23,0-41.7-18.43-41.7-41.16V489.49c0-22.73,18.67-41.15,41.7-41.15h61.38c23,0,41.7,18.42,41.7,41.15v60.57C506.17,572.79,487.5,591.22,464.47,591.22Z"/><path class="cls-6" d="M303.6,591.22H242.22c-23,0-41.71-18.43-41.71-41.16V489.49c0-22.73,18.67-41.15,41.71-41.15H303.6c23,0,41.7,18.42,41.7,41.15v60.57C345.3,572.79,326.63,591.22,303.6,591.22Z"/><path class="cls-5" d="M142.72,591.22H81.34c-23,0-41.7-18.43-41.7-41.16V489.49c0-22.73,18.67-41.15,41.7-41.15h61.38c23,0,41.71,18.42,41.71,41.15v60.57C184.43,572.79,165.76,591.22,142.72,591.22Z"/><path class="cls-6" d="M-18.15,591.22H-79.53c-23,0-41.7-18.43-41.7-41.16V489.49c0-22.73,18.67-41.15,41.7-41.15h61.38c23,0,41.71,18.42,41.71,41.15v60.57C23.56,572.79,4.88,591.22-18.15,591.22Z"/><path class="cls-6" d="M464.47,432.46H403.09c-23,0-41.7-18.42-41.7-41.15V330.74c0-22.73,18.67-41.16,41.7-41.16h61.38c23,0,41.7,18.43,41.7,41.16v60.57C506.17,414,487.5,432.46,464.47,432.46Z"/><path class="cls-5" d="M303.6,432.46H242.22c-23,0-41.71-18.42-41.71-41.15V330.74c0-22.73,18.67-41.16,41.71-41.16H303.6c23,0,41.7,18.43,41.7,41.16v60.57C345.3,414,326.63,432.46,303.6,432.46Z"/><path class="cls-6" d="M142.72,432.46H81.34c-23,0-41.7-18.42-41.7-41.15V330.74c0-22.73,18.67-41.16,41.7-41.16h61.38c23,0,41.71,18.43,41.71,41.16v60.57C184.43,414,165.76,432.46,142.72,432.46Z"/><path class="cls-5" d="M-18.15,432.46H-79.53c-23,0-41.7-18.42-41.7-41.15V330.74c0-22.73,18.67-41.16,41.7-41.16h61.38c23,0,41.71,18.43,41.71,41.16v60.57C23.56,414,4.88,432.46-18.15,432.46Z"/><path class="cls-5" d="M464.47,273.71H403.09c-23,0-41.7-18.43-41.7-41.15V172c0-22.72,18.67-41.15,41.7-41.15h61.38c23,0,41.7,18.43,41.7,41.15v60.58C506.17,255.28,487.5,273.71,464.47,273.71Z"/><path class="cls-6" d="M303.6,273.71H242.22c-23,0-41.71-18.43-41.71-41.15V172c0-22.72,18.67-41.15,41.71-41.15H303.6c23,0,41.7,18.43,41.7,41.15v60.58C345.3,255.28,326.63,273.71,303.6,273.71Z"/><path class="cls-5" d="M142.72,273.71H81.34c-23,0-41.7-18.43-41.7-41.15V172c0-22.72,18.67-41.15,41.7-41.15h61.38c23,0,41.71,18.43,41.71,41.15v60.58C184.43,255.28,165.76,273.71,142.72,273.71Z"/><path class="cls-6" d="M-18.15,273.71H-79.53c-23,0-41.7-18.43-41.7-41.15V172c0-22.72,18.67-41.15,41.7-41.15h61.38c23,0,41.71,18.43,41.71,41.15v60.58C23.56,255.28,4.88,273.71-18.15,273.71Z"/><path class="cls-6" d="M464.47,115H403.09c-23,0-41.7-18.43-41.7-41.16V13.23c0-22.73,18.67-41.15,41.7-41.15h61.38c23,0,41.7,18.42,41.7,41.15V73.8C506.17,96.53,487.5,115,464.47,115Z"/><path class="cls-5" d="M303.6,115H242.22c-23,0-41.71-18.43-41.71-41.16V13.23c0-22.73,18.67-41.15,41.71-41.15H303.6c23,0,41.7,18.42,41.7,41.15V73.8C345.3,96.53,326.63,115,303.6,115Z"/><path class="cls-6" d="M142.72,115H81.34c-23,0-41.7-18.43-41.7-41.16V13.23c0-22.73,18.67-41.15,41.7-41.15h61.38c23,0,41.71,18.42,41.71,41.15V73.8C184.43,96.53,165.76,115,142.72,115Z"/><path class="cls-5" d="M-18.15,115H-79.53c-23,0-41.7-18.43-41.7-41.16V13.23c0-22.73,18.67-41.15,41.7-41.15h61.38c23,0,41.71,18.42,41.71,41.15V73.8C23.56,96.53,4.88,115-18.15,115Z"/></g><g class="cls-9"><polygon class="cls-1" points="1202.78 603.45 2024.68 603.45 3325.34 1275.08 1480.6 1275.08 1202.78 603.45"/><polygon class="cls-4" points="1202.78 603.45 2024.68 603.45 3325.34 1275.08 1480.6 1275.08 1202.78 603.45"/><path class="cls-6" d="M2020.3,1216.57H1889.17c-49.21,0-110.6-30.21-135.62-65.36l-59.61-83.75c-20.07-28.19-2.52-49.91,38.19-49.91h108.49c40.71,0,95,21.72,122.63,49.91l82.08,83.75C2079.78,1186.36,2069.5,1216.57,2020.3,1216.57Z"/><path class="cls-5" d="M1676.61,1216.57H1545.48c-49.2,0-101.58-30.21-116.12-65.36l-34.65-83.75c-11.66-28.19,12.36-49.91,53.07-49.91h108.49c40.71,0,88.52,21.72,107.75,49.91l57.12,83.75C1745.11,1186.36,1725.82,1216.57,1676.61,1216.57Z"/><path class="cls-6" d="M2103.41,999.6H1997c-39.94,0-92.53-20-116.29-43.54l-57.75-57.18c-19.8-19.61-7.5-34.84,26.66-34.84h91c34.16,0,81.32,15.23,106.39,34.84l73.09,57.18C2150.16,979.59,2143.35,999.6,2103.41,999.6Z"/><path class="cls-5" d="M1824.41,999.6H1718c-39.94,0-86.56-20-103.31-43.54L1574,898.88c-14-19.61,2.89-34.84,37-34.84h91c34.16,0,76.78,15.23,96,34.84l56,57.18C1877.13,979.59,1864.36,999.6,1824.41,999.6Z"/><path class="cls-6" d="M1545.42,999.6H1439c-39.94,0-80.59-20-90.33-43.54L1325,898.88c-8.11-19.61,13.28-34.84,47.43-34.84h91c34.16,0,72.24,15.23,85.61,34.84l39,57.18C1604.1,979.59,1585.36,999.6,1545.42,999.6Z"/><path class="cls-6" d="M2160.19,851.36H2070.6c-33.61,0-79.46-14.22-101.5-31.06l-54.29-41.51c-18.87-14.43-9.76-25.7,19.66-25.7h78.41c29.42,0,71,11.27,93.78,25.7l65.43,41.51C2198.65,837.14,2193.81,851.36,2160.19,851.36Z"/><path class="cls-5" d="M1925.39,851.36H1835.8c-33.62,0-75.23-14.22-92.24-31.06l-41.92-41.51c-14.57-14.43-2.1-25.7,27.32-25.7h78.41c29.42,0,67.68,11.27,86.12,25.7l53.06,41.51C1968.08,837.14,1959,851.36,1925.39,851.36Z"/><path class="cls-6" d="M1690.58,851.36H1601c-33.61,0-71-14.22-83-31.06l-29.55-41.51c-10.27-14.43,5.56-25.7,35-25.7h78.41c29.43,0,64.33,11.27,78.46,25.7L1721,820.3C1737.52,837.14,1724.2,851.36,1690.58,851.36Z"/><path class="cls-5" d="M1455.78,851.36h-89.59c-33.62,0-66.75-14.22-73.72-31.06l-17.17-41.51c-6-14.43,13.22-25.7,42.65-25.7h78.41c29.42,0,61,11.27,70.79,25.7l28.31,41.51C1507,837.14,1489.4,851.36,1455.78,851.36Z"/><path class="cls-5" d="M1998.75,743.66h-77.34c-29,0-66.44-10.62-83-23.27l-41.2-31.5c-14.46-11-4.86-19.73,21-19.73h68.86c25.84,0,60.47,8.68,77.89,19.73l49.65,31.5C2034.55,733,2027.77,743.66,1998.75,743.66Z"/><path class="cls-6" d="M1796.05,743.66h-77.34c-29,0-63.27-10.62-76-23.27l-31.81-31.5c-11.16-11,1-19.73,26.86-19.73h68.87c25.84,0,57.87,8.68,72,19.73l40.26,31.5C1835,733,1825.07,743.66,1796.05,743.66Z"/><path class="cls-5" d="M1593.35,743.66H1516c-29,0-60.11-10.62-69.12-23.27l-22.41-31.5c-7.87-11,6.9-19.73,32.74-19.73h68.86c25.84,0,55.29,8.68,66.13,19.73l30.87,31.5C1635.49,733,1622.37,743.66,1593.35,743.66Z"/><path class="cls-6" d="M1390.66,743.66h-77.34c-29,0-56.94-10.62-62.17-23.27l-13-31.5c-4.57-11,12.78-19.73,38.62-19.73h68.87c25.84,0,52.7,8.68,60.24,19.73l21.48,31.5C1436,733,1419.68,743.66,1390.66,743.66Z"/><path class="cls-5" d="M2054.46,661.88h-68c-25.52,0-59.45-8.24-75.27-18.09l-39.7-24.72c-14-8.74-6.42-15.62,16.61-15.62h61.39c23,0,54.62,6.88,71,15.62l46.33,24.72C2085.25,653.64,2080,661.88,2054.46,661.88Z"/><path class="cls-6" d="M1876.15,661.88h-68c-25.53,0-57-8.24-69.88-18.09l-32.33-24.72c-11.43-8.74-1.77-15.62,21.27-15.62h61.39c23,0,52.56,6.88,66.34,15.62l39,24.72C1909.39,653.64,1901.67,661.88,1876.15,661.88Z"/><path class="cls-5" d="M1697.83,661.88h-68c-25.53,0-54.54-8.24-64.49-18.09l-25-24.72c-8.82-8.74,2.9-15.62,25.93-15.62h61.39c23,0,50.51,6.88,61.68,15.62l31.6,24.72C1733.53,653.64,1723.36,661.88,1697.83,661.88Z"/><path class="cls-6" d="M1519.52,661.88h-68c-25.53,0-52.08-8.24-59.1-18.09l-17.59-24.72c-6.22-8.74,7.55-15.62,30.59-15.62h61.39c23,0,48.45,6.88,57,15.62L1548,643.79C1557.67,653.64,1545.05,661.88,1519.52,661.88Z"/><path class="cls-5" d="M1341.2,661.88h-68c-25.53,0-49.63-8.24-53.71-18.09l-10.22-24.72c-3.62-8.74,12.21-15.62,35.24-15.62h61.39c23,0,46.41,6.88,52.37,15.62l16.85,24.72C1381.81,653.64,1366.73,661.88,1341.2,661.88Z"/><polygon class="cls-1" points="380.87 603.45 1202.78 603.45 1480.6 1275.08 -364.15 1275.08 380.87 603.45"/><polygon class="cls-4" points="380.87 603.45 1202.78 603.45 1480.6 1275.08 -364.15 1275.08 380.87 603.45"/><path class="cls-5" d="M1295.7,1216.57H1164.57c-49.2,0-91.61-30.21-94.53-65.36l-7-83.75c-2.35-28.19,28.85-49.91,69.55-49.91h108.5c40.71,0,81.34,21.72,91.25,49.91l29.45,83.75C1374.17,1186.36,1344.9,1216.57,1295.7,1216.57Z"/><path class="cls-6" d="M952,1216.57H820.89c-49.21,0-82.6-30.21-75-65.36l18-83.75c6.06-28.19,43.73-49.91,84.44-49.91H956.77c40.71,0,74.87,21.72,76.37,49.91l4.48,83.75C1039.5,1186.36,1001.22,1216.57,952,1216.57Z"/><path class="cls-5" d="M608.34,1216.57H477.2c-49.2,0-73.59-30.21-55.56-65.36l43-83.75c14.46-28.19,58.61-49.91,99.32-49.91H672.42c40.71,0,68.4,21.72,61.5,49.91l-20.5,83.75C704.82,1186.36,657.54,1216.57,608.34,1216.57Z"/><path class="cls-6" d="M264.65,1216.57H133.52c-49.2,0-64.59-30.21-36.07-65.36l67.93-83.75c22.87-28.19,73.49-49.91,114.2-49.91H388.07c40.71,0,61.92,21.72,46.62,49.91l-45.47,83.75C370.14,1186.36,313.86,1216.57,264.65,1216.57Z"/><path class="cls-5" d="M-79,1216.57H-210.16c-49.2,0-55.58-30.21-16.59-65.36l92.9-83.75c31.28-28.19,88.37-49.91,129.08-49.91H103.72c40.71,0,55.45,21.72,31.74,49.91L65,1151.21C35.47,1186.36-29.83,1216.57-79,1216.57Z"/><path class="cls-6" d="M1236.19,999.6H1129.74c-39.94,0-74-20-75.94-43.54L1049,898.88C1047.41,879.27,1073.83,864,1108,864h91c34.15,0,67.2,15.23,74.09,34.84l20.1,57.18C1301.48,979.59,1276.14,999.6,1236.19,999.6Z"/><path class="cls-5" d="M957.2,999.6H850.75c-40,0-68-20-63-43.54l12.29-57.18C804.28,879.27,835.24,864,869.4,864h91c34.16,0,62.66,15.23,63.71,34.84l3,57.18C1028.45,979.59,997.14,999.6,957.2,999.6Z"/><path class="cls-6" d="M678.2,999.6H571.75c-39.94,0-62.06-20-50-43.54l29.34-57.18C561.16,879.27,596.66,864,630.82,864h91c34.16,0,58.12,15.23,53.32,34.84l-14,57.18C755.42,979.59,718.14,999.6,678.2,999.6Z"/><path class="cls-5" d="M399.2,999.6H292.75c-39.94,0-56.09-20-37-43.54l46.39-57.18C318,879.27,358.08,864,392.24,864h91c34.15,0,53.57,15.23,42.93,34.84l-31,57.18C482.39,979.59,439.15,999.6,399.2,999.6Z"/><path class="cls-6" d="M120.21,999.6H13.76c-39.95,0-50.14-20-24-43.54l63.43-57.18C74.91,879.27,119.49,864,153.65,864h91c34.16,0,49,15.23,32.55,34.84l-48.09,57.18C209.35,979.59,160.15,999.6,120.21,999.6Z"/><path class="cls-5" d="M1195.54,851.36H1106c-33.62,0-62-14.22-63.45-31.06L1039,778.79c-1.2-14.43,21.71-25.7,51.14-25.7h78.41c29.42,0,57.23,11.27,62.3,25.7l14.6,41.51C1251.41,837.14,1229.15,851.36,1195.54,851.36Z"/><path class="cls-6" d="M960.73,851.36H871.15c-33.62,0-57.82-14.22-54.2-31.06l8.92-41.51c3.1-14.43,29.38-25.7,58.8-25.7h78.41c29.42,0,53.88,11.27,54.65,25.7l2.21,41.51C1020.84,837.14,994.35,851.36,960.73,851.36Z"/><path class="cls-5" d="M725.93,851.36H636.34c-33.61,0-53.57-14.22-44.93-31.06l21.3-41.51c7.4-14.43,37-25.7,66.45-25.7h78.41c29.42,0,50.52,11.27,47,25.7L794.4,820.3C790.28,837.14,759.55,851.36,725.93,851.36Z"/><path class="cls-6" d="M491.13,851.36H401.54c-33.62,0-49.34-14.22-35.67-31.06l33.67-41.51c11.7-14.43,44.69-25.7,74.12-25.7h78.41c29.42,0,47.15,11.27,39.32,25.7L568.86,820.3C559.71,837.14,524.74,851.36,491.13,851.36Z"/><path class="cls-5" d="M256.32,851.36H166.73c-33.61,0-45.09-14.22-26.4-31.06l46-41.51c16-14.43,52.36-25.7,81.78-25.7h78.41c29.42,0,43.79,11.27,31.66,25.7L343.31,820.3C329.15,837.14,289.94,851.36,256.32,851.36Z"/><path class="cls-6" d="M1166,743.66h-77.34c-29,0-53.42-10.62-54.48-23.27l-2.62-31.5c-.92-11,19.31-19.73,45.15-19.73h68.86c25.84,0,49.84,8.68,53.72,19.73l11.07,31.5C1214.81,733,1195,743.66,1166,743.66Z"/><path class="cls-5" d="M963.31,743.66H886c-29,0-50.27-10.62-47.55-23.27l6.77-31.5c2.38-11,25.19-19.73,51-19.73h68.86c25.84,0,47.25,8.68,47.84,19.73l1.69,31.5C1015.28,733,992.32,743.66,963.31,743.66Z"/><path class="cls-6" d="M760.61,743.66H683.27c-29,0-47.1-10.62-40.6-23.27l16.16-31.5c5.67-11,31.07-19.73,56.9-19.73H784.6c25.84,0,44.66,8.68,42,19.73l-7.71,31.5C815.75,733,789.63,743.66,760.61,743.66Z"/><path class="cls-5" d="M557.91,743.66H480.57c-29,0-43.93-10.62-33.66-23.27l25.55-31.5c9-11,37-19.73,62.79-19.73h68.86c25.84,0,42.08,8.68,36.08,19.73l-17.1,31.5C616.22,733,586.93,743.66,557.91,743.66Z"/><path class="cls-6" d="M355.21,743.66H277.88c-29,0-40.77-10.62-26.73-23.27l34.94-31.5c12.26-11,42.83-19.73,68.67-19.73h68.87c25.84,0,39.49,8.68,30.19,19.73l-26.49,31.5C416.69,733,384.23,743.66,355.21,743.66Z"/><path class="cls-5" d="M1143.57,661.88h-68c-25.53,0-46.91-8.24-47.73-18.09l-2.06-24.72c-.73-8.74,17.37-15.62,40.41-15.62h61.39c23,0,44.13,6.88,47.2,15.62l8.69,24.72C1186.9,653.64,1169.1,661.88,1143.57,661.88Z"/><path class="cls-6" d="M965.26,661.88h-68c-25.53,0-44.45-8.24-42.33-18.09l5.31-24.72c1.87-8.74,22-15.62,45.06-15.62h61.39c23,0,42.08,6.88,42.54,15.62l1.32,24.72C1011,653.64,990.79,661.88,965.26,661.88Z"/><path class="cls-5" d="M786.94,661.88h-68c-25.53,0-42-8.24-36.95-18.09l12.68-24.72c4.49-8.74,26.69-15.62,49.73-15.62h61.39c23,0,40,6.88,37.88,15.62l-6,24.72C835.18,653.64,812.47,661.88,786.94,661.88Z"/><path class="cls-6" d="M608.63,661.88h-68c-25.52,0-39.54-8.24-31.55-18.09l20.05-24.72c7.09-8.74,31.35-15.62,54.38-15.62h61.39c23,0,38,6.88,33.23,15.62l-13.42,24.72C659.32,653.64,634.16,661.88,608.63,661.88Z"/><path class="cls-5" d="M430.31,661.88h-68c-25.53,0-37.09-8.24-26.16-18.09l27.42-24.72c9.69-8.74,36-15.62,59-15.62H484c23,0,35.91,6.88,28.56,15.62l-20.78,24.72C483.46,653.64,455.84,661.88,430.31,661.88Z"/><polygon class="cls-1" points="-441.04 603.45 380.87 603.45 -364.15 1275.08 -2208.9 1275.08 -441.04 603.45"/><polygon class="cls-4" points="-441.04 603.45 380.87 603.45 -364.15 1275.08 -2208.9 1275.08 -441.04 603.45"/><path class="cls-6" d="M-189,999.6H-295.47c-39.94,0-43.52-20-9.64-43.54l82.32-57.18c28.23-19.61,77.86-34.84,112-34.84h91c34.16,0,44,15.23,21,34.84l-67,57.18C-93.26,979.59-149.07,999.6-189,999.6Z"/><path class="cls-5" d="M-3.92,851.36H-93.51c-33.61,0-40.4-14.22-16.14-31.06l59.76-41.51c20.77-14.43,60.85-25.7,90.27-25.7h78.41c29.42,0,40.07,11.27,23.17,25.7L93.34,820.3C73.6,837.14,29.7,851.36-3.92,851.36Z"/><path class="cls-6" d="M130.56,743.66H53.22c-29,0-37.25-10.62-19-23.27l45.34-31.5c15.92-11,49.36-19.73,75.2-19.73h68.86c25.84,0,36.62,8.68,23.67,19.73l-36.89,31.5C195.55,733,159.58,743.66,130.56,743.66Z"/><path class="cls-5" d="M-72.14,743.66h-77.34c-29,0-34.08-10.62-12.09-23.27l54.74-31.5c19.2-11,55.23-19.73,81.07-19.73H43.1c25.84,0,34,8.68,17.8,19.73l-46.29,31.5C-4,733-43.12,743.66-72.14,743.66Z"/><path class="cls-5" d="M232.68,661.88h-68c-25.53,0-34.37-8.24-20.19-18.09l35.59-24.72c12.58-8.74,41.17-15.62,64.2-15.62h61.39c23,0,33.64,6.88,23.41,15.62l-29,24.72C288.55,653.64,258.21,661.88,232.68,661.88Z"/><path class="cls-6" d="M54.37,661.88h-68c-25.52,0-31.91-8.24-14.79-18.09l43-24.72c15.18-8.74,45.82-15.62,68.86-15.62h61.39c23,0,31.59,6.88,18.74,15.62l-36.32,24.72C112.69,653.64,79.9,661.88,54.37,661.88Z"/><path class="cls-5" d="M-123.94,661.88h-68c-25.53,0-29.46-8.24-9.4-18.09l50.32-24.72c17.79-8.74,50.49-15.62,73.52-15.62h61.39c23,0,29.54,6.88,14.09,15.62l-43.69,24.72C-63.16,653.64-98.42,661.88-123.94,661.88Z"/></g></g><rect class="cls-10" x="291.96" y="187.5" width="1341.08" height="716" rx="94.32"/><path class="cls-11" d="M1646.51,671.56h0c-.1.15,3,2.52,2.88,2.7-.27.47-21.35-11.31-31.59-17.37C1581.85,635.66,1502,580.23,1446.28,541c-16.7-31-25.07-68.09-29.1-102.17C1407.2,354.57,1420,297.63,1468,228,1558.77,294.21,1650,354,1749.78,405.73,1732.36,439.8,1652.86,670.09,1646.51,671.56Z"/><path class="cls-12" d="M1741.72,401c31.31-5.28,80.25-5,107.22-19.88,2.16-1.19,1.3-.67,2.72-.95s1.8,2,1.78,2.23c-.22,2.64.34,2.37-1.06,4.7-46.09,76.51-77.65,151.57-95.13,239.38-.07.38.16,0,0,.26-.76,1,.45,1.34-1.06,2.12-2,1,.9.58-2.74,1.53-33.9,8.89-69.44,19.86-100.63,36.5-2.27,1.21-4.69,4.39-5.69,1-.81-2.7-1.85,1.88.74-4.14C1684.8,578,1695.06,484.9,1741.72,401Z"/><path class="cls-13" d="M1722,290.93C1741.2,303,1860,368,1857.65,383.74c-.18,1.18-1.12,1.35-2.16,1.9-32.82,17.32-70,15-105.64,21.29a20.38,20.38,0,0,1-7.36.12,17.23,17.23,0,0,1-6.34-2.79,160.31,160.31,0,0,0-14.88-8.33,96.83,96.83,0,0,0,3.75-12c.92-3.78,1.36-6.77,2.25-12.75,0,0,1.28-8.56,1.66-15,.16-2.67.18-5.18.18-5.18,0-.68,0-1.27,0-2C1729,328.87,1725.81,310.28,1722,290.93Z"/><path class="cls-14" d="M1151.34,654.64c2.11,45.68,52.31,77.31,64.75,85.15,130.06,81.94,357.17,4.94,367.2-73.15,7.53-58.64-106.2-127-161.23-141.73-32-8.58-65.49-8.85-65.49-8.85s-28-.23-53.6,5.1C1246.89,532.83,1148.31,588.82,1151.34,654.64Z"/><path class="cls-12" d="M1419.81,587.15c-14.42-8.29-28.77-10.29-38.32-11.63-7.26-1-25.69-3-51.52,2.81-19.14,4.28-78,17.44-87,54.82-3.68,15.27,2.37,28.7,3.57,31.24,9,19.07,28.62,26.4,38.25,30,55.45,20.72,168.56,4.13,177.25-41.31C1466.61,629.44,1442.45,600.16,1419.81,587.15Z"/><path class="cls-15" d="M1592.29,642.65a204.17,204.17,0,0,1-8,81.14c-2.67,8.54-7,22.65-16.79,38.09-19.8,31.36-46.74,47.1-61.49,55.49-42,23.92-111.57,44.32-190.74,28.85-42.52-8.31-106.61-20.73-140-76.84-21-35.35-20.52-72.37-18.75-91.49a203.57,203.57,0,0,0,51.5,54.42c116.05,83.38,324.83,36.18,376-67.92A125,125,0,0,0,1592.29,642.65Z"/><path class="cls-16" d="M1407.27,948.1c-49.76,2.19-102.43-7.18-136.63-46.88-3.43-4-8.49-12.28-11.24-17.27,3.54-16.74,7.77-33.08,11.68-49.62,18.91,6.63,38.83,11.85,58.61,14.26a289.63,289.63,0,0,0,76.31-1Q1406.47,897.83,1407.27,948.1Z"/><path class="cls-11" d="M1683,702.73c31.07-19.89,54.4-46.07,73.53-77.1-38.51,13.13-76,28.26-113.24,44.37-18.86-8.73-38.25-16.54-56.49-26.53-2.91,0-5.41-.33-8.59-.07,12,33.38,8,71.27-3.64,103.64-12.27,34.23-54.23,62.17-80.26,74.89-38.13,18.64-52.62,18.49-89.5,26.22,3,32.75,1.16,66.7,2.49,99.89,68.84-18.85,134.81-45.94,195.93-83.42,8.5-5.22,19.17-12.44,27.93-18.84-9.53-34.71-12.63-95.25,14.48-120.87C1662.33,709.13,1667.67,712.54,1683,702.73Z"/><path class="cls-17" d="M1643.14,669.83c-6.19,4.73-13,9.45-20.66,10.91-13.67,2.61-24.34.19-36.79-5.24-1.43-9-2.82-17.24-5.79-26a218.33,218.33,0,0,0-13.84-31C1591.12,636.6,1617.17,653.13,1643.14,669.83Z"/><path class="cls-14" d="M1730.27,316.44c-1.68-20.76-5.36-66.37-38.76-107.69s-92-72.61-150.44-63.71a114.2,114.2,0,0,0-29,7.92c-103,43.75-96.34,223.82-92.92,240.92h0c1.44,15.73,3.62,28.07,5.13,36.12,1.87,9.94,5,22.89,13.22,48.52,4.84,15.08,11.54,34.47,20.58,56.89A235.2,235.2,0,0,1,1580.5,638.24c26.78-30.75,44.38-50.54,60.92-74.53a532.24,532.24,0,0,0,44.76-79.47C1713.36,424.93,1735.19,377.28,1730.27,316.44Z"/><path class="cls-18" d="M1458.15,663.86c-31.1-8.33-62.22-12-94.16-6.87s-61.7,17.65-89.77,33.87a101.26,101.26,0,0,0,35.35,11,117.71,117.71,0,0,0,16.5.75c22.23-.25,33.35-.37,38.25-.75,15.44-1.22,28.43-2.24,45-7.5,27-8.59,39.89-20.95,42.79-23.83A84.19,84.19,0,0,0,1458.15,663.86Z"/><path class="cls-19" d="M1445.31,676.39a246,246,0,0,1-38-.56c-5.67-.53-42.36-4-47.5,1.59a3.78,3.78,0,0,0-1.27,2.6c.1,3.36,3.45,5.15,3.47,7.43,0,4.23-13.42,7.5-14.24,7.69a351.73,351.73,0,0,1-38.25,6.75c35.34,1.84,60.4-.35,75-2.25a135.31,135.31,0,0,0,24.75-5.25A130.74,130.74,0,0,0,1445.31,676.39Z"/><path d="M1600.3,437.07c1.31,1.34-22.19,44.35-55.15,43.94-45.1-.56-62.54-81.83-61.19-82.55s23.44,69,62.51,71.64C1575.62,472.1,1599.06,435.81,1600.3,437.07Z"/><path d="M1537.7,356.35c7.94-4,10.69-29.37-3.6-41.71-7.93-6.84-21.14-9.72-31-3.75-15,9.08-14.71,34.1-6.84,39.77,3.88,2.79,7.22-.83,18.45.2C1528.89,352.15,1532.92,358.77,1537.7,356.35Z"/><circle class="cls-20" cx="1519.67" cy="332.58" r="7.73"/><path d="M1623.37,384c8.56-2.45,16.05-26.82,4.35-41.64-6.49-8.22-18.92-13.54-29.74-9.54-16.47,6.08-20.89,30.71-14.23,37.76,3.28,3.48,7.24.55,18.08,3.68C1615.52,378.25,1618.22,385.52,1623.37,384Z"/><circle class="cls-20" cx="1608.62" cy="361.71" r="7.83"/><circle class="cls-20" cx="1533.5" cy="329.5" r="3"/><circle class="cls-20" cx="1621.5" cy="353.5" r="3"/><path class="cls-21" d="M1446.73,628.31c4.92,6.83,15.71,21.8,12,37.68-8.34,35.84-84.47,50.76-140.89,38.77-11.66-2.47-55.63-11.81-62.8-37.68-1.24-4.47-5.43-24.07,3.85-42.15.15-.3.3-.59.52-1,8.79-16,29.34-20.38,39.32-22.39C1329.3,595.42,1411.17,579,1446.73,628.31Z"/><path class="cls-21" d="M1432.53,624.49c-2,5.47-7,10.87-19.66,15.84-45.94,18-119.14,1.23-124.51-29.49-3-17.42,16.15-33.44,20.75-37.14,28.89-23.19,71.88-16.91,97.21,2.19C1420.28,586.41,1438.64,608.14,1432.53,624.49Z"/><path class="cls-21" d="M1320.58,583.53c2.89,13.67,24.37,19.67,38.77,19.66,13.25,0,30.68-5.53,38.78-19.66,16.19-28.26-23.14-69-29-66.62-3.34,1.39,5.38,16.57-2.73,27.3-7.94,10.52-22.17,3.72-35.49,15.84C1330.17,560.76,1318.15,572,1320.58,583.53Z"/><path class="cls-22" d="M1288.91,613.57c3.36,13.14,17.16,19.7,25.12,23.48,2.69,1.28,11.06,5.08,27.3,7.64,39,6.17,68.83-3.38,74.27-6,.59-.28,4.12-2.05,4.37-1.64s-1.59,1.71-2.18,2.18c-6.22,4.93-74,21.15-114.14-2.73-13.73-8.18-17.57-17.1-18.56-19.66a33.31,33.31,0,0,1-2.19-10.92,9.67,9.67,0,0,1,2.19-1.09,9.87,9.87,0,0,1,3.27-.55A25.21,25.21,0,0,0,1288.91,613.57Z"/><path class="cls-22" d="M1394.3,589c.2.28-7.84,9.24-20.2,13.66-22.85,8.16-55.24-1.08-60.07-18.57-.85-3.08-1.26-7.93,1.64-14.75a31.62,31.62,0,0,1,6-3.82,30.42,30.42,0,0,1,6-2.18,26.56,26.56,0,0,0-5.46,8.73,25.37,25.37,0,0,0-1.64,11.47c1.79,12.13,27.74,23.85,49.7,18.57C1384.63,598.65,1394.1,588.7,1394.3,589Z"/><path d="M1304.2,622.85c.5,3.73,3.16,8.12,6,8.19a4.73,4.73,0,0,0,2.73-1.09c.78-.53,2.5-1.88,3.82-5.46.69-1.88,3.21-8.72-.55-13.65-.76-1-1.51-2-2.73-2.19C1309.57,608,1303.24,615.78,1304.2,622.85Z"/><path d="M1329.57,632c.5,3.74,3.16,8.13,6,8.19a4.73,4.73,0,0,0,2.73-1.09c.78-.53,2.5-1.88,3.82-5.46.69-1.88,3.21-8.72-.55-13.65-.76-1-1.51-2-2.73-2.19C1334.94,617.18,1328.61,625,1329.57,632Z"/><path d="M1334.23,672.54c.72.27-1.76,16.25-7.64,16.93-6.43.74-12.35-17.29-12-17.47s5.16,13,10.92,12.56C1330.87,684.19,1333.61,672.31,1334.23,672.54Z"/><ellipse class="cls-20" cx="1334.23" cy="628.86" rx="2.18" ry="4.37"/><ellipse class="cls-20" cx="1309.11" cy="619.57" rx="2.18" ry="4.37"/><path class="cls-23" d="M603.61,144.16c47.59-14.85,78.2-13.48,97.85-8.9a303.62,303.62,0,0,0,33.16,6.47,290.18,290.18,0,0,0,50.13,2.43V357.65a146.83,146.83,0,0,1-17.79-.81c-16-1.69-23.4-5.12-32.34-6.47s-22.17-1-39.63,7.28Z"/><path class="cls-24" d="M695,357.65a74.5,74.5,0,0,1-22.64,26.69c-5,3.59-17.65,11.56-69.55,12.13-63.15.7-79.56-10.7-87.34-17.79a64.1,64.1,0,0,1-8.08-8.9c-3.82-27.6-6.76-57.9-8.09-90.57a941.1,941.1,0,0,1,1.62-105.94,200.27,200.27,0,0,0,88.95,25.07A201.38,201.38,0,0,0,695,173.27Z"/><path class="cls-20" d="M695,173.27c-.36,13.35-51.13,23.62-87.34,25.07-48.91,2-106.37-10.75-106.74-25.07-.35-13.16,47.48-27.29,87.33-29.11C639.73,141.81,695.37,159.2,695,173.27Z"/><ellipse class="cls-25" cx="600.37" cy="173.27" rx="32.35" ry="12.94"/><path class="cls-26" d="M569.64,173.27c0,2.7,2.6,4.71,4.86,6.47a21.73,21.73,0,0,0,9.7,4c5.42,1.12,11.2.87,11.32,0,.19-1.36-13.31-1.95-14.55-7.28-1.18-5,9.39-10.6,8.08-12.94-.87-1.57-6.21-.09-8.89.81C579.14,164.72,569.58,168,569.64,173.27Z"/><path class="cls-24" d="M534.06,172.46c.13,5.72,8.73,9.73,12.13,11.33,17.56,8.2,45.32,7.47,53.38,8.08.72.06,2.29.2,2.42.81s-1.17,1.36-1.62,1.62c-4.26,2.48-85.28-.75-85.72-20.22-.42-19,76.57-26,78.45-25.07.8.41.8.81.8.81,0,.4-.59.7-.8.81-2.2,1.11-31.25,2.18-46.91,9.7C543.93,161.42,533.92,166.23,534.06,172.46Z"/><path class="cls-23" d="M1283.73,144.16c-47.59-14.85-78.2-13.48-97.85-8.9a303.26,303.26,0,0,1-33.15,6.47,290.32,290.32,0,0,1-50.14,2.43V357.65a146.83,146.83,0,0,0,17.79-.81c15.95-1.69,23.41-5.12,32.35-6.47s22.16-1,39.62,7.28Z"/><path class="cls-24" d="M1192.35,357.65A74.61,74.61,0,0,0,1215,384.34c5,3.59,17.65,11.56,69.55,12.13,63.15.7,79.56-10.7,87.34-17.79a65,65,0,0,0,8.09-8.9c3.81-27.6,6.75-57.9,8.08-90.57a943.61,943.61,0,0,0-1.61-105.94,200.32,200.32,0,0,1-89,25.07,201.41,201.41,0,0,1-105.13-25.07Z"/><path class="cls-20" d="M1192.35,173.27c.37,13.35,51.13,23.62,87.34,25.07,48.91,2,106.37-10.75,106.75-25.07.34-13.16-47.49-27.29-87.34-29.11C1247.62,141.81,1192,159.2,1192.35,173.27Z"/><ellipse class="cls-25" cx="1286.97" cy="173.27" rx="32.35" ry="12.94"/><path class="cls-26" d="M1317.7,173.27c0,2.7-2.6,4.71-4.85,6.47a21.81,21.81,0,0,1-9.71,4c-5.42,1.12-11.2.87-11.32,0-.19-1.36,13.31-1.95,14.56-7.28,1.17-5-9.4-10.6-8.09-12.94.88-1.57,6.21-.09,8.89.81C1308.2,164.72,1317.77,168,1317.7,173.27Z"/><path class="cls-24" d="M1353.28,172.46c-.13,5.72-8.72,9.73-12.13,11.33-17.56,8.2-45.32,7.47-53.37,8.08-.72.06-2.29.2-2.43.81s1.18,1.36,1.62,1.62c4.26,2.48,85.29-.75,85.72-20.22.42-19-76.57-26-78.44-25.07-.81.41-.81.81-.81.81,0,.4.59.7.81.81,2.19,1.11,31.24,2.18,46.9,9.7C1343.42,161.42,1353.42,166.23,1353.28,172.46Z"/><path class="cls-23" d="M1102.39,358.09A1306.62,1306.62,0,0,1,944.7,367.8a1305.76,1305.76,0,0,1-160.12-9.71V144.6a982.15,982.15,0,0,0,161.74,12.94,981.43,981.43,0,0,0,156.07-12.94Z"/><path class="cls-27" d="M774.89,249.8l-17.1,23.71v16.83a7.58,7.58,0,1,1-15.16,0V273.51l-17.19-23.63a7.16,7.16,0,0,1-1.85-4.84A7.38,7.38,0,0,1,737,240.72l13.23,19.57,13.13-19.57a7.52,7.52,0,0,1,6-3.09,7.39,7.39,0,0,1,5.55,12.17Z"/><path class="cls-27" d="M809.18,237.45c18,0,31.38,12.52,31.38,30.42s-13.4,30.41-31.38,30.41-31.47-12.52-31.47-30.41S791.2,237.45,809.18,237.45Zm0,13.4c-9.79,0-16,7.41-16,17s6.26,17,16,17,16-7.49,16-17S818.87,250.85,809.18,250.85Z"/><path class="cls-27" d="M848.22,245.3a7.72,7.72,0,0,1,15.43,0v27.59c0,7,3.7,12,11.9,12s11.81-5,11.81-12V245.3a7.72,7.72,0,0,1,15.43,0v28c0,14.63-8.37,24.95-27.24,24.95s-27.33-10.4-27.33-24.86Z"/><path class="cls-27" d="M979.21,290.17l-7.31-29.8-7.32,29.8a10,10,0,0,1-9.79,7.84,10.06,10.06,0,0,1-9.69-7.31l-12.25-42.84a8.75,8.75,0,0,1-.27-2.21,8,8,0,0,1,15.78-1.76L956,277.65l8.9-34.55a7.17,7.17,0,0,1,13.93,0l8.9,34.55L995.34,244a8.12,8.12,0,0,1,7.85-6.35,8,8,0,0,1,8,8,9.85,9.85,0,0,1-.26,2.29L998.69,290.7a10.05,10.05,0,0,1-19.48-.53Z"/><path class="cls-27" d="M1045.15,237.45c18,0,31.38,12.52,31.38,30.42s-13.4,30.41-31.38,30.41-31.47-12.52-31.47-30.41S1027.16,237.45,1045.15,237.45Zm0,13.4c-9.79,0-16.05,7.41-16.05,17s6.26,17,16.05,17,15.95-7.49,15.95-17S1054.84,250.85,1045.15,250.85Z"/><path class="cls-27" d="M1121.92,294.05l-22.57-32.35v28.64a7.58,7.58,0,1,1-15.16,0V247.59a10,10,0,0,1,10-10,9.84,9.84,0,0,1,8.11,4.32l21.34,30.32v-27a7.63,7.63,0,1,1,15.25,0v43.46a9.31,9.31,0,0,1-16.93,5.29Z"/><path class="cls-27" d="M1155.94,281.71a8.24,8.24,0,1,1,0,16.48,8.24,8.24,0,0,1,0-16.48Zm-6.34-10.23-1.41-25.74a7.72,7.72,0,1,1,15.42,0l-1.32,25.74a6.36,6.36,0,0,1-12.69,0Z"/></g></svg>