<svg xmlns="http://www.w3.org/2000/svg" width="1260" height="350" viewBox="0 0 1260 350"><defs><style>.cls-1{fill:#ff4a78;opacity:0.25;}</style></defs><g id="Sad_Poop" data-name="Sad Poop"><path class="cls-1" d="M355.09,29.43c-2.79,0-6.95.08-12,0a430.59,430.59,0,0,1-90-11c-24.24-5.07-61.72-6.41-119,11a332.25,332.25,0,0,0-84,10s-46,11.76-46,26v4h0a1092.3,1092.3,0,0,0-2,134c1.76,37.84,5.38,73,10,105a67.75,67.75,0,0,0,10,11c18.74,16.52,42.08,18.28,57,19,79.17,3.86,128.94,6.28,156-28a73.18,73.18,0,0,0,10-17c15.63-8.41,28.34-10,37-10,16.6.09,25.84,6.35,52,9a195.22,195.22,0,0,0,21,1Z"/><path class="cls-1" d="M807.09,23.61c-2.79,0-7,.07-12,0a432,432,0,0,1-90-11c-24.24-5.08-61.72-6.42-119,11-36.54-.14-64.86,5.1-84,10,0,0-46,11.75-46,26v4h0a1092.23,1092.23,0,0,0-2,134c1.76,37.83,5.38,72.95,10,105a68.6,68.6,0,0,0,10,11c18.74,16.51,42.08,18.27,57,19,79.17,3.85,128.94,6.27,156-28a73.59,73.59,0,0,0,10-17c15.63-8.42,28.34-10.05,37-10,16.6.08,25.84,6.34,52,9a197.9,197.9,0,0,0,21,1Z"/><path class="cls-1" d="M1259.09,29.61c-2.79,0-6.95.07-12,0a432,432,0,0,1-90-11c-24.24-5.08-61.72-6.42-119,11-36.54-.14-64.86,5.1-84,10,0,0-46,11.75-46,26v4h0a1092.23,1092.23,0,0,0-2,134c1.76,37.83,5.38,72.95,10,105a68.6,68.6,0,0,0,10,11c18.74,16.51,42.08,18.27,57,19,79.17,3.85,128.94,6.27,156-28a73.59,73.59,0,0,0,10-17c15.63-8.42,28.34-10.05,37-10,16.6.08,25.84,6.34,52,9a197.9,197.9,0,0,0,21,1Z"/></g></svg>